<svg version="1.1" xmlns="http://www.w3.org/2000/svg" viewBox="0 0 1099.1196769016356 747.7454073704072" width="2198.239353803271" height="1495.4908147408144">
  <!-- svg-source:excalidraw -->
  
  <defs>
    <style>
      @font-face {
        font-family: "Virgil";
        src: url("https://excalidraw.com/FG_Virgil.woff2");
      }
      @font-face {
        font-family: "Cascadia";
        src: url("https://excalidraw.com/Cascadia.woff2");
      }
    </style>
  </defs>
  <rect x="0" y="0" width="1099.1196769016356" height="747.7454073704072" fill="#ffffff"></rect><g transform="translate(616.249193542306 408.4586575193404) rotate(0 35.3515625 32.53773834745763)"><path d="M33.39777198459835 0.9064366800436332 C40.29038338618334 0.2994748313890637, 49.07579743110965 3.093752176565946, 55.133359334085085 6.991015276175759 C61.19092123706052 10.888278375785571, 67.65599068216409 18.028343294826186, 69.74314340245098 24.29001527770251 C71.83029612273788 30.55168726057883, 70.53617457763322 38.33376939273605, 67.65627565580647 44.5610471734337 C64.77637673397972 50.78832495413135, 58.76036977057933 58.34416017562026, 52.463749871490464 61.65368196188838 C46.1671299724016 64.9632037481565, 37.30021649002634 65.60508429727375, 29.876556261273265 64.41817789104243 C22.452896032520197 63.231271484811124, 12.948049815698145 59.61968979301851, 7.921788498972049 54.53224352450053 C2.895527182245953 49.44479725598255, -0.09455425002384446 40.76633063731207, -0.28101163908331017 33.89350027993457 C-0.4674690281427759 27.02066992255707, 2.302920370777769 18.727959020573216, 6.803044164615255 13.295261380235516 C11.30316795845274 7.862563739897816, 21.90351924363987 3.4851351935347856, 26.719731123941607 1.2973144379083728 C31.535943004243343 -0.8905063177180401, 33.706093518505114 0.12738017715888125, 35.70031544642568 0.16833684647703961 C37.69453737434624 0.20929351579519798, 38.53306629959026 0.9081742951171007, 38.68506269146499 1.543054453817323 M23.81896174139557 0.8146681788791099 C30.258363066208315 -1.698431386090022, 38.3597232185336 -0.763085921910784, 45.4175436276669 1.5827391052605613 C52.4753640368002 3.9285641324319065, 62.04391211504923 9.236991417518531, 66.16588419619538 14.88961834190718 C70.28785627734152 20.54224526629583, 71.23986846829544 28.519339326877578, 70.14937611454377 35.49850065159245 C69.0588837607921 42.477661976307324, 64.78214774280673 51.92065571940995, 59.62293007368534 56.764586290196426 C54.46371240456395 61.6085168609829, 46.12791884958495 63.8678703252077, 39.19407009981542 64.56208407631132 C32.26022135004589 65.25629782741495, 24.40802184259297 64.3938049603433, 18.019837575068152 60.929868796818184 C11.631653307543335 57.46593263329307, 3.400134454829048 50.12458609338222, 0.8649644946665092 43.77846709516064 C-1.6702054654960299 37.432348096939066, 0.0291463627496249 29.090569914408118, 2.8088178140929188 22.85315480748872 C5.588489265436213 16.615739700569325, 14.177286134487172 9.590752393121711, 17.542993202726272 6.353976453644275 C20.908700270965372 3.1172005141668397, 21.835414880774323 3.8684260225229834, 23.00306022352752 3.4324991706241086 C24.170705566280716 2.9965723187252338, 24.43511671985095 3.5234727037108615, 24.54886525924546 3.7384153422510273" stroke="#000000" stroke-width="2" fill="none"></path></g><g><g transform="translate(647.7375409999332 473.3073196981292) rotate(0 -2.0584737396828814 39.519874478503596)"><path d="M-0.8142058342695235 -0.12982602417469025 C-1.648192560049777 12.978854741332896, -3.4502984254205464 65.45431104539816, -3.9012925974898622 78.7965519915698 M0.9591973733995109 -1.2435886322055012 C-0.16709170188855116 12.048379041869035, -4.197514116024026 67.05570992482747, -5.076144852765335 80.28333758921268" stroke="#000000" stroke-width="2" fill="none"></path></g></g><g><g transform="translate(644.4404011694243 554.2196607998227) rotate(0 14.738278906326059 23.934237558117616)"><path d="M-0.12982602417469025 -0.43201293647289274 C5.035042947547585 7.714053272813722, 25.7352520764716 40.13264437720261, 31.133681228857938 48.062191421450166 M-1.6571234162058681 -1.70442367346026 C3.328643427070305 6.712800314029842, 24.51945529872589 41.296385814092005, 30.134996111652335 49.572898789695515" stroke="#000000" stroke-width="2" fill="none"></path></g></g><g><g transform="translate(639.8455918473902 550.6974150371094) rotate(0 -13.102505657408472 22.267340082075776)"><path d="M-0.43201293647289274 -0.09645648300647736 C-4.758360215886836 7.546411228701891, -22.22942306630018 38.08112813495309, -26.772289510753183 45.72738024607552 M1.5420415425393732 -1.1927000819239766 C-2.875536995684137 6.146073633199976, -23.272877286585818 36.61246072686487, -27.747052857356323 44.14587636589324" stroke="#000000" stroke-width="2" fill="none"></path></g></g><g><g transform="translate(617.5270007456949 488.2901057150754) rotate(0 14.880355529058647 14.028205672202773)"><path d="M-0.09645648300647736 -0.0508912056684494 C5.15300550836291 4.712827801855948, 26.114099533258187 23.218237984938156, 31.366945924041637 28.15030110867349 M-1.6062348659243435 -1.1232130339834838 C3.5867440918475744 3.7979911900988923, 25.48823646799493 24.422214662286994, 30.959971329010866 29.179624378389022" stroke="#000000" stroke-width="2" fill="none"></path></g></g><g><g transform="translate(649.8495643050175 516.9182836811775) rotate(0 21.708093812608865 -12.047073028843613)"><path d="M-0.0508912056684494 1.030611178278923 C7.145958098466116 -2.881884945061918, 35.38388946798899 -19.397770717874742, 42.7490828883345 -23.57143322305152 M-1.536747817983851 0.526078101536259 C6.065197665695639 -3.6887352086966136, 37.4306704881628 -20.70114590823149, 44.95293544320154 -25.124757235966193" stroke="#000000" stroke-width="2" fill="none"></path></g></g><g><g transform="translate(604.4595351736626 414.1641126006704) rotate(0 51.39036957651848 10.06136858426035)"><path d="M1.030611178278923 -0.9678132981061935 C18.158053231363514 2.5557603139430274, 85.80192016425241 17.529394457116716, 102.66819583550105 21.090550466626876 M0.11254331753589208 1.1384807750489565 C17.185279146715395 4.2979202646668995, 85.34134931672062 15.78401325053535, 102.28940110773789 19.190246611079196" stroke="#000000" stroke-width="2" fill="none"></path></g></g><g transform="translate(627.4233537063702 400.64131288868856) rotate(10.74366233694554 30.400191128048846 10.486698509180314)"><path d="M1.1103545874357224 1.9262901097536087 L60.75027017254345 1.0396147519350052 L60.04407291073315 21.164986925172368 L0.23639170825481415 19.83754618649439" stroke="none" stroke-width="0" fill="#fff"></path><path d="M1.8071451932191849 0.7056218832731247 C19.056191757321844 0.0436041911311863, 34.52699430286982 1.2742050250240085, 61.69570083875172 1.9233032912015915 M-0.30415407568216324 0.17861274629831314 C17.366422467087215 -0.27063905184051484, 35.40256144882144 -0.2070492405154416, 60.645634375102446 0.16503647714853287 M62.24212951917164 -1.4178641587495804 C59.24392997187378 6.215164069436486, 61.94815122050049 12.968965613052239, 59.33672685880177 20.863714145469228 M60.56532164622061 -0.6106993779540062 C61.73250676634021 7.667073257534528, 60.60891558172412 16.65997193062072, 61.332487545497344 20.227821627604524 M61.92697878140919 22.914270328330556 C40.4474986201047 23.315781645790484, 21.93293850274553 22.90993838788643, -0.8304876536130905 20.503869460868398 M60.11014600802176 20.579466143595734 C44.83979482982015 21.480739941648217, 26.77436155933338 20.693362345746728, -0.4832891598343849 20.122362652766267 M0.25280626118183136 20.184430526542226 C-0.36939449852647077 15.379410707339265, 1.1924622481471132 10.061375141065993, -0.8609399050474167 1.5698434561491013 M0.20898111909627914 20.700996914851228 C0.8491860050409292 11.760156914585554, 0.21206027452640283 4.765399983167537, -0.9238316193223 -0.27609630674123764" stroke="#000000" stroke-width="2" fill="none"></path></g><g transform="translate(22.937333512233096 507.8083644166076) rotate(0 35.3515625 32.53773834745763)"><path d="M45.121122370957906 1.6133329174010704 C52.19184593219352 3.0158618976938536, 60.80412071955335 7.8018348079970545, 64.94977313076913 13.345501368694908 C69.09542554198491 18.889167929392762, 70.56848762710547 28.05088210797502, 69.99503683825257 34.87533228158819 C69.42158604939968 41.699782455201365, 66.31637157875399 49.30747650574393, 61.509068397651745 54.29220241037394 C56.7017652165495 59.27692831500395, 48.31458492994775 63.62494865690351, 41.151217751639095 64.78368770936827 C33.98785057333044 65.94242676183302, 24.97218039979834 64.53288786422326, 18.52886532779983 61.24463672516245 C12.085550255801323 57.956385586101646, 5.2601944824858755 51.23999615403965, 2.4913273196480503 45.054180875003425 C-0.2775398431897744 38.8683655959672, -0.32687256963641387 30.544780464456203, 1.9156623507728838 24.129745050945075 C4.158197271182182 17.71470963743395, 10.09694713630951 10.716786866012832, 15.946536842103836 6.5639683939366655 C21.79612654789816 2.4111499218605, 31.036889748008857 -0.44249272865561845, 37.01320058553885 -0.7871657815119164 C42.98951142306884 -1.1318388343682144, 48.3469266698695 3.0090156743105183, 51.80440186728379 4.495930076798878 C55.261877064698076 5.9828444792872375, 57.96080012281369 7.615876342648715, 57.75805177002458 8.134320633418241 M34.587020367817125 1.3957889915270627 C41.603741002050384 1.010745088962775, 51.1704909566419 2.7818605467669553, 57.287699337310954 6.948253433096763 C63.40490771798001 11.114646319426571, 69.85519994410373 19.635451964481796, 71.29027065183143 26.39414630950591 C72.72534135955914 33.152840654530024, 69.27641424892614 41.366633274999835, 65.89812358367719 47.50041950324146 C62.519832918428236 53.634205731483085, 57.37977278237936 60.182420723998376, 51.02052666033772 63.19686367895567 C44.66128053829608 66.21130663391297, 35.04493203790135 67.16472356797152, 27.742646851427345 65.58707723298524 C20.440361664953343 64.00943089799895, 11.62546213686456 59.17533810448189, 7.206815541493704 53.73098566903799 C2.788168946122849 48.286633233594095, 1.1579501031283517 39.996919088709056, 1.2307672792022188 32.92096262032187 C1.303584455276086 25.845006151934687, 3.181239764430279 16.65349316376556, 7.643718597936907 11.27524685871488 C12.106197431443535 5.897000553664198, 23.24688350809673 2.7032018587764823, 28.005640280241987 0.6514847900177827 C32.764397052387245 -1.400232278740917, 35.045675446864486 -1.175668745956407, 36.19625923080845 -1.0350555538373172 C37.346843014752416 -0.8944423617182272, 34.970607675633914 1.0251535716552542, 34.909142983905795 1.4951639427323222" stroke="#000000" stroke-width="2" fill="none"></path></g><g><g transform="translate(54.42568096986034 572.6570265953964) rotate(0 -2.201367612842688 39.52606478802815)"><path d="M0.4233731299638748 0.6443564862012863 C-0.03821369347262854 13.468723286865119, -3.1669430939996475 64.89951406358662, -3.7373342387252135 78.03048791991452 M-0.8134947061445565 -0.06296030388213691 C-1.3718739303584 13.405428573805683, -4.375397235607156 66.2096445275649, -4.826108355649247 79.1150898799384" stroke="#000000" stroke-width="2" fill="none"></path></g></g><g><g transform="translate(51.12854113935137 653.5693676970881) rotate(0 16.075126657247765 23.56450068670091)"><path d="M0.6443564862012863 -0.26805457770824437 C5.524911493079813 7.758614658922119, 25.18045509466008 40.32753535315476, 30.367617157202666 48.58338854974606 M-0.47649508788250383 -1.4543871763441711 C4.685692959006951 6.17075642784515, 27.333389901463317 38.54359455241903, 32.62674840237804 46.707724410346756" stroke="#000000" stroke-width="2" fill="none"></path></g></g><g><g transform="translate(46.533731817319136 650.0471219343784) rotate(0 -12.580074598524817 22.185719831363656)"><path d="M-0.26805457770824437 -0.8625205546617507 C-4.713798829778437 6.569080067202867, -22.03453209034803 37.66342832111032, -26.251092382457283 45.233960217389 M1.792078039655462 1.2990522088017316 C-2.8075808818688284 8.315643611913965, -22.36566854825879 35.97546851075464, -26.952227236705077 43.393410822146286" stroke="#000000" stroke-width="2" fill="none"></path></g></g><g><g transform="translate(10.862520554661756 617.1532420273073) rotate(0 20.482428948011133 -13.169298795245737)"><path d="M-0.8625205546617507 0.4703059226274491 C6.001316439418707 -3.7003798645993013, 34.82461018218952 -20.673030755052935, 41.82737845068404 -25.292169301068746 M0.8855174248013644 -0.32838741333223886 C7.581956163116384 -4.780277254020541, 34.5894547146588 -22.472603930075316, 41.16135834059284 -26.808903513118963" stroke="#000000" stroke-width="2" fill="none"></path></g></g><g><g transform="translate(51.17898948621442 589.3753849446406) rotate(0 14.975010096114517 18.149704815489258)"><path d="M0.4703059226274491 0.5371911495923996 C5.6303054171724245 6.52424847544947, 25.980395653805697 29.13588558145954, 30.69194238956161 35.059823400480674 M-0.7419221973326058 -0.2263874422106893 C4.384484206737764 6.02859958396138, 25.023626821608286 30.78758658014393, 30.349737462662908 36.52579707318917" stroke="#000000" stroke-width="2" fill="none"></path></g></g><g transform="translate(244.75148953344743 359.7454073704072) rotate(0 18.75 19.25)"><path d="M25.323554362108858 1.4714230863514608 C29.070826684897135 2.6648177935350716, 33.525547041625224 6.585901705452665, 35.47043646650128 10.195571235404868 C37.41532589137734 13.805240765357071, 37.7390237318623 18.99200866386325, 36.99289091136522 23.129440266064677 C36.24675809086815 27.266871868266104, 33.96089875273042 32.3388741047967, 30.993639543518825 35.020160848613436 C28.026380334307223 37.70144759243017, 23.403436763351635 39.572172130859364, 19.189335656095622 39.217160728965084 C14.975234548839609 38.8621493270708, 8.959405744345165 35.64104110915097, 5.709032899982736 32.89009243724775 C2.4586600556203067 30.13914376534453, 0.3229621066561169 26.765214926171254, -0.312901410078954 22.711468697545765 C-0.9487649268140249 18.657722468920277, -0.263224234080226 12.055506248031714, 1.8938517995723103 8.567615065494829 C4.050927833224847 5.0797238829579445, 8.497117370199057 2.952106610825642, 12.629554791836263 1.7841216023244577 C16.76199221347347 0.6161365938232732, 24.2268784166779 1.5027474330299964, 26.688476329395552 1.5597050144877223 C29.150074242113206 1.6166625959454481, 27.377681463514996 1.8266804116473052, 27.399142268142178 2.1258670910708126 M15.822601607357988 0.5852754557923703 C19.49716679592967 0.01986880387242851, 26.515242112441317 2.0263336785606594, 30.154777242782092 4.520364803211448 C33.794312373122864 7.014395927862237, 36.72920880091595 11.53096633031219, 37.65981238940263 15.549462203697104 C38.590415977889315 19.567958077082018, 37.33920782965221 24.935454421890054, 35.73839877370217 28.63134004352093 C34.137589717752135 32.32722566515181, 31.77067260976808 36.240370455742635, 28.054958053702425 37.72477593348236 C24.33924349763677 39.20918141122209, 17.608479459735538 38.74854799943244, 13.444111437308237 37.53777290995929 C9.279743414880937 36.326997820486135, 5.184426253353193 33.93032539060894, 3.0687499191386287 30.46012539664345 C0.953073584924065 26.989925402677954, 0.4653014993913705 20.691528756511236, 0.7500534320208558 16.716572946166316 C1.0348053646503412 12.741617135821395, 2.0221842481425862 9.626357668774077, 4.777261514915541 6.610390534573925 C7.532338781688495 3.594423400373774, 15.387455394321755 -0.23551083243773063, 17.280517032658583 -1.3792298590345915 C19.17357867099541 -2.522948885631452, 16.37483140442104 -0.7461341357788853, 16.13563134493651 -0.2519236250072403" stroke="#000000" stroke-width="4" fill="none"></path></g><g transform="translate(366.7514895334474 510.2454073704072) rotate(0 23.75 23.5)"><path d="M23.526910140174166 0.5633522183299533 C28.323971693686765 0.24954758826647822, 35.5263298422261 1.537854722708309, 39.37305079660732 4.627722485076301 C43.21977175098855 7.717590247444294, 45.93922494496841 14.02114093038332, 46.60723586646152 19.102558792537906 C47.275246787954636 24.183976654692493, 45.73021976339287 30.795643877177305, 43.38111632556599 35.11622965800382 C41.032012887739114 39.43681543883033, 37.14395181967233 43.35712741901363, 32.51261523950024 45.02607347749698 C27.88127865932815 46.69501953598033, 20.51249188274505 46.774445803903035, 15.593096844533441 45.12990600890392 C10.673701806321834 43.48536621390481, 5.416552431778721 39.430162015621626, 2.996245010230588 35.1588347075023 C0.5759375886824558 30.887507399382976, 0.2065279674028 24.332633857956832, 1.0712523152446494 19.50194216018797 C1.9359766630864987 14.671250462419106, 3.816985017103163 9.302342859071034, 8.184591097281684 6.174684520889127 C12.552197177460204 3.0470261827072185, 23.996898478865894 1.5678856674429071, 27.276888796315774 0.7359921310965198 C30.556879113765653 -0.09590140524986757, 28.112224882166146 0.7311868076802497, 27.86453300198097 1.183323302810802 M11.877760723355632 2.00063824146401 C16.135842162518664 -0.23714002977662352, 25.080567190337696 0.7230052359411909, 30.24714777714725 2.122870557817013 C35.41372836395681 3.522735879692835, 40.105001105398586 6.553587232547882, 42.87724424421296 10.399830172718941 C45.649487383027335 14.24607311289, 47.18187054233062 20.448150372874636, 46.880606610033496 25.200328198843373 C46.57934267773637 29.95250602481211, 44.579068021638534 35.5378727782052, 41.069660650430194 38.912897128531355 C37.560253279221854 42.28792147885751, 31.08061619640664 45.00335447746809, 25.824162382783438 45.45047430080034 C20.567708569160235 45.89759412413258, 13.623718930432593 44.224117007279744, 9.530937768690984 41.59561606852483 C5.438156606949375 38.96711512976992, 2.3188538405280745 34.13417542097062, 1.2674754123337841 29.679468668270893 C0.21609698413949396 25.224761915571168, 1.1887492312059806 19.239973273524797, 3.222667199525244 14.867375552326482 C5.2565851678445075 10.494777831128168, 11.984438331788867 5.491055147534192, 13.470983222249364 3.4438823410810144 C14.957528112709861 1.3967095346278366, 12.0771121014012 2.649798675277459, 12.14193654228822 2.5843387136074156" stroke="#000000" stroke-width="4" fill="none"></path></g><g transform="translate(415.2514895334474 237.74540737040718) rotate(0 24 23)"><path d="M16.229927073875125 1.284896122207055 C20.99351102966134 -0.3253195700423588, 29.569563627870497 -0.3195345695853664, 34.28041109818366 1.4773024389142613 C38.99125856849683 3.274139447413889, 42.27059646017655 7.7107993261105365, 44.49501189575412 12.065918173204821 C46.71942733133169 16.421037020299107, 48.725644475471256 22.749809723493996, 47.62690371164906 27.608015521479967 C46.52816294782686 32.46622131946594, 42.13933990394072 38.279406048148985, 37.90256731282091 41.21515296112064 C33.665794721701104 44.15089987409229, 27.378458116379072 45.53738661996977, 22.206268164930187 45.2224969993099 C17.0340782134813 44.90760737865002, 10.406757794535013 42.72368396886401, 6.869427604127598 39.325815237161386 C3.332097413720183 35.92794650545876, 1.4877415219132253 29.626850187593632, 0.9822870224856999 24.83528460909415 C0.4768325230581745 20.043719030594666, 0.9975644878665171 14.618842218586233, 3.8367006075624452 10.576421766164497 C6.675836727258373 6.5340013137427615, 15.197097910788406 2.139320053535365, 18.01710374066127 0.5807618945637358 C20.837109570534135 -0.9777962644078932, 20.571426558697155 0.7057455516563765, 20.756735586799632 1.225072812334723 M15.455764431252184 1.5586656823763612 C20.087998220266172 -0.22820058894945738, 27.20514829292706 1.132823816224147, 32.0175562800833 2.875255607683581 C36.82996426723953 4.617687399143015, 41.921256706309904 8.043514697380058, 44.330212354189605 12.013256431132964 C46.739168002069306 15.98299816488587, 47.406822587126186 21.848332119803395, 46.47129016736148 26.693706010201016 C45.535757747596776 31.539079900598637, 42.45965914460599 37.64662756606184, 38.71701783560137 41.085499773518684 C34.97437652659674 44.52437198097553, 29.128036303510356 47.5710056498516, 24.015442313333725 47.326939254942076 C18.902848323157095 47.08287286003255, 11.929815323176795 43.25639796975451, 8.041453894541574 39.62110140406154 C4.153092465906353 35.98580483836857, 1.599017513370606 30.314753688001, 0.6852737415224013 25.515159860784248 C-0.22847003032580349 20.715566033567494, -0.17634518656400866 14.949856055414646, 2.558991263452345 10.823538440761023 C5.294327713468698 6.6972208261074, 14.885972653181772 2.3980017323074696, 17.097292441620525 0.7572541728625097 C19.308612230059275 -0.8834933865824504, 15.81317237143214 0.4728334267173532, 15.826909994084856 0.9790530840912623" stroke="#000000" stroke-width="4" fill="none"></path></g><g transform="translate(229.25148953344743 349.2454073704072) rotate(0 5 5.25)"><path d="M4.674774667716562 -0.6428268497489542 C5.9056167579463725 -0.7789987267956137, 7.94622477674361 0.3315874207408549, 8.860035548092101 1.1637461430242055 C9.773846319440594 1.9959048653075562, 9.917912732674438 3.350697214568617, 10.157639295807513 4.35012548395115 C10.397365858940589 5.349553753333683, 11.003984571046106 6.191908846457463, 10.298394926890559 7.160315759319403 C9.592805282735013 8.128722672181343, 7.020706573293165 9.726339257456546, 5.924101430874231 10.16056696112279 C4.827496288455297 10.594794664789033, 4.524053993343205 10.208521086522481, 3.718764072376956 9.76568198131686 C2.913474151410707 9.322842876111238, 1.5984704219289303 8.334973584432982, 1.0923619050767357 7.503532329889066 C0.5862533882245411 6.672091075345151, 0.6939102018830029 5.8412927080821815, 0.6821129712637886 4.777034454053364 C0.6703157406445742 3.712776200024547, 0.1583020020857201 1.8864484272372195, 1.0215785213614499 1.1179828057161618 C1.8848550406371798 0.34951718419510425, 5.047038648627893 0.2415077531207408, 5.861772086918167 0.16624072492701902 C6.676505525208441 0.09097369673329725, 6.189483123504311 0.6078963007390147, 5.909979151103093 0.6663806365538312 M4.9286464366603475 -0.12848207354391672 C5.746161482622699 0.3177666786270625, 6.490612666930872 2.086843778056494, 7.564975311949034 3.0000444206090133 C8.639337956967196 3.9132450631615328, 11.210388307430382 4.455314699478754, 11.37482230676932 5.350721781771201 C11.539256306108257 6.246128864063648, 9.644664096597634 7.684369337581162, 8.551579307982662 8.372486914363698 C7.45849451936769 9.060604491146233, 5.8564890103153955 9.09596288738459, 4.816313575079486 9.479427242466413 C3.776138139843577 9.862891597548234, 3.098970832222942 11.280800242604265, 2.3105266965672078 10.673273044854625 C1.5220825609114734 10.065745847104985, 0.389631879933993 7.032175942047683, 0.08564876114507936 5.834264055968577 C-0.2183343576438343 4.63635216988947, -0.12851887945073226 4.2774257227870915, 0.48662798383372596 3.485801728379985 C1.1017748471181843 2.6941777339728783, 2.8182530227280864 1.480575370987995, 3.7765299408518285 1.0845200895259364 C4.7348068589755705 0.6884648080638778, 6.079138149856554 1.5014987562814912, 6.236289492576179 1.1094700396076336 C6.393440835295804 0.7174413229337759, 4.708137074654561 -1.4089933678368285, 4.7194379971695755 -1.267652210517209" stroke="#000000" stroke-width="4" fill="none"></path></g><g transform="translate(368.2514895334474 136.24540737040718) rotate(0 19.75 20.75)"><path d="M13.846384753469959 0.625675231964653 C17.786099408109706 -1.0387284261603809, 23.397892571670724 -0.758957167177216, 27.378243041455534 1.0058764883876385 C31.358593511240343 2.770710143952493, 35.89224056001427 7.2604396197378165, 37.72848757217882 11.21467716535378 C39.56473458434337 15.168914710969744, 39.22293257647226 20.407483827728868, 38.395725114442826 24.73130176208342 C37.56851765241339 29.05511969643797, 35.86532027111176 34.272535986709414, 32.7652428000022 37.15758477148108 C29.665165328892634 40.04263355625275, 24.302693276794514 42.188395068327736, 19.795260287785432 42.04159447071345 C15.28782729877635 41.89479387309916, 8.936919350487505 39.31086624505086, 5.720644865947714 36.27678118579535 C2.5043703814079215 33.24269612653984, 1.0673790022331944 28.318705265920364, 0.49761338054667803 23.837084115180396 C-0.0721522411398382 19.355462964440427, -0.6356099207552082 13.478131484995197, 2.3020511358286164 9.387054281355539 C5.239712192412441 5.2959770777158806, 14.530348195473485 0.5840935863691825, 18.123579720049626 -0.7093791066575541 C21.716811244625767 -2.002851799684291, 23.785429394750174 1.19585020923045, 23.861440283285464 1.6262181231951196 M18.658654032275898 0.805862708264236 C22.823061353323276 0.3015344017498581, 28.142264220777044 0.4088452059903602, 31.581626348564406 2.980012672011732 C35.02098847635177 5.551180138033104, 38.118455960252135 11.609364358999855, 39.29482679900008 16.232867504392466 C40.47119763774802 20.856370649785077, 40.56507469400669 26.589710069477253, 38.63985138105204 30.721031544367392 C36.71462806809739 34.852353019257535, 32.06000633597187 39.62731506439543, 27.743486921272172 41.0207963537333 C23.42696750657247 42.41427764307117, 16.746607278111618 40.38711257961516, 12.740734892853833 39.08191928039461 C8.734862507596048 37.77672598117405, 5.692764005380146 36.87689405168655, 3.7082526097254664 33.18963655840996 C1.723741214070787 29.502379065133372, 0.5844159121205351 21.60637852672452, 0.8336665189257566 16.95837432073509 C1.082917125730978 12.310370114745659, 2.125212073851334 8.083118995984611, 5.203756250556795 5.301611322473386 C8.282300427262257 2.520103648962161, 17.05872177473093 0.9450106538619586, 19.304931579158524 0.2693282796677394 C21.551141383586117 -0.40635409452647975, 18.890283285498192 0.9568214325523048, 18.681015077122357 1.2475170773080713" stroke="#000000" stroke-width="4" fill="none"></path></g><g transform="translate(391.7514895334474 407.2454073704072) rotate(0 14.25 13.25)"><path d="M19.61814795833254 1.7385580027718568 C22.583041259654873 2.5611480524244024, 25.748606644107422 3.715414593312477, 27.04890115580973 6.016703725099289 C28.34919566751204 8.3179928568861, 27.998331285481207 12.615950234502112, 27.419915028546384 15.546292793492727 C26.841498771611562 18.476635352483342, 25.818177573237378 21.68230150559118, 23.578403614200795 23.598759079042985 C21.338629655164212 25.51521665249479, 17.18238932257777 27.09138667834118, 13.981271274326886 27.045038234203552 C10.780153226076004 26.998689790065924, 6.615041920822344 25.103495807436975, 4.3716953246955015 23.320668414217216 C2.128348728568659 21.53784102099746, 1.0870245136426426 19.051274863974285, 0.5211916975658326 16.348073874885007 C-0.04464111851097741 13.64487288579573, -0.3947469325784583 9.636990761045132, 0.9766984282346414 7.101462479681552 C2.3481437890477412 4.565934198317972, 5.43091812374929 2.1565359470351235, 8.74986386244443 1.1349041867035314 C12.06880960113957 0.11327242637193935, 18.409416277124688 0.5666543674506039, 20.890372860405478 0.9716719176919995 C23.371329443686268 1.376689467933395, 23.54810408252536 3.192005854602346, 23.63560336212916 3.5650094881519045 M15.774794386234069 0.8269180828172651 C18.662903729074245 0.8580808164815279, 22.651386144521215 1.4253812020041483, 24.57124260817917 3.3391212532521344 C26.491099071837123 5.2528613045001205, 26.922494500278 9.540857877677386, 27.293933168181802 12.309358390305182 C27.665371836085605 15.077858902932977, 28.67103837470655 17.683909421417027, 26.799874615601976 19.950124329018912 C24.9287108564974 22.216339236620797, 19.46248061110247 25.019287515596968, 16.066950613554354 25.906647835916502 C12.671420616006237 26.794008156236035, 8.998002296314409 26.293837748148576, 6.426694630313271 25.27428625093612 C3.855386964312134 24.254734753723667, 1.4349163235547024 22.385957723142422, 0.6391046175475292 19.789338852641787 C-0.15670708845964398 17.192719982141153, 0.5860573669184621 12.592650514177267, 1.651824394270232 9.694573027932318 C2.717591421622002 6.796495541687369, 4.516140377745689 4.078346848712131, 7.033706781658148 2.4008739351720916 C9.551273185570608 0.7234010216320523, 15.31440305230959 0.18988127127143262, 16.75722281774499 -0.370264453307918 C18.200042583180387 -0.9304101778872687, 15.581981847151116 -1.0712463242675632, 15.690625374270539 -0.9600004123040122" stroke="#000000" stroke-width="4" fill="none"></path></g><g transform="translate(532.7514895334474 197.24540737040718) rotate(0 10.5 10.5)"><path d="M9.801324205589497 -0.6170817450405526 C11.974688678710603 -0.9672103199703947, 14.319217703635767 -0.02330663440705205, 16.124879054016635 1.3389338202252556 C17.930540404397505 2.7011742748575633, 20.036203569277692 5.52405036906837, 20.635292307874707 7.556360982753294 C21.23438104647172 9.588671596438218, 20.655219495843287 11.5759902466766, 19.719411485598716 13.532797502334795 C18.783603475354145 15.48960475799299, 16.862476900633645 17.930621559948467, 15.020444246407271 19.297204516702465 C13.178411592180899 20.663787473456463, 10.921028634103134 22.19587576730955, 8.667215560240482 21.73229524285879 C6.41340248637783 21.26871471840803, 2.8160603600632816 18.283989278439257, 1.4975658032313621 16.515721369997916 C0.17907124639944283 14.747453461556576, 0.6735805572949422 13.413342280536959, 0.7562482192489668 11.122687792210751 C0.8389158812029914 8.832033303884543, 0.13639657591179177 4.698536670320529, 1.9935717749555097 2.771794440040665 C3.850746973999228 0.8450522097608015, 10.118166072740584 -0.21303679614820284, 11.899299413511274 -0.43776558946843025 C13.680432754281965 -0.6624943827886577, 12.870507814266487 1.0693586217460889, 12.680371819579653 1.4234216801193007 M14.194004855863183 1.6028631381583924 C16.3439611785788 2.4867255268505866, 18.298406063056134 4.693886907832782, 19.422081922342386 6.721294058490694 C20.545757781628637 8.748701209148606, 21.297796705006697 11.78419340769417, 20.936060011580686 13.767306042105869 C20.574323318154676 15.750418676517567, 18.95779093716505 17.334723928206802, 17.251661761786316 18.61996986496089 C15.545532586407582 19.905215801714977, 12.784999128662108 21.567851931738605, 10.699284959308281 21.4787816626304 C8.613570789954455 21.389711393522195, 6.422269073286537 19.813768838365423, 4.737376745663355 18.085548250311657 C3.052484418040174 16.35732766225789, 0.895472474265105 13.214271122708318, 0.5899309935691939 11.109458134307808 C0.2843895128732827 9.004645145907297, 1.6499980625821165 7.346749492908804, 2.904127861487888 5.456670319908597 C4.15825766039366 3.56659114690839, 6.120231373063701 0.38583090457398395, 8.114709787003823 -0.23101690369343508 C10.109188200943946 -0.8478647119608541, 13.740935359615998 1.6242561543403706, 14.870998345128623 1.7555834703040833 C16.001061330641246 1.886910786267796, 15.169735854292965 0.6112401229483962, 14.895087700079571 0.5569469920888412" stroke="#000000" stroke-width="4" fill="none"></path></g><g transform="translate(326.7514895334474 273.2454073704072) rotate(0 11.75 11.75)"><path d="M13.450249175672894 0.33558556874771384 C16.08542890421797 0.5714043317111926, 19.4964817566942 2.650410569682405, 21.026101112365893 4.5717939074342535 C22.555720468037585 6.493177245186102, 22.62463195299144 9.588812377623537, 22.62796530970305 11.863885595258804 C22.63129866641466 14.13895881289407, 22.40487999297645 16.357305703734774, 21.04610125263555 18.222233213245854 C19.687322512294653 20.087160722756934, 16.773690238781224 22.491345723729278, 14.475292867657664 23.05345065232529 C12.176895496534105 23.6155555809213, 9.39323751127921 22.66583444721181, 7.255717025894196 21.594862784821924 C5.118196540509182 20.523891122432037, 2.634993010985052 18.72379613590292, 1.6501699553475788 16.627620677985966 C0.6653468997101056 14.531445220069013, 0.7043448010936059 11.591864223544171, 1.346778692069357 9.017810037320212 C1.989212583045108 6.443755851096253, 3.2858071829652715 2.652640927034703, 5.504773301202086 1.1832955606422164 C7.7237394194389 -0.2860498057502703, 12.989529120561544 0.1561118011712249, 14.660575401490242 0.20173783896529152 C16.331621682418938 0.24736387675935814, 15.578073018339863 1.1586463653098613, 15.531050986774268 1.4570517874066162 M17.04917501740494 2.3707567936148166 C19.595952870796204 3.134704156590449, 22.368478545841075 4.449228913624708, 23.397581394417557 6.447987207989132 C24.42668424299404 8.446745502353556, 23.951093292646945 11.776374027643444, 23.22379210886383 14.363306559801359 C22.496490925080714 16.950239091959276, 20.942154673706273 20.49627529306671, 19.033774291718853 21.969582400936627 C17.125393909731432 23.442889508806545, 14.279960571870784 23.625694057810936, 11.773509816939304 23.203149207020875 C9.267059062007824 22.780604356230814, 6.074221640294504 21.158793211091695, 3.995069762129976 19.434313296196265 C1.9159178839654478 17.709833381300836, -0.3418414220399173 15.31666131931555, -0.7014014520478646 12.856269717648292 C-1.060961482055812 10.395878115981034, 0.4464554591058951 6.581194598219537, 1.837709582082292 4.67196368619272 C3.228963705058689 2.7627327741659036, 5.425889892251238 2.1729496375988155, 7.646123285810516 1.4008842454873918 C9.866356679369794 0.628818853375968, 13.80413209946683 0.0045871830205491335, 15.15910994343796 0.03957133352417763 C16.51408778740909 0.07455548402780612, 15.590667338707174 1.102786734945676, 15.77599034963729 1.6107891485091628" stroke="#000000" stroke-width="4" fill="none"></path></g><g transform="translate(277.7514895334474 552.7454073704072) rotate(0 18.75 18)"><path d="M27.433653109339964 1.3036842390216457 C30.90697157300246 2.6067697990730583, 34.14213010509984 7.137887606763815, 35.874911251526605 10.820280007634263 C37.60769239795337 14.502672408504711, 38.8822533343109 19.745548686586393, 37.83033998790057 23.398038644244334 C36.77842664149024 27.050528601902275, 33.01155285677874 30.621678641191505, 29.563431173064615 32.73521975358191 C26.115309489350484 34.84876086597231, 21.05525841620991 36.336967409203766, 17.141609885615793 36.079285318586756 C13.227961355021675 35.821603227969746, 8.957039177305344 33.904089232658556, 6.081539989499909 31.189127209879857 C3.206040801694474 28.474165187101157, 0.4423864192887299 23.78967884270071, -0.1113852412168157 19.789513181914558 C-0.6651569017223613 15.789347521128404, 0.4677026033639433 10.388824107453932, 2.7589100264666353 7.188133245162934 C5.050117449569328 3.987442382871937, 9.098349086239036 1.2044050950380134, 13.635859297399337 0.5853680081685759 C18.173369508559638 -0.033669078700861554, 26.611675025771923 2.5034894634587395, 29.983971293428443 3.473910723946309 C33.35626756108496 4.444331984433879, 34.088919762457884 6.15154821878334, 33.86963690333846 6.407895571093995 M20.874258748500743 0.7699788483553718 C24.633877178502257 1.0771043410095622, 30.34423504921084 4.350608156970738, 32.94252669939072 7.061706652573008 C35.5408183495706 9.772805148175278, 36.34092071093291 13.42898309617169, 36.46400864958001 17.036569821968992 C36.587096588227105 20.644156547766293, 36.02942386120267 25.545788765214212, 33.68105433127329 28.70722700735682 C31.332684801343902 31.86866524949943, 26.14032187335713 35.255010340759, 22.3737914700037 36.00519927482465 C18.607261066650267 36.755388208890295, 14.839426014146742 35.173580038770325, 11.081871911152701 33.20836061175072 C7.324317808158661 31.243141184731115, 1.2637841714514477 27.748189457415293, -0.17153314796054886 24.213882712707026 C-1.6068504673725454 20.67957596799876, 0.7797145043779583 15.790431609004305, 2.4699679946807223 12.002520143501119 C4.160221484983486 8.214608677997933, 6.804355433639643 3.205340404447365, 9.969987793856035 1.4864139196879158 C13.135620154072427 -0.23251256507153362, 19.651935884861537 1.6118956746190107, 21.463762155979072 1.688961234944422 C23.275588427096608 1.7660267952698334, 20.92622930092017 2.148261586605512, 20.84094542056125 1.9488072816403843" stroke="#000000" stroke-width="4" fill="none"></path></g><g transform="translate(468.2514895334474 544.7454073704072) rotate(0 16.5 16.5)"><path d="M23.494082502859914 2.6352020624329704 C26.64845431946957 4.1761489510712915, 30.06445858564616 7.335428767832196, 31.419253626186286 10.38211374247641 C32.774048666726415 13.428798717120623, 32.401926730963154 17.69817780725841, 31.622852746100673 20.915311910298254 C30.843778761238188 24.132446013338097, 29.392633238528592 27.726192192855446, 26.744809717011382 29.684918360715457 C24.09698619549417 31.643644528575468, 19.58337322282802 33.0952377095266, 15.73591161699741 32.66766891745832 C11.888450011166801 32.24010012539004, 6.1913787976185155 29.742609199657046, 3.660040082027731 27.119505608305765 C1.1287013664369456 24.496402016954484, 0.7539949239236208 20.400703532561675, 0.5478793234526975 16.929047369350638 C0.34176372298177427 13.457391206139603, 0.5907968248461584 9.078759195033248, 2.4233464792021913 6.289568629039552 C4.255896133558224 3.5003780630458556, 7.508129510690665 0.8804314909743006, 11.543177249588895 0.19390397338845844 C15.578224988487126 -0.49262354419738374, 24.072497710173035 1.5279067097303893, 26.633632912591573 2.1704035235244987 C29.19476811501011 2.812900337318608, 27.3183772246512 3.7673467472641815, 26.909988464100127 4.048884856153114 M19.74303882892982 0.2666811288785951 C22.99588115470275 0.291149759801099, 26.120279281238638 1.4670780131961734, 28.408631275909208 4.331541760282642 C30.69698327057978 7.19600550736911, 33.38926711096003 13.775137744356128, 33.47315079695325 17.453463611397407 C33.55703448294647 21.131789478438684, 31.11642556101902 23.74249985430252, 28.91193339186853 26.40149696253031 C26.70744122271804 29.0604940707581, 23.423289617073586 32.74562367584432, 20.246197782050306 33.40744626076415 C17.069105947027026 34.06926884568397, 12.899363071592342 32.10671567994031, 9.849382381728855 30.372432472049244 C6.799401691865368 28.638149264158184, 3.371226367968534 26.18406949063926, 1.9463136428693808 23.001747013417784 C0.5214009177702277 19.81942453619631, 0.5032414194723304 14.868148088866636, 1.2999060311339363 11.278497608720391 C2.0965706427955424 7.688847128574146, 3.910999172669617 3.426752496226972, 6.726301312839016 1.4638441325403164 C9.541603453008415 -0.49906423114633913, 15.877369040778607 -0.21723111460250583, 18.191718872150332 -0.49895257339954213 C20.506068703522057 -0.7806740321965784, 20.34767686104992 -0.4910016346263501, 20.612400301069364 -0.22648462024190152" stroke="#000000" stroke-width="4" fill="none"></path></g><g transform="translate(515.7514895334474 283.7454073704072) rotate(0 12.25 12)"><path d="M7.773354856249726 1.223905994914121 C10.077635521188405 0.11240753500097944, 13.618197734216833 -0.24430548380269335, 16.15933469872592 0.7388145679708771 C18.70047166323501 1.7219346197444474, 21.799110050195818 4.828406858256239, 23.020176643304254 7.122626305555544 C24.24124323641269 9.416845752854849, 24.01069240375388 12.144144837488867, 23.48573425737654 14.504131251766706 C22.9607761109992 16.864117666044546, 21.9170130928327 19.591037916898802, 19.870427765040212 21.282544791222577 C17.823842437247723 22.97405166554635, 13.927252292699352 24.71762478089931, 11.2062222906216 24.653172497709363 C8.485192288543848 24.588720214519416, 5.500481801099892 22.553662967438324, 3.544247752573705 20.895831092082886 C1.5880137040475182 19.23799921672745, -0.21316302970739248 17.305826402748092, -0.5311820005355212 14.706181245576731 C-0.8492009713636499 12.106536088405369, -0.09251695397665949 7.521181630512398, 1.6361339276049325 5.297960149054713 C3.3647848091865242 3.074738667597028, 8.41385766979767 2.111658083043643, 9.840723288954031 1.3668523568306181 C11.267588908110392 0.6220466306175932, 10.215136670810967 0.8481121645311939, 10.197327642543096 0.8291257917765638 M9.196745794593326 1.156047589103677 C11.545873155615439 0.031761561248145, 15.543937420962262 -1.4913826047175136, 17.68259903844098 -0.4756112922057696 C19.821260655919698 0.5401600203059744, 20.962156376909803 4.662780273347051, 22.028715499465633 7.250675464174141 C23.095274622021464 9.83857065500123, 24.253634147295095 12.605305250238297, 24.081953773775965 15.05175985275677 C23.910273400256834 17.498214455275242, 22.91003103194796 20.466950105017077, 20.998633258350846 21.929403079284977 C19.087235484753734 23.39185605355288, 15.349470175992636 24.14469358872435, 12.61356713219329 23.82647769836418 C9.877664088393946 23.508261808004008, 6.8917474410278565 21.900955325384853, 4.583214995554782 20.020107737123958 C2.274682550081707 18.139260148863062, -0.7458336340880762 15.150271863484033, -1.237627540645157 12.541392168798808 C-1.7294214472022376 9.932512474113583, -0.16969735484597392 6.5068455212815905, 1.6324515562122972 4.366829569012609 C3.4346004672705686 2.2268136167436263, 8.49859727132458 0.2643073512990579, 9.57526592570447 -0.2987035448150852 C10.651934580084358 -0.8617144409292283, 8.408234211631552 0.5207937853644926, 8.092463482491624 0.9887641923277499" stroke="#000000" stroke-width="4" fill="none"></path></g><g transform="translate(177.75148953344743 152.24540737040718) rotate(0 12 13.5)"><path d="M14.855514996275975 -0.33759181232315427 C17.141398746761432 0.18537178263787857, 19.934121739806336 3.20255226830067, 21.310544377730128 5.8812886315529145 C22.68696701565392 8.56002499480516, 23.386570635234953 12.888930965405876, 23.114050823818737 15.734826367190312 C22.84153101240252 18.580721768974747, 21.386087816914138 21.219590993174634, 19.675425509232824 22.956661042259526 C17.96476320155151 24.693731091344418, 15.231679851421564 26.086310912241505, 12.850076977730854 26.157246661699673 C10.468474104040144 26.228182411157842, 7.440165641707887 25.13066952685502, 5.385808267088562 23.38227553900854 C3.3314508924692365 21.63388155116206, 1.1671241439073317 18.362372859968815, 0.5239327300149021 15.666882734620797 C-0.11925868387752736 12.97139260927278, 0.2911850819483923 9.748171045418399, 1.5266597837339848 7.2093347869204285 C2.762134485519577 4.670498528422458, 5.270118297244222 1.3145104332433304, 7.9367809407284575 0.4338651836329781 C10.603443584212693 -0.4467800659773743, 15.463540241328161 1.4133011657464545, 17.526635644639395 1.925463289258314 C19.58973104795063 2.4376254127701733, 20.186680656086374 3.4499895624956856, 20.315353360595857 3.5068379247041346 M8.95233143534903 2.131645497261177 C10.762984983594267 0.9769731212427717, 12.422451886027362 0.24791397019383565, 14.412721308081267 0.9277054897025501 C16.402990730135173 1.6074970092112646, 19.202902533289272 3.8785602460040747, 20.89394796767246 6.210394614313463 C22.584993402055648 8.542228982622852, 24.500297559263615 11.878098114524756, 24.558993914380398 14.91871169955888 C24.61769026949718 17.959325284593003, 23.514259480812825 22.351025683345927, 21.246126098373168 24.45407612451821 C18.97799271593351 26.557126565690492, 13.809831672343368 27.469715105786765, 10.950193619742446 27.537014346592574 C8.090555567141525 27.604313587398384, 5.921342629986502 26.83226173940068, 4.088297782767643 24.85787156935307 C2.2552529355487847 22.88348139930546, 0.4452587295393287 18.479582682198178, -0.048075463570706134 15.690673326306916 C-0.5414096566807409 12.901763970415653, -0.16106579935474374 10.537364088477437, 1.1282926241074342 8.124415434005488 C2.4176510475696125 5.71146677953354, 6.6328148033539405 2.51147679152632, 7.688075077202361 1.2129813994752272 C8.743335351050783 -0.0855139925758659, 7.423217389399862 0.19539705237010452, 7.4598542671979615 0.33344308169892933" stroke="#000000" stroke-width="4" fill="none"></path></g><g><g transform="translate(191.25148953344743 178.24540737040718) rotate(0 21.03889683634509 85.24918721355033)"><path d="M-0.18508634269237523 0.8971518963575364 C7.3071911523739494 29.107449576258656, 36.72321590085824 141.9714169949293, 43.8191890746355 170.1758217304945 M-1.7413954019453377 0.3225526966061443 C5.7638064892186485 28.10637440665625, 36.12678537985621 140.44373770548964, 43.301217875191945 168.4080533902254" stroke="#000000" stroke-width="1" fill="none"></path></g></g><g><g transform="translate(233.75148953344743 359.2454073704072) rotate(0 4.323484990000736 6.993952324986466)"><path d="M-0.7240255862474441 -0.6390737503767013 C0.8424712310234708 1.7454594006141027, 7.687930755813916 12.188847226897876, 9.370995566248894 14.626978400349618 M1.096722251633182 1.6398085853364321 C2.5838586091591664 3.6455893887983017, 7.551725533663606 10.556568809241677, 8.880222774902359 12.83356731175445" stroke="#000000" stroke-width="1" fill="none"></path></g></g><g><g transform="translate(330.2514895334474 295.2454073704072) rotate(0 -26.706355071207525 34.06995456851554)"><path d="M-0.2773371666669846 -0.1423721820116044 C-9.33659775753816 11.522979208827019, -45.59125171999136 58.05489096343517, -54.847597882151604 69.40263065993786 M1.7779220914933833 -1.2627215229067952 C-7.295471598397318 10.083807096323, -45.48027774193945 55.829785507461054, -55.1906322339084 67.49143700762652" stroke="#000000" stroke-width="1" fill="none"></path></g></g><g><g transform="translate(377.7514895334474 173.24540737040718) rotate(0 -19.573651328901747 49.97713297143114)"><path d="M0.6555659741163253 0.8251365691423416 C-5.986191196242968 17.581432822346684, -32.392442690332736 83.482228282094, -38.732670930027965 99.74153662025928 M-0.4594006188120694 0.21272932260297228 C-7.377351592422152 16.697948856940492, -33.618343971710026 81.48147491841577, -39.80286863191984 98.0082685971167" stroke="#000000" stroke-width="1" fill="none"></path></g></g><g><g transform="translate(347.2514895334474 292.2454073704072) rotate(0 35.225589898228634 -13.531189393629319)"><path d="M-0.28014125525951383 -1.0985326319932938 C11.645049447814623 -5.75143787364165, 59.18690732618173 -23.663124548395476, 70.7313210517168 -28.00151257812977 M1.7736458563897761 0.9391337908711286 C13.676540389765673 -3.502178954441721, 58.57141480347452 -21.47268814808068, 70.16721914024092 -26.464881430426612" stroke="#000000" stroke-width="1" fill="none"></path></g></g><g><g transform="translate(405.7514895334474 167.24540737040718) rotate(0 17.323264214396488 35.3659226797428)"><path d="M-1.098652794957161 -0.26906537711620326 C4.999137764175733 11.662347860137624, 29.68013907770316 59.01008647580942, 35.745181223750116 70.94285164177418 M0.5254157583508641 -1.4559286454413087 C6.604025072216368 10.687594289571667, 29.4960932245447 59.85270866383178, 35.188355902591724 72.18777400492691" stroke="#000000" stroke-width="1" fill="none"></path></g></g><g><g transform="translate(538.7514895334474 215.24540737040718) rotate(0 -38.947698375801565 21.95305935843848)"><path d="M1.108600088953972 0.43489389717578897 C-11.746559384465218 7.515285812815032, -65.05151591598988 35.49188591937224, -78.036689427495 42.66464538872242 M0.2314764063153416 -0.3823907521460206 C-12.70566307946108 6.9008246674047165, -66.14218064083717 37.284952815265086, -79.00399684055708 44.288509469022976" stroke="#000000" stroke-width="1" fill="none"></path></g></g><g><g transform="translate(440.2514895334474 285.2454073704072) rotate(0 -17.44323895520995 60.975550241763685)"><path d="M-0.9888853579759598 -0.8851148575544356 C-6.827295767267546 19.17268489499887, -29.8644778440396 101.22332369784513, -35.57928901016712 121.54019022285938 M0.6928110997471957 1.2645958968903872 C-4.696286063234632 21.99210826773507, -27.024447581113005 102.74414542743625, -33.171461204132065 122.83621534108184" stroke="#000000" stroke-width="1" fill="none"></path></g></g><g><g transform="translate(419.7514895334474 273.2454073704072) rotate(0 -60.72301735125015 139.67723383887673)"><path d="M0.07022499740123744 1.0308495551347734 C-20.268438707788786 47.428469660878186, -100.74791509608427 231.55706358253957, -121.06112408936023 277.8790824919939 M-1.3520456083025785 0.5264416262414309 C-21.851529047529525 47.07468003570102, -101.32918939048113 232.20559875159523, -121.51625969990157 278.828026051512" stroke="#000000" stroke-width="1" fill="none"></path></g></g><g><g transform="translate(410.7514895334474 435.2454073704072) rotate(0 33.80321882039772 53.28567941940855)"><path d="M0.03664779961109166 0.22593502700328827 C11.463907594482105 18.116826578974724, 57.41691659589609 89.54766716659068, 69.00968847572804 107.27241186797619 M-1.4032508349325508 -0.701053029159084 C9.871549063433582 16.85817433579825, 56.52842893978891 87.45001921727322, 68.32922946185805 105.55535334988497" stroke="#000000" stroke-width="1" fill="none"></path></g></g><g><g transform="translate(401.2514895334474 435.2454073704072) rotate(0 0.15158939063547905 37.37147536575796)"><path d="M-0.9288679629564285 -0.585439869761467 C-0.8348076691230137 11.932337096333503, 0.9534497072299322 62.63748436272144, 1.2320467442274095 75.32839060127735 M0.7843376271519809 1.7216002532746644 C0.6822582864357778 13.843077874770387, 0.5628919345730293 61.41324044137262, 0.4058258213195949 73.37822091816925" stroke="#000000" stroke-width="1" fill="none"></path></g></g><g><g transform="translate(419.2514895334474 417.2454073704072) rotate(0 53.861503118579265 -53.37464302630164)"><path d="M0.3383744269609452 -0.728036168217659 C18.549088608225187 -18.56045902868112, 90.6333547304074 -88.61714183787505, 108.66612396538258 -106.43006701767445 M-0.9431177282240242 1.5041408981289717 C17.176450109391784 -16.733436215876914, 89.68349709491866 -90.23506451453703, 107.80529358358122 -108.25342695073225" stroke="#000000" stroke-width="1" fill="none"></path></g></g><g><g transform="translate(599.2514895334474 402.2454073704072) rotate(0 -34.58601999721958 -47.168284365534774)"><path d="M-0.15867915451526637 1.1985323935747145 C-11.422593103845914 -14.808382412791252, -56.77487833003203 -79.43520230948926, -68.04282975494861 -95.53510112464429 M-1.7011244399752468 0.7821579548623414 C-13.086614501516646 -15.155269376644865, -57.895308322251466 -78.6513567337487, -69.01336083992385 -94.54110396386125" stroke="#000000" stroke-width="1" fill="none"></path></g></g><g><g transform="translate(257.7514895334474 398.2454073704072) rotate(0 -71.55317668042613 55.54910117879044)"><path d="M0.5154113262891769 1.0201313048601148 C-23.223355121413867 19.34160089790821, -118.68384245534736 92.62417125999927, -142.44178309738635 110.58810606300831 M-0.6731364567484708 0.5100962945725769 C-24.60777657830777 18.463455172171816, -119.93147861335736 90.82918795972131, -143.6217646871414 109.03678699730895" stroke="#000000" stroke-width="1" fill="none"></path></g></g><g><g transform="translate(406.2514895334474 149.74540737040718) rotate(0 37.5 -12)"><path d="M0 0 C12.5 -4, 62.5 -20, 75 -24 M0 0 C12.5 -4, 62.5 -20, 75 -24" stroke="#000000" stroke-width="1" fill="none"></path></g></g><g><g stroke-opacity="0.3" fill-opacity="0.3" transform="translate(169.75148953344743 136.24540737040718) rotate(0 194.22265447004 237.04418937718646)"><path d="M0.4423476666212083 -0.23578452765941615 C-2.2985834946235015 0.7927976955970129, -11.480766792098681 2.5895119378964107, -16.254934647679327 5.149621871113777 C-21.029102503259974 7.709731804331144, -24.385912469029424 11.48587414721648, -28.202659466862677 15.124875071644784 C-32.01940646469593 18.76387599607309, -35.935706380009655 22.767330554127692, -39.15541663467884 26.9836274176836 C-42.37512688934803 31.199924281239507, -45.77015503545602 36.629616835713385, -47.52092099487781 40.42265625298023 C-49.271686954299604 44.21569567024708, -49.282389945785205 46.37159366905689, -49.660012391209605 49.741863921284676 C-50.037634836634005 53.11213417351246, -51.252000954747196 57.07858006457488, -49.7866556674242 60.64427776634693 C-48.3213103801012 64.20997546811898, -44.761702906092005 67.22235336601734, -40.86794066727161 71.136050131917 C-36.97417842845122 75.04974689781666, -31.23066897690296 80.07781591713429, -26.42408223450184 84.12645836174488 C-21.617495492100716 88.17510080635547, -10.714530677596729 89.98966172834237, -12.028420212864877 95.42790479958057 C-13.342309748133024 100.86614787081878, -28.97204451858998 110.8390431433916, -34.30741944611073 116.75591678917408 C-39.64279437363148 122.67279043495655, -41.26509201029936 125.51023750603198, -44.040669777989386 130.9291466742754 C-46.81624754567941 136.3480558425188, -49.77534632980824 143.40731382668017, -50.96088605225086 149.26937179863452 C-52.14642577469349 155.13142977058888, -52.67093898753325 160.15413278241954, -51.15390811264515 166.10149450600147 C-49.63687723775705 172.0488562295834, -45.023126493891084 179.844346717, -41.85870080292225 184.95354214012622 C-38.69427511195342 190.06273756325243, -35.93962369263172 194.05806630750496, -32.16735396683216 196.75666704475879 C-28.3950842410326 199.4552677820126, -22.531270427505177 200.02852723101773, -19.225082448124887 201.14514656364918 C-15.918894468744597 202.26176589628062, -11.862031542261441 201.975423497955, -12.330226090550422 203.45638304054737 C-12.798420638839403 204.93734258313972, -19.115663547317187 207.23824078540008, -22.034249737858772 210.0309038192034 C-24.952835928400358 212.8235668530067, -28.42904795308908 217.8595897704363, -29.841743233799935 220.21236124336718 C-31.25443851451079 222.56513271629808, -30.175524603327116 219.5685394634803, -30.51042142212391 224.14753265678883 C-30.8453182409207 228.72652585009735, -33.51489167511463 240.73061720828215, -31.851124146580695 247.68632040321828 C-30.18735661804676 254.6420235981544, -23.076739012201628 261.7978086819252, -20.527816250920296 265.88175182640555 C-17.978893489638963 269.9656949708859, -19.3437814583381 270.49189122815926, -16.557587578892708 272.1899792701006 C-13.771393699447314 273.8880673120419, -7.068525523940722 275.6044338574012, -3.8106529742479323 276.0702800780535 C-0.5527804245551424 276.53612629870577, 3.6933972805738446 271.1467972467343, 2.9896477192640303 274.98505659401417 C2.285898157954216 278.823315941294, -6.383436221877733 293.40013373990854, -8.033150342106818 299.0998361617327 C-9.682864462335903 304.79953858355685, -9.010907541712125 305.4653873473406, -6.908637002110481 309.183271124959 C-4.806366462508837 312.9011549025774, 0.5293101439873382 317.5966270794471, 4.5804728955030445 321.40713882744313 C8.63163564701875 325.21765057543917, 13.35241865813732 329.5343802799781, 17.398339506983756 332.04634161293507 C21.444260355830192 334.558302945892, 27.553828156987827 334.20563262601695, 28.855997988581656 336.4789068251848 C30.158167820175485 338.7521810243527, 27.159157130122182 340.80716146131357, 25.211358496546744 345.6859868079424 C23.263559862971306 350.56481215457126, 18.59089906712373 355.838869129618, 17.16920618712902 365.75185890495777 C15.74751330713431 375.66484868029755, 16.40175579090913 397.8037829746803, 16.681201216578483 405.163925459981 C16.960646642247834 412.5240679452817, 17.841304124395055 408.4913886735837, 18.845878741145135 409.912713816762 C19.850453357895216 411.3340389599403, 18.60599589049816 411.89429690341154, 22.70864891707897 413.6918763190508 C26.81130194365978 415.48945573469, 37.17249124546846 419.54157667458054, 43.46179690063 420.6981903105974 C49.75110255579154 421.85480394661425, 58.447658678889276 418.23208866417406, 60.44448284804821 420.63155813515186 C62.441307017207144 423.03102760612967, 56.26857501367728 430.10115188260875, 55.44274191558361 435.0950071364641 C54.61690881748994 440.0888623903195, 54.61919207274914 446.2038770069679, 55.4894842594862 450.5946896582842 C56.35977644622326 454.9855023096005, 58.247003345688185 458.3651663810015, 60.664495036005974 461.4398830443621 C63.08198672632376 464.5145997077227, 64.87971065541109 466.0797140151262, 69.99443440139294 469.04298963844775 C75.10915814737479 472.0062652617693, 86.59189082483451 477.0786722530921, 91.35283751189709 479.2195367842913 C96.11378419895968 481.36040131549044, 92.88832901020844 481.8463184386492, 98.56011452376842 481.8881768256426 C104.2319000373284 481.93003521263597, 120.23735203444959 480.1033882488807, 125.38355059325696 479.4706871062517 C130.52974915206434 478.8379859636227, 127.8374950538079 479.39040902753675, 129.43730587661267 478.09196996986867 C131.03711669941742 476.7935309122006, 131.75083489120007 470.18436645170055, 134.98241553008558 471.6800527602434 C138.21399616897108 473.1757390687863, 145.8696567028761 484.3487045317888, 148.82678970992566 487.06608782112596 C151.7839227169752 489.7834711104631, 144.7664539784193 486.4833256115516, 152.72521357238293 487.98435249626635 C160.68397316634656 489.4853793809811, 184.9272618740797 495.04125703473886, 196.57934727370738 496.07224912941456 C208.23143267333506 497.10324122409025, 213.60165721277394 495.5786511451006, 222.63772597014903 494.1703050643206 C231.67379472752413 492.7619589835406, 242.13609181741873 490.00478528638683, 250.79575981795787 487.6221726447344 C259.455427818497 485.239560003082, 269.80722584426405 479.5153951356808, 274.5957339733839 479.874629214406 C279.3842421025038 480.2338632931312, 277.8385944495599 487.3760080367327, 279.5268085926771 489.77757711708546 C281.2150227357944 492.17914619743823, 281.2339411228895 493.00527633329233, 284.7250188320875 494.2840436965227 C288.21609654128554 495.5628110597531, 295.3772176871697 497.24164403577646, 300.4732748478651 497.4501812964678 C305.56933200856054 497.65871855715915, 311.5992509653171 496.1433468212684, 315.30136179625987 495.53526726067065 C319.00347262720265 494.9271877000729, 318.894409446915 496.85507870018483, 322.68593983352184 493.80170393288137 C326.4774702201287 490.7483291655779, 332.7706032882134 484.1579920162757, 338.050544115901 477.21501865684985 C343.3304849435886 470.272045297424, 351.0659509787957 457.05303077995774, 354.3655847996473 452.14386377632616 C357.66521862049893 447.2346967726946, 356.06544600824515 449.9609306683143, 357.84834704101087 447.7600166350603 C359.6312480737766 445.55910260180633, 363.80095686614516 442.338885691762, 365.0629909962416 438.9383795768023 C366.325025126338 435.53787346184254, 365.21789370874563 430.5805481940508, 365.42055182158947 427.356979945302 C365.6232099344333 424.1334116965532, 366.39187502563 421.9993621855974, 366.27893967330454 419.5969700843096 C366.1660043209791 417.19457798302176, 365.7787276397149 415.2118966768185, 364.7429397076368 412.94262733757495 C363.70715177555877 410.67335799833137, 363.7478200405836 409.97117901146413, 360.0642120808363 405.9813540488482 C356.380604121089 401.9915290862322, 343.9320623844862 395.11669486661754, 342.64129194915296 389.00367756187916 C341.35052151381973 382.8906602571408, 349.4779064943393 377.57438825269537, 352.3195894688368 369.30325022041797 C355.16127244333427 361.03211218814056, 357.54534585972624 345.52332818011445, 359.6913897961378 339.3768493682146 C361.83743373254936 333.23037055631477, 361.9579156368971 334.7123753259579, 365.19585308730603 332.42437734901904 C368.43379053771497 330.13637937208017, 376.3526926487684 327.94351536730926, 379.1190144985914 325.6488615065813 C381.8853363484144 323.3542076458533, 381.1969620515903 324.355192314585, 381.793784186244 318.65645418465135 C382.39060632089775 312.9577160547177, 383.688217334946 298.538975178202, 382.69994730651376 291.45643272697924 C381.71167727808154 284.3738902757565, 377.9374936550856 280.58955796857674, 375.8641640156508 276.16119947731494 C373.79083437621597 271.73284098605313, 370.102701168259 266.03809302945933, 370.2599694699049 264.8862817794085 C370.4172377715508 263.7344705293576, 374.43862503071625 268.0688577045997, 376.8077738255262 269.25033197700975 C379.1769226203362 270.4318062494198, 382.58025873204076 272.3525876710812, 384.4748622387648 271.9751274138689 C386.3694657454888 271.5976671566566, 384.45947076181574 273.34647693932055, 388.1753948658705 266.98557043373586 C391.89131896992524 260.62466392815116, 401.0716712762912 241.3941778530677, 406.7704068630934 233.8096883803606 C412.46914244989557 226.2251989076535, 419.15914543171726 224.20913442273934, 422.36780838668346 221.47863359749317 C425.57647134164966 218.748132772247, 424.1943867176771 220.19124899208546, 426.0223845928907 217.42668342888356 C427.8503824681043 214.66211786568167, 431.5800969570875 209.2768822381894, 433.3357956379652 204.89124021828175 C435.0914943188429 200.50559819837412, 436.48251963953174 194.5388531714678, 436.55657667815683 191.11283130943775 C436.6306337167819 187.6868094474077, 435.21477325459324 186.76977246900398, 433.7801378697157 184.33510904610156 C432.34550248483816 181.90044562319915, 431.30351795852187 179.91537580788133, 427.9487643688917 176.5048507720232 C424.59401077926157 173.09432573616505, 416.30562224090096 164.90785719851652, 413.6516163319349 163.87195883095265 C410.9976104229689 162.83606046338878, 410.87482959131404 168.9658689846595, 412.02472891509535 170.2894605666399 C413.17462823887666 171.61305214862028, 418.2617584993442 172.02785517672697, 420.5510122746229 171.81350832283496 C422.84026604990163 171.59916146894295, 423.73056912124156 171.23538478513558, 425.7602515667677 169.00337944328786 C427.7899340122938 166.77137410144013, 431.12562994658947 160.84981848696867, 432.72910694777966 158.42147627174853 C434.33258394896984 155.9931340565284, 434.5381844649712 157.5189752926429, 435.3811135739088 154.43332615196704 C436.2240426828464 151.34767701129118, 437.3230178326368 144.89379921257495, 437.7866816014051 139.90758142769337 C438.2503453701734 134.9213636428118, 441.56512353916963 133.27835925718148, 438.16309618651866 124.5160194426775 C434.7610688338677 115.75367962817351, 422.14637007415297 94.7131827702125, 417.3745174854994 87.33354254066944 C412.6026648968458 79.95390231112638, 411.3788342605035 81.3752554287513, 409.5319806545973 80.23817806541919 C407.68512704869113 79.10110070208708, 406.42146792113783 81.5280212432146, 406.2933958500624 80.51107836067676 C406.16532377898693 79.49413547813893, 408.61343121230607 76.08804922401904, 408.76354822814466 74.13652077019215 C408.91366524398325 72.18499231636525, 410.6074259569247 71.60836671491465, 407.1940979450941 68.80190763771535 C403.78076993326346 65.99544856051604, 394.8030289779107 60.16179272631804, 388.28358015716077 57.297766306996344 C381.76413133641086 54.43373988767465, 375.86335876484713 52.94093793531259, 368.0774050205946 51.61774912178517 C360.29145127634206 50.29456030825774, 349.98174214065074 48.17487135231495, 341.5678576916456 49.3586334258318 C333.15397324264046 50.54239549934864, 321.94838092823824 57.26245365440846, 317.5940983265638 58.72032156288624 C313.2398157248894 60.17818947136402, 318.35035195052626 61.60567051867644, 315.44216208159924 58.105840876698494 C312.5339722126722 54.60601123472055, 304.1882736970981 44.2262992888689, 300.14495911300185 37.72134371101856 C296.1016445289056 31.21638813316822, 293.9429729908705 23.68257564206918, 291.1822745770216 19.076107409596442 C288.4215761631727 14.469639177123705, 286.3588183214267 13.05252692202727, 283.58076862990856 10.082534316182137 C280.8027189383904 7.112541710337004, 278.5437198450168 3.217305472493172, 274.5139764279127 1.2561517745256423 C270.4842330108086 -0.7050019234418872, 264.8691293845574 -0.8888113627831141, 259.4023081272841 -1.6843878716230392 C253.93548687001072 -2.479964380462964, 248.2033737629652 -1.1784212400515877, 241.71304888427258 -3.5173072785139086 C235.22272400557995 -5.8561933169762295, 227.6283214698235 -12.79433014889558, 220.46035885512828 -15.717704102396965 C213.29239624043305 -18.641078055898348, 204.88938266138234 -19.909552412231765, 198.7052731961012 -21.05755099952221 C192.52116373082004 -22.205549586812655, 187.92884249389172 -23.193977352976802, 183.35570206344127 -22.605695626139642 C178.78256163299082 -22.017413899302483, 177.66919445693492 -22.03103596071402, 171.26643061339854 -17.52786063849926 C164.86366676986216 -13.024685316284497, 153.096473706762 3.3656324416399004, 144.939119002223 4.413356307148933 C136.78176429768402 5.461080172657966, 128.82692373295626 -7.397819802165031, 122.32230238616467 -11.24151744544506 C115.81768103937308 -15.08521508872509, 111.40699635843436 -16.845448681712153, 105.9113909214735 -18.648829552531243 C100.41578548451264 -20.452210423350333, 94.53001840611299 -21.881518519918124, 89.34866976439953 -22.06180267035961 C84.16732112268608 -22.2420868208011, 78.31952503224213 -20.85716863969962, 74.82329907119274 -19.73053445518017 C71.32707311014335 -18.60390027066072, 71.81259305973848 -18.6204133639733, 68.37131399810315 -15.301997563242912 C64.93003493646782 -11.983581762512525, 63.876507644852 1.0171913176774976, 54.17562470138073 0.1799603492021561 C44.474741757909456 -0.6572706192731855, 19.175428943832713 -20.469452250997225, 10.166016337275504 -20.32538337409496 C1.1566037307182935 -20.181314497192698, 1.653725446263949 -2.5023167262474697, 0.119149062037468 1.0443736106157304 M-0.7845585377421231 -1.4051753500197084 C-3.1562498474524663 -0.06971971135276078, -9.311788226903104 3.823832493514443, -13.93932080133818 6.765598604669794 C-18.566853375773256 9.707364715825145, -24.418372230967506 12.780705634147552, -28.549753984352574 16.2454213169124 C-32.68113573773764 19.710136999677246, -35.885000730296596 23.509747852971778, -38.72761132164858 27.55389270125888 C-41.570221913000566 31.598037549545985, -44.00472253267032 36.44195880412124, -45.605417532464486 40.51029040663503 C-47.20611253225865 44.578622009148816, -47.673232930243636 48.819890876105056, -48.331781320413576 51.963882316341625 C-48.99032971058352 55.10787375657819, -50.597519532879815 56.311295025140666, -49.55670787348412 59.37423904805444 C-48.51589621408843 62.43718307096822, -45.757841434817145 65.86943327515385, -42.08691136403941 70.34154645382426 C-38.41598129326167 74.81365963249468, -32.66637504800222 82.02005788444541, -27.531127448817713 86.20691812007688 C-22.3958798496332 90.39377835570835, -10.172526602090025 90.22839051235778, -11.275425768932328 95.46270786761306 C-12.37832493577463 100.69702522286835, -29.014911311110485 111.25610138594172, -34.14852244987153 117.61282225160859 C-39.282133588632576 123.96954311727546, -39.316665873468544 127.91828846662307, -42.07709260149859 133.60303306161427 C-44.83751932952864 139.28777765660547, -49.06742763861082 146.2404566168692, -50.7110828180518 151.72128982155584 C-52.35473799749278 157.20212302624248, -53.525313773692275 160.9588301001893, -51.93902367814444 166.48803228973412 C-50.3527335825966 172.01723447927895, -44.55890043024284 179.62066508113406, -41.19334224476479 184.89650295882487 C-37.82778405928674 190.17234083651567, -35.26586857750081 195.3412287919627, -31.745674565276133 198.14305955587886 C-28.225480553051458 200.94489031979504, -23.064983169079447 200.72077869930925, -20.072178171416745 201.7074875423219 C-17.079373173754043 202.69419638533455, -13.27140564296705 202.71820833751622, -13.788844579299912 204.06331261395476 C-14.306283515632774 205.4084168903933, -20.50867308819356 207.36469314196768, -23.176811789413915 209.77811320095324 C-25.844950490634268 212.1915332599388, -28.437344078163928 216.37733628242276, -29.797676786622034 218.54383296786807 C-31.15800949508014 220.71032965331338, -31.01364450399143 217.56281449634892, -31.338808040162547 222.77709331362507 C-31.663971576333665 227.99137213090123, -33.54478007449768 242.27769058892193, -31.748658003648742 249.82950587152504 C-29.9525359327998 257.38132115412816, -23.317582149545974 264.4487259330259, -20.5620756150689 268.0879850092437 C-17.806569080591824 271.7272440854615, -17.777153573374573 270.23652630258664, -15.215618796786293 271.6650603288319 C-12.654084020198011 273.09359435507713, -8.418847841263439 276.1758543725715, -5.192866955539212 276.65918916671535 C-1.9668860698149855 277.1425239608592, 4.373085067132488 270.8459422189897, 4.140266517559066 274.5650690936949 C3.907447967985645 278.28419596840007, -4.466480478883412 293.3708038188921, -6.589778252979741 298.97395041494633 C-8.71307602707607 304.57709701100055, -10.485524927716082 304.2795475503709, -8.599520127018913 308.1839486700203 C-6.713515326321745 312.0883497896697, 0.6464706211878619 318.60002202589374, 4.726250551203266 322.40035713284277 C8.80603048121867 326.2006922397918, 11.409878584006801 328.38246192563633, 15.879159453073516 330.9859593117144 C20.34844032214023 333.58945669779246, 29.942945725877458 335.75980049748284, 31.541935765603558 338.021341449311 C33.14092580532966 340.2828824011392, 27.676480660894885 339.951315390359, 25.473099691430107 344.55520502268337 C23.26971872196533 349.1590946550077, 20.095208018779132 355.85627448756554, 18.321649948814883 365.64467924325726 C16.548091878850634 375.433083998949, 14.495789278208589 395.9842484067784, 14.831751271644608 403.2856335568335 C15.167713265080627 410.58701870688856, 18.978176933486637 407.4687563333816, 20.337421909430997 409.45299014358784 C21.696666885375357 411.4372239537941, 19.370301994541663 413.5142451871342, 22.987221127310768 415.191036418071 C26.604140260079873 416.86782764900784, 35.636094820260375 418.7497354555037, 42.03893670604564 419.51373752920887 C48.441778591830904 420.27773960291404, 58.77017261848785 417.5924670269992, 61.40427244202234 419.7750488603022 C64.03837226555683 421.9576306936052, 58.50252694602745 427.4648783578382, 57.84353564725257 432.6092285290267 C57.184544348477694 437.75357870021526, 57.41987787530758 446.2582523052798, 57.45032464937307 450.6411498874333 C57.48077142343857 455.0240474695868, 55.75702816104827 455.89302862762474, 58.02621629164554 458.90661402194763 C60.29540442224281 461.9201994162705, 65.12821740692792 465.4091164842155, 71.06545343295672 468.7226622533705 C77.00268945898551 472.03620802252556, 89.0884762322499 476.95287360210284, 93.64963244781829 478.78788863687777 C98.21078866338668 480.6229036716527, 93.21164710527597 479.69408544271255, 98.43239072636702 479.73275246202013 C103.65313434745806 479.7714194813277, 120.07840517655947 479.2496110351787, 124.97409417436458 479.0198907527234 C129.8697831721697 478.79017047026815, 126.34761244561213 479.67702880967715, 127.80652471319772 478.3544307672884 C129.2654369807833 477.0318327248997, 130.16433859423734 469.85161576409206, 133.72756777987814 471.0843024983909 C137.29079696551895 472.31698923268976, 146.09121515319683 482.5966599640157, 149.1858998270426 485.75055117308165 C152.28058450088835 488.9044423821476, 144.27312300221064 488.183773042749, 152.29567582295277 490.0076497527864 C160.3182286436949 491.8315264628238, 185.41521320329048 496.26986936796766, 197.32121675149537 496.69381143330594 C209.22722029970026 497.1177534986442, 214.69759450073974 494.14747854172253, 223.73169711218216 492.55130214481613 C232.76579972362458 490.95512574790973, 242.88335415448682 489.26505790043933, 251.5258324201498 487.1167530518677 C260.1683106858128 484.9684482032961, 270.9465787734184 479.0606383482522, 275.58656670616006 479.66147305338643 C280.2265546389017 480.26230775852065, 278.0637084820463 488.355470190337, 279.36576001659967 490.7217612826731 C280.667811551153 493.0880523750093, 280.2415577538405 492.91766896624426, 283.3988759134803 493.8592196074035 C286.55619407312014 494.8007702485627, 293.26200291122933 496.2291946165667, 298.3096689744387 496.3710651296284 C303.35733503764806 496.5129356426901, 309.3933362922662 495.01616398293834, 313.68487229273654 494.7104426857736 C317.9764082932069 494.4047213886089, 320.0116204172963 497.1858299747017, 324.0588849772606 494.5367373466399 C328.10614953722495 491.8876447185781, 333.0753754889562 485.7368940689073, 337.9684596525226 478.81588691740296 C342.861543816089 471.8948797658986, 350.00693355884096 458.0331521436479, 353.4173899586592 453.0106944376137 C356.8278463584775 447.98823673157955, 356.32379269417066 451.45380697805746, 358.43119805143215 448.68114068119786 C360.53860340869363 445.90847438433826, 364.59330447779035 439.9304474189784, 366.0618221022282 436.3746966564562 C367.530339726666 432.81894589393397, 367.3440281748368 429.9373608809616, 367.242303798059 427.3466361060645 C367.14057942128125 424.75591133116745, 365.647084899405 423.0151791795995, 365.4514758415613 420.8303480070736 C365.25586678371764 418.6455168345477, 366.9908451145484 416.72452436485946, 366.0686494509969 414.23764907090924 C365.14645378744535 411.750773776959, 363.66894946561195 410.05965455441736, 359.91830186025237 405.9090962433722 C356.1676542548928 401.758537932327, 344.8749962802324 395.02877643365724, 343.56476381883954 389.3342992046382 C342.2545313574467 383.6398219756192, 349.5872290683383 379.74435775567156, 352.05690709189514 371.74223286925815 C354.526585115452 363.74010798284473, 356.1932240221494 347.9801065079278, 358.3828319601808 341.32154988615775 C360.57243989821217 334.6629932643877, 361.84457751617765 334.1579500789351, 365.19455472008326 331.7908931386378 C368.54453192398887 329.4238361983405, 376.0015936072264 329.09168109157747, 378.4826951836143 327.119208244374 C380.96379676000214 325.1467353971706, 379.35463820105724 325.89060323644736, 380.0811641784105 319.95605605541726 C380.8076901557638 314.02150887438717, 383.26882655239046 298.7065104385124, 382.8418510477338 291.5119251581933 C382.4148755430772 284.31733987787425, 379.81204409823755 280.98399935711484, 377.51931115047074 276.78854437350293 C375.22657820270393 272.593089389891, 369.3529672912353 267.6141152193056, 369.0854533611331 266.3391952565219 C368.8179394310309 265.06427529373826, 373.4857510996454 268.50133098651037, 375.9142275698576 269.13902459680105 C378.34270404006975 269.77671820709173, 381.43804984068805 270.6371931878633, 383.65631218240594 270.16535691826607 C385.87457452412383 269.6935206486688, 385.4723713472082 272.5706344202068, 389.22380162016486 266.30800697921774 C392.97523189312153 260.0453795382287, 400.6474311343425 240.12828584809168, 406.1648938201461 232.58959227233194 C411.6823565059497 225.0508986965722, 419.23617323285276 223.5181230371104, 422.3285777349863 221.07584552465937 C425.42098223711986 218.63356801220834, 422.88379102245904 220.80644512056372, 424.7193208329473 217.93592719762586 C426.55485064343554 215.065409274688, 431.6724147318397 207.9681872994608, 433.34175659791566 203.85273798703216 C435.01109846399163 199.73728867460352, 434.5491322719647 196.32723334251904, 434.7353720294032 193.24323132305406 C434.9216117868417 190.1592293035891, 435.61401006942924 188.01006141949756, 434.45919514254666 185.34872587024233 C433.3043802156641 182.6873903209871, 430.89144723312 180.70938993453046, 427.80648246810773 177.27521802752278 C424.72151770309546 173.8410461205151, 418.72152972088196 165.70782335946024, 415.9494065524731 164.74369442819616 C413.1772833840642 163.7795654969321, 410.72138450618525 170.05816473383769, 411.1737434576545 171.4904444399383 C411.62610240912375 172.92272414603892, 416.06986707812484 173.87706149825516, 418.66356026128864 173.33737266479991 C421.25725344445243 172.79768383134467, 424.53891560808756 170.3786513276802, 426.7359025566373 168.25231143920684 C428.93288950518706 166.12597155073348, 430.23490511641836 162.96154129812183, 431.84548195258714 160.5793333339598 C433.4560587887559 158.19712536979776, 435.07000163908737 156.96578705329756, 436.3993635736499 153.95906365423463 C437.72872550821245 150.9523402551717, 439.35351639435623 147.40987197129988, 439.8216535599623 142.5389929395821 C440.2897907255683 137.66811390786432, 442.8432599494451 133.89101966459614, 439.208186567286 124.73378946392796 C435.57311318512694 115.57655926325978, 423.03689638719896 95.03883981336219, 418.01121326700786 87.59561173557304 C412.98553014681676 80.1523836577839, 411.0199641394212 81.21564066548211, 409.05408784613945 80.07442099719309 C407.08821155285773 78.93320132890406, 406.2872301535402 81.72674153654837, 406.2159555073176 80.74829372583889 C406.14468086109497 79.76984591512941, 408.3307107259426 76.52745197652838, 408.6264399688039 74.20373413293622 C408.92216921166516 71.88001628934406, 411.01769233530695 69.74671760309798, 407.99033096448517 66.80598666428588 C404.9629695936634 63.86525572547379, 397.4087524759366 59.02076593497458, 390.46227174387315 56.55934850006364 C383.5157910118097 54.09793106515271, 374.1791138244265 53.5834188919173, 366.31144657210444 52.03748205482029 C358.4437793197824 50.49154521772328, 351.32999840633016 46.20307196139358, 343.25626822994093 47.28372747748159 C335.1825380535517 48.3643829935696, 322.8799817628258 56.66634003191255, 317.86906551376916 58.521415151348336 C312.8581492647125 60.376490270784124, 316.259680450717 62.09170322635832, 313.19077073560095 58.41417819409631 C310.1218610204849 54.7366531618343, 302.8331062090987 42.68648606865666, 299.455607223073 36.45626495777629 C296.07810823704733 30.226043846895916, 295.45902012602426 25.273836650441712, 292.92577681944704 21.032851528814064 C290.3925335128698 16.791866407186415, 287.10895347183884 14.13637246438923, 284.2561473836098 11.010354228010401 C281.40334129538076 7.884335991631572, 280.12189519917905 4.639826237550006, 275.80894029007294 2.2767421105410905 C271.49598538096683 -0.08634201646782413, 263.7089794429733 -2.426641568650181, 258.3784179289732 -3.1681505340430887 C253.0478564149731 -3.909659499435996, 250.25150635377503 0.01986974158945154, 243.82557120607234 -2.1723116818163546 C237.39963605836965 -4.364493105222161, 227.0222962644293 -12.947019734888649, 219.82280704275706 -16.321239074477926 C212.62331782108484 -19.695458414067204, 206.93037719007273 -21.352658000200368, 200.62863587603906 -22.417627719352023 C194.32689456200538 -23.482597438503678, 186.7790056614671 -23.77771532208659, 182.01235915855506 -22.71105738938786 C177.24571265564302 -21.644399456689133, 178.51368755833244 -20.724538400579863, 172.02875685856677 -16.01768012315966 C165.5438261588011 -11.310821845739458, 151.72019894268053 4.826495465328916, 143.10277495996095 5.530092275133356 C134.48535097724138 6.2336890849377955, 126.42594022548137 -7.942709122309461, 120.32421296224929 -11.796099264333025 C114.22248569901721 -15.649489406356588, 111.63462366666334 -16.04765316040255, 106.49241138056851 -17.590248577008023 C101.35019909447368 -19.132843993613495, 94.60762754177985 -20.52093074481624, 89.47093924568034 -21.05167176396586 C84.33425094958083 -21.58241278311548, 79.2620169753426 -21.808583237041407, 75.6722816039715 -20.77469469190575 C72.0825462326004 -19.740806146770094, 71.458564774155 -18.239786764193948, 67.93252701745368 -14.848340493151918 C64.40648926075237 -11.45689422210989, 64.20310559397873 0.466793614318594, 54.51605506376363 -0.42601706565357744 C44.82900453354853 -1.318827745625749, 18.89789010620055 -20.196683593203, 9.81022383616306 -20.205204572984947 C0.7225575661255679 -20.213725552766892, 1.5896058311654875 -4.050257144082958, -0.009942556461319363 -0.47714294434525084" stroke="#000000" stroke-width="4" fill="none"></path></g></g><g><g transform="translate(393.2514895334474 556.7454073704072) rotate(0 29.714270028402098 66.96854099764957)"><path d="M1.1214829891920088 0.7053712874650955 C10.80398729344209 23.00397507647673, 49.4072511802117 111.68838666578132, 59.177417227625845 133.9069947272539 M0.2511228291783483 0.030087268045172033 C9.696420604347562 21.992325794488814, 48.46993918087023 110.23086645353897, 58.32251580850221 132.2605922102835" stroke="#000000" stroke-width="1" fill="none"></path></g></g><g><g transform="translate(535.7514895334474 300.7454073704072) rotate(0 85.71315449939112 -8.727725643594752)"><path d="M0.29081535637378697 0.3480675190687179 C28.722514441609384 -2.1553890734910963, 141.57039242088797 -13.237451317906379, 170.1672129660845 -15.962914136052131 M-1.0156453108694405 -0.5148009787593038 C27.83217450530268 -3.294454534212127, 143.67872957290152 -14.874786471584814, 172.44195430965163 -17.803518806258218" stroke="#000000" stroke-width="1" fill="none"></path></g></g><g transform="translate(705.7514895334474 246.24540737040718) rotate(0 47.75 22.5)"><path d="M-0.019250795245170593 -1.2551372796297073 C35.78461074717343 2.593288360647857, 70.70573608353735 -0.9816222800686956, 96.66172654926777 1.7022597044706345 M0.6269806250929832 0.9817538633942604 C37.38161865137518 0.2090766863897443, 73.42125271037222 0.026740594394505046, 95.09399851411581 -0.09772511571645737 M94.31630952656269 -1.9228432923555374 C93.81829549856484 16.483912881463766, 93.97695400305092 31.787809558212757, 96.11796863377094 46.96392075717449 M94.58656176179647 -0.5771963223814964 C95.48824924193323 14.277299728244543, 95.04783982001246 29.71655072271824, 95.48139794915915 45.06040386110544 M94.49606235325336 43.92585389316082 C71.08513329736888 43.051435728259385, 44.097132097929716 45.63890912074596, 1.141547754406929 44.65165297687054 M95.80458863824606 45.79815677553415 C62.18316968716681 46.15086492549628, 29.904852237552404 45.14002236377448, 0.30863960832357407 45.34253338724375 M1.442370966076851 45.688903495669365 C-2.302339829877019 30.696066055446863, 1.57137604765594 15.404080055654049, 1.6079521924257278 1.4602805823087692 M0.14409836381673813 44.77211979776621 C-0.3956158068031073 29.753123749047518, -0.9501457121223211 11.831089675426483, 0.3371981009840965 0.8895326033234596" stroke="#000000" stroke-width="1" fill="none"></path></g><g transform="translate(451.7514895334474 689.2454073704072) rotate(0 54.25 20.5)"><path d="M-0.4557604044675827 -0.010484054684638977 C43.88654188923538 -1.2758905900642277, 82.42276813313366 0.5180494772270321, 110.27906520664692 1.2565900534391403 M-0.9069351330399513 -0.6658069714903831 C38.03887655474246 0.5797151152417064, 74.00869794711471 1.2040425364300609, 109.0032513961196 0.44814208894968033 M107.34612376987934 1.2404958456754684 C108.28199309505523 13.00655486509204, 108.5466544071585 25.8665317311883, 109.51266629993916 39.414964362978935 M109.07961591333151 0.6397524252533913 C107.69586361043156 14.763837718218566, 107.45159829251469 27.659445533156397, 107.6644469127059 40.01692322641611 M107.48682935535908 42.23981253802776 C76.01449683494866 41.431328880898654, 45.57300232723355 43.45112954389304, 1.8238583356142044 40.46571843326092 M109.38589199632406 41.89255455881357 C67.25848972760141 40.02209803003818, 24.197577632218596 40.68461820024997, -0.30604854971170425 41.73045686632395 M1.2793446332216263 40.244790241122246 C1.5455036159604787 28.27687217667699, 1.9148707386106252 18.17533289641142, 1.9787545949220657 0.4630514830350876 M-0.9453822746872902 40.45221856981516 C0.19439666338264944 28.336240891367197, 0.6177491433173419 15.769617766141891, -0.21707288175821304 -0.32507535070180893" stroke="#000000" stroke-width="1" fill="none"></path></g><g transform="translate(488.68006096201873 117.81683594183572) rotate(0 46.5 12.5)"><text x="0" y="18" font-family="Virgil, Segoe UI Emoji" font-size="20px" fill="#000000" text-anchor="start" style="white-space: pre;" direction="ltr">BaceFook</text></g><g transform="translate(715.7514895334474 256.2454073704072) rotate(0 39.5 12.5)"><text x="0" y="18" font-family="Virgil, Segoe UI Emoji" font-size="20px" fill="#000000" text-anchor="start" style="white-space: pre;" direction="ltr">BirdSite</text></g><g transform="translate(462.2514895334474 699.7454073704072) rotate(0 44 12.5)"><text x="0" y="18" font-family="Virgil, Segoe UI Emoji" font-size="20px" fill="#000000" text-anchor="start" style="white-space: pre;" direction="ltr">VideoSite</text></g><g transform="translate(479.7514895334474 106.24540737040716) rotate(0 59.96428571428572 22.5)"><path d="M0.7057792395353317 0.6696716099977493 C37.51321253366769 -1.4634334225047911, 69.98975898697974 1.0214274745594178, 121.04883993736337 0.4811878949403763 M0.4302354231476784 -0.10588923841714859 C33.12647209343102 -0.6602113371076328, 65.98632112943702 -1.1731457834424717, 119.04443407378028 -0.1942531242966652 M118.2806705342872 -1.8240679949522018 C118.4301730392767 11.229300025850534, 119.18004572375546 18.267119340598583, 119.29054249397348 46.70529802143574 M119.76540232024024 -0.33602825552225113 C119.84740998356472 14.421736333519222, 121.01427890865932 28.84340320527554, 120.06947589239905 44.599373422563076 M120.9687842237098 45.11183412373066 C90.03660924248399 43.2717605457721, 61.60850835793785 44.16894444088319, -1.8823645859956741 45.37906940281391 M120.70298075995277 44.51283510774374 C95.65169488484307 44.61212357749364, 72.01060340670602 43.120810835260365, -0.3946234807372093 44.12996133416891 M1.230569526553154 45.82161624729633 C0.4695098478347063 28.243203546851873, 0.09368062801659108 15.454906202852726, -0.8554142266511917 0.29986532032489777 M0.8760273829102516 45.717800460755825 C0.8085375752300024 34.55460865423083, -0.7481195006519556 24.363424599170685, -0.3811020478606224 -0.1769522801041603" stroke="#000000" stroke-width="1" fill="none"></path></g><g><g transform="translate(747.9787622607201 504.83631646131624) rotate(0 -17.89047681062948 -4.497262862324732)"><path d="M-0.9162078827619553 0.9292911976575853 C-6.819555184245109 -0.8149653623501458, -30.842856404185294 -8.254819761713346, -36.58459787070751 -9.923816922307015 M0.8036442494485527 0.3715651310887189 C-4.596981674125419 -1.2090583747221775, -28.078974885335192 -6.460023348390434, -34.17955721645616 -8.346395555296912" stroke="#000000" stroke-width="1" fill="none"></path></g><g transform="translate(747.9787622607201 504.83631646131624) rotate(0 -17.89047681062948 -4.497262862324732)"><path d="M-14.131899610456127 -10.989980230842848 C-19.227382925156956 -8.88409140998434, -21.696231264553358 -11.31827022005361, -34.91677471727022 -9.971761916257906 M-15.003892233675915 -9.696154651800514 C-21.73298415158527 -10.142430444299821, -28.165052292003853 -8.462881417712902, -34.579068629939776 -8.20634689320403" stroke="#000000" stroke-width="1" fill="none"></path></g><g transform="translate(747.9787622607201 504.83631646131624) rotate(0 -17.89047681062948 -4.497262862324732)"><path d="M-17.369430223722556 1.3720331258525742 C-21.86364001492513 0.9936815641185546, -23.67540833073198 -3.9494563874478947, -34.91677471727023 -9.971761916257906 M-18.241422846942346 2.6658587048949096 C-23.817918159729995 -1.9578360999836857, -29.161022913333877 -4.436326499369523, -34.579068629939776 -8.20634689320403" stroke="#000000" stroke-width="1" fill="none"></path></g></g><g transform="translate(766.9333077152656 498.88177100677086) rotate(0 100.5 50)"><text x="0" y="18" font-family="Virgil, Segoe UI Emoji" font-size="20px" fill="#000000" text-anchor="start" style="white-space: pre;" direction="ltr">You, with your phone,</text><text x="0" y="43" font-family="Virgil, Segoe UI Emoji" font-size="20px" fill="#000000" text-anchor="start" style="white-space: pre;" direction="ltr">tablet, desktop, or</text><text x="0" y="68" font-family="Virgil, Segoe UI Emoji" font-size="20px" fill="#000000" text-anchor="start" style="white-space: pre;" direction="ltr">internet connected</text><text x="0" y="93" font-family="Virgil, Segoe UI Emoji" font-size="20px" fill="#000000" text-anchor="start" style="white-space: pre;" direction="ltr">smart light bulbs</text></g><g><g transform="translate(152.75148953344743 628.2454073704072) rotate(0 -24.091129363398068 -21.930102011561388)"><path d="M0.7138593167066574 -0.4969232529401779 C-7.559491685032843 -7.723128220438958, -40.04235654175282 -36.09262695014477, -48.482342675328255 -43.36328077018261 M-0.37050327136181305 -1.80341190607287 C-8.814134837826714 -8.812756733307616, -40.47196259512566 -34.86642931074835, -48.896118043502796 -41.75407792330719" stroke="#000000" stroke-width="1" fill="none"></path></g><g transform="translate(152.75148953344743 628.2454073704072) rotate(0 -24.091129363398068 -21.930102011561388)"><path d="M-21.42370976481709 -30.10432656188366 C-31.587772235358692 -36.288590663937356, -44.07101642567795 -39.634298007532756, -48.533146573742854 -40.7582611411903 M-19.79526831928763 -31.60730940927622 C-30.918390626381814 -34.755652950116875, -39.844750888075126 -39.57520110184933, -47.9100488038268 -41.20580952317454" stroke="#000000" stroke-width="1" fill="none"></path></g><g transform="translate(152.75148953344743 628.2454073704072) rotate(0 -24.091129363398068 -21.930102011561388)"><path d="M-34.44288223551007 -14.241755819277358 C-39.44429972098009 -26.79266519100961, -46.76569879175599 -36.42756899125011, -48.533146573742854 -40.7582611411903 M-32.81444078998061 -15.744738666669917 C-39.42773700143407 -24.496451158530824, -43.7505897664998 -34.924916735218986, -47.9100488038268 -41.20580952317454" stroke="#000000" stroke-width="1" fill="none"></path></g></g><g transform="translate(153.25148953344743 637.7454073704072) rotate(0 91 50)"><text x="0" y="18" font-family="Virgil, Segoe UI Emoji" font-size="20px" fill="#000000" text-anchor="start" style="white-space: pre;" direction="ltr">Your friend with a</text><text x="0" y="43" font-family="Virgil, Segoe UI Emoji" font-size="20px" fill="#000000" text-anchor="start" style="white-space: pre;" direction="ltr">crappy connection</text><text x="0" y="68" font-family="Virgil, Segoe UI Emoji" font-size="20px" fill="#000000" text-anchor="start" style="white-space: pre;" direction="ltr">that sounds like a</text><text x="0" y="93" font-family="Virgil, Segoe UI Emoji" font-size="20px" fill="#000000" text-anchor="start" style="white-space: pre;" direction="ltr">robot on discord</text></g><g stroke-opacity="0.3" fill-opacity="0.3" transform="translate(228.89434667630448 208.9402125652124) rotate(0 55.50000000000003 25)"><text x="0" y="18" font-family="Virgil, Segoe UI Emoji" font-size="20px" fill="#000000" text-anchor="start" style="white-space: pre;" direction="ltr">THE</text><text x="0" y="43" font-family="Virgil, Segoe UI Emoji" font-size="20px" fill="#000000" text-anchor="start" style="white-space: pre;" direction="ltr">INTERNET</text></g><g><g stroke-opacity="0.4" fill-opacity="0.4" transform="translate(693.569671351629 108.55001229386126) rotate(0 -35.55194805194799 7.087957278532711)"><path d="M0 0 C-11.850649350649329 2.3626524261775703, -59.25324675324665 11.813262130887852, -71.10389610389598 14.175914557065422 M0 0 C-11.850649350649329 2.3626524261775703, -59.25324675324665 11.813262130887852, -71.10389610389598 14.175914557065422" stroke="#000000" stroke-width="4" fill="none"></path></g><g stroke-opacity="0.4" fill-opacity="0.4" transform="translate(693.569671351629 108.55001229386126) rotate(0 -35.55194805194799 7.087957278532711)"><path d="M-45.46337844124825 -1.3985470384906193 C-54.4484452693351 4.05912663599216, -63.43351209742195 9.51680031047494, -71.10389610389598 14.175914557065422 M-45.46337844124825 -1.3985470384906193 C-51.051240714644365 1.9956101124409975, -56.63910298804048 5.389767263372614, -71.10389610389598 14.175914557065422" stroke="#000000" stroke-width="4" fill="none"></path></g><g stroke-opacity="0.4" fill-opacity="0.4" transform="translate(693.569671351629 108.55001229386126) rotate(0 -35.55194805194799 7.087957278532711)"><path d="M-41.45104908856841 18.726591856718603 C-51.84213461894694 17.131922818113107, -62.233220149325476 15.537253779507614, -71.10389610389598 14.175914557065422 M-41.45104908856841 18.726591856718603 C-47.91332209396549 17.734858447288435, -54.37559509936257 16.743125037858263, -71.10389610389598 14.175914557065422" stroke="#000000" stroke-width="4" fill="none"></path></g></g><g><g stroke-opacity="0.4" fill-opacity="0.4" transform="translate(707.2945426828185 181.00290087793417) rotate(351.78113815832427 2.286431813970921 28.341193703953124)"><path d="M0 0 C0.7621439379903071 9.447064567984375, 3.810719689951535 47.23532283992187, 4.572863627941842 56.68238740790625 M0 0 C0.7621439379903071 9.447064567984375, 3.810719689951535 47.23532283992187, 4.572863627941842 56.68238740790625" stroke="#000000" stroke-width="4" fill="none"></path></g><g stroke-opacity="0.4" fill-opacity="0.4" transform="translate(707.2945426828185 181.00290087793417) rotate(351.78113815832427 2.286431813970921 28.341193703953124)"><path d="M-7.268938608223358 30.83238255675615 C-3.7382769019825344 38.5396234322507, -0.2076151957417105 46.24686430774525, 4.572863627941842 56.68238740790625 M-7.268938608223358 30.83238255675615 C-3.636449998294486 38.761905978591045, -0.003961388365613772 46.691429400425946, 4.572863627941842 56.68238740790625" stroke="#000000" stroke-width="4" fill="none"></path></g><g stroke-opacity="0.4" fill-opacity="0.4" transform="translate(707.2945426828185 181.00290087793417) rotate(351.78113815832427 2.286431813970921 28.341193703953124)"><path d="M12.117579657069815 29.268371083318748 C9.868104498031038 37.44192572653713, 7.61862933899226 45.61548036975552, 4.572863627941842 56.68238740790625 M12.117579657069815 29.268371083318748 C9.803227965124128 37.67765710798692, 7.488876273178441 46.08694313265508, 4.572863627941842 56.68238740790625" stroke="#000000" stroke-width="4" fill="none"></path></g></g><g stroke-opacity="0.4" fill-opacity="0.4" transform="translate(706.1058573878157 73.18398268398263) rotate(0 176.5 50)"><text x="0" y="18" font-family="Virgil, Segoe UI Emoji" font-size="20px" fill="#000000" text-anchor="start" style="white-space: pre;" direction="ltr">These sites are hosted on servers</text><text x="0" y="43" font-family="Virgil, Segoe UI Emoji" font-size="20px" fill="#000000" text-anchor="start" style="white-space: pre;" direction="ltr">that are CONNECTED to, but not</text><text x="0" y="68" font-family="Virgil, Segoe UI Emoji" font-size="20px" fill="#000000" text-anchor="start" style="white-space: pre;" direction="ltr">part of the core network that we</text><text x="0" y="93" font-family="Virgil, Segoe UI Emoji" font-size="20px" fill="#000000" text-anchor="start" style="white-space: pre;" direction="ltr">call the internet.</text></g><g stroke-opacity="0.4" fill-opacity="0.4" transform="translate(873.3924041743627 195.27272727272725) rotate(0 101 99.99999999999999)"><text x="0" y="18" font-family="Virgil, Segoe UI Emoji" font-size="20px" fill="#000000" text-anchor="start" style="white-space: pre;" direction="ltr">The 'internet' core</text><text x="0" y="43" font-family="Virgil, Segoe UI Emoji" font-size="20px" fill="#000000" text-anchor="start" style="white-space: pre;" direction="ltr">is really just the </text><text x="0" y="68" font-family="Virgil, Segoe UI Emoji" font-size="20px" fill="#000000" text-anchor="start" style="white-space: pre;" direction="ltr">routing and switching</text><text x="0" y="93" font-family="Virgil, Segoe UI Emoji" font-size="20px" fill="#000000" text-anchor="start" style="white-space: pre;" direction="ltr">of packets that</text><text x="0" y="118" font-family="Virgil, Segoe UI Emoji" font-size="20px" fill="#000000" text-anchor="start" style="white-space: pre;" direction="ltr">provide paths for</text><text x="0" y="143" font-family="Virgil, Segoe UI Emoji" font-size="20px" fill="#000000" text-anchor="start" style="white-space: pre;" direction="ltr">data to get from</text><text x="0" y="168" font-family="Virgil, Segoe UI Emoji" font-size="20px" fill="#000000" text-anchor="start" style="white-space: pre;" direction="ltr">one end system to</text><text x="0" y="193" font-family="Virgil, Segoe UI Emoji" font-size="20px" fill="#000000" text-anchor="start" style="white-space: pre;" direction="ltr">another</text></g><g stroke-opacity="0.4" fill-opacity="0.4" transform="translate(786.1196769016353 413.27272727272725) rotate(0 151.50000000000006 37.5)"><text x="0" y="18" font-family="Virgil, Segoe UI Emoji" font-size="20px" fill="#000000" text-anchor="start" style="white-space: pre;" direction="ltr">Some bigger websites may have</text><text x="0" y="43" font-family="Virgil, Segoe UI Emoji" font-size="20px" fill="#000000" text-anchor="start" style="white-space: pre;" direction="ltr">many, many servers all across</text><text x="0" y="68" font-family="Virgil, Segoe UI Emoji" font-size="20px" fill="#000000" text-anchor="start" style="white-space: pre;" direction="ltr">the world</text></g><g stroke-opacity="0.7" fill-opacity="0.7" transform="translate(102.02876781072624 10) rotate(0 377.5 23)"><text x="0" y="32" font-family="Virgil, Segoe UI Emoji" font-size="36px" fill="#000000" text-anchor="start" style="white-space: pre;" direction="ltr">THE INTERNET IS A SERIES OF TUBES</text></g></svg>