<svg version="1.1" xmlns="http://www.w3.org/2000/svg" viewBox="0 0 858.25 167.68075417689786" width="858.25" height="167.68075417689786">
  <!-- svg-source:excalidraw -->
  
  <defs>
    <style>
      @font-face {
        font-family: "Virgil";
        src: url("https://excalidraw.com/FG_Virgil.woff2");
      }
      @font-face {
        font-family: "Cascadia";
        src: url("https://excalidraw.com/Cascadia.woff2");
      }
    </style>
  </defs>
  <g transform="translate(10 94.93075417689786) rotate(0 30.5 29.5)"><path d="M0 0 L61 0 L61 59 L0 59" stroke="none" stroke-width="0" fill="#fa525233"></path><path d="M0 0 C13.095636384095997 0, 26.191272768191993 0, 61 0 M0 0 C21.626575401518494 0, 43.25315080303699 0, 61 0 M61 0 C61 21.511475744191557, 61 43.022951488383114, 61 59 M61 0 C61 19.982211496587844, 61 39.96442299317569, 61 59 M61 59 C38.84505454460159 59, 16.690109089203176 59, 0 59 M61 59 C45.376375237014145 59, 29.75275047402829 59, 0 59 M0 59 C0 39.207674626167865, 0 19.41534925233573, 0 0 M0 59 C0 36.61674659634009, 0 14.233493192680179, 0 0" stroke="#000000" stroke-width="4" fill="none"></path></g><g transform="translate(82.5 94.43075417689786) rotate(0 30.5 29.5)"><path d="M0 0 L61 0 L61 59 L0 59" stroke="none" stroke-width="0" fill="#228be633"></path><path d="M0 0 C14.696009154524656 0, 29.392018309049313 0, 61 0 M0 0 C21.173742675874387 0, 42.34748535174877 0, 61 0 M61 0 C61 18.29957302743569, 61 36.59914605487138, 61 59 M61 0 C61 15.866262965556235, 61 31.73252593111247, 61 59 M61 59 C47.85451511004939 59, 34.70903022009879 59, 0 59 M61 59 C44.5683767019771 59, 28.13675340395421 59, 0 59 M0 59 C0 38.25816472237929, 0 17.51632944475859, 0 0 M0 59 C0 37.25640938365832, 0 15.512818767316638, 0 0" stroke="#000000" stroke-width="4" fill="none"></path></g><g transform="translate(154 93.93075417689786) rotate(0 29.5 30.5)"><path d="M0 0 L59 0 L59 61 L0 61" stroke="none" stroke-width="0" fill="#82c91e33"></path><path d="M0 0 C14.68737961286679 0, 29.37475922573358 0, 59 0 M0 0 C19.64698946690187 0, 39.29397893380374 0, 59 0 M59 0 C59 19.715897475089882, 59 39.431794950179764, 59 61 M59 0 C59 13.921395811531694, 59 27.842791623063388, 59 61 M59 61 C42.29160504704341 61, 25.583210094086823 61, 0 61 M59 61 C44.91691460991278 61, 30.833829219825564 61, 0 61 M0 61 C0 41.77821943322196, 0 22.556438866443933, 0 0 M0 61 C0 40.27372821262106, 0 19.547456425242117, 0 0" stroke="#000000" stroke-width="4" fill="none"></path></g><g transform="translate(223.5 94.43075417689786) rotate(0 29.5 30.5)"><path d="M0 0 L59 0 L59 61 L0 61" stroke="none" stroke-width="0" fill="#fab00533"></path><path d="M0 0 C15.002638714853674 0, 30.00527742970735 0, 59 0 M0 0 C19.495266961213204 0, 38.99053392242641 0, 59 0 M59 0 C59 20.041884048189967, 59 40.083768096379934, 59 61 M59 0 C59 14.560218513105067, 59 29.120437026210134, 59 61 M59 61 C40.88964302605018 61, 22.77928605210036 61, 0 61 M59 61 C42.93075812542811 61, 26.86151625085622 61, 0 61 M0 61 C0 47.14241936067119, 0 33.28483872134238, 0 0 M0 61 C0 39.61190345874056, 0 18.22380691748112, 0 0" stroke="#000000" stroke-width="4" fill="none"></path></g><g transform="translate(29 100.43075417689786) rotate(0 10.5 23)"><text x="10.5" y="32" font-family="Virgil, Segoe UI Emoji" font-size="36px" fill="#000000" text-anchor="middle" style="white-space: pre;" direction="ltr">F</text></g><g transform="translate(95 99.93075417689786) rotate(0 18 23)"><text x="18" y="32" font-family="Virgil, Segoe UI Emoji" font-size="36px" fill="#000000" text-anchor="middle" style="white-space: pre;" direction="ltr">D</text></g><g transform="translate(170.5 105.93075417689786) rotate(0 11.5 23)"><text x="11.5" y="32" font-family="Virgil, Segoe UI Emoji" font-size="36px" fill="#000000" text-anchor="middle" style="white-space: pre;" direction="ltr">E</text></g><g transform="translate(226 106.93075417689786) rotate(0 28 23)"><text x="28" y="32" font-family="Virgil, Segoe UI Emoji" font-size="36px" fill="#000000" text-anchor="middle" style="white-space: pre;" direction="ltr">WB</text></g><g transform="translate(292.75 96.18075417689786) rotate(0 30.5 29.5)"><path d="M0 0 L61 0 L61 59 L0 59" stroke="none" stroke-width="0" fill="#fa525233"></path><path d="M0 0 C18.447872039768846 0, 36.89574407953769 0, 61 0 M0 0 C12.898219735827297 0, 25.796439471654594 0, 61 0 M61 0 C61 22.91574889039621, 61 45.83149778079242, 61 59 M61 0 C61 13.40449850494042, 61 26.80899700988084, 61 59 M61 59 C45.05125055005774 59, 29.102501100115475 59, 0 59 M61 59 C46.00934722283855 59, 31.018694445677102 59, 0 59 M0 59 C0 42.30528371119871, 0 25.61056742239743, 0 0 M0 59 C0 35.88316554492339, 0 12.766331089846787, 0 0" stroke="#000000" stroke-width="4" fill="none"></path></g><g transform="translate(365.25 95.68075417689786) rotate(0 30.5 29.5)"><path d="M0 0 L61 0 L61 59 L0 59" stroke="none" stroke-width="0" fill="#228be633"></path><path d="M0 0 C19.231231681909414 0, 38.46246336381883 0, 61 0 M0 0 C19.56486811945215 0, 39.1297362389043 0, 61 0 M61 0 C61 22.314688315335662, 61 44.629376630671324, 61 59 M61 0 C61 19.147331979032607, 61 38.294663958065215, 61 59 M61 59 C43.3153018371202 59, 25.63060367424041 59, 0 59 M61 59 C41.39979363968595 59, 21.799587279371913 59, 0 59 M0 59 C0 45.75002327328548, 0 32.50004654657096, 0 0 M0 59 C0 41.4840189971961, 0 23.968037994392212, 0 0" stroke="#000000" stroke-width="4" fill="none"></path></g><g transform="translate(436.75 95.18075417689786) rotate(0 29.5 30.5)"><path d="M0 0 L59 0 L59 61 L0 61" stroke="none" stroke-width="0" fill="#82c91e33"></path><path d="M0 0 C12.36535294270143 0, 24.73070588540286 0, 59 0 M0 0 C13.29820738369599 0, 26.59641476739198 0, 59 0 M59 0 C59 13.357624468300491, 59 26.715248936600982, 59 61 M59 0 C59 14.538636489119382, 59 29.077272978238764, 59 61 M59 61 C35.72399669075385 61, 12.447993381507693 61, 0 61 M59 61 C36.01783763235434 61, 13.035675264708694 61, 0 61 M0 61 C0 42.569134077336635, 0 24.13826815467327, 0 0 M0 61 C0 39.99223445514217, 0 18.984468910284342, 0 0" stroke="#000000" stroke-width="4" fill="none"></path></g><g transform="translate(506.25 95.68075417689786) rotate(0 29.5 30.5)"><path d="M0 0 L59 0 L59 61 L0 61" stroke="none" stroke-width="0" fill="#fab00533"></path><path d="M0 0 C20.35189714068547 0, 40.70379428137094 0, 59 0 M0 0 C21.368618389125913 0, 42.73723677825183 0, 59 0 M59 0 C59 15.890709333028646, 59 31.78141866605729, 59 61 M59 0 C59 13.921966281626373, 59 27.843932563252746, 59 61 M59 61 C40.04425937896595 61, 21.088518757931887 61, 0 61 M59 61 C40.44035137677565 61, 21.880702753551304 61, 0 61 M0 61 C0 45.27104711690917, 0 29.54209423381835, 0 0 M0 61 C0 46.949384167697275, 0 32.89876833539456, 0 0" stroke="#000000" stroke-width="4" fill="none"></path></g><g transform="translate(311.75 101.68075417689786) rotate(0 10.5 23)"><text x="10.5" y="32" font-family="Virgil, Segoe UI Emoji" font-size="36px" fill="#000000" text-anchor="middle" style="white-space: pre;" direction="ltr">F</text></g><g transform="translate(377.75 101.18075417689786) rotate(0 18 23)"><text x="18" y="32" font-family="Virgil, Segoe UI Emoji" font-size="36px" fill="#000000" text-anchor="middle" style="white-space: pre;" direction="ltr">D</text></g><g transform="translate(453.25 107.18075417689786) rotate(0 11.5 23)"><text x="11.5" y="32" font-family="Virgil, Segoe UI Emoji" font-size="36px" fill="#000000" text-anchor="middle" style="white-space: pre;" direction="ltr">E</text></g><g transform="translate(508.75 108.18075417689786) rotate(0 28 23)"><text x="28" y="32" font-family="Virgil, Segoe UI Emoji" font-size="36px" fill="#000000" text-anchor="middle" style="white-space: pre;" direction="ltr">WB</text></g><g transform="translate(575.75 97.18075417689786) rotate(0 30.5 29.5)"><path d="M0 0 L61 0 L61 59 L0 59" stroke="none" stroke-width="0" fill="#fa525233"></path><path d="M0 0 C22.290352624747904 0, 44.58070524949581 0, 61 0 M0 0 C22.201537118759006 0, 44.40307423751801 0, 61 0 M61 0 C61 15.701090060826392, 61 31.402180121652783, 61 59 M61 0 C61 17.347786780539902, 61 34.695573561079804, 61 59 M61 59 C36.65500352373346 59, 12.310007047466925 59, 0 59 M61 59 C44.861380143556744 59, 28.722760287113488 59, 0 59 M0 59 C0 36.88378436053172, 0 14.767568721063434, 0 0 M0 59 C0 45.195960376318546, 0 31.391920752637088, 0 0" stroke="#000000" stroke-width="4" fill="none"></path></g><g transform="translate(648.25 96.68075417689786) rotate(0 30.5 29.5)"><path d="M0 0 L61 0 L61 59 L0 59" stroke="none" stroke-width="0" fill="#228be633"></path><path d="M0 0 C23.01154920598492 0, 46.02309841196984 0, 61 0 M0 0 C17.998259615991266 0, 35.99651923198253 0, 61 0 M61 0 C61 16.91832615071908, 61 33.83665230143816, 61 59 M61 0 C61 19.815683441516015, 61 39.63136688303203, 61 59 M61 59 C44.27509413817897 59, 27.55018827635795 59, 0 59 M61 59 C40.28090962758287 59, 19.56181925516575 59, 0 59 M0 59 C0 44.95486722653732, 0 30.909734453074634, 0 0 M0 59 C0 46.603325272444636, 0 34.20665054488927, 0 0" stroke="#000000" stroke-width="4" fill="none"></path></g><g transform="translate(719.75 96.18075417689786) rotate(0 29.5 30.5)"><path d="M0 0 L59 0 L59 61 L0 61" stroke="none" stroke-width="0" fill="#82c91e33"></path><path d="M0 0 C16.531337767001244 0, 33.06267553400249 0, 59 0 M0 0 C19.14107356304303 0, 38.28214712608606 0, 59 0 M59 0 C59 22.664727169368415, 59 45.32945433873683, 59 61 M59 0 C59 15.35897848447785, 59 30.7179569689557, 59 61 M59 61 C42.23736882293596 61, 25.474737645871933 61, 0 61 M59 61 C35.77589098578319 61, 12.551781971566378 61, 0 61 M0 61 C0 45.073719036486, 0 29.147438072971998, 0 0 M0 61 C0 38.372335536871105, 0 15.74467107374221, 0 0" stroke="#000000" stroke-width="4" fill="none"></path></g><g transform="translate(789.25 96.68075417689786) rotate(0 29.5 30.5)"><path d="M0 0 L59 0 L59 61 L0 61" stroke="none" stroke-width="0" fill="#fab00533"></path><path d="M0 0 C21.00535091692582 0, 42.01070183385164 0, 59 0 M0 0 C18.7619616500102 0, 37.5239233000204 0, 59 0 M59 0 C59 14.045192582812161, 59 28.090385165624323, 59 61 M59 0 C59 23.650424230191856, 59 47.30084846038371, 59 61 M59 61 C36.03045194214209 61, 13.060903884284194 61, 0 61 M59 61 C43.433774740342045 61, 27.867549480684097 61, 0 61 M0 61 C0 42.091610215697436, 0 23.183220431394872, 0 0 M0 61 C0 42.60870030513033, 0 24.21740061026066, 0 0" stroke="#000000" stroke-width="4" fill="none"></path></g><g transform="translate(594.75 102.68075417689786) rotate(0 10.5 23)"><text x="10.5" y="32" font-family="Virgil, Segoe UI Emoji" font-size="36px" fill="#000000" text-anchor="middle" style="white-space: pre;" direction="ltr">F</text></g><g transform="translate(660.75 102.18075417689786) rotate(0 18 23)"><text x="18" y="32" font-family="Virgil, Segoe UI Emoji" font-size="36px" fill="#000000" text-anchor="middle" style="white-space: pre;" direction="ltr">D</text></g><g transform="translate(736.25 108.18075417689786) rotate(0 11.5 23)"><text x="11.5" y="32" font-family="Virgil, Segoe UI Emoji" font-size="36px" fill="#000000" text-anchor="middle" style="white-space: pre;" direction="ltr">E</text></g><g transform="translate(791.75 109.18075417689786) rotate(0 28 23)"><text x="28" y="32" font-family="Virgil, Segoe UI Emoji" font-size="36px" fill="#000000" text-anchor="middle" style="white-space: pre;" direction="ltr">WB</text></g><g><g transform="translate(121 -32.069245823102136) rotate(269.40006611974604 0 106)"><path d="M0 0 C0 35.333333333333336, 0 176.66666666666666, 0 212 M0 0 C0 35.333333333333336, 0 176.66666666666666, 0 212" stroke="#000000" stroke-width="4" fill="none"></path></g><g transform="translate(121 -32.069245823102136) rotate(269.40006611974604 0 106)"><path d="M-10.260604299770062 183.80922137642276 C-6.687075714279815 193.62741047283282, -3.113547128789568 203.4455995692429, 0 212 M-10.260604299770062 183.80922137642276 C-6.437190980934788 194.31396313516473, -2.6137776620995137 204.8187048939067, 0 212" stroke="#000000" stroke-width="4" fill="none"></path></g><g transform="translate(121 -32.069245823102136) rotate(269.40006611974604 0 106)"><path d="M10.260604299770062 183.80922137642276 C6.687075714279815 193.62741047283282, 3.113547128789568 203.4455995692429, 0 212 M10.260604299770062 183.80922137642276 C6.437190980934788 194.31396313516473, 2.6137776620995137 204.8187048939067, 0 212" stroke="#000000" stroke-width="4" fill="none"></path></g></g><g transform="translate(27 10.930754176897864) rotate(358.78112476486865 44 23)"><text x="44" y="32" font-family="Virgil, Segoe UI Emoji" font-size="36px" fill="#000000" text-anchor="middle" style="white-space: pre;" direction="ltr">Time</text></g></svg>