<svg width="1486" height="743" viewBox="0 0 393.171 196.585" xml:space="preserve" xmlns="http://www.w3.org/2000/svg"><path style="fill:#f55;stroke-width:.264583" d="M-50.78 250.412c-.087-.23-.16-1.837-.16-3.572v-3.153h2.646v-55.571l-7.739.07-7.739.07-.08 1.258-.081 1.256h-6.85V183.627h6.879v2.38h8.284c6.211 0 8.395.084 8.731.332.415.306.453 2.405.514 28.773l.066 28.443 1.256.08 1.257.08V246.334h15.346V130.71H-30.831v-7.144h6.879V125.947h8.334c7.982 0 8.357.023 8.864.53.526.525.529.881.529 58.87v58.34h2.352l.08 1.257.081 1.256h15.346l.068-27.715.067-27.715H9.121v-7.144H16V186.007h15.61V130.71h-1.185c-1.468 0-1.51-.122-1.405-4.1l.077-2.91 3.505-.074 3.506-.074v2.396h8.284c6.212 0 8.396.083 8.732.331.415.307.452 2.406.513 28.774l.066 28.442 1.257.08 1.257.081V186.008H69.18V183.626h6.88V186.007h12.964v-2.38h7.144v2.38H111.514V130.71h-2.38V123.567h6.879V125.947h15.61V70.678l-1.257-.08-1.257-.08v-7.145l2.91-.077c3.979-.105 4.102-.063 4.102 1.405v1.186h8.22c5.16 0 8.41.102 8.73.274.505.27.512 1.549.512 88.9v88.626h2.352l.081 1.257.08 1.257H171.444l.067-27.701.067-27.7-1.258-.081-1.258-.081-.073-3.506-.074-3.505H176.073v2.38h15.346V130.71H189.037V123.567h6.88V125.947h15.61V70.65h-1.186c-1.472 0-1.508-.109-1.404-4.233l.076-3.043 2.91-.077c3.979-.105 4.102-.063 4.102 1.405v1.186h8.22c5.16 0 8.41.102 8.73.274.505.27.512 1.548.512 88.885v88.612l1.257.08 1.257.081.08 1.261.082 1.26 7.592-.07 7.592-.07.067-27.715.068-27.715h-1.164c-.817 0-1.211-.125-1.324-.418-.088-.23-.16-1.838-.16-3.572v-3.154H255.976V186.007h15.611V130.71h-2.646V123.567H276.085V125.947h15.346V70.65h-1.162c-.816 0-1.21-.124-1.323-.418-.209-.545-.209-6.027 0-6.571.133-.348.668-.419 3.153-.419 1.646 0 3.181.072 3.412.16.293.113.418.508.418 1.324v1.162h12.936l.08-1.257.081-1.257 2.646-.08c1.455-.043 3.036-.007 3.513.08l.868.16-.074 3.492-.074 3.492-3.506.074-3.505.074v-2.661h-12.965v2.645H293.548v28.196c0 18.93-.09 28.364-.274 28.707-.262.49-.64.512-8.717.512h-8.443l-.08 1.257-.08 1.257-1.256.08-1.256.08-.067 28.627-.068 28.627-8.665.07-8.665.07v2.638H253.596v28.196c0 18.93-.09 28.364-.274 28.707-.262.49-.64.512-8.717.512h-8.443l-.08 1.257-.08 1.257-3.506.073-3.506.074v-7.13l1.257-.08 1.256-.081V68.135l-7.739-.07-7.739-.07v2.654h-2.643l-.068 28.642-.067 28.64-8.599.133-8.599.132-.08 1.257-.081 1.257h-2.352v28.39c0 21.728-.075 28.464-.318 28.707-.233.234-2.54.317-8.731.317h-8.414v2.646h-2.652l.01 28.489c.006 15.669-.086 28.585-.204 28.703-.119.119-4.021.247-8.673.285l-8.457.07-.08 1.257-.081 1.257h-6.85v-7.144H151.467V68.004h-15.346v2.645h-2.643l-.067 28.642-.068 28.64-8.665.07-8.665.07V130.71H113.632v28.39c0 21.728-.075 28.464-.318 28.707-.233.234-2.537.318-8.717.318h-8.399l-.08 1.256-.081 1.257-3.506.074-3.505.074v-2.661H76.06v2.645h-6.85l-.08-1.256-.082-1.257-6.401-.071-6.401-.07-.081 1.26-.081 1.262-3.506.074-3.506.074v-7.13l1.257-.081 1.257-.08v-55.299l-7.74-.07-7.738-.07v2.654H33.728v28.26c0 22.194-.071 28.355-.331 28.706-.296.399-1.214.453-8.798.513l-8.466.068-.08 1.257-.081 1.256H13.619v28.29c0 15.558-.072 28.476-.16 28.707-.142.37-1.16.418-8.732.418h-8.57v2.646h-3.412c-2.866 0-3.436-.067-3.571-.419-.089-.23-.161-1.837-.161-3.571v-3.154h2.646V128.056l-7.74.07-7.738.07-.08 1.257-.082 1.257h-2.352v58.42c0 45.085-.072 58.492-.317 58.737-.234.234-2.54.318-8.732.318h-8.413v2.646h-3.412c-2.866 0-3.437-.067-3.571-.419z" transform="translate(75.546 -57.95)"/></svg>