<?xml version="1.0" encoding="UTF-8" standalone="no"?>
<svg
   version="1.1"
   viewBox="0 0 937.5 618"
   width="1875"
   height="1236"
   id="svg80"
   sodipodi:docname="difference.svg"
   inkscape:version="1.1 (c4e8f9ed74, 2021-05-24)"
   xmlns:inkscape="http://www.inkscape.org/namespaces/inkscape"
   xmlns:sodipodi="http://sodipodi.sourceforge.net/DTD/sodipodi-0.dtd"
   xmlns="http://www.w3.org/2000/svg"
   xmlns:svg="http://www.w3.org/2000/svg">
  <sodipodi:namedview
     id="namedview82"
     pagecolor="#ffffff"
     bordercolor="#666666"
     borderopacity="1.0"
     inkscape:pageshadow="2"
     inkscape:pageopacity="0.0"
     inkscape:pagecheckerboard="0"
     showgrid="false"
     inkscape:zoom="0.62944984"
     inkscape:cx="937.32648"
     inkscape:cy="608.46786"
     inkscape:window-width="1911"
     inkscape:window-height="1043"
     inkscape:window-x="4"
     inkscape:window-y="16"
     inkscape:window-maximized="1"
     inkscape:current-layer="svg80" />
  <!-- svg-source:excalidraw -->
  <defs
     id="defs4">
    <style
       id="style2">
      @font-face {
        font-family: &quot;Virgil&quot;;
        src: url(&quot;https://excalidraw.com/Virgil.woff2&quot;);
      }
      @font-face {
        font-family: &quot;Cascadia&quot;;
        src: url(&quot;https://excalidraw.com/Cascadia.woff2&quot;);
      }
    </style>
    <filter
       style="color-interpolation-filters:sRGB;"
       inkscape:label="Invert"
       id="filter983"
       x="-0.012645422"
       y="-0.025947068"
       width="1.0252908"
       height="1.0518941">
      <feColorMatrix
         type="hueRotate"
         values="180"
         result="color1"
         id="feColorMatrix979" />
      <feColorMatrix
         values="-1 0 0 0 1 0 -1 0 0 1 0 0 -1 0 1 -0.21 -0.72 -0.07 2 0 "
         result="fbSourceGraphic"
         id="feColorMatrix981" />
      <feColorMatrix
         result="fbSourceGraphicAlpha"
         in="fbSourceGraphic"
         values="0 0 0 -1 0 0 0 0 -1 0 0 0 0 -1 0 0 0 0 1 0"
         id="feColorMatrix896" />
      <feColorMatrix
         id="feColorMatrix898"
         type="hueRotate"
         values="180"
         result="color1"
         in="fbSourceGraphic" />
      <feColorMatrix
         id="feColorMatrix900"
         values="-1 0 0 0 1 0 -1 0 0 1 0 0 -1 0 1 -0.21 -0.72 -0.07 2 0 "
         result="fbSourceGraphic" />
      <feColorMatrix
         result="fbSourceGraphicAlpha"
         in="fbSourceGraphic"
         values="0 0 0 -1 0 0 0 0 -1 0 0 0 0 -1 0 0 0 0 1 0"
         id="feColorMatrix1137" />
      <feColorMatrix
         id="feColorMatrix1139"
         type="hueRotate"
         values="180"
         result="color1"
         in="fbSourceGraphic" />
      <feColorMatrix
         id="feColorMatrix1141"
         values="-1 0 0 0 1 0 -1 0 0 1 0 0 -1 0 1 -0.21 -0.72 -0.07 2 0 "
         result="color2" />
    </filter>
    <filter
       style="color-interpolation-filters:sRGB;"
       inkscape:label="Invert"
       id="filter989"
       x="-0.32451373"
       y="-0.025920166"
       width="1.6492686"
       height="1.0518403">
      <feColorMatrix
         type="hueRotate"
         values="180"
         result="color1"
         id="feColorMatrix985" />
      <feColorMatrix
         values="-1 0 0 0 1 0 -1 0 0 1 0 0 -1 0 1 -0.21 -0.72 -0.07 2 0 "
         result="fbSourceGraphic"
         id="feColorMatrix987" />
      <feColorMatrix
         result="fbSourceGraphicAlpha"
         in="fbSourceGraphic"
         values="0 0 0 -1 0 0 0 0 -1 0 0 0 0 -1 0 0 0 0 1 0"
         id="feColorMatrix902" />
      <feColorMatrix
         id="feColorMatrix904"
         type="hueRotate"
         values="180"
         result="color1"
         in="fbSourceGraphic" />
      <feColorMatrix
         id="feColorMatrix906"
         values="-1 0 0 0 1 0 -1 0 0 1 0 0 -1 0 1 -0.21 -0.72 -0.07 2 0 "
         result="fbSourceGraphic" />
      <feColorMatrix
         result="fbSourceGraphicAlpha"
         in="fbSourceGraphic"
         values="0 0 0 -1 0 0 0 0 -1 0 0 0 0 -1 0 0 0 0 1 0"
         id="feColorMatrix1143" />
      <feColorMatrix
         id="feColorMatrix1145"
         type="hueRotate"
         values="180"
         result="color1"
         in="fbSourceGraphic" />
      <feColorMatrix
         id="feColorMatrix1147"
         values="-1 0 0 0 1 0 -1 0 0 1 0 0 -1 0 1 -0.21 -0.72 -0.07 2 0 "
         result="color2" />
    </filter>
    <filter
       style="color-interpolation-filters:sRGB;"
       inkscape:label="Invert"
       id="filter995"
       x="-0.010945709"
       y="-0.033852404"
       width="1.0218914"
       height="1.0677048">
      <feColorMatrix
         type="hueRotate"
         values="180"
         result="color1"
         id="feColorMatrix991" />
      <feColorMatrix
         values="-1 0 0 0 1 0 -1 0 0 1 0 0 -1 0 1 -0.21 -0.72 -0.07 2 0 "
         result="fbSourceGraphic"
         id="feColorMatrix993" />
      <feColorMatrix
         result="fbSourceGraphicAlpha"
         in="fbSourceGraphic"
         values="0 0 0 -1 0 0 0 0 -1 0 0 0 0 -1 0 0 0 0 1 0"
         id="feColorMatrix908" />
      <feColorMatrix
         id="feColorMatrix910"
         type="hueRotate"
         values="180"
         result="color1"
         in="fbSourceGraphic" />
      <feColorMatrix
         id="feColorMatrix912"
         values="-1 0 0 0 1 0 -1 0 0 1 0 0 -1 0 1 -0.21 -0.72 -0.07 2 0 "
         result="fbSourceGraphic" />
      <feColorMatrix
         result="fbSourceGraphicAlpha"
         in="fbSourceGraphic"
         values="0 0 0 -1 0 0 0 0 -1 0 0 0 0 -1 0 0 0 0 1 0"
         id="feColorMatrix1149" />
      <feColorMatrix
         id="feColorMatrix1151"
         type="hueRotate"
         values="180"
         result="color1"
         in="fbSourceGraphic" />
      <feColorMatrix
         id="feColorMatrix1153"
         values="-1 0 0 0 1 0 -1 0 0 1 0 0 -1 0 1 -0.21 -0.72 -0.07 2 0 "
         result="color2" />
    </filter>
    <filter
       style="color-interpolation-filters:sRGB;"
       inkscape:label="Invert"
       id="filter1001"
       x="-0.01146526"
       y="-0.03511236"
       width="1.0229305"
       height="1.0702247">
      <feColorMatrix
         type="hueRotate"
         values="180"
         result="color1"
         id="feColorMatrix997" />
      <feColorMatrix
         values="-1 0 0 0 1 0 -1 0 0 1 0 0 -1 0 1 -0.21 -0.72 -0.07 2 0 "
         result="fbSourceGraphic"
         id="feColorMatrix999" />
      <feColorMatrix
         result="fbSourceGraphicAlpha"
         in="fbSourceGraphic"
         values="0 0 0 -1 0 0 0 0 -1 0 0 0 0 -1 0 0 0 0 1 0"
         id="feColorMatrix914" />
      <feColorMatrix
         id="feColorMatrix916"
         type="hueRotate"
         values="180"
         result="color1"
         in="fbSourceGraphic" />
      <feColorMatrix
         id="feColorMatrix918"
         values="-1 0 0 0 1 0 -1 0 0 1 0 0 -1 0 1 -0.21 -0.72 -0.07 2 0 "
         result="fbSourceGraphic" />
      <feColorMatrix
         result="fbSourceGraphicAlpha"
         in="fbSourceGraphic"
         values="0 0 0 -1 0 0 0 0 -1 0 0 0 0 -1 0 0 0 0 1 0"
         id="feColorMatrix1155" />
      <feColorMatrix
         id="feColorMatrix1157"
         type="hueRotate"
         values="180"
         result="color1"
         in="fbSourceGraphic" />
      <feColorMatrix
         id="feColorMatrix1159"
         values="-1 0 0 0 1 0 -1 0 0 1 0 0 -1 0 1 -0.21 -0.72 -0.07 2 0 "
         result="color2" />
    </filter>
    <filter
       style="color-interpolation-filters:sRGB;"
       inkscape:label="Invert"
       id="filter1007"
       x="-0.22460933"
       y="-0.017550018"
       width="1.4493118"
       height="1.0351">
      <feColorMatrix
         type="hueRotate"
         values="180"
         result="color1"
         id="feColorMatrix1003" />
      <feColorMatrix
         values="-1 0 0 0 1 0 -1 0 0 1 0 0 -1 0 1 -0.21 -0.72 -0.07 2 0 "
         result="fbSourceGraphic"
         id="feColorMatrix1005" />
      <feColorMatrix
         result="fbSourceGraphicAlpha"
         in="fbSourceGraphic"
         values="0 0 0 -1 0 0 0 0 -1 0 0 0 0 -1 0 0 0 0 1 0"
         id="feColorMatrix920" />
      <feColorMatrix
         id="feColorMatrix922"
         type="hueRotate"
         values="180"
         result="color1"
         in="fbSourceGraphic" />
      <feColorMatrix
         id="feColorMatrix924"
         values="-1 0 0 0 1 0 -1 0 0 1 0 0 -1 0 1 -0.21 -0.72 -0.07 2 0 "
         result="fbSourceGraphic" />
      <feColorMatrix
         result="fbSourceGraphicAlpha"
         in="fbSourceGraphic"
         values="0 0 0 -1 0 0 0 0 -1 0 0 0 0 -1 0 0 0 0 1 0"
         id="feColorMatrix1161" />
      <feColorMatrix
         id="feColorMatrix1163"
         type="hueRotate"
         values="180"
         result="color1"
         in="fbSourceGraphic" />
      <feColorMatrix
         id="feColorMatrix1165"
         values="-1 0 0 0 1 0 -1 0 0 1 0 0 -1 0 1 -0.21 -0.72 -0.07 2 0 "
         result="color2" />
    </filter>
    <filter
       style="color-interpolation-filters:sRGB;"
       inkscape:label="Invert"
       id="filter1013"
       x="-0.011576754"
       y="-0.022747953"
       width="1.0231535"
       height="1.0454959">
      <feColorMatrix
         type="hueRotate"
         values="180"
         result="color1"
         id="feColorMatrix1009" />
      <feColorMatrix
         values="-1 0 0 0 1 0 -1 0 0 1 0 0 -1 0 1 -0.21 -0.72 -0.07 2 0 "
         result="fbSourceGraphic"
         id="feColorMatrix1011" />
      <feColorMatrix
         result="fbSourceGraphicAlpha"
         in="fbSourceGraphic"
         values="0 0 0 -1 0 0 0 0 -1 0 0 0 0 -1 0 0 0 0 1 0"
         id="feColorMatrix926" />
      <feColorMatrix
         id="feColorMatrix928"
         type="hueRotate"
         values="180"
         result="color1"
         in="fbSourceGraphic" />
      <feColorMatrix
         id="feColorMatrix930"
         values="-1 0 0 0 1 0 -1 0 0 1 0 0 -1 0 1 -0.21 -0.72 -0.07 2 0 "
         result="fbSourceGraphic" />
      <feColorMatrix
         result="fbSourceGraphicAlpha"
         in="fbSourceGraphic"
         values="0 0 0 -1 0 0 0 0 -1 0 0 0 0 -1 0 0 0 0 1 0"
         id="feColorMatrix1167" />
      <feColorMatrix
         id="feColorMatrix1169"
         type="hueRotate"
         values="180"
         result="color1"
         in="fbSourceGraphic" />
      <feColorMatrix
         id="feColorMatrix1171"
         values="-1 0 0 0 1 0 -1 0 0 1 0 0 -1 0 1 -0.21 -0.72 -0.07 2 0 "
         result="color2" />
    </filter>
    <filter
       style="color-interpolation-filters:sRGB;"
       inkscape:label="Invert"
       id="filter1019"
       x="-0.11792453"
       y="-0.0042775259"
       width="1.2358491"
       height="1.0085551">
      <feColorMatrix
         type="hueRotate"
         values="180"
         result="color1"
         id="feColorMatrix1015" />
      <feColorMatrix
         values="-1 0 0 0 1 0 -1 0 0 1 0 0 -1 0 1 -0.21 -0.72 -0.07 2 0 "
         result="fbSourceGraphic"
         id="feColorMatrix1017" />
      <feColorMatrix
         result="fbSourceGraphicAlpha"
         in="fbSourceGraphic"
         values="0 0 0 -1 0 0 0 0 -1 0 0 0 0 -1 0 0 0 0 1 0"
         id="feColorMatrix932" />
      <feColorMatrix
         id="feColorMatrix934"
         type="hueRotate"
         values="180"
         result="color1"
         in="fbSourceGraphic" />
      <feColorMatrix
         id="feColorMatrix936"
         values="-1 0 0 0 1 0 -1 0 0 1 0 0 -1 0 1 -0.21 -0.72 -0.07 2 0 "
         result="fbSourceGraphic" />
      <feColorMatrix
         result="fbSourceGraphicAlpha"
         in="fbSourceGraphic"
         values="0 0 0 -1 0 0 0 0 -1 0 0 0 0 -1 0 0 0 0 1 0"
         id="feColorMatrix1173" />
      <feColorMatrix
         id="feColorMatrix1175"
         type="hueRotate"
         values="180"
         result="color1"
         in="fbSourceGraphic" />
      <feColorMatrix
         id="feColorMatrix1177"
         values="-1 0 0 0 1 0 -1 0 0 1 0 0 -1 0 1 -0.21 -0.72 -0.07 2 0 "
         result="color2" />
    </filter>
    <filter
       style="color-interpolation-filters:sRGB;"
       inkscape:label="Invert"
       id="filter1025"
       x="-0.0017909164"
       y="-0.0018324719"
       width="1.0035833"
       height="1.0036656">
      <feColorMatrix
         type="hueRotate"
         values="180"
         result="color1"
         id="feColorMatrix1021" />
      <feColorMatrix
         values="-1 0 0 0 1 0 -1 0 0 1 0 0 -1 0 1 -0.21 -0.72 -0.07 2 0 "
         result="fbSourceGraphic"
         id="feColorMatrix1023" />
      <feColorMatrix
         result="fbSourceGraphicAlpha"
         in="fbSourceGraphic"
         values="0 0 0 -1 0 0 0 0 -1 0 0 0 0 -1 0 0 0 0 1 0"
         id="feColorMatrix938" />
      <feColorMatrix
         id="feColorMatrix940"
         type="hueRotate"
         values="180"
         result="color1"
         in="fbSourceGraphic" />
      <feColorMatrix
         id="feColorMatrix942"
         values="-1 0 0 0 1 0 -1 0 0 1 0 0 -1 0 1 -0.21 -0.72 -0.07 2 0 "
         result="fbSourceGraphic" />
      <feColorMatrix
         result="fbSourceGraphicAlpha"
         in="fbSourceGraphic"
         values="0 0 0 -1 0 0 0 0 -1 0 0 0 0 -1 0 0 0 0 1 0"
         id="feColorMatrix1179" />
      <feColorMatrix
         id="feColorMatrix1181"
         type="hueRotate"
         values="180"
         result="color1"
         in="fbSourceGraphic" />
      <feColorMatrix
         id="feColorMatrix1183"
         values="-1 0 0 0 1 0 -1 0 0 1 0 0 -1 0 1 -0.21 -0.72 -0.07 2 0 "
         result="color2" />
    </filter>
    <filter
       style="color-interpolation-filters:sRGB;"
       inkscape:label="Invert"
       id="filter1031"
       x="-0.0053844497"
       y="-0.28418526"
       width="1.0107689"
       height="1.5682621">
      <feColorMatrix
         type="hueRotate"
         values="180"
         result="color1"
         id="feColorMatrix1027" />
      <feColorMatrix
         values="-1 0 0 0 1 0 -1 0 0 1 0 0 -1 0 1 -0.21 -0.72 -0.07 2 0 "
         result="fbSourceGraphic"
         id="feColorMatrix1029" />
      <feColorMatrix
         result="fbSourceGraphicAlpha"
         in="fbSourceGraphic"
         values="0 0 0 -1 0 0 0 0 -1 0 0 0 0 -1 0 0 0 0 1 0"
         id="feColorMatrix944" />
      <feColorMatrix
         id="feColorMatrix946"
         type="hueRotate"
         values="180"
         result="color1"
         in="fbSourceGraphic" />
      <feColorMatrix
         id="feColorMatrix948"
         values="-1 0 0 0 1 0 -1 0 0 1 0 0 -1 0 1 -0.21 -0.72 -0.07 2 0 "
         result="fbSourceGraphic" />
      <feColorMatrix
         result="fbSourceGraphicAlpha"
         in="fbSourceGraphic"
         values="0 0 0 -1 0 0 0 0 -1 0 0 0 0 -1 0 0 0 0 1 0"
         id="feColorMatrix1185" />
      <feColorMatrix
         id="feColorMatrix1187"
         type="hueRotate"
         values="180"
         result="color1"
         in="fbSourceGraphic" />
      <feColorMatrix
         id="feColorMatrix1189"
         values="-1 0 0 0 1 0 -1 0 0 1 0 0 -1 0 1 -0.21 -0.72 -0.07 2 0 "
         result="color2" />
    </filter>
    <filter
       style="color-interpolation-filters:sRGB;"
       inkscape:label="Invert"
       id="filter1037"
       x="-0.013347571"
       y="-0.0023183567"
       width="1.0266951"
       height="1.0046367">
      <feColorMatrix
         type="hueRotate"
         values="180"
         result="color1"
         id="feColorMatrix1033" />
      <feColorMatrix
         values="-1 0 0 0 1 0 -1 0 0 1 0 0 -1 0 1 -0.21 -0.72 -0.07 2 0 "
         result="fbSourceGraphic"
         id="feColorMatrix1035" />
      <feColorMatrix
         result="fbSourceGraphicAlpha"
         in="fbSourceGraphic"
         values="0 0 0 -1 0 0 0 0 -1 0 0 0 0 -1 0 0 0 0 1 0"
         id="feColorMatrix950" />
      <feColorMatrix
         id="feColorMatrix952"
         type="hueRotate"
         values="180"
         result="color1"
         in="fbSourceGraphic" />
      <feColorMatrix
         id="feColorMatrix954"
         values="-1 0 0 0 1 0 -1 0 0 1 0 0 -1 0 1 -0.21 -0.72 -0.07 2 0 "
         result="fbSourceGraphic" />
      <feColorMatrix
         result="fbSourceGraphicAlpha"
         in="fbSourceGraphic"
         values="0 0 0 -1 0 0 0 0 -1 0 0 0 0 -1 0 0 0 0 1 0"
         id="feColorMatrix1191" />
      <feColorMatrix
         id="feColorMatrix1193"
         type="hueRotate"
         values="180"
         result="color1"
         in="fbSourceGraphic" />
      <feColorMatrix
         id="feColorMatrix1195"
         values="-1 0 0 0 1 0 -1 0 0 1 0 0 -1 0 1 -0.21 -0.72 -0.07 2 0 "
         result="color2" />
    </filter>
    <filter
       style="color-interpolation-filters:sRGB;"
       inkscape:label="Invert"
       id="filter1043"
       x="-0.0046715874"
       y="-0.0022302511"
       width="1.0093432"
       height="1.0044605">
      <feColorMatrix
         type="hueRotate"
         values="180"
         result="color1"
         id="feColorMatrix1039" />
      <feColorMatrix
         values="-1 0 0 0 1 0 -1 0 0 1 0 0 -1 0 1 -0.21 -0.72 -0.07 2 0 "
         result="fbSourceGraphic"
         id="feColorMatrix1041" />
      <feColorMatrix
         result="fbSourceGraphicAlpha"
         in="fbSourceGraphic"
         values="0 0 0 -1 0 0 0 0 -1 0 0 0 0 -1 0 0 0 0 1 0"
         id="feColorMatrix956" />
      <feColorMatrix
         id="feColorMatrix958"
         type="hueRotate"
         values="180"
         result="color1"
         in="fbSourceGraphic" />
      <feColorMatrix
         id="feColorMatrix960"
         values="-1 0 0 0 1 0 -1 0 0 1 0 0 -1 0 1 -0.21 -0.72 -0.07 2 0 "
         result="fbSourceGraphic" />
      <feColorMatrix
         result="fbSourceGraphicAlpha"
         in="fbSourceGraphic"
         values="0 0 0 -1 0 0 0 0 -1 0 0 0 0 -1 0 0 0 0 1 0"
         id="feColorMatrix1197" />
      <feColorMatrix
         id="feColorMatrix1199"
         type="hueRotate"
         values="180"
         result="color1"
         in="fbSourceGraphic" />
      <feColorMatrix
         id="feColorMatrix1201"
         values="-1 0 0 0 1 0 -1 0 0 1 0 0 -1 0 1 -0.21 -0.72 -0.07 2 0 "
         result="color2" />
    </filter>
    <filter
       style="color-interpolation-filters:sRGB;"
       inkscape:label="Invert"
       id="filter1049"
       x="-0.00054397235"
       y="-0.00083076514"
       width="1.0010879"
       height="1.0016615">
      <feColorMatrix
         type="hueRotate"
         values="180"
         result="color1"
         id="feColorMatrix1045" />
      <feColorMatrix
         values="-1 0 0 0 1 0 -1 0 0 1 0 0 -1 0 1 -0.21 -0.72 -0.07 2 0 "
         result="fbSourceGraphic"
         id="feColorMatrix1047" />
      <feColorMatrix
         result="fbSourceGraphicAlpha"
         in="fbSourceGraphic"
         values="0 0 0 -1 0 0 0 0 -1 0 0 0 0 -1 0 0 0 0 1 0"
         id="feColorMatrix962" />
      <feColorMatrix
         id="feColorMatrix964"
         type="hueRotate"
         values="180"
         result="color1"
         in="fbSourceGraphic" />
      <feColorMatrix
         id="feColorMatrix966"
         values="-1 0 0 0 1 0 -1 0 0 1 0 0 -1 0 1 -0.21 -0.72 -0.07 2 0 "
         result="fbSourceGraphic" />
      <feColorMatrix
         result="fbSourceGraphicAlpha"
         in="fbSourceGraphic"
         values="0 0 0 -1 0 0 0 0 -1 0 0 0 0 -1 0 0 0 0 1 0"
         id="feColorMatrix1203" />
      <feColorMatrix
         id="feColorMatrix1205"
         type="hueRotate"
         values="180"
         result="color1"
         in="fbSourceGraphic" />
      <feColorMatrix
         id="feColorMatrix1207"
         values="-1 0 0 0 1 0 -1 0 0 1 0 0 -1 0 1 -0.21 -0.72 -0.07 2 0 "
         result="color2" />
    </filter>
    <filter
       style="color-interpolation-filters:sRGB;"
       inkscape:label="Invert"
       id="filter1055"
       x="-0.0010854254"
       y="-0.0010584857"
       width="1.0021698"
       height="1.0021179">
      <feColorMatrix
         type="hueRotate"
         values="180"
         result="color1"
         id="feColorMatrix1051" />
      <feColorMatrix
         values="-1 0 0 0 1 0 -1 0 0 1 0 0 -1 0 1 -0.21 -0.72 -0.07 2 0 "
         result="fbSourceGraphic"
         id="feColorMatrix1053" />
      <feColorMatrix
         result="fbSourceGraphicAlpha"
         in="fbSourceGraphic"
         values="0 0 0 -1 0 0 0 0 -1 0 0 0 0 -1 0 0 0 0 1 0"
         id="feColorMatrix968" />
      <feColorMatrix
         id="feColorMatrix970"
         type="hueRotate"
         values="180"
         result="color1"
         in="fbSourceGraphic" />
      <feColorMatrix
         id="feColorMatrix972"
         values="-1 0 0 0 1 0 -1 0 0 1 0 0 -1 0 1 -0.21 -0.72 -0.07 2 0 "
         result="fbSourceGraphic" />
      <feColorMatrix
         result="fbSourceGraphicAlpha"
         in="fbSourceGraphic"
         values="0 0 0 -1 0 0 0 0 -1 0 0 0 0 -1 0 0 0 0 1 0"
         id="feColorMatrix1209" />
      <feColorMatrix
         id="feColorMatrix1211"
         type="hueRotate"
         values="180"
         result="color1"
         in="fbSourceGraphic" />
      <feColorMatrix
         id="feColorMatrix1213"
         values="-1 0 0 0 1 0 -1 0 0 1 0 0 -1 0 1 -0.21 -0.72 -0.07 2 0 "
         result="color2" />
    </filter>
    <filter
       style="color-interpolation-filters:sRGB;"
       inkscape:label="Invert"
       id="filter1129"
       x="-6.1048195e-09"
       y="-2.2087721e-09"
       width="1"
       height="1">
      <feColorMatrix
         type="hueRotate"
         values="180"
         result="color1"
         id="feColorMatrix1125" />
      <feColorMatrix
         values="-1 0 0 0 1 0 -1 0 0 1 0 0 -1 0 1 -0.21 -0.72 -0.07 2 0 "
         result="color2"
         id="feColorMatrix1127" />
    </filter>
    <filter
       style="color-interpolation-filters:sRGB;"
       inkscape:label="Invert"
       id="filter1135"
       x="0"
       y="0"
       width="1"
       height="1">
      <feColorMatrix
         type="hueRotate"
         values="180"
         result="color1"
         id="feColorMatrix1131" />
      <feColorMatrix
         values="-1 0 0 0 1 0 -1 0 0 1 0 0 -1 0 1 -0.21 -0.72 -0.07 2 0 "
         result="color2"
         id="feColorMatrix1133" />
    </filter>
  </defs>
  <g
     stroke-linecap="round"
     transform="translate(87 86.5) rotate(0 230 236.25)"
     id="g10"
     style="filter:url(#filter1055)">
    <path
       d="M322.84 20.8 C341.33 25.2, 359.18 39.97, 374.64 52.58 C390.09 65.19, 403.93 80.39, 415.56 96.43 C427.19 112.47, 437.13 130.21, 444.4 148.82 C451.66 167.43, 457.01 188.03, 459.12 208.09 C461.24 228.15, 459.92 249.3, 457.06 269.16 C454.2 289.01, 449.47 308.66, 441.97 327.23 C434.47 345.79, 423.89 364.73, 412.06 380.54 C400.23 396.36, 386.37 409.8, 370.98 422.11 C355.59 434.42, 337.65 446.24, 319.72 454.38 C301.8 462.52, 282.85 468.15, 263.44 470.93 C244.03 473.71, 222.65 473.32, 203.27 471.05 C183.89 468.77, 165.1 464.47, 147.14 457.28 C129.18 450.1, 111.34 439.74, 95.5 427.92 C79.67 416.1, 64.73 402.11, 52.14 386.38 C39.55 370.65, 28 352.1, 19.95 333.55 C11.89 315, 7.05 294.74, 3.8 275.1 C0.55 255.46, -1.16 235.51, 0.44 215.69 C2.04 195.88, 6.63 175.17, 13.41 156.21 C20.19 137.26, 30.03 118.69, 41.1 101.98 C52.18 85.26, 65.02 69.11, 79.85 55.93 C94.67 42.74, 112.11 31.4, 130.03 22.87 C147.95 14.33, 168.18 8.39, 187.34 4.74 C206.5 1.09, 225.71 -0.22, 244.98 0.95 C264.25 2.12, 288.28 7.77, 302.97 11.75 C317.66 15.73, 326.88 21.1, 333.11 24.82 C339.33 28.53, 342.09 30.3, 340.33 34.03 M270.4 3.34 C289.32 3.06, 309.09 13.01, 327.01 21.58 C344.93 30.15, 363 41.99, 377.9 54.77 C392.8 67.54, 405.12 81.87, 416.4 98.24 C427.68 114.62, 438.37 134.23, 445.59 153.02 C452.8 171.82, 457.81 191.22, 459.69 211.03 C461.58 230.84, 459.91 251.85, 456.9 271.88 C453.9 291.91, 449.42 312.77, 441.64 331.19 C433.87 349.61, 422.5 366.58, 410.25 382.39 C398 398.19, 383.96 413.66, 368.14 426.02 C352.32 438.37, 333.28 448.94, 315.34 456.51 C297.41 464.07, 279.67 469.15, 260.53 471.41 C241.39 473.68, 220.07 473.02, 200.51 470.09 C180.95 467.15, 161.1 461.44, 143.17 453.8 C125.23 446.17, 108.49 435.97, 92.89 424.29 C77.28 412.61, 62.03 399.41, 49.55 383.72 C37.06 368.02, 25.57 348.7, 17.97 330.11 C10.37 311.53, 6.97 292.28, 3.95 272.23 C0.92 252.19, -2.3 229.96, -0.2 209.84 C1.9 189.73, 9.42 170.19, 16.54 151.57 C23.66 132.94, 31.15 114.36, 42.52 98.11 C53.89 81.87, 69.56 67.06, 84.75 54.09 C99.94 41.13, 116.2 28.89, 133.67 20.33 C151.14 11.76, 170.43 5.83, 189.58 2.7 C208.72 -0.43, 234.96 1.22, 248.52 1.56 C262.07 1.89, 267.29 3.46, 270.93 4.69 C274.56 5.92, 271.37 5.21, 270.32 8.94"
       stroke="#000000"
       stroke-width="1"
       fill="none"
       id="path8" />
  </g>
  <g
     stroke-linecap="round"
     transform="translate(10 10) rotate(0 458.75 299)"
     id="g14"
     style="filter:url(#filter1049)">
    <path
       d="M0.46 0.07 C188.75 -2.43, 377.33 -1.8, 917.11 0.08 M0.35 0.07 C346.64 0.28, 694.46 0.5, 917.35 -0.13 M916.72 -0.21 C916.9 230.71, 917.78 462.46, 918.07 598.54 M917.51 -0.31 C915.52 206.33, 915.08 412.45, 917.45 597.84 M917.93 598.06 C660.97 599.25, 402.56 599.95, -0.69 597.28 M917.89 598.26 C581.11 601.2, 244.13 600.77, -0.34 598.02 M0.12 597.54 C-1.98 393.41, -0.89 189.6, -0.14 -0.29 M-0.03 597.92 C2.62 397.72, 2.4 197.85, -0.31 0.04"
       stroke="#000000"
       stroke-width="1"
       fill="none"
       id="path12" />
  </g>
  <g
     stroke-linecap="round"
     id="g20"
     style="filter:url(#filter1043)">
    <g
       transform="translate(211.5 429) rotate(0 52.648520638309435 -111.91442609541122)"
       id="g18">
      <path
         d="M-0.87 0.18 C16.35 -37.27, 86.39 -186.92, 103.81 -224.01 M0.88 -0.77 C18.45 -38.16, 88.62 -185.73, 106.16 -223"
         stroke="#000000"
         stroke-width="1"
         fill="none"
         id="path16" />
    </g>
  </g>
  <g
     stroke-linecap="round"
     id="g26"
     style="filter:url(#filter1037)">
    <g
       transform="translate(317 209) rotate(0 18.340717005394367 107.92359455168244)"
       id="g24">
      <path
         d="M-0.39 0.75 C5.44 36.55, 28.73 178.96, 34.93 214.49 M1.6 0.09 C7.8 36.08, 31.27 179.99, 37.07 215.76"
         stroke="#000000"
         stroke-width="1"
         fill="none"
         id="path22" />
    </g>
  </g>
  <g
     stroke-linecap="round"
     id="g32"
     style="filter:url(#filter1031)">
    <g
       transform="translate(255 313) rotate(0 45.31234996628018 -0.13161373188705738)"
       id="g30">
      <path
         d="M0.22 0.23 C15.65 0.23, 76.55 0.59, 91.74 0.75 M-1.12 -0.7 C14.29 -1.1, 75.86 -1.01, 91.18 -0.98"
         stroke="#000000"
         stroke-width="1"
         fill="none"
         id="path28" />
    </g>
  </g>
  <g
     stroke-linecap="round"
     transform="translate(452 139.49999999999983) rotate(0 138.75 136.00000000000009)"
     id="g36"
     style="filter:url(#filter1025)">
    <path
       d="M94.33 7.43 C107.38 0.83, 126.17 -1.02, 141.57 -0.9 C156.97 -0.78, 172.47 2.85, 186.74 8.14 C201.01 13.43, 215.31 21.33, 227.16 30.84 C239.02 40.34, 249.88 52.56, 257.86 65.17 C265.83 77.78, 271.92 91.94, 275.04 106.51 C278.17 121.08, 278.56 137.42, 276.6 152.56 C274.64 167.7, 270.26 184.07, 263.29 197.34 C256.32 210.62, 245.57 221.79, 234.8 232.22 C224.02 242.65, 212.13 253.38, 198.63 259.92 C185.12 266.46, 169 270.13, 153.78 271.48 C138.56 272.83, 122.3 271.37, 107.3 268.02 C92.29 264.67, 76.68 259.45, 63.74 251.36 C50.8 243.27, 39.11 231.25, 29.66 219.48 C20.21 207.71, 11.99 194.82, 7.04 180.73 C2.1 166.64, -0.24 150.16, -0.02 134.94 C0.2 119.71, 3.22 103.59, 8.36 89.38 C13.51 75.17, 21.42 61.29, 30.86 49.67 C40.31 38.06, 53.35 27.23, 65.04 19.69 C76.72 12.15, 94.02 6.73, 100.97 4.45 C107.92 2.17, 106 3.84, 106.75 6.03 M88.9 8.27 C101.96 0.94, 120.31 0.35, 135.69 -0.11 C151.07 -0.57, 166.86 1.11, 181.19 5.53 C195.52 9.96, 209.54 17.53, 221.69 26.43 C233.83 35.33, 245.33 46.27, 254.04 58.93 C262.75 71.58, 269.87 87.6, 273.95 102.34 C278.02 117.08, 279.63 132.73, 278.5 147.37 C277.37 162.02, 273.41 176.42, 267.16 190.22 C260.91 204.01, 251.65 219.08, 241.01 230.14 C230.37 241.2, 217.08 249.83, 203.3 256.59 C189.52 263.36, 173.6 268.62, 158.34 270.74 C143.09 272.87, 126.63 272.14, 111.76 269.34 C96.89 266.55, 82.23 261.6, 69.11 253.98 C55.99 246.35, 42.74 234.87, 33.05 223.59 C23.35 212.32, 16.42 200.31, 10.93 186.33 C5.45 172.35, 1.15 154.57, 0.15 139.73 C-0.85 124.88, 0.29 111.16, 4.94 97.27 C9.59 83.37, 18.71 68.44, 28.05 56.38 C37.39 44.31, 50.73 32.89, 60.97 24.9 C71.22 16.91, 84.71 10.63, 89.52 8.44 C94.33 6.25, 88.94 9.42, 89.84 11.76"
       stroke="#000000"
       stroke-width="1"
       fill="none"
       id="path34" />
  </g>
  <g
     stroke-linecap="round"
     id="g42"
     style="filter:url(#filter1019)">
    <g
       transform="translate(564.5 192) rotate(0 1.3214821945875883 57.56701493747531)"
       id="g40">
      <path
         d="M-0.8 -0.88 C-0.17 18.29, 2.65 96.8, 3.44 116.01 M0.99 1.27 C1.44 20.04, 1.84 95.41, 2.2 114.42"
         stroke="#000000"
         stroke-width="1"
         fill="none"
         id="path38" />
    </g>
  </g>
  <g
     stroke-linecap="round"
     id="g48"
     style="filter:url(#filter1013)">
    <g
       transform="translate(564.5 196.5) rotate(0 21.325378097221233 10.860249930806475)"
       id="g46">
      <path
         d="M-0.27 0.6 C6.82 4.19, 35.94 18.5, 42.92 21.85 M1.8 -0.13 C8.76 3.1, 35.97 16.51, 42.45 20.18"
         stroke="#000000"
         stroke-width="1"
         fill="none"
         id="path44" />
    </g>
  </g>
  <g
     stroke-linecap="round"
     id="g54"
     style="filter:url(#filter1007)">
    <g
       transform="translate(606.5 217.5) rotate(0 0.5645419374359335 13.237424370450896)"
       id="g52">
      <path
         d="M-0.38 0.03 C-0.54 4.69, -0.57 22.92, -0.54 27.48 M1.62 -1.01 C1.79 3.34, 1.51 21.23, 1.63 25.61"
         stroke="#000000"
         stroke-width="1"
         fill="none"
         id="path50" />
    </g>
  </g>
  <g
     stroke-linecap="round"
     id="g60"
     style="filter:url(#filter1001)">
    <g
       transform="translate(607 244.5) rotate(0 -20.265151762068285 6.60929320245981)"
       id="g58">
      <path
         d="M-0.44 0.35 C-7.19 2.25, -34.36 10.05, -40.91 12.13 M1.54 -0.51 C-5.38 1.53, -35.13 11.83, -42.07 13.73"
         stroke="#000000"
         stroke-width="1"
         fill="none"
         id="path56" />
    </g>
  </g>
  <g
     stroke-linecap="round"
     id="g66"
     style="filter:url(#filter995)">
    <g
       transform="translate(568 256.5) rotate(0 21.372682676576062 8.11548100385815)"
       id="g64">
      <path
         d="M0 1.17 C7.44 3.76, 36.95 13.13, 44.21 15.5 M-1.47 0.73 C5.92 3.02, 36.26 11.77, 43.64 13.9"
         stroke="#000000"
         stroke-width="1"
         fill="none"
         id="path62" />
    </g>
  </g>
  <g
     stroke-linecap="round"
     id="g72"
     style="filter:url(#filter989)">
    <g
       transform="translate(611.5 271) rotate(0 -0.7220264857783718 9.613320121169096)"
       id="g70">
      <path
         d="M-0.02 0.67 C0.14 3.52, -0.03 15.11, 0.03 18.16 M-1.49 -0.03 C-1.36 3.47, -0.89 15.87, -0.64 19.26"
         stroke="#000000"
         stroke-width="1"
         fill="none"
         id="path68" />
    </g>
  </g>
  <g
     stroke-linecap="round"
     id="g78"
     style="filter:url(#filter983)">
    <g
       transform="translate(611 290) rotate(0 -19.728606473281957 8.365976166427117)"
       id="g76">
      <path
         d="M0.04 -0.15 C-6.61 2.52, -33.18 13.83, -39.5 16.82 M-1.39 -1.27 C-7.71 1.47, -31.16 14.58, -37.32 18"
         stroke="#000000"
         stroke-width="1"
         fill="none"
         id="path74" />
    </g>
  </g>
  <path
     style="fill:#e6e6e6;stroke:#000000;stroke-width:0;filter:url(#filter1135)"
     d="m 596.00504,1114.3565 c -62.00041,-6.76 -125.08844,-26.5889 -176.62468,-55.5141 C 367.07977,1029.4881 310.35254,983.29759 279.50533,944.94808 235.02486,889.6496 203.56805,824.04789 190.70198,759.75287 c -6.70122,-33.48771 -14.13473,-86.82727 -15.3269,-109.97909 -1.65884,-32.21418 3.76724,-82.93895 12.23592,-114.38561 3.73914,-13.88449 25.43532,-72.1103 36.49121,-97.93107 8.61099,-20.11077 25.93679,-49.73558 44.93024,-76.82471 27.70508,-39.51397 99.66184,-103.74086 146.48317,-130.74738 42.13,-24.30056 111.07682,-44.97955 173.09363,-51.91539 37.59793,-4.20487 127.95571,0.90071 126.81565,7.1656 -0.1537,0.84465 -0.76637,2.78682 -1.36149,4.31594 -1.72137,4.42299 1.72554,3.21859 3.79643,-1.32652 2.27637,-4.99607 2.93188,-4.92099 42.32782,4.84809 26.9186,6.67506 54.17582,16.42762 57.1928,20.46344 0.87378,1.16885 4.44833,3.02669 7.94345,4.12852 8.52023,2.686 27.20134,13.70433 28.36164,16.72803 0.51116,1.33206 0.51788,3.4943 0.0143,4.80497 -0.50296,1.31066 -0.12312,2.38303 0.8442,2.38303 0.96791,0 1.7593,-1.78728 1.7593,-3.97172 0,-2.18445 0.57387,-3.97173 1.27526,-3.97173 0.70139,0 9.10158,5.08368 18.66709,11.29706 35.43375,23.01637 76.64131,59.25568 102.47536,90.1203 l 12.41608,14.8338 -5.3317,4.68129 c -8.25955,7.25199 -26.50165,29.36229 -36.54244,44.2912 -10.56676,15.71095 -28.57023,52.05958 -35.40947,71.49101 -9.05891,25.73784 -10.64647,37.00213 -10.63553,75.46272 0.006,20.96806 0.83344,40.03592 2.06828,47.66067 9.31163,57.4965 33.44675,102.94919 80.44613,151.50087 20.19859,20.86575 41.57539,37.01021 63.30049,47.80673 15.0805,7.49441 16.9289,8.85776 16.0238,11.81853 -3.4449,11.26938 -13.6382,35.16384 -23.7927,55.77361 -32.8134,66.59884 -76.80287,118.86506 -139.93687,166.26634 -69.37584,52.0877 -136.87008,79.8215 -215.80784,88.6769 -19.47113,2.1843 -65.65426,1.7396 -89.51424,-0.8618 z M 424.44602,857.49486 c 1.35412,-1.09223 26.69134,-53.27616 56.30493,-115.96432 l 53.84288,-113.97844 34.15681,0.2052 c 18.78625,0.11279 48.40618,0.64454 65.82205,1.18154 l 31.66526,0.97633 17.91007,107.2365 c 9.85054,58.98008 17.94211,108.20662 17.98129,109.39234 0.0399,1.20851 1.07325,1.77131 2.35159,1.28077 1.25422,-0.4813 2.58616,-0.0216 2.95989,1.02154 3.03649,8.47561 -0.1012,-13.37033 -14.90192,-103.75121 -9.37231,-57.23252 -17.47521,-106.74003 -18.00644,-110.01671 l -0.96588,-5.95758 h 10.24652 c 9.26718,0 10.22365,-0.30369 10.00719,-3.17738 -0.21349,-2.83404 -1.37825,-3.17737 -10.77943,-3.17737 h -10.5401 l -16.24245,-98.89589 c -8.93334,-54.39274 -16.63731,-100.54708 -17.1199,-102.56519 -0.54468,-2.27775 -1.70686,-3.35104 -3.06447,-2.83007 -2.64275,1.01412 -2.73445,0.16427 -0.44406,-4.11536 1.29806,-2.42545 1.27192,-3.09974 -0.10231,-2.64165 -1.01493,0.33831 -11.60427,21.22838 -23.53191,46.42238 -11.92762,25.194 -21.89992,45.16727 -22.16067,44.38503 -0.26074,-0.78224 6.40059,-16.04905 14.80297,-33.92623 25.89479,-55.09466 27.4681,-58.64862 26.28637,-59.37897 -0.63077,-0.38985 -23.63553,47.47525 -51.12167,106.36687 l -49.97487,107.07568 -11.51799,0.0516 c -16.68553,0.0748 -15.05439,4.08351 2.11313,5.19313 l 6.48202,0.41897 -51.78722,111.20823 c -28.48297,61.16452 -52.65312,113.17423 -53.71146,115.57712 -2.06487,4.68817 -0.92549,5.58138 3.03978,2.38303 z"
     id="path1047"
     transform="scale(0.5)" />
  <path
     style="fill:#e6e6e6;stroke:#000000;stroke-width:0;filter:url(#filter1129)"
     d="m 541.44373,613.43908 c 2.34901,-5.12985 23.57349,-50.11524 47.16552,-99.96755 36.954,-78.08749 43.06374,-90.0521 44.11584,-86.39152 0.67168,2.33697 7.9935,46.07127 16.2707,97.18734 8.2772,51.11607 15.346,94.1894 15.70844,95.71851 0.61928,2.61276 -3.20127,2.78021 -63.43622,2.78021 h -64.09519 z"
     id="path1086"
     transform="scale(0.5)" />
  <path
     style="fill:#b3b3b3;stroke:#000000;stroke-width:0"
     d="m 600.52442,1114.1907 c -3.05823,-0.3082 -15.08892,-2.034 -26.73487,-3.8351 C 472.27847,1094.6568 382.2526,1047.926 304.8855,970.77219 248.06201,914.10539 207.1741,837.17853 190.78522,756.10295 c -19.61575,-97.03881 -18.60006,-174.45886 3.11496,-237.43477 25.18919,-73.05139 42.59554,-109.7328 72.50249,-152.7887 29.56296,-42.56067 94.76798,-101.88106 147.0722,-133.79921 31.22411,-19.05422 85.04233,-37.40783 143.3606,-48.89023 21.46496,-4.22627 24.0447,-4.38065 73.87404,-4.42087 34.11879,-0.0275 56.36019,0.65368 65.57055,2.0083 18.08566,2.65997 18.8237,2.97973 17.65209,7.6478 -1.16975,4.66062 1.76019,5.10393 4.15525,0.62871 1.0653,-1.99051 3.32643,-3.17737 6.05334,-3.17737 12.38549,0 80.35021,19.73304 89.65775,26.03145 2.84387,1.92444 9.82123,5.67152 15.50526,8.32685 17.29006,8.07715 23.82221,12.81924 23.82221,17.29402 0,2.17348 0.71491,3.95179 1.58869,3.95179 0.87378,0 1.58869,-1.03017 1.58869,-2.28927 0,-5.23212 4.21064,-3.73082 21.11477,7.52841 34.7877,23.17082 75.86632,59.43111 101.39877,89.50517 l 11.14313,13.12521 -10.62483,11.03026 c -19.17934,19.91125 -33.22643,40.41225 -48.3599,70.57867 -25.06437,49.96231 -29.76979,71.45915 -28.07461,128.25934 0.70242,23.53638 1.85366,36.65242 4.15135,47.29593 11.38726,52.7492 36.42267,96.5214 80.47396,140.70161 19.06122,19.11698 37.15262,32.87686 58.83382,44.74756 9.05,4.95503 16.8779,9.69399 17.3952,10.53106 2.4352,3.94022 -25.5479,64.83492 -42.9781,93.52589 -34.39579,56.61692 -83.27364,106.26134 -145.93804,148.22674 -54.97939,36.8188 -112.45961,59.1986 -176.01962,68.5327 -15.54621,2.283 -80.40464,3.2139 -98.29482,1.4107 z M 442.49601,822.5437 c 9.96748,-20.31536 34.83475,-72.24725 55.26063,-115.40421 l 37.13796,-78.4672 46.71594,0.24068 c 25.69377,0.13234 55.10258,0.69124 65.35294,1.24191 l 18.63699,1.00123 0.9209,4.93993 c 0.50651,2.71697 8.61347,51.34595 18.01549,108.06442 16.04147,96.77134 17.30788,103.20334 20.55651,104.40509 3.01799,1.11644 3.4619,0.7308 3.4619,-3.00744 0,-4.6074 -10.26856,-70.15121 -25.13502,-160.436 l -9.22129,-56.00129 h 10.02906 c 8.89177,0 10.02905,-0.35208 10.02905,-3.10479 0,-2.72193 -1.30163,-3.16271 -10.5557,-3.57455 L 673.14568,621.97172 656.29649,520.63343 C 645.5193,455.81481 638.71226,418.84138 637.40763,418.03598 c -1.12722,-0.69588 -1.58421,-2.44607 -1.02154,-3.91235 0.57321,-1.49377 0.24959,-2.65319 -0.74054,-2.65319 -0.96727,0 -1.75866,0.57826 -1.75866,1.28504 0,0.70677 -1.13074,2.67278 -2.51274,4.36889 -2.51904,3.09161 -2.51513,2.83129 0.082,-5.45571 2.65456,-8.47061 -2.4203,-0.94168 -10.30065,15.28174 -10.28099,21.16575 -58.03811,122.45975 -77.10558,163.54285 l -14.14656,30.48039 -11.62379,1.08924 c -13.80844,1.29395 -14.49788,3.88077 -1.66277,6.23881 l 8.78232,1.61348 -52.92839,113.59125 c -29.11062,62.4752 -52.95728,114.12745 -52.99258,114.78278 -0.0353,0.65533 1.05171,1.19152 2.41555,1.19152 1.65643,0 8.49669,-12.26357 20.60241,-36.93702 z"
     id="path1289"
     transform="scale(0.5)" />
  <path
     style="fill:#b3b3b3;stroke:#000000;stroke-width:0"
     d="m 538.56555,622.27699 c 0,-2.24811 83.26714,-177.44565 89.81167,-188.9675 l 3.47499,-6.11783 1.78732,9.21779 c 4.06789,20.97954 30.40683,183.73442 29.8278,184.31345 -1.06974,1.06974 -124.90178,2.61052 -124.90178,1.55409 z"
     id="path1328"
     transform="scale(0.5)" />
  <path
     style="fill:#f9f9f9;stroke:#000000;stroke-width:0"
     d="m 596.28816,1113.1145 c -1.32302,-0.7429 -4.46821,-1.048 -6.98929,-0.678 -2.52109,0.37 -4.77997,0.2485 -5.01973,-0.2701 -0.63316,-1.3693 -32.92825,-6.6733 -34.54582,-5.6736 -0.75034,0.4638 -1.60404,0.2835 -1.89712,-0.4005 -0.59987,-1.4001 -33.52939,-10.2763 -39.05857,-10.5283 -1.966,-0.09 -3.57455,-0.7756 -3.57455,-1.5245 0,-0.7488 -1.07236,-0.95 -2.38303,-0.447 -1.31067,0.503 -2.38303,0.2995 -2.38303,-0.4521 0,-0.7517 -1.92775,-1.8505 -4.2839,-2.4418 -20.33398,-5.1035 -75.93854,-31.9752 -103.34978,-49.9453 -10.70379,-7.0171 -19.46144,-12.4589 -19.46144,-12.0928 0,0.366 -1.653,-0.9105 -3.67333,-2.8368 -2.02034,-1.9263 -11.48181,-9.5791 -21.02548,-17.0062 -9.54368,-7.4271 -27.76093,-23.87007 -40.48278,-36.53987 -33.89907,-33.76034 -58.20637,-67.33766 -79.58043,-109.92982 -5.39547,-10.75158 -10.42376,-19.78811 -11.17397,-20.08119 -0.7502,-0.29308 -1.00954,-1.10641 -0.57629,-1.80742 0.43325,-0.70101 -1.23352,-6.18051 -3.70393,-12.17665 -2.47041,-5.99615 -6.14366,-15.90646 -8.16279,-22.02291 -2.01912,-6.11645 -4.10117,-11.47828 -4.62678,-11.91517 -0.52561,-0.43689 -1.11378,-2.93221 -1.30704,-5.54514 -0.19326,-2.61295 -1.01101,-4.97068 -1.81721,-5.23942 -0.8062,-0.26874 -1.10088,-1.88415 -0.65484,-3.58982 0.46472,-1.7771 0.0135,-3.1012 -1.05676,-3.1012 -1.02726,0 -1.45049,-0.67513 -0.94052,-1.50028 0.85374,-1.38136 -2.91477,-21.59037 -5.0528,-27.09612 -0.50897,-1.31067 -0.77689,-3.9233 -0.59537,-5.80585 0.18151,-1.88255 -0.39588,-3.87144 -1.28309,-4.41976 -0.88721,-0.54834 -1.2104,-2.04644 -0.71818,-3.32913 0.49221,-1.28268 0.3783,-3.58324 -0.25313,-5.11235 -0.63143,-1.52912 -1.38202,-4.92494 -1.66797,-7.54628 -0.28595,-2.62133 -1.75118,-13.70244 -3.25606,-24.62467 -2.98104,-21.63606 -4.59356,-109.78057 -2.09555,-114.54837 0.7336,-1.40017 1.64822,-6.40454 2.03248,-11.12082 0.38426,-4.71626 1.07148,-9.6474 1.52715,-10.95806 0.45567,-1.31067 2.07331,-7.74486 3.59476,-14.2982 1.52146,-6.55335 4.78316,-17.90472 7.24823,-25.22529 2.46508,-7.32056 4.13443,-13.87243 3.70968,-14.55968 -0.42475,-0.68727 -0.19361,-1.48935 0.51363,-1.78243 1.21748,-0.5045 12.45139,-29.61473 13.38707,-34.68967 0.24166,-1.31067 0.83696,-2.74049 1.32291,-3.17738 0.48594,-0.43689 3.61599,-7.22854 6.95567,-15.09255 14.28771,-33.64352 33.17357,-66.94004 53.12873,-93.66802 15.56407,-20.84655 60.50009,-65.59955 87.57448,-87.21781 51.03299,-40.74864 83.83048,-57.66752 145.36504,-74.98791 8.73779,-2.45947 16.12667,-5.05727 16.41975,-5.77291 0.29308,-0.71564 1.1792,-0.9017 1.96918,-0.41347 0.78997,0.48823 9.54174,-0.9302 19.44838,-3.15208 9.90662,-2.22187 22.60379,-4.72517 28.21591,-5.56288 11.2721,-1.68256 107.90836,-3.04725 107.90826,-1.52387 -10e-6,0.52555 5.89796,1.40454 13.10664,1.95332 17.72969,1.3497 20.25578,2.1988 20.25578,6.80856 0,4.18089 2.28954,4.33951 6.38879,0.44263 2.57264,-2.44563 10.42712,-2.88845 15.85286,-0.89375 1.31067,0.48185 10.872,3.09551 21.2474,5.80814 10.37539,2.71263 26.10341,7.34771 34.95115,10.30018 8.84774,2.95248 17.15916,5.60012 18.46983,5.88365 1.31067,0.28353 2.82934,1.12718 3.37482,1.87478 0.54548,0.74761 8.76694,5.44709 18.26992,10.4433 12.62377,6.63697 17.92008,10.33642 19.66117,13.73326 1.31067,2.55709 2.56915,4.95452 2.79662,5.32762 0.22748,0.37311 1.39229,-0.66008 2.58848,-2.29597 2.08563,-2.85227 2.54735,-2.74969 11.24916,2.49901 12.40474,7.48222 40.89274,28.96685 58.54676,44.15388 15.4714,13.30943 60.34961,58.96795 61.09033,62.15256 0.24115,1.03676 -4.56331,7.24088 -10.67661,13.78693 -10.65169,11.40573 -28.08063,33.9224 -26.25748,33.9224 0.48066,0 -0.56545,1.54496 -2.32467,3.43326 -1.75922,1.8883 -5.54034,8.14377 -8.40249,13.90103 -2.86217,5.75727 -5.64407,10.82522 -6.18204,11.26211 -2.11287,1.71592 -7.56578,13.96254 -6.63249,14.89583 0.54508,0.54508 0.15697,0.99106 -0.8624,0.99106 -1.01941,0 -1.70897,0.53618 -1.53234,1.19151 0.17663,0.65534 -1.3589,4.40862 -3.41228,8.34062 -2.05338,3.93201 -3.61323,7.33533 -3.46633,7.56292 0.14696,0.2276 -0.7229,2.37233 -1.93289,4.76607 -2.5964,5.13645 -7.7271,20.47135 -8.36617,25.0052 -0.24632,1.74756 -0.87155,4.96465 -1.38938,7.1491 -2.64082,11.14008 -3.15126,19.52036 -3.14491,51.63239 0.008,38.95672 0.98464,53.0163 4.71085,67.79602 3.23827,12.84429 8.92511,30.46735 10.1639,31.49704 0.52562,0.43689 1.20585,2.22416 1.51162,3.97172 0.30578,1.74756 1.37814,3.70262 2.38304,4.34457 1.00489,0.64196 1.28189,1.17814 0.61558,1.19152 -1.18838,0.0238 9.40225,22.29588 11.34321,23.85466 0.544,0.43689 1.20397,1.79642 1.4666,3.02118 1.26656,5.90666 28.88892,43.47909 36.18274,49.21642 2.11823,1.6662 3.85133,3.73895 3.85133,4.60612 0,2.09669 26.02429,26.78356 37.64879,35.71401 13.0323,10.01193 26.9297,18.67866 28.0905,17.51784 0.5421,-0.54208 0.9856,-0.1093 0.9856,0.96163 0,1.07098 0.715,1.5054 1.5887,0.96537 0.8738,-0.54003 1.5887,-0.293 1.5887,0.54892 0,0.84194 3.932,3.7499 8.7378,6.46211 9.407,5.30897 10.0006,6.74991 6.3653,15.45041 -1.3049,3.123 -2.0153,6.25607 -1.5788,6.96238 0.4366,0.70633 0.1624,1.52401 -0.6092,1.8171 -0.7716,0.29308 -5.7119,9.93651 -10.9784,21.42987 -24.2767,52.98041 -48.86791,89.60012 -86.03804,128.12263 -26.6436,27.613 -54.80932,50.99033 -87.47704,72.60533 -8.3009,5.4924 -15.80746,10.848 -16.68124,11.9013 -0.87378,1.0532 -2.1348,2.0027 -2.80228,2.11 -0.66748,0.1072 -14.25077,6.6244 -30.18509,14.4825 -15.93432,7.8581 -37.90787,17.3031 -48.83011,20.9889 -10.92223,3.6858 -20.09839,7.2897 -20.39147,8.0086 -0.29308,0.7189 -1.15584,0.9221 -1.91723,0.4515 -0.76141,-0.4705 -6.9558,0.5512 -13.76534,2.2706 -31.2073,7.8798 -37.80608,8.58 -89.95058,9.5448 -27.80905,0.5146 -51.64439,0.3277 -52.96742,-0.4152 z M 426.422,854.30744 c 8.3871,-14.23408 11.77045,-21.01141 11.06172,-22.15818 -0.42997,-0.69572 0.0175,-1.26494 0.99443,-1.26494 0.97691,0 1.33437,-0.71491 0.79434,-1.58869 -0.54002,-0.87378 -0.18257,-1.58869 0.79435,-1.58869 0.97691,0 1.33437,-0.71491 0.79434,-1.58869 -0.54003,-0.87378 -0.18257,-1.58869 0.79435,-1.58869 0.97691,0 1.33437,-0.71491 0.79434,-1.58869 -0.54003,-0.87378 -0.35358,-1.58869 0.41433,-1.58869 1.44839,0 15.24963,-29.19654 14.71155,-31.12233 -0.16759,-0.5998 0.45017,-1.55709 1.37278,-2.12731 1.94379,-1.20132 16.52375,-31.70689 16.5688,-34.66681 0.0167,-1.09222 0.5265,-1.98586 1.13306,-1.98586 1.30774,0 13.13434,-25.32188 13.17045,-28.19923 0.0143,-1.09222 0.50794,-1.98586 1.09829,-1.98586 1.35943,0 13.22482,-25.15738 13.22482,-28.03969 0,-1.17997 0.47632,-2.1454 1.05848,-2.1454 1.09739,0 24.86978,-49.85192 25.72823,-53.95339 0.26719,-1.27656 1.70965,-3.70558 3.20548,-5.39785 2.63214,-2.97781 4.62695,-3.0415 61.95887,-1.97819 32.58155,0.60429 61.45638,1.48441 64.16631,1.95583 l 4.92712,0.85713 12.24679,74.1387 c 6.73574,40.77627 12.66757,75.21106 13.18185,76.52173 0.51427,1.31067 0.78653,3.9233 0.60502,5.80585 -0.18152,1.88254 0.39587,3.87144 1.28309,4.41976 0.8872,0.54834 1.21039,2.04644 0.71818,3.32913 -0.49222,1.28268 -0.36907,3.58324 0.27368,5.11235 0.64274,1.52912 1.38193,4.21003 1.64263,5.95759 0.73092,4.89929 1.97673,12.29297 2.81072,16.68123 0.41518,2.18445 1.24458,6.83136 1.84314,10.32648 1.33332,7.78559 4.12533,13.84706 6.77587,14.71045 2.38945,0.77834 2.5389,-9.13369 0.31764,-21.06521 -0.81336,-4.36889 -1.88028,-11.42265 -2.37094,-15.67502 -0.49066,-4.25236 -1.61103,-11.04401 -2.4897,-15.09254 -0.87867,-4.04854 -1.54864,-9.27998 -1.48881,-11.62543 0.0599,-2.34546 -0.62556,-4.71831 -1.52311,-5.27301 -0.89753,-0.55471 -1.25034,-1.6259 -0.78402,-2.38042 0.83149,-1.34539 -5.03577,-41.38712 -6.75049,-46.06926 -0.47999,-1.31067 -0.72421,-3.9233 -0.5427,-5.80585 0.18152,-1.88254 -0.35998,-3.84926 -1.20332,-4.37046 -0.84334,-0.52122 -1.15865,-2.38059 -0.70066,-4.13193 0.45799,-1.75134 0.0396,-4.13987 -0.9297,-5.30784 -0.96932,-1.16796 -1.38704,-2.49894 -0.92826,-2.95773 0.87739,-0.87738 -8.2747,-60.69556 -9.91492,-64.80408 -0.52326,-1.31067 -0.80285,-3.9233 -0.62134,-5.80585 0.18152,-1.88255 -0.39587,-3.87144 -1.28309,-4.41976 -0.8872,-0.54834 -1.21039,-2.04644 -0.71818,-3.32913 0.64672,-1.68533 3.49151,-2.33215 10.2571,-2.33215 8.09499,0 9.36216,-0.40318 9.36216,-2.97879 0,-3.18264 -5.42209,-4.96465 -15.10584,-4.96465 -3.96796,0 -5.44536,-0.83456 -6.32799,-3.57455 -0.6333,-1.96601 -1.07233,-4.11614 -0.97563,-4.77807 0.28117,-1.92469 -11.06503,-71.6285 -12.08773,-74.25921 -0.50953,-1.31067 -0.77789,-3.9233 -0.59638,-5.80585 0.18152,-1.88255 -0.33121,-3.83149 -1.13941,-4.33097 -0.80819,-0.4995 -1.14053,-2.62871 -0.73855,-4.73159 0.40199,-2.10287 -0.0202,-4.28756 -0.93802,-4.85486 -0.9179,-0.56729 -1.26619,-2.08091 -0.77398,-3.3636 0.49222,-1.28268 0.36907,-3.58324 -0.27368,-5.11236 -0.64274,-1.52911 -1.38192,-4.21002 -1.64263,-5.95758 -0.52717,-3.53364 -1.73435,-11.03457 -2.94195,-18.28011 l -1.58869,-9.53213 c -1.76095,-10.56569 -2.3024,-13.73069 -3.2597,-19.05408 -0.54996,-3.05823 -1.30041,-7.34769 -1.66766,-9.53214 -0.36728,-2.18445 -1.03845,-5.759 -1.49153,-7.94344 -0.45308,-2.18445 -1.23166,-6.11646 -1.73021,-8.73779 -2.73574,-14.38471 -4.64412,-19.91809 -6.60937,-19.16394 -1.14408,0.43901 -2.06992,-0.29123 -2.06992,-1.63264 0,-1.33481 -0.7327,-1.97409 -1.62825,-1.42062 -2.42936,1.50142 -12.67486,22.47708 -11.53542,23.6165 0.54104,0.54106 0.10755,0.98373 -0.96351,0.98373 -1.07098,0 -1.50539,0.71491 -0.96537,1.58869 0.54003,0.87378 0.31719,1.58869 -0.49521,1.58869 -1.52382,0 -14.22067,27.12429 -13.27012,28.34896 0.29308,0.3776 -0.20113,1.14017 -1.09823,1.69461 -2.09712,1.2961 -14.74752,28.72996 -13.26293,28.76224 0.61533,0.0127 0.25514,0.57322 -0.80042,1.24409 -2.32892,1.48015 -13.56864,25.72926 -11.94171,25.76362 0.63327,0.0127 0.30115,0.56494 -0.73804,1.22569 -2.46107,1.56481 -11.64152,22.02367 -10.42741,23.23776 0.51218,0.51219 0.19482,0.93125 -0.70527,0.93125 -1.69613,0 -10.54343,18.32558 -10.54343,21.83881 0,1.09533 -0.49813,1.99153 -1.10695,1.99153 -1.31624,0 -10.01387,18.96826 -10.01387,21.8388 0,1.09534 -0.49813,1.99153 -1.10695,1.99153 -1.12683,0 -8.84293,16.31142 -9.76987,20.65296 -0.78055,3.65587 -3.08944,4.71523 -10.33467,4.74174 -7.76356,0.0284 -15.38669,2.55388 -14.08184,4.66519 0.4995,0.8082 3.22342,1.93526 6.05319,2.50461 11.25721,2.26497 10.8881,1.6769 6.71139,10.69188 -2.07906,4.48744 -3.41856,8.744 -2.97665,9.45902 0.44189,0.71501 0.14394,1.30003 -0.66204,1.30003 -1.57293,0 -10.37241,18.52705 -10.37241,21.8388 0,1.09534 -0.49813,1.99153 -1.10695,1.99153 -1.31624,0 -10.01387,18.96826 -10.01387,21.8388 0,1.09534 -0.49813,1.99154 -1.10695,1.99154 -1.12682,0 -8.84293,16.31141 -9.76986,20.65295 -0.27984,1.31067 -0.96807,2.74049 -1.52942,3.17738 -1.47861,1.15081 -18.69596,37.97767 -19.20396,41.07611 -0.2356,1.43706 -0.88765,2.97029 -1.449,3.40718 -1.74032,1.3545 -19.03528,38.76099 -19.28148,41.70308 -0.12805,1.52912 -0.6978,2.78021 -1.26632,2.78021 -1.26405,0 -9.94057,19.06176 -9.94057,21.8388 0,1.09534 -0.51273,1.99153 -1.13939,1.99153 -1.31505,0 -8.7936,17.67325 -8.23524,19.46144 0.20464,0.65534 -0.34285,1.19152 -1.21663,1.19152 -0.87378,0 -1.58869,1.07237 -1.58869,2.38303 0,4.11159 3.84291,2.58156 7.00812,-2.79024 z"
     id="path1076"
     transform="scale(0.5)" />
  <path
     style="fill:#f9f9f9;stroke:#000000;stroke-width:0"
     d="m 540.15424,620.55591 c 0,-0.3418 4.76607,-10.82706 10.59126,-23.30055 5.82519,-12.47351 10.59126,-23.63241 10.59126,-24.79757 0,-1.16515 0.48992,-2.11846 1.08872,-2.11846 1.13156,0 10.52436,-19.64937 11.39139,-23.83033 0.2718,-1.31067 0.93928,-2.74049 1.48328,-3.17738 1.67983,-1.34906 12.19326,-22.99279 12.76717,-26.28342 0.29806,-1.70903 1.00284,-3.46478 1.56617,-3.90167 0.56333,-0.43689 10.21372,-19.6933 21.4453,-42.79202 11.72193,-24.10715 20.63073,-40.68784 20.91325,-38.92288 0.27071,1.69114 0.92129,4.14716 1.44574,5.45783 0.52445,1.31067 0.83199,2.94338 0.68343,3.62824 -0.37287,1.71889 6.1162,41.08871 7.25757,44.03243 0.50819,1.31067 0.77547,3.9233 0.59396,5.80584 -0.18152,1.88255 0.33122,3.83149 1.13941,4.33098 0.80819,0.49949 1.14054,2.6287 0.73855,4.73158 -0.40199,2.10288 0.0201,4.28757 0.93802,4.85487 0.9179,0.56729 1.26619,2.08091 0.77398,3.36359 -0.49221,1.28269 -0.38279,3.58325 0.24317,5.11237 0.62596,1.52911 1.31857,4.92493 1.53914,7.54627 0.79771,9.48021 12.54885,81.04298 13.43504,81.81748 0.49989,0.43689 1.05789,4.47202 1.24,8.96694 0.29277,7.22644 -0.0751,8.28152 -3.17738,9.11328 -3.82502,1.02553 -118.68843,1.37644 -118.68843,0.36258 z"
     id="path1115"
     transform="scale(0.5)" />
</svg>
