<?xml version="1.0" encoding="UTF-8" standalone="no"?>
<svg
   version="1.1"
   viewBox="0 0 482.81730612181127 351.8125"
   width="482.81730612181127"
   height="351.8125"
   id="svg200"
   sodipodi:docname="linearregression.svg"
   inkscape:version="1.1.1 (3bf5ae0d25, 2021-09-20)"
   xmlns:inkscape="http://www.inkscape.org/namespaces/inkscape"
   xmlns:sodipodi="http://sodipodi.sourceforge.net/DTD/sodipodi-0.dtd"
   xmlns="http://www.w3.org/2000/svg"
   xmlns:svg="http://www.w3.org/2000/svg">
  <sodipodi:namedview
     id="namedview202"
     pagecolor="#ffffff"
     bordercolor="#666666"
     borderopacity="1.0"
     inkscape:pageshadow="2"
     inkscape:pageopacity="0.0"
     inkscape:pagecheckerboard="0"
     showgrid="false"
     inkscape:zoom="2.2114052"
     inkscape:cx="241.47542"
     inkscape:cy="175.68015"
     inkscape:window-width="1911"
     inkscape:window-height="1043"
     inkscape:window-x="3844"
     inkscape:window-y="16"
     inkscape:window-maximized="1"
     inkscape:current-layer="svg200" />
  <!-- svg-source:excalidraw -->
  <defs
     id="defs4">
    <style
       id="style2">
      @font-face {
        font-family: &quot;Virgil&quot;;
        src: url(&quot;https://excalidraw.com/FG_Virgil.woff2&quot;);
      }
      @font-face {
        font-family: &quot;Cascadia&quot;;
        src: url(&quot;https://excalidraw.com/Cascadia.woff2&quot;);
      }
    </style>
  </defs>
  <g
     transform="translate(13.5 105.9375) rotate(0 16.5 18.5)"
     id="g10">
    <path
       d="M10.534166663764381 1.3160789714041528 C13.36584016473525 -0.07889453167214522, 18.478340329637675 0.0628314120686373, 21.831965106690404 1.386979757888053 C25.185589883743134 2.711128103707469, 28.711031436160592 5.808763275810739, 30.65591532608076 9.260969046320646 C32.60079921600092 12.713174816830554, 34.277958693955725 18.02890187666041, 33.501268446211405 22.100214380947495 C32.724578198467086 26.17152688523458, 29.020120005363697 31.196597585525595, 25.995773839614845 33.68884407204316 C22.971427673865993 36.181090558560726, 18.823261963495654 37.22168926047978, 15.3551914517183 37.0536933000529 C11.887120939940948 36.88569733962602, 7.869409440942823 35.31773639572002, 5.187350768950729 32.68086830948188 C2.505292096958635 30.04400022324374, -0.4315904316455346 25.284342558673902, -0.7371605802342636 21.23248478262405 C-1.0427307288229926 17.180627006574195, 0.9845972415506283 11.944652138578194, 3.3539298774183557 8.36972165318276 C5.723262513286083 4.794791167787325, 11.780012586973799 0.9272719545965205, 13.4788352349721 -0.21709812974856035 C15.177657882970403 -1.3614682140936412, 13.54661568938049 1.0308691241369015, 13.546865765408164 1.5035011471122743 M15.079641857195579 0.9609886499350395 C18.146830253648687 0.06393784125457314, 22.256017209750823 1.4533888648082616, 24.922304885552087 3.353197901865128 C27.58859256135335 5.253006938921994, 29.693537103363173 8.822637150937465, 31.077367912003176 12.35984287227624 C32.46119872064318 15.897048593615013, 34.437717975995454 20.823101908851694, 33.22528973739211 24.576432229897772 C32.012861498788766 28.32976255094385, 27.386300406144066 32.9118158763049, 23.802798480383125 34.879824798552704 C20.219296554622183 36.84783372080051, 15.268552577102527 37.416904656688, 11.724278182826469 36.38448576338462 C8.18000378855041 35.35206687008124, 4.69342412899441 31.678506849900888, 2.5371521147267746 28.685311438732434 C0.38088010045913956 25.69211602756398, -1.4130377233757663 22.204487049154665, -1.2133539027793425 18.425313296373886 C-1.0136700821829188 14.646139543593108, 1.130318337720991 8.88790408201141, 3.7352550383053167 6.010268922047761 C6.340191738889642 3.1326337620841116, 12.641078216510358 2.1216212877211, 14.416266300726612 1.1595023365919914 C16.191454384942865 0.1973833854628827, 14.133651131132513 0.30075452651685924, 14.386383543602834 0.2375552152731082"
       stroke="#000000"
       stroke-width="1"
       fill="none"
       id="path8" />
  </g>
  <g
     transform="translate(223 144.4375) rotate(0 68.5 66.5)"
     id="g14">
    <path
       d="M98.99765590248784 7.778336180524903 C108.48840410465266 11.30123619133397, 118.6656991408706 19.992318708602394, 124.9651159239817 28.12689825743047 C131.2645327070928 36.26147780625854, 135.35847621778498 46.68944694517116, 136.79415660115444 56.58581347349335 C138.2298369845239 66.48218000181555, 137.16277467612937 77.64496571769165, 133.5791982241985 87.50509742736361 C129.99562177226764 97.36522913703557, 123.09661943821263 108.63798560466931, 115.2926978895692 115.74660373152508 C107.48877634092577 122.85522185838086, 96.82670268293526 127.6495228943464, 86.75566893233791 130.15680618849828 C76.68463518174056 132.66408948265016, 65.11075989976301 132.88643234532435, 54.866495385985104 130.7903034964363 C44.62223087220719 128.69417464754827, 33.612657126457115 123.99926412504162, 25.290081849670443 117.58003309517011 C16.96750657288377 111.1608020652986, 9.052169072788967 101.59978640073717, 4.931043725265063 92.27491731720724 C0.8099183777411598 82.95004823367731, -0.27372995028767144 71.67513513571006, 0.5633297645270261 61.63081859399051 C1.4003894793417238 51.58650205227095, 4.430152259575775 40.66915404478115, 9.953402014153248 32.00901806688989 C15.476651768730722 23.34888208899862, 24.71606954346136 14.8183328517445, 33.702828291991864 9.670002726642927 C42.68958704052237 4.521672601541353, 53.610128748174944 1.7559839996643056, 63.87395450533628 1.1190373162804406 C74.13778026249761 0.4820906328965755, 89.04668964287687 4.473613655391209, 95.28578283495989 5.848322626339737 C101.52487602704291 7.223031597288265, 99.952931472031 8.532207384380888, 101.30851365783437 9.367291141971606 C102.66409584363774 10.202374899562324, 103.87131476772124 9.876347903070236, 103.41927594978016 10.858825171884043 M69.13615590193875 0.15109598006773695 C78.9861975222619 -1.084928230033692, 90.0644231850103 1.4984120973585533, 99.48215393555026 6.201393605428137 C108.89988468609022 10.904375113497721, 119.56817523945179 19.9568935838505, 125.6425404051785 28.36898502848524 C131.7169055709052 36.78107647311998, 134.93079070914484 46.751606025492656, 135.92834492991048 56.67394227323658 C136.92589915067612 66.59627852098049, 135.0454262231749 78.13349534267039, 131.62786572977237 87.90300251494877 C128.21030523636983 97.67250968722715, 122.6896876658874 108.22412233363639, 115.42298196949528 115.2909853069069 C108.15627627310316 122.35784828017742, 98.41684741947132 127.82502436922604, 88.02763155141963 130.30418035457183 C77.63841568336794 132.7833363399176, 63.66762965449037 132.07950408211428, 53.087686761185154 130.16592121898157 C42.50774386787994 128.25233835584885, 32.26053616384119 125.15447431520518, 24.547974191588345 118.8226831757755 C16.8354122193355 112.49089203634581, 11.058790045559686 101.71818941985717, 6.812314927668083 92.17517438240344 C2.565839809776481 82.63215934494971, -1.3151206320464794 71.64843176367164, -0.9308765157612697 61.564592951053136 C-0.54663239947606 51.480754138434634, 3.142951781504016 40.57921218766852, 9.117779625379342 31.672141506692427 C15.092607469254666 22.765070825716336, 25.61736316223125 13.543171750557075, 34.918090547490685 8.122168865196578 C44.21881793275012 2.7011659798360794, 59.30588444595235 0.5515344996474962, 64.92214393693595 -0.8538758054705653 C70.53840342791955 -2.2592861105886266, 68.07406562202398 -0.918475462438181, 68.61564749339229 -0.31029296551179186 C69.1572293647606 0.2978895314145973, 68.43951922775659 1.4729646877070965, 68.17163516514577 2.7952191760877696"
       stroke="#000000"
       stroke-width="1"
       fill="none"
       id="path12" />
  </g>
  <g
     transform="translate(10 304.4375) rotate(0 16.5 18.5)"
     id="g18">
    <path
       d="M20.072622880342664 1.218427284215263 C23.45441652451593 1.7769198083400743, 27.597708533766454 4.205871276968459, 29.71349689476598 7.1474886664276 C31.82928525576551 10.089106055886742, 32.98987020306779 15.042506262384745, 32.767353046339835 18.868131620970107 C32.54483588961188 22.69375697955547, 30.455077825378567 27.224163045762396, 28.37839395439828 30.10124081793978 C26.301710083417994 32.97831859011716, 23.710591852790756 35.3924008769562, 20.307249820458118 36.130598254034396 C16.90390778812548 36.86879563111259, 11.323962584822633 36.43999954042684, 7.958341760402458 34.530425080408925 C4.592720935982284 32.62085062039101, 1.3775858743954392 28.533155458675946, 0.1135248739370649 24.67315149392693 C-1.1505361265213094 20.813147529177915, -0.8485709025852124 15.003648658155639, 0.3739757576522127 11.370401291914837 C1.5965224178896378 7.7371539256740345, 3.8574452432841606 4.583229355283067, 7.448804835361615 2.8736672964821146 C11.04016442743907 1.164105237681162, 19.00993480875679 0.9922846569651961, 21.922133310116944 1.113028939109121 C24.8343318114771 1.2337732212530461, 24.948208034768616 3.333750233577548, 24.921995843522538 3.5981329893456646 M23.22908920986064 3.4858627660680845 C26.366603918491666 4.9248524722513105, 29.552024130341167 7.456616217925895, 31.031155017267686 11.157555619890026 C32.510285904194205 14.858495021854157, 33.07258364096569 21.783253047957743, 32.10387453141975 25.691499177852876 C31.13516542187381 29.59974530774801, 28.176647444720356 32.62869940474384, 25.218900359992062 34.60703239926082 C22.26115327526377 36.58536539377779, 17.83164730300094 38.2720701454077, 14.357392023049997 37.56149714495473 C10.883136743099053 36.850924144501754, 6.972372995899141 33.22750022312269, 4.3733686802864025 30.343594396542983 C1.7743643646736635 27.459688569963276, -1.1200280384508223 24.209670114916232, -1.236633870626438 20.2580621854765 C-1.3532397028020535 16.30645425603677, 1.4400093381726715 10.165835426291693, 3.6737336872327084 6.633946819904587 C5.907458036292745 3.102058213517481, 8.916350365366643 -0.26044855537253275, 12.165712223733784 -0.9332694528461332 C15.415074082100926 -1.6060903503197337, 21.184914072473298 1.7801021722593457, 23.169904837435556 2.5970214350629846 C25.154895602397815 3.4139406978666234, 24.07924018787931 3.9266539933931006, 24.075656813507333 3.9682461239756996"
       stroke="#000000"
       stroke-width="1"
       fill="none"
       id="path16" />
  </g>
  <g
     transform="translate(13 206.4375) rotate(0 16.5 18.5)"
     id="g22">
    <path
       d="M20.177198071491325 0.8199783281730753 C23.657261094071977 1.0593386242201328, 27.38869671693284 3.4713070625725178, 29.583832247422336 6.269843031513934 C31.77896777791183 9.068379000455352, 33.45972701734775 13.44878883139791, 33.34801125442829 17.611194141821574 C33.236295491508834 21.77359945224524, 31.322334612343774 28.109830856981468, 28.913537669905573 31.244274894055927 C26.50474072746737 34.378718931130386, 22.31812100552483 36.00609899255251, 18.89522959979908 36.41785836426833 C15.472338194073332 36.829617735984144, 11.375046859736749 35.72939597662098, 8.376189235551081 33.71483112435081 C5.377331611365413 31.70026627208064, 2.269877666417684 28.035141396985498, 0.902083854685074 24.330469250647305 C-0.4657099570475358 20.62579710430911, -1.104896910377361 15.175447206554383, 0.16942636515542198 11.486798246321651 C1.4437496406882049 7.79814928608892, 4.740997441163781 3.838240023354669, 8.548023507881771 2.1985754892509224 C12.35504957459976 0.5589109551471754, 19.942263555192476 1.3226232481733893, 23.01158276546336 1.6488110416991688 C26.080901975734243 1.9749988352249483, 27.0978652441782 3.729513422778967, 26.96393876950708 4.1557022504056 M11.245097632231762 0.750175461626597 C14.117531969593006 -0.804872699500373, 17.354507392302718 -0.5721966964617924, 20.766756428332087 0.6863066542548104 C24.179005464361456 1.9448100049714132, 29.630376076433596 4.950354236285991, 31.718591848407975 8.301195565926214 C33.80680762038236 11.652036895566438, 33.817475983712704 16.8275041748061, 33.29605106017837 20.79135463209615 C32.77462613664404 24.7552050893862, 31.310436274265943 29.596051904958074, 28.590042307201983 32.08429830966652 C25.869648340138024 34.57254471437497, 20.43705953259573 35.48142433965333, 16.97368725779461 35.72083306034685 C13.510314982993489 35.96024178104037, 10.63938972649182 35.82883106529901, 7.809808658395264 33.52075063382764 C4.980227590298709 31.212670202356268, 1.2295781230566272 25.937451793735203, -0.0037991507847259243 21.872350471518615 C-1.237176424626079 17.807249149302027, -1.3171308933214192 12.52715336001179, 0.4095450153471454 9.130142700528113 C2.13622092401571 5.733132041044437, 8.5024644216485 2.757998109982971, 10.356256301226662 1.4902865146165567 C12.210048180804822 0.22257491925014272, 11.653358076669566 1.4579476855062194, 11.532296292816104 1.5238731283296296"
       stroke="#000000"
       stroke-width="1"
       fill="none"
       id="path20" />
  </g>
  <g
     transform="translate(13 156.4375) rotate(0 16.5 18.5)"
     id="g26">
    <path
       d="M14.798390961263262 0.6989911010717478 C17.94247954187088 -0.14927038523246738, 22.262955605772547 1.2100365627685985, 25.038623705596486 3.178960265015844 C27.814291805420424 5.147883967263089, 30.16789868012398 8.896975638597356, 31.452399560206906 12.51253331455522 C32.73690044028983 16.128090990513083, 33.99752247328213 21.145990434054564, 32.74562898609404 24.872306320763027 C31.493735498905952 28.59862220747149, 27.37163380723298 32.94041983923792, 23.94103863707837 34.87042863480599 C20.510443466923764 36.80043743037406, 15.677113983759627 37.4178987348821, 12.1620579651664 36.45235909417144 C8.647001946573171 35.48681945346078, 5.011905969808563 32.11544478989741, 2.850702525519006 29.077190790542055 C0.689499081229449 26.0389367911867, -0.9817361513261087 22.06267145817203, -0.8051627005709427 18.22283509803931 C-0.6285892498157768 14.382998737906593, 0.8369226522083744 8.960095402877322, 3.910143230050002 6.038172629745748 C6.98336380789163 3.1162498566141745, 14.829691658335042 1.567717846716215, 17.63416076647882 0.6912984592498681 C20.438629874622603 -0.18512092821647863, 20.61052488003238 0.7176496830244231, 20.736957878912683 0.7796563049476681 M17.451496875560657 -0.33502868927174134 C20.973112521384156 -0.15203261340658022, 25.70596086150205 4.10878715546329, 28.289917637586314 7.1007921065333335 C30.873874413670578 10.092797057603377, 32.666206285262646 13.780138708419758, 32.95523753206624 17.617001017148525 C33.24426877886984 21.45386332587729, 32.076673286170795 27.06886567348248, 30.024105118407867 30.121965958905932 C27.97153695064494 33.175066244329386, 24.307460148342297 34.91175585775877, 20.639828525488664 35.93560272968923 C16.97219690263503 36.95944960161969, 11.193840346603857 37.993303926251045, 8.018315381286056 36.2650471904887 C4.842790415968256 34.53679045472636, 2.970863085068716 29.599331965975402, 1.5866787335818682 25.566062315115147 C0.20249438209502024 21.53279266425489, -1.0521140076128659 15.729761702485836, -0.2867907276350312 12.06542928532716 C0.47853255234280356 8.401096868168482, 3.0988853040846025 5.330037661538646, 6.178618413448877 3.580067812163078 C9.258351522813152 1.8300979627875094, 16.246182978461256 2.2445989127274926, 18.191607928550614 1.5656101890737482 C20.13703287863997 0.8866214654200038, 18.096931361393835 -0.5151606730724971, 17.85116811398501 -0.49386452975938866"
       stroke="#000000"
       stroke-width="1"
       fill="none"
       id="path24" />
  </g>
  <g
     id="g32">
    <g
       transform="translate(45.5 123.9375) rotate(0 89.93495100120552 31.460082266731177)"
       id="g30">
      <path
         d="M0.39250574558973317 1.044845362007618 C30.457364961008228 11.264032828311125, 150.53228353311619 50.858427051206434, 180.73046946972607 60.89177314788103 M-0.8605674673151226 0.5477852317225187 C28.992821547385926 10.998913866036261, 149.31061351904955 52.015178041312225, 179.64092047770507 62.372379301739855"
         stroke="#000000"
         stroke-width="1"
         fill="none"
         id="path28" />
    </g>
  </g>
  <g
     id="g38">
    <g
       transform="translate(45.5 176.9375) rotate(0 87.7785031750798 14.439226177064683)"
       id="g36">
      <path
         d="M-0.6953589722514152 0.7270504519343375 C28.490321210523447 5.2284865106145535, 146.76571010301512 23.059049308796723, 176.25236532241107 27.526478104293346 M1.1404388379771264 0.0631479938607662 C30.09057982789663 4.68220573154899, 146.3640890381454 24.05862698413742, 175.43681165304966 28.815304360268637"
         stroke="#000000"
         stroke-width="1"
         fill="none"
         id="path34" />
    </g>
  </g>
  <g
     id="g44">
    <g
       transform="translate(45.5 224.9375) rotate(0 91.4326592823351 1.9215155556797754)"
       id="g42">
      <path
         d="M-0.5717921689152717 -0.9797857090830803 C29.64008497049411 -0.32505594541629157, 150.63694822440544 3.794406942029794, 181.16403685063125 4.822816820442677 M1.328878213064745 1.1202228483092038 C31.92896956185189 1.36305348610195, 153.30272717326568 2.740047374817853, 183.43711073358543 3.132220902396366"
         stroke="#000000"
         stroke-width="1"
         fill="none"
         id="path40" />
    </g>
  </g>
  <g
     id="g50">
    <g
       transform="translate(41.5 324.9375) rotate(0 96.49173779040575 -38.4793738021562)"
       id="g48">
      <path
         d="M-0.41365664452314377 0.3801122233271599 C31.755951964358488 -12.44272845139106, 161.1393415485819 -62.84410840223233, 193.39713222533464 -75.83035087138414 M1.5700348877627404 -0.46593280476517984 C33.58316672749507 -13.078897085509574, 160.84637699263482 -64.6661885251819, 192.65758118000812 -77.33885982763954"
         stroke="#000000"
         stroke-width="1"
         fill="none"
         id="path46" />
    </g>
  </g>
  <g
     transform="translate(22.5 257.9375) rotate(0 0.5 0.5)"
     id="g54">
    <path
       d="M0.3946823375005568 -0.055625841905868334 C0.667174896970147 -0.00652031881995635, 1.3384000897658166 -0.04516346629702197, 1.5717331220963955 -0.10599768361335565 C1.8050661544269744 -0.16683190092968933, 2.0478237412730627 -0.5997097902182094, 1.7946805314840308 -0.42063114580387045 C1.5415373216949992 -0.24155250138953158, 0.3307121101391988 0.6037160751651689, 0.05287386336220545 0.9684741828726777 C-0.22496438341478792 1.3332322905801866, 0.019493607326885112 1.7008043730880194, 0.12765105082207057 1.767917500441183 C0.23580849431725603 1.8350306277943464, 0.8188147082629881 1.5358673765611377, 0.7018185243333181 1.3711529469916586 C0.5848223404036482 1.2064385174221794, -0.6185509557526102 0.9289506583409075, -0.5743260527559488 0.7796309230243081 C-0.5301011497592875 0.6303111877077088, 0.6912431886595791 0.5643045748769184, 0.9671679423132864 0.4752345350920621 C1.2430926959669937 0.38616449530720576, 1.1102055481953583 0.15938240736300596, 1.0812224691662953 0.24521068431517024 C1.0522393901372322 0.3310389612673345, 0.9676510976988395 0.9635267976868828, 0.7932694681389079 0.9902041968050476 C0.6188878385789762 1.0168815959232125, -0.0049056537649797075 0.40315778259806645, 0.034932691806705524 0.40527507902415927 M0.07869407442820567 -0.9139382914738232 C0.330093398369079 -1.2294756212448832, 1.6956198011759733 -0.4020306518427338, 1.7525127199597486 -0.15960874941788783 C1.8094056387435238 0.08281315300695816, 0.5970346219847641 0.32912250311314983, 0.4200515871308566 0.5405931230752528 C0.2430685522769491 0.7520637430373557, 0.5178276526150688 0.8565233972539799, 0.6906145108363035 1.1092149703547294 C0.8634013690575383 1.361906543455479, 1.28421280016306 1.95136127809232, 1.4567727364582648 2.05674256167975 C1.6293326727534696 2.16212384526718, 1.9019125847341682 2.1468080874330795, 1.7259741286075332 1.74150267187931 C1.5500356724808981 1.3361972563255406, 0.851272609298144 0.00010067428729360062, 0.40114199969845477 -0.37508993164286614 C-0.04898860990123449 -0.7502805375730259, -1.161497051433137 -0.6740011187347519, -0.9748095289906022 -0.5096409637016484 C-0.7881220065480674 -0.3452808086685448, 1.5317100418525829 0.3801152050583574, 1.5212671343536637 0.6110709985557551 C1.5108242268547445 0.8420267920531528, -0.6263946237407139 0.987799317934211, -1.0374669739841174 0.8760937972827381 C-1.4485393242275209 0.7643882766312651, -1.1324495965262704 0.24510641505614722, -0.9451669671067571 -0.059162125353082684"
       stroke="#000000"
       stroke-width="4"
       fill="none"
       id="path52" />
  </g>
  <g
     transform="translate(20 273.4375) rotate(0 0.5 0.5)"
     id="g58">
    <path
       d="M1.2856149977414866 -0.8505197364671517 C1.1190478762935114 -0.7867462261420658, 0.07640153837099192 -0.02846996445983302, -0.060765900320701616 0.3119393992266496 C-0.19793333901239515 0.6523487629131322, 0.2310417602851948 1.05305408587099, 0.46261036559132535 1.1919364456517436 C0.694178970897456 1.3308188054324972, 1.3972358540827885 1.1756424000834846, 1.3286457315160818 1.1452335579111714 C1.260055608949375 1.1148247157388582, 0.05609350036462065 1.0248042625511955, 0.05106963019108535 1.0094833926178644 C0.04604576001755004 0.9941625226845332, 1.1464373162190382 1.0713857930710058, 1.29850251047487 1.0533083383111848 C1.4505677047307017 1.0352308835513637, 1.14446055023362 0.8416190684510844, 0.9634607957260761 0.9010186640589386 C0.7824610412185321 0.9604182596667928, 0.4476560510419366 1.4769203539816234, 0.21250398342960602 1.40970591195831 C-0.022648084182724543 1.3424914699349966, -0.5773052431668478 0.5747595440303022, -0.44745160994790734 0.4977320119190583 C-0.31759797672896684 0.4207044798078145, 0.9636542966049587 1.0107713238143299, 0.9916257827432488 0.9475407192908472 C1.019597268881539 0.8843101147673643, -0.3615803919692433 0.29125684314399714, -0.2796226931181671 0.11834838477816151 M-0.14788073336863555 0.3512234365099557 C-0.29138166975999796 0.4366327811952403, 0.0951899686828962 0.41353430354555976, 0.37727760082439765 0.5990895155086029 C0.6593652329658991 0.784644727471646, 1.2452014515961856 1.3403456778764564, 1.5446450594803731 1.4645547082882147 C1.8440886673645607 1.588763738699973, 2.2647814150898777 1.6536669707327603, 2.173939248129523 1.3443436979791525 C2.0830970811691683 1.0350204252255448, 1.4462312600151672 -0.14441974974037627, 0.9995920577182449 -0.39138492823343213 C0.5529528554213226 -0.638350106726488, -0.6128363452541652 -0.4022781375216228, -0.5058959656520117 -0.13744737297918252 C-0.3989555860498582 0.12738339156325773, 1.7773483613878307 0.9409393887381072, 1.6412343353311658 1.1975996590212095 C1.505120309274501 1.4542599293043117, -0.8548215996982342 1.581576896954585, -1.3225801219920015 1.4025142487194304 C-1.7903386442857687 1.223451600484276, -1.4053454815574316 0.5262404365317964, -1.1653167984314374 0.1232237696102822 C-0.9252881153054433 -0.279792897311232, -0.37532247968044885 -0.7789229381771703, 0.11759197676396321 -1.0155857528096548 C0.6105064332083753 -1.2522485674421393, 1.9169127858302022 -1.306484995976169, 1.792169940235035 -1.296753118184625"
       stroke="#000000"
       stroke-width="4"
       fill="none"
       id="path56" />
  </g>
  <g
     transform="translate(20 289.4375) rotate(0 0.5 0.5)"
     id="g62">
    <path
       d="M0.9233128322975571 0.4574647612237842 C1.0191106670790957 0.42002415034849083, 1.7760767112130815 -0.8724470309299677, 1.805452437972102 -0.7128970572585077 C1.8348281647311224 -0.5533470835870478, 1.273190505777439 1.270376465868334, 1.0995671928516795 1.4147646032525443 C0.9259438799259198 1.5591527406367545, 0.7187995670273619 0.24473944575179818, 0.7637125604175437 0.15343176704675332 C0.8086255538077254 0.06212408834170846, 1.5039530650313437 0.6980111454655408, 1.3690451531927696 0.8669185310222751 C1.2341372413541956 1.0358259165790096, 0.20934194950037843 1.1314062468274508, -0.045734910613900503 1.1668760803871594 C-0.30081177072817944 1.202345913946868, -0.2394125086521484 1.0802208541998495, -0.16141600749290402 1.0797375323805263 C-0.08341950633365966 1.079254210561203, 0.2271016127873824 1.2470491731815307, 0.4222440963415657 1.1639761494712197 C0.617386579895749 1.0809031257609087, 0.9499433691804673 0.9139237395422515, 1.0094388938321956 0.5812993901186602 C1.068934418483924 0.2486750406950688, 0.9338376341197497 -0.6209080974887897, 0.7792172442519356 -0.8317699470703283 C0.6245968543841215 -1.0426317966518668, -0.058419264139018684 -0.8704354008560369, 0.0817165546253108 -0.6838717073705708 M0.17154876167144806 -0.17694190474224947 C-0.05105278093380097 0.22137518087387537, -0.3153623396997085 1.562827402528128, -0.4145976067193554 1.4625395692218195 C-0.5138328737390023 1.362251735915511, -0.48768298212120886 -0.7954074539742686, -0.42386284044643346 -0.7786689045801001 C-0.36004269877165807 -0.7619303551859316, -0.13585352500440273 1.430108683706539, -0.03167675667070313 1.5629708655868306 C0.07250001166299647 1.6958330474671222, 0.2732516163738256 -0.06619913647961956, 0.20119776955576418 0.018504186701649272 C0.12914392273770275 0.1032075098829181, -0.4658423655640896 1.9014300282569199, -0.46399983757907165 2.0711908046744436 C-0.4621573095940537 2.2409515810919673, 0.3736536740338716 1.3973460630774077, 0.2122529374658717 1.0370688452067922 C0.05085220089787179 0.6767916273361767, -1.4225011515674248 0.2235587590961878, -1.4324042569870712 -0.09047250254924985 C-1.4423073624067175 -0.4045037641946875, 0.10141610731728992 -0.7711643784264376, 0.15283430494799344 -0.8471187246658338 C0.20425250257869695 -0.92307307090523, -1.2417877414201572 -0.9374127484451251, -1.1238950712028501 -0.546198579985627 C-1.006002400985543 -0.15498441152612896, 0.37898469021031805 1.5061219835391482, 0.8601903262518357 1.5001662860911549"
       stroke="#000000"
       stroke-width="4"
       fill="none"
       id="path60" />
  </g>
  <g
     transform="translate(17.5 110.4375) rotate(0 6 13)"
     id="g66">
    <text
       x="6"
       y="18"
       font-family="Virgil, Segoe UI Emoji"
       font-size="20px"
       fill="#000000"
       text-anchor="middle"
       style="white-space: pre;"
       direction="ltr"
       id="text64">X</text>
  </g>
  <g
     transform="translate(30 118.6875) rotate(0 2 13)"
     id="g70">
    <text
       x="0"
       y="18"
       font-family="Virgil, Segoe UI Emoji"
       font-size="20px"
       fill="#000000"
       text-anchor="start"
       style="white-space: pre;"
       direction="ltr"
       id="text68">1</text>
  </g>
  <g
     transform="translate(17.5 161.8125) rotate(0 6 13)"
     id="g74">
    <text
       x="6"
       y="18"
       font-family="Virgil, Segoe UI Emoji"
       font-size="20px"
       fill="#000000"
       text-anchor="middle"
       style="white-space: pre;"
       direction="ltr"
       id="text72">X</text>
  </g>
  <g
     transform="translate(28 170.0625) rotate(0 7.5 13)"
     id="g78">
    <text
       x="0"
       y="18"
       font-family="Virgil, Segoe UI Emoji"
       font-size="20px"
       fill="#000000"
       text-anchor="start"
       style="white-space: pre;"
       direction="ltr"
       id="text76">2</text>
  </g>
  <g
     transform="translate(19.75 213.5625) rotate(0 6 13)"
     id="g82">
    <text
       x="6"
       y="18"
       font-family="Virgil, Segoe UI Emoji"
       font-size="20px"
       fill="#000000"
       text-anchor="middle"
       style="white-space: pre;"
       direction="ltr"
       id="text80">X</text>
  </g>
  <g
     transform="translate(32.25 221.8125) rotate(0 7 13)"
     id="g86">
    <text
       x="0"
       y="18"
       font-family="Virgil, Segoe UI Emoji"
       font-size="20px"
       fill="#000000"
       text-anchor="start"
       style="white-space: pre;"
       direction="ltr"
       id="text84">3</text>
  </g>
  <g
     transform="translate(14.75 307.5625) rotate(0 6 13)"
     id="g90">
    <text
       x="6"
       y="18"
       font-family="Virgil, Segoe UI Emoji"
       font-size="20px"
       fill="#000000"
       text-anchor="middle"
       style="white-space: pre;"
       direction="ltr"
       id="text88">X</text>
  </g>
  <g
     transform="translate(27.25 315.8125) rotate(0 4.5 13)"
     id="g94">
    <text
       x="0"
       y="18"
       font-family="Virgil, Segoe UI Emoji"
       font-size="20px"
       fill="#000000"
       text-anchor="start"
       style="white-space: pre;"
       direction="ltr"
       id="text92">n</text>
  </g>
  <g
     transform="translate(53.75 95.5625) rotate(0 6 13)"
     id="g98">
    <text
       x="6"
       y="18"
       font-family="Virgil, Segoe UI Emoji"
       font-size="20px"
       fill="#000000"
       text-anchor="middle"
       style="white-space: pre;"
       direction="ltr"
       id="text96">w</text>
  </g>
  <g
     transform="translate(66.25 103.8125) rotate(0 2 13)"
     id="g102">
    <text
       x="0"
       y="18"
       font-family="Virgil, Segoe UI Emoji"
       font-size="20px"
       fill="#000000"
       text-anchor="start"
       style="white-space: pre;"
       direction="ltr"
       id="text100">1</text>
  </g>
  <g
     transform="translate(55.75 148.5625) rotate(0 6 13)"
     id="g106">
    <text
       x="6"
       y="18"
       font-family="Virgil, Segoe UI Emoji"
       font-size="20px"
       fill="#000000"
       text-anchor="middle"
       style="white-space: pre;"
       direction="ltr"
       id="text104">w</text>
  </g>
  <g
     transform="translate(68.25 156.8125) rotate(0 7.5 13)"
     id="g110">
    <text
       x="0"
       y="18"
       font-family="Virgil, Segoe UI Emoji"
       font-size="20px"
       fill="#000000"
       text-anchor="start"
       style="white-space: pre;"
       direction="ltr"
       id="text108">2</text>
  </g>
  <g
     transform="translate(52.75 192.5625) rotate(0 6 13)"
     id="g114">
    <text
       x="6"
       y="18"
       font-family="Virgil, Segoe UI Emoji"
       font-size="20px"
       fill="#000000"
       text-anchor="middle"
       style="white-space: pre;"
       direction="ltr"
       id="text112">w</text>
  </g>
  <g
     transform="translate(65.25 200.8125) rotate(0 7 13)"
     id="g118">
    <text
       x="0"
       y="18"
       font-family="Virgil, Segoe UI Emoji"
       font-size="20px"
       fill="#000000"
       text-anchor="start"
       style="white-space: pre;"
       direction="ltr"
       id="text116">3</text>
  </g>
  <g
     transform="translate(53.75 284.5625) rotate(0 6 13)"
     id="g122">
    <text
       x="6"
       y="18"
       font-family="Virgil, Segoe UI Emoji"
       font-size="20px"
       fill="#000000"
       text-anchor="middle"
       style="white-space: pre;"
       direction="ltr"
       id="text120">w</text>
  </g>
  <g
     transform="translate(66.25 292.8125) rotate(0 4.5 13)"
     id="g126">
    <text
       x="0"
       y="18"
       font-family="Virgil, Segoe UI Emoji"
       font-size="20px"
       fill="#000000"
       text-anchor="start"
       style="white-space: pre;"
       direction="ltr"
       id="text124">n</text>
  </g>
  <g
     id="g132">
    <g
       transform="translate(310 168.6875) rotate(0 -25.26559623138013 34.80149281617298)"
       id="g130">
      <path
         d="M-0.8402836594730616 1.0674735758453606 C-1.1312152617921432 3.541431364789605, -1.599450496211648 11.525097367540003, -1.9830203685909509 13.823787746205927 C-2.366590240970254 16.12247812487185, -3.4916381432364383 16.868521167213718, -3.1417028937488793 14.859615847840905 C-2.7917676442613204 12.850710528468092, -0.48140409328043465 4.1763465934743484, 0.116591128334403 1.7703558299690485 C0.7145863499492406 -0.6356349335362514, 1.9930802669376135 0.14423201220730947, 0.44626843594014654 0.42367126680910594 C-1.1005433950573205 0.7031105214109024, -6.9098720743010436 2.7317680809646845, -9.1642798576504 3.446991357579827 C-11.418687640999755 4.16221463419497, -7.422963753715158 2.81664441563189, -13.080178264155984 4.7150109264999625 C-18.73739277459681 6.613377437368035, -37.59074636635681 13.11548292376101, -43.107566920295355 14.837190422788263 C-48.6243874742339 16.558897921815515, -46.15712046561141 14.338004471237461, -46.18110158778727 15.045255920663475 C-46.20508270996312 15.75250737008949, -46.95283556319773 16.47452888227999, -43.251453653350474 19.080699119344352 C-39.55007174350322 21.686869356408714, -28.882990129167837 27.91680827277402, -23.972810128703713 30.682277343049645 C-19.06263012823959 33.44774641332527, -15.58119825857381 34.64552705027163, -13.790373650565744 35.6735135409981 C-11.999549042557678 36.70150003172457, -8.863756338134408 34.61780191399157, -13.227862480655313 36.85019628740847 C-17.591968623176218 39.082590660825375, -34.65047637956838 46.78801518815259, -39.97501050569117 49.06787978149951 C-45.299544631813966 51.34774437484642, -43.31885268626114 49.528648155306776, -45.17506723739207 50.52938384748995 C-47.031281788523 51.53011953967313, -53.79156185326477 52.7844477230062, -51.112297812476754 55.07229393459856 C-48.43303377168874 57.36014014619092, -35.85729610063136 61.89325975713631, -29.09948299266398 64.2564611170441 C-22.341669884696604 66.61966247695189, -13.558263273412983 70.27352908191581, -10.565419164672495 69.25150209404528 C-7.572575055932006 68.22947510617475, -11.277686841661732 59.97846614656349, -11.142418340221047 58.12429918982089 M0.9194286899641155 0.5822932578250768 C0.49273670761535565 3.2469466341659428, -2.1052808756753802 12.15685027372092, -2.9221515257284043 14.743701564185322 C-3.7390221757814284 17.330552854649724, -4.0171038841332 18.10174233964334, -3.98179521035403 16.103401000611484 C-3.9464865365748603 14.105059661579629, -3.2421897430345417 5.352247312975427, -2.710299483053386 2.7536535299941898 C-2.1784092230722307 0.1550597470129529, 0.5867113034799696 0.007996948274473392, -0.7904536504670978 0.5118383027240634 C-2.167618604414165 1.0156796571736533, -8.502643176230293 5.237906854264438, -10.97328920673579 5.7767016566917295 C-13.443935237241288 6.3154964591190215, -10.07823780130595 1.7830931605026124, -15.614329833500086 3.7446071172878144 C-21.150421865694224 5.706121074073017, -39.32338271172097 15.366455850712955, -44.189841399900615 17.54578539740294 C-49.05630008808026 19.72511494409293, -44.55296356828262 16.545595429452757, -44.813081962577996 16.820584397427737 C-45.07320035687337 17.095573365402718, -49.279691552631554 16.749062922112643, -45.75055176567286 19.195719205252825 C-42.221411978714166 21.642375488393007, -29.27035336724172 28.765943208249904, -23.638243240825833 31.50052209626883 C-18.006133114409945 34.235100984287754, -13.798727902087073 34.862105021588505, -11.957891007177532 35.60319253336638 C-10.11705411226799 36.34428004514426, -7.8085029013082385 33.81645095001906, -12.593221871368588 35.9470471669361 C-17.377940841428938 38.07764338385314, -35.362858296545845 46.0905007689322, -40.66620482753962 48.38676983486861 C-45.9695513585334 50.683038900805016, -42.74738287360718 48.91797477455189, -44.41330105733127 49.72466156255454 C-46.079219241055355 50.53134835055719, -52.996324272466204 50.65771045060207, -50.66171392988414 53.226890562884506 C-48.32710358730207 55.796070675166945, -36.91217232059687 62.473245801640054, -30.405639001838864 65.13974223624915 C-23.899105683080855 67.80623867085825, -15.111909032973152 70.42906935305645, -11.622514017336071 69.22586917053908 C-8.13311900169899 68.02266898802172, -9.88325861206899 59.53353681774189, -9.469268908016383 57.92054114114493"
         stroke="#000000"
         stroke-width="4"
         fill="none"
         id="path128" />
    </g>
  </g>
  <g
     transform="translate(76.625 10) rotate(0 24 13)"
     id="g136">
    <text
       x="24"
       y="18"
       font-family="Virgil, Segoe UI Emoji"
       font-size="20px"
       fill="#000000"
       text-anchor="middle"
       style="white-space: pre;"
       direction="ltr"
       id="text134">X  =1</text>
  </g>
  <g
     transform="translate(90.125 17.25) rotate(0 7.5 13)"
     id="g140">
    <text
       x="0"
       y="18"
       font-family="Virgil, Segoe UI Emoji"
       font-size="20px"
       fill="#000000"
       text-anchor="start"
       style="white-space: pre;"
       direction="ltr"
       id="text138">0</text>
  </g>
  <g
     transform="translate(138.875 50.125) rotate(0 6 13)"
     id="g144">
    <text
       x="6"
       y="18"
       font-family="Virgil, Segoe UI Emoji"
       font-size="20px"
       fill="#000000"
       text-anchor="middle"
       style="white-space: pre;"
       direction="ltr"
       id="text142">w</text>
  </g>
  <g
     transform="translate(151.375 58.375) rotate(0 7.5 13)"
     id="g148">
    <text
       x="0"
       y="18"
       font-family="Virgil, Segoe UI Emoji"
       font-size="20px"
       fill="#000000"
       text-anchor="start"
       style="white-space: pre;"
       direction="ltr"
       id="text146">0</text>
  </g>
  <g
     id="g154">
    <g
       transform="translate(106 35.6875) rotate(0 63.72964320244273 68.79106351943688)"
       id="g152">
      <path
         d="M0.9359163131564856 0.01635237671434875 C22.13237343238046 22.711960838579884, 106.48835522911202 114.36529647332306, 127.4911527566612 137.31875520069153 M-0.031866351775825086 -1.0206665708497167 C20.956971533124648 22.346881861270717, 104.83243318992359 115.26254280791308, 126.40953489165756 138.60279360972345"
         stroke="#000000"
         stroke-width="1"
         fill="none"
         id="path150" />
    </g>
  </g>
  <g
     id="g168">
    <g
       transform="translate(359 213.6875) rotate(0 56.745192268118274 1.175974336639058)"
       id="g158">
      <path
         d="M-0.32692158557474615 -0.8318572785705327 C18.469476422294978 -0.17028606596092377, 94.8466355767101 2.6125900401423374, 113.81730612181127 3.183805951848626 M1.7023058526590469 1.3458137048408392 C20.23379152584821 1.7740775522713863, 94.31250038553029 1.812776599439482, 112.77334637213498 1.6827293277904392"
         stroke="#000000"
         stroke-width="1"
         fill="none"
         id="path156" />
    </g>
    <g
       transform="translate(359 213.6875) rotate(0 56.745192268118274 1.175974336639058)"
       id="g162">
      <path
         d="M83.21969370394862 11.703330301609235 C97.53551617733622 7.254956002846157, 107.44369023739114 4.096598956868387, 111.39313785564154 1.6374296729639173 M85.36356032397515 12.288945602182643 C95.1218104552577 7.454194761233294, 104.96538955140808 3.227022635862707, 113.38195500262081 1.8299315094202757"
         stroke="#000000"
         stroke-width="1"
         fill="none"
         id="path160" />
    </g>
    <g
       transform="translate(359 213.6875) rotate(0 56.745192268118274 1.175974336639058)"
       id="g166">
      <path
         d="M83.17273183402088 -8.817824562788928 C97.37235985592169 -5.333074570145717, 107.29868827157865 -0.5584352651253495, 111.39313785564154 1.6374296729639173 M85.31659845404741 -8.23220926221552 C95.15444583978942 -5.535791978501769, 105.01526079190543 -2.231328970187077, 113.38195500262081 1.8299315094202757"
         stroke="#000000"
         stroke-width="1"
         fill="none"
         id="path164" />
    </g>
  </g>
  <g
     id="g174">
    <g
       transform="translate(417.65786197414945 247.6875) rotate(354.1799625743364 -35.22535540385263 21.485945356646056)"
       id="g172">
      <path
         d="M-21.184551006084735 0.43104350231587896 C-21.642526688244654 1.8672225228610784, -22.81914258197846 7.7583885404781245, -22.837831970820833 9.18759009825477 C-22.856521359663205 10.616791656031415, -21.661410256884814 10.432716169034801, -21.296687339138977 9.006252848975748 C-20.93196442139314 7.579789528916694, -20.91852176384034 1.891952181885586, -20.649494464345803 0.6288101779004455 C-20.380467164851268 -0.6343318260846952, -18.825366351100886 1.013401827516838, -19.68252354217177 1.4274008250649035 C-20.53968073324265 1.841399822612969, -24.227996371151235 3.0805491806892964, -25.792437610771103 3.112804163188839 C-27.35687885039097 3.1450591456883816, -25.706800569408017 0.4019139872571349, -29.069170979890984 1.6209307200621603 C-32.43154139037395 2.839947452867186, -42.86391631055963 9.178708063420022, -45.966660073668905 10.426904560018992 C-49.06940383677818 11.675101056617962, -47.663149949158004 9.002511764119639, -47.685633558546606 9.110109699655986 C-47.70811716793521 9.217707635192333, -48.08598518825576 9.487635708233865, -46.101561730000505 11.072492173237073 C-44.11713827174525 12.657348638240281, -38.70572451634584 16.734030033406764, -35.77909280901507 18.61924848967523 C-32.8524611016843 20.504466945943694, -29.84512586326905 21.57958980320581, -28.541771486015897 22.38380291084787 C-27.238417108762743 23.18801601848993, -25.271670916611804 21.802551301017548, -27.958966545496146 23.44452713552759 C-30.64626217438049 25.086502970037632, -41.419110113138615 30.90030705638667, -44.665545259321945 32.23565791790813 C-47.911980405505275 33.57100877942958, -46.42403811358789 31.149941527635, -47.43757742259611 31.456632304656335 C-48.45111673160432 31.76332308167767, -52.41299802980881 32.43104390036556, -50.746781113371256 34.075802580036125 C-49.0805641969337 35.72056125970669, -41.42798731039594 39.802413271836365, -37.44027592397078 41.32518438267972 C-33.45256453754562 42.84795549352308, -28.47934090147822 43.72756338976713, -26.820512794820292 43.21242924509626 C-25.161684688162364 42.69729510042539, -27.385739918565925 39.349554406070375, -27.48730728402321 38.23437951465451 M-19.310959808597765 -0.38826260430738335 C-19.454358140737277 1.1811792513828128, -20.334530677599478 8.849624818240926, -20.702904782308895 10.59790675800705 C-21.071278887018313 12.346188697773172, -21.615046368744046 11.63396061203789, -21.521204436854266 10.10142903428936 C-21.427362504964485 8.56889745654083, -20.278013561768105 2.713374410642878, -20.139853190970204 1.4027172915158688 C-20.001692820172302 0.09206017238885944, -19.4329620078572 2.073454543596937, -20.69224221206685 2.237486319527304 C-21.951522416276504 2.4015180954576705, -26.383338468675788 2.1821595729654932, -27.695534416228128 2.38690794709807 C-29.007730363780468 2.591656321230647, -25.341555005070195 2.1505501381574095, -28.565417897380897 3.4659765643227636 C-31.7892807896916 4.781402990488118, -44.12827620340851 9.042320355177038, -47.03871177009234 10.279466504090195 C-49.94914733677617 11.516612653003351, -46.34421454617234 10.853349285020752, -46.02803129748389 10.888853457801705 C-45.711848048795446 10.924357630582659, -46.808013770594 9.115937658871117, -45.14161227796165 10.492491540775912 C-43.475210785329296 11.869045422680708, -39.14226530559612 17.20359213292688, -36.029622341689766 19.14817674923048 C-32.91697937778341 21.09276136553408, -27.923019927699197 21.56520569556021, -26.465754494523537 22.15999923859751 C-25.008489061347877 22.754792781634812, -24.086931077419326 20.99932896121233, -27.286029742635797 22.716938007454285 C-30.48512840785227 24.43454705369624, -42.37467485070071 31.154860196732635, -45.660346485822366 32.46565351604924 C-48.946018120944025 33.77644683536584, -46.25940047371143 30.09345600399762, -47.000059553365745 30.58169792335389 C-47.74071863302006 31.06993984271016, -51.50570952998038 33.994219118415, -50.104300963748244 35.39510503218686 C-48.70289239751611 36.79599094595872, -42.2770368460318 37.69227859329748, -38.59160815597295 38.98701340598505 C-34.9061794659141 40.281748218672625, -30.130408652174314 43.75616953866946, -27.991728823395146 43.16351390831229 C-25.85304899461598 42.57085827795512, -25.848326254347885 36.27453987499815, -25.759529183297946 35.431079623842024"
         stroke="#000000"
         stroke-width="2"
         fill="none"
         id="path170" />
    </g>
  </g>
  <g
     transform="translate(402.25 248.03219696969666) rotate(0 8.545454545454618 18.515151515151615)"
     id="g178">
    <text
       x="8.545454545454598"
       y="27.030303030303244"
       font-family="Virgil, Segoe UI Emoji"
       font-size="28.48484848484867px"
       fill="#000000"
       text-anchor="middle"
       style="white-space: pre;"
       direction="ltr"
       id="text176">w</text>
  </g>
  <g
     transform="translate(420.05303030303025 259.78219696969677) rotate(0 2.8484848484848726 18.515151515151615)"
     id="g182">
    <text
       x="0"
       y="27.030303030303244"
       font-family="Virgil, Segoe UI Emoji"
       font-size="28.48484848484866px"
       fill="#000000"
       text-anchor="start"
       style="white-space: pre;"
       direction="ltr"
       id="text180">i</text>
  </g>
  <g
     transform="translate(443.75 252) rotate(0 6.875 16.25)"
     id="g186">
    <text
       x="6.874999999999998"
       y="22.5"
       font-family="Virgil, Segoe UI Emoji"
       font-size="24.999999999999993px"
       fill="#000000"
       text-anchor="middle"
       style="white-space: pre;"
       direction="ltr"
       id="text184">x</text>
  </g>
  <g
     transform="translate(458.75 262.3125) rotate(0 2.5 16.25)"
     id="g190">
    <text
       x="0"
       y="22.5"
       font-family="Virgil, Segoe UI Emoji"
       font-size="24.999999999999986px"
       fill="#000000"
       text-anchor="start"
       style="white-space: pre;"
       direction="ltr"
       id="text188">i</text>
  </g>
  <g
     transform="translate(366 294.6875) rotate(0 16 13)"
     id="g194">
    <text
       x="0"
       y="18"
       font-family="Virgil, Segoe UI Emoji"
       font-size="20px"
       fill="#000000"
       text-anchor="start"
       style="white-space: pre;"
       direction="ltr"
       id="text192">i=0</text>
  </g>
  <g
     transform="translate(377 211.13194444444446) rotate(0 6.5 18.77777777777777)"
     id="g198">
    <text
       x="0"
       y="26.555555555555564"
       font-family="Virgil, Segoe UI Emoji"
       font-size="28.888888888888893px"
       fill="#000000"
       text-anchor="start"
       style="white-space: pre;"
       direction="ltr"
       id="text196">n</text>
  </g>
</svg>
