<svg xmlns="http://www.w3.org/2000/svg" version="1.1" style="font-family:Lato, &#x27;Helvetica Neue&#x27;, Helvetica, Arial, sans-serif;font-size:18px;background-color:white;text-rendering:geometricPrecision;-webkit-font-smoothing:antialiased" width="850" height="600" viewBox="0 0 850 600"><g class="HeaderView"><g transform="translate(774, 15) scale(0.29)"><svg className="owidLog" width="210" height="120" viewBox="0 0 210 120" fill="none" xmlns="http://www.w3.org/2000/svg">
<g clip-path="url(#clip0)">
  <path d="M0 0h210v107.89H0V0z" fill="#002147" />
  <path
    d="M40.98 32.25c0 2.36-.38 4.53-1.12 6.51a14.26 14.26 0 0 1-8.1 8.4c-1.9.78-4.02 1.17-6.34 1.17-2.31 0-4.42-.39-6.33-1.17a14.31 14.31 0 0 1-8.08-8.4 18.29 18.29 0 0 1-1.12-6.51c0-2.36.38-4.53 1.12-6.5.75-1.97 1.8-3.67 3.17-5.1a14.32 14.32 0 0 1 4.9-3.34c1.92-.8 4.03-1.19 6.34-1.19 2.32 0 4.43.4 6.34 1.19 1.92.8 3.56 1.9 4.93 3.34a14.87 14.87 0 0 1 3.17 5.1 18.1 18.1 0 0 1 1.12 6.5zm-4.38 0c0-1.94-.26-3.68-.8-5.22a10.91 10.91 0 0 0-2.24-3.89 9.68 9.68 0 0 0-3.52-2.46 11.95 11.95 0 0 0-4.62-.86c-1.68 0-3.21.28-4.6.86a9.88 9.88 0 0 0-3.54 2.46 10.91 10.91 0 0 0-2.24 3.9c-.53 1.53-.8 3.27-.8 5.2 0 1.94.27 3.68.8 5.22a11.17 11.17 0 0 0 2.24 3.9 10.01 10.01 0 0 0 3.55 2.44c1.38.56 2.9.83 4.6.83s3.24-.27 4.61-.83a9.8 9.8 0 0 0 3.52-2.44 11.17 11.17 0 0 0 2.25-3.9c.53-1.54.8-3.28.8-5.21zm26.22-6.54V48H60.5c-.56 0-.9-.27-1.05-.81l-.31-2.4a12.45 12.45 0 0 1-3.26 2.6c-1.2.64-2.58.96-4.13.96-1.22 0-2.3-.2-3.24-.6a6.52 6.52 0 0 1-2.33-1.7 7.37 7.37 0 0 1-1.43-2.67c-.3-1.04-.46-2.2-.46-3.45V25.7h3.91v14.22c0 1.68.38 2.99 1.15 3.91.77.93 1.96 1.39 3.54 1.39 1.16 0 2.24-.27 3.23-.82a10.42 10.42 0 0 0 2.8-2.28V25.7h3.91zm8.61 4.47a9.94 9.94 0 0 1 2.6-3.56 5.64 5.64 0 0 1 3.76-1.3c.47 0 .92.05 1.34.15.44.1.83.27 1.17.49l-.3 2.92c-.09.37-.3.55-.66.55-.2 0-.5-.04-.9-.13a6.21 6.21 0 0 0-3.24.18 4.23 4.23 0 0 0-1.47.92c-.42.4-.81.9-1.17 1.5-.33.58-.64 1.26-.92 2.02V48H67.7V25.71h2.25c.42 0 .72.08.88.25.16.16.27.44.33.83l.26 3.39zm61.16-13.7L122.75 48h-3.82l-7.99-24.05a21.95 21.95 0 0 1-.42-1.58 38.36 38.36 0 0 1-.44 1.58L102.05 48h-3.83L88.4 16.47h3.54c.38 0 .7.1.95.29.26.2.43.43.5.73l6.52 21.9.28 1.28.29 1.46.3-1.46.38-1.27 7.41-21.91c.1-.25.26-.48.51-.69.27-.22.58-.33.95-.33h1.23c.38 0 .69.1.92.29a1.77 1.77 0 0 1 .53.73l7.4 21.9a28.4 28.4 0 0 1 .68 2.62 29.52 29.52 0 0 1 .52-2.61l6.54-21.91a1.31 1.31 0 0 1 .48-.7c.27-.21.58-.32.95-.32h3.32zm9.35 8.88c1.63 0 3.1.27 4.4.82a9.43 9.43 0 0 1 5.46 5.94c.5 1.4.74 2.98.74 4.73 0 1.76-.25 3.34-.74 4.75a9.43 9.43 0 0 1-5.46 5.92c-1.3.52-2.77.79-4.4.79-1.64 0-3.12-.27-4.44-.8a9.42 9.42 0 0 1-3.35-2.3c-.92-1-1.63-2.2-2.13-3.61-.49-1.41-.73-3-.73-4.75s.24-3.33.73-4.73c.5-1.43 1.2-2.64 2.13-3.63.93-1 2.04-1.77 3.35-2.31 1.32-.55 2.8-.82 4.44-.82zm0 19.89c2.2 0 3.84-.73 4.93-2.2 1.08-1.48 1.63-3.54 1.63-6.18 0-2.66-.55-4.72-1.63-6.2-1.09-1.49-2.73-2.23-4.93-2.23-1.12 0-2.09.2-2.93.57a5.71 5.71 0 0 0-2.06 1.65c-.55.72-.96 1.61-1.24 2.67-.26 1.04-.4 2.22-.4 3.54 0 2.64.55 4.7 1.64 6.18 1.1 1.47 2.76 2.2 4.99 2.2zm17.97-15.07a9.94 9.94 0 0 1 2.6-3.56 5.64 5.64 0 0 1 3.76-1.3c.47 0 .91.05 1.34.15.44.1.83.27 1.16.49l-.28 2.92c-.09.37-.31.55-.66.55-.2 0-.5-.04-.9-.13a6.2 6.2 0 0 0-3.24.18 4.23 4.23 0 0 0-1.47.92c-.43.4-.82.9-1.17 1.5a13.1 13.1 0 0 0-.92 2.02V48h-3.94V25.71h2.24c.43 0 .72.08.88.25.17.16.28.44.33.83l.27 3.39zm15.04-14.59V48h-3.92V15.6h3.92zm19.55 15.43a6.22 6.22 0 0 0-2.38-2.05 6.7 6.7 0 0 0-2.86-.6c-2.07 0-3.66.75-4.77 2.23-1.12 1.48-1.68 3.6-1.68 6.33 0 1.46.13 2.7.38 3.74a7.29 7.29 0 0 0 1.1 2.56 4.35 4.35 0 0 0 1.78 1.45c.7.3 1.5.46 2.4.46 1.29 0 2.41-.3 3.36-.88a9.6 9.6 0 0 0 2.67-2.49V31.02zm3.91-15.43V48h-2.33c-.56 0-.9-.27-1.06-.81l-.35-2.71a12.13 12.13 0 0 1-3.25 2.77 8.28 8.28 0 0 1-4.23 1.06 7.31 7.31 0 0 1-6.14-2.9c-.73-.96-1.3-2.15-1.69-3.57a18.35 18.35 0 0 1 .07-9.48 11.29 11.29 0 0 1 1.89-3.7 8.7 8.7 0 0 1 7.06-3.34 7.96 7.96 0 0 1 6.12 2.62V15.59h3.91zM46.61 70.71V93H42.7V70.71h3.91zm.84-7c0 .39-.08.75-.24 1.09-.15.32-.35.61-.62.88-.25.25-.55.44-.9.59a2.67 2.67 0 0 1-2.16 0 2.9 2.9 0 0 1-1.45-1.47 2.67 2.67 0 0 1 0-2.16c.15-.35.35-.65.6-.9.25-.27.53-.47.85-.62a2.67 2.67 0 0 1 2.16 0c.35.15.65.35.9.62.27.25.47.55.62.9.16.34.24.7.24 1.08zm7.97 10.24c.49-.54 1-1.04 1.54-1.48a9.85 9.85 0 0 1 3.66-1.84 8.96 8.96 0 0 1 5.43.35c.94.4 1.72.97 2.33 1.71.63.74 1.11 1.62 1.43 2.67.32 1.04.49 2.19.49 3.45V93h-3.94V78.81c0-1.69-.4-3-1.17-3.92-.76-.93-1.93-1.4-3.5-1.4-1.15 0-2.24.27-3.25.83-1 .56-1.92 1.31-2.77 2.27V93h-3.94V70.71h2.35c.56 0 .9.28 1.04.82l.3 2.42zm57.7 3.3c0 2.36-.37 4.5-1.11 6.44a14.3 14.3 0 0 1-3.17 4.98c-1.37 1.37-3 2.45-4.93 3.2-1.9.76-4.02 1.13-6.33 1.13H85.8V61.47h11.77c2.31 0 4.42.39 6.33 1.15a13.8 13.8 0 0 1 8.1 8.18 17.75 17.75 0 0 1 1.12 6.45zm-4.37 0c0-1.94-.26-3.67-.8-5.2a10.94 10.94 0 0 0-2.23-3.87 9.57 9.57 0 0 0-3.53-2.42 12.23 12.23 0 0 0-4.61-.83h-7.5v24.62h7.5c1.7 0 3.24-.28 4.61-.84a9.7 9.7 0 0 0 3.53-2.4 10.94 10.94 0 0 0 2.24-3.87c.53-1.53.8-3.26.8-5.2zm19.8 5.72c-1.8.06-3.34.2-4.62.44-1.26.22-2.3.51-3.1.88-.8.36-1.37.8-1.74 1.3-.35.5-.53 1.05-.53 1.67 0 .58.1 1.1.3 1.52a3 3 0 0 0 .76 1.05c.34.27.73.46 1.17.6a6.13 6.13 0 0 0 1.45.17 7.28 7.28 0 0 0 3.5-.81 11.95 11.95 0 0 0 2.82-2.2v-4.62zm-12.65-9.11a12.73 12.73 0 0 1 3.98-2.66c1.43-.59 3-.88 4.73-.88 1.25 0 2.36.2 3.33.61a6.81 6.81 0 0 1 3.94 4.38c.33 1.04.5 2.19.5 3.43V93h-1.74a1.8 1.8 0 0 1-.88-.18c-.2-.13-.36-.38-.48-.74l-.44-2.12-1.72 1.46a9.48 9.48 0 0 1-3.74 1.7c-.69.15-1.46.23-2.3.23-.87 0-1.69-.12-2.45-.35a5.34 5.34 0 0 1-3.34-2.93 6.64 6.64 0 0 1-.49-2.64c0-.88.25-1.72.73-2.53a6.33 6.33 0 0 1 2.35-2.17c1.09-.63 2.5-1.15 4.25-1.54 1.75-.41 3.89-.65 6.42-.7v-1.75c0-1.73-.37-3.03-1.12-3.91-.75-.9-1.84-1.34-3.28-1.34-.97 0-1.78.12-2.44.37-.64.23-1.2.5-1.7.81l-1.23.82c-.33.23-.67.35-1 .35-.27 0-.5-.07-.69-.2a2.1 2.1 0 0 1-.48-.53l-.7-1.25zm27.67 19.5c-1.76 0-3.12-.5-4.07-1.48-.94-.98-1.41-2.4-1.41-4.25V74h-2.68a.9.9 0 0 1-.6-.2c-.16-.14-.24-.36-.24-.66v-1.56l3.65-.46.9-6.89c.05-.22.14-.4.29-.52a.88.88 0 0 1 .62-.22H142v7.67h6.44V74H142v13.38c0 .94.22 1.63.68 2.09.45.45 1.04.68 1.76.68a3.21 3.21 0 0 0 1.85-.53l.55-.35c.16-.12.3-.18.41-.18.2 0 .4.13.55.38l1.15 1.87a7.45 7.45 0 0 1-2.44 1.5 8.53 8.53 0 0 1-2.95.52zm19.68-10.4c-1.8.07-3.34.21-4.62.45-1.26.22-2.3.51-3.1.88-.8.36-1.37.8-1.74 1.3-.35.5-.53 1.05-.53 1.67 0 .58.1 1.1.3 1.52a2.9 2.9 0 0 0 .76 1.05c.34.27.73.46 1.17.6a6.13 6.13 0 0 0 1.45.17 7.3 7.3 0 0 0 3.5-.81 12.04 12.04 0 0 0 2.82-2.2v-4.62zm-12.65-9.1a12.72 12.72 0 0 1 3.99-2.66c1.42-.59 3-.88 4.72-.88 1.25 0 2.36.2 3.33.61a6.81 6.81 0 0 1 3.94 4.38c.33 1.04.5 2.19.5 3.43V93h-1.74a1.8 1.8 0 0 1-.88-.18c-.2-.13-.36-.38-.48-.74l-.44-2.12-1.72 1.46a9.48 9.48 0 0 1-3.74 1.7c-.69.15-1.46.23-2.3.23-.87 0-1.69-.12-2.45-.35a5.33 5.33 0 0 1-3.34-2.93 6.62 6.62 0 0 1-.49-2.64c0-.88.25-1.72.73-2.53a6.33 6.33 0 0 1 2.35-2.17c1.09-.63 2.5-1.15 4.25-1.54 1.74-.41 3.89-.65 6.42-.7v-1.75c0-1.73-.37-3.03-1.12-3.91-.75-.9-1.84-1.34-3.28-1.34-.97 0-1.78.12-2.44.37-.64.23-1.2.5-1.7.81l-1.22.82c-.34.23-.68.35-1.02.35-.26 0-.49-.07-.68-.2a1.88 1.88 0 0 1-.48-.53l-.7-1.25zM40.98 32.25c0 2.36-.38 4.53-1.12 6.51a14.26 14.26 0 0 1-8.1 8.4c-1.9.78-4.02 1.17-6.34 1.17-2.31 0-4.42-.39-6.33-1.17a14.31 14.31 0 0 1-8.08-8.4 18.29 18.29 0 0 1-1.12-6.51c0-2.36.38-4.53 1.12-6.5.75-1.97 1.8-3.67 3.17-5.1a14.32 14.32 0 0 1 4.9-3.34c1.92-.8 4.03-1.19 6.34-1.19 2.32 0 4.43.4 6.34 1.19 1.92.8 3.56 1.9 4.93 3.34a14.87 14.87 0 0 1 3.17 5.1 18.1 18.1 0 0 1 1.12 6.5zm-4.38 0c0-1.94-.26-3.68-.8-5.22a10.91 10.91 0 0 0-2.24-3.89 9.68 9.68 0 0 0-3.52-2.46 11.95 11.95 0 0 0-4.62-.86c-1.68 0-3.21.28-4.6.86a9.88 9.88 0 0 0-3.54 2.46 10.91 10.91 0 0 0-2.24 3.9c-.53 1.53-.8 3.27-.8 5.2 0 1.94.27 3.68.8 5.22a11.17 11.17 0 0 0 2.24 3.9 10.01 10.01 0 0 0 3.55 2.44c1.38.56 2.9.83 4.6.83s3.24-.27 4.61-.83a9.8 9.8 0 0 0 3.52-2.44 11.17 11.17 0 0 0 2.25-3.9c.53-1.54.8-3.28.8-5.21zm26.22-6.54V48H60.5c-.56 0-.9-.27-1.05-.81l-.31-2.4a12.45 12.45 0 0 1-3.26 2.6c-1.2.64-2.58.96-4.13.96-1.22 0-2.3-.2-3.24-.6a6.52 6.52 0 0 1-2.33-1.7 7.37 7.37 0 0 1-1.43-2.67c-.3-1.04-.46-2.2-.46-3.45V25.7h3.91v14.22c0 1.68.38 2.99 1.15 3.91.77.93 1.96 1.39 3.54 1.39 1.16 0 2.24-.27 3.23-.82a10.42 10.42 0 0 0 2.8-2.28V25.7h3.91zm8.61 4.47a9.94 9.94 0 0 1 2.6-3.56 5.64 5.64 0 0 1 3.76-1.3c.47 0 .92.05 1.34.15.44.1.83.27 1.17.49l-.3 2.92c-.09.37-.3.55-.66.55-.2 0-.5-.04-.9-.13a6.21 6.21 0 0 0-3.24.18 4.23 4.23 0 0 0-1.47.92c-.42.4-.81.9-1.17 1.5-.33.58-.64 1.26-.92 2.02V48H67.7V25.71h2.25c.42 0 .72.08.88.25.16.16.27.44.33.83l.26 3.39zm61.16-13.7L122.75 48h-3.82l-7.99-24.05a21.95 21.95 0 0 1-.42-1.58 38.36 38.36 0 0 1-.44 1.58L102.05 48h-3.83L88.4 16.47h3.54c.38 0 .7.1.95.29.26.2.43.43.5.73l6.52 21.9.28 1.28.29 1.46.3-1.46.38-1.27 7.41-21.91c.1-.25.26-.48.51-.69.27-.22.58-.33.95-.33h1.23c.38 0 .69.1.92.29a1.77 1.77 0 0 1 .53.73l7.4 21.9a28.4 28.4 0 0 1 .68 2.62 29.52 29.52 0 0 1 .52-2.61l6.54-21.91a1.31 1.31 0 0 1 .48-.7c.27-.21.58-.32.95-.32h3.32zm9.35 8.88c1.63 0 3.1.27 4.4.82a9.43 9.43 0 0 1 5.46 5.94c.5 1.4.74 2.98.74 4.73 0 1.76-.25 3.34-.74 4.75a9.43 9.43 0 0 1-5.46 5.92c-1.3.52-2.77.79-4.4.79-1.64 0-3.12-.27-4.44-.8a9.42 9.42 0 0 1-3.35-2.3c-.92-1-1.63-2.2-2.13-3.61-.49-1.41-.73-3-.73-4.75s.24-3.33.73-4.73c.5-1.43 1.2-2.64 2.13-3.63.93-1 2.04-1.77 3.35-2.31 1.32-.55 2.8-.82 4.44-.82zm0 19.89c2.2 0 3.84-.73 4.93-2.2 1.08-1.48 1.63-3.54 1.63-6.18 0-2.66-.55-4.72-1.63-6.2-1.09-1.49-2.73-2.23-4.93-2.23-1.12 0-2.09.2-2.93.57a5.71 5.71 0 0 0-2.06 1.65c-.55.72-.96 1.61-1.24 2.67-.26 1.04-.4 2.22-.4 3.54 0 2.64.55 4.7 1.64 6.18 1.1 1.47 2.76 2.2 4.99 2.2zm17.97-15.07a9.94 9.94 0 0 1 2.6-3.56 5.64 5.64 0 0 1 3.76-1.3c.47 0 .91.05 1.34.15.44.1.83.27 1.16.49l-.28 2.92c-.09.37-.31.55-.66.55-.2 0-.5-.04-.9-.13a6.2 6.2 0 0 0-3.24.18 4.23 4.23 0 0 0-1.47.92c-.43.4-.82.9-1.17 1.5a13.1 13.1 0 0 0-.92 2.02V48h-3.94V25.71h2.24c.43 0 .72.08.88.25.17.16.28.44.33.83l.27 3.39zm15.04-14.59V48h-3.92V15.6h3.92zm19.55 15.43a6.22 6.22 0 0 0-2.38-2.05 6.7 6.7 0 0 0-2.86-.6c-2.07 0-3.66.75-4.77 2.23-1.12 1.48-1.68 3.6-1.68 6.33 0 1.46.13 2.7.38 3.74a7.29 7.29 0 0 0 1.1 2.56 4.35 4.35 0 0 0 1.78 1.45c.7.3 1.5.46 2.4.46 1.29 0 2.41-.3 3.36-.88a9.6 9.6 0 0 0 2.67-2.49V31.02zm3.91-15.43V48h-2.33c-.56 0-.9-.27-1.06-.81l-.35-2.71a12.13 12.13 0 0 1-3.25 2.77 8.28 8.28 0 0 1-4.23 1.06 7.31 7.31 0 0 1-6.14-2.9c-.73-.96-1.3-2.15-1.69-3.57a18.35 18.35 0 0 1 .07-9.48 11.29 11.29 0 0 1 1.89-3.7 8.7 8.7 0 0 1 7.06-3.34 7.96 7.96 0 0 1 6.12 2.62V15.59h3.91zM46.61 70.71V93H42.7V70.71h3.91zm.84-7c0 .39-.08.75-.24 1.09-.15.32-.35.61-.62.88-.25.25-.55.44-.9.59a2.67 2.67 0 0 1-2.16 0 2.9 2.9 0 0 1-1.45-1.47 2.67 2.67 0 0 1 0-2.16c.15-.35.35-.65.6-.9.25-.27.53-.47.85-.62a2.67 2.67 0 0 1 2.16 0c.35.15.65.35.9.62.27.25.47.55.62.9.16.34.24.7.24 1.08zm7.97 10.24c.49-.54 1-1.04 1.54-1.48a9.85 9.85 0 0 1 3.66-1.84 8.96 8.96 0 0 1 5.43.35c.94.4 1.72.97 2.33 1.71.63.74 1.11 1.62 1.43 2.67.32 1.04.49 2.19.49 3.45V93h-3.94V78.81c0-1.69-.4-3-1.17-3.92-.76-.93-1.93-1.4-3.5-1.4-1.15 0-2.24.27-3.25.83-1 .56-1.92 1.31-2.77 2.27V93h-3.94V70.71h2.35c.56 0 .9.28 1.04.82l.3 2.42zm57.7 3.3c0 2.36-.37 4.5-1.11 6.44a14.3 14.3 0 0 1-3.17 4.98c-1.37 1.37-3 2.45-4.93 3.2-1.9.76-4.02 1.13-6.33 1.13H85.8V61.47h11.77c2.31 0 4.42.39 6.33 1.15a13.8 13.8 0 0 1 8.1 8.18 17.75 17.75 0 0 1 1.12 6.45zm-4.37 0c0-1.94-.26-3.67-.8-5.2a10.94 10.94 0 0 0-2.23-3.87 9.57 9.57 0 0 0-3.53-2.42 12.23 12.23 0 0 0-4.61-.83h-7.5v24.62h7.5c1.7 0 3.24-.28 4.61-.84a9.7 9.7 0 0 0 3.53-2.4 10.94 10.94 0 0 0 2.24-3.87c.53-1.53.8-3.26.8-5.2zm19.8 5.72c-1.8.06-3.34.2-4.62.44-1.26.22-2.3.51-3.1.88-.8.36-1.37.8-1.74 1.3-.35.5-.53 1.05-.53 1.67 0 .58.1 1.1.3 1.52a3 3 0 0 0 .76 1.05c.34.27.73.46 1.17.6a6.13 6.13 0 0 0 1.45.17 7.28 7.28 0 0 0 3.5-.81 11.95 11.95 0 0 0 2.82-2.2v-4.62zm-12.65-9.11a12.73 12.73 0 0 1 3.98-2.66c1.43-.59 3-.88 4.73-.88 1.25 0 2.36.2 3.33.61a6.81 6.81 0 0 1 3.94 4.38c.33 1.04.5 2.19.5 3.43V93h-1.74a1.8 1.8 0 0 1-.88-.18c-.2-.13-.36-.38-.48-.74l-.44-2.12-1.72 1.46a9.48 9.48 0 0 1-3.74 1.7c-.69.15-1.46.23-2.3.23-.87 0-1.69-.12-2.45-.35a5.34 5.34 0 0 1-3.34-2.93 6.64 6.64 0 0 1-.49-2.64c0-.88.25-1.72.73-2.53a6.33 6.33 0 0 1 2.35-2.17c1.09-.63 2.5-1.15 4.25-1.54 1.75-.41 3.89-.65 6.42-.7v-1.75c0-1.73-.37-3.03-1.12-3.91-.75-.9-1.84-1.34-3.28-1.34-.97 0-1.78.12-2.44.37-.64.23-1.2.5-1.7.81l-1.23.82c-.33.23-.67.35-1 .35-.27 0-.5-.07-.69-.2a2.1 2.1 0 0 1-.48-.53l-.7-1.25zm27.67 19.5c-1.76 0-3.12-.5-4.07-1.48-.94-.98-1.41-2.4-1.41-4.25V74h-2.68a.9.9 0 0 1-.6-.2c-.16-.14-.24-.36-.24-.66v-1.56l3.65-.46.9-6.89c.05-.22.14-.4.29-.52a.88.88 0 0 1 .62-.22H142v7.67h6.44V74H142v13.38c0 .94.22 1.63.68 2.09.45.45 1.04.68 1.76.68a3.21 3.21 0 0 0 1.85-.53l.55-.35c.16-.12.3-.18.41-.18.2 0 .4.13.55.38l1.15 1.87a7.45 7.45 0 0 1-2.44 1.5 8.53 8.53 0 0 1-2.95.52zm19.68-10.4c-1.8.07-3.34.21-4.62.45-1.26.22-2.3.51-3.1.88-.8.36-1.37.8-1.74 1.3-.35.5-.53 1.05-.53 1.67 0 .58.1 1.1.3 1.52a2.9 2.9 0 0 0 .76 1.05c.34.27.73.46 1.17.6a6.13 6.13 0 0 0 1.45.17 7.3 7.3 0 0 0 3.5-.81 12.04 12.04 0 0 0 2.82-2.2v-4.62zm-12.65-9.1a12.72 12.72 0 0 1 3.99-2.66c1.42-.59 3-.88 4.72-.88 1.25 0 2.36.2 3.33.61a6.81 6.81 0 0 1 3.94 4.38c.33 1.04.5 2.19.5 3.43V93h-1.74a1.8 1.8 0 0 1-.88-.18c-.2-.13-.36-.38-.48-.74l-.44-2.12-1.72 1.46a9.48 9.48 0 0 1-3.74 1.7c-.69.15-1.46.23-2.3.23-.87 0-1.69-.12-2.45-.35a5.33 5.33 0 0 1-3.34-2.93 6.62 6.62 0 0 1-.49-2.64c0-.88.25-1.72.73-2.53a6.33 6.33 0 0 1 2.35-2.17c1.09-.63 2.5-1.15 4.25-1.54 1.74-.41 3.89-.65 6.42-.7v-1.75c0-1.73-.37-3.03-1.12-3.91-.75-.9-1.84-1.34-3.28-1.34-.97 0-1.78.12-2.44.37-.64.23-1.2.5-1.7.81l-1.22.82c-.34.23-.68.35-1.02.35-.26 0-.49-.07-.68-.2a1.88 1.88 0 0 1-.48-.53l-.7-1.25zM40.98 32.25c0 2.36-.38 4.53-1.12 6.51a14.26 14.26 0 0 1-8.1 8.4c-1.9.78-4.02 1.17-6.34 1.17-2.31 0-4.42-.39-6.33-1.17a14.31 14.31 0 0 1-8.08-8.4 18.29 18.29 0 0 1-1.12-6.51c0-2.36.38-4.53 1.12-6.5.75-1.97 1.8-3.67 3.17-5.1a14.32 14.32 0 0 1 4.9-3.34c1.92-.8 4.03-1.19 6.34-1.19 2.32 0 4.43.4 6.34 1.19 1.92.8 3.56 1.9 4.93 3.34a14.87 14.87 0 0 1 3.17 5.1 18.1 18.1 0 0 1 1.12 6.5zm-4.38 0c0-1.94-.26-3.68-.8-5.22a10.91 10.91 0 0 0-2.24-3.89 9.68 9.68 0 0 0-3.52-2.46 11.95 11.95 0 0 0-4.62-.86c-1.68 0-3.21.28-4.6.86a9.88 9.88 0 0 0-3.54 2.46 10.91 10.91 0 0 0-2.24 3.9c-.53 1.53-.8 3.27-.8 5.2 0 1.94.27 3.68.8 5.22a11.17 11.17 0 0 0 2.24 3.9 10.01 10.01 0 0 0 3.55 2.44c1.38.56 2.9.83 4.6.83s3.24-.27 4.61-.83a9.8 9.8 0 0 0 3.52-2.44 11.17 11.17 0 0 0 2.25-3.9c.53-1.54.8-3.28.8-5.21zm26.22-6.54V48H60.5c-.56 0-.9-.27-1.05-.81l-.31-2.4a12.45 12.45 0 0 1-3.26 2.6c-1.2.64-2.58.96-4.13.96-1.22 0-2.3-.2-3.24-.6a6.52 6.52 0 0 1-2.33-1.7 7.37 7.37 0 0 1-1.43-2.67c-.3-1.04-.46-2.2-.46-3.45V25.7h3.91v14.22c0 1.68.38 2.99 1.15 3.91.77.93 1.96 1.39 3.54 1.39 1.16 0 2.24-.27 3.23-.82a10.42 10.42 0 0 0 2.8-2.28V25.7h3.91zm8.61 4.47a9.94 9.94 0 0 1 2.6-3.56 5.64 5.64 0 0 1 3.76-1.3c.47 0 .92.05 1.34.15.44.1.83.27 1.17.49l-.3 2.92c-.09.37-.3.55-.66.55-.2 0-.5-.04-.9-.13a6.21 6.21 0 0 0-3.24.18 4.23 4.23 0 0 0-1.47.92c-.42.4-.81.9-1.17 1.5-.33.58-.64 1.26-.92 2.02V48H67.7V25.71h2.25c.42 0 .72.08.88.25.16.16.27.44.33.83l.26 3.39zm61.16-13.7L122.75 48h-3.82l-7.99-24.05a21.95 21.95 0 0 1-.42-1.58 38.36 38.36 0 0 1-.44 1.58L102.05 48h-3.83L88.4 16.47h3.54c.38 0 .7.1.95.29.26.2.43.43.5.73l6.52 21.9.28 1.28.29 1.46.3-1.46.38-1.27 7.41-21.91c.1-.25.26-.48.51-.69.27-.22.58-.33.95-.33h1.23c.38 0 .69.1.92.29a1.77 1.77 0 0 1 .53.73l7.4 21.9a28.4 28.4 0 0 1 .68 2.62 29.52 29.52 0 0 1 .52-2.61l6.54-21.91a1.31 1.31 0 0 1 .48-.7c.27-.21.58-.32.95-.32h3.32zm9.35 8.88c1.63 0 3.1.27 4.4.82a9.43 9.43 0 0 1 5.46 5.94c.5 1.4.74 2.98.74 4.73 0 1.76-.25 3.34-.74 4.75a9.43 9.43 0 0 1-5.46 5.92c-1.3.52-2.77.79-4.4.79-1.64 0-3.12-.27-4.44-.8a9.42 9.42 0 0 1-3.35-2.3c-.92-1-1.63-2.2-2.13-3.61-.49-1.41-.73-3-.73-4.75s.24-3.33.73-4.73c.5-1.43 1.2-2.64 2.13-3.63.93-1 2.04-1.77 3.35-2.31 1.32-.55 2.8-.82 4.44-.82zm0 19.89c2.2 0 3.84-.73 4.93-2.2 1.08-1.48 1.63-3.54 1.63-6.18 0-2.66-.55-4.72-1.63-6.2-1.09-1.49-2.73-2.23-4.93-2.23-1.12 0-2.09.2-2.93.57a5.71 5.71 0 0 0-2.06 1.65c-.55.72-.96 1.61-1.24 2.67-.26 1.04-.4 2.22-.4 3.54 0 2.64.55 4.7 1.64 6.18 1.1 1.47 2.76 2.2 4.99 2.2zm17.97-15.07a9.94 9.94 0 0 1 2.6-3.56 5.64 5.64 0 0 1 3.76-1.3c.47 0 .91.05 1.34.15.44.1.83.27 1.16.49l-.28 2.92c-.09.37-.31.55-.66.55-.2 0-.5-.04-.9-.13a6.2 6.2 0 0 0-3.24.18 4.23 4.23 0 0 0-1.47.92c-.43.4-.82.9-1.17 1.5a13.1 13.1 0 0 0-.92 2.02V48h-3.94V25.71h2.24c.43 0 .72.08.88.25.17.16.28.44.33.83l.27 3.39zm15.04-14.59V48h-3.92V15.6h3.92zm19.55 15.43a6.22 6.22 0 0 0-2.38-2.05 6.7 6.7 0 0 0-2.86-.6c-2.07 0-3.66.75-4.77 2.23-1.12 1.48-1.68 3.6-1.68 6.33 0 1.46.13 2.7.38 3.74a7.29 7.29 0 0 0 1.1 2.56 4.35 4.35 0 0 0 1.78 1.45c.7.3 1.5.46 2.4.46 1.29 0 2.41-.3 3.36-.88a9.6 9.6 0 0 0 2.67-2.49V31.02zm3.91-15.43V48h-2.33c-.56 0-.9-.27-1.06-.81l-.35-2.71a12.13 12.13 0 0 1-3.25 2.77 8.28 8.28 0 0 1-4.23 1.06 7.31 7.31 0 0 1-6.14-2.9c-.73-.96-1.3-2.15-1.69-3.57a18.35 18.35 0 0 1 .07-9.48 11.29 11.29 0 0 1 1.89-3.7 8.7 8.7 0 0 1 7.06-3.34 7.96 7.96 0 0 1 6.12 2.62V15.59h3.91zM46.61 70.71V93H42.7V70.71h3.91zm.84-7c0 .39-.08.75-.24 1.09-.15.32-.35.61-.62.88-.25.25-.55.44-.9.59a2.67 2.67 0 0 1-2.16 0 2.9 2.9 0 0 1-1.45-1.47 2.67 2.67 0 0 1 0-2.16c.15-.35.35-.65.6-.9.25-.27.53-.47.85-.62a2.67 2.67 0 0 1 2.16 0c.35.15.65.35.9.62.27.25.47.55.62.9.16.34.24.7.24 1.08zm7.97 10.24c.49-.54 1-1.04 1.54-1.48a9.85 9.85 0 0 1 3.66-1.84 8.96 8.96 0 0 1 5.43.35c.94.4 1.72.97 2.33 1.71.63.74 1.11 1.62 1.43 2.67.32 1.04.49 2.19.49 3.45V93h-3.94V78.81c0-1.69-.4-3-1.17-3.92-.76-.93-1.93-1.4-3.5-1.4-1.15 0-2.24.27-3.25.83-1 .56-1.92 1.31-2.77 2.27V93h-3.94V70.71h2.35c.56 0 .9.28 1.04.82l.3 2.42zm57.7 3.3c0 2.36-.37 4.5-1.11 6.44a14.3 14.3 0 0 1-3.17 4.98c-1.37 1.37-3 2.45-4.93 3.2-1.9.76-4.02 1.13-6.33 1.13H85.8V61.47h11.77c2.31 0 4.42.39 6.33 1.15a13.8 13.8 0 0 1 8.1 8.18 17.75 17.75 0 0 1 1.12 6.45zm-4.37 0c0-1.94-.26-3.67-.8-5.2a10.94 10.94 0 0 0-2.23-3.87 9.57 9.57 0 0 0-3.53-2.42 12.23 12.23 0 0 0-4.61-.83h-7.5v24.62h7.5c1.7 0 3.24-.28 4.61-.84a9.7 9.7 0 0 0 3.53-2.4 10.94 10.94 0 0 0 2.24-3.87c.53-1.53.8-3.26.8-5.2zm19.8 5.72c-1.8.06-3.34.2-4.62.44-1.26.22-2.3.51-3.1.88-.8.36-1.37.8-1.74 1.3-.35.5-.53 1.05-.53 1.67 0 .58.1 1.1.3 1.52a3 3 0 0 0 .76 1.05c.34.27.73.46 1.17.6a6.13 6.13 0 0 0 1.45.17 7.28 7.28 0 0 0 3.5-.81 11.95 11.95 0 0 0 2.82-2.2v-4.62zm-12.65-9.11a12.73 12.73 0 0 1 3.98-2.66c1.43-.59 3-.88 4.73-.88 1.25 0 2.36.2 3.33.61a6.81 6.81 0 0 1 3.94 4.38c.33 1.04.5 2.19.5 3.43V93h-1.74a1.8 1.8 0 0 1-.88-.18c-.2-.13-.36-.38-.48-.74l-.44-2.12-1.72 1.46a9.48 9.48 0 0 1-3.74 1.7c-.69.15-1.46.23-2.3.23-.87 0-1.69-.12-2.45-.35a5.34 5.34 0 0 1-3.34-2.93 6.64 6.64 0 0 1-.49-2.64c0-.88.25-1.72.73-2.53a6.33 6.33 0 0 1 2.35-2.17c1.09-.63 2.5-1.15 4.25-1.54 1.75-.41 3.89-.65 6.42-.7v-1.75c0-1.73-.37-3.03-1.12-3.91-.75-.9-1.84-1.34-3.28-1.34-.97 0-1.78.12-2.44.37-.64.23-1.2.5-1.7.81l-1.23.82c-.33.23-.67.35-1 .35-.27 0-.5-.07-.69-.2a2.1 2.1 0 0 1-.48-.53l-.7-1.25zm27.67 19.5c-1.76 0-3.12-.5-4.07-1.48-.94-.98-1.41-2.4-1.41-4.25V74h-2.68a.9.9 0 0 1-.6-.2c-.16-.14-.24-.36-.24-.66v-1.56l3.65-.46.9-6.89c.05-.22.14-.4.29-.52a.88.88 0 0 1 .62-.22H142v7.67h6.44V74H142v13.38c0 .94.22 1.63.68 2.09.45.45 1.04.68 1.76.68a3.21 3.21 0 0 0 1.85-.53l.55-.35c.16-.12.3-.18.41-.18.2 0 .4.13.55.38l1.15 1.87a7.45 7.45 0 0 1-2.44 1.5 8.53 8.53 0 0 1-2.95.52zm19.68-10.4c-1.8.07-3.34.21-4.62.45-1.26.22-2.3.51-3.1.88-.8.36-1.37.8-1.74 1.3-.35.5-.53 1.05-.53 1.67 0 .58.1 1.1.3 1.52a2.9 2.9 0 0 0 .76 1.05c.34.27.73.46 1.17.6a6.13 6.13 0 0 0 1.45.17 7.3 7.3 0 0 0 3.5-.81 12.04 12.04 0 0 0 2.82-2.2v-4.62zm-12.65-9.1a12.72 12.72 0 0 1 3.99-2.66c1.42-.59 3-.88 4.72-.88 1.25 0 2.36.2 3.33.61a6.81 6.81 0 0 1 3.94 4.38c.33 1.04.5 2.19.5 3.43V93h-1.74a1.8 1.8 0 0 1-.88-.18c-.2-.13-.36-.38-.48-.74l-.44-2.12-1.72 1.46a9.48 9.48 0 0 1-3.74 1.7c-.69.15-1.46.23-2.3.23-.87 0-1.69-.12-2.45-.35a5.33 5.33 0 0 1-3.34-2.93 6.62 6.62 0 0 1-.49-2.64c0-.88.25-1.72.73-2.53a6.33 6.33 0 0 1 2.35-2.17c1.09-.63 2.5-1.15 4.25-1.54 1.74-.41 3.89-.65 6.42-.7v-1.75c0-1.73-.37-3.03-1.12-3.91-.75-.9-1.84-1.34-3.28-1.34-.97 0-1.78.12-2.44.37-.64.23-1.2.5-1.7.81l-1.22.82c-.34.23-.68.35-1.02.35-.26 0-.49-.07-.68-.2a1.88 1.88 0 0 1-.48-.53l-.7-1.25z"
    fill="#fff"
  />
  <path fill="#D42B21" d="M0 106.79h210V120H0z" />
</g>
<defs>
  <clipPath id="clip0"><path fill="#fff" d="M0 0h210v120H0z" /></clipPath>
</defs>
</svg></g><a href="https://ourworldindata.org/explorers/coronavirus-data-explorer?zoomToSelection=true&amp;facet=none&amp;pickerSort=asc&amp;pickerMetric=location&amp;hideControls=true&amp;Metric=Confirmed+cases&amp;Interval=Cumulative&amp;Relative+to+Population=false&amp;Align+outbreaks=false&amp;country=~OWID_WRL" style="font-family:&quot;Playfair Display&quot;, Georgia, &quot;Times New Roman&quot;, serif" target="_blank" rel="noopener"><text font-size="25.20" x="15.0" y="35.2" fill="#555"><tspan x="15" y="35.160000000000004">Cumulative confirmed COVID-19 cases</tspan></text></a><text font-size="14.40" x="15.0" y="55.7" fill="#666"><tspan x="15" y="55.72">Due to limited testing, the number of confirmed cases is lower than the true number of infections.</tspan></text></g><g class="LineChart"><defs><clipPath id="boundsClip-2"><rect x="87.598" y="66.6" width="840" height="490.79999999999995"></rect></clipPath></defs><g class="DualAxisView"><g class="HorizontalAxis"><line x1="97.6" y1="526.1999999999999" x2="97.6" y2="531.1999999999999" stroke="#999"></line><line x1="764.8" y1="526.1999999999999" x2="764.8" y2="531.1999999999999" stroke="#999"></line><line x1="298.2" y1="526.1999999999999" x2="298.2" y2="531.1999999999999" stroke="#999"></line><line x1="398.9" y1="526.1999999999999" x2="398.9" y2="531.1999999999999" stroke="#999"></line><line x1="600.5" y1="526.1999999999999" x2="600.5" y2="531.1999999999999" stroke="#999"></line><text x="97.598" y="547.4" fill="#666" text-anchor="start" font-size="16.2">Jan 22, 2020</text><text x="764.765" y="547.4" fill="#666" text-anchor="end" font-size="16.2">Nov 14, 2021</text><text x="298.2" y="547.4" fill="#666" text-anchor="middle" font-size="16.2">Aug 8, 2020</text><text x="398.9" y="547.4" fill="#666" text-anchor="middle" font-size="16.2">Nov 16, 2020</text><text x="600.5" y="547.4" fill="#666" text-anchor="middle" font-size="16.2">Jun 4, 2021</text></g><g class="VerticalAxis"><text x="92.60" y="526.2" dy=".32em" text-anchor="end" fill="#666" font-size="16.2">0</text><text x="92.60" y="437.5" dy=".32em" text-anchor="end" fill="#666" font-size="16.2">50 million</text><text x="92.60" y="348.7" dy=".32em" text-anchor="end" fill="#666" font-size="16.2">100 million</text><text x="92.60" y="260" dy=".32em" text-anchor="end" fill="#666" font-size="16.2">150 million</text><text x="92.60" y="171.2" dy=".32em" text-anchor="end" fill="#666" font-size="16.2">200 million</text><text x="92.60" y="82.5" dy=".32em" text-anchor="end" fill="#666" font-size="16.2">250 million</text></g><g class="AxisGridLines horizontalLines"><line x1="97.60" y1="526.2" x2="764.76" y2="526.2" stroke="#999"></line><line x1="97.60" y1="437.5" x2="764.76" y2="437.5" stroke="#ddd" stroke-dasharray="3,2"></line><line x1="97.60" y1="348.7" x2="764.76" y2="348.7" stroke="#ddd" stroke-dasharray="3,2"></line><line x1="97.60" y1="260" x2="764.76" y2="260" stroke="#ddd" stroke-dasharray="3,2"></line><line x1="97.60" y1="171.2" x2="764.76" y2="171.2" stroke="#ddd" stroke-dasharray="3,2"></line><line x1="97.60" y1="82.5" x2="764.76" y2="82.5" stroke="#ddd" stroke-dasharray="3,2"></line></g></g><g clip-path="url(#boundsClip-2)"><g class="LineLabels" style="cursor:default"><g class="legendMark"><rect x="764.765" y="76.6" width="70.235" height="13.5" fill="#fff" opacity="0"></rect><text font-size="13.50" x="768.8" y="87.4" fill="#3C4E66"><tspan x="768.765" y="87.39999999999999">World</tspan></text></g></g><g class="Lines"><rect x="98" y="77" width="667" height="450" fill="rgba(255,255,255,0)" opacity="0"></rect><g><path stroke-linecap="round" stroke-linejoin="round" stroke="#ddd" d="M97.6 526.2L98.6 526.2L99.6 526.2L100.6 526.2L101.6 526.2L102.6 526.2L103.6 526.2L104.7 526.2L105.7 526.2L106.7 526.2L107.7 526.2L108.7 526.2L109.7 526.2L110.7 526.2L111.7 526.2L112.7 526.1L113.7 526.1L114.7 526.1L115.7 526.1L116.7 526.1L117.8 526.1L118.8 526.1L119.8 526.1L120.8 526.1L121.8 526.1L122.8 526.1L123.8 526.1L124.8 526.1L125.8 526.1L126.8 526.1L127.8 526.1L128.8 526.1L129.8 526.1L130.9 526.1L131.9 526.1L132.9 526.1L133.9 526.1L134.9 526.1L135.9 526L136.9 526L137.9 526L138.9 526L139.9 526L140.9 526L141.9 526L142.9 526L144 526L145 526L146 526L147 526L148 526L149 525.9L150 525.9L151 525.9L152 525.9L153 525.8L154 525.8L155 525.8L156.1 525.7L157.1 525.7L158.1 525.6L159.1 525.5L160.1 525.4L161.1 525.3L162.1 525.2L163.1 525.1L164.1 525L165.1 524.9L166.1 524.8L167.1 524.6L168.1 524.5L169.2 524.3L170.2 524.2L171.2 524.1L172.2 524L173.2 523.8L174.2 523.7L175.2 523.6L176.2 523.4L177.2 523.3L178.2 523.1L179.2 522.9L180.2 522.8L181.2 522.6L182.3 522.5L183.3 522.3L184.3 522.2L185.3 522L186.3 521.9L187.3 521.8L188.3 521.6L189.3 521.5L190.3 521.3L191.3 521.2L192.3 521L193.3 520.9L194.3 520.8L195.4 520.7L196.4 520.5L197.4 520.4L198.4 520.2L199.4 520.1L200.4 519.9L201.4 519.8L202.4 519.7L203.4 519.5L204.4 519.3L205.4 519.2L206.4 519L207.4 518.9L208.5 518.8L209.5 518.6L210.5 518.5L211.5 518.3L212.5 518.1L213.5 518L214.5 517.8L215.5 517.7L216.5 517.5L217.5 517.3L218.5 517.1L219.5 516.9L220.6 516.7L221.6 516.6L222.6 516.4L223.6 516.3L224.6 516.1L225.6 515.9L226.6 515.6L227.6 515.4L228.6 515.2L229.6 515L230.6 514.8L231.6 514.6L232.6 514.4L233.7 514.2L234.7 513.9L235.7 513.7L236.7 513.5L237.7 513.3L238.7 513.1L239.7 512.8L240.7 512.6L241.7 512.4L242.7 512.1L243.7 511.9L244.7 511.7L245.7 511.4L246.8 511.2L247.8 510.8L248.8 510.6L249.8 510.3L250.8 510.1L251.8 509.8L252.8 509.5L253.8 509.2L254.8 508.8L255.8 508.5L256.8 508.2L257.8 508L258.8 507.6L259.9 507.3L260.9 506.9L261.9 506.5L262.9 506.2L263.9 505.8L264.9 505.6L265.9 505.2L266.9 504.8L267.9 504.4L268.9 504L269.9 503.6L270.9 503.3L271.9 502.9L273 502.5L274 502.1L275 501.7L276 501.2L277 500.8L278 500.4L279 500.1L280 499.7L281 499.2L282 498.7L283 498.2L284 497.7L285 497.3L286.1 496.9L287.1 496.5L288.1 496L289.1 495.5L290.1 495L291.1 494.5L292.1 494.1L293.1 493.7L294.1 493.3L295.1 492.8L296.1 492.3L297.1 491.8L298.2 491.3L299.2 490.9L300.2 490.5L301.2 490.1L302.2 489.6L303.2 489.1L304.2 488.5L305.2 488.1L306.2 487.7L307.2 487.3L308.2 486.9L309.2 486.4L310.2 485.9L311.3 485.4L312.3 485L313.3 484.6L314.3 484.2L315.3 483.8L316.3 483.3L317.3 482.8L318.3 482.3L319.3 481.8L320.3 481.4L321.3 480.9L322.3 480.5L323.3 480L324.4 479.5L325.4 478.9L326.4 478.4L327.4 478L328.4 477.6L329.4 477.2L330.4 476.7L331.4 476.2L332.4 475.6L333.4 475.1L334.4 474.6L335.4 474.2L336.4 473.7L337.5 473.1L338.5 472.6L339.5 472L340.5 471.5L341.5 471L342.5 470.5L343.5 470L344.5 469.5L345.5 468.9L346.5 468.3L347.5 467.8L348.5 467.4L349.5 466.9L350.6 466.4L351.6 465.8L352.6 465.3L353.6 464.7L354.6 464.1L355.6 463.7L356.6 463.2L357.6 462.6L358.6 461.9L359.6 461.3L360.6 460.7L361.6 460L362.7 459.5L363.7 459L364.7 458.4L365.7 457.8L366.7 457L367.7 456.3L368.7 455.6L369.7 455.1L370.7 454.4L371.7 453.7L372.7 452.9L373.7 452.1L374.7 451.2L375.8 450.4L376.8 449.7L377.8 448.9L378.8 448L379.8 447.1L380.8 446.2L381.8 445.1L382.8 444.3L383.8 443.5L384.8 442.5L385.8 441.5L386.8 440.6L387.8 439.5L388.9 438.4L389.9 437.3L390.9 436.5L391.9 435.6L392.9 434.6L393.9 433.4L394.9 432.3L395.9 431.1L396.9 430L397.9 429.2L398.9 428.3L399.9 427.2L400.9 426.1L402 424.9L403 423.7L404 422.7L405 421.8L406 420.9L407 419.8L408 418.7L409 417.6L410 416.4L411 415.4L412 414.5L413 413.6L414 412.5L415.1 411.4L416.1 410.1L417.1 408.9L418.1 407.8L419.1 406.8L420.1 405.9L421.1 404.7L422.1 403.5L423.1 400.9L424.1 399.6L425.1 398.5L426.1 397.6L427.2 396.6L428.2 395.5L429.2 394.2L430.2 392.9L431.2 391.6L432.2 390.5L433.2 389.5L434.2 388.6L435.2 387.4L436.2 386.2L437.2 385L438.2 384.1L439.2 383.2L440.3 382.5L441.3 381.6L442.3 380.4L443.3 379.1L444.3 377.8L445.3 376.8L446.3 375.7L447.3 374.8L448.3 373.8L449.3 372.5L450.3 371.1L451.3 369.5L452.3 368.1L453.4 366.7L454.4 365.7L455.4 364.6L456.4 363.3L457.4 362L458.4 360.7L459.4 359.3L460.4 358.1L461.4 357.2L462.4 356.3L463.4 355.2L464.4 354L465.4 352.8L466.5 351.7L467.5 350.7L468.5 349.9L469.5 349L470.5 348L471.5 346.9L472.5 345.9L473.5 344.8L474.5 343.9L475.5 343.2L476.5 342.4L477.5 341.6L478.5 340.7L479.6 339.9L480.6 338.9L481.6 338.2L482.6 337.5L483.6 337L484.6 336.2L485.6 335.5L486.6 334.7L487.6 333.9L488.6 333.2L489.6 332.7L490.6 332.2L491.6 331.6L492.7 330.9L493.7 330.2L494.7 329.5L495.7 328.8L496.7 328.2L497.7 327.7L498.7 327L499.7 326.2L500.7 325.4L501.7 324.7L502.7 324L503.7 323.4L504.8 322.9L505.8 322.3L506.8 321.6L507.8 320.8L508.8 320L509.8 319.2L510.8 318.6L511.8 318L512.8 317.3L513.8 316.5L514.8 315.6L515.8 314.8L516.8 314L517.9 313.3L518.9 312.7L519.9 311.9L520.9 310.9L521.9 309.9L522.9 308.9L523.9 308.1L524.9 307.3L525.9 306.5L526.9 305.6L527.9 304.5L528.9 303.3L529.9 302.2L531 301.2L532 300.3L533 299.5L534 298.5L535 297.3L536 296L537 294.9L538 294L539 293L540 292.1L541 291L542 289.8L543 288.3L544.1 287L545.1 285.8L546.1 284.6L547.1 283.5L548.1 282.1L549.1 280.7L550.1 279.2L551.1 277.7L552.1 276.3L553.1 275.1L554.1 273.9L555.1 272.3L556.1 270.8L557.2 269.2L558.2 267.6L559.2 266.1L560.2 264.8L561.2 263.6L562.2 262.1L563.2 260.5L564.2 258.9L565.2 257.4L566.2 255.9L567.2 254.7L568.2 253.5L569.3 252.1L570.3 250.6L571.3 249.1L572.3 247.6L573.3 246.2L574.3 245.1L575.3 243.9L576.3 242.6L577.3 241.3L578.3 240L579.3 238.7L580.3 237.6L581.3 236.6L582.4 235.7L583.4 234.6L584.4 233.4L585.4 232.9L586.4 231.8L587.4 230.7L588.4 229.9L589.4 229.1L590.4 228.2L591.4 227.1L592.4 226.2L593.4 225.3L594.4 224.4L595.5 223.7L596.5 223L597.5 222.2L598.5 221.4L599.5 220.5L600.5 219.8L601.5 219L602.5 218.5L603.5 217.9L604.5 217.2L605.5 216.5L606.5 215.7L607.5 215L608.6 214.3L609.6 213.8L610.6 213.2L611.6 212.6L612.6 211.8L613.6 211.2L614.6 210.4L615.6 209.8L616.6 209.3L617.6 208.8L618.6 208.1L619.6 207.3L620.6 206.6L621.7 205.8L622.7 205.2L623.7 204.6L624.7 204.1L625.7 203.4L626.7 202.7L627.7 201.9L628.7 201.1L629.7 200.4L630.7 199.9L631.7 199.2L632.7 198.4L633.8 197.6L634.8 196.7L635.8 195.8L636.8 195.1L637.8 194.4L638.8 193.6L639.8 192.7L640.8 191.8L641.8 190.7L642.8 189.7L643.8 188.8L644.8 188.1L645.8 187.2L646.9 186.2L647.9 185.3L648.9 184.3L649.9 183L650.9 182.2L651.9 181.4L652.9 180.4L653.9 179.4L654.9 178.2L655.9 177.1L656.9 175.8L657.9 174.9L658.9 174L660 173L661 171.8L662 170.6L663 169.4L664 168L665 167L666 166.2L667 165L668 163.9L669 162.6L670 161.3L671 159.9L672 159L673.1 158.1L674.1 156.9L675.1 155.7L676.1 154.4L677.1 153.2L678.1 151.8L679.1 150.8L680.1 150L681.1 148.8L682.1 147.5L683.1 146.2L684.1 144.9L685.1 143.6L686.2 142.6L687.2 141.8L688.2 140.6L689.2 139.5L690.2 138.2L691.2 137L692.2 135.8L693.2 134.9L694.2 134.1L695.2 133.4L696.2 132L697.2 130.9L698.2 129.8L699.3 128.7L700.3 127.9L701.3 127.2L702.3 126.1L703.3 125.2L704.3 124.2L705.3 123.1L706.3 122.1L707.3 121.1L708.3 120.5L709.3 119.5L710.3 118.7L711.4 117.8L712.4 116.8L713.4 115.9L714.4 115.2L715.4 114.6L716.4 113.8L717.4 113L718.4 112.1L719.4 111.2L720.4 110.3L721.4 109.7L722.4 109.1L723.4 108.3L724.5 107.6L725.5 106.7L726.5 105.9L727.5 105.1L728.5 104.5L729.5 103.9L730.5 103.2L731.5 102.5L732.5 101.6L733.5 100.9L734.5 100L735.5 99.5L736.5 98.9L737.6 98.2L738.6 97.4L739.6 96.5L740.6 95.7L741.6 94.9L742.6 94.2L743.6 93.7L744.6 92.9L745.6 92.1L746.6 91.2L747.6 90.4L748.6 89.5L749.6 88.8L750.7 88.3L751.7 87.5L752.7 86.8L753.7 85.8L754.7 84.9L755.7 84L756.7 83.3L757.7 82.7L758.7 81.8L759.7 81L760.7 79.9L761.7 79L762.7 78L763.8 77.2L764.8 76.6" fill="none" stroke-width="1"></path></g><g><path stroke="#3C4E66" stroke-linecap="round" stroke-linejoin="round" d="M97.6 526.2L98.6 526.2L99.6 526.2L100.6 526.2L101.6 526.2L102.6 526.2L103.6 526.2L104.7 526.2L105.7 526.2L106.7 526.2L107.7 526.2L108.7 526.2L109.7 526.2L110.7 526.2L111.7 526.2L112.7 526.1L113.7 526.1L114.7 526.1L115.7 526.1L116.7 526.1L117.8 526.1L118.8 526.1L119.8 526.1L120.8 526.1L121.8 526.1L122.8 526.1L123.8 526.1L124.8 526.1L125.8 526.1L126.8 526.1L127.8 526.1L128.8 526.1L129.8 526.1L130.9 526.1L131.9 526.1L132.9 526.1L133.9 526.1L134.9 526.1L135.9 526L136.9 526L137.9 526L138.9 526L139.9 526L140.9 526L141.9 526L142.9 526L144 526L145 526L146 526L147 526L148 526L149 525.9L150 525.9L151 525.9L152 525.9L153 525.8L154 525.8L155 525.8L156.1 525.7L157.1 525.7L158.1 525.6L159.1 525.5L160.1 525.4L161.1 525.3L162.1 525.2L163.1 525.1L164.1 525L165.1 524.9L166.1 524.8L167.1 524.6L168.1 524.5L169.2 524.3L170.2 524.2L171.2 524.1L172.2 524L173.2 523.8L174.2 523.7L175.2 523.6L176.2 523.4L177.2 523.3L178.2 523.1L179.2 522.9L180.2 522.8L181.2 522.6L182.3 522.5L183.3 522.3L184.3 522.2L185.3 522L186.3 521.9L187.3 521.8L188.3 521.6L189.3 521.5L190.3 521.3L191.3 521.2L192.3 521L193.3 520.9L194.3 520.8L195.4 520.7L196.4 520.5L197.4 520.4L198.4 520.2L199.4 520.1L200.4 519.9L201.4 519.8L202.4 519.7L203.4 519.5L204.4 519.3L205.4 519.2L206.4 519L207.4 518.9L208.5 518.8L209.5 518.6L210.5 518.5L211.5 518.3L212.5 518.1L213.5 518L214.5 517.8L215.5 517.7L216.5 517.5L217.5 517.3L218.5 517.1L219.5 516.9L220.6 516.7L221.6 516.6L222.6 516.4L223.6 516.3L224.6 516.1L225.6 515.9L226.6 515.6L227.6 515.4L228.6 515.2L229.6 515L230.6 514.8L231.6 514.6L232.6 514.4L233.7 514.2L234.7 513.9L235.7 513.7L236.7 513.5L237.7 513.3L238.7 513.1L239.7 512.8L240.7 512.6L241.7 512.4L242.7 512.1L243.7 511.9L244.7 511.7L245.7 511.4L246.8 511.2L247.8 510.8L248.8 510.6L249.8 510.3L250.8 510.1L251.8 509.8L252.8 509.5L253.8 509.2L254.8 508.8L255.8 508.5L256.8 508.2L257.8 508L258.8 507.6L259.9 507.3L260.9 506.9L261.9 506.5L262.9 506.2L263.9 505.8L264.9 505.6L265.9 505.2L266.9 504.8L267.9 504.4L268.9 504L269.9 503.6L270.9 503.3L271.9 502.9L273 502.5L274 502.1L275 501.7L276 501.2L277 500.8L278 500.4L279 500.1L280 499.7L281 499.2L282 498.7L283 498.2L284 497.7L285 497.3L286.1 496.9L287.1 496.5L288.1 496L289.1 495.5L290.1 495L291.1 494.5L292.1 494.1L293.1 493.7L294.1 493.3L295.1 492.8L296.1 492.3L297.1 491.8L298.2 491.3L299.2 490.9L300.2 490.5L301.2 490.1L302.2 489.6L303.2 489.1L304.2 488.5L305.2 488.1L306.2 487.7L307.2 487.3L308.2 486.9L309.2 486.4L310.2 485.9L311.3 485.4L312.3 485L313.3 484.6L314.3 484.2L315.3 483.8L316.3 483.3L317.3 482.8L318.3 482.3L319.3 481.8L320.3 481.4L321.3 480.9L322.3 480.5L323.3 480L324.4 479.5L325.4 478.9L326.4 478.4L327.4 478L328.4 477.6L329.4 477.2L330.4 476.7L331.4 476.2L332.4 475.6L333.4 475.1L334.4 474.6L335.4 474.2L336.4 473.7L337.5 473.1L338.5 472.6L339.5 472L340.5 471.5L341.5 471L342.5 470.5L343.5 470L344.5 469.5L345.5 468.9L346.5 468.3L347.5 467.8L348.5 467.4L349.5 466.9L350.6 466.4L351.6 465.8L352.6 465.3L353.6 464.7L354.6 464.1L355.6 463.7L356.6 463.2L357.6 462.6L358.6 461.9L359.6 461.3L360.6 460.7L361.6 460L362.7 459.5L363.7 459L364.7 458.4L365.7 457.8L366.7 457L367.7 456.3L368.7 455.6L369.7 455.1L370.7 454.4L371.7 453.7L372.7 452.9L373.7 452.1L374.7 451.2L375.8 450.4L376.8 449.7L377.8 448.9L378.8 448L379.8 447.1L380.8 446.2L381.8 445.1L382.8 444.3L383.8 443.5L384.8 442.5L385.8 441.5L386.8 440.6L387.8 439.5L388.9 438.4L389.9 437.3L390.9 436.5L391.9 435.6L392.9 434.6L393.9 433.4L394.9 432.3L395.9 431.1L396.9 430L397.9 429.2L398.9 428.3L399.9 427.2L400.9 426.1L402 424.9L403 423.7L404 422.7L405 421.8L406 420.9L407 419.8L408 418.7L409 417.6L410 416.4L411 415.4L412 414.5L413 413.6L414 412.5L415.1 411.4L416.1 410.1L417.1 408.9L418.1 407.8L419.1 406.8L420.1 405.9L421.1 404.7L422.1 403.5L423.1 400.9L424.1 399.6L425.1 398.5L426.1 397.6L427.2 396.6L428.2 395.5L429.2 394.2L430.2 392.9L431.2 391.6L432.2 390.5L433.2 389.5L434.2 388.6L435.2 387.4L436.2 386.2L437.2 385L438.2 384.1L439.2 383.2L440.3 382.5L441.3 381.6L442.3 380.4L443.3 379.1L444.3 377.8L445.3 376.8L446.3 375.7L447.3 374.8L448.3 373.8L449.3 372.5L450.3 371.1L451.3 369.5L452.3 368.1L453.4 366.7L454.4 365.7L455.4 364.6L456.4 363.3L457.4 362L458.4 360.7L459.4 359.3L460.4 358.1L461.4 357.2L462.4 356.3L463.4 355.2L464.4 354L465.4 352.8L466.5 351.7L467.5 350.7L468.5 349.9L469.5 349L470.5 348L471.5 346.9L472.5 345.9L473.5 344.8L474.5 343.9L475.5 343.2L476.5 342.4L477.5 341.6L478.5 340.7L479.6 339.9L480.6 338.9L481.6 338.2L482.6 337.5L483.6 337L484.6 336.2L485.6 335.5L486.6 334.7L487.6 333.9L488.6 333.2L489.6 332.7L490.6 332.2L491.6 331.6L492.7 330.9L493.7 330.2L494.7 329.5L495.7 328.8L496.7 328.2L497.7 327.7L498.7 327L499.7 326.2L500.7 325.4L501.7 324.7L502.7 324L503.7 323.4L504.8 322.9L505.8 322.3L506.8 321.6L507.8 320.8L508.8 320L509.8 319.2L510.8 318.6L511.8 318L512.8 317.3L513.8 316.5L514.8 315.6L515.8 314.8L516.8 314L517.9 313.3L518.9 312.7L519.9 311.9L520.9 310.9L521.9 309.9L522.9 308.9L523.9 308.1L524.9 307.3L525.9 306.5L526.9 305.6L527.9 304.5L528.9 303.3L529.9 302.2L531 301.2L532 300.3L533 299.5L534 298.5L535 297.3L536 296L537 294.9L538 294L539 293L540 292.1L541 291L542 289.8L543 288.3L544.1 287L545.1 285.8L546.1 284.6L547.1 283.5L548.1 282.1L549.1 280.7L550.1 279.2L551.1 277.7L552.1 276.3L553.1 275.1L554.1 273.9L555.1 272.3L556.1 270.8L557.2 269.2L558.2 267.6L559.2 266.1L560.2 264.8L561.2 263.6L562.2 262.1L563.2 260.5L564.2 258.9L565.2 257.4L566.2 255.9L567.2 254.7L568.2 253.5L569.3 252.1L570.3 250.6L571.3 249.1L572.3 247.6L573.3 246.2L574.3 245.1L575.3 243.9L576.3 242.6L577.3 241.3L578.3 240L579.3 238.7L580.3 237.6L581.3 236.6L582.4 235.7L583.4 234.6L584.4 233.4L585.4 232.9L586.4 231.8L587.4 230.7L588.4 229.9L589.4 229.1L590.4 228.2L591.4 227.1L592.4 226.2L593.4 225.3L594.4 224.4L595.5 223.7L596.5 223L597.5 222.2L598.5 221.4L599.5 220.5L600.5 219.8L601.5 219L602.5 218.5L603.5 217.9L604.5 217.2L605.5 216.5L606.5 215.7L607.5 215L608.6 214.3L609.6 213.8L610.6 213.2L611.6 212.6L612.6 211.8L613.6 211.2L614.6 210.4L615.6 209.8L616.6 209.3L617.6 208.8L618.6 208.1L619.6 207.3L620.6 206.6L621.7 205.8L622.7 205.2L623.7 204.6L624.7 204.1L625.7 203.4L626.7 202.7L627.7 201.9L628.7 201.1L629.7 200.4L630.7 199.9L631.7 199.2L632.7 198.4L633.8 197.6L634.8 196.7L635.8 195.8L636.8 195.1L637.8 194.4L638.8 193.6L639.8 192.7L640.8 191.8L641.8 190.7L642.8 189.7L643.8 188.8L644.8 188.1L645.8 187.2L646.9 186.2L647.9 185.3L648.9 184.3L649.9 183L650.9 182.2L651.9 181.4L652.9 180.4L653.9 179.4L654.9 178.2L655.9 177.1L656.9 175.8L657.9 174.9L658.9 174L660 173L661 171.8L662 170.6L663 169.4L664 168L665 167L666 166.2L667 165L668 163.9L669 162.6L670 161.3L671 159.9L672 159L673.1 158.1L674.1 156.9L675.1 155.7L676.1 154.4L677.1 153.2L678.1 151.8L679.1 150.8L680.1 150L681.1 148.8L682.1 147.5L683.1 146.2L684.1 144.9L685.1 143.6L686.2 142.6L687.2 141.8L688.2 140.6L689.2 139.5L690.2 138.2L691.2 137L692.2 135.8L693.2 134.9L694.2 134.1L695.2 133.4L696.2 132L697.2 130.9L698.2 129.8L699.3 128.7L700.3 127.9L701.3 127.2L702.3 126.1L703.3 125.2L704.3 124.2L705.3 123.1L706.3 122.1L707.3 121.1L708.3 120.5L709.3 119.5L710.3 118.7L711.4 117.8L712.4 116.8L713.4 115.9L714.4 115.2L715.4 114.6L716.4 113.8L717.4 113L718.4 112.1L719.4 111.2L720.4 110.3L721.4 109.7L722.4 109.1L723.4 108.3L724.5 107.6L725.5 106.7L726.5 105.9L727.5 105.1L728.5 104.5L729.5 103.9L730.5 103.2L731.5 102.5L732.5 101.6L733.5 100.9L734.5 100L735.5 99.5L736.5 98.9L737.6 98.2L738.6 97.4L739.6 96.5L740.6 95.7L741.6 94.9L742.6 94.2L743.6 93.7L744.6 92.9L745.6 92.1L746.6 91.2L747.6 90.4L748.6 89.5L749.6 88.8L750.7 88.3L751.7 87.5L752.7 86.8L753.7 85.8L754.7 84.9L755.7 84L756.7 83.3L757.7 82.7L758.7 81.8L759.7 81L760.7 79.9L761.7 79L762.7 78L763.8 77.2L764.8 76.6" fill="none" stroke-width="1.5"></path></g></g></g></g><g class="SourcesFooter" style="fill:#777"><g style="fill:#777"><text font-size="12.60" x="15.0" y="582.5"><tspan x="15" y="582.48">Source: Johns Hopkins University CSSE COVID-19 Data</tspan></text></g><text font-size="12.60" x="796.4" y="582.5"><tspan x="796.444" y="582.48"><a style="fill: #777;" class="cclogo" href="http://creativecommons.org/licenses/by/4.0/deed.en_US" target="_blank">CC BY</a></tspan></text></g></svg>