<svg xmlns="http://www.w3.org/2000/svg" version="1.1" style="font-family:Lato, &#x27;Helvetica Neue&#x27;, Helvetica, Arial, sans-serif;font-size:18px;background-color:white;text-rendering:geometricPrecision;-webkit-font-smoothing:antialiased" width="850" height="600" viewBox="0 0 850 600"><g class="HeaderView"><g transform="translate(774, 15) scale(0.29)"><svg className="owidLog" width="210" height="120" viewBox="0 0 210 120" fill="none" xmlns="http://www.w3.org/2000/svg">
<g clip-path="url(#clip0)">
  <path d="M0 0h210v107.89H0V0z" fill="#002147" />
  <path
    d="M40.98 32.25c0 2.36-.38 4.53-1.12 6.51a14.26 14.26 0 0 1-8.1 8.4c-1.9.78-4.02 1.17-6.34 1.17-2.31 0-4.42-.39-6.33-1.17a14.31 14.31 0 0 1-8.08-8.4 18.29 18.29 0 0 1-1.12-6.51c0-2.36.38-4.53 1.12-6.5.75-1.97 1.8-3.67 3.17-5.1a14.32 14.32 0 0 1 4.9-3.34c1.92-.8 4.03-1.19 6.34-1.19 2.32 0 4.43.4 6.34 1.19 1.92.8 3.56 1.9 4.93 3.34a14.87 14.87 0 0 1 3.17 5.1 18.1 18.1 0 0 1 1.12 6.5zm-4.38 0c0-1.94-.26-3.68-.8-5.22a10.91 10.91 0 0 0-2.24-3.89 9.68 9.68 0 0 0-3.52-2.46 11.95 11.95 0 0 0-4.62-.86c-1.68 0-3.21.28-4.6.86a9.88 9.88 0 0 0-3.54 2.46 10.91 10.91 0 0 0-2.24 3.9c-.53 1.53-.8 3.27-.8 5.2 0 1.94.27 3.68.8 5.22a11.17 11.17 0 0 0 2.24 3.9 10.01 10.01 0 0 0 3.55 2.44c1.38.56 2.9.83 4.6.83s3.24-.27 4.61-.83a9.8 9.8 0 0 0 3.52-2.44 11.17 11.17 0 0 0 2.25-3.9c.53-1.54.8-3.28.8-5.21zm26.22-6.54V48H60.5c-.56 0-.9-.27-1.05-.81l-.31-2.4a12.45 12.45 0 0 1-3.26 2.6c-1.2.64-2.58.96-4.13.96-1.22 0-2.3-.2-3.24-.6a6.52 6.52 0 0 1-2.33-1.7 7.37 7.37 0 0 1-1.43-2.67c-.3-1.04-.46-2.2-.46-3.45V25.7h3.91v14.22c0 1.68.38 2.99 1.15 3.91.77.93 1.96 1.39 3.54 1.39 1.16 0 2.24-.27 3.23-.82a10.42 10.42 0 0 0 2.8-2.28V25.7h3.91zm8.61 4.47a9.94 9.94 0 0 1 2.6-3.56 5.64 5.64 0 0 1 3.76-1.3c.47 0 .92.05 1.34.15.44.1.83.27 1.17.49l-.3 2.92c-.09.37-.3.55-.66.55-.2 0-.5-.04-.9-.13a6.21 6.21 0 0 0-3.24.18 4.23 4.23 0 0 0-1.47.92c-.42.4-.81.9-1.17 1.5-.33.58-.64 1.26-.92 2.02V48H67.7V25.71h2.25c.42 0 .72.08.88.25.16.16.27.44.33.83l.26 3.39zm61.16-13.7L122.75 48h-3.82l-7.99-24.05a21.95 21.95 0 0 1-.42-1.58 38.36 38.36 0 0 1-.44 1.58L102.05 48h-3.83L88.4 16.47h3.54c.38 0 .7.1.95.29.26.2.43.43.5.73l6.52 21.9.28 1.28.29 1.46.3-1.46.38-1.27 7.41-21.91c.1-.25.26-.48.51-.69.27-.22.58-.33.95-.33h1.23c.38 0 .69.1.92.29a1.77 1.77 0 0 1 .53.73l7.4 21.9a28.4 28.4 0 0 1 .68 2.62 29.52 29.52 0 0 1 .52-2.61l6.54-21.91a1.31 1.31 0 0 1 .48-.7c.27-.21.58-.32.95-.32h3.32zm9.35 8.88c1.63 0 3.1.27 4.4.82a9.43 9.43 0 0 1 5.46 5.94c.5 1.4.74 2.98.74 4.73 0 1.76-.25 3.34-.74 4.75a9.43 9.43 0 0 1-5.46 5.92c-1.3.52-2.77.79-4.4.79-1.64 0-3.12-.27-4.44-.8a9.42 9.42 0 0 1-3.35-2.3c-.92-1-1.63-2.2-2.13-3.61-.49-1.41-.73-3-.73-4.75s.24-3.33.73-4.73c.5-1.43 1.2-2.64 2.13-3.63.93-1 2.04-1.77 3.35-2.31 1.32-.55 2.8-.82 4.44-.82zm0 19.89c2.2 0 3.84-.73 4.93-2.2 1.08-1.48 1.63-3.54 1.63-6.18 0-2.66-.55-4.72-1.63-6.2-1.09-1.49-2.73-2.23-4.93-2.23-1.12 0-2.09.2-2.93.57a5.71 5.71 0 0 0-2.06 1.65c-.55.72-.96 1.61-1.24 2.67-.26 1.04-.4 2.22-.4 3.54 0 2.64.55 4.7 1.64 6.18 1.1 1.47 2.76 2.2 4.99 2.2zm17.97-15.07a9.94 9.94 0 0 1 2.6-3.56 5.64 5.64 0 0 1 3.76-1.3c.47 0 .91.05 1.34.15.44.1.83.27 1.16.49l-.28 2.92c-.09.37-.31.55-.66.55-.2 0-.5-.04-.9-.13a6.2 6.2 0 0 0-3.24.18 4.23 4.23 0 0 0-1.47.92c-.43.4-.82.9-1.17 1.5a13.1 13.1 0 0 0-.92 2.02V48h-3.94V25.71h2.24c.43 0 .72.08.88.25.17.16.28.44.33.83l.27 3.39zm15.04-14.59V48h-3.92V15.6h3.92zm19.55 15.43a6.22 6.22 0 0 0-2.38-2.05 6.7 6.7 0 0 0-2.86-.6c-2.07 0-3.66.75-4.77 2.23-1.12 1.48-1.68 3.6-1.68 6.33 0 1.46.13 2.7.38 3.74a7.29 7.29 0 0 0 1.1 2.56 4.35 4.35 0 0 0 1.78 1.45c.7.3 1.5.46 2.4.46 1.29 0 2.41-.3 3.36-.88a9.6 9.6 0 0 0 2.67-2.49V31.02zm3.91-15.43V48h-2.33c-.56 0-.9-.27-1.06-.81l-.35-2.71a12.13 12.13 0 0 1-3.25 2.77 8.28 8.28 0 0 1-4.23 1.06 7.31 7.31 0 0 1-6.14-2.9c-.73-.96-1.3-2.15-1.69-3.57a18.35 18.35 0 0 1 .07-9.48 11.29 11.29 0 0 1 1.89-3.7 8.7 8.7 0 0 1 7.06-3.34 7.96 7.96 0 0 1 6.12 2.62V15.59h3.91zM46.61 70.71V93H42.7V70.71h3.91zm.84-7c0 .39-.08.75-.24 1.09-.15.32-.35.61-.62.88-.25.25-.55.44-.9.59a2.67 2.67 0 0 1-2.16 0 2.9 2.9 0 0 1-1.45-1.47 2.67 2.67 0 0 1 0-2.16c.15-.35.35-.65.6-.9.25-.27.53-.47.85-.62a2.67 2.67 0 0 1 2.16 0c.35.15.65.35.9.62.27.25.47.55.62.9.16.34.24.7.24 1.08zm7.97 10.24c.49-.54 1-1.04 1.54-1.48a9.85 9.85 0 0 1 3.66-1.84 8.96 8.96 0 0 1 5.43.35c.94.4 1.72.97 2.33 1.71.63.74 1.11 1.62 1.43 2.67.32 1.04.49 2.19.49 3.45V93h-3.94V78.81c0-1.69-.4-3-1.17-3.92-.76-.93-1.93-1.4-3.5-1.4-1.15 0-2.24.27-3.25.83-1 .56-1.92 1.31-2.77 2.27V93h-3.94V70.71h2.35c.56 0 .9.28 1.04.82l.3 2.42zm57.7 3.3c0 2.36-.37 4.5-1.11 6.44a14.3 14.3 0 0 1-3.17 4.98c-1.37 1.37-3 2.45-4.93 3.2-1.9.76-4.02 1.13-6.33 1.13H85.8V61.47h11.77c2.31 0 4.42.39 6.33 1.15a13.8 13.8 0 0 1 8.1 8.18 17.75 17.75 0 0 1 1.12 6.45zm-4.37 0c0-1.94-.26-3.67-.8-5.2a10.94 10.94 0 0 0-2.23-3.87 9.57 9.57 0 0 0-3.53-2.42 12.23 12.23 0 0 0-4.61-.83h-7.5v24.62h7.5c1.7 0 3.24-.28 4.61-.84a9.7 9.7 0 0 0 3.53-2.4 10.94 10.94 0 0 0 2.24-3.87c.53-1.53.8-3.26.8-5.2zm19.8 5.72c-1.8.06-3.34.2-4.62.44-1.26.22-2.3.51-3.1.88-.8.36-1.37.8-1.74 1.3-.35.5-.53 1.05-.53 1.67 0 .58.1 1.1.3 1.52a3 3 0 0 0 .76 1.05c.34.27.73.46 1.17.6a6.13 6.13 0 0 0 1.45.17 7.28 7.28 0 0 0 3.5-.81 11.95 11.95 0 0 0 2.82-2.2v-4.62zm-12.65-9.11a12.73 12.73 0 0 1 3.98-2.66c1.43-.59 3-.88 4.73-.88 1.25 0 2.36.2 3.33.61a6.81 6.81 0 0 1 3.94 4.38c.33 1.04.5 2.19.5 3.43V93h-1.74a1.8 1.8 0 0 1-.88-.18c-.2-.13-.36-.38-.48-.74l-.44-2.12-1.72 1.46a9.48 9.48 0 0 1-3.74 1.7c-.69.15-1.46.23-2.3.23-.87 0-1.69-.12-2.45-.35a5.34 5.34 0 0 1-3.34-2.93 6.64 6.64 0 0 1-.49-2.64c0-.88.25-1.72.73-2.53a6.33 6.33 0 0 1 2.35-2.17c1.09-.63 2.5-1.15 4.25-1.54 1.75-.41 3.89-.65 6.42-.7v-1.75c0-1.73-.37-3.03-1.12-3.91-.75-.9-1.84-1.34-3.28-1.34-.97 0-1.78.12-2.44.37-.64.23-1.2.5-1.7.81l-1.23.82c-.33.23-.67.35-1 .35-.27 0-.5-.07-.69-.2a2.1 2.1 0 0 1-.48-.53l-.7-1.25zm27.67 19.5c-1.76 0-3.12-.5-4.07-1.48-.94-.98-1.41-2.4-1.41-4.25V74h-2.68a.9.9 0 0 1-.6-.2c-.16-.14-.24-.36-.24-.66v-1.56l3.65-.46.9-6.89c.05-.22.14-.4.29-.52a.88.88 0 0 1 .62-.22H142v7.67h6.44V74H142v13.38c0 .94.22 1.63.68 2.09.45.45 1.04.68 1.76.68a3.21 3.21 0 0 0 1.85-.53l.55-.35c.16-.12.3-.18.41-.18.2 0 .4.13.55.38l1.15 1.87a7.45 7.45 0 0 1-2.44 1.5 8.53 8.53 0 0 1-2.95.52zm19.68-10.4c-1.8.07-3.34.21-4.62.45-1.26.22-2.3.51-3.1.88-.8.36-1.37.8-1.74 1.3-.35.5-.53 1.05-.53 1.67 0 .58.1 1.1.3 1.52a2.9 2.9 0 0 0 .76 1.05c.34.27.73.46 1.17.6a6.13 6.13 0 0 0 1.45.17 7.3 7.3 0 0 0 3.5-.81 12.04 12.04 0 0 0 2.82-2.2v-4.62zm-12.65-9.1a12.72 12.72 0 0 1 3.99-2.66c1.42-.59 3-.88 4.72-.88 1.25 0 2.36.2 3.33.61a6.81 6.81 0 0 1 3.94 4.38c.33 1.04.5 2.19.5 3.43V93h-1.74a1.8 1.8 0 0 1-.88-.18c-.2-.13-.36-.38-.48-.74l-.44-2.12-1.72 1.46a9.48 9.48 0 0 1-3.74 1.7c-.69.15-1.46.23-2.3.23-.87 0-1.69-.12-2.45-.35a5.33 5.33 0 0 1-3.34-2.93 6.62 6.62 0 0 1-.49-2.64c0-.88.25-1.72.73-2.53a6.33 6.33 0 0 1 2.35-2.17c1.09-.63 2.5-1.15 4.25-1.54 1.74-.41 3.89-.65 6.42-.7v-1.75c0-1.73-.37-3.03-1.12-3.91-.75-.9-1.84-1.34-3.28-1.34-.97 0-1.78.12-2.44.37-.64.23-1.2.5-1.7.81l-1.22.82c-.34.23-.68.35-1.02.35-.26 0-.49-.07-.68-.2a1.88 1.88 0 0 1-.48-.53l-.7-1.25zM40.98 32.25c0 2.36-.38 4.53-1.12 6.51a14.26 14.26 0 0 1-8.1 8.4c-1.9.78-4.02 1.17-6.34 1.17-2.31 0-4.42-.39-6.33-1.17a14.31 14.31 0 0 1-8.08-8.4 18.29 18.29 0 0 1-1.12-6.51c0-2.36.38-4.53 1.12-6.5.75-1.97 1.8-3.67 3.17-5.1a14.32 14.32 0 0 1 4.9-3.34c1.92-.8 4.03-1.19 6.34-1.19 2.32 0 4.43.4 6.34 1.19 1.92.8 3.56 1.9 4.93 3.34a14.87 14.87 0 0 1 3.17 5.1 18.1 18.1 0 0 1 1.12 6.5zm-4.38 0c0-1.94-.26-3.68-.8-5.22a10.91 10.91 0 0 0-2.24-3.89 9.68 9.68 0 0 0-3.52-2.46 11.95 11.95 0 0 0-4.62-.86c-1.68 0-3.21.28-4.6.86a9.88 9.88 0 0 0-3.54 2.46 10.91 10.91 0 0 0-2.24 3.9c-.53 1.53-.8 3.27-.8 5.2 0 1.94.27 3.68.8 5.22a11.17 11.17 0 0 0 2.24 3.9 10.01 10.01 0 0 0 3.55 2.44c1.38.56 2.9.83 4.6.83s3.24-.27 4.61-.83a9.8 9.8 0 0 0 3.52-2.44 11.17 11.17 0 0 0 2.25-3.9c.53-1.54.8-3.28.8-5.21zm26.22-6.54V48H60.5c-.56 0-.9-.27-1.05-.81l-.31-2.4a12.45 12.45 0 0 1-3.26 2.6c-1.2.64-2.58.96-4.13.96-1.22 0-2.3-.2-3.24-.6a6.52 6.52 0 0 1-2.33-1.7 7.37 7.37 0 0 1-1.43-2.67c-.3-1.04-.46-2.2-.46-3.45V25.7h3.91v14.22c0 1.68.38 2.99 1.15 3.91.77.93 1.96 1.39 3.54 1.39 1.16 0 2.24-.27 3.23-.82a10.42 10.42 0 0 0 2.8-2.28V25.7h3.91zm8.61 4.47a9.94 9.94 0 0 1 2.6-3.56 5.64 5.64 0 0 1 3.76-1.3c.47 0 .92.05 1.34.15.44.1.83.27 1.17.49l-.3 2.92c-.09.37-.3.55-.66.55-.2 0-.5-.04-.9-.13a6.21 6.21 0 0 0-3.24.18 4.23 4.23 0 0 0-1.47.92c-.42.4-.81.9-1.17 1.5-.33.58-.64 1.26-.92 2.02V48H67.7V25.71h2.25c.42 0 .72.08.88.25.16.16.27.44.33.83l.26 3.39zm61.16-13.7L122.75 48h-3.82l-7.99-24.05a21.95 21.95 0 0 1-.42-1.58 38.36 38.36 0 0 1-.44 1.58L102.05 48h-3.83L88.4 16.47h3.54c.38 0 .7.1.95.29.26.2.43.43.5.73l6.52 21.9.28 1.28.29 1.46.3-1.46.38-1.27 7.41-21.91c.1-.25.26-.48.51-.69.27-.22.58-.33.95-.33h1.23c.38 0 .69.1.92.29a1.77 1.77 0 0 1 .53.73l7.4 21.9a28.4 28.4 0 0 1 .68 2.62 29.52 29.52 0 0 1 .52-2.61l6.54-21.91a1.31 1.31 0 0 1 .48-.7c.27-.21.58-.32.95-.32h3.32zm9.35 8.88c1.63 0 3.1.27 4.4.82a9.43 9.43 0 0 1 5.46 5.94c.5 1.4.74 2.98.74 4.73 0 1.76-.25 3.34-.74 4.75a9.43 9.43 0 0 1-5.46 5.92c-1.3.52-2.77.79-4.4.79-1.64 0-3.12-.27-4.44-.8a9.42 9.42 0 0 1-3.35-2.3c-.92-1-1.63-2.2-2.13-3.61-.49-1.41-.73-3-.73-4.75s.24-3.33.73-4.73c.5-1.43 1.2-2.64 2.13-3.63.93-1 2.04-1.77 3.35-2.31 1.32-.55 2.8-.82 4.44-.82zm0 19.89c2.2 0 3.84-.73 4.93-2.2 1.08-1.48 1.63-3.54 1.63-6.18 0-2.66-.55-4.72-1.63-6.2-1.09-1.49-2.73-2.23-4.93-2.23-1.12 0-2.09.2-2.93.57a5.71 5.71 0 0 0-2.06 1.65c-.55.72-.96 1.61-1.24 2.67-.26 1.04-.4 2.22-.4 3.54 0 2.64.55 4.7 1.64 6.18 1.1 1.47 2.76 2.2 4.99 2.2zm17.97-15.07a9.94 9.94 0 0 1 2.6-3.56 5.64 5.64 0 0 1 3.76-1.3c.47 0 .91.05 1.34.15.44.1.83.27 1.16.49l-.28 2.92c-.09.37-.31.55-.66.55-.2 0-.5-.04-.9-.13a6.2 6.2 0 0 0-3.24.18 4.23 4.23 0 0 0-1.47.92c-.43.4-.82.9-1.17 1.5a13.1 13.1 0 0 0-.92 2.02V48h-3.94V25.71h2.24c.43 0 .72.08.88.25.17.16.28.44.33.83l.27 3.39zm15.04-14.59V48h-3.92V15.6h3.92zm19.55 15.43a6.22 6.22 0 0 0-2.38-2.05 6.7 6.7 0 0 0-2.86-.6c-2.07 0-3.66.75-4.77 2.23-1.12 1.48-1.68 3.6-1.68 6.33 0 1.46.13 2.7.38 3.74a7.29 7.29 0 0 0 1.1 2.56 4.35 4.35 0 0 0 1.78 1.45c.7.3 1.5.46 2.4.46 1.29 0 2.41-.3 3.36-.88a9.6 9.6 0 0 0 2.67-2.49V31.02zm3.91-15.43V48h-2.33c-.56 0-.9-.27-1.06-.81l-.35-2.71a12.13 12.13 0 0 1-3.25 2.77 8.28 8.28 0 0 1-4.23 1.06 7.31 7.31 0 0 1-6.14-2.9c-.73-.96-1.3-2.15-1.69-3.57a18.35 18.35 0 0 1 .07-9.48 11.29 11.29 0 0 1 1.89-3.7 8.7 8.7 0 0 1 7.06-3.34 7.96 7.96 0 0 1 6.12 2.62V15.59h3.91zM46.61 70.71V93H42.7V70.71h3.91zm.84-7c0 .39-.08.75-.24 1.09-.15.32-.35.61-.62.88-.25.25-.55.44-.9.59a2.67 2.67 0 0 1-2.16 0 2.9 2.9 0 0 1-1.45-1.47 2.67 2.67 0 0 1 0-2.16c.15-.35.35-.65.6-.9.25-.27.53-.47.85-.62a2.67 2.67 0 0 1 2.16 0c.35.15.65.35.9.62.27.25.47.55.62.9.16.34.24.7.24 1.08zm7.97 10.24c.49-.54 1-1.04 1.54-1.48a9.85 9.85 0 0 1 3.66-1.84 8.96 8.96 0 0 1 5.43.35c.94.4 1.72.97 2.33 1.71.63.74 1.11 1.62 1.43 2.67.32 1.04.49 2.19.49 3.45V93h-3.94V78.81c0-1.69-.4-3-1.17-3.92-.76-.93-1.93-1.4-3.5-1.4-1.15 0-2.24.27-3.25.83-1 .56-1.92 1.31-2.77 2.27V93h-3.94V70.71h2.35c.56 0 .9.28 1.04.82l.3 2.42zm57.7 3.3c0 2.36-.37 4.5-1.11 6.44a14.3 14.3 0 0 1-3.17 4.98c-1.37 1.37-3 2.45-4.93 3.2-1.9.76-4.02 1.13-6.33 1.13H85.8V61.47h11.77c2.31 0 4.42.39 6.33 1.15a13.8 13.8 0 0 1 8.1 8.18 17.75 17.75 0 0 1 1.12 6.45zm-4.37 0c0-1.94-.26-3.67-.8-5.2a10.94 10.94 0 0 0-2.23-3.87 9.57 9.57 0 0 0-3.53-2.42 12.23 12.23 0 0 0-4.61-.83h-7.5v24.62h7.5c1.7 0 3.24-.28 4.61-.84a9.7 9.7 0 0 0 3.53-2.4 10.94 10.94 0 0 0 2.24-3.87c.53-1.53.8-3.26.8-5.2zm19.8 5.72c-1.8.06-3.34.2-4.62.44-1.26.22-2.3.51-3.1.88-.8.36-1.37.8-1.74 1.3-.35.5-.53 1.05-.53 1.67 0 .58.1 1.1.3 1.52a3 3 0 0 0 .76 1.05c.34.27.73.46 1.17.6a6.13 6.13 0 0 0 1.45.17 7.28 7.28 0 0 0 3.5-.81 11.95 11.95 0 0 0 2.82-2.2v-4.62zm-12.65-9.11a12.73 12.73 0 0 1 3.98-2.66c1.43-.59 3-.88 4.73-.88 1.25 0 2.36.2 3.33.61a6.81 6.81 0 0 1 3.94 4.38c.33 1.04.5 2.19.5 3.43V93h-1.74a1.8 1.8 0 0 1-.88-.18c-.2-.13-.36-.38-.48-.74l-.44-2.12-1.72 1.46a9.48 9.48 0 0 1-3.74 1.7c-.69.15-1.46.23-2.3.23-.87 0-1.69-.12-2.45-.35a5.34 5.34 0 0 1-3.34-2.93 6.64 6.64 0 0 1-.49-2.64c0-.88.25-1.72.73-2.53a6.33 6.33 0 0 1 2.35-2.17c1.09-.63 2.5-1.15 4.25-1.54 1.75-.41 3.89-.65 6.42-.7v-1.75c0-1.73-.37-3.03-1.12-3.91-.75-.9-1.84-1.34-3.28-1.34-.97 0-1.78.12-2.44.37-.64.23-1.2.5-1.7.81l-1.23.82c-.33.23-.67.35-1 .35-.27 0-.5-.07-.69-.2a2.1 2.1 0 0 1-.48-.53l-.7-1.25zm27.67 19.5c-1.76 0-3.12-.5-4.07-1.48-.94-.98-1.41-2.4-1.41-4.25V74h-2.68a.9.9 0 0 1-.6-.2c-.16-.14-.24-.36-.24-.66v-1.56l3.65-.46.9-6.89c.05-.22.14-.4.29-.52a.88.88 0 0 1 .62-.22H142v7.67h6.44V74H142v13.38c0 .94.22 1.63.68 2.09.45.45 1.04.68 1.76.68a3.21 3.21 0 0 0 1.85-.53l.55-.35c.16-.12.3-.18.41-.18.2 0 .4.13.55.38l1.15 1.87a7.45 7.45 0 0 1-2.44 1.5 8.53 8.53 0 0 1-2.95.52zm19.68-10.4c-1.8.07-3.34.21-4.62.45-1.26.22-2.3.51-3.1.88-.8.36-1.37.8-1.74 1.3-.35.5-.53 1.05-.53 1.67 0 .58.1 1.1.3 1.52a2.9 2.9 0 0 0 .76 1.05c.34.27.73.46 1.17.6a6.13 6.13 0 0 0 1.45.17 7.3 7.3 0 0 0 3.5-.81 12.04 12.04 0 0 0 2.82-2.2v-4.62zm-12.65-9.1a12.72 12.72 0 0 1 3.99-2.66c1.42-.59 3-.88 4.72-.88 1.25 0 2.36.2 3.33.61a6.81 6.81 0 0 1 3.94 4.38c.33 1.04.5 2.19.5 3.43V93h-1.74a1.8 1.8 0 0 1-.88-.18c-.2-.13-.36-.38-.48-.74l-.44-2.12-1.72 1.46a9.48 9.48 0 0 1-3.74 1.7c-.69.15-1.46.23-2.3.23-.87 0-1.69-.12-2.45-.35a5.33 5.33 0 0 1-3.34-2.93 6.62 6.62 0 0 1-.49-2.64c0-.88.25-1.72.73-2.53a6.33 6.33 0 0 1 2.35-2.17c1.09-.63 2.5-1.15 4.25-1.54 1.74-.41 3.89-.65 6.42-.7v-1.75c0-1.73-.37-3.03-1.12-3.91-.75-.9-1.84-1.34-3.28-1.34-.97 0-1.78.12-2.44.37-.64.23-1.2.5-1.7.81l-1.22.82c-.34.23-.68.35-1.02.35-.26 0-.49-.07-.68-.2a1.88 1.88 0 0 1-.48-.53l-.7-1.25zM40.98 32.25c0 2.36-.38 4.53-1.12 6.51a14.26 14.26 0 0 1-8.1 8.4c-1.9.78-4.02 1.17-6.34 1.17-2.31 0-4.42-.39-6.33-1.17a14.31 14.31 0 0 1-8.08-8.4 18.29 18.29 0 0 1-1.12-6.51c0-2.36.38-4.53 1.12-6.5.75-1.97 1.8-3.67 3.17-5.1a14.32 14.32 0 0 1 4.9-3.34c1.92-.8 4.03-1.19 6.34-1.19 2.32 0 4.43.4 6.34 1.19 1.92.8 3.56 1.9 4.93 3.34a14.87 14.87 0 0 1 3.17 5.1 18.1 18.1 0 0 1 1.12 6.5zm-4.38 0c0-1.94-.26-3.68-.8-5.22a10.91 10.91 0 0 0-2.24-3.89 9.68 9.68 0 0 0-3.52-2.46 11.95 11.95 0 0 0-4.62-.86c-1.68 0-3.21.28-4.6.86a9.88 9.88 0 0 0-3.54 2.46 10.91 10.91 0 0 0-2.24 3.9c-.53 1.53-.8 3.27-.8 5.2 0 1.94.27 3.68.8 5.22a11.17 11.17 0 0 0 2.24 3.9 10.01 10.01 0 0 0 3.55 2.44c1.38.56 2.9.83 4.6.83s3.24-.27 4.61-.83a9.8 9.8 0 0 0 3.52-2.44 11.17 11.17 0 0 0 2.25-3.9c.53-1.54.8-3.28.8-5.21zm26.22-6.54V48H60.5c-.56 0-.9-.27-1.05-.81l-.31-2.4a12.45 12.45 0 0 1-3.26 2.6c-1.2.64-2.58.96-4.13.96-1.22 0-2.3-.2-3.24-.6a6.52 6.52 0 0 1-2.33-1.7 7.37 7.37 0 0 1-1.43-2.67c-.3-1.04-.46-2.2-.46-3.45V25.7h3.91v14.22c0 1.68.38 2.99 1.15 3.91.77.93 1.96 1.39 3.54 1.39 1.16 0 2.24-.27 3.23-.82a10.42 10.42 0 0 0 2.8-2.28V25.7h3.91zm8.61 4.47a9.94 9.94 0 0 1 2.6-3.56 5.64 5.64 0 0 1 3.76-1.3c.47 0 .92.05 1.34.15.44.1.83.27 1.17.49l-.3 2.92c-.09.37-.3.55-.66.55-.2 0-.5-.04-.9-.13a6.21 6.21 0 0 0-3.24.18 4.23 4.23 0 0 0-1.47.92c-.42.4-.81.9-1.17 1.5-.33.58-.64 1.26-.92 2.02V48H67.7V25.71h2.25c.42 0 .72.08.88.25.16.16.27.44.33.83l.26 3.39zm61.16-13.7L122.75 48h-3.82l-7.99-24.05a21.95 21.95 0 0 1-.42-1.58 38.36 38.36 0 0 1-.44 1.58L102.05 48h-3.83L88.4 16.47h3.54c.38 0 .7.1.95.29.26.2.43.43.5.73l6.52 21.9.28 1.28.29 1.46.3-1.46.38-1.27 7.41-21.91c.1-.25.26-.48.51-.69.27-.22.58-.33.95-.33h1.23c.38 0 .69.1.92.29a1.77 1.77 0 0 1 .53.73l7.4 21.9a28.4 28.4 0 0 1 .68 2.62 29.52 29.52 0 0 1 .52-2.61l6.54-21.91a1.31 1.31 0 0 1 .48-.7c.27-.21.58-.32.95-.32h3.32zm9.35 8.88c1.63 0 3.1.27 4.4.82a9.43 9.43 0 0 1 5.46 5.94c.5 1.4.74 2.98.74 4.73 0 1.76-.25 3.34-.74 4.75a9.43 9.43 0 0 1-5.46 5.92c-1.3.52-2.77.79-4.4.79-1.64 0-3.12-.27-4.44-.8a9.42 9.42 0 0 1-3.35-2.3c-.92-1-1.63-2.2-2.13-3.61-.49-1.41-.73-3-.73-4.75s.24-3.33.73-4.73c.5-1.43 1.2-2.64 2.13-3.63.93-1 2.04-1.77 3.35-2.31 1.32-.55 2.8-.82 4.44-.82zm0 19.89c2.2 0 3.84-.73 4.93-2.2 1.08-1.48 1.63-3.54 1.63-6.18 0-2.66-.55-4.72-1.63-6.2-1.09-1.49-2.73-2.23-4.93-2.23-1.12 0-2.09.2-2.93.57a5.71 5.71 0 0 0-2.06 1.65c-.55.72-.96 1.61-1.24 2.67-.26 1.04-.4 2.22-.4 3.54 0 2.64.55 4.7 1.64 6.18 1.1 1.47 2.76 2.2 4.99 2.2zm17.97-15.07a9.94 9.94 0 0 1 2.6-3.56 5.64 5.64 0 0 1 3.76-1.3c.47 0 .91.05 1.34.15.44.1.83.27 1.16.49l-.28 2.92c-.09.37-.31.55-.66.55-.2 0-.5-.04-.9-.13a6.2 6.2 0 0 0-3.24.18 4.23 4.23 0 0 0-1.47.92c-.43.4-.82.9-1.17 1.5a13.1 13.1 0 0 0-.92 2.02V48h-3.94V25.71h2.24c.43 0 .72.08.88.25.17.16.28.44.33.83l.27 3.39zm15.04-14.59V48h-3.92V15.6h3.92zm19.55 15.43a6.22 6.22 0 0 0-2.38-2.05 6.7 6.7 0 0 0-2.86-.6c-2.07 0-3.66.75-4.77 2.23-1.12 1.48-1.68 3.6-1.68 6.33 0 1.46.13 2.7.38 3.74a7.29 7.29 0 0 0 1.1 2.56 4.35 4.35 0 0 0 1.78 1.45c.7.3 1.5.46 2.4.46 1.29 0 2.41-.3 3.36-.88a9.6 9.6 0 0 0 2.67-2.49V31.02zm3.91-15.43V48h-2.33c-.56 0-.9-.27-1.06-.81l-.35-2.71a12.13 12.13 0 0 1-3.25 2.77 8.28 8.28 0 0 1-4.23 1.06 7.31 7.31 0 0 1-6.14-2.9c-.73-.96-1.3-2.15-1.69-3.57a18.35 18.35 0 0 1 .07-9.48 11.29 11.29 0 0 1 1.89-3.7 8.7 8.7 0 0 1 7.06-3.34 7.96 7.96 0 0 1 6.12 2.62V15.59h3.91zM46.61 70.71V93H42.7V70.71h3.91zm.84-7c0 .39-.08.75-.24 1.09-.15.32-.35.61-.62.88-.25.25-.55.44-.9.59a2.67 2.67 0 0 1-2.16 0 2.9 2.9 0 0 1-1.45-1.47 2.67 2.67 0 0 1 0-2.16c.15-.35.35-.65.6-.9.25-.27.53-.47.85-.62a2.67 2.67 0 0 1 2.16 0c.35.15.65.35.9.62.27.25.47.55.62.9.16.34.24.7.24 1.08zm7.97 10.24c.49-.54 1-1.04 1.54-1.48a9.85 9.85 0 0 1 3.66-1.84 8.96 8.96 0 0 1 5.43.35c.94.4 1.72.97 2.33 1.71.63.74 1.11 1.62 1.43 2.67.32 1.04.49 2.19.49 3.45V93h-3.94V78.81c0-1.69-.4-3-1.17-3.92-.76-.93-1.93-1.4-3.5-1.4-1.15 0-2.24.27-3.25.83-1 .56-1.92 1.31-2.77 2.27V93h-3.94V70.71h2.35c.56 0 .9.28 1.04.82l.3 2.42zm57.7 3.3c0 2.36-.37 4.5-1.11 6.44a14.3 14.3 0 0 1-3.17 4.98c-1.37 1.37-3 2.45-4.93 3.2-1.9.76-4.02 1.13-6.33 1.13H85.8V61.47h11.77c2.31 0 4.42.39 6.33 1.15a13.8 13.8 0 0 1 8.1 8.18 17.75 17.75 0 0 1 1.12 6.45zm-4.37 0c0-1.94-.26-3.67-.8-5.2a10.94 10.94 0 0 0-2.23-3.87 9.57 9.57 0 0 0-3.53-2.42 12.23 12.23 0 0 0-4.61-.83h-7.5v24.62h7.5c1.7 0 3.24-.28 4.61-.84a9.7 9.7 0 0 0 3.53-2.4 10.94 10.94 0 0 0 2.24-3.87c.53-1.53.8-3.26.8-5.2zm19.8 5.72c-1.8.06-3.34.2-4.62.44-1.26.22-2.3.51-3.1.88-.8.36-1.37.8-1.74 1.3-.35.5-.53 1.05-.53 1.67 0 .58.1 1.1.3 1.52a3 3 0 0 0 .76 1.05c.34.27.73.46 1.17.6a6.13 6.13 0 0 0 1.45.17 7.28 7.28 0 0 0 3.5-.81 11.95 11.95 0 0 0 2.82-2.2v-4.62zm-12.65-9.11a12.73 12.73 0 0 1 3.98-2.66c1.43-.59 3-.88 4.73-.88 1.25 0 2.36.2 3.33.61a6.81 6.81 0 0 1 3.94 4.38c.33 1.04.5 2.19.5 3.43V93h-1.74a1.8 1.8 0 0 1-.88-.18c-.2-.13-.36-.38-.48-.74l-.44-2.12-1.72 1.46a9.48 9.48 0 0 1-3.74 1.7c-.69.15-1.46.23-2.3.23-.87 0-1.69-.12-2.45-.35a5.34 5.34 0 0 1-3.34-2.93 6.64 6.64 0 0 1-.49-2.64c0-.88.25-1.72.73-2.53a6.33 6.33 0 0 1 2.35-2.17c1.09-.63 2.5-1.15 4.25-1.54 1.75-.41 3.89-.65 6.42-.7v-1.75c0-1.73-.37-3.03-1.12-3.91-.75-.9-1.84-1.34-3.28-1.34-.97 0-1.78.12-2.44.37-.64.23-1.2.5-1.7.81l-1.23.82c-.33.23-.67.35-1 .35-.27 0-.5-.07-.69-.2a2.1 2.1 0 0 1-.48-.53l-.7-1.25zm27.67 19.5c-1.76 0-3.12-.5-4.07-1.48-.94-.98-1.41-2.4-1.41-4.25V74h-2.68a.9.9 0 0 1-.6-.2c-.16-.14-.24-.36-.24-.66v-1.56l3.65-.46.9-6.89c.05-.22.14-.4.29-.52a.88.88 0 0 1 .62-.22H142v7.67h6.44V74H142v13.38c0 .94.22 1.63.68 2.09.45.45 1.04.68 1.76.68a3.21 3.21 0 0 0 1.85-.53l.55-.35c.16-.12.3-.18.41-.18.2 0 .4.13.55.38l1.15 1.87a7.45 7.45 0 0 1-2.44 1.5 8.53 8.53 0 0 1-2.95.52zm19.68-10.4c-1.8.07-3.34.21-4.62.45-1.26.22-2.3.51-3.1.88-.8.36-1.37.8-1.74 1.3-.35.5-.53 1.05-.53 1.67 0 .58.1 1.1.3 1.52a2.9 2.9 0 0 0 .76 1.05c.34.27.73.46 1.17.6a6.13 6.13 0 0 0 1.45.17 7.3 7.3 0 0 0 3.5-.81 12.04 12.04 0 0 0 2.82-2.2v-4.62zm-12.65-9.1a12.72 12.72 0 0 1 3.99-2.66c1.42-.59 3-.88 4.72-.88 1.25 0 2.36.2 3.33.61a6.81 6.81 0 0 1 3.94 4.38c.33 1.04.5 2.19.5 3.43V93h-1.74a1.8 1.8 0 0 1-.88-.18c-.2-.13-.36-.38-.48-.74l-.44-2.12-1.72 1.46a9.48 9.48 0 0 1-3.74 1.7c-.69.15-1.46.23-2.3.23-.87 0-1.69-.12-2.45-.35a5.33 5.33 0 0 1-3.34-2.93 6.62 6.62 0 0 1-.49-2.64c0-.88.25-1.72.73-2.53a6.33 6.33 0 0 1 2.35-2.17c1.09-.63 2.5-1.15 4.25-1.54 1.74-.41 3.89-.65 6.42-.7v-1.75c0-1.73-.37-3.03-1.12-3.91-.75-.9-1.84-1.34-3.28-1.34-.97 0-1.78.12-2.44.37-.64.23-1.2.5-1.7.81l-1.22.82c-.34.23-.68.35-1.02.35-.26 0-.49-.07-.68-.2a1.88 1.88 0 0 1-.48-.53l-.7-1.25z"
    fill="#fff"
  />
  <path fill="#D42B21" d="M0 106.79h210V120H0z" />
</g>
<defs>
  <clipPath id="clip0"><path fill="#fff" d="M0 0h210v120H0z" /></clipPath>
</defs>
</svg></g><a href="https://ourworldindata.org/explorers/coronavirus-data-explorer?yScale=log&amp;zoomToSelection=true&amp;facet=none&amp;pickerSort=asc&amp;pickerMetric=location&amp;hideControls=true&amp;Metric=Confirmed+cases&amp;Interval=Cumulative&amp;Relative+to+Population=false&amp;Align+outbreaks=false&amp;country=~OWID_WRL" style="font-family:&quot;Playfair Display&quot;, Georgia, &quot;Times New Roman&quot;, serif" target="_blank" rel="noopener"><text font-size="25.20" x="15.0" y="35.2" fill="#555"><tspan x="15" y="35.160000000000004">Cumulative confirmed COVID-19 cases</tspan></text></a><text font-size="14.40" x="15.0" y="55.7" fill="#666"><tspan x="15" y="55.72">Due to limited testing, the number of confirmed cases is lower than the true number of infections.</tspan></text></g><g class="LineChart"><defs><clipPath id="boundsClip-3"><rect x="87.598" y="66.6" width="840" height="490.79999999999995"></rect></clipPath></defs><g class="DualAxisView"><g class="HorizontalAxis"><line x1="97.6" y1="526.1999999999999" x2="97.6" y2="531.1999999999999" stroke="#999"></line><line x1="764.8" y1="526.1999999999999" x2="764.8" y2="531.1999999999999" stroke="#999"></line><line x1="298.2" y1="526.1999999999999" x2="298.2" y2="531.1999999999999" stroke="#999"></line><line x1="398.9" y1="526.1999999999999" x2="398.9" y2="531.1999999999999" stroke="#999"></line><line x1="600.5" y1="526.1999999999999" x2="600.5" y2="531.1999999999999" stroke="#999"></line><text x="97.598" y="547.4" fill="#666" text-anchor="start" font-size="16.2">Jan 22, 2020</text><text x="764.765" y="547.4" fill="#666" text-anchor="end" font-size="16.2">Nov 14, 2021</text><text x="298.2" y="547.4" fill="#666" text-anchor="middle" font-size="16.2">Aug 8, 2020</text><text x="398.9" y="547.4" fill="#666" text-anchor="middle" font-size="16.2">Nov 16, 2020</text><text x="600.5" y="547.4" fill="#666" text-anchor="middle" font-size="16.2">Jun 4, 2021</text></g><g class="VerticalAxis"><text x="92.60" y="506" dy=".32em" text-anchor="end" fill="#666" font-size="16.2">1,000</text><text x="92.60" y="426.5" dy=".32em" text-anchor="end" fill="#666" font-size="16.2">10,000</text><text x="92.60" y="347.1" dy=".32em" text-anchor="end" fill="#666" font-size="16.2">100,000</text><text x="92.60" y="267.6" dy=".32em" text-anchor="end" fill="#666" font-size="16.2">1 million</text><text x="92.60" y="188.1" dy=".32em" text-anchor="end" fill="#666" font-size="16.2">10 million</text><text x="92.60" y="108.7" dy=".32em" text-anchor="end" fill="#666" font-size="16.2">100 million</text></g><g class="AxisGridLines horizontalLines"><line x1="97.60" y1="506" x2="764.76" y2="506" stroke="#ddd" stroke-dasharray="3,2"></line><line x1="97.60" y1="426.5" x2="764.76" y2="426.5" stroke="#ddd" stroke-dasharray="3,2"></line><line x1="97.60" y1="347.1" x2="764.76" y2="347.1" stroke="#ddd" stroke-dasharray="3,2"></line><line x1="97.60" y1="267.6" x2="764.76" y2="267.6" stroke="#ddd" stroke-dasharray="3,2"></line><line x1="97.60" y1="188.1" x2="764.76" y2="188.1" stroke="#ddd" stroke-dasharray="3,2"></line><line x1="97.60" y1="108.7" x2="764.76" y2="108.7" stroke="#ddd" stroke-dasharray="3,2"></line></g></g><g clip-path="url(#boundsClip-3)"><g class="LineLabels" style="cursor:default"><g class="legendMark"><rect x="764.765" y="76.6" width="70.235" height="13.5" fill="#fff" opacity="0"></rect><text font-size="13.50" x="768.8" y="87.4" fill="#3C4E66"><tspan x="768.765" y="87.39999999999999">World</tspan></text></g></g><g class="Lines"><rect x="98" y="77" width="667" height="450" fill="rgba(255,255,255,0)" opacity="0"></rect><g><path stroke-linecap="round" stroke-linejoin="round" stroke="#ddd" d="M97.6 526.2L98.6 520.6L99.6 508.1L100.6 493.6L101.6 480.1L102.6 468.9L103.6 446.7L104.7 443.2L105.7 433.2L106.7 426.8L107.7 420.1L108.7 408.7L109.7 402.8L110.7 396.5L111.7 391.4L112.7 387.7L113.7 383.9L114.7 381.3L115.7 378.6L116.7 376.4L117.8 374.8L118.8 374.5L119.8 364.5L120.8 360.9L121.8 359.9L122.8 358.8L123.8 357.8L124.8 356.9L125.8 356.7L126.8 356.4L127.8 356.2L128.8 355.4L129.8 355.2L130.9 355L131.9 354.6L132.9 354.2L133.9 353.6L134.9 353L135.9 352.3L136.9 351.3L137.9 350.6L138.9 349.6L139.9 348.7L140.9 347.7L141.9 346.4L142.9 345L144 343.8L145 342.5L146 341.1L147 338.9L148 337.4L149 333.8L150 331.3L151 328.9L152 326L153 323.1L154 319.9L155 315.9L156.1 311.8L157.1 308.1L158.1 304.4L159.1 300.3L160.1 296.9L161.1 293L162.1 288.7L163.1 284.8L164.1 281.1L165.1 278.3L166.1 275.3L167.1 272.2L168.1 269L169.2 266.1L170.2 263.5L171.2 261.7L172.2 259.7L173.2 257.7L174.2 256L175.2 254L176.2 252L177.2 250.2L178.2 248.7L179.2 246.4L180.2 245.1L181.2 243.6L182.3 242.3L183.3 240.7L184.3 239.3L185.3 238.2L186.3 237.1L187.3 236L188.3 235L189.3 233.9L190.3 232.8L191.3 231.8L192.3 230.8L193.3 230L194.3 229.2L195.4 228.3L196.4 227.5L197.4 226.6L198.4 225.7L199.4 224.9L200.4 224.1L201.4 223.4L202.4 222.6L203.4 221.8L204.4 221L205.4 220.2L206.4 219.4L207.4 218.8L208.5 218.2L209.5 217.5L210.5 216.8L211.5 216.1L212.5 215.3L213.5 214.6L214.5 214L215.5 213.4L216.5 212.7L217.5 212L218.5 211.3L219.5 210.6L220.6 209.9L221.6 209.3L222.6 208.7L223.6 208.1L224.6 207.5L225.6 206.8L226.6 206.1L227.6 205.3L228.6 204.7L229.6 204.2L230.6 203.5L231.6 202.9L232.6 202.2L233.7 201.5L234.7 200.9L235.7 200.3L236.7 199.8L237.7 199.2L238.7 198.6L239.7 197.9L240.7 197.4L241.7 196.8L242.7 196.2L243.7 195.7L244.7 195.1L245.7 194.5L246.8 193.9L247.8 193.1L248.8 192.5L249.8 192L250.8 191.5L251.8 190.9L252.8 190.2L253.8 189.6L254.8 188.9L255.8 188.3L256.8 187.7L257.8 187.2L258.8 186.6L259.9 185.9L260.9 185.2L261.9 184.6L262.9 184L263.9 183.4L264.9 182.9L265.9 182.3L266.9 181.7L267.9 181.1L268.9 180.4L269.9 179.8L270.9 179.3L271.9 178.8L273 178.2L274 177.6L275 177L276 176.4L277 175.8L278 175.3L279 174.8L280 174.3L281 173.6L282 173L283 172.4L284 171.8L285 171.3L286.1 170.9L287.1 170.4L288.1 169.8L289.1 169.2L290.1 168.6L291.1 168.1L292.1 167.7L293.1 167.3L294.1 166.8L295.1 166.3L296.1 165.8L297.1 165.3L298.2 164.8L299.2 164.4L300.2 164L301.2 163.6L302.2 163.1L303.2 162.7L304.2 162.2L305.2 161.8L306.2 161.4L307.2 161.1L308.2 160.7L309.2 160.3L310.2 159.8L311.3 159.4L312.3 159L313.3 158.7L314.3 158.4L315.3 158.1L316.3 157.7L317.3 157.2L318.3 156.9L319.3 156.5L320.3 156.2L321.3 155.8L322.3 155.5L323.3 155.1L324.4 154.7L325.4 154.3L326.4 154L327.4 153.7L328.4 153.4L329.4 153.1L330.4 152.7L331.4 152.4L332.4 152L333.4 151.6L334.4 151.3L335.4 151L336.4 150.7L337.5 150.3L338.5 150L339.5 149.6L340.5 149.3L341.5 149L342.5 148.7L343.5 148.4L344.5 148.1L345.5 147.7L346.5 147.4L347.5 147L348.5 146.8L349.5 146.5L350.6 146.2L351.6 145.9L352.6 145.6L353.6 145.3L354.6 144.9L355.6 144.7L356.6 144.4L357.6 144.1L358.6 143.7L359.6 143.4L360.6 143.1L361.6 142.7L362.7 142.5L363.7 142.2L364.7 141.9L365.7 141.6L366.7 141.2L367.7 140.8L368.7 140.5L369.7 140.2L370.7 139.9L371.7 139.6L372.7 139.2L373.7 138.8L374.7 138.4L375.8 138L376.8 137.7L377.8 137.4L378.8 137L379.8 136.6L380.8 136.2L381.8 135.7L382.8 135.4L383.8 135L384.8 134.6L385.8 134.2L386.8 133.8L387.8 133.4L388.9 133L389.9 132.5L390.9 132.2L391.9 131.9L392.9 131.5L393.9 131.1L394.9 130.6L395.9 130.2L396.9 129.8L397.9 129.5L398.9 129.2L399.9 128.8L400.9 128.4L402 128L403 127.6L404 127.3L405 127L406 126.7L407 126.3L408 126L409 125.6L410 125.3L411 124.9L412 124.7L413 124.4L414 124.1L415.1 123.7L416.1 123.3L417.1 123L418.1 122.6L419.1 122.4L420.1 122.1L421.1 121.8L422.1 121.4L423.1 120.7L424.1 120.3L425.1 120L426.1 119.8L427.2 119.5L428.2 119.2L429.2 118.9L430.2 118.5L431.2 118.2L432.2 117.9L433.2 117.7L434.2 117.5L435.2 117.2L436.2 116.9L437.2 116.6L438.2 116.4L439.2 116.1L440.3 116L441.3 115.8L442.3 115.5L443.3 115.2L444.3 114.8L445.3 114.6L446.3 114.4L447.3 114.2L448.3 113.9L449.3 113.6L450.3 113.3L451.3 113L452.3 112.7L453.4 112.4L454.4 112.1L455.4 111.9L456.4 111.6L457.4 111.4L458.4 111.1L459.4 110.8L460.4 110.6L461.4 110.4L462.4 110.2L463.4 110L464.4 109.7L465.4 109.5L466.5 109.3L467.5 109.1L468.5 108.9L469.5 108.7L470.5 108.5L471.5 108.3L472.5 108.1L473.5 107.9L474.5 107.8L475.5 107.6L476.5 107.5L477.5 107.3L478.5 107.2L479.6 107L480.6 106.8L481.6 106.7L482.6 106.6L483.6 106.5L484.6 106.3L485.6 106.2L486.6 106L487.6 105.9L488.6 105.8L489.6 105.7L490.6 105.6L491.6 105.5L492.7 105.4L493.7 105.2L494.7 105.1L495.7 105L496.7 104.9L497.7 104.8L498.7 104.7L499.7 104.6L500.7 104.4L501.7 104.3L502.7 104.2L503.7 104.1L504.8 104L505.8 103.9L506.8 103.8L507.8 103.6L508.8 103.5L509.8 103.4L510.8 103.3L511.8 103.2L512.8 103.1L513.8 102.9L514.8 102.8L515.8 102.6L516.8 102.5L517.9 102.4L518.9 102.3L519.9 102.2L520.9 102L521.9 101.9L522.9 101.7L523.9 101.6L524.9 101.4L525.9 101.3L526.9 101.2L527.9 101L528.9 100.8L529.9 100.6L531 100.5L532 100.4L533 100.2L534 100.1L535 99.9L536 99.7L537 99.5L538 99.4L539 99.3L540 99.1L541 99L542 98.8L543 98.6L544.1 98.4L545.1 98.2L546.1 98L547.1 97.9L548.1 97.7L549.1 97.5L550.1 97.3L551.1 97.1L552.1 96.9L553.1 96.7L554.1 96.5L555.1 96.3L556.1 96.1L557.2 95.9L558.2 95.7L559.2 95.5L560.2 95.3L561.2 95.2L562.2 95L563.2 94.8L564.2 94.5L565.2 94.3L566.2 94.2L567.2 94L568.2 93.9L569.3 93.7L570.3 93.5L571.3 93.3L572.3 93.1L573.3 92.9L574.3 92.8L575.3 92.7L576.3 92.5L577.3 92.3L578.3 92.2L579.3 92L580.3 91.9L581.3 91.8L582.4 91.7L583.4 91.5L584.4 91.4L585.4 91.3L586.4 91.2L587.4 91.1L588.4 91L589.4 90.9L590.4 90.8L591.4 90.7L592.4 90.6L593.4 90.5L594.4 90.4L595.5 90.3L596.5 90.2L597.5 90.1L598.5 90L599.5 89.9L600.5 89.8L601.5 89.7L602.5 89.7L603.5 89.6L604.5 89.5L605.5 89.5L606.5 89.4L607.5 89.3L608.6 89.2L609.6 89.2L610.6 89.1L611.6 89L612.6 88.9L613.6 88.9L614.6 88.8L615.6 88.7L616.6 88.7L617.6 88.6L618.6 88.5L619.6 88.5L620.6 88.4L621.7 88.3L622.7 88.2L623.7 88.2L624.7 88.1L625.7 88L626.7 88L627.7 87.9L628.7 87.8L629.7 87.7L630.7 87.7L631.7 87.6L632.7 87.5L633.8 87.4L634.8 87.3L635.8 87.2L636.8 87.2L637.8 87.1L638.8 87L639.8 86.9L640.8 86.8L641.8 86.7L642.8 86.6L643.8 86.5L644.8 86.4L645.8 86.3L646.9 86.2L647.9 86.1L648.9 86L649.9 85.9L650.9 85.8L651.9 85.8L652.9 85.7L653.9 85.6L654.9 85.4L655.9 85.3L656.9 85.2L657.9 85.1L658.9 85L660 84.9L661 84.8L662 84.7L663 84.6L664 84.4L665 84.3L666 84.3L667 84.2L668 84L669 83.9L670 83.8L671 83.7L672 83.6L673.1 83.5L674.1 83.4L675.1 83.3L676.1 83.2L677.1 83L678.1 82.9L679.1 82.8L680.1 82.8L681.1 82.6L682.1 82.5L683.1 82.4L684.1 82.3L685.1 82.2L686.2 82.1L687.2 82L688.2 81.9L689.2 81.8L690.2 81.7L691.2 81.6L692.2 81.5L693.2 81.4L694.2 81.3L695.2 81.3L696.2 81.1L697.2 81L698.2 80.9L699.3 80.8L700.3 80.8L701.3 80.7L702.3 80.6L703.3 80.5L704.3 80.5L705.3 80.4L706.3 80.3L707.3 80.2L708.3 80.1L709.3 80.1L710.3 80L711.4 79.9L712.4 79.8L713.4 79.8L714.4 79.7L715.4 79.6L716.4 79.6L717.4 79.5L718.4 79.4L719.4 79.4L720.4 79.3L721.4 79.2L722.4 79.2L723.4 79.1L724.5 79.1L725.5 79L726.5 78.9L727.5 78.9L728.5 78.8L729.5 78.8L730.5 78.7L731.5 78.6L732.5 78.6L733.5 78.5L734.5 78.4L735.5 78.4L736.5 78.4L737.6 78.3L738.6 78.2L739.6 78.2L740.6 78.1L741.6 78L742.6 78L743.6 77.9L744.6 77.9L745.6 77.8L746.6 77.7L747.6 77.7L748.6 77.6L749.6 77.6L750.7 77.5L751.7 77.4L752.7 77.4L753.7 77.3L754.7 77.2L755.7 77.2L756.7 77.1L757.7 77.1L758.7 77L759.7 76.9L760.7 76.9L761.7 76.8L762.7 76.7L763.8 76.6L764.8 76.6" fill="none" stroke-width="1"></path></g><g><path stroke="#3C4E66" stroke-linecap="round" stroke-linejoin="round" d="M97.6 526.2L98.6 520.6L99.6 508.1L100.6 493.6L101.6 480.1L102.6 468.9L103.6 446.7L104.7 443.2L105.7 433.2L106.7 426.8L107.7 420.1L108.7 408.7L109.7 402.8L110.7 396.5L111.7 391.4L112.7 387.7L113.7 383.9L114.7 381.3L115.7 378.6L116.7 376.4L117.8 374.8L118.8 374.5L119.8 364.5L120.8 360.9L121.8 359.9L122.8 358.8L123.8 357.8L124.8 356.9L125.8 356.7L126.8 356.4L127.8 356.2L128.8 355.4L129.8 355.2L130.9 355L131.9 354.6L132.9 354.2L133.9 353.6L134.9 353L135.9 352.3L136.9 351.3L137.9 350.6L138.9 349.6L139.9 348.7L140.9 347.7L141.9 346.4L142.9 345L144 343.8L145 342.5L146 341.1L147 338.9L148 337.4L149 333.8L150 331.3L151 328.9L152 326L153 323.1L154 319.9L155 315.9L156.1 311.8L157.1 308.1L158.1 304.4L159.1 300.3L160.1 296.9L161.1 293L162.1 288.7L163.1 284.8L164.1 281.1L165.1 278.3L166.1 275.3L167.1 272.2L168.1 269L169.2 266.1L170.2 263.5L171.2 261.7L172.2 259.7L173.2 257.7L174.2 256L175.2 254L176.2 252L177.2 250.2L178.2 248.7L179.2 246.4L180.2 245.1L181.2 243.6L182.3 242.3L183.3 240.7L184.3 239.3L185.3 238.2L186.3 237.1L187.3 236L188.3 235L189.3 233.9L190.3 232.8L191.3 231.8L192.3 230.8L193.3 230L194.3 229.2L195.4 228.3L196.4 227.5L197.4 226.6L198.4 225.7L199.4 224.9L200.4 224.1L201.4 223.4L202.4 222.6L203.4 221.8L204.4 221L205.4 220.2L206.4 219.4L207.4 218.8L208.5 218.2L209.5 217.5L210.5 216.8L211.5 216.1L212.5 215.3L213.5 214.6L214.5 214L215.5 213.4L216.5 212.7L217.5 212L218.5 211.3L219.5 210.6L220.6 209.9L221.6 209.3L222.6 208.7L223.6 208.1L224.6 207.5L225.6 206.8L226.6 206.1L227.6 205.3L228.6 204.7L229.6 204.2L230.6 203.5L231.6 202.9L232.6 202.2L233.7 201.5L234.7 200.9L235.7 200.3L236.7 199.8L237.7 199.2L238.7 198.6L239.7 197.9L240.7 197.4L241.7 196.8L242.7 196.2L243.7 195.7L244.7 195.1L245.7 194.5L246.8 193.9L247.8 193.1L248.8 192.5L249.8 192L250.8 191.5L251.8 190.9L252.8 190.2L253.8 189.6L254.8 188.9L255.8 188.3L256.8 187.7L257.8 187.2L258.8 186.6L259.9 185.9L260.9 185.2L261.9 184.6L262.9 184L263.9 183.4L264.9 182.9L265.9 182.3L266.9 181.7L267.9 181.1L268.9 180.4L269.9 179.8L270.9 179.3L271.9 178.8L273 178.2L274 177.6L275 177L276 176.4L277 175.8L278 175.3L279 174.8L280 174.3L281 173.6L282 173L283 172.4L284 171.8L285 171.3L286.1 170.9L287.1 170.4L288.1 169.8L289.1 169.2L290.1 168.6L291.1 168.1L292.1 167.7L293.1 167.3L294.1 166.8L295.1 166.3L296.1 165.8L297.1 165.3L298.2 164.8L299.2 164.4L300.2 164L301.2 163.6L302.2 163.1L303.2 162.7L304.2 162.2L305.2 161.8L306.2 161.4L307.2 161.1L308.2 160.7L309.2 160.3L310.2 159.8L311.3 159.4L312.3 159L313.3 158.7L314.3 158.4L315.3 158.1L316.3 157.7L317.3 157.2L318.3 156.9L319.3 156.5L320.3 156.2L321.3 155.8L322.3 155.5L323.3 155.1L324.4 154.7L325.4 154.3L326.4 154L327.4 153.7L328.4 153.4L329.4 153.1L330.4 152.7L331.4 152.4L332.4 152L333.4 151.6L334.4 151.3L335.4 151L336.4 150.7L337.5 150.3L338.5 150L339.5 149.6L340.5 149.3L341.5 149L342.5 148.7L343.5 148.4L344.5 148.1L345.5 147.7L346.5 147.4L347.5 147L348.5 146.8L349.5 146.5L350.6 146.2L351.6 145.9L352.6 145.6L353.6 145.3L354.6 144.9L355.6 144.7L356.6 144.4L357.6 144.1L358.6 143.7L359.6 143.4L360.6 143.1L361.6 142.7L362.7 142.5L363.7 142.2L364.7 141.9L365.7 141.6L366.7 141.2L367.7 140.8L368.7 140.5L369.7 140.2L370.7 139.9L371.7 139.6L372.7 139.2L373.7 138.8L374.7 138.4L375.8 138L376.8 137.7L377.8 137.4L378.8 137L379.8 136.6L380.8 136.2L381.8 135.7L382.8 135.4L383.8 135L384.8 134.6L385.8 134.2L386.8 133.8L387.8 133.4L388.9 133L389.9 132.5L390.9 132.2L391.9 131.9L392.9 131.5L393.9 131.1L394.9 130.6L395.9 130.2L396.9 129.8L397.9 129.5L398.9 129.2L399.9 128.8L400.9 128.4L402 128L403 127.6L404 127.3L405 127L406 126.7L407 126.3L408 126L409 125.6L410 125.3L411 124.9L412 124.7L413 124.4L414 124.1L415.1 123.7L416.1 123.3L417.1 123L418.1 122.6L419.1 122.4L420.1 122.1L421.1 121.8L422.1 121.4L423.1 120.7L424.1 120.3L425.1 120L426.1 119.8L427.2 119.5L428.2 119.2L429.2 118.9L430.2 118.5L431.2 118.2L432.2 117.9L433.2 117.7L434.2 117.5L435.2 117.2L436.2 116.9L437.2 116.6L438.2 116.4L439.2 116.1L440.3 116L441.3 115.8L442.3 115.5L443.3 115.2L444.3 114.8L445.3 114.6L446.3 114.4L447.3 114.2L448.3 113.9L449.3 113.6L450.3 113.3L451.3 113L452.3 112.7L453.4 112.4L454.4 112.1L455.4 111.9L456.4 111.6L457.4 111.4L458.4 111.1L459.4 110.8L460.4 110.6L461.4 110.4L462.4 110.2L463.4 110L464.4 109.7L465.4 109.5L466.5 109.3L467.5 109.1L468.5 108.9L469.5 108.7L470.5 108.5L471.5 108.3L472.5 108.1L473.5 107.9L474.5 107.8L475.5 107.6L476.5 107.5L477.5 107.3L478.5 107.2L479.6 107L480.6 106.8L481.6 106.7L482.6 106.6L483.6 106.5L484.6 106.3L485.6 106.2L486.6 106L487.6 105.9L488.6 105.8L489.6 105.7L490.6 105.6L491.6 105.5L492.7 105.4L493.7 105.2L494.7 105.1L495.7 105L496.7 104.9L497.7 104.8L498.7 104.7L499.7 104.6L500.7 104.4L501.7 104.3L502.7 104.2L503.7 104.1L504.8 104L505.8 103.9L506.8 103.8L507.8 103.6L508.8 103.5L509.8 103.4L510.8 103.3L511.8 103.2L512.8 103.1L513.8 102.9L514.8 102.8L515.8 102.6L516.8 102.5L517.9 102.4L518.9 102.3L519.9 102.2L520.9 102L521.9 101.9L522.9 101.7L523.9 101.6L524.9 101.4L525.9 101.3L526.9 101.2L527.9 101L528.9 100.8L529.9 100.6L531 100.5L532 100.4L533 100.2L534 100.1L535 99.9L536 99.7L537 99.5L538 99.4L539 99.3L540 99.1L541 99L542 98.8L543 98.6L544.1 98.4L545.1 98.2L546.1 98L547.1 97.9L548.1 97.7L549.1 97.5L550.1 97.3L551.1 97.1L552.1 96.9L553.1 96.7L554.1 96.5L555.1 96.3L556.1 96.1L557.2 95.9L558.2 95.7L559.2 95.5L560.2 95.3L561.2 95.2L562.2 95L563.2 94.8L564.2 94.5L565.2 94.3L566.2 94.2L567.2 94L568.2 93.9L569.3 93.7L570.3 93.5L571.3 93.3L572.3 93.1L573.3 92.9L574.3 92.8L575.3 92.7L576.3 92.5L577.3 92.3L578.3 92.2L579.3 92L580.3 91.9L581.3 91.8L582.4 91.7L583.4 91.5L584.4 91.4L585.4 91.3L586.4 91.2L587.4 91.1L588.4 91L589.4 90.9L590.4 90.8L591.4 90.7L592.4 90.6L593.4 90.5L594.4 90.4L595.5 90.3L596.5 90.2L597.5 90.1L598.5 90L599.5 89.9L600.5 89.8L601.5 89.7L602.5 89.7L603.5 89.6L604.5 89.5L605.5 89.5L606.5 89.4L607.5 89.3L608.6 89.2L609.6 89.2L610.6 89.1L611.6 89L612.6 88.9L613.6 88.9L614.6 88.8L615.6 88.7L616.6 88.7L617.6 88.6L618.6 88.5L619.6 88.5L620.6 88.4L621.7 88.3L622.7 88.2L623.7 88.2L624.7 88.1L625.7 88L626.7 88L627.7 87.9L628.7 87.8L629.7 87.7L630.7 87.7L631.7 87.6L632.7 87.5L633.8 87.4L634.8 87.3L635.8 87.2L636.8 87.2L637.8 87.1L638.8 87L639.8 86.9L640.8 86.8L641.8 86.7L642.8 86.6L643.8 86.5L644.8 86.4L645.8 86.3L646.9 86.2L647.9 86.1L648.9 86L649.9 85.9L650.9 85.8L651.9 85.8L652.9 85.7L653.9 85.6L654.9 85.4L655.9 85.3L656.9 85.2L657.9 85.1L658.9 85L660 84.9L661 84.8L662 84.7L663 84.6L664 84.4L665 84.3L666 84.3L667 84.2L668 84L669 83.9L670 83.8L671 83.7L672 83.6L673.1 83.5L674.1 83.4L675.1 83.3L676.1 83.2L677.1 83L678.1 82.9L679.1 82.8L680.1 82.8L681.1 82.6L682.1 82.5L683.1 82.4L684.1 82.3L685.1 82.2L686.2 82.1L687.2 82L688.2 81.9L689.2 81.8L690.2 81.7L691.2 81.6L692.2 81.5L693.2 81.4L694.2 81.3L695.2 81.3L696.2 81.1L697.2 81L698.2 80.9L699.3 80.8L700.3 80.8L701.3 80.7L702.3 80.6L703.3 80.5L704.3 80.5L705.3 80.4L706.3 80.3L707.3 80.2L708.3 80.1L709.3 80.1L710.3 80L711.4 79.9L712.4 79.8L713.4 79.8L714.4 79.7L715.4 79.6L716.4 79.6L717.4 79.5L718.4 79.4L719.4 79.4L720.4 79.3L721.4 79.2L722.4 79.2L723.4 79.1L724.5 79.1L725.5 79L726.5 78.9L727.5 78.9L728.5 78.8L729.5 78.8L730.5 78.7L731.5 78.6L732.5 78.6L733.5 78.5L734.5 78.4L735.5 78.4L736.5 78.4L737.6 78.3L738.6 78.2L739.6 78.2L740.6 78.1L741.6 78L742.6 78L743.6 77.9L744.6 77.9L745.6 77.8L746.6 77.7L747.6 77.7L748.6 77.6L749.6 77.6L750.7 77.5L751.7 77.4L752.7 77.4L753.7 77.3L754.7 77.2L755.7 77.2L756.7 77.1L757.7 77.1L758.7 77L759.7 76.9L760.7 76.9L761.7 76.8L762.7 76.7L763.8 76.6L764.8 76.6" fill="none" stroke-width="1.5"></path></g></g></g></g><g class="SourcesFooter" style="fill:#777"><g style="fill:#777"><text font-size="12.60" x="15.0" y="582.5"><tspan x="15" y="582.48">Source: Johns Hopkins University CSSE COVID-19 Data</tspan></text></g><text font-size="12.60" x="796.4" y="582.5"><tspan x="796.444" y="582.48"><a style="fill: #777;" class="cclogo" href="http://creativecommons.org/licenses/by/4.0/deed.en_US" target="_blank">CC BY</a></tspan></text></g></svg>