<?xml version="1.0" encoding="UTF-8" standalone="no"?>
<svg
   version="1.1"
   viewBox="0 0 717.8181818181818 310.875"
   width="717.8181818181818"
   height="310.875"
   id="svg266"
   sodipodi:docname="sigmoid.svg"
   inkscape:version="1.1.1 (3bf5ae0d25, 2021-09-20)"
   xmlns:inkscape="http://www.inkscape.org/namespaces/inkscape"
   xmlns:sodipodi="http://sodipodi.sourceforge.net/DTD/sodipodi-0.dtd"
   xmlns="http://www.w3.org/2000/svg"
   xmlns:svg="http://www.w3.org/2000/svg">
  <sodipodi:namedview
     id="namedview268"
     pagecolor="#ffffff"
     bordercolor="#666666"
     borderopacity="1.0"
     inkscape:pageshadow="2"
     inkscape:pageopacity="0.0"
     inkscape:pagecheckerboard="0"
     showgrid="false"
     inkscape:zoom="1.7608916"
     inkscape:cx="358.90909"
     inkscape:cy="155.31904"
     inkscape:window-width="1911"
     inkscape:window-height="1043"
     inkscape:window-x="3844"
     inkscape:window-y="16"
     inkscape:window-maximized="1"
     inkscape:current-layer="svg266" />
  <!-- svg-source:excalidraw -->
  <defs
     id="defs4">
    <style
       id="style2">
      @font-face {
        font-family: &quot;Virgil&quot;;
        src: url(&quot;https://excalidraw.com/FG_Virgil.woff2&quot;);
      }
      @font-face {
        font-family: &quot;Cascadia&quot;;
        src: url(&quot;https://excalidraw.com/Cascadia.woff2&quot;);
      }
    </style>
  </defs>
  <g
     transform="translate(13.5 65.375) rotate(0 16.5 18.5)"
     id="g10">
    <path
       d="M10.534166663764381 1.3160789714041528 C13.36584016473525 -0.07889453167214522, 18.478340329637675 0.0628314120686373, 21.831965106690404 1.386979757888053 C25.185589883743134 2.711128103707469, 28.711031436160592 5.808763275810739, 30.65591532608076 9.260969046320646 C32.60079921600092 12.713174816830554, 34.277958693955725 18.02890187666041, 33.501268446211405 22.100214380947495 C32.724578198467086 26.17152688523458, 29.020120005363697 31.196597585525595, 25.995773839614845 33.68884407204316 C22.971427673865993 36.181090558560726, 18.823261963495654 37.22168926047978, 15.3551914517183 37.0536933000529 C11.887120939940948 36.88569733962602, 7.869409440942823 35.31773639572002, 5.187350768950729 32.68086830948188 C2.505292096958635 30.04400022324374, -0.4315904316455346 25.284342558673902, -0.7371605802342636 21.23248478262405 C-1.0427307288229926 17.180627006574195, 0.9845972415506283 11.944652138578194, 3.3539298774183557 8.36972165318276 C5.723262513286083 4.794791167787325, 11.780012586973799 0.9272719545965205, 13.4788352349721 -0.21709812974856035 C15.177657882970403 -1.3614682140936412, 13.54661568938049 1.0308691241369015, 13.546865765408164 1.5035011471122743 M15.079641857195579 0.9609886499350395 C18.146830253648687 0.06393784125457314, 22.256017209750823 1.4533888648082616, 24.922304885552087 3.353197901865128 C27.58859256135335 5.253006938921994, 29.693537103363173 8.822637150937465, 31.077367912003176 12.35984287227624 C32.46119872064318 15.897048593615013, 34.437717975995454 20.823101908851694, 33.22528973739211 24.576432229897772 C32.012861498788766 28.32976255094385, 27.386300406144066 32.9118158763049, 23.802798480383125 34.879824798552704 C20.219296554622183 36.84783372080051, 15.268552577102527 37.416904656688, 11.724278182826469 36.38448576338462 C8.18000378855041 35.35206687008124, 4.69342412899441 31.678506849900888, 2.5371521147267746 28.685311438732434 C0.38088010045913956 25.69211602756398, -1.4130377233757663 22.204487049154665, -1.2133539027793425 18.425313296373886 C-1.0136700821829188 14.646139543593108, 1.130318337720991 8.88790408201141, 3.7352550383053167 6.010268922047761 C6.340191738889642 3.1326337620841116, 12.641078216510358 2.1216212877211, 14.416266300726612 1.1595023365919914 C16.191454384942865 0.1973833854628827, 14.133651131132513 0.30075452651685924, 14.386383543602834 0.2375552152731082"
       stroke="#000000"
       stroke-width="1"
       fill="none"
       id="path8" />
  </g>
  <g
     transform="translate(223 103.875) rotate(0 68.5 66.5)"
     id="g14">
    <path
       d="M98.99765590248784 7.778336180524903 C108.48840410465266 11.30123619133397, 118.6656991408706 19.992318708602394, 124.9651159239817 28.12689825743047 C131.2645327070928 36.26147780625854, 135.35847621778498 46.68944694517116, 136.79415660115444 56.58581347349335 C138.2298369845239 66.48218000181555, 137.16277467612937 77.64496571769165, 133.5791982241985 87.50509742736361 C129.99562177226764 97.36522913703557, 123.09661943821263 108.63798560466931, 115.2926978895692 115.74660373152508 C107.48877634092577 122.85522185838086, 96.82670268293526 127.6495228943464, 86.75566893233791 130.15680618849828 C76.68463518174056 132.66408948265016, 65.11075989976301 132.88643234532435, 54.866495385985104 130.7903034964363 C44.62223087220719 128.69417464754827, 33.612657126457115 123.99926412504162, 25.290081849670443 117.58003309517011 C16.96750657288377 111.1608020652986, 9.052169072788967 101.59978640073717, 4.931043725265063 92.27491731720724 C0.8099183777411598 82.95004823367731, -0.27372995028767144 71.67513513571006, 0.5633297645270261 61.63081859399051 C1.4003894793417238 51.58650205227095, 4.430152259575775 40.66915404478115, 9.953402014153248 32.00901806688989 C15.476651768730722 23.34888208899862, 24.71606954346136 14.8183328517445, 33.702828291991864 9.670002726642927 C42.68958704052237 4.521672601541353, 53.610128748174944 1.7559839996643056, 63.87395450533628 1.1190373162804406 C74.13778026249761 0.4820906328965755, 89.04668964287687 4.473613655391209, 95.28578283495989 5.848322626339737 C101.52487602704291 7.223031597288265, 99.952931472031 8.532207384380888, 101.30851365783437 9.367291141971606 C102.66409584363774 10.202374899562324, 103.87131476772124 9.876347903070236, 103.41927594978016 10.858825171884043 M69.13615590193875 0.15109598006773695 C78.9861975222619 -1.084928230033692, 90.0644231850103 1.4984120973585533, 99.48215393555026 6.201393605428137 C108.89988468609022 10.904375113497721, 119.56817523945179 19.9568935838505, 125.6425404051785 28.36898502848524 C131.7169055709052 36.78107647311998, 134.93079070914484 46.751606025492656, 135.92834492991048 56.67394227323658 C136.92589915067612 66.59627852098049, 135.0454262231749 78.13349534267039, 131.62786572977237 87.90300251494877 C128.21030523636983 97.67250968722715, 122.6896876658874 108.22412233363639, 115.42298196949528 115.2909853069069 C108.15627627310316 122.35784828017742, 98.41684741947132 127.82502436922604, 88.02763155141963 130.30418035457183 C77.63841568336794 132.7833363399176, 63.66762965449037 132.07950408211428, 53.087686761185154 130.16592121898157 C42.50774386787994 128.25233835584885, 32.26053616384119 125.15447431520518, 24.547974191588345 118.8226831757755 C16.8354122193355 112.49089203634581, 11.058790045559686 101.71818941985717, 6.812314927668083 92.17517438240344 C2.565839809776481 82.63215934494971, -1.3151206320464794 71.64843176367164, -0.9308765157612697 61.564592951053136 C-0.54663239947606 51.480754138434634, 3.142951781504016 40.57921218766852, 9.117779625379342 31.672141506692427 C15.092607469254666 22.765070825716336, 25.61736316223125 13.543171750557075, 34.918090547490685 8.122168865196578 C44.21881793275012 2.7011659798360794, 59.30588444595235 0.5515344996474962, 64.92214393693595 -0.8538758054705653 C70.53840342791955 -2.2592861105886266, 68.07406562202398 -0.918475462438181, 68.61564749339229 -0.31029296551179186 C69.1572293647606 0.2978895314145973, 68.43951922775659 1.4729646877070965, 68.17163516514577 2.7952191760877696"
       stroke="#000000"
       stroke-width="1"
       fill="none"
       id="path12" />
  </g>
  <g
     transform="translate(10 263.875) rotate(0 16.5 18.5)"
     id="g18">
    <path
       d="M20.072622880342664 1.218427284215263 C23.45441652451593 1.7769198083400743, 27.597708533766454 4.205871276968459, 29.71349689476598 7.1474886664276 C31.82928525576551 10.089106055886742, 32.98987020306779 15.042506262384745, 32.767353046339835 18.868131620970107 C32.54483588961188 22.69375697955547, 30.455077825378567 27.224163045762396, 28.37839395439828 30.10124081793978 C26.301710083417994 32.97831859011716, 23.710591852790756 35.3924008769562, 20.307249820458118 36.130598254034396 C16.90390778812548 36.86879563111259, 11.323962584822633 36.43999954042684, 7.958341760402458 34.530425080408925 C4.592720935982284 32.62085062039101, 1.3775858743954392 28.533155458675946, 0.1135248739370649 24.67315149392693 C-1.1505361265213094 20.813147529177915, -0.8485709025852124 15.003648658155639, 0.3739757576522127 11.370401291914837 C1.5965224178896378 7.7371539256740345, 3.8574452432841606 4.583229355283067, 7.448804835361615 2.8736672964821146 C11.04016442743907 1.164105237681162, 19.00993480875679 0.9922846569651961, 21.922133310116944 1.113028939109121 C24.8343318114771 1.2337732212530461, 24.948208034768616 3.333750233577548, 24.921995843522538 3.5981329893456646 M23.22908920986064 3.4858627660680845 C26.366603918491666 4.9248524722513105, 29.552024130341167 7.456616217925895, 31.031155017267686 11.157555619890026 C32.510285904194205 14.858495021854157, 33.07258364096569 21.783253047957743, 32.10387453141975 25.691499177852876 C31.13516542187381 29.59974530774801, 28.176647444720356 32.62869940474384, 25.218900359992062 34.60703239926082 C22.26115327526377 36.58536539377779, 17.83164730300094 38.2720701454077, 14.357392023049997 37.56149714495473 C10.883136743099053 36.850924144501754, 6.972372995899141 33.22750022312269, 4.3733686802864025 30.343594396542983 C1.7743643646736635 27.459688569963276, -1.1200280384508223 24.209670114916232, -1.236633870626438 20.2580621854765 C-1.3532397028020535 16.30645425603677, 1.4400093381726715 10.165835426291693, 3.6737336872327084 6.633946819904587 C5.907458036292745 3.102058213517481, 8.916350365366643 -0.26044855537253275, 12.165712223733784 -0.9332694528461332 C15.415074082100926 -1.6060903503197337, 21.184914072473298 1.7801021722593457, 23.169904837435556 2.5970214350629846 C25.154895602397815 3.4139406978666234, 24.07924018787931 3.9266539933931006, 24.075656813507333 3.9682461239756996"
       stroke="#000000"
       stroke-width="1"
       fill="none"
       id="path16" />
  </g>
  <g
     transform="translate(13 165.875) rotate(0 16.5 18.5)"
     id="g22">
    <path
       d="M20.177198071491325 0.8199783281730753 C23.657261094071977 1.0593386242201328, 27.38869671693284 3.4713070625725178, 29.583832247422336 6.269843031513934 C31.77896777791183 9.068379000455352, 33.45972701734775 13.44878883139791, 33.34801125442829 17.611194141821574 C33.236295491508834 21.77359945224524, 31.322334612343774 28.109830856981468, 28.913537669905573 31.244274894055927 C26.50474072746737 34.378718931130386, 22.31812100552483 36.00609899255251, 18.89522959979908 36.41785836426833 C15.472338194073332 36.829617735984144, 11.375046859736749 35.72939597662098, 8.376189235551081 33.71483112435081 C5.377331611365413 31.70026627208064, 2.269877666417684 28.035141396985498, 0.902083854685074 24.330469250647305 C-0.4657099570475358 20.62579710430911, -1.104896910377361 15.175447206554383, 0.16942636515542198 11.486798246321651 C1.4437496406882049 7.79814928608892, 4.740997441163781 3.838240023354669, 8.548023507881771 2.1985754892509224 C12.35504957459976 0.5589109551471754, 19.942263555192476 1.3226232481733893, 23.01158276546336 1.6488110416991688 C26.080901975734243 1.9749988352249483, 27.0978652441782 3.729513422778967, 26.96393876950708 4.1557022504056 M11.245097632231762 0.750175461626597 C14.117531969593006 -0.804872699500373, 17.354507392302718 -0.5721966964617924, 20.766756428332087 0.6863066542548104 C24.179005464361456 1.9448100049714132, 29.630376076433596 4.950354236285991, 31.718591848407975 8.301195565926214 C33.80680762038236 11.652036895566438, 33.817475983712704 16.8275041748061, 33.29605106017837 20.79135463209615 C32.77462613664404 24.7552050893862, 31.310436274265943 29.596051904958074, 28.590042307201983 32.08429830966652 C25.869648340138024 34.57254471437497, 20.43705953259573 35.48142433965333, 16.97368725779461 35.72083306034685 C13.510314982993489 35.96024178104037, 10.63938972649182 35.82883106529901, 7.809808658395264 33.52075063382764 C4.980227590298709 31.212670202356268, 1.2295781230566272 25.937451793735203, -0.0037991507847259243 21.872350471518615 C-1.237176424626079 17.807249149302027, -1.3171308933214192 12.52715336001179, 0.4095450153471454 9.130142700528113 C2.13622092401571 5.733132041044437, 8.5024644216485 2.757998109982971, 10.356256301226662 1.4902865146165567 C12.210048180804822 0.22257491925014272, 11.653358076669566 1.4579476855062194, 11.532296292816104 1.5238731283296296"
       stroke="#000000"
       stroke-width="1"
       fill="none"
       id="path20" />
  </g>
  <g
     transform="translate(13 115.875) rotate(0 16.5 18.5)"
     id="g26">
    <path
       d="M14.798390961263262 0.6989911010717478 C17.94247954187088 -0.14927038523246738, 22.262955605772547 1.2100365627685985, 25.038623705596486 3.178960265015844 C27.814291805420424 5.147883967263089, 30.16789868012398 8.896975638597356, 31.452399560206906 12.51253331455522 C32.73690044028983 16.128090990513083, 33.99752247328213 21.145990434054564, 32.74562898609404 24.872306320763027 C31.493735498905952 28.59862220747149, 27.37163380723298 32.94041983923792, 23.94103863707837 34.87042863480599 C20.510443466923764 36.80043743037406, 15.677113983759627 37.4178987348821, 12.1620579651664 36.45235909417144 C8.647001946573171 35.48681945346078, 5.011905969808563 32.11544478989741, 2.850702525519006 29.077190790542055 C0.689499081229449 26.0389367911867, -0.9817361513261087 22.06267145817203, -0.8051627005709427 18.22283509803931 C-0.6285892498157768 14.382998737906593, 0.8369226522083744 8.960095402877322, 3.910143230050002 6.038172629745748 C6.98336380789163 3.1162498566141745, 14.829691658335042 1.567717846716215, 17.63416076647882 0.6912984592498681 C20.438629874622603 -0.18512092821647863, 20.61052488003238 0.7176496830244231, 20.736957878912683 0.7796563049476681 M17.451496875560657 -0.33502868927174134 C20.973112521384156 -0.15203261340658022, 25.70596086150205 4.10878715546329, 28.289917637586314 7.1007921065333335 C30.873874413670578 10.092797057603377, 32.666206285262646 13.780138708419758, 32.95523753206624 17.617001017148525 C33.24426877886984 21.45386332587729, 32.076673286170795 27.06886567348248, 30.024105118407867 30.121965958905932 C27.97153695064494 33.175066244329386, 24.307460148342297 34.91175585775877, 20.639828525488664 35.93560272968923 C16.97219690263503 36.95944960161969, 11.193840346603857 37.993303926251045, 8.018315381286056 36.2650471904887 C4.842790415968256 34.53679045472636, 2.970863085068716 29.599331965975402, 1.5866787335818682 25.566062315115147 C0.20249438209502024 21.53279266425489, -1.0521140076128659 15.729761702485836, -0.2867907276350312 12.06542928532716 C0.47853255234280356 8.401096868168482, 3.0988853040846025 5.330037661538646, 6.178618413448877 3.580067812163078 C9.258351522813152 1.8300979627875094, 16.246182978461256 2.2445989127274926, 18.191607928550614 1.5656101890737482 C20.13703287863997 0.8866214654200038, 18.096931361393835 -0.5151606730724971, 17.85116811398501 -0.49386452975938866"
       stroke="#000000"
       stroke-width="1"
       fill="none"
       id="path24" />
  </g>
  <g
     id="g32">
    <g
       transform="translate(45.5 83.375) rotate(0 89.93495100120552 31.460082266731177)"
       id="g30">
      <path
         d="M0.39250574558973317 1.044845362007618 C30.457364961008228 11.264032828311125, 150.53228353311619 50.858427051206434, 180.73046946972607 60.89177314788103 M-0.8605674673151226 0.5477852317225187 C28.992821547385926 10.998913866036261, 149.31061351904955 52.015178041312225, 179.64092047770507 62.372379301739855"
         stroke="#000000"
         stroke-width="1"
         fill="none"
         id="path28" />
    </g>
  </g>
  <g
     id="g38">
    <g
       transform="translate(45.5 136.375) rotate(0 87.7785031750798 14.439226177064683)"
       id="g36">
      <path
         d="M-0.6953589722514152 0.7270504519343375 C28.490321210523447 5.2284865106145535, 146.76571010301512 23.059049308796723, 176.25236532241107 27.526478104293346 M1.1404388379771264 0.0631479938607662 C30.09057982789663 4.68220573154899, 146.3640890381454 24.05862698413742, 175.43681165304966 28.815304360268637"
         stroke="#000000"
         stroke-width="1"
         fill="none"
         id="path34" />
    </g>
  </g>
  <g
     id="g44">
    <g
       transform="translate(45.5 184.375) rotate(0 91.4326592823351 1.9215155556797754)"
       id="g42">
      <path
         d="M-0.5717921689152717 -0.9797857090830803 C29.64008497049411 -0.32505594541629157, 150.63694822440544 3.794406942029794, 181.16403685063125 4.822816820442677 M1.328878213064745 1.1202228483092038 C31.92896956185189 1.36305348610195, 153.30272717326568 2.740047374817853, 183.43711073358543 3.132220902396366"
         stroke="#000000"
         stroke-width="1"
         fill="none"
         id="path40" />
    </g>
  </g>
  <g
     id="g50">
    <g
       transform="translate(41.5 284.375) rotate(0 96.49173779040575 -38.4793738021562)"
       id="g48">
      <path
         d="M-0.41365664452314377 0.3801122233271599 C31.755951964358488 -12.44272845139106, 161.1393415485819 -62.84410840223233, 193.39713222533464 -75.83035087138414 M1.5700348877627404 -0.46593280476517984 C33.58316672749507 -13.078897085509574, 160.84637699263482 -64.6661885251819, 192.65758118000812 -77.33885982763954"
         stroke="#000000"
         stroke-width="1"
         fill="none"
         id="path46" />
    </g>
  </g>
  <g
     transform="translate(22.5 217.375) rotate(0 0.5 0.5)"
     id="g54">
    <path
       d="M0.3946823375005568 -0.055625841905868334 C0.667174896970147 -0.00652031881995635, 1.3384000897658166 -0.04516346629702197, 1.5717331220963955 -0.10599768361335565 C1.8050661544269744 -0.16683190092968933, 2.0478237412730627 -0.5997097902182094, 1.7946805314840308 -0.42063114580387045 C1.5415373216949992 -0.24155250138953158, 0.3307121101391988 0.6037160751651689, 0.05287386336220545 0.9684741828726777 C-0.22496438341478792 1.3332322905801866, 0.019493607326885112 1.7008043730880194, 0.12765105082207057 1.767917500441183 C0.23580849431725603 1.8350306277943464, 0.8188147082629881 1.5358673765611377, 0.7018185243333181 1.3711529469916586 C0.5848223404036482 1.2064385174221794, -0.6185509557526102 0.9289506583409075, -0.5743260527559488 0.7796309230243081 C-0.5301011497592875 0.6303111877077088, 0.6912431886595791 0.5643045748769184, 0.9671679423132864 0.4752345350920621 C1.2430926959669937 0.38616449530720576, 1.1102055481953583 0.15938240736300596, 1.0812224691662953 0.24521068431517024 C1.0522393901372322 0.3310389612673345, 0.9676510976988395 0.9635267976868828, 0.7932694681389079 0.9902041968050476 C0.6188878385789762 1.0168815959232125, -0.0049056537649797075 0.40315778259806645, 0.034932691806705524 0.40527507902415927 M0.07869407442820567 -0.9139382914738232 C0.330093398369079 -1.2294756212448832, 1.6956198011759733 -0.4020306518427338, 1.7525127199597486 -0.15960874941788783 C1.8094056387435238 0.08281315300695816, 0.5970346219847641 0.32912250311314983, 0.4200515871308566 0.5405931230752528 C0.2430685522769491 0.7520637430373557, 0.5178276526150688 0.8565233972539799, 0.6906145108363035 1.1092149703547294 C0.8634013690575383 1.361906543455479, 1.28421280016306 1.95136127809232, 1.4567727364582648 2.05674256167975 C1.6293326727534696 2.16212384526718, 1.9019125847341682 2.1468080874330795, 1.7259741286075332 1.74150267187931 C1.5500356724808981 1.3361972563255406, 0.851272609298144 0.00010067428729360062, 0.40114199969845477 -0.37508993164286614 C-0.04898860990123449 -0.7502805375730259, -1.161497051433137 -0.6740011187347519, -0.9748095289906022 -0.5096409637016484 C-0.7881220065480674 -0.3452808086685448, 1.5317100418525829 0.3801152050583574, 1.5212671343536637 0.6110709985557551 C1.5108242268547445 0.8420267920531528, -0.6263946237407139 0.987799317934211, -1.0374669739841174 0.8760937972827381 C-1.4485393242275209 0.7643882766312651, -1.1324495965262704 0.24510641505614722, -0.9451669671067571 -0.059162125353082684"
       stroke="#000000"
       stroke-width="4"
       fill="none"
       id="path52" />
  </g>
  <g
     transform="translate(20 232.875) rotate(0 0.5 0.5)"
     id="g58">
    <path
       d="M1.2856149977414866 -0.8505197364671517 C1.1190478762935114 -0.7867462261420658, 0.07640153837099192 -0.02846996445983302, -0.060765900320701616 0.3119393992266496 C-0.19793333901239515 0.6523487629131322, 0.2310417602851948 1.05305408587099, 0.46261036559132535 1.1919364456517436 C0.694178970897456 1.3308188054324972, 1.3972358540827885 1.1756424000834846, 1.3286457315160818 1.1452335579111714 C1.260055608949375 1.1148247157388582, 0.05609350036462065 1.0248042625511955, 0.05106963019108535 1.0094833926178644 C0.04604576001755004 0.9941625226845332, 1.1464373162190382 1.0713857930710058, 1.29850251047487 1.0533083383111848 C1.4505677047307017 1.0352308835513637, 1.14446055023362 0.8416190684510844, 0.9634607957260761 0.9010186640589386 C0.7824610412185321 0.9604182596667928, 0.4476560510419366 1.4769203539816234, 0.21250398342960602 1.40970591195831 C-0.022648084182724543 1.3424914699349966, -0.5773052431668478 0.5747595440303022, -0.44745160994790734 0.4977320119190583 C-0.31759797672896684 0.4207044798078145, 0.9636542966049587 1.0107713238143299, 0.9916257827432488 0.9475407192908472 C1.019597268881539 0.8843101147673643, -0.3615803919692433 0.29125684314399714, -0.2796226931181671 0.11834838477816151 M-0.14788073336863555 0.3512234365099557 C-0.29138166975999796 0.4366327811952403, 0.0951899686828962 0.41353430354555976, 0.37727760082439765 0.5990895155086029 C0.6593652329658991 0.784644727471646, 1.2452014515961856 1.3403456778764564, 1.5446450594803731 1.4645547082882147 C1.8440886673645607 1.588763738699973, 2.2647814150898777 1.6536669707327603, 2.173939248129523 1.3443436979791525 C2.0830970811691683 1.0350204252255448, 1.4462312600151672 -0.14441974974037627, 0.9995920577182449 -0.39138492823343213 C0.5529528554213226 -0.638350106726488, -0.6128363452541652 -0.4022781375216228, -0.5058959656520117 -0.13744737297918252 C-0.3989555860498582 0.12738339156325773, 1.7773483613878307 0.9409393887381072, 1.6412343353311658 1.1975996590212095 C1.505120309274501 1.4542599293043117, -0.8548215996982342 1.581576896954585, -1.3225801219920015 1.4025142487194304 C-1.7903386442857687 1.223451600484276, -1.4053454815574316 0.5262404365317964, -1.1653167984314374 0.1232237696102822 C-0.9252881153054433 -0.279792897311232, -0.37532247968044885 -0.7789229381771703, 0.11759197676396321 -1.0155857528096548 C0.6105064332083753 -1.2522485674421393, 1.9169127858302022 -1.306484995976169, 1.792169940235035 -1.296753118184625"
       stroke="#000000"
       stroke-width="4"
       fill="none"
       id="path56" />
  </g>
  <g
     transform="translate(20 248.875) rotate(0 0.5 0.5)"
     id="g62">
    <path
       d="M0.9233128322975571 0.4574647612237842 C1.0191106670790957 0.42002415034849083, 1.7760767112130815 -0.8724470309299677, 1.805452437972102 -0.7128970572585077 C1.8348281647311224 -0.5533470835870478, 1.273190505777439 1.270376465868334, 1.0995671928516795 1.4147646032525443 C0.9259438799259198 1.5591527406367545, 0.7187995670273619 0.24473944575179818, 0.7637125604175437 0.15343176704675332 C0.8086255538077254 0.06212408834170846, 1.5039530650313437 0.6980111454655408, 1.3690451531927696 0.8669185310222751 C1.2341372413541956 1.0358259165790096, 0.20934194950037843 1.1314062468274508, -0.045734910613900503 1.1668760803871594 C-0.30081177072817944 1.202345913946868, -0.2394125086521484 1.0802208541998495, -0.16141600749290402 1.0797375323805263 C-0.08341950633365966 1.079254210561203, 0.2271016127873824 1.2470491731815307, 0.4222440963415657 1.1639761494712197 C0.617386579895749 1.0809031257609087, 0.9499433691804673 0.9139237395422515, 1.0094388938321956 0.5812993901186602 C1.068934418483924 0.2486750406950688, 0.9338376341197497 -0.6209080974887897, 0.7792172442519356 -0.8317699470703283 C0.6245968543841215 -1.0426317966518668, -0.058419264139018684 -0.8704354008560369, 0.0817165546253108 -0.6838717073705708 M0.17154876167144806 -0.17694190474224947 C-0.05105278093380097 0.22137518087387537, -0.3153623396997085 1.562827402528128, -0.4145976067193554 1.4625395692218195 C-0.5138328737390023 1.362251735915511, -0.48768298212120886 -0.7954074539742686, -0.42386284044643346 -0.7786689045801001 C-0.36004269877165807 -0.7619303551859316, -0.13585352500440273 1.430108683706539, -0.03167675667070313 1.5629708655868306 C0.07250001166299647 1.6958330474671222, 0.2732516163738256 -0.06619913647961956, 0.20119776955576418 0.018504186701649272 C0.12914392273770275 0.1032075098829181, -0.4658423655640896 1.9014300282569199, -0.46399983757907165 2.0711908046744436 C-0.4621573095940537 2.2409515810919673, 0.3736536740338716 1.3973460630774077, 0.2122529374658717 1.0370688452067922 C0.05085220089787179 0.6767916273361767, -1.4225011515674248 0.2235587590961878, -1.4324042569870712 -0.09047250254924985 C-1.4423073624067175 -0.4045037641946875, 0.10141610731728992 -0.7711643784264376, 0.15283430494799344 -0.8471187246658338 C0.20425250257869695 -0.92307307090523, -1.2417877414201572 -0.9374127484451251, -1.1238950712028501 -0.546198579985627 C-1.006002400985543 -0.15498441152612896, 0.37898469021031805 1.5061219835391482, 0.8601903262518357 1.5001662860911549"
       stroke="#000000"
       stroke-width="4"
       fill="none"
       id="path60" />
  </g>
  <g
     transform="translate(19.5 69.875) rotate(0 6 13)"
     id="g66">
    <text
       x="6"
       y="18"
       font-family="Virgil, Segoe UI Emoji"
       font-size="20px"
       fill="#000000"
       text-anchor="middle"
       style="white-space: pre;"
       direction="ltr"
       id="text64">X</text>
  </g>
  <g
     transform="translate(37 82.125) rotate(0 2 13)"
     id="g70">
    <text
       x="2"
       y="18"
       font-family="Virgil, Segoe UI Emoji"
       font-size="20px"
       fill="#000000"
       text-anchor="middle"
       style="white-space: pre;"
       direction="ltr"
       id="text68">1</text>
  </g>
  <g
     transform="translate(16.25 113) rotate(0 6 13)"
     id="g74">
    <text
       x="6"
       y="18"
       font-family="Virgil, Segoe UI Emoji"
       font-size="20px"
       fill="#000000"
       text-anchor="middle"
       style="white-space: pre;"
       direction="ltr"
       id="text72">X</text>
  </g>
  <g
     transform="translate(28.25 125.25) rotate(0 7.5 13)"
     id="g78">
    <text
       x="7.5"
       y="18"
       font-family="Virgil, Segoe UI Emoji"
       font-size="20px"
       fill="#000000"
       text-anchor="middle"
       style="white-space: pre;"
       direction="ltr"
       id="text76">2</text>
  </g>
  <g
     transform="translate(15.25 166) rotate(0 6 13)"
     id="g82">
    <text
       x="6"
       y="18"
       font-family="Virgil, Segoe UI Emoji"
       font-size="20px"
       fill="#000000"
       text-anchor="middle"
       style="white-space: pre;"
       direction="ltr"
       id="text80">X</text>
  </g>
  <g
     transform="translate(27.75 178.25) rotate(0 7 13)"
     id="g86">
    <text
       x="7"
       y="18"
       font-family="Virgil, Segoe UI Emoji"
       font-size="20px"
       fill="#000000"
       text-anchor="middle"
       style="white-space: pre;"
       direction="ltr"
       id="text84">3</text>
  </g>
  <g
     transform="translate(15.25 261) rotate(0 6 13)"
     id="g90">
    <text
       x="6"
       y="18"
       font-family="Virgil, Segoe UI Emoji"
       font-size="20px"
       fill="#000000"
       text-anchor="middle"
       style="white-space: pre;"
       direction="ltr"
       id="text88">X</text>
  </g>
  <g
     transform="translate(30.25 273.25) rotate(0 4.5 13)"
     id="g94">
    <text
       x="4.5"
       y="18"
       font-family="Virgil, Segoe UI Emoji"
       font-size="20px"
       fill="#000000"
       text-anchor="middle"
       style="white-space: pre;"
       direction="ltr"
       id="text92">n</text>
  </g>
  <g
     transform="translate(73.25 70) rotate(0 6 13)"
     id="g98">
    <text
       x="6"
       y="18"
       font-family="Virgil, Segoe UI Emoji"
       font-size="20px"
       fill="#000000"
       text-anchor="middle"
       style="white-space: pre;"
       direction="ltr"
       id="text96">w</text>
  </g>
  <g
     transform="translate(90.75 82.25) rotate(0 2 13)"
     id="g102">
    <text
       x="2"
       y="18"
       font-family="Virgil, Segoe UI Emoji"
       font-size="20px"
       fill="#000000"
       text-anchor="middle"
       style="white-space: pre;"
       direction="ltr"
       id="text100">1</text>
  </g>
  <g
     transform="translate(69.25 111) rotate(0 6 13)"
     id="g106">
    <text
       x="6"
       y="18"
       font-family="Virgil, Segoe UI Emoji"
       font-size="20px"
       fill="#000000"
       text-anchor="middle"
       style="white-space: pre;"
       direction="ltr"
       id="text104">w</text>
  </g>
  <g
     transform="translate(81.25 123.25) rotate(0 7.5 13)"
     id="g110">
    <text
       x="7.5"
       y="18"
       font-family="Virgil, Segoe UI Emoji"
       font-size="20px"
       fill="#000000"
       text-anchor="middle"
       style="white-space: pre;"
       direction="ltr"
       id="text108">2</text>
  </g>
  <g
     transform="translate(64.25 156) rotate(0 6 13)"
     id="g114">
    <text
       x="6"
       y="18"
       font-family="Virgil, Segoe UI Emoji"
       font-size="20px"
       fill="#000000"
       text-anchor="middle"
       style="white-space: pre;"
       direction="ltr"
       id="text112">w</text>
  </g>
  <g
     transform="translate(76.75 166.25) rotate(0 7 13)"
     id="g118">
    <text
       x="7"
       y="18"
       font-family="Virgil, Segoe UI Emoji"
       font-size="20px"
       fill="#000000"
       text-anchor="middle"
       style="white-space: pre;"
       direction="ltr"
       id="text116">3</text>
  </g>
  <g
     transform="translate(50.25 239) rotate(0 6 13)"
     id="g122">
    <text
       x="6"
       y="18"
       font-family="Virgil, Segoe UI Emoji"
       font-size="20px"
       fill="#000000"
       text-anchor="middle"
       style="white-space: pre;"
       direction="ltr"
       id="text120">w</text>
  </g>
  <g
     transform="translate(65.25 251.25) rotate(0 4.5 13)"
     id="g126">
    <text
       x="4.5"
       y="18"
       font-family="Virgil, Segoe UI Emoji"
       font-size="20px"
       fill="#000000"
       text-anchor="middle"
       style="white-space: pre;"
       direction="ltr"
       id="text124">n</text>
  </g>
  <g
     transform="translate(188.25 46) rotate(0 6 13)"
     id="g130">
    <text
       x="6"
       y="18"
       font-family="Virgil, Segoe UI Emoji"
       font-size="20px"
       fill="#000000"
       text-anchor="middle"
       style="white-space: pre;"
       direction="ltr"
       id="text128">w</text>
  </g>
  <g
     transform="translate(203.25 59.25) rotate(0 7.5 13)"
     id="g134">
    <text
       x="7.5"
       y="18"
       font-family="Virgil, Segoe UI Emoji"
       font-size="20px"
       fill="#000000"
       text-anchor="middle"
       style="white-space: pre;"
       direction="ltr"
       id="text132">0</text>
  </g>
  <g
     transform="translate(117.75 10) rotate(0 5.5 13)"
     id="g138">
    <text
       x="5.5"
       y="18"
       font-family="Virgil, Segoe UI Emoji"
       font-size="20px"
       fill="#000000"
       text-anchor="middle"
       style="white-space: pre;"
       direction="ltr"
       id="text136">x</text>
  </g>
  <g
     transform="translate(129.25 24.25) rotate(0 7.5 13)"
     id="g142">
    <text
       x="7.5"
       y="18"
       font-family="Virgil, Segoe UI Emoji"
       font-size="20px"
       fill="#000000"
       text-anchor="middle"
       style="white-space: pre;"
       direction="ltr"
       id="text140">0</text>
  </g>
  <g
     id="g148">
    <g
       transform="translate(298 132.125) rotate(0 -19.029016209387805 35.66098777367674)"
       id="g146">
      <path
         d="M0.5820394188165665 -1.1752143055200577 C0.9197488139073053 -0.17167054712772356, 1.3361635516087214 3.6507997045914333, 1.0302582412958146 4.995565590262413 C0.7243529309829077 6.340331475933393, -0.7807930002609889 5.9410844018061955, -1.253392443060875 6.893381008505822 C-1.725991885860761 7.845677615205448, -1.68150707979997 12.43841764231523, -1.805338415503502 10.709345230460167 C-1.9291697512070338 8.980272818605105, -0.9753211349248885 -1.159837292631467, -1.9963804572820663 -3.48105346262455 C-3.0174397796392443 -5.802269632617633, -4.572619280219078 -4.738608788450559, -7.931694349646568 -3.217951789498329 C-11.290769419074058 -1.6972947905460993, -19.451493963599205 4.201549769441287, -22.150830873847006 5.642888531088829 C-24.850167784094808 7.084227292736371, -23.05774596631527 4.344459995627403, -24.127715811133385 5.430080780386925 C-25.1976856559515 6.515701565146447, -26.704884402950608 10.72498517135779, -28.5706499427557 12.156613239645958 C-30.436415482560793 13.588241307934126, -34.30746005475521 13.895696911215783, -35.32230904996395 14.019849190115929 C-36.337158045172686 14.144001469016075, -37.514398702979086 10.926875163118044, -34.65974391400814 12.901526913046837 C-31.805089125037192 14.87617866297563, -23.94233446220557 22.13984154164791, -18.19438031613827 25.867759689688683 C-12.446426170070968 29.595677837729454, -3.0756097803513214 33.44029266138872, -0.17201903760433201 35.269035801291466 C2.731571705142657 37.097778941194214, 3.733724561333656 33.71830013692379, -0.7728358596563338 36.84021852910519 C-5.279396280646324 39.962136921286586, -22.4674238850673 51.11497724950314, -27.211381563544272 54.00054615437985 C-31.955339242021243 56.886115059256554, -27.633189234137532 53.05581228037675, -29.23658193051815 54.15363195836544 C-30.839974626898766 55.251451636354126, -35.3854139337937 59.350668510794634, -36.831737741827965 60.58746422231197 C-38.27806154986223 61.82425993382931, -43.380315431952475 59.86045088867347, -37.91452477872372 61.574406227469446 C-32.44873412549496 63.28836156626542, -10.675152843197186 68.69710602859656, -4.036993822455406 70.87119625508785 C2.601165198286375 73.04528648157914, 1.105106384555499 75.75695554514725, 1.914429345726967 74.61894758641719 C2.723752306898435 73.48093962768714, 1.0677864700555801 65.9206960529089, 0.8189439445734024 64.04314850270748 M-0.5715286156442017 0.8221942387428136 C-0.3020430769429853 2.031966218492016, 0.36153054725068307 4.871046337724353, 0.09809835434891279 6.005662776371464 C-0.1653338385528575 7.140279215018575, -1.8055650410956394 7.209901272396867, -2.1521217730548234 7.629892870625481 C-2.4986785050140075 8.049884468854094, -1.7623467974768332 10.354405662457768, -1.9812420374061914 8.525612365743145 C-2.2001372773355494 6.696819069028521, -2.6276008343603463 -1.193208741604661, -3.4654932126309723 -3.342866909662262 C-4.303385590901598 -5.492525077719863, -3.4658326652552938 -5.701917871593809, -7.008596307029948 -4.372336642602459 C-10.551359948804603 -3.0427554136111095, -21.77424637137912 3.0200738250619423, -24.722075063278897 4.6346204642858355 C-27.669903755178673 6.249167103509729, -23.813057101657613 4.190645885309204, -24.695568458428607 5.314943192740902 C-25.5780798151996 6.4392405001726, -28.345803572724883 9.91574099713626, -30.01714320390485 11.380404308876022 C-31.68848283508482 12.845067620615785, -34.03299390225671 13.781344166239723, -34.72360624550842 14.102923063179478 C-35.41421858876013 14.424501960119233, -37.18575144230388 10.908795216024542, -34.16081726341508 13.309877690514549 C-31.135883084526284 15.710960165004556, -22.349460612625506 24.963434620937335, -16.57400117217563 28.50941791011952 C-10.798541731725756 32.055401199301706, -2.044079400689031 33.24324933979971, 0.4919393792841582 34.58577742560767 C3.0279581592573472 35.92830551141562, 3.135548138329759 33.334185315808284, -1.3578884923364967 36.564586424967274 C-5.851325123002753 39.794987534126264, -21.973953951786584 50.902126643201335, -26.46868040471338 53.96818408056162 C-30.963406857640173 57.034241517921906, -26.40480602829717 53.68154140059215, -28.326247209897264 54.960931049128995 C-30.24768839149736 56.24032069766584, -36.71505201616946 60.43079415096901, -37.99732749431394 61.644521971782666 C-39.27960297245843 62.858249792596325, -41.44553857474588 60.674125108361864, -36.01990007876419 62.24329797401093 C-30.594261582782494 63.812470839659994, -11.31689426441056 68.71696263784233, -5.443496518423781 71.05955916567706 C0.42990122756299876 73.40215569351179, -1.626508713255947 77.574569088857, -0.7795136028435081 76.29887714101933 C0.06748150756893068 75.02318519318166, -0.5588451170828194 65.75735329522752, -0.36152585594914854 63.40540747865103"
         stroke="#000000"
         stroke-width="4"
         fill="none"
         id="path144" />
    </g>
  </g>
  <g
     id="g154">
    <g
       transform="translate(143 43.125) rotate(0 56.161094447751566 35.5100874140812)"
       id="g152">
      <path
         d="M0.08501566350460044 -0.20890696942806242 C19.169918267925578 11.691377702355386, 94.97695374588172 60.16760078966618, 113.65167873799801 72.38436190187932 M-1.3294898424949497 -1.3641870737168937 C17.72946534043488 10.078114798953756, 93.728735593517 58.349167992463336, 113.04576461181976 70.46357715158723"
         stroke="#000000"
         stroke-width="1"
         fill="none"
         id="path150" />
    </g>
  </g>
  <g
     id="g168">
    <g
       transform="translate(361 174.125) rotate(0 44.840153826852315 -0.3079904078040272)"
       id="g158">
      <path
         d="M0.43563345372676854 -0.3375551551580429 C15.352911139527956 -0.5930505126714707, 75.52484123011429 -0.4223144859075546, 90.4751053661108 -0.38887246549129484 M-0.7947977124061436 -1.560375556955114 C13.833529469628509 -1.135638228962198, 73.6892640069717 0.49954719721339647, 89.25149021969177 0.9443947413470597"
         stroke="#000000"
         stroke-width="1"
         fill="none"
         id="path156" />
    </g>
    <g
       transform="translate(361 174.125) rotate(0 44.840153826852315 -0.3079904078040272)"
       id="g162">
      <path
         d="M60.222950507591115 9.540041121089864 C70.891324555453 5.2657498171580865, 82.15546953003008 5.018763293561087, 91.17970248983242 1.6788867005612702 M60.295934450517045 10.547950098658013 C67.60942613098051 9.04385738279868, 73.84192204340391 5.402111743702469, 89.17084186450579 -0.032358441362157375"
         stroke="#000000"
         stroke-width="1"
         fill="none"
         id="path160" />
    </g>
    <g
       transform="translate(361 174.125) rotate(0 44.840153826852315 -0.3079904078040272)"
       id="g166">
      <path
         d="M60.795215905636205 -10.973186677090503 C71.4411600561929 -7.430819270796012, 82.48729865553778 0.13677543290160088, 91.17970248983242 1.6788867005612702 M60.868199848562135 -9.965277699522353 C67.91133089501443 -6.691477532517977, 74.01044996324956 -5.552242883127728, 89.17084186450579 -0.032358441362157375"
         stroke="#000000"
         stroke-width="1"
         fill="none"
         id="path164" />
    </g>
  </g>
  <g
     transform="translate(453.5 107.625) rotate(0 68.5 66.5)"
     id="g172">
    <path
       d="M61.48670678616991 1.2637122633064308 C71.57726162136376 -0.6730443136516335, 84.62793188514053 1.2390073583461287, 94.44947263197413 4.719318866956421 C104.27101337880774 8.199630375566713, 113.59895016710753 14.269091074394812, 120.41595126717158 22.145581314968183 C127.23295236723563 30.022071555541554, 132.85207153609986 41.87488166993072, 135.35147923235843 51.97826031039664 C137.850886928617 62.08163895086256, 137.9796914467985 73.03741351237613, 135.41239744472298 82.7658531577637 C132.84510344264746 92.49429280315127, 126.89361953079523 102.60741763927541, 119.94771521990525 110.34889818272202 C113.00181090901526 118.09037872616864, 103.65041904125871 125.66189522171389, 93.73697157938305 129.21473641844338 C83.82352411750739 132.76757761517285, 71.15283825240391 132.78795705324305, 60.467030448651286 131.66594536309896 C49.78122264489867 130.54393367295486, 38.18433909175118 127.94813291010594, 29.62212475686735 122.48266627757883 C21.059910421983524 117.01719964505172, 14.05074471836414 108.00904340779502, 9.093744439348342 98.87314556793629 C4.136744160332545 89.73724772807756, 0.19160075535772236 77.83303509459216, -0.11987691722742966 67.66727923842645 C-0.4313545898125817 57.501523382260736, 2.464006117800711 47.00605546377313, 7.22487840383743 37.87861043094203 C11.985750689874148 28.751165398110935, 20.0585461998514 19.098867326182926, 28.445356798992883 12.902609041439852 C36.83216739813437 6.706350756696779, 51.74047729809571 2.6918842728098404, 57.54574199868633 0.7010607224835894 C63.35100669927695 -1.2897628278426616, 62.1573690436297 0.7539983276521814, 63.276945002536586 0.9576677394823463 C64.39652096144347 1.1613371513125113, 64.04346985175435 0.8800224472704226, 64.26319775212762 1.9230771934645787 M37.981197895911684 6.336134625664286 C46.17341732005351 1.1801354966456499, 57.916362453117834 0.5572723328044967, 68.35727257348326 0.5191165099461728 C78.79818269384867 0.4809606870878487, 91.2203454544655 1.5711011855962589, 100.62665861810422 6.107199688514342 C110.03297178174293 10.643298191432425, 119.03122950632525 19.003439065042304, 124.79515155531557 27.73570752745467 C130.5590736043059 36.46797598986704, 134.10475710022322 48.05781212880988, 135.21019091204613 58.50081046298855 C136.31562472386904 68.94380879716721, 134.72344581989702 80.78192638354206, 131.42775442625307 90.39369753252667 C128.13206303260912 100.00546868151129, 123.15717113249792 109.34917119951517, 115.43604255018249 116.1714373568962 C107.71491396786706 122.99370351427724, 95.36131982213948 128.555726494113, 85.1009829323605 131.32729447681288 C74.84064604258151 134.09886245951276, 63.89602200376735 135.16757793616728, 53.87402121150861 132.80084525309553 C43.852020419249875 130.43411257002379, 33.22557344783301 123.7855819811327, 24.96897817880808 117.12689837838246 C16.71238290978315 110.46821477563223, 8.696892824701006 102.00537571202764, 4.334449597359061 92.84874363659418 C-0.027993629982884016 83.69211156116071, -2.43178161031301 72.30790004080144, -1.2056811852435914 62.18710592578172 C0.020419239825827162 52.066311810762, 5.947922408408395 40.789759050593496, 11.691052147775572 32.12397894647588 C17.43418188714275 23.458198842358264, 29.095159149191364 14.264523619261727, 33.25309725095947 10.192425301076028 C37.41103535272757 6.120326982890329, 35.70340755609324 8.105503447626129, 36.638680758384204 7.691389037361681 C37.57395396067517 7.277274627097232, 38.03260331992026 6.740915273437367, 38.864736464705274 7.707738839489338"
       stroke="#000000"
       stroke-width="1"
       fill="none"
       id="path170" />
  </g>
  <g
     id="g178">
    <g
       transform="translate(475 191.125) rotate(0 49.449397006630875 -0.39355070554185545)"
       id="g176">
      <path
         d="M-0.982888063788414 0.6102728694677353 C15.677687135338784 0.5357099384069443, 83.40892731249333 0.4303013652563095, 99.88168207705021 0.47554129064083095 M0.7019569733832034 -0.11493781940080217 C17.288812863240018 -0.634278541067615, 82.8224952825997 -1.2502136297617108, 99.39651970387436 -1.3973742805514484"
         stroke="#000000"
         stroke-width="1"
         fill="none"
         id="path174" />
    </g>
  </g>
  <g
     id="g184">
    <g
       transform="translate(524 118.125) rotate(0 0.6858627096610235 47.58885804682507)"
       id="g182">
      <path
         d="M0.9062517017126084 0.8758933693170545 C1.3400922944148381 16.528477031985915, 1.3161829481522245 79.33375692268211, 1.4488303035497667 94.88758265078067 M-0.07710488422773776 0.29013344286941 C0.25148073083100225 15.529691276640321, 0.06856012697952493 77.34255609531266, 0.2114207492861897 93.23098879366182"
         stroke="#000000"
         stroke-width="1"
         fill="none"
         id="path180" />
    </g>
  </g>
  <g
     id="g190">
    <g
       transform="translate(481 189.125) rotate(0 42.5 -27.914999999999992)"
       id="g188">
      <path
         d="M0 0 C3.1666666666666665 -0.16666666666666666, 12.666666666666668 1.1666666666666665, 19 -1 C25.333333333333332 -3.1666666666666665, 33.166666666666664 -6.333333333333333, 38 -13 C42.833333333333336 -19.666666666666668, 45.833333333333336 -36.166666666666664, 48 -41 C50.166666666666664 -45.833333333333336, 50.166666666666664 -41, 51 -42 C51.833333333333336 -43, 50.666666666666664 -44.833333333333336, 53 -47 C55.333333333333336 -49.166666666666664, 63 -53.5, 65 -55 C67 -56.5, 62.333333333333336 -56, 65 -56 C67.66666666666667 -56, 77.66666666666667 -55, 81 -55 C84.33333333333333 -55, 84.33333333333333 -55.833333333333336, 85 -56 M0 0 C3.1666666666666665 -0.16666666666666666, 12.666666666666668 1.1666666666666665, 19 -1 C25.333333333333332 -3.1666666666666665, 33.166666666666664 -6.333333333333333, 38 -13 C42.833333333333336 -19.666666666666668, 45.833333333333336 -36.166666666666664, 48 -41 C50.166666666666664 -45.833333333333336, 50.166666666666664 -41, 51 -42 C51.833333333333336 -43, 50.666666666666664 -44.833333333333336, 53 -47 C55.333333333333336 -49.166666666666664, 63 -53.5, 65 -55 C67 -56.5, 62.333333333333336 -56, 65 -56 C67.66666666666667 -56, 77.66666666666667 -55, 81 -55 C84.33333333333333 -55, 84.33333333333333 -55.833333333333336, 85 -56"
         stroke="#000000"
         stroke-width="4"
         fill="none"
         id="path186" />
    </g>
  </g>
  <g
     id="g204">
    <g
       transform="translate(589 176.125) rotate(0 31.511378446117305 0.49585193498307945)"
       id="g194">
      <path
         d="M0 0 C10.503792815372435 0.16528397832769315, 52.518964076862176 0.8264198916384657, 63.02275689223461 0.9917038699661589 M0 0 C10.503792815372435 0.16528397832769315, 52.518964076862176 0.8264198916384657, 63.02275689223461 0.9917038699661589"
         stroke="#000000"
         stroke-width="1"
         fill="none"
         id="path192" />
    </g>
    <g
       transform="translate(589 176.125) rotate(0 31.511378446117305 0.49585193498307945)"
       id="g198">
      <path
         d="M34.67403052427184 10.807492850703905 C45.19166104425641 7.165747524246948, 55.709291564240985 3.524002197789989, 63.02275689223461 0.9917038699661589 M34.67403052427184 10.807492850703905 C41.46524439650388 8.456024871944088, 48.25645826873591 6.104556893184271, 63.02275689223461 0.9917038699661589"
         stroke="#000000"
         stroke-width="1"
         fill="none"
         id="path196" />
    </g>
    <g
       transform="translate(589 176.125) rotate(0 31.511378446117305 0.49585193498307945)"
       id="g202">
      <path
         d="M34.9969050524404 -9.711175586231747 C45.394746240533536 -5.740311775311534, 55.792587428626675 -1.7694479643913228, 63.02275689223461 0.9917038699661589 M34.9969050524404 -9.711175586231747 C41.71077118261773 -7.147196432730823, 48.424637312795056 -4.5832172792299, 63.02275689223461 0.9917038699661589"
         stroke="#000000"
         stroke-width="1"
         fill="none"
         id="path200" />
    </g>
  </g>
  <g
     transform="translate(653 158.125) rotate(0 17.5 18.5)"
     id="g208">
    <path
       d="M17.5 0 C21.06211467034624 -0.23619703662835137, 25.876427223228834 1.7802596834386084, 28.74878316951444 4.328177802298907 C31.621139115800045 6.876095921159205, 34.0830254449281 11.383871680211605, 34.73413567771364 15.287508713161788 C35.38524591049918 19.19114574611197, 34.530241761146755 24.317199204770414, 32.65544456622768 27.75 C30.780647371308607 31.182800795229586, 27.008818687270352 34.52859457044942, 23.485352508199206 35.884313484539305 C19.96188632912806 37.24003239862919, 15.038113670871946 37.24003239862919, 11.514647491800797 35.884313484539305 C7.991181312729649 34.52859457044942, 4.219352628691396 31.182800795229586, 2.3445554337723227 27.75 C0.4697582388532495 24.317199204770414, -0.3852459104991812 19.191145746111967, 0.26586432228635815 15.287508713161786 C0.9169745550718975 11.383871680211605, 3.3788608841999523 6.876095921159206, 6.251216830485559 4.328177802298908 C9.123572776771166 1.7802596834386106, 15.625202805080923 0.6596963003831512, 17.499999999999996 0 C19.37479719491907 -0.6596963003831512, 17.5 0.061666666666668035, 17.5 0.370000000000001 M17.5 0 C21.06211467034624 -0.23619703662835137, 25.876427223228834 1.7802596834386084, 28.74878316951444 4.328177802298907 C31.621139115800045 6.876095921159205, 34.0830254449281 11.383871680211605, 34.73413567771364 15.287508713161788 C35.38524591049918 19.19114574611197, 34.530241761146755 24.317199204770414, 32.65544456622768 27.75 C30.780647371308607 31.182800795229586, 27.008818687270352 34.52859457044942, 23.485352508199206 35.884313484539305 C19.96188632912806 37.24003239862919, 15.038113670871946 37.24003239862919, 11.514647491800797 35.884313484539305 C7.991181312729649 34.52859457044942, 4.219352628691396 31.182800795229586, 2.3445554337723227 27.75 C0.4697582388532495 24.317199204770414, -0.3852459104991812 19.191145746111967, 0.26586432228635815 15.287508713161786 C0.9169745550718975 11.383871680211605, 3.3788608841999523 6.876095921159206, 6.251216830485559 4.328177802298908 C9.123572776771166 1.7802596834386106, 15.625202805080923 0.6596963003831512, 17.499999999999996 0 C19.37479719491907 -0.6596963003831512, 17.5 0.061666666666668035, 17.5 0.370000000000001"
       stroke="#000000"
       stroke-width="1"
       fill="none"
       id="path206" />
  </g>
  <g
     transform="translate(550 246.125) rotate(0 44 11)"
     id="g212">
    <text
       x="0"
       y="18"
       font-family="Helvetica, Segoe UI Emoji"
       font-size="20px"
       fill="#000000"
       text-anchor="start"
       style="white-space: pre;"
       direction="ltr"
       id="text210">o=(net)=</text>
  </g>
  <g
     transform="translate(650 229.125) rotate(0 5.5 11)"
     id="g216">
    <text
       x="0"
       y="18"
       font-family="Helvetica, Segoe UI Emoji"
       font-size="20px"
       fill="#000000"
       text-anchor="start"
       style="white-space: pre;"
       direction="ltr"
       id="text214">1</text>
  </g>
  <g
     transform="translate(648 261.125) rotate(0 17 11)"
     id="g220">
    <text
       x="0"
       y="18"
       font-family="Helvetica, Segoe UI Emoji"
       font-size="20px"
       fill="#000000"
       text-anchor="start"
       style="white-space: pre;"
       direction="ltr"
       id="text218">1+e</text>
  </g>
  <g
     transform="translate(680 258.125) rotate(0 13.909090909090878 9)"
     id="g224">
    <text
       x="0"
       y="13.999999999999979"
       font-family="Helvetica, Segoe UI Emoji"
       font-size="16.363636363636342px"
       fill="#000000"
       text-anchor="start"
       style="white-space: pre;"
       direction="ltr"
       id="text222">-net</text>
  </g>
  <g
     id="g230">
    <g
       transform="translate(644 256.125) rotate(0 27.5 -0.5)"
       id="g228">
      <path
         d="M0 0 C9.166666666666666 -0.16666666666666666, 45.833333333333336 -0.8333333333333334, 55 -1 M0 0 C9.166666666666666 -0.16666666666666666, 45.833333333333336 -0.8333333333333334, 55 -1"
         stroke="#000000"
         stroke-width="1"
         fill="none"
         id="path226" />
    </g>
  </g>
  <g
     transform="translate(326 221.125) rotate(0 19.5 11)"
     id="g234">
    <text
       x="0"
       y="18"
       font-family="Helvetica, Segoe UI Emoji"
       font-size="20px"
       fill="#000000"
       text-anchor="start"
       style="white-space: pre;"
       direction="ltr"
       id="text232">net=</text>
  </g>
  <g
     id="g240">
    <g
       transform="translate(383 211.125) rotate(0 -3.71875 16.5)"
       id="g238">
      <path
         d="M0 0 C0.16666666666666666 1.6666666666666667, 0.8333333333333334 9.666666666666666, 1 10 C1.1666666666666667 10.333333333333334, 1.3333333333333333 3.333333333333333, 1 2 C0.6666666666666667 0.6666666666666667, 0.5 0.5, -1 2 C-2.5 3.5, -6.166666666666667 9.166666666666666, -8 11 C-9.833333333333334 12.833333333333334, -11.333333333333334 12.5, -12 13 C-12.666666666666666 13.5, -12.5 13.833333333333334, -12 14 C-11.5 14.166666666666666, -9.666666666666666 13.666666666666666, -9 14 C-8.333333333333334 14.333333333333334, -9.833333333333334 14.833333333333334, -8 16 C-6.166666666666667 17.166666666666668, 0.33333333333333326 20, 2 21 C3.666666666666667 22, 4 21.333333333333332, 2 22 C0 22.666666666666668, -8 24.166666666666668, -10 25 C-12 25.833333333333332, -11.166666666666666 26, -10 27 C-8.833333333333334 28, -5.333333333333334 30.166666666666668, -3 31 C-0.6666666666666665 31.833333333333332, 2.666666666666667 31.666666666666668, 4 32 C5.333333333333333 32.333333333333336, 4.833333333333333 32.833333333333336, 5 33 M0 0 C0.16666666666666666 1.6666666666666667, 0.8333333333333334 9.666666666666666, 1 10 C1.1666666666666667 10.333333333333334, 1.3333333333333333 3.333333333333333, 1 2 C0.6666666666666667 0.6666666666666667, 0.5 0.5, -1 2 C-2.5 3.5, -6.166666666666667 9.166666666666666, -8 11 C-9.833333333333334 12.833333333333334, -11.333333333333334 12.5, -12 13 C-12.666666666666666 13.5, -12.5 13.833333333333334, -12 14 C-11.5 14.166666666666666, -9.666666666666666 13.666666666666666, -9 14 C-8.333333333333334 14.333333333333334, -9.833333333333334 14.833333333333334, -8 16 C-6.166666666666667 17.166666666666668, 0.33333333333333326 20, 2 21 C3.666666666666667 22, 4 21.333333333333332, 2 22 C0 22.666666666666668, -8 24.166666666666668, -10 25 C-12 25.833333333333332, -11.166666666666666 26, -10 27 C-8.833333333333334 28, -5.333333333333334 30.166666666666668, -3 31 C-0.6666666666666665 31.833333333333332, 2.666666666666667 31.666666666666668, 4 32 C5.333333333333333 32.333333333333336, 4.833333333333333 32.833333333333336, 5 33"
         stroke="#000000"
         stroke-width="1"
         fill="none"
         id="path236" />
    </g>
  </g>
  <g
     transform="translate(375 197.125) rotate(0 4 8)"
     id="g244">
    <text
       x="0"
       y="12"
       font-family="Helvetica, Segoe UI Emoji"
       font-size="14.545454545454545px"
       fill="#000000"
       text-anchor="start"
       style="white-space: pre;"
       direction="ltr"
       id="text242">n</text>
  </g>
  <g
     transform="translate(373 247.125) rotate(0 7.5 6.111111111111114)"
     id="g248">
    <text
       x="0"
       y="9.222222222222223"
       font-family="Helvetica, Segoe UI Emoji"
       font-size="11.111111111111112px"
       fill="#000000"
       text-anchor="start"
       style="white-space: pre;"
       direction="ltr"
       id="text246">i=0</text>
  </g>
  <g
     transform="translate(391 217.24285714285662) rotate(0 4.62857142857149 10.028571428571553)"
     id="g252">
    <text
       x="4.628571428571485"
       y="14.057142857143099"
       font-family="Virgil, Segoe UI Emoji"
       font-size="15.428571428571615px"
       fill="#000000"
       text-anchor="middle"
       style="white-space: pre;"
       direction="ltr"
       id="text250">w</text>
  </g>
  <g
     transform="translate(401.4142857142858 226.69285714285695) rotate(0 1.5428571428571445 10.028571428571553)"
     id="g256">
    <text
       x="1.542857142857162"
       y="14.057142857143099"
       font-family="Virgil, Segoe UI Emoji"
       font-size="15.428571428571619px"
       fill="#000000"
       text-anchor="middle"
       style="white-space: pre;"
       direction="ltr"
       id="text254">i</text>
  </g>
  <g
     transform="translate(406.5 213.50000000000006) rotate(0 4.637254901960773 10.960784313725469)"
     id="g260">
    <text
       x="4.637254901960779"
       y="14.921568627450956"
       font-family="Virgil, Segoe UI Emoji"
       font-size="16.8627450980392px"
       fill="#000000"
       text-anchor="middle"
       style="white-space: pre;"
       direction="ltr"
       id="text258">x</text>
  </g>
  <g
     transform="translate(419.14705882352905 223.828431372549) rotate(0 1.6862745098039227 10.960784313725469)"
     id="g264">
    <text
       x="1.6862745098039198"
       y="14.921568627450956"
       font-family="Virgil, Segoe UI Emoji"
       font-size="16.8627450980392px"
       fill="#000000"
       text-anchor="middle"
       style="white-space: pre;"
       direction="ltr"
       id="text262">i</text>
  </g>
</svg>
