<?xml version="1.0" encoding="UTF-8" standalone="no"?>
<svg
   version="1.1"
   viewBox="0 0 937.5 618"
   width="1875"
   height="1236"
   id="svg80"
   sodipodi:docname="Untitled-2021-08-15-0126.svg"
   inkscape:version="1.1 (c4e8f9ed74, 2021-05-24)"
   xmlns:inkscape="http://www.inkscape.org/namespaces/inkscape"
   xmlns:sodipodi="http://sodipodi.sourceforge.net/DTD/sodipodi-0.dtd"
   xmlns="http://www.w3.org/2000/svg"
   xmlns:svg="http://www.w3.org/2000/svg">
  <sodipodi:namedview
     id="namedview82"
     pagecolor="#ffffff"
     bordercolor="#666666"
     borderopacity="1.0"
     inkscape:pageshadow="2"
     inkscape:pageopacity="0.0"
     inkscape:pagecheckerboard="0"
     showgrid="false"
     inkscape:zoom="0.31472492"
     inkscape:cx="422.59126"
     inkscape:cy="233.53727"
     inkscape:window-width="1911"
     inkscape:window-height="1043"
     inkscape:window-x="4"
     inkscape:window-y="16"
     inkscape:window-maximized="1"
     inkscape:current-layer="svg80" />
  <!-- svg-source:excalidraw -->
  <defs
     id="defs4">
    <style
       id="style2">
      @font-face {
        font-family: &quot;Virgil&quot;;
        src: url(&quot;https://excalidraw.com/Virgil.woff2&quot;);
      }
      @font-face {
        font-family: &quot;Cascadia&quot;;
        src: url(&quot;https://excalidraw.com/Cascadia.woff2&quot;);
      }
    </style>
    <filter
       style="color-interpolation-filters:sRGB;"
       inkscape:label="Invert"
       id="filter983"
       x="-0.012645422"
       y="-0.025947068"
       width="1.0252908"
       height="1.0518941">
      <feColorMatrix
         type="hueRotate"
         values="180"
         result="color1"
         id="feColorMatrix979" />
      <feColorMatrix
         values="-1 0 0 0 1 0 -1 0 0 1 0 0 -1 0 1 -0.21 -0.72 -0.07 2 0 "
         result="color2"
         id="feColorMatrix981" />
    </filter>
    <filter
       style="color-interpolation-filters:sRGB;"
       inkscape:label="Invert"
       id="filter989"
       x="-0.32451373"
       y="-0.025920166"
       width="1.6492686"
       height="1.0518403">
      <feColorMatrix
         type="hueRotate"
         values="180"
         result="color1"
         id="feColorMatrix985" />
      <feColorMatrix
         values="-1 0 0 0 1 0 -1 0 0 1 0 0 -1 0 1 -0.21 -0.72 -0.07 2 0 "
         result="color2"
         id="feColorMatrix987" />
    </filter>
    <filter
       style="color-interpolation-filters:sRGB;"
       inkscape:label="Invert"
       id="filter995"
       x="-0.010945709"
       y="-0.033852404"
       width="1.0218914"
       height="1.0677048">
      <feColorMatrix
         type="hueRotate"
         values="180"
         result="color1"
         id="feColorMatrix991" />
      <feColorMatrix
         values="-1 0 0 0 1 0 -1 0 0 1 0 0 -1 0 1 -0.21 -0.72 -0.07 2 0 "
         result="color2"
         id="feColorMatrix993" />
    </filter>
    <filter
       style="color-interpolation-filters:sRGB;"
       inkscape:label="Invert"
       id="filter1001"
       x="-0.01146526"
       y="-0.03511236"
       width="1.0229305"
       height="1.0702247">
      <feColorMatrix
         type="hueRotate"
         values="180"
         result="color1"
         id="feColorMatrix997" />
      <feColorMatrix
         values="-1 0 0 0 1 0 -1 0 0 1 0 0 -1 0 1 -0.21 -0.72 -0.07 2 0 "
         result="color2"
         id="feColorMatrix999" />
    </filter>
    <filter
       style="color-interpolation-filters:sRGB;"
       inkscape:label="Invert"
       id="filter1007"
       x="-0.22460933"
       y="-0.017550018"
       width="1.4493118"
       height="1.0351">
      <feColorMatrix
         type="hueRotate"
         values="180"
         result="color1"
         id="feColorMatrix1003" />
      <feColorMatrix
         values="-1 0 0 0 1 0 -1 0 0 1 0 0 -1 0 1 -0.21 -0.72 -0.07 2 0 "
         result="color2"
         id="feColorMatrix1005" />
    </filter>
    <filter
       style="color-interpolation-filters:sRGB;"
       inkscape:label="Invert"
       id="filter1013"
       x="-0.011576754"
       y="-0.022747953"
       width="1.0231535"
       height="1.0454959">
      <feColorMatrix
         type="hueRotate"
         values="180"
         result="color1"
         id="feColorMatrix1009" />
      <feColorMatrix
         values="-1 0 0 0 1 0 -1 0 0 1 0 0 -1 0 1 -0.21 -0.72 -0.07 2 0 "
         result="color2"
         id="feColorMatrix1011" />
    </filter>
    <filter
       style="color-interpolation-filters:sRGB;"
       inkscape:label="Invert"
       id="filter1019"
       x="-0.11792453"
       y="-0.0042775259"
       width="1.2358491"
       height="1.0085551">
      <feColorMatrix
         type="hueRotate"
         values="180"
         result="color1"
         id="feColorMatrix1015" />
      <feColorMatrix
         values="-1 0 0 0 1 0 -1 0 0 1 0 0 -1 0 1 -0.21 -0.72 -0.07 2 0 "
         result="color2"
         id="feColorMatrix1017" />
    </filter>
    <filter
       style="color-interpolation-filters:sRGB;"
       inkscape:label="Invert"
       id="filter1025"
       x="-0.0029558266"
       y="-0.0029232211"
       width="1.0059144"
       height="1.0058334">
      <feColorMatrix
         type="hueRotate"
         values="180"
         result="color1"
         id="feColorMatrix1021" />
      <feColorMatrix
         values="-1 0 0 0 1 0 -1 0 0 1 0 0 -1 0 1 -0.21 -0.72 -0.07 2 0 "
         result="color2"
         id="feColorMatrix1023" />
    </filter>
    <filter
       style="color-interpolation-filters:sRGB;"
       inkscape:label="Invert"
       id="filter1031"
       x="-0.0053844497"
       y="-0.28418526"
       width="1.0107689"
       height="1.5682621">
      <feColorMatrix
         type="hueRotate"
         values="180"
         result="color1"
         id="feColorMatrix1027" />
      <feColorMatrix
         values="-1 0 0 0 1 0 -1 0 0 1 0 0 -1 0 1 -0.21 -0.72 -0.07 2 0 "
         result="color2"
         id="feColorMatrix1029" />
    </filter>
    <filter
       style="color-interpolation-filters:sRGB;"
       inkscape:label="Invert"
       id="filter1037"
       x="-0.013347571"
       y="-0.0023183567"
       width="1.0266951"
       height="1.0046367">
      <feColorMatrix
         type="hueRotate"
         values="180"
         result="color1"
         id="feColorMatrix1033" />
      <feColorMatrix
         values="-1 0 0 0 1 0 -1 0 0 1 0 0 -1 0 1 -0.21 -0.72 -0.07 2 0 "
         result="color2"
         id="feColorMatrix1035" />
    </filter>
    <filter
       style="color-interpolation-filters:sRGB;"
       inkscape:label="Invert"
       id="filter1043"
       x="-0.0046715874"
       y="-0.0022302511"
       width="1.0093432"
       height="1.0044605">
      <feColorMatrix
         type="hueRotate"
         values="180"
         result="color1"
         id="feColorMatrix1039" />
      <feColorMatrix
         values="-1 0 0 0 1 0 -1 0 0 1 0 0 -1 0 1 -0.21 -0.72 -0.07 2 0 "
         result="color2"
         id="feColorMatrix1041" />
    </filter>
    <filter
       style="color-interpolation-filters:sRGB;"
       inkscape:label="Invert"
       id="filter1049"
       x="-0.00054397235"
       y="-0.00083076514"
       width="1.0010879"
       height="1.0016615">
      <feColorMatrix
         type="hueRotate"
         values="180"
         result="color1"
         id="feColorMatrix1045" />
      <feColorMatrix
         values="-1 0 0 0 1 0 -1 0 0 1 0 0 -1 0 1 -0.21 -0.72 -0.07 2 0 "
         result="color2"
         id="feColorMatrix1047" />
    </filter>
    <filter
       style="color-interpolation-filters:sRGB;"
       inkscape:label="Invert"
       id="filter1055"
       x="-0.0010854254"
       y="-0.0010584857"
       width="1.0021698"
       height="1.0021179">
      <feColorMatrix
         type="hueRotate"
         values="180"
         result="color1"
         id="feColorMatrix1051" />
      <feColorMatrix
         values="-1 0 0 0 1 0 -1 0 0 1 0 0 -1 0 1 -0.21 -0.72 -0.07 2 0 "
         result="color2"
         id="feColorMatrix1053" />
    </filter>
  </defs>
  <g
     stroke-linecap="round"
     transform="translate(87 86.5) rotate(0 230 236.25)"
     id="g10"
     style="filter:url(#filter1055)">
    <path
       d="M322.84 20.8 C341.33 25.2, 359.18 39.97, 374.64 52.58 C390.09 65.19, 403.93 80.39, 415.56 96.43 C427.19 112.47, 437.13 130.21, 444.4 148.82 C451.66 167.43, 457.01 188.03, 459.12 208.09 C461.24 228.15, 459.92 249.3, 457.06 269.16 C454.2 289.01, 449.47 308.66, 441.97 327.23 C434.47 345.79, 423.89 364.73, 412.06 380.54 C400.23 396.36, 386.37 409.8, 370.98 422.11 C355.59 434.42, 337.65 446.24, 319.72 454.38 C301.8 462.52, 282.85 468.15, 263.44 470.93 C244.03 473.71, 222.65 473.32, 203.27 471.05 C183.89 468.77, 165.1 464.47, 147.14 457.28 C129.18 450.1, 111.34 439.74, 95.5 427.92 C79.67 416.1, 64.73 402.11, 52.14 386.38 C39.55 370.65, 28 352.1, 19.95 333.55 C11.89 315, 7.05 294.74, 3.8 275.1 C0.55 255.46, -1.16 235.51, 0.44 215.69 C2.04 195.88, 6.63 175.17, 13.41 156.21 C20.19 137.26, 30.03 118.69, 41.1 101.98 C52.18 85.26, 65.02 69.11, 79.85 55.93 C94.67 42.74, 112.11 31.4, 130.03 22.87 C147.95 14.33, 168.18 8.39, 187.34 4.74 C206.5 1.09, 225.71 -0.22, 244.98 0.95 C264.25 2.12, 288.28 7.77, 302.97 11.75 C317.66 15.73, 326.88 21.1, 333.11 24.82 C339.33 28.53, 342.09 30.3, 340.33 34.03 M270.4 3.34 C289.32 3.06, 309.09 13.01, 327.01 21.58 C344.93 30.15, 363 41.99, 377.9 54.77 C392.8 67.54, 405.12 81.87, 416.4 98.24 C427.68 114.62, 438.37 134.23, 445.59 153.02 C452.8 171.82, 457.81 191.22, 459.69 211.03 C461.58 230.84, 459.91 251.85, 456.9 271.88 C453.9 291.91, 449.42 312.77, 441.64 331.19 C433.87 349.61, 422.5 366.58, 410.25 382.39 C398 398.19, 383.96 413.66, 368.14 426.02 C352.32 438.37, 333.28 448.94, 315.34 456.51 C297.41 464.07, 279.67 469.15, 260.53 471.41 C241.39 473.68, 220.07 473.02, 200.51 470.09 C180.95 467.15, 161.1 461.44, 143.17 453.8 C125.23 446.17, 108.49 435.97, 92.89 424.29 C77.28 412.61, 62.03 399.41, 49.55 383.72 C37.06 368.02, 25.57 348.7, 17.97 330.11 C10.37 311.53, 6.97 292.28, 3.95 272.23 C0.92 252.19, -2.3 229.96, -0.2 209.84 C1.9 189.73, 9.42 170.19, 16.54 151.57 C23.66 132.94, 31.15 114.36, 42.52 98.11 C53.89 81.87, 69.56 67.06, 84.75 54.09 C99.94 41.13, 116.2 28.89, 133.67 20.33 C151.14 11.76, 170.43 5.83, 189.58 2.7 C208.72 -0.43, 234.96 1.22, 248.52 1.56 C262.07 1.89, 267.29 3.46, 270.93 4.69 C274.56 5.92, 271.37 5.21, 270.32 8.94"
       stroke="#000000"
       stroke-width="1"
       fill="none"
       id="path8" />
  </g>
  <g
     stroke-linecap="round"
     transform="translate(10 10) rotate(0 458.75 299)"
     id="g14"
     style="filter:url(#filter1049)">
    <path
       d="M0.46 0.07 C188.75 -2.43, 377.33 -1.8, 917.11 0.08 M0.35 0.07 C346.64 0.28, 694.46 0.5, 917.35 -0.13 M916.72 -0.21 C916.9 230.71, 917.78 462.46, 918.07 598.54 M917.51 -0.31 C915.52 206.33, 915.08 412.45, 917.45 597.84 M917.93 598.06 C660.97 599.25, 402.56 599.95, -0.69 597.28 M917.89 598.26 C581.11 601.2, 244.13 600.77, -0.34 598.02 M0.12 597.54 C-1.98 393.41, -0.89 189.6, -0.14 -0.29 M-0.03 597.92 C2.62 397.72, 2.4 197.85, -0.31 0.04"
       stroke="#000000"
       stroke-width="1"
       fill="none"
       id="path12" />
  </g>
  <g
     stroke-linecap="round"
     id="g20"
     style="filter:url(#filter1043)">
    <g
       transform="translate(211.5 429) rotate(0 52.648520638309435 -111.91442609541122)"
       id="g18">
      <path
         d="M-0.87 0.18 C16.35 -37.27, 86.39 -186.92, 103.81 -224.01 M0.88 -0.77 C18.45 -38.16, 88.62 -185.73, 106.16 -223"
         stroke="#000000"
         stroke-width="1"
         fill="none"
         id="path16" />
    </g>
  </g>
  <g
     stroke-linecap="round"
     id="g26"
     style="filter:url(#filter1037)">
    <g
       transform="translate(317 209) rotate(0 18.340717005394367 107.92359455168244)"
       id="g24">
      <path
         d="M-0.39 0.75 C5.44 36.55, 28.73 178.96, 34.93 214.49 M1.6 0.09 C7.8 36.08, 31.27 179.99, 37.07 215.76"
         stroke="#000000"
         stroke-width="1"
         fill="none"
         id="path22" />
    </g>
  </g>
  <g
     stroke-linecap="round"
     id="g32"
     style="filter:url(#filter1031)">
    <g
       transform="translate(255 313) rotate(0 45.31234996628018 -0.13161373188705738)"
       id="g30">
      <path
         d="M0.22 0.23 C15.65 0.23, 76.55 0.59, 91.74 0.75 M-1.12 -0.7 C14.29 -1.1, 75.86 -1.01, 91.18 -0.98"
         stroke="#000000"
         stroke-width="1"
         fill="none"
         id="path28" />
    </g>
  </g>
  <g
     stroke-linecap="round"
     transform="translate(348.5 217) rotate(0 84.25 86)"
     id="g36"
     style="filter:url(#filter1025)">
    <path
       d="M57.04 4.87 C67.11 -0.01, 82.19 -1.58, 93.9 -0.44 C105.62 0.71, 117.37 5.58, 127.33 11.76 C137.29 17.94, 146.94 26.89, 153.67 36.64 C160.41 46.38, 165.57 58.72, 167.74 70.23 C169.91 81.75, 169.56 94.28, 166.68 105.75 C163.81 117.22, 157.78 129.46, 150.5 139.07 C143.21 148.69, 133.51 158.13, 122.98 163.43 C112.44 168.74, 98.77 170.37, 87.28 170.91 C75.78 171.45, 64.53 170.87, 54.03 166.68 C43.54 162.48, 32.4 154.48, 24.3 145.74 C16.2 136.99, 9.45 125.31, 5.43 114.22 C1.4 103.13, -0.78 91.04, 0.16 79.19 C1.1 67.34, 5.35 53.46, 11.05 43.12 C16.75 32.79, 25.83 23.89, 34.35 17.19 C42.88 10.48, 56.66 5.31, 62.18 2.88 C67.71 0.46, 67.09 1.41, 67.48 2.66 M61.47 1.82 C71.94 -2.17, 86.32 0.45, 97.81 2.42 C109.29 4.38, 120.77 6.96, 130.36 13.6 C139.95 20.24, 149.12 32.1, 155.35 42.28 C161.58 52.45, 166 63.09, 167.75 74.63 C169.5 86.16, 169.18 100.18, 165.84 111.51 C162.51 122.83, 155.71 133.83, 147.74 142.6 C139.78 151.37, 128.76 159.41, 118.04 164.14 C107.31 168.86, 94.84 170.85, 83.4 170.95 C71.95 171.06, 59.7 169.52, 49.37 164.74 C39.05 159.97, 28.91 151.63, 21.45 142.32 C14 133.02, 7.92 120.22, 4.64 108.92 C1.36 97.61, 0.27 86.1, 1.77 74.5 C3.27 62.9, 7.57 49.44, 13.64 39.3 C19.7 29.17, 30.17 19.79, 38.15 13.69 C46.14 7.58, 57.42 4.12, 61.53 2.65 C65.64 1.17, 62.36 3.57, 62.81 4.81"
       stroke="#000000"
       stroke-width="1"
       fill="none"
       id="path34" />
  </g>
  <g
     stroke-linecap="round"
     id="g42"
     style="filter:url(#filter1019)">
    <g
       transform="translate(396.5 243) rotate(0 1.3214821945875883 57.56701493747531)"
       id="g40">
      <path
         d="M-0.8 -0.88 C-0.17 18.29, 2.65 96.8, 3.44 116.01 M0.99 1.27 C1.44 20.04, 1.84 95.41, 2.2 114.42"
         stroke="#000000"
         stroke-width="1"
         fill="none"
         id="path38" />
    </g>
  </g>
  <g
     stroke-linecap="round"
     id="g48"
     style="filter:url(#filter1013)">
    <g
       transform="translate(396.5 247.5) rotate(0 21.325378097221233 10.860249930806475)"
       id="g46">
      <path
         d="M-0.27 0.6 C6.82 4.19, 35.94 18.5, 42.92 21.85 M1.8 -0.13 C8.76 3.1, 35.97 16.51, 42.45 20.18"
         stroke="#000000"
         stroke-width="1"
         fill="none"
         id="path44" />
    </g>
  </g>
  <g
     stroke-linecap="round"
     id="g54"
     style="filter:url(#filter1007)">
    <g
       transform="translate(438.5 268.5) rotate(0 0.5645419374359335 13.237424370450896)"
       id="g52">
      <path
         d="M-0.38 0.03 C-0.54 4.69, -0.57 22.92, -0.54 27.48 M1.62 -1.01 C1.79 3.34, 1.51 21.23, 1.63 25.61"
         stroke="#000000"
         stroke-width="1"
         fill="none"
         id="path50" />
    </g>
  </g>
  <g
     stroke-linecap="round"
     id="g60"
     style="filter:url(#filter1001)">
    <g
       transform="translate(439 295.5) rotate(0 -20.265151762068285 6.60929320245981)"
       id="g58">
      <path
         d="M-0.44 0.35 C-7.19 2.25, -34.36 10.05, -40.91 12.13 M1.54 -0.51 C-5.38 1.53, -35.13 11.83, -42.07 13.73"
         stroke="#000000"
         stroke-width="1"
         fill="none"
         id="path56" />
    </g>
  </g>
  <g
     stroke-linecap="round"
     id="g66"
     style="filter:url(#filter995)">
    <g
       transform="translate(400 307.5) rotate(0 21.372682676576062 8.115481003858179)"
       id="g64">
      <path
         d="M0 1.17 C7.44 3.76, 36.95 13.13, 44.21 15.5 M-1.47 0.73 C5.92 3.02, 36.26 11.77, 43.64 13.9"
         stroke="#000000"
         stroke-width="1"
         fill="none"
         id="path62" />
    </g>
  </g>
  <g
     stroke-linecap="round"
     id="g72"
     style="filter:url(#filter989)">
    <g
       transform="translate(443.5 322) rotate(0 -0.7220264857783718 9.613320121169124)"
       id="g70">
      <path
         d="M-0.02 0.67 C0.14 3.52, -0.03 15.11, 0.03 18.16 M-1.49 -0.03 C-1.36 3.47, -0.89 15.87, -0.64 19.26"
         stroke="#000000"
         stroke-width="1"
         fill="none"
         id="path68" />
    </g>
  </g>
  <g
     stroke-linecap="round"
     id="g78"
     style="filter:url(#filter983)">
    <g
       transform="translate(443 341) rotate(0 -19.728606473281957 8.365976166427117)"
       id="g76">
      <path
         d="M0.04 -0.15 C-6.61 2.52, -33.18 13.83, -39.5 16.82 M-1.39 -1.27 C-7.71 1.47, -31.16 14.58, -37.32 18"
         stroke="#000000"
         stroke-width="1"
         fill="none"
         id="path74" />
    </g>
  </g>
</svg>
