<?xml version="1.0" encoding="UTF-8" standalone="no"?>
<!-- Created with Inkscape (http://www.inkscape.org/) -->

<svg
   width="205.58125mm"
   height="74.608841mm"
   viewBox="0 0 205.58126 74.608841"
   version="1.1"
   id="svg5"
   xml:space="preserve"
   inkscape:version="1.2.2 (b0a8486541, 2022-12-01)"
   sodipodi:docname="basicsuboctave.svg"
   xmlns:inkscape="http://www.inkscape.org/namespaces/inkscape"
   xmlns:sodipodi="http://sodipodi.sourceforge.net/DTD/sodipodi-0.dtd"
   xmlns="http://www.w3.org/2000/svg"
   xmlns:svg="http://www.w3.org/2000/svg"><sodipodi:namedview
     id="namedview7"
     pagecolor="#ffffff"
     bordercolor="#666666"
     borderopacity="1.0"
     inkscape:showpageshadow="2"
     inkscape:pageopacity="0.0"
     inkscape:pagecheckerboard="0"
     inkscape:deskcolor="#d1d1d1"
     inkscape:document-units="mm"
     showgrid="false"
     inkscape:zoom="1.0973349"
     inkscape:cx="408.26188"
     inkscape:cy="118.9245"
     inkscape:window-width="1920"
     inkscape:window-height="1080"
     inkscape:window-x="0"
     inkscape:window-y="0"
     inkscape:window-maximized="1"
     inkscape:current-layer="layer1" /><defs
     id="defs2" /><g
     inkscape:label="Layer 1"
     inkscape:groupmode="layer"
     id="layer1"
     transform="translate(-2.9016795,-87.276508)"><path
       style="fill:#209dfb;stroke-width:0.264583"
       d="m 51.418339,161.5079 c -1.692844,-0.7367 -1.31081,-0.94181 1.754174,-0.94181 3.085529,0 3.465674,0.21362 1.69599,0.95304 -1.104694,0.46157 -2.373223,0.45744 -3.450164,-0.0112 z m 67.965331,-0.17632 c -3.3656,-1.66595 -7.62642,-10.61927 -12.45195,-26.16549 -0.88081,-2.83766 -2.80301,-9.06681 -4.27157,-13.84256 -6.270561,-20.39193 -9.887545,-28.336774 -13.824492,-30.36604 -1.267738,-0.653445 -1.95394,-0.632878 -3.242945,0.0972 -3.004539,1.70173 -6.392518,8.212029 -10.333371,19.85648 l -1.448109,4.27888 -5.29e-4,-1.67587 c -5.3e-4,-1.33917 0.285908,-2.50861 1.425511,-5.82083 0.784283,-2.27973 1.870427,-5.27606 2.413572,-6.65851 2.182129,-5.554115 5.486011,-11.113245 6.931369,-11.66277 0.736682,-0.280086 4.74345,-0.29655 5.436412,-0.02234 0.863449,0.341674 2.848118,3.069741 4.318376,5.935907 2.827676,5.512353 4.916974,11.405053 10.528236,29.693993 5.05132,16.46394 7.07096,22.16774 9.71163,27.4272 1.94759,3.87905 3.56669,5.95223 5.37685,6.8848 3.2944,1.69724 6.78543,-2.3784 10.84604,-12.66229 1.86374,-4.72011 3.40779,-9.38272 7.08178,-21.38512 1.60361,-5.23875 3.02424,-9.63811 3.15697,-9.77636 0.14682,-0.15293 0.24132,0.22638 0.24132,0.96861 0,1.26722 -4.87762,17.58455 -7.81323,26.13795 -3.37177,9.82424 -5.97275,15.10046 -8.76361,17.77748 -1.72356,1.65326 -3.35159,1.95316 -5.31826,0.97967 z m 68.55967,0.17632 c -1.67472,-0.72881 -1.31144,-0.94181 1.60627,-0.94181 1.53656,0 2.79374,0.097 2.79374,0.21558 0,0.37041 -1.82912,1.10783 -2.72096,1.09698 -0.468,-0.006 -1.22358,-0.17253 -1.67905,-0.37075 z M 47.31009,157.05574 C 44.152108,151.67395 42.024397,145.90832 36.107602,126.69942 28.77579,102.89667 26.025917,96.082214 22.20891,92.257091 c -1.897085,-1.901118 -2.880953,-2.158737 -4.697965,-1.23013 -1.648562,0.842518 -3.617753,3.449115 -5.461821,7.229756 -1.793869,3.677723 -2.4377607,5.305713 -4.8137203,12.170833 L 5.3124324,115.9838 5.2976814,114.35 c -0.012062,-1.33595 0.2812896,-2.4936 1.6091027,-6.35 0.8931198,-2.59391 2.3011214,-6.34053 3.1288919,-8.325809 6.224357,-14.928206 11.620066,-15.151826 17.834426,-0.739137 1.895433,4.395996 4.277606,11.400826 7.832968,23.033006 7.05512,23.08244 10.462461,31.79924 13.889033,35.53148 l 1.115001,1.21447 -1.214691,-0.005 c -1.208355,-0.005 -1.21974,-0.0132 -2.182323,-1.65365 z m 9.211749,0.79837 c 3.627739,-3.86411 6.816294,-11.82868 13.478809,-33.66823 2.994858,-9.81706 3.151743,-10.24546 3.226837,-8.81142 0.07993,1.52632 -1.320144,6.46456 -6.211358,21.9083 -2.867795,9.05491 -5.981057,16.72756 -8.239493,20.30629 -0.660863,1.04721 -0.789707,1.12404 -1.885712,1.12448 l -1.17638,5.3e-4 0.807297,-0.85989 z m 127.301571,-0.66505 c -2.83175,-4.39609 -5.3676,-11.26508 -11.45133,-31.0188 -7.02248,-22.8018 -9.93,-30.062823 -13.51762,-33.75793 -1.75835,-1.811037 -3.0787,-2.254967 -4.62837,-1.556161 -3.2108,1.447866 -6.2775,7.102587 -10.47056,19.306801 -2.17729,6.33714 -2.18174,6.34671 -2.19695,4.72546 -0.0125,-1.32919 0.29561,-2.53643 1.69456,-6.64047 5.41862,-15.896363 9.40579,-21.475542 13.97527,-19.555342 2.40544,1.010823 5.28835,5.597606 8.24324,13.115212 1.49572,3.80529 3.36781,9.4188 6.00709,18.01243 4.85318,15.80222 6.14034,19.80836 7.77839,24.20937 2.70089,7.25662 4.55652,10.95761 6.7324,13.42761 l 1.10712,1.25677 -1.14696,-0.002 c -1.10539,-0.002 -1.18247,-0.0574 -2.12628,-1.52263 z m 9.10007,0.67664 c 3.4468,-3.68981 6.81557,-12.05635 12.9219,-32.09232 1.3305,-4.36562 2.46825,-7.98711 2.52832,-8.04774 0.0601,-0.0606 0.10923,0.56796 0.10923,1.39688 0,1.1534 -0.58685,3.41485 -2.50037,9.63525 -4.36517,14.19013 -6.89645,21.25279 -9.42417,26.29489 -1.71004,3.41105 -1.93433,3.66135 -3.28088,3.66135 h -1.14647 z M 2.9263991,122.12136 c -0.026356,-1.63701 1.1903972,-6.26985 1.6466931,-6.26985 0.4354271,0 -0.015254,2.90716 -0.8408456,5.42396 l -0.7811278,2.38125 z"
       id="path1411" /><path
       style="fill:#f33e68;stroke-width:0.264583"
       d="M 4.9149201,147.67041 C 4.8187247,140.42923 4.686839,128.90869 4.6218408,122.06922 4.5568426,115.22974 4.4248197,105.07966 4.3284566,99.513491 L 4.1532508,89.393175 H 3.5274651 c -0.5536943,0 -0.6257856,-0.121921 -0.6257856,-1.058333 0,-1.053152 0.00503,-1.058334 1.0281274,-1.058334 h 1.0281274 l 0.1574854,7.474479 c 0.086617,4.110964 0.2184433,13.368073 0.2929475,20.571353 0.074504,7.20328 0.2139039,19.9132 0.309777,28.24427 l 0.1743152,15.1474 H 39.291371 72.69028 l 0.159766,-9.06198 c 0.08787,-4.98409 0.2211,-15.31276 0.296064,-22.95261 0.235045,-23.95385 0.408091,-35.519354 0.561157,-37.504682 l 0.147895,-1.91823 h 33.545338 33.54533 l 0.17132,1.521354 c 0.13293,1.180414 0.9312,58.137568 0.95116,67.865628 l 0.004,2.05052 h 33.2052 33.20521 v 1.03234 1.03234 l -33.31032,0.0292 -33.31032,0.0292 -0.15331,-1.78917 c -0.16466,-1.92173 -0.36519,-15.35087 -0.56205,-37.64022 -0.0675,-7.63985 -0.20128,-17.96852 -0.29734,-22.952606 l -0.17467,-9.061979 -25.5611,-0.05811 c -21.472389,-0.04882 -40.771486,0.02649 -40.952514,0.159806 -0.02506,0.01846 -0.243512,15.570549 -0.485429,34.560199 -0.241916,18.98966 -0.500681,35.02092 -0.575035,35.62504 l -0.135186,1.0984 -33.937919,0.0288 -33.9379162,0.0288 z"
       id="path1409"
       sodipodi:nodetypes="csscssscssscccssscccsccccccccssscsssscccc" /></g></svg>
