<?xml version="1.0" encoding="UTF-8" standalone="no"?>
<!-- Created with Inkscape (http://www.inkscape.org/) -->

<svg
   width="206.59282mm"
   height="98.181129mm"
   viewBox="0 0 206.59283 98.18113"
   version="1.1"
   id="svg5"
   xml:space="preserve"
   inkscape:version="1.2.2 (b0a8486541, 2022-12-01)"
   sodipodi:docname="bettersuboctave.svg"
   xmlns:inkscape="http://www.inkscape.org/namespaces/inkscape"
   xmlns:sodipodi="http://sodipodi.sourceforge.net/DTD/sodipodi-0.dtd"
   xmlns="http://www.w3.org/2000/svg"
   xmlns:svg="http://www.w3.org/2000/svg"><sodipodi:namedview
     id="namedview7"
     pagecolor="#ffffff"
     bordercolor="#666666"
     borderopacity="1.0"
     inkscape:showpageshadow="2"
     inkscape:pageopacity="0.0"
     inkscape:pagecheckerboard="0"
     inkscape:deskcolor="#d1d1d1"
     inkscape:document-units="mm"
     showgrid="false"
     inkscape:zoom="8.7786792"
     inkscape:cx="776.54051"
     inkscape:cy="210.45307"
     inkscape:window-width="1910"
     inkscape:window-height="1042"
     inkscape:window-x="1925"
     inkscape:window-y="17"
     inkscape:window-maximized="1"
     inkscape:current-layer="layer1" /><defs
     id="defs2" /><g
     inkscape:label="Layer 1"
     inkscape:groupmode="layer"
     id="layer1"
     transform="translate(-5.1506389,-81.774368)"><path
       style="fill:#219dfc;stroke-width:0.264583"
       d="M 46.017487,154.85623 C 42.56855,152.753 39.660695,145.25643 34.354966,124.78975 28.992761,104.10523 27.399755,98.51488 25.355287,93.207067 c -2.538698,-6.590926 -4.825804,-9.64584 -6.842547,-9.13967 -1.100058,0.276098 -3.002297,2.679247 -4.371434,5.522553 -2.065858,4.290197 -4.2300312,11.03613 -7.5152817,23.42584 L 5.18781,118.43975 5.169226,116.28418 c -0.015089,-1.75 0.208199,-3.01945 1.186731,-6.74688 4.529786,-17.254893 7.719255,-25.31706 10.77508,-27.236659 0.650253,-0.408474 1.16334,-0.508191 2.16769,-0.421287 1.18867,0.102853 1.438795,0.247621 2.588897,1.498408 3.227239,3.509767 5.839707,11.070842 11.70308,33.871368 3.856386,14.99609 5.613114,21.08127 7.676424,26.59062 1.891859,5.05154 3.79901,8.14465 5.527607,8.96492 0.850913,0.40378 1.017582,0.40841 1.715349,0.0476 3.641614,-1.88315 6.730288,-10.13295 13.131477,-35.07396 1.400564,-5.45703 3.080938,-11.82687 3.734162,-14.15521 4.411456,-15.724044 7.447275,-21.823122 10.864461,-21.827133 2.099051,-0.0025 3.498218,1.376087 5.504072,5.42297 2.463778,4.970765 4.578871,11.802023 9.134104,29.501043 1.329582,5.16599 2.706328,10.42806 3.059433,11.69348 0.353107,1.26543 0.642011,2.36676 0.642011,2.4474 0,0.0806 -0.270391,0.14662 -0.600869,0.14662 -0.562993,0 -0.707562,-0.41278 -2.293456,-6.54844 -3.5068,-13.56742 -5.334285,-20.32922 -6.652982,-24.6164 -3.416271,-11.106537 -6.489821,-16.431635 -9.105175,-15.775223 -1.099986,0.276079 -3.002343,2.679662 -4.377769,5.531207 -2.372508,4.9187 -4.592886,12.192786 -9.247822,30.296356 -5.618282,21.85014 -8.058198,29.13099 -11.148401,33.26748 -1.615623,2.16264 -3.401291,2.75155 -5.135843,1.69379 z m 57.414583,0 c -2.09981,-1.2805 -3.990687,-4.7049 -6.366357,-11.52953 -0.963899,-2.76901 -3.015076,-9.69587 -3.015076,-10.18197 0,-0.39896 1.052354,-0.35825 1.177187,0.0455 0.05624,0.1819 0.537705,1.75948 1.069936,3.50573 2.983134,9.78768 5.53495,14.9809 7.91658,16.11105 0.84592,0.40142 1.01293,0.40583 1.71032,0.0452 2.19281,-1.13394 4.45975,-5.37648 7.00703,-13.11354 0.93425,-2.83766 1.78063,-5.54633 1.88085,-6.01927 0.14524,-0.68536 0.31324,-0.8599 0.8277,-0.8599 0.77871,0 0.83585,-0.31289 -1.11135,6.08542 -2.25958,7.42475 -4.01599,11.61395 -5.96098,14.21748 -1.61562,2.16264 -3.40129,2.75155 -5.13584,1.69379 z m 57.40476,-0.006 c -3.63448,-2.2163 -6.35384,-9.59306 -12.98339,-35.21987 -1.67524,-6.47568 -3.6897,-14.00461 -4.47658,-16.73095 -3.80906,-13.197338 -7.19184,-19.545609 -10.03496,-18.832033 -1.09998,0.276079 -3.00234,2.679662 -4.37777,5.531207 -2.37801,4.93011 -4.62303,12.289486 -9.24207,30.296356 -3.00725,11.72346 -2.81079,11.1125 -3.57334,11.1125 -0.61072,0 -0.61237,-0.009 -0.23483,-1.25677 0.20912,-0.69123 1.57522,-5.90021 3.03576,-11.57552 4.47042,-17.3709 6.58511,-24.429752 8.87754,-29.633337 2.06348,-4.683891 3.86387,-6.746875 5.88805,-6.746875 2.09163,0 3.55221,1.485693 5.5924,5.688542 2.49531,5.14041 4.63675,12.21016 9.77742,32.27917 5.62692,21.96728 8.84946,30.64248 12.20833,32.86528 0.90634,0.59978 1.09796,0.63631 1.804,0.34386 3.66625,-1.51861 6.79773,-9.62969 12.97443,-33.60602 6.06055,-23.52547 8.71613,-31.546047 11.76035,-35.51944 2.12517,-2.773836 4.71051,-2.761868 6.84088,0.03167 2.02604,2.656712 5.48518,11.486587 7.42425,18.95131 2.19366,8.44474 4.31863,16.59265 5.75571,22.0694 0.85578,3.26139 1.55596,5.97006 1.55596,6.01927 0,0.0492 -0.27124,0.0895 -0.60275,0.0895 -0.56694,0 -0.71075,-0.42044 -2.42082,-7.0776 -0.99994,-3.89269 -2.5745,-9.93511 -3.49902,-13.42761 -4.48038,-16.925278 -7.84443,-25.043848 -10.90212,-26.310382 -1.83866,-0.7616 -4.1076,1.733704 -6.29752,6.92581 -2.22195,5.268052 -3.97107,11.122962 -8.15759,27.306272 -3.62385,14.00824 -5.14451,19.46268 -6.7853,24.33811 -1.47882,4.39415 -3.40543,8.66399 -4.69849,10.41301 -1.54551,2.09048 -3.49781,2.71838 -5.20853,1.67519 z m 49.85021,-15.37612 c -1.10033,-3.50362 -1.80724,-5.97994 -1.80724,-6.33078 0,-0.17746 0.2525,-0.28286 0.56552,-0.23606 0.86081,0.12869 2.1086,4.43893 2.01597,6.96371 l -0.0679,1.85209 z"
       id="path1459" /><path
       style="fill:#f33c66;stroke-width:0.264583"
       d="m 211.52563,133.12413 -0.85989,-0.009 c -0.47295,-0.005 -7.7642,-0.0348 -16.20278,-0.0661 l -15.34288,-0.0571 -0.36037,-1.67105 c -0.19821,-0.91908 -0.39723,-1.63345 -0.44228,-1.5875 -0.045,0.0459 -0.99617,3.5959 -2.1136,7.88876 -4.83268,18.56575 -7.50453,26.10189 -10.42925,29.41644 -3.41376,3.86878 -6.75409,1.3167 -10.25348,-7.83385 -1.42422,-3.7242 -3.60836,-11.12461 -5.93755,-20.1179 -6.52143,-25.18008 -8.26256,-30.98125 -10.92681,-36.40654 -2.00949,-4.09198 -3.76288,-5.70814 -5.43943,-5.01369 -2.65206,1.09852 -5.47484,7.24565 -9.17464,19.9795 -1.36182,4.68708 -1.49046,5.37604 -1.90185,10.18646 l -0.44123,5.15937 -28.759459,0.0695 -28.759464,0.0695 -0.318495,-1.61888 c -0.190945,-0.97054 -0.395539,-1.47519 -0.510871,-1.26011 -0.105807,0.19732 -0.988772,3.45439 -1.962145,7.23793 -4.724283,18.36348 -7.711799,26.69118 -10.674429,29.75496 -3.277965,3.38989 -6.240362,1.28375 -9.519171,-6.76772 -2.015186,-4.94851 -3.898522,-11.34609 -7.740645,-26.29453 -2.700162,-10.50545 -4.591978,-17.43225 -5.997717,-21.96042 -2.513736,-8.09722 -5.119931,-13.23323 -7.314824,-14.41526 -0.793921,-0.42755 -1.016174,-0.44599 -1.743731,-0.14462 -2.853232,1.18184 -6.087924,8.50418 -9.7630476,22.10051 -0.7860745,2.90812 -1.1479364,4.88796 -1.3540513,7.40833 -0.4930902,6.02952 -0.4756131,5.95313 -1.3619792,5.95313 -0.7206869,0 -0.768922,-0.0664 -0.768922,-1.05834 0,-0.76435 0.1102431,-1.05833 0.396875,-1.05833 0.2182813,0 0.396875,-0.0746 0.396875,-0.16573 0,-0.0912 0.1869575,-2.14499 0.4154612,-4.56407 0.3437072,-3.6387 0.6421958,-5.22085 1.7282781,-9.16083 2.7051488,-9.81345 5.5892908,-17.31491 7.6270618,-19.83748 1.218781,-1.50873 2.06591,-1.986874 3.523749,-1.988898 1.072532,-0.0015 1.410573,0.137898 2.314097,0.954178 3.435741,3.10398 6.093401,10.64501 12.437845,35.292 4.556495,17.70114 6.63136,24.40913 9.152016,29.58829 3.287088,6.75394 5.681123,7.03833 8.944253,1.0625 2.471782,-4.52662 4.810035,-11.92439 9.301186,-29.42712 1.995874,-7.77824 2.411055,-9.16117 2.750352,-9.16117 0.102494,0 0.342733,1.66687 0.533865,3.70416 l 0.347512,3.70417 h 27.871703 27.871702 l 0.12275,-0.59531 c 0.0675,-0.32742 0.26011,-2.38125 0.428,-4.56407 0.27127,-3.52691 0.48254,-4.60204 1.89773,-9.65729 3.42002,-12.21683 6.23128,-18.6768 8.89121,-20.43105 0.4258,-0.28082 1.21055,-0.468241 1.96494,-0.469288 1.06862,-0.0015 1.41124,0.138498 2.29648,0.938268 3.41789,3.08785 6.12989,10.67261 12.05705,33.72041 4.86448,18.91556 7.07132,26.12536 9.54257,31.17579 2.92573,5.97925 5.2484,6.8451 7.83858,2.92207 2.96815,-4.49548 5.35775,-11.60537 10.12627,-30.12911 2.22644,-8.64878 2.6787,-10.22605 3.05818,-10.66534 0.10182,-0.11787 0.32551,1.31088 0.49709,3.175 0.17159,1.86411 0.36913,3.65719 0.43898,3.98461 l 0.127,0.59531 h 15.73142 15.73142 c 0.43888,0.35355 0.44982,0.50415 0.0125,2.11655 z"
       id="path1457"
       sodipodi:nodetypes="ccccsssssssssscccsssssscccsssssssscccsssssscccssssscssssssscccc" /></g></svg>
