<?xml version="1.0" encoding="UTF-8" standalone="no"?>
<svg
   xml:space="preserve"
   width="1369.488"
   height="5000"
   version="1.1"
   id="svg16"
   sodipodi:docname="Brain--Line-Art-Illustration.svg"
   inkscape:version="1.2.2 (b0a8486541, 2022-12-01)"
   xmlns:inkscape="http://www.inkscape.org/namespaces/inkscape"
   xmlns:sodipodi="http://sodipodi.sourceforge.net/DTD/sodipodi-0.dtd"
   xmlns="http://www.w3.org/2000/svg"
   xmlns:svg="http://www.w3.org/2000/svg"><defs
     id="defs20" /><sodipodi:namedview
     id="namedview18"
     pagecolor="#ffffff"
     bordercolor="#666666"
     borderopacity="1.0"
     inkscape:showpageshadow="2"
     inkscape:pageopacity="0.0"
     inkscape:pagecheckerboard="0"
     inkscape:deskcolor="#d1d1d1"
     showgrid="false"
     inkscape:zoom="0.1742"
     inkscape:cx="284.15614"
     inkscape:cy="3424.225"
     inkscape:window-width="1910"
     inkscape:window-height="1042"
     inkscape:window-x="5"
     inkscape:window-y="17"
     inkscape:window-maximized="1"
     inkscape:current-layer="svg16" /><path
     style="fill:none;stroke:#ffffff;stroke-width:20;stroke-linecap:butt;stroke-linejoin:miter;stroke-opacity:1;stroke-dasharray:none"
     d="m 687.3809,0 c -2.63688,3460.7901 -2.63688,5000 -2.63688,5000"
     id="path7505" /><g
     style="fill:#ffaaaa"
     id="g10"><path
       d="m 887.138,2219.35 c -22.52851,26.965 -142.48266,54.4005 -80.08129,15.5501 26.59917,-5.6592 53.34569,-10.5878 80.08129,-15.5501 z m -106.57,624.66 c 43.5894,19.7087 219.06312,-0.553 86.93965,38.4307 -32.16241,4.5762 -76.1471,-1.8353 -86.93965,-38.4307 z m 4.23,-886.32 c -49.47465,35.6838 -63.20115,40.5542 -30.86156,-21.4278 35.15296,-77.159 92.15812,31.3411 57.39774,19.2972 l -9.19824,1.0221 z"
       style="fill:#ffaaaa"
       id="path2" /><path
       d="m 663.148,2211.27 c 77.21118,-126.8865 -222.8129,-118.3241 -165.27114,-105.4148 77.71609,-33.2882 216.95606,-26.6036 154.7598,-155.5852 -11.00365,-60.2849 22.83568,-142.6475 84.42897,-148.0946 -115.54684,55.8535 -14.34724,196.9643 -50.55462,290.9195 34.79633,58.314 139.09745,-37.4868 54.06551,35.4682 -68.62529,60.2747 -76.0039,267.0234 55.58894,217.8872 61.52444,-46.1327 -150.23388,154.4996 -76.00146,108.1176 -16.3182,54.4439 -19.76275,118.2441 -42.50706,23.695 -25.11468,-28.7646 -127.38738,-86.0092 -32.61328,-40.165 102.5328,-29.3673 -22.94646,-210.3706 -112.52562,-162.1293 -123.75247,-18.9299 184.1453,-22.5204 104.89274,-24.3965 15.51921,-7.8622 22.81394,-24.3337 25.73722,-40.3021 z m -91,-519.3 c 31.34065,41.1493 -3.76479,168.5328 -50.57729,96.816 -89.16724,-1.1982 122.55328,-11.9532 50.57729,-96.816 z"
       style="fill:#ffaaaa"
       id="path4" /><path
       d="m 504.998,1927.84 c -98.13205,49.4459 123.53161,-74.0271 79.79259,-7.1788 58.54078,102.3726 -34.33534,-21.2558 -79.79259,7.1788 z"
       style="fill:#ffaaaa"
       id="path6" /><path
       d="m 1141.308,2197.58 c -38.4339,61.1555 -236.56189,67.8817 -161.65302,155.9181 91.97452,40.7383 188.40432,-31.502 254.83162,-87.835 62.268,-95.612 -24.0097,-88.7208 -93.1786,-68.0831 z m -95.43,697.26 c 103.4617,-7.3 195.5861,-172.1981 175.8846,-224.6851 -63.5549,67.5613 -84.6728,174.4138 -193.6579,185.5944 -32.25702,16.8373 -16.2791,47.0978 17.7733,39.0907 z m -95.78,-1280.85 c -77.62828,67.9585 129.7244,130.4499 48.4885,24.3341 -13.04667,-12.8845 -30.05603,-22.3176 -48.4885,-24.3341 z m 19.37,102.28 c -60.99554,74.8008 149.8341,193.3691 87.5943,72.3499 -10.4786,-87.5819 103.4453,178.7913 61.5325,105.9205 101.1811,72.7939 -17.2861,-183.8418 -104.3647,-178.1885 l -22.41863,0.8455 -22.34347,-0.9275 z m -782.2,245.7 c 94.88099,33.2339 102.5636,-207.193 23.69004,-81.5943 -12.21356,25.7845 -16.8515,54.1358 -23.69004,81.5943 z m 295.69,1033.68 c -82.7971,9.4738 -171.35851,-156.598 -219.5097,-100.6024 43.77307,73.3598 135.14602,116.4401 219.5097,100.6024 z m -107.11,-893.83 c -21.23585,-81.6576 -31.43069,-166.6954 23.98114,-228.4969 -32.60774,-101.2425 90.27281,-164.3617 60.6264,-252.9657 -58.5113,32.9135 -135.51397,104.4734 -173.52922,171.2867 75.71127,-60.8217 4.05738,-6.6693 13.07361,37.4371 30.65767,36.7245 99.87365,-1.0342 27.85067,36.4832 -70.60377,30.4298 -96.63585,136.8016 -46.45497,177.4142 -56.26395,-136.5674 -198.074949,20.2288 -92.98153,83.6271 41.74401,19.0512 101.05006,24.9462 17.98849,13.6378 -54.9976,-10.4736 -49.55954,89.1489 -80.03779,8.7056 -54.241453,120.3473 124.5581,96.0857 172.40323,39.834 94.36073,25.0207 89.55629,-72.9631 46.70906,-103.175 l 11.10266,5.6884 z m 389.9,717.36 c 85.0812,-44.0838 233.81311,-68.7491 245.2972,-178.7769 -6.602,-49.1759 -16.5328,-103.7546 14.6382,-27.0106 -12.184,74.9279 30.3083,151.4952 108.5982,89.0544 82.1221,-55.0461 161.0447,-147.5975 154.8776,-251.6264 -42.6272,-90.6781 -87.2925,24.5463 -78.2575,71.886 -70.5822,-20.5439 -80.9984,117.7277 -128.2985,26.7155 -104.43501,-51.6979 -176.82829,50.4717 -247.74965,101.823 -121.89146,0.7757 -155.63025,113.6374 -109.3876,212.4651 14.25384,154.6191 305.19155,73.7438 269.67571,-66.9445 -7.05682,-64.4057 65.02244,80.0345 109.37874,1.3964 111.0568,-90.1932 -87.3498,-44.5108 -139.82515,-53.7053 -63.8322,29.2892 -123.35128,76.2529 -198.94725,74.7233 z m -76.33,-106.77 c -88.58539,-26.0127 -176.91502,-93.4895 -225.70864,-166.7464 -25.17744,-48.791 -83.66071,-112.716 -142.81912,-76.1476 24.721,-82.1742 -162.57456,-62.4184 -208.59612,-17.6703 -65.301253,70.4205 118.36273,147.9565 100.70125,36.8807 13.20589,93.1524 133.63035,178.3415 167.39343,87.9444 -26.58378,100.2023 67.91013,177.6208 161.58496,157.8196 -53.99401,28.0152 84.22556,75.9553 -15.93969,41.2933 -91.06141,-4.6348 -137.48041,-99.7214 -199.33126,-127.1078 -33.60698,32.7014 -53.21756,66.3214 -47.46032,-6.4448 9.29881,-87.1102 -220.261353,-100.9217 -114.15321,-28.6229 56.48787,12.2213 113.96919,69.7072 24.91053,32.7723 -47.88973,-24.2332 -119.427997,-73.6882 -60.64096,14.0081 85.48701,30.0652 101.60687,175.7436 218.3967,138.2566 6.89616,-62.5611 46.85698,96.2663 111.52931,55.8385 8.23303,-82.3055 119.44068,62.1083 185.86173,-9.4984 51.67706,-25.0964 37.38174,-86.8294 44.27141,-132.5753 z m 6.8,114.41 c -65.3962,85.2252 -189.80485,48.4365 -281.14851,47.7163 -96.42308,-43.4759 -187.73604,-92.0158 -274.52474,-141.679 25.05933,99.0795 135.10437,113.91 208.1291,159.2057 66.41087,91.3861 171.3938,82.9769 257.79019,28.6534 41.35384,-14.8603 96.07229,-40.7664 89.75396,-93.8964 z m -37.73,-1262.45 c 34.24161,-106.0253 163.49004,-41.1746 224.76352,1.8511 101.80238,29.2896 166.46798,107.4699 224.38128,190.4555 78.2102,78.2433 77.488,194.3229 119.5171,290.9562 42.0013,110.8325 57.2319,229.1395 60.0491,347.0372 58.2073,101.6943 -36.2393,201.6973 -40.6326,303.6679 -45.8306,93.8314 -74.0467,213.4957 -171.8565,266.515 -99.65599,39.8153 -183.80828,135.9436 -300.63064,100.0829 -103.30747,1.9455 -205.69164,67.3769 -304.77506,-6.3464 C 354.43867,3022.2948 255.28353,2945.571 190.46684,2844.6355 84.67887,2741.0022 69.289754,2590.6446 79.210943,2451.6966 48.56842,2349.0515 94.007843,2256.2132 98.622403,2155.7514 137.89396,2041.2716 178.44783,1925.9493 231.64358,1817.122 c 69.92826,-111.9797 176.88601,-200.4616 292.93385,-261.4186 42.42884,-19.1575 96.43938,-23.984 133.91057,8.6666 z m 8.42,166.96 c 21.89629,-61.908 -76.48438,-95.5501 -14.10871,-126.9933 -35.5185,-100.478 -229.57504,7.4 -140.0778,46.371 68.49614,-64.6516 63.85343,-8.3609 1.20027,18.3813 9.75954,59.4993 -122.37383,59.8227 -92.55954,154.2018 25.5193,46.9833 68.5322,44.1863 7.80185,87.2228 -63.86395,31.9905 -58.54622,186.2865 28.91506,121.9176 -110.18321,49.3929 -60.55056,213.4269 -7.95669,242.1427 -58.48826,-69.3153 -166.20407,-88.3335 -208.25121,20.5257 22.50491,-86.0004 -87.78217,-18.1987 -129.48688,-12.9418 -105.0276208,112.9018 74.58894,157.0507 157.7142,114.0127 91.47259,-2.2912 197.12138,49.785 214.90475,147.3607 59.65463,42.3708 168.10379,195.4751 222.58832,94.4681 17.73708,-41.9296 -11.9769,-105.2041 10.20674,-28.7747 72.74656,91.1579 169.93245,-15.9919 223.47617,-72.7379 36.12644,-33.6799 129.60647,-92.9975 68.48647,-20.9474 79.3467,61.2257 190.7702,-17.7966 220.7862,-102.2734 70.673,-49.5028 45.0567,-185.7184 -38.0527,-89.6689 -79.1724,87.1908 -207.93835,18.8745 -284.98409,98.8439 -34.79031,33.0225 -103.14172,148.3893 -63.10858,40.6647 63.84253,-69.7653 116.20205,-144.0016 79.48332,-240.3303 22.22908,-98.6296 -5.28147,-190.4231 -45.65417,-280.7345 -23.94976,-89.3686 -2.01848,-184.5127 -55.8004,-266.9374 -29.07348,-98.1538 68.98729,127.6959 63.73072,96.565 -27.06997,71.9384 17.92749,176.4973 84.22788,144.2106 -61.79359,29.5714 -91.89576,86.7048 -19.79886,129.875 12.93352,69.9169 -44.52473,263.0674 92.83098,184.398 48.1702,-69.1124 225.8686,-43.604 168.3338,-154.2907 -38.9994,69.9688 -129.0295,-30.1765 -168.2298,57.6411 -94.41055,54.02 25.0728,-90.559 79.4192,-63.1356 156.6453,-4.9216 -16.5689,-179.844 -45.388,-165.4436 -6.5458,61.5448 125.4724,122.9981 6.3409,79.9773 -82.9698,-3.9514 -32.4946,-11.8249 -24.3144,-61.369 -7.9557,-64.7442 -72.63623,-92.9992 -102.13372,-99.4745 3.92548,-45.0544 -40.35974,-92.2133 -8.10789,-123.359 -40.51841,-34.4993 -70.68733,-62.4245 -60.15584,-106.1425 -74.18306,-75.1443 -246.78582,-102.1976 -190.02258,43.1197 -39.43057,49.4846 11.43711,93.5244 40.63162,91.9424 -25.68299,45.7211 -69.67646,107.9314 -83.92875,22.6983 C 639.798,1733.4501 638.26807,1702.152 666.908,1731.33 Z m -73.08,1257.96 c 80.22601,22.7318 135.89827,-116.7187 30.33536,-56.7485 -104.31601,38.2295 -41.43811,131.5048 43.95018,102.4619 -72.90678,55.815 -201.10063,-36.6022 -213.31685,1.9426 98.46927,51.9586 193.56546,30.8904 288.81118,2.0138 105.56418,31.0949 197.14121,-17.2588 280.97453,-75.6622 55.2639,-17.8111 129.6864,-101.2375 28.754,-48.9611 -73.63026,16.7718 -176.68457,125.0708 -224.52324,101.0207 58.73454,4.3354 165.90813,-107.8 52.81897,-50.3677 -76.67783,-28.448 -198.70974,-16.2889 -155.56974,54.1175 -33.23858,-44.6435 -84.76455,-32.2673 -132.23439,-29.817 z"
       style="fill:#ffaaaa"
       id="path8" /></g></svg>
