<?xml version="1.0" encoding="UTF-8" standalone="no"?>
<!-- Created with Inkscape (http://www.inkscape.org/) -->

<svg
   width="150mm"
   height="25.537823mm"
   viewBox="0 0 150 25.537823"
   version="1.1"
   id="svg1987"
   xml:space="preserve"
   inkscape:version="1.2.2 (b0a8486541, 2022-12-01)"
   sodipodi:docname="phase.svg"
   xmlns:inkscape="http://www.inkscape.org/namespaces/inkscape"
   xmlns:sodipodi="http://sodipodi.sourceforge.net/DTD/sodipodi-0.dtd"
   xmlns="http://www.w3.org/2000/svg"
   xmlns:svg="http://www.w3.org/2000/svg"><sodipodi:namedview
     id="namedview1989"
     pagecolor="#ffffff"
     bordercolor="#666666"
     borderopacity="1.0"
     inkscape:showpageshadow="2"
     inkscape:pageopacity="0.0"
     inkscape:pagecheckerboard="0"
     inkscape:deskcolor="#d1d1d1"
     inkscape:document-units="mm"
     showgrid="false"
     inkscape:zoom="0.77593294"
     inkscape:cx="222.95741"
     inkscape:cy="184.93866"
     inkscape:window-width="1910"
     inkscape:window-height="1042"
     inkscape:window-x="1925"
     inkscape:window-y="17"
     inkscape:window-maximized="1"
     inkscape:current-layer="layer1" /><defs
     id="defs1984" /><g
     inkscape:label="Layer 1"
     inkscape:groupmode="layer"
     id="layer1"
     transform="translate(17.485709,-100.20783)"><path
       style="fill:#f6bb3f;stroke-width:0.169132"
       d="m -13.648709,125.40554 c -0.466055,-0.1164 -1.0769,-0.47035 -1.627686,-0.94314 -2.098639,-1.80148 -3.404532,-3.90434 -7.41909,-11.94688 -3.903802,-7.82066 -6.390686,-11.12032 -8.596795,-11.40644 -2.197467,-0.285 -4.877562,2.7213 -8.096485,9.08193 l -0.766002,1.51363 -0.07747,-0.71603 c -0.05544,-0.51247 0.186513,-1.20923 0.851098,-2.45088 3.69766,-6.90834 6.008252,-8.970596 8.98046,-8.01524 2.319852,0.74566 4.16849,3.32487 8.36349,11.66868 4.483316,8.91727 6.493364,11.765 8.801194,12.46909 0.650071,0.19832 0.745572,0.20129 1.34149,0.0417 0.925788,-0.24787 1.847329,-0.94781 2.9458969,-2.23749 1.6136342,-1.89435 2.6369625,-3.67901 6.5106955,-11.35451 3.6443507,-7.22099 5.6051495,-9.87336 7.8269633,-10.58751 3.3346422,-1.071852 5.6622183,1.38579 10.5391553,11.1281 4.968124,9.92446 6.846816,12.52343 9.46685,13.09641 0.509,0.11132 0.680564,0.0759 1.533583,-0.31692 2.239933,-1.03142 3.925557,-3.5099 8.314865,-12.22588 2.639242,-5.24082 4.227036,-7.95578 5.571106,-9.52598 1.51033,-1.76443 2.57142,-2.37988 4.10313,-2.37988 2.73108,0 4.9731,2.7673 9.372626,11.56848 4.140441,8.2829 5.795082,10.85818 7.8558,12.22673 1.062634,0.7057 1.659261,0.83549 2.573185,0.55977 2.222588,-0.67054 4.377836,-3.69012 8.470502,-11.86751 3.327152,-6.64784 4.607093,-8.80862 6.268354,-10.58217 1.876611,-2.00346 3.953149,-2.451662 5.804947,-1.25296 2.110858,1.36639 3.687639,3.79082 7.802688,11.99731 4.073946,8.12451 6.089734,10.93679 8.363038,11.6675 0.62352,0.20042 0.78218,0.21082 1.26653,0.083 1.06601,-0.28124 2.21585,-1.15001 3.27097,-2.4714 1.64371,-2.05852 2.62144,-3.78954 6.55413,-11.60365 2.6409,-5.24737 4.34615,-7.83692 6.09983,-9.263 0.9608,-0.78131 1.69098,-1.06214 2.76172,-1.06214 2.22673,0 4.28666,2.04378 6.97418,6.91947 2.23949,4.0629 3.09481,5.95844 3.01646,6.68504 -0.0729,0.67625 -0.17302,0.52992 -1.61461,-2.36038 -3.41516,-6.8472 -5.722,-9.86489 -7.93215,-10.37648 -0.64111,-0.1484 -0.73766,-0.14089 -1.39116,0.10811 -2.30405,0.87795 -4.22155,3.62766 -8.59308,12.32259 -3.52718,7.01553 -5.38989,9.88909 -7.25193,11.18745 -1.73749,1.2115 -3.55555,1.07051 -5.290874,-0.41031 -1.816601,-1.55019 -3.411842,-4.11632 -6.901251,-11.1015 -3.405342,-6.81688 -4.977293,-9.35729 -6.723491,-10.86571 -0.550697,-0.47572 -1.322624,-0.98535 -1.715381,-1.13252 -0.668197,-0.25038 -0.759967,-0.25722 -1.427451,-0.10642 -1.010117,0.22821 -2.752045,1.71707 -3.852919,3.29315 -1.246144,1.78406 -2.702705,4.40331 -4.930173,8.86557 -4.506853,9.02856 -6.536314,11.74548 -9.098229,12.18014 -3.049862,0.51745 -5.34913,-2.01953 -9.716055,-10.72057 -2.752,-5.48329 -4.545736,-8.74449 -5.662156,-10.29431 -1.1996,-1.6653 -2.8758,-3.0999 -3.88575,-3.32567 -0.66589,-0.14886 -0.76006,-0.14167 -1.41558,0.10811 -2.31549,0.88231 -4.12738,3.46783 -8.471829,12.08911 -4.546563,9.02235 -6.647098,11.81143 -9.166188,12.17081 -3.057422,0.43618 -5.192326,-1.96226 -9.725768,-10.92629 -3.673745,-7.26415 -4.644867,-8.9824 -6.132034,-10.84965 -0.9927347,-1.24646 -2.0518111,-2.12566 -2.9921575,-2.48398 -0.6534967,-0.24901 -0.7500514,-0.25651 -1.3911551,-0.10811 -1.5359761,0.35553 -3.1523412,1.99618 -5.089315,5.16576 -1.08781531,1.78007 -1.55077533,2.65576 -4.3838314,8.29205 -2.9599636,5.88875 -4.5092167,8.28184 -6.3725143,9.84346 -0.5810567,0.48697 -1.1842537,0.82815 -1.6725347,0.94601 -0.94737,0.22868 -1.279916,0.22752 -2.221844,-0.008 z"
       id="path2487" /><path
       style="fill:#249cff;fill-opacity:1;stroke-width:0.169132"
       d="m -5.9631345,125.53353 c -0.4660547,-0.1164 -1.0768994,-0.47035 -1.6276851,-0.94315 -2.0986377,-1.80147 -3.4045304,-3.90433 -7.4190884,-11.94687 -3.903802,-7.82066 -6.390686,-11.12032 -8.596795,-11.40644 -2.197467,-0.285 -4.877561,2.7213 -8.096482,9.08193 l -0.766002,1.51364 -0.07747,-0.71604 c -0.05544,-0.51247 0.186514,-1.20923 0.851098,-2.45088 3.697658,-6.90834 6.00825,-8.970597 8.980458,-8.01525 2.319852,0.74567 4.16849,3.32488 8.36349,11.66869 4.4833147,8.91727 6.4933614,11.765 8.8011902,12.46909 0.6500707,0.19832 0.7455713,0.2013 1.341489,0.0417 0.9257878,-0.24787 1.8473282,-0.94781 2.9458966,-2.23749 1.61363396,-1.89435 2.6369623,-3.67901 6.5106949,-11.35451 3.6443512,-7.22099 5.6051503,-9.87336 7.8269653,-10.58752 3.334644,-1.071843 5.662221,1.3858 10.539158,11.12811 4.968124,9.92446 6.846816,12.52343 9.46685,13.09641 0.509,0.11132 0.680564,0.0759 1.533583,-0.31692 2.239933,-1.03142 3.925557,-3.5099 8.314865,-12.22588 2.639242,-5.24082 4.227036,-7.95578 5.571106,-9.52598 1.51033,-1.76443 2.57142,-2.37988 4.10313,-2.37988 2.731078,0 4.973086,2.7673 9.372589,11.56848 4.140439,8.28291 5.795077,10.85818 7.855798,12.22673 1.062634,0.70571 1.659258,0.83549 2.573185,0.55978 2.222585,-0.67054 4.377833,-3.69012 8.470502,-11.86752 3.327149,-6.64784 4.607093,-8.80862 6.268354,-10.58217 1.876608,-2.00346 3.953146,-2.451663 5.804947,-1.25297 2.110858,1.3664 3.687639,3.79083 7.802688,11.99732 4.07397,8.12452 6.08977,10.93679 8.36308,11.6675 0.62352,0.20042 0.78218,0.21082 1.26653,0.083 1.06601,-0.28124 2.21585,-1.15001 3.27097,-2.4714 1.64371,-2.05852 2.62144,-3.78954 6.55413,-11.60365 2.6409,-5.24737 4.34615,-7.83692 6.09983,-9.263 0.9608,-0.78131 1.69098,-1.06214 2.76172,-1.06214 2.22673,0 4.28666,2.04378 6.97418,6.91947 2.23949,4.0629 3.09481,5.95844 3.01646,6.68504 -0.0729,0.67625 -0.17302,0.52992 -1.61461,-2.36038 -3.41516,-6.8472 -5.722,-9.86489 -7.93215,-10.37648 -0.64111,-0.1484 -0.73766,-0.1409 -1.39116,0.10811 -2.30405,0.87795 -4.22155,3.62766 -8.59308,12.32259 -3.52718,7.01553 -5.38989,9.8891 -7.25193,11.18745 -1.73749,1.2115 -3.55555,1.07051 -5.29088,-0.41031 -1.81661,-1.55019 -3.41186,-4.11632 -6.90129,-11.10149 -3.405339,-6.81689 -4.97729,-9.3573 -6.723491,-10.86572 -0.550697,-0.47572 -1.322621,-0.98535 -1.715381,-1.13252 -0.668194,-0.25038 -0.759964,-0.25722 -1.427451,-0.10642 -1.010114,0.22821 -2.752045,1.71707 -3.852919,3.29315 -1.246141,1.78406 -2.702705,4.4033 -4.93017,8.86556 -4.506856,9.02857 -6.536314,11.74549 -9.098229,12.18015 -3.049862,0.51745 -5.34913,-2.01953 -9.716056,-10.72058 -2.751985,-5.48328 -4.545713,-8.74448 -5.662127,-10.2943 -1.199594,-1.6653 -2.875789,-3.0999 -3.885739,-3.32567 -0.66589,-0.14886 -0.76006,-0.14167 -1.41558,0.10811 -2.31549,0.88231 -4.12738,3.46783 -8.471829,12.08911 -4.546563,9.02235 -6.647098,11.81143 -9.166188,12.17081 -3.057422,0.43618 -5.192326,-1.96225 -9.725768,-10.9263 -3.673745,-7.26414 -4.644867,-8.98239 -6.132034,-10.84965 -0.992735,-1.24645 -2.051812,-2.12565 -2.992159,-2.48397 -0.653497,-0.24901 -0.750052,-0.25651 -1.391156,-0.10811 -1.535977,0.35553 -3.152343,1.99618 -5.0893171,5.16576 -1.0878154,1.78007 -1.5507751,2.65576 -4.3838316,8.29204 -2.9599632,5.88876 -4.50921621,8.28185 -6.3725143,9.84347 -0.5810567,0.48697 -1.184253,0.82815 -1.6725341,0.94601 -0.9473693,0.22869 -1.279915,0.22753 -2.2218424,-0.008 z"
       id="path2487-3" /><path
       style="fill:#f63f3f;fill-opacity:1;stroke-width:0.169132"
       d="m 1.2761831,125.3233 c -0.46605467,-0.1164 -1.07689934,-0.47035 -1.62768501,-0.94315 -2.09863769,-1.80147 -3.40453019,-3.90433 -7.41908569,-11.94688 -3.9038004,-7.82065 -6.3906844,-11.12032 -8.5967934,-11.40644 -2.197467,-0.28499 -4.877561,2.7213 -8.096482,9.08194 l -0.766002,1.51363 -0.07747,-0.71603 c -0.05544,-0.51248 0.186514,-1.20924 0.851098,-2.45088 3.697658,-6.90835 6.00825,-8.970603 8.980458,-8.01525 2.319852,0.74567 4.16849,3.32487 8.3634881,11.66868 4.4833122,8.91727 6.49335937,11.76501 8.8011877,12.46909 0.6500707,0.19833 0.7455717,0.2013 1.3414894,0.0417 0.9257874,-0.24788 1.8473278,-0.94781 2.9458962,-2.23749 1.6136341,-1.89435 2.6369625,-3.67901 6.5106966,-11.35451 3.644353,-7.221 5.605153,-9.87337 7.826968,-10.58752 3.334644,-1.071849 5.662221,1.38579 10.539158,11.1281 4.968124,9.92446 6.846816,12.52344 9.46685,13.09642 0.509,0.11131 0.680564,0.0759 1.533583,-0.31693 2.239933,-1.03141 3.925555,-3.5099 8.314865,-12.22588 2.63924,-5.24082 4.22704,-7.95577 5.571109,-9.52598 1.510321,-1.76443 2.571405,-2.37987 4.103106,-2.37987 2.731065,0 4.973073,2.76729 9.372569,11.56847 4.140436,8.28291 5.795077,10.85819 7.855795,12.22674 1.062634,0.7057 1.659261,0.83549 2.573185,0.55977 2.222588,-0.67054 4.377836,-3.69012 8.470502,-11.86752 3.327152,-6.64783 4.607093,-8.80862 6.268354,-10.58217 1.876611,-2.00345 3.953149,-2.45166 5.804947,-1.25296 2.11087,1.36639 3.68766,3.79082 7.80273,11.99731 4.07397,8.12452 6.08977,10.9368 8.36308,11.6675 0.62352,0.20042 0.78218,0.21082 1.26653,0.083 1.06601,-0.28123 2.21585,-1.15 3.27097,-2.4714 1.64371,-2.05851 2.62144,-3.78953 6.55413,-11.60365 2.6409,-5.24737 4.34615,-7.83691 6.09983,-9.26299 0.9608,-0.78132 1.69098,-1.06214 2.76172,-1.06214 2.22673,0 4.28666,2.04377 6.97418,6.91946 2.23949,4.0629 3.09481,5.95844 3.01646,6.68504 -0.0729,0.67625 -0.17302,0.52992 -1.61461,-2.36038 -3.41516,-6.8472 -5.722,-9.86489 -7.93215,-10.37648 -0.64111,-0.1484 -0.73766,-0.14089 -1.39116,0.10811 -2.30405,0.87795 -4.22155,3.62767 -8.59308,12.32259 -3.52718,7.01554 -5.38989,9.8891 -7.25193,11.18746 -1.73749,1.2115 -3.55555,1.07051 -5.29088,-0.41031 -1.81661,-1.55019 -3.41186,-4.11633 -6.90129,-11.1015 -3.40536,-6.81689 -4.97732,-9.3573 -6.72353,-10.86572 -0.5507,-0.47571 -1.322624,-0.98534 -1.715381,-1.13252 -0.668197,-0.25037 -0.759967,-0.25722 -1.427454,-0.10641 -1.010114,0.22821 -2.752042,1.71706 -3.852916,3.29314 -1.246144,1.78406 -2.702705,4.40331 -4.930173,8.86557 -4.506856,9.02857 -6.536314,11.74548 -9.098229,12.18014 -3.049862,0.51746 -5.34913,-2.01952 -9.716056,-10.72057 -2.751982,-5.48329 -4.545703,-8.74448 -5.662117,-10.29431 -1.199594,-1.6653 -2.875782,-3.0999 -3.885726,-3.32567 -0.665887,-0.14886 -0.760057,-0.14166 -1.415574,0.10811 -2.315475,0.88231 -4.127361,3.46783 -8.471811,12.08911 -4.54657,9.02236 -6.647101,11.81144 -9.166191,12.17081 -3.057422,0.43618 -5.192326,-1.96225 -9.725768,-10.92629 -3.673745,-7.26415 -4.644867,-8.9824 -6.132034,-10.84965 -0.992735,-1.24646 -2.051812,-2.12566 -2.992159,-2.48398 -0.653497,-0.24901 -0.750052,-0.25651 -1.391156,-0.10811 -1.535977,0.35554 -3.152343,1.99618 -5.089318,5.16577 -1.087816,1.78006 -1.550776,2.65575 -4.383834,8.29204 -2.9599641,5.88876 -4.5092172,8.28185 -6.372515,9.84346 -0.5810567,0.48698 -1.1842534,0.82816 -1.6725341,0.94602 -0.9473694,0.22868 -1.2799154,0.22752 -2.2218428,-0.008 z"
       id="path2487-6" /><path
       style="fill:#0aec2b;fill-opacity:1;stroke-width:0.169132"
       d="M 9.8801153,125.55209 C 9.4140606,125.43569 8.8032159,125.08174 8.2524302,124.60895 6.1537924,122.80748 4.8479,120.70461 0.83334443,112.66206 -3.0704553,104.84141 -5.5573378,101.54175 -7.7634456,101.25563 c -2.1974657,-0.285 -4.8775594,2.7213 -8.0964804,9.08193 l -0.766002,1.51364 -0.07747,-0.71604 c -0.05544,-0.51247 0.186514,-1.20923 0.851098,-2.45088 3.697658,-6.90835 6.0082497,-8.9706 8.9804557,-8.01525 2.3198509,0.74567 4.1684879,3.32487 8.3634854,11.66869 4.4833123,8.91727 6.4933591,11.765 8.8011879,12.46909 0.650071,0.19832 0.745572,0.20129 1.34149,0.0417 0.925788,-0.24787 1.847329,-0.94781 2.945898,-2.23749 1.613635,-1.89435 2.636964,-3.67901 6.510699,-11.35451 3.644353,-7.221 5.605153,-9.87337 7.826968,-10.58752 3.334644,-1.071846 5.662221,1.38579 10.539158,11.12811 4.968124,9.92446 6.846816,12.52343 9.46685,13.09641 0.509,0.11132 0.680564,0.0759 1.533583,-0.31692 2.239933,-1.03142 3.925557,-3.5099 8.314839,-12.22588 2.639235,-5.24082 4.227016,-7.95578 5.57108,-9.52599 1.510321,-1.76443 2.571405,-2.37987 4.103106,-2.37987 2.731065,0 4.973073,2.76729 9.372576,11.56848 4.140439,8.28291 5.795077,10.85818 7.855798,12.22673 1.062634,0.70571 1.659258,0.83549 2.573185,0.55978 2.222588,-0.67055 4.377833,-3.69013 8.470502,-11.86752 3.327149,-6.64784 4.607099,-8.80863 6.268369,-10.58218 1.87662,-2.00345 3.95317,-2.451657 5.80498,-1.25296 2.11087,1.36639 3.68766,3.79082 7.80273,11.99732 4.07397,8.12452 6.08977,10.93679 8.36308,11.6675 0.62352,0.20042 0.78218,0.21082 1.26653,0.083 1.06601,-0.28124 2.21585,-1.15001 3.27097,-2.4714 1.64371,-2.05852 2.62144,-3.78954 6.55413,-11.60365 2.6409,-5.24738 4.34615,-7.83692 6.09983,-9.263 0.9608,-0.78132 1.69098,-1.06214 2.76172,-1.06214 2.22673,0 4.28666,2.04378 6.97418,6.91947 2.23949,4.0629 3.09481,5.95844 3.01646,6.68504 -0.0729,0.67625 -0.17302,0.52992 -1.61461,-2.36038 -3.41516,-6.8472 -5.722,-9.8649 -7.93215,-10.37649 -0.64111,-0.1484 -0.73766,-0.14089 -1.39116,0.10812 -2.30405,0.87794 -4.22155,3.62766 -8.59308,12.32259 -3.52718,7.01553 -5.38989,9.8891 -7.25193,11.18745 -1.73749,1.2115 -3.55555,1.07051 -5.29088,-0.41031 -1.81661,-1.55019 -3.41186,-4.11632 -6.90129,-11.10149 -3.40536,-6.8169 -4.97732,-9.3573 -6.72353,-10.86573 -0.5507,-0.47571 -1.32263,-0.98534 -1.71539,-1.13251 -0.6682,-0.25038 -0.75997,-0.25722 -1.42746,-0.10642 -1.01012,0.22821 -2.75206,1.71707 -3.85294,3.29315 -1.24615,1.78406 -2.702717,4.4033 -4.930182,8.86556 -4.506856,9.02857 -6.536314,11.74549 -9.098229,12.18015 -3.049862,0.51745 -5.34913,-2.01953 -9.716056,-10.72058 -2.751985,-5.48328 -4.545713,-8.74448 -5.662127,-10.29431 -1.199594,-1.6653 -2.875785,-3.0999 -3.885729,-3.32567 -0.665884,-0.14885 -0.760054,-0.14166 -1.415571,0.10812 -2.315478,0.8823 -4.127356,3.46782 -8.471782,12.08911 -4.54654,9.02235 -6.647075,11.81143 -9.166165,12.17081 -3.057422,0.43618 -5.192326,-1.96226 -9.725768,-10.9263 -3.673745,-7.26415 -4.644867,-8.98239 -6.132034,-10.84965 -0.992735,-1.24645 -2.051812,-2.12566 -2.992159,-2.48397 -0.653497,-0.24901 -0.750052,-0.25652 -1.391156,-0.10812 -1.535977,0.35554 -3.152343,1.99619 -5.089318,5.16577 -1.087816,1.78007 -1.550776,2.65576 -4.383834,8.29204 -2.959965,5.88876 -4.509219,8.28185 -6.372518,9.84347 -0.581057,0.48697 -1.184254,0.82815 -1.672535,0.94601 -0.94737,0.22869 -1.279916,0.22753 -2.2218437,-0.008 z"
       id="path2487-7" /></g></svg>
