<?xml version="1.0" encoding="UTF-8" standalone="no"?>
<!-- Created with Inkscape (http://www.inkscape.org/) -->

<svg
   width="206.375mm"
   height="73.427109mm"
   viewBox="0 0 206.375 73.427109"
   version="1.1"
   id="svg5"
   xml:space="preserve"
   inkscape:version="1.2.2 (b0a8486541, 2022-12-01)"
   sodipodi:docname="rectification.svg"
   xmlns:inkscape="http://www.inkscape.org/namespaces/inkscape"
   xmlns:sodipodi="http://sodipodi.sourceforge.net/DTD/sodipodi-0.dtd"
   xmlns="http://www.w3.org/2000/svg"
   xmlns:svg="http://www.w3.org/2000/svg"><sodipodi:namedview
     id="namedview7"
     pagecolor="#ffffff"
     bordercolor="#666666"
     borderopacity="1.0"
     inkscape:showpageshadow="2"
     inkscape:pageopacity="0.0"
     inkscape:pagecheckerboard="0"
     inkscape:deskcolor="#d1d1d1"
     inkscape:document-units="mm"
     showgrid="false"
     inkscape:zoom="1.0973349"
     inkscape:cx="235.1151"
     inkscape:cy="148.99736"
     inkscape:window-width="1920"
     inkscape:window-height="1080"
     inkscape:window-x="0"
     inkscape:window-y="0"
     inkscape:window-maximized="1"
     inkscape:current-layer="layer1" /><defs
     id="defs2" /><g
     inkscape:label="Layer 1"
     inkscape:groupmode="layer"
     id="layer1"
     transform="translate(-1.8175092,-90.589692)"><path
       style="fill:#209cfc;stroke-width:0.264583"
       d="M 101.71255,163.85983 C 96.184248,162.92312 91.192995,159.2496 85.008862,151.56607 80.853147,146.40276 78.304299,142.58531 70.525476,129.87404 64.217037,119.5655 61.465703,115.20059 59.268177,112.01466 49.707454,98.153722 43.015075,92.706362 35.546877,92.706362 c -9.040778,0 -17.154065,7.966008 -30.8450393,30.285138 -2.6315629,4.29 -2.7606694,4.45141 -2.83673,3.5465 -0.068304,-0.81264 0.3499575,-1.64363 2.9281047,-5.81747 7.6600106,-12.40103 12.3459526,-18.79089 17.1580946,-23.397148 5.012947,-4.79848 8.920206,-6.73369 13.59557,-6.73369 7.115839,0 13.518018,4.96629 22.335863,17.326358 2.621348,3.67437 5.806876,8.65136 11.344687,17.72465 10.565122,17.31018 14.710926,23.21337 20.162157,28.70882 2.847239,2.87034 6.167392,5.30563 8.598958,6.30723 4.973118,2.04851 9.771508,1.4214 14.818308,-1.93662 6.5066,-4.32934 12.69632,-12.41197 25.1298,-32.81484 9.84657,-16.15785 14.38691,-22.58677 19.71444,-27.914828 5.10306,-5.10357 8.84137,-7.13743 13.50867,-7.34954 3.0956,-0.14068 5.12782,0.32398 7.85829,1.79677 2.59845,1.40159 3.96048,2.46749 7.02814,5.50006 2.9273,2.893818 5.82227,6.457168 9.12297,11.229238 2.678,3.87179 8.45759,12.93896 10.83797,17.00288 0.9376,1.60073 1.81943,3.05094 1.95962,3.22268 0.14019,0.17175 0.21744,0.76706 0.17167,1.32292 -0.0821,0.99699 -0.11748,0.9552 -2.61776,-3.09039 -1.394,-2.25557 -3.05925,-4.99401 -3.70055,-6.08542 -2.15369,-3.66528 -8.92336,-13.59987 -11.1782,-16.40417 -2.65091,-3.29688 -7.0911,-7.671348 -9.30962,-9.171808 -3.58567,-2.42512 -6.0729,-3.26566 -9.64674,-3.26006 -6.42789,0.0101 -12.72104,4.59577 -20.51021,14.945418 -2.80771,3.73066 -7.26542,10.59589 -13.22848,20.37291 -9.93178,16.28415 -14.82596,23.25241 -19.98228,28.4505 -5.61385,5.65933 -11.2719,8.2312 -16.25203,7.38738 z"
       id="path1225" /><path
       style="fill:#f23b66;stroke-width:0.264583"
       d="m 136.62327,139.46876 c -0.99159,-1.63711 -2.93236,-4.7625 -4.31283,-6.94531 -11.83895,-18.71986 -20.00558,-25.98312 -28.62835,-25.46148 -8.822167,0.5337 -17.26478,9.1755 -30.819844,31.5469 -1.146244,1.89177 -2.113172,3.48026 -2.148732,3.52998 -0.262903,0.3676 -1.316516,-1.07359 -4.224946,-5.77911 -10.133679,-16.39516 -16.635549,-24.12502 -23.129062,-27.49737 -4.567899,-2.37228 -8.606861,-2.49245 -13.189322,-0.39239 -6.921287,3.17189 -14.053195,11.55222 -24.801707,29.14316 -2.8153413,4.60756 -3.5509678,5.27974 -3.5509678,3.24469 0,-0.82879 0.1004271,-1.05991 0.4630208,-1.06559 0.3099516,-0.005 1.2428152,-1.295 2.8218288,-3.9026 10.5295352,-17.38857 17.5813232,-25.81301 24.5408672,-29.3178 2.697372,-1.35839 4.663038,-1.78671 7.496156,-1.63342 4.54882,0.24611 8.424196,2.35558 13.229167,7.20096 4.715324,4.75498 9.148331,10.80376 15.811563,21.5747 3.646132,5.89387 4.121168,6.51922 4.576553,6.02472 0.170275,-0.1849 1.471956,-2.24118 2.892626,-4.56952 11.779871,-19.30602 19.605794,-27.82932 27.476579,-29.92497 1.75037,-0.46605 4.94957,-0.46605 6.69995,0 8.12128,2.16235 15.91788,10.81747 28.68251,31.84084 1.08156,1.78133 2.026,3.23494 2.09876,3.23025 0.0728,-0.005 1.19492,-1.75979 2.49369,-3.90024 7.33285,-12.08491 12.50389,-19.28611 17.34298,-24.15185 7.92377,-7.96744 15.01997,-9.43567 22.76125,-4.70938 1.65104,1.00801 3.19968,2.32914 5.82495,4.96921 5.01327,5.04152 9.22163,10.81749 16.40353,22.51385 1.65305,2.69214 3.0545,4.95433 3.11434,5.02709 0.0598,0.0728 0.45437,-0.27993 0.87674,-0.78376 l 0.76794,-0.91605 v 1.00752 c 0,1.07471 -0.65022,2.43268 -1.28064,2.67459 -0.21043,0.0807 -0.40879,0.11425 -0.44081,0.0744 -0.032,-0.0398 -1.22371,-1.97738 -2.64822,-4.30571 -3.73863,-6.11074 -8.17554,-12.78579 -11.00862,-16.56181 -2.99364,-3.99 -8.39148,-9.46994 -11.04278,-11.21072 -4.92194,-3.23163 -9.43539,-3.84927 -14.44146,-1.97625 -3.79842,1.42118 -8.84129,5.72988 -13.45859,11.4992 -2.72313,3.40255 -8.41944,11.84537 -12.35581,18.31324 -1.52691,2.50887 -2.84667,4.5627 -2.93281,4.56407 -0.0861,0.001 -0.96792,-1.33698 -1.9595,-2.97409 z"
       id="path1223"
       sodipodi:nodetypes="cssssssssscsssssssssscssssssscsssssssssccc" /></g></svg>
