<?xml version="1.0" encoding="UTF-8" standalone="no"?>
<!-- Created with Inkscape (http://www.inkscape.org/) -->

<svg
   width="206.40508mm"
   height="73.404854mm"
   viewBox="0 0 206.40508 73.404854"
   version="1.1"
   id="svg5"
   xml:space="preserve"
   inkscape:version="1.2.2 (b0a8486541, 2022-12-01)"
   sodipodi:docname="ringmodoctave.svg"
   xmlns:inkscape="http://www.inkscape.org/namespaces/inkscape"
   xmlns:sodipodi="http://sodipodi.sourceforge.net/DTD/sodipodi-0.dtd"
   xmlns="http://www.w3.org/2000/svg"
   xmlns:svg="http://www.w3.org/2000/svg"><sodipodi:namedview
     id="namedview7"
     pagecolor="#ffffff"
     bordercolor="#666666"
     borderopacity="1.0"
     inkscape:showpageshadow="2"
     inkscape:pageopacity="0.0"
     inkscape:pagecheckerboard="0"
     inkscape:deskcolor="#d1d1d1"
     inkscape:document-units="mm"
     showgrid="false"
     inkscape:zoom="1.0973349"
     inkscape:cx="410.99577"
     inkscape:cy="105.25501"
     inkscape:window-width="1920"
     inkscape:window-height="1080"
     inkscape:window-x="0"
     inkscape:window-y="0"
     inkscape:window-maximized="1"
     inkscape:current-layer="layer1" /><defs
     id="defs2" /><g
     inkscape:label="Layer 1"
     inkscape:groupmode="layer"
     id="layer1"
     transform="translate(-2.0856617,-90.600817)"><path
       style="fill:#209cfb;stroke-width:0.264583"
       d="m 91.364945,163.85545 c -6.424845,-1.05877 -13.152829,-8.21028 -22.126048,-23.51887 -1.273189,-2.1721 -1.422525,-2.56531 -1.099336,-2.89467 0.205697,-0.20962 0.417155,-0.32868 0.469905,-0.26458 0.05275,0.0641 0.909383,1.48576 1.903622,3.15925 10.383861,17.47796 18.283399,23.69353 26.486922,20.84063 2.65032,-0.92169 4.59814,-2.28256 7.65036,-5.34502 3.75213,-3.76471 7.05682,-8.32763 11.64701,-16.08148 1.63416,-2.76045 2.22178,-3.55488 2.45614,-3.32052 0.16944,0.16943 0.30806,0.40121 0.30806,0.51506 0,0.11386 -1.02712,1.96528 -2.28248,4.11427 -10.09271,17.2772 -17.66836,24.07238 -25.414155,22.79593 z m 115.406005,-4.15616 c -3.73665,-3.17198 -7.84827,-8.63931 -13.09003,-17.40618 -2.35204,-3.9338 -2.61284,-4.49101 -2.26482,-4.83902 0.2163,-0.21632 0.43233,-0.34086 0.48003,-0.27676 0.0477,0.0641 0.78449,1.30717 1.6373,2.76238 4.90735,8.37372 9.70555,14.67877 13.71922,18.02762 1.16698,0.97369 1.26823,1.14986 1.19062,2.07187 l -0.0848,1.00769 z M 63.893252,130.77031 c -9.884267,-17.95373 -13.017521,-23.07908 -17.564775,-28.73226 -3.45976,-4.301195 -6.282423,-6.714415 -9.756169,-8.340955 -1.485519,-0.69558 -2.175074,-0.85076 -4.16178,-0.93659 -4.0407,-0.17456 -7.07262,1.19953 -11.13812,5.04786 -4.847617,4.588665 -9.788834,11.788275 -16.7950202,24.471205 -2.1031391,3.8072 -2.2340731,3.98216 -2.3125931,3.09015 -0.06948,-0.78929 0.385339,-1.78409 2.7523511,-6.02007 6.6846932,-11.96285 10.5620602,-17.7069 15.1870882,-22.498595 4.507539,-4.66999 8.002952,-6.41909 12.407159,-6.20852 1.972638,0.0943 2.601478,0.24881 4.280725,1.05169 3.806291,1.81986 7.153839,4.92265 11.231256,10.410065 3.889037,5.2339 6.825687,10.11378 14.794066,24.58357 4.284446,7.78013 4.891136,9.02344 4.563148,9.35143 -0.327989,0.32799 -0.791644,-0.37254 -3.487336,-5.26898 z m 123.957678,1.29804 c -5.54747,-10.14614 -7.51157,-13.60757 -8.06955,-14.22135 -0.33072,-0.3638 -1.75757,-2.56646 -3.17079,-4.89479 -5.46571,-9.00506 -10.12555,-14.755485 -14.22891,-17.559045 -2.62748,-1.79519 -4.61292,-2.5207 -7.20448,-2.63266 -2.91244,-0.12582 -4.86022,0.44793 -7.65226,2.2541 -6.21979,4.02356 -11.97038,12.083335 -23.0394,32.291035 -3.41453,6.23359 -4.57758,8.14676 -4.82865,7.94296 -0.1819,-0.14767 -0.33073,-0.36446 -0.33073,-0.48176 0,-0.21594 7.10033,-13.21499 10.16705,-18.61351 7.53138,-13.25792 13.46305,-20.716275 19.0274,-23.924705 3.76414,-2.17041 8.4907,-2.17041 12.25484,0 4.89657,2.82338 9.8803,8.710055 16.08882,19.003785 1.27265,2.11006 2.59032,4.13412 2.92817,4.49792 0.33785,0.3638 2.83592,4.70958 5.55127,9.65729 2.71536,4.94771 5.11015,9.26709 5.32176,9.59862 0.40706,0.63771 0.29088,1.11701 -0.27074,1.11701 -0.18573,0 -1.33044,-1.81571 -2.5438,-4.0349 z"
       id="path1366" /><path
       style="fill:#f23c66;stroke-width:0.264583"
       d="m 2.1668437,138.42522 c 0.07679,-1.05028 0.135123,-1.12153 1.0774801,-1.31603 3.354246,-0.6923 6.8429332,-4.2912 11.6190872,-11.98615 1.083874,-1.74625 2.964711,-4.78234 4.179639,-6.74688 3.097671,-5.00891 5.121903,-7.77229 7.27632,-9.93326 4.388678,-4.40203 8.307192,-4.38284 12.728612,0.0623 2.362507,2.3752 4.05605,4.76558 8.593628,12.1296 4.875289,7.9121 6.565947,10.3477 8.919183,12.8492 4.327509,4.60017 8.156141,4.97618 12.36226,1.21411 2.321872,-2.07675 4.884981,-5.58061 9.173803,-12.54093 5.112625,-8.29727 7.190753,-11.27122 9.479298,-13.56558 2.231665,-2.23734 3.97519,-3.22546 5.98546,-3.39216 1.766507,-0.1465 3.029806,0.27895 5.032046,1.69467 2.77088,1.95919 5.15621,5.11466 10.67973,14.12786 4.31445,7.04024 6.42511,10.07491 8.65846,12.44897 4.67122,4.96554 8.63657,5.05599 13.27993,0.30292 2.53497,-2.59488 4.14445,-4.86263 8.69508,-12.25139 6.75775,-10.97239 9.01334,-13.78956 12.51321,-15.62861 1.68147,-0.88356 4.37665,-0.86318 6.19672,0.0469 3.12217,1.56108 6.64221,6.10814 13.75238,17.76478 2.96325,4.85802 6.18387,9.28423 7.24081,9.95124 0.38645,0.24388 1.21267,0.88288 1.83602,1.42 2.60954,2.2485 5.31956,2.74269 8.0886,1.47498 3.15996,-1.44668 6.22354,-5.24936 12.5544,-15.58327 3.47277,-5.66863 5.71074,-9.07565 6.13292,-9.33657 0.16289,-0.10067 0.26882,0.20652 0.26882,0.77957 0,0.71279 -0.31872,1.38455 -1.29415,2.72759 -0.71179,0.98004 -2.75349,4.16314 -4.53713,7.07355 -5.82808,9.50997 -7.98106,12.50108 -10.62255,14.75777 -3.76103,3.21314 -6.77204,3.24882 -10.797,0.12794 -3.25165,-2.52125 -5.35321,-5.34301 -11.49253,-15.43089 -5.1245,-8.4204 -8.12522,-12.01997 -11.3393,-13.60226 -1.5826,-0.77911 -1.94876,-0.85932 -3.34499,-0.73271 -4.22008,0.38266 -7.5172,3.86775 -14.5782,15.40932 -6.31595,10.32373 -9.25117,14.02841 -12.47702,15.74777 -5.09863,2.71754 -9.46755,-0.39383 -16.53988,-11.77902 -1.17514,-1.89177 -3.16131,-5.08464 -4.41371,-7.09526 -5.34586,-8.58234 -8.79065,-11.93584 -12.617136,-12.28281 -1.396227,-0.12661 -1.7624,-0.0464 -3.344989,0.73271 -3.194741,1.57276 -6.280103,5.26206 -11.241633,13.44208 -8.411054,13.86721 -12.100809,17.86443 -16.483743,17.85732 -4.010742,-0.007 -7.577151,-3.46003 -13.61408,-13.18321 -1.355265,-2.18281 -3.350578,-5.38916 -4.434028,-7.12521 -5.008377,-8.02512 -8.522684,-11.38436 -12.264861,-11.72369 -1.396228,-0.12661 -1.7624,-0.0464 -3.34499,0.73271 -3.19474,1.57276 -6.280101,5.26206 -11.241633,13.44208 -7.796647,12.85424 -11.4746882,17.09077 -15.5065932,17.86118 l -0.8749321,0.16718 z M 204.12511,103.03034 c -133.813403,-8.293765 -66.9067,-4.146883 0,0 z"
       id="path1364"
       sodipodi:nodetypes="ssscscsssssssssssscsscssssscsssssssssssscscscsscscc" /></g></svg>
