<?xml version="1.0" encoding="UTF-8" standalone="no"?>
<!-- Created with Inkscape (http://www.inkscape.org/) -->

<svg
   width="177.19005mm"
   height="144.63795mm"
   viewBox="0 0 177.19005 144.63795"
   version="1.1"
   id="svg5"
   xml:space="preserve"
   inkscape:version="1.2.2 (b0a8486541, 2022-12-01)"
   sodipodi:docname="crack.svg"
   xmlns:inkscape="http://www.inkscape.org/namespaces/inkscape"
   xmlns:sodipodi="http://sodipodi.sourceforge.net/DTD/sodipodi-0.dtd"
   xmlns="http://www.w3.org/2000/svg"
   xmlns:svg="http://www.w3.org/2000/svg"><sodipodi:namedview
     id="namedview7"
     pagecolor="#ffffff"
     bordercolor="#666666"
     borderopacity="1.0"
     inkscape:showpageshadow="2"
     inkscape:pageopacity="0.0"
     inkscape:pagecheckerboard="0"
     inkscape:deskcolor="#d1d1d1"
     inkscape:document-units="mm"
     showgrid="false"
     inkscape:zoom="1.0973349"
     inkscape:cx="122.11404"
     inkscape:cy="226.91341"
     inkscape:window-width="1911"
     inkscape:window-height="1043"
     inkscape:window-x="1924"
     inkscape:window-y="16"
     inkscape:window-maximized="1"
     inkscape:current-layer="layer1" /><defs
     id="defs2" /><g
     inkscape:label="Layer 1"
     inkscape:groupmode="layer"
     id="layer1"
     transform="translate(-29.002106,-5.4289502)"><path
       style="fill:#ffffff;stroke-width:0.352207"
       d="m 206.19216,23.581772 c 0,-0.95731 -0.15216,-1.84259 -0.33815,-1.96729 -0.18598,-0.1247 -0.33814,-0.84577 -0.33814,-1.60237 0,-0.75659 -0.20121,-1.67415 -0.44713,-2.03902 -0.38353,-0.56902 -0.4264,-0.3311 -0.30138,1.67242 0.0802,1.2847 0.28137,2.49265 0.44713,2.68432 0.16576,0.19168 0.30138,0.78276 0.30138,1.31352 0,0.53075 -0.36843,1.75452 -0.81874,2.71949 -0.4503,0.96496 -1.23961,2.23106 -1.75401,2.81354 -0.5144,0.5825 -1.27823,1.05908 -1.69742,1.05908 -0.41918,0 -0.85619,0.16508 -0.97113,0.36685 -0.11495,0.20177 -1.61516,0.36685 -3.33382,0.36685 -1.82962,0 -3.27964,0.16796 -3.49834,0.40522 -0.27259,0.29573 -0.90761,0.0893 -2.35013,-0.76391 -1.08714,-0.64302 -2.12117,-1.32062 -2.29785,-1.50577 -0.17669,-0.18515 -0.66225,-0.33664 -1.07903,-0.33664 -0.41678,0 -0.85183,-0.16508 -0.96677,-0.36685 -0.11494,-0.20177 -1.02795,-0.36685 -2.02889,-0.36685 -1.00095,0 -1.91395,0.16508 -2.02889,0.36685 -0.11495,0.20177 -1.03693,0.36685 -2.04885,0.36685 -1.01192,0 -1.83986,-0.16508 -1.83986,-0.36685 0,-0.20177 -0.2171,-0.36685 -0.48246,-0.36685 -0.26535,0 -0.72185,-0.52061 -1.01444,-1.15692 -0.29259,-0.6363 -0.53199,-1.39211 -0.53199,-1.67958 0,-0.28748 -0.57912,-1.1288 -1.28694,-1.86961 -0.70782,-0.74081 -1.56647,-1.92471 -1.9081,-2.6309 -0.34164,-0.70619 -0.7516,-1.57287 -0.91103,-1.92596 -0.15942,-0.3531 -0.42427,-0.93089 -0.58856,-1.28398 -0.16428,-0.35309 -0.50665,-1.13724 -0.76083,-1.74254 -0.25418,-0.6053 -0.76619,-1.34817 -1.1378,-1.65083 -0.37162,-0.30265 -1.04431,-0.76146 -1.49487,-1.01957 -0.56166,-0.32177 -0.92861,-0.3506 -1.16724,-0.0917 -0.19143,0.20767 -0.98505,0.37759 -1.76361,0.37759 -1.41556,0 -1.41556,0 -1.33812,-3.05995 0.0426,-1.6829804 0.17794,-3.2363604 0.30077,-3.4519804 0.12283,-0.21561 0.13623,-0.63826 0.0298,-0.93922 -0.10645,-0.30096 -0.39592,-0.51497 -0.64328,-0.47559 -0.24735,0.0394 -0.69333,0.29094 -0.99106,0.55902 -0.29774,0.26807 -0.54134,1.03523 -0.54134,1.70481 0,0.66957 -0.15216,1.31943 -0.33815,1.44413 -0.18598,0.1247 -0.33814,0.61603 -0.33814,1.0918604 0,0.68173 -0.30898,0.99315 -1.45744,1.46898 -0.80159,0.33211 -1.60047,0.56673 -1.77528,0.52137 -0.17481,-0.0453 -0.69826,0.0912 -1.16321,0.30348 -0.46496,0.21227 -1.18775,0.89258 -1.60621,1.51179 -0.68234,1.00969 -0.7611,1.55314 -0.76347,5.26776 -0.003,4.13736 -0.004,4.14243 -0.91279,4.60048 -0.50058,0.25221 -1.79281,0.45857 -2.87162,0.45857 -1.08222,0 -1.96148,0.16444 -1.96148,0.36685 0,0.20176 -0.30433,0.36685 -0.67629,0.36685 -0.37197,0 -0.69948,0.20635 -0.7278,0.45856 -0.0283,0.25221 -0.072,0.62365 -0.097,0.82541 -0.0251,0.20177 -0.19208,0.61448 -0.37118,0.91713 -0.1791,0.30265 -0.66595,0.75663 -1.08189,1.00884 -0.41593,0.25221 -1.35799,0.45856 -2.09347,0.45856 -0.73547,0 -1.43127,-0.16508 -1.54621,-0.36685 -0.11494,-0.20177 -0.47855,-0.36685 -0.80802,-0.36685 -0.32947,0 -1.32938,-0.40114 -2.22203,-0.89141 -0.89265,-0.49028 -2.34863,-1.64586 -3.23551,-2.56795 -1.35811,-1.41205 -1.82302,-1.67655 -2.94691,-1.67655 -0.86329,0 -1.53196,0.23685 -1.89402,0.67088 -0.3078,0.36898 -0.55963,0.84497 -0.55963,1.05776 0,0.21279 -0.29248,0.46987 -0.64996,0.57129 -0.42717,0.12119 -0.97774,-0.18726 -1.60621,-0.89983 -0.52593,-0.59632 -1.45078,-1.33918 -2.05523,-1.65081 -0.99613,-0.51356 -1.20183,-0.5113 -2.19796,0.0241 -0.60444,0.32491 -1.44136,0.9067 -1.85982,1.29287 -0.41846,0.38617 -0.76083,0.98519 -0.76083,1.33116 0,0.50706 -0.21311,0.5894 -1.09898,0.42459 -0.60444,-0.11245 -0.90878,-0.11933 -0.6763,-0.0153 0.23248,0.10405 0.4215,0.46431 0.42005,0.80059 -0.001,0.33628 -0.41221,0.81777 -0.91279,1.06998 -0.50058,0.25221 -1.08414,0.45856 -1.29679,0.45856 -0.21266,0 -0.74777,0.76174 -1.18914,1.69275 -0.44137,0.93101 -1.03592,1.78682 -1.32122,1.9018 -0.2853,0.11499 -0.70318,0.48656 -0.92863,0.82571 -0.22544,0.33915 -1.44278,1.1485 -2.70518,1.79854 -1.26241,0.65005 -2.55952,1.33265 -2.88246,1.51691 -0.32295,0.18425 -0.66532,0.335 -0.76084,0.335 -0.0955,0 -0.17423,-0.20635 -0.17492,-0.45856 -6.8e-4,-0.25221 -0.32839,-1.03636 -0.72822,-1.74254 -0.39982,-0.70619 -0.78889,-1.08887 -0.86461,-0.8504 -0.0757,0.23847 0.25199,1.22766 0.72822,2.19819 0.47623,0.97053 0.86587,2.30467 0.86587,2.96476 0,0.66009 -0.17592,1.56935 -0.39094,2.02059 -0.21502,0.45124 -0.51935,1.10709 -0.6763,1.45745 -0.15694,0.35036 -0.28535,0.95967 -0.28535,1.35404 0,0.39436 -0.15217,0.81905 -0.33815,0.94375 -0.18598,0.1247 -0.33815,0.78503 -0.33815,1.4674 0,0.682366 -0.15217,1.342706 -0.33815,1.467396 -0.18598,0.1247 -0.33815,0.51474 -0.33815,0.86675 0,0.35201 -0.38115,1.46983 -0.84701,2.48403 -0.46586,1.0142 -1.22669,2.23097 -1.69074,2.70393 -0.46405,0.47296 -0.84373,1.05318 -0.84373,1.28939 0,0.23621 -0.30433,0.72827 -0.6763,1.09346 -0.37196,0.3652 -0.67629,0.88603 -0.67629,1.15741 0,0.27138 -0.22825,0.49342 -0.50723,0.49342 -0.27897,0 -0.50722,-0.3048 -0.50722,-0.67734 0,-0.37254 -0.239394,-1.19795 -0.531994,-1.83425 -0.31976,-0.69532 -0.7908,-1.15689 -1.18067,-1.15689 -0.35676,0 -0.83872,0.33017 -1.07102,0.7337 -0.23229,0.40354 -0.60313,0.7337 -0.82408,0.7337 -0.22095,0 -0.64809,0.26728 -0.94921,0.59395 -0.30111,0.32667 -0.65412,0.47826 -0.78446,0.33686 -0.13033,-0.1414 -0.009,-0.45055 0.26972,-0.68699 0.27868,-0.23644 0.54164,-0.62559 0.58436,-0.86478 0.0427,-0.23918 -0.19007,-0.52707 -0.51731,-0.63974 -0.32723,-0.11268 -0.7641,-0.69096 -0.97081,-1.28508 -0.2067,-0.59412 -0.29989,-1.1626 -0.20707,-1.2633 0.0928,-0.1007 0.45669,0.012 0.80861,0.25041 0.35191,0.23843 0.63984,0.61584 0.63984,0.83868 0,0.22285 0.2768,0.67695 0.61513,1.00911 0.51856,0.50913 0.75701,0.53246 1.51903,0.14857 0.49714,-0.25045 0.90508,-0.56152 0.90653,-0.69125 10e-4,-0.12974 -0.22561,-0.33091 -0.50458,-0.44705 -0.27897,-0.11614 -0.50722,-0.60347 -0.50722,-1.08295 0,-0.47948 -0.2983,-1.16464 -0.66288,-1.52259 -0.36458,-0.35795 -0.63087,-0.83448 -0.59176,-1.05896 0.0391,-0.22448 -0.53755,-0.72849 -1.28148,-1.12003 -0.74392,-0.39154 -1.47428,-0.93109 -1.623,-1.199 -0.14873,-0.26792 -0.50885,-0.487116 -0.80026,-0.487116 -0.37747,0 -0.48506,0.254116 -0.37414,0.883636 0.11623,0.65963 0.0318,0.83207 -0.33285,0.68024 -0.26871,-0.11186 -0.6171,0.0222 -0.77419,0.29801 -0.1571,0.27577 -0.39886,0.37856 -0.53723,0.22844 -0.13838,-0.15012 0.0816,-0.52614 0.48883,-0.83559 0.40724,-0.30945 0.74043,-0.68681 0.74043,-0.83857 0,-0.15177 -0.19021,-0.551156 -0.42268,-0.887546 -2.76734,-1.541018 -6.8458,-1.477688 -9.46509,-0.79704 -1.35006,0.35557 -2.56644,0.82769 -2.70308,1.04917 -0.13664,0.22147 -0.26593,0.980466 -0.28732,1.686656 -0.0286,0.94406 -0.0971,1.08824 -0.25878,0.54459 -0.12095,-0.40667 -0.44816,-0.72617 -0.72713,-0.71002 -0.27897,0.0161 -0.93066,-0.19467 -1.44819,-0.4685 -0.51753,-0.27383 -0.86444,-0.6322 -0.77092,-0.796366 0.0935,-0.16417 0.24833,-0.97438 0.344,-1.80047 0.0957,-0.82608 0.0241,-1.60243 -0.15899,-1.72521 -0.18312,-0.12277 -0.33294,-0.38211 -0.33294,-0.5763 0,-0.19418 0.35527,-0.52867 0.78948,-0.7433 0.43422,-0.21464 1.03363,-0.83864 1.33203,-1.38666 0.2984,-0.54803 0.59517,-1.42271 0.65949,-1.94374 0.0643,-0.52103 0.59007,-1.37923 1.16836,-1.90713 0.57828,-0.52789 1.23594,-0.95981 1.46147,-0.95981 0.22552,0 0.33702,0.20636 0.24776,0.45857 1.75693,1.392256 2.79373,-0.320803 2.79512,-1.59965 0,-1.27091 0.17415,-1.95514 0.59176,-2.32501 0.32547,-0.28827 1.24719,-1.10692 2.04826,-1.81922 0.80108,-0.71231 2.01841,-1.46442 2.70519,-1.67136 0.68678,-0.20693 1.60856,-0.37716 2.04841,-0.37829 0.77233,-0.002 0.78101,0.0289 0.25361,0.90218 -0.30036,0.49732 -0.54611,1.48781 -0.54611,2.2011 0,0.71328 -0.15217,1.29688 -0.33815,1.29688 -0.18598,0 -0.33815,-0.19259 -0.33815,-0.42799 0,-0.23539 -0.0949,-0.32506 -0.21085,-0.19925 -0.11596,0.12581 -0.12527,0.47068 -0.0207,0.76637 0.11815,0.33402 0.45412,0.46273 0.88715,0.33989 0.45542,-0.12921 0.69698,-0.4977 0.69698,-1.06321 0,-0.47601 0.28701,-1.37749 0.6378,-2.00327 0.35079,-0.62579 0.56129,-1.45519 0.46778,-1.84312 -0.0935,-0.38793 -0.38051,-0.70532 -0.63779,-0.70532 -0.25728,0 -0.46778,-0.16509 -0.46778,-0.36685 0,-0.20177 -0.28167,-0.36685 -0.62593,-0.36685 -0.34427,0 -1.32441,0.4029 -2.17809,0.89533 -0.85368,0.49244 -2.43605,1.67387 -3.51638,2.6254 -1.40858,1.24065 -2.01763,2.05109 -2.15297,2.86488 -0.10381,0.62415 -0.0604,1.42371 0.0964,1.77681 0.20743,0.46697 0.14365,0.64198 -0.23395,0.64198 -0.28552,0 -0.51912,-0.1328 -0.51912,-0.29512 0,-0.16232 -0.60154,-0.33364 -1.33675,-0.3807 -0.73521,-0.0471 -1.67929,0.12702 -2.09796,0.38684 -0.41868,0.25983 -1.02941,0.80257 -1.3572,1.20611 -0.32778,0.40354 -0.60103,1.27179 -0.60722,1.92945 -0.009,0.97296 -0.26087,1.38307 -1.35101,2.2011 -0.73687,0.55295 -1.34553,1.15224 -1.35259,1.33176 -0.007,0.17953 -0.27913,0.54571 -0.60459,0.81375 -0.32547,0.26804 -0.70589,0.49259 -0.84538,0.49901 -0.13948,0.006 -0.25361,-0.23088 -0.25361,-0.52732 0,-0.29644 -0.32009,-1.20522 -0.71132,-2.01951 -0.39122,-0.81429 -0.86394,-1.58286 -1.05048,-1.70793 -0.18654,-0.12508 -0.95044,-0.008 -1.69755,0.25895 -0.74711,0.26749 -1.9186,1.08809 -2.60332,1.82354 -0.79165,0.8503 -1.56113,2.25938 -2.11334,3.86995 -0.86839,2.532756 -0.86839,2.532756 -0.11843,3.633306 0.41248,0.6053 0.84953,1.34818 0.97123,1.65083 0.1217,0.30265 0.13567,-0.23664 0.031,-1.19842 -0.16277,-1.49627 -0.0407,-2.03226 0.84578,-3.713156 0.56981,-1.08046 1.03602,-2.20449 1.03602,-2.49785 0,-0.29336 0.34237,-0.85106 0.76083,-1.23932 0.41846,-0.38827 1.09019,-0.90487 1.49274,-1.14801 0.63698,-0.38473 0.80144,-0.32693 1.26806,0.44566 0.29488,0.48825 0.53615,1.05862 0.53615,1.26748 0,0.20887 -0.15217,0.37976 -0.33815,0.37976 -0.18598,0 -0.33815,0.36172 -0.33815,0.80382 0,0.76529 0.0219,0.7713 0.45717,0.12553 0.43018,-0.63823 0.47086,-0.61916 0.6888,0.3229 0.20314,0.8781 0.35085,0.97279 1.20138,0.77012 0.5522,-0.13158 1.06501,-0.0639 1.19098,0.15725 0.12167,0.21358 0.35382,0.38833 0.51589,0.38833 0.16207,0 0.36062,-0.37143 0.44122,-0.82541 0.12469,-0.7023 0.15341,-0.67377 0.19259,0.19129 0.0254,0.55977 -0.36071,1.68354 -0.85903,2.500466 -0.88792,1.45561 -0.89386,1.50439 -0.31308,2.57103 0.44508,0.81741 0.63987,2.25467 0.78484,5.79098 0.13685,3.33827 0.0805,4.77905 -0.19415,4.96319 -0.25901,0.17367 -0.38697,1.86574 -0.38697,5.11693 1.23548,36.177292 0.92151,49.445832 1.01447,0.76402 0,-3.04266 0.12949,-4.93083 0.33815,-4.93083 0.20854,0 0.33815,-1.87661 0.33815,-4.89612 0,-3.70543 0.12855,-5.17569 0.52863,-6.04574 0.29075,-0.63229 0.67117,-1.24518 0.84537,-1.36199 0.17421,-0.1168 0.31674,0.12754 0.31674,0.54299 0,0.4828 0.21962,0.75535 0.60867,0.75535 0.33476,0 0.77371,0.17906 0.97544,0.39791 0.20173,0.21885 0.7267,0.34266 1.16661,0.27513 0.54368,-0.0834 0.83639,-0.4032 0.91396,-0.99841 0.0628,-0.4816 -0.0133,-0.97684 -0.16907,-1.10055 -0.15576,-0.1237 -0.48395,-0.61242 -0.72932,-1.08605 -0.24536,-0.47362 -0.35615,-0.95873 -0.2462,-1.078006 0.10995,-0.11929 2.08583,-0.22702 4.39084,-0.23942 2.30501,-0.0124 4.30989,0.10636 4.45528,0.26389 0.1454,0.157536 0.004,0.765346 -0.31513,1.350696 -0.56254,1.03313 -0.55734,1.08112 0.17755,1.63954 0.41637,0.3164 0.60906,0.59172 0.42819,0.61184 -0.18086,0.0201 0.0516,0.16874 0.51652,0.33028 0.81102,0.28178 0.81446,0.2952 0.0845,0.33028 -0.41846,0.0201 -0.76083,0.20165 -0.76083,0.40342 0,0.20177 0.52781,0.36685 1.17291,0.36685 0.87532,0 1.12607,0.13241 0.9883,0.52191 -0.10154,0.28705 0.11647,0.84854 0.48445,1.24776 0.36798,0.39922 0.76973,1.11358 0.89277,1.58748 0.12304,0.4739 0.39779,1.27433 0.61056,1.77875 0.21276,0.50442 0.6072,1.20602 0.87652,1.55912 0.41148,0.53946 1.07669,0.64199 4.16528,0.64199 3.569864,0 3.684474,-0.0254 3.984514,-0.88149 0.16991,-0.48482 0.48114,-0.99696 0.69162,-1.1381 0.21049,-0.14112 0.48833,-0.56635 0.61742,-0.94493 0.20663,-0.60598 0.33527,-0.63205 1.07528,-0.2179 0.46232,0.25873 1.12839,0.58915 1.48017,0.73427 0.55946,0.23079 0.58239,0.18907 0.18297,-0.33305 -0.25114,-0.32829 -0.80234,-0.73949 -1.22489,-0.91378 -0.50045,-0.20642 -0.69897,-0.51281 -0.56948,-0.87891 0.10934,-0.30911 0.33468,-0.56202 0.50076,-0.56202 0.16609,0 0.30197,-0.33016 0.30197,-0.7337 0,-0.40354 0.15217,-0.7337 0.33815,-0.7337 0.18598,0 0.33815,-0.33017 0.33815,-0.7337 0,-0.40354 0.15217,-0.7337 0.33815,-0.7337 0.18598,0 0.33815,-0.40296 0.33815,-0.89548 0,-0.49251 0.15216,-0.9975 0.33815,-1.1222 0.18598,-0.1247 0.33814,-0.78503 0.33814,-1.4674 0,-0.68237 0.15217,-1.342696 0.33815,-1.467396 0.18598,-0.1247 0.33815,-0.61995 0.33815,-1.10055 0,-0.48061 0.15217,-0.97585 0.33815,-1.10055 0.18598,-0.1247 0.33815,-0.61995 0.33815,-1.10055 0,-0.48061 0.15217,-0.97586 0.33815,-1.10056 0.18598,-0.1247 0.33815,-0.92684 0.33815,-1.78253 0,-0.85569 0.1826,-1.7539 0.40577,-1.99602 0.22318,-0.24213 0.74678,-0.44022 1.16357,-0.44022 0.41678,0 0.85183,-0.16509 0.96677,-0.36685 0.11494,-0.20177 0.56179,-0.36685 0.993,-0.36685 0.4312,0 0.98659,-0.26483 1.2342,-0.5885 0.24761,-0.32367 0.79882,-0.73229 1.22492,-0.90804 0.42611,-0.17576 0.77473,-0.57127 0.77473,-0.87891 0,-0.30765 0.22112,-0.55936 0.49136,-0.55936 0.27025,0 0.75902,-0.61906 1.08615,-1.37569 0.32714,-0.75663 0.75274,-1.54703 0.94578,-1.75645 0.19304,-0.20943 0.9216,-0.67115 1.61903,-1.02605 0.69743,-0.35491 1.26806,-0.88516 1.26806,-1.17835 0,-0.29318 0.23202,-0.53306 0.51559,-0.53306 0.28358,0 0.64653,-0.37144 0.80657,-0.82542 0.16003,-0.45397 0.57472,-1.09276 0.92153,-1.41953 0.34682,-0.32676 0.85728,-0.67013 1.13436,-0.76303 0.27708,-0.0929 0.79236,0.2291 1.14507,0.71554 0.39338,0.54256 0.87583,0.81792 1.24805,0.71232 0.35762,-0.10146 0.91829,0.1876 1.36545,0.70399 0.41728,0.48187 1.0365,0.87613 1.37604,0.87613 0.33954,0 0.61735,-0.16509 0.61735,-0.36685 0,-0.20177 0.30434,-0.36685 0.6763,-0.36685 0.38395,0 0.6763,-0.24457 0.6763,-0.56576 0,-0.31117 0.18228,-0.77746 0.40508,-1.03621 0.32951,-0.38268 0.56772,-0.38243 1.27686,10e-4 0.47949,0.2595 1.32433,0.98488 1.87742,1.61197 0.5531,0.62709 1.53822,1.39019 2.18916,1.69579 0.65094,0.30559 1.44775,0.70683 1.77069,0.89163 0.32295,0.18481 0.88459,0.33601 1.2481,0.33601 0.36351,0 0.75497,0.16509 0.86992,0.36685 0.11494,0.20177 1.34126,0.36685 2.72514,0.36685 1.45201,0 2.51616,-0.15515 2.51616,-0.36685 0,-0.20176 0.20467,-0.36685 0.45481,-0.36685 0.25015,0 0.70665,-0.30189 1.01445,-0.67087 0.3078,-0.36898 0.56082,-0.98804 0.56227,-1.37569 0.001,-0.40531 0.38939,-0.89967 0.91278,-1.16338 0.50059,-0.25221 1.69335,-0.45856 2.6506,-0.45856 0.95725,0 2.22033,-0.25971 2.80685,-0.57714 1.06639,-0.57725 1.06639,-0.57725 1.06639,-4.88864 0,-4.03232 0.0507,-4.36302 0.78263,-5.10904 0.43045,-0.4387 1.03013,-0.79764 1.33264,-0.79764 0.30251,0 0.64405,0.16508 0.759,0.36685 0.11494,0.20177 0.6665,0.36685 1.22569,0.36685 0.55921,0 1.32079,0.17654 1.6924,0.3923 0.48438,0.28123 0.8041,0.27669 1.12925,-0.0161 0.27324,-0.24602 1.50809,-0.36552 3.10624,-0.30059 2.37815,0.0966 2.68726,0.1932 2.98652,0.93318 0.18358,0.45398 0.44988,0.82542 0.59175,0.82542 0.14188,0 0.25796,0.24986 0.25796,0.55525 0,0.30539 0.19021,0.92445 0.42269,1.37569 0.23247,0.45124 0.51413,0.90298 0.6259,1.00386 0.11177,0.10088 0.28087,0.6374 0.37579,1.19226 0.11944,0.6982 0.0308,1.00884 -0.28775,1.00884 -0.25317,0 -0.46023,0.12381 -0.46009,0.27514 1.2e-4,0.15133 0.36765,0.29807 0.81671,0.32611 0.47702,0.0298 1.46103,0.75023 2.3668,1.73288 1.02344,1.11031 1.55032,1.99689 1.55032,2.6087 0,0.50973 0.15218,0.92678 0.33816,0.92678 0.18598,0 0.33815,0.33016 0.33815,0.7337 0,0.48913 0.22543,0.7337 0.6763,0.7337 0.37196,0 0.6763,0.16508 0.6763,0.36685 0,0.21559 1.17686,0.36685 2.8543,0.36685 1.56987,0 2.94835,-0.16508 3.06329,-0.36685 0.11494,-0.20177 0.6565,-0.36685 1.20348,-0.36685 0.54697,0 0.99449,0.16508 0.99449,0.36685 0,0.20177 0.23031,0.36685 0.51181,0.36685 0.28149,0 0.85049,0.20635 1.26444,0.45856 0.41395,0.25221 1.00036,0.74746 1.30313,1.10055 0.30278,0.3531 0.69252,0.64199 0.86611,0.64199 0.17358,0 0.72472,0.20635 1.22475,0.45856 0.85717,0.43235 0.90165,0.57774 0.77792,2.54294 -0.0722,1.14641 -0.21449,2.23053 -0.31626,2.40917 -0.10176,0.17864 0.0208,0.97404 0.2723,1.76755 0.25153,0.79352 0.52954,2.50627 0.61779,3.80611 0.0883,1.29984 -0.001,2.868126 -0.1992,3.485076 -0.19782,0.61695 -0.56012,1.33987 -0.80511,1.6065 -0.245,0.26662 -0.44546,0.63805 -0.44546,0.82541 0,0.18735 0.28075,0.34065 0.62389,0.34065 0.34314,0 0.90711,-0.33952 1.25326,-0.75448 0.46884,-0.56204 0.84879,-0.68919 1.48954,-0.49849 0.47309,0.1408 1.18204,0.23638 1.57543,0.21241 0.3934,-0.024 0.98761,0.28288 1.32047,0.68191 0.33286,0.39902 0.80457,0.7255 1.04825,0.7255 0.24367,0 0.96297,0.49524 1.59843,1.10055 0.63547,0.6053 1.43964,1.09731 1.78705,1.09336 0.44713,-0.005 -0.0407,-0.69536 -1.66973,-2.36284 -2.22091,-2.27327 -2.36905,-2.35928 -4.23632,-2.45968 -1.93493,-0.10403 -1.93493,-0.10403 -1.71853,-2.131076 0.11902,-1.11487 0.11468,-2.19213 -0.01,-2.39389 -0.12432,-0.20177 -0.257,-1.27481 -0.29484,-2.38453 -0.0378,-1.10972 0.0825,-2.2653 0.26754,-2.56795 0.29309,-0.47954 0.337,-0.47352 0.34151,0.0468 0.003,0.32838 0.23343,0.80257 0.5124,1.05375 0.42347,0.38128 0.50722,0.32952 0.50722,-0.31347 0,-0.42359 -0.35782,-1.02452 -0.79516,-1.3354 -0.70795,-0.50324 -0.77777,-0.77572 -0.63663,-2.48469 0.0872,-1.05571 0.2548,-2.03281 0.37247,-2.17134 0.11767,-0.13853 1.49003,-0.28735 3.04968,-0.33072 2.26059,-0.0629 3.15217,-0.26036 4.39593,-0.97375 0.85811,-0.4922 1.82311,-1.14978 2.14444,-1.46129 0.32133,-0.31151 0.96804,-1.40196 1.43713,-2.4232 0.55143,-1.2005 0.85289,-2.47201 0.85289,-3.59737 z m -128.868264,1.03757 c -0.0185,-0.8456 -0.13967,-1.95017 -0.26918,-2.45459 -0.19926,-0.7761 -0.27044,-0.81841 -0.4629,-0.27514 -0.12509,0.3531 -0.40165,0.64199 -0.61459,0.64199 -0.26571,0 -0.31741,-0.50456 -0.1648,-1.60859 0.16819,-1.21677 0.0706,-1.90327 -0.40067,-2.81844 -0.34265,-0.66542 -0.80327,-1.27504 -1.02359,-1.35471 -0.28661,-0.10364 -0.26098,0.2844 0.0901,1.36389 0.27091,0.83303 0.40027,1.9991 0.28882,2.60363 -0.11101,0.60219 -0.6504,1.50436 -1.19864,2.00483 -0.54824,0.50047 -1.26374,0.90994 -1.59001,0.90994 -0.32627,0 -0.79022,0.39936 -1.031,0.88745 -0.38484,0.78012 -0.34213,1.03526 0.35313,2.10939 0.435,0.67207 1.02475,1.42305 1.31055,1.66884 0.28581,0.24579 0.80033,0.45214 1.1434,0.45856 0.44938,0.008 0.22775,-0.34727 -0.79283,-1.27231 -0.77912,-0.70619 -1.29567,-1.28397 -1.14788,-1.28397 0.14778,0 0.0861,-0.1981 -0.13708,-0.44022 -0.22318,-0.24213 -0.40578,-0.55356 -0.40578,-0.69207 0,-0.13851 0.45279,-0.32394 1.00619,-0.41206 0.55341,-0.0881 1.08458,0.017 1.1804,0.23351 0.0958,0.21654 0.0893,0.0223 -0.0145,-0.4317 -0.10709,-0.46834 -0.0326,-0.82542 0.17219,-0.82542 0.19852,0 0.36327,0.20636 0.36612,0.45857 0.003,0.3057 0.11444,0.27513 0.33297,-0.0917 0.24874,-0.41757 0.32904,-0.26275 0.33297,0.64198 0.003,0.68268 0.18584,1.21083 0.42786,1.23571 0.23248,0.0239 0.53548,0.0244 0.67334,10e-4 0.13787,-0.0233 0.20004,0.45922 0.13818,1.07229 -0.0619,0.61306 -0.28878,1.30593 -0.50427,1.5397 -0.21548,0.23377 -0.39179,0.61641 -0.39179,0.8503 0,0.23389 -0.62159,1.19137 -1.38133,2.12773 -1.09756,1.35273 -1.60119,1.70212 -2.45157,1.70072 -0.74455,-0.001 -1.45065,-0.38081 -2.32026,-1.24734 -0.68751,-0.68508 -1.7071,-1.49297 -2.26575,-1.79531 -0.69159,-0.3743 -1.05528,-0.42102 -1.13965,-0.14642 -0.0856,0.27871 -0.20144,0.26723 -0.37486,-0.0372 -0.1381,-0.24246 -0.0809,-0.44053 0.12713,-0.44053 0.20793,0 0.27394,-0.18276 0.14668,-0.40615 -0.15325,-0.269 -0.005,-0.32814 0.43953,-0.17514 0.4136,0.14241 0.83933,0.0108 1.11009,-0.34309 0.33265,-0.43485 0.34423,-0.67712 0.0477,-0.99878 -0.2153,-0.23357 -0.39145,-0.80122 -0.39145,-1.26144 0,-0.58141 0.25212,-0.90542 0.82615,-1.06172 0.45439,-0.12372 0.98697,-0.11713 1.18352,0.0147 0.19655,0.13179 0.35737,0.0431 0.35737,-0.19719 0,-0.29671 -0.42716,-0.37465 -1.33182,-0.24301 -0.99601,0.14494 -1.46515,0.034 -1.86056,-0.44003 -0.2908,-0.3486 -0.46511,-0.70297 -0.38735,-0.78748 0.0778,-0.0845 -0.22625,-0.17746 -0.67556,-0.20656 -0.4965,-0.0322 -0.81694,0.14771 -0.81694,0.45856 0,0.28131 -0.34237,0.52974 -0.76083,0.55208 -0.41846,0.0223 -1.14125,0.008 -1.60621,-0.0315 -0.46495,-0.0397 -0.98992,-0.22305 -1.16661,-0.40746 -0.17668,-0.18442 -1.16576,-0.33639 -2.19796,-0.33771 -1.28583,-0.002 -2.18948,-0.22609 -2.87008,-0.71282 -0.54634,-0.39071 -1.11696,-0.62751 -1.26805,-0.52621 -0.15109,0.10131 -0.27375,0.0506 -0.27257,-0.11259 10e-4,-0.16324 0.49572,-0.6017 1.09898,-0.97436 0.60327,-0.37265 1.10042,-0.62028 1.10478,-0.55027 0.004,0.07 0.37544,-0.24415 0.8246,-0.69813 0.48142,-0.48658 1.24538,-0.82541 1.86105,-0.82541 0.68375,0 1.42073,-0.3729 2.13421,-1.07987 0.59939,-0.59395 1.0898,-1.18298 1.0898,-1.30898 0,-0.12599 -0.4519,0.12001 -1.00422,0.54668 -0.55232,0.42667 -1.09388,0.93316 -1.20347,1.12553 -0.10959,0.19237 -0.43481,0.34977 -0.7227,0.34977 -0.34441,0 -0.45127,-0.20405 -0.31244,-0.59656 0.19009,-0.53741 0.13501,-0.54293 -0.55558,-0.0556 -0.42162,0.29751 -1.28431,0.55563 -1.91708,0.57361 -0.63277,0.018 -1.26775,0.23852 -1.41106,0.49008 -0.16133,0.2832 -0.30777,-0.0224 -0.38452,-0.80246 -0.12395,-1.25986 -0.12395,-1.25986 -0.47725,0.0241 -0.24095,0.87565 -0.24307,1.36295 -0.007,1.53232 0.19065,0.1366 0.78825,7.4e-4 1.32798,-0.30219 0.53973,-0.30279 1.04959,-0.47647 1.13304,-0.38595 0.0834,0.0905 -0.49377,0.51106 -1.2827,0.93452 -1.27105,0.68225 -1.4972,0.70827 -1.98585,0.22851 -0.3033,-0.29778 -0.65323,-0.431 -0.77763,-0.29605 -0.12439,0.13495 -0.23818,0.58929 -0.25286,1.00964 -0.0147,0.42035 -0.10345,0.55792 -0.19726,0.30571 -0.0938,-0.25221 -0.30526,-0.45856 -0.46991,-0.45856 -0.16465,0 -0.2013,0.27722 -0.0814,0.61604 0.18765,0.53052 0.0974,0.51779 -0.65028,-0.0917 -0.57868,-0.47174 -0.73945,-0.79763 -0.48213,-0.97728 0.24649,-0.17207 0.17212,-0.27155 -0.2057,-0.27513 -0.32547,-0.003 -0.59176,0.14635 -0.59176,0.33208 0,0.18574 -0.41846,0.43615 -0.92991,0.55646 -0.51145,0.12032 -1.29915,0.29466 -1.75045,0.38742 -0.5625,0.11561 -0.71111,0.0499 -0.47257,-0.20887 0.19139,-0.20764 0.78889,-0.44002 1.32777,-0.51641 0.53888,-0.0764 1.09391,-0.15027 1.2334,-0.16417 0.13949,-0.0139 0.25361,-0.32567 0.25361,-0.69282 0,-0.36715 0.38042,-1.02639 0.84537,-1.46498 0.46496,-0.43859 0.84537,-0.98285 0.84537,-1.20947 0,-0.23953 0.34709,-0.34006 0.82901,-0.24012 0.57152,0.11853 1.18791,-0.14901 1.9845,-0.86137 0.63553,-0.56832 1.27595,-0.91533 1.42317,-0.77115 0.14723,0.14418 0.16625,0.0699 0.0423,-0.16508 -0.12396,-0.23497 -0.0342,-0.49702 0.1994,-0.58233 0.33046,-0.12065 0.31895,-0.29418 -0.0518,-0.78138 -0.42313,-0.55602 -0.33777,-0.78052 0.76084,-2.00109 0.68058,-0.75615 1.23743,-1.65674 1.23743,-2.0013304 0,-0.34458 -0.18297,-0.62652 -0.40659,-0.62652 -0.22362,0 -0.91498,0.53457 -1.53634,1.1879404 -0.62136,0.65337 -1.37634,1.18989 -1.67773,1.19227 -0.30139,0.002 -0.61886,0.23365 -0.70549,0.51395 -0.0957,0.30951 -0.007,0.40905 0.2245,0.25348 0.21011,-0.14088 0.37378,-0.12258 0.36372,0.0407 -0.0101,0.16324 -0.76926,0.83331 -1.6871,1.48906 -0.91785,0.65574 -1.93033,1.19226 -2.24995,1.19226 -0.31963,0 -1.13374,0.58539 -1.80913,1.30087 -1.0804,1.14453 -1.28013,1.23271 -1.66187,0.7337 -0.23863,-0.31194 -0.627,-0.56717 -0.86304,-0.56717 -0.23604,0 -0.53397,-0.45305 -0.66208,-1.00679 -0.1281,-0.55373 -0.39148,-1.21406 -0.58528,-1.4674 -0.1938,-0.25333 -0.8753,-0.46061 -1.51444,-0.46061 -0.68861,0 -1.07692,0.14946 -0.95309,0.36685 0.11495,0.20177 0.54999,0.36685 0.96678,0.36685 0.41678,0 0.94038,0.1981 1.16356,0.44022 0.22318,0.24212 0.40578,0.81991 0.40578,1.28397 0,0.46407 0.20466,0.84376 0.45481,0.84376 0.25015,0 0.73023,0.33017 1.06686,0.7337 0.33662,0.40354 0.76022,0.7337 0.94133,0.7337 0.18111,0 0.9188,-0.57779 1.63931,-1.28397 0.7205,-0.70619 1.59338,-1.28398 1.93973,-1.28398 0.34635,0 1.01662,-0.33017 1.48949,-0.7337 0.47288,-0.40354 0.97117,-0.7337 1.10731,-0.7337 0.13614,0 0.42448,-0.26253 0.64075,-0.5834 0.32721,-0.48548 0.4569,-0.50016 0.77261,-0.0875 0.29656,0.38766 0.0896,0.75984 -0.9477,1.70467 -0.7299,0.66479 -1.32709,1.03432 -1.32709,0.82116 0,-0.21316 -0.19021,-0.38742 -0.42268,-0.38724 -0.23248,1.8e-4 -0.98929,0.63398 -1.68179,1.40845 -0.81986,0.91689 -1.21341,1.66557 -1.12811,2.14607 0.0989,0.5569 -0.0485,0.73662 -0.60072,0.73252 -0.40243,-0.003 -1.09944,0.0216 -1.54889,0.0547 -0.44946,0.0331 -0.71707,0.16876 -0.5947,0.30152 0.12238,0.13276 0.0661,0.44588 -0.12515,0.69583 -0.1912,0.24994 -0.62861,0.37473 -0.97201,0.27731 -0.3434,-0.0974 -1.09864,0.0889 -1.67831,0.41414 -0.57967,0.3252 -1.05394,0.81568 -1.05394,1.08994 0,0.27427 0.36821,0.76041 0.81826,1.08032 0.72373,0.51446 0.77256,0.68852 0.42268,1.50673 -0.24581,0.57485 -0.67606,0.92616 -1.13645,0.92794 -0.40748,0.002 -0.84544,0.1864 -0.97324,0.41074 -0.14928,0.26205 -0.80577,0.32535 -1.83621,0.17706 -1.38888,-0.19989 -1.60347,-0.14392 -1.60106,0.41753 10e-4,0.3566 -0.0181,0.92458 -0.0436,1.2622 -0.0255,0.33761 -0.43767,1.11837 -0.91596,1.73503 -0.47828,0.61665 -0.78136,1.27608 -0.67351,1.46539 0.10785,0.18932 1.03705,0.33602 2.0649,0.326 1.02784,-0.01 1.93356,0.052 2.0127,0.13788 0.0791,0.0859 0.0565,0.51847 -0.0502,0.96137 -0.10676,0.4429 -0.33253,0.71245 -0.50172,0.59901 -0.16919,-0.11344 -0.75291,0.008 -1.29716,0.26895 -0.54426,0.26136 -1.17519,0.8515 -1.40208,1.31142 -0.22688,0.45993 -0.95732,1.19787 -1.62319,1.63987 -0.66587,0.442 -1.31719,0.81321 -1.44737,0.82491 -0.13019,0.0117 -0.42692,0.22764 -0.65939,0.47985 -0.23248,0.25221 -0.68761,0.45856 -1.0114,0.45856 -0.32379,0 -0.68275,0.16508 -0.7977,0.36685 -0.11494,0.20177 -0.6565,0.36685 -1.20347,0.36685 -0.54697,0 -0.99449,0.1536 -0.99449,0.34134 0,0.18773 0.34237,0.41287 0.76083,0.50032 0.76084,0.15898 0.76084,0.15898 0,0.20893 -0.4304,0.0283 -0.76083,0.28895 -0.76083,0.60024 0,0.35965 0.33188,0.55027 0.95809,0.55027 0.52694,0 1.06143,-0.11211 1.18774,-0.24915 0.12631,-0.13703 0.87447,-0.31301 1.66256,-0.39107 0.7881,-0.078 1.57747,-0.2961 1.75415,-0.48455 0.17668,-0.18844 1.78339,-0.34263 3.57047,-0.34263 2.33343,0 3.43422,-0.1518 3.90561,-0.53861 0.36101,-0.29623 0.88464,-0.54487 1.16361,-0.55253 0.27898,-0.008 0.94308,-0.26054 1.47579,-0.56194 0.5327,-0.30141 1.37723,-0.54802 1.87672,-0.54802 0.49949,0 1.05272,-0.14817 1.2294,-0.32927 0.17669,-0.18111 0.92991,-0.42239 1.67384,-0.5362 0.74393,-0.11381 1.96126,-0.31471 2.70519,-0.44643 0.74392,-0.13173 1.61888,-0.49382 1.94435,-0.80464 0.33662,-0.32147 0.59176,-1.08208 0.59176,-1.7641 0,-0.74504 -0.32142,-1.61338 -0.84896,-2.29354 -0.67788,-0.87399 -0.78719,-1.27083 -0.54245,-1.96919 0.16858,-0.48104 0.51257,-1.05266 0.76442,-1.27027 0.25185,-0.21761 0.9905,-0.49227 1.64143,-0.61036 0.8718,-0.15816 1.53053,0.001 2.501,0.60572 0.72462,0.45124 1.7137,1.39302 2.19797,2.09284 0.48427,0.69983 0.63823,1.06749 0.34215,0.81703 -0.29609,-0.25046 -0.63846,-0.34676 -0.76084,-0.214 -0.12237,0.13277 -0.22249,0.59907 -0.22249,1.03623 0,0.43716 0.10177,0.90526 0.22617,1.04021 0.12439,0.13495 0.46676,0.0122 0.76083,-0.27274 0.46784,-0.45335 0.6162,-0.39955 1.18705,0.43054 0.57627,0.83797 0.58464,0.92044 0.0717,0.70691 -0.3682,-0.15328 -0.65427,-0.0336 -0.78186,0.32712 -0.11066,0.31286 -0.0144,0.94755 0.21397,1.41044 0.33268,0.67438 0.32545,0.99747 -0.0364,1.62608 -0.36031,0.62593 -0.3678,0.93001 -0.037,1.5046 0.34002,0.59067 0.3304,0.68509 -0.0535,0.52527 -0.25744,-0.10718 -0.57672,-0.004 -0.70951,0.22896 -0.1328,0.2331 -0.0721,0.60754 0.13487,0.83208 0.20697,0.22454 0.37631,1.02906 0.37631,1.78782 0,0.75876 -0.19219,1.57434 -0.42709,1.8124 -0.25407,0.25748 -0.37554,1.01931 -0.29984,1.880506 0.07,0.79623 -0.0421,1.63148 -0.2492,1.85611 -0.20705,0.22463 -0.37646,0.77836 -0.37646,1.23052 0,0.45216 -0.15217,0.92413 -0.33815,1.04883 -0.18598,0.1247 -0.33815,0.60743 -0.33815,1.07273 0,0.4653 -0.30433,1.26574 -0.67629,1.77875 -0.37197,0.51301 -0.6763,1.34957 -0.6763,1.85901 0,0.59035 0.23483,1.00711 0.64754,1.14922 0.35615,0.12263 1.04621,0.11441 1.53347,-0.0183 0.48854,-0.13302 1.10816,-0.70744 1.38135,-1.28058 0.27248,-0.57163 0.49542,-1.23821 0.49542,-1.48127 0,-0.27064 -0.26212,-0.18458 -0.6763,0.22207 -0.37196,0.36519 -0.67629,0.86677 -0.67629,1.11462 0,0.24785 -0.2663,0.52556 -0.59176,0.61713 -0.32547,0.0916 -0.78197,0.0971 -1.01445,0.0122 -0.23248,-0.0849 -0.42268,-0.36257 -0.42268,-0.61714 0,-0.25456 0.30433,-0.76164 0.67629,-1.12683 0.37197,-0.3652 0.6763,-1.04137 0.6763,-1.50261 0,-0.46124 0.13809,-0.93121 0.30687,-1.04438 0.16878,-0.11316 0.56496,-1.15467 0.8804,-2.31446 0.31543,-1.15979 0.70992,-2.58732 0.87664,-3.17229 0.16672,-0.584966 0.30313,-1.850596 0.30313,-2.812516 0,-0.96191 0.11412,-1.80396 0.25361,-1.87122 0.13949,-0.0673 0.59599,-0.83949 1.01444,-1.71606 0.41846,-0.87658 0.76084,-2.17331 0.76084,-2.88161 0,-0.79169 -0.35824,-1.87361 -0.92991,-2.80842 -0.51145,-0.83633 -1.15089,-2.01585 -1.42099,-2.62115 -0.2701,-0.6053 -0.86919,-1.55453 -1.33132,-2.10939 -0.46213,-0.55486 -1.01644,-1.00884 -1.23179,-1.00884 -0.21535,0 -0.66697,-0.33016 -1.00359,-0.7337 -0.33662,-0.40353 -0.99611,-0.7337 -1.46553,-0.7337 -0.46942,0 -1.35884,0.19825 -1.97648,0.44055 -0.61765,0.2423 -1.12299,0.57246 -1.12299,0.7337 0,0.16123 -0.22435,0.29315 -0.49854,0.29315 -0.2742,0 -0.7307,0.48705 -1.01445,1.08233 -0.28375,0.59529 -0.5159,1.36879 -0.5159,1.7189 0,0.35011 0.27529,0.97737 0.61176,1.39391 0.33647,0.41654 0.78723,1.20542 1.00169,1.75308 0.29645,0.75702 0.29462,1.05964 -0.008,1.26231 -0.21866,0.14661 -1.08788,0.40771 -1.9316,0.58021 -0.84372,0.17251 -2.21878,0.46097 -3.0557,0.64102 -0.83692,0.18005 -1.97817,0.43253 -2.53611,0.56107 -0.55795,0.12853 -1.31878,0.36753 -1.69075,0.5311 -0.37196,0.16357 -1.36104,0.51 -2.19796,0.76985 -0.83692,0.25985 -1.66623,0.60883 -1.84291,0.77552 -0.17668,0.16668 -1.54618,0.28959 -3.04334,0.27314 -2.60137,-0.0286 -2.67533,-0.0522 -1.66764,-0.53162 0.57995,-0.27593 1.47481,-1.0466 1.98859,-1.71261 0.55397,-0.71811 1.3522,-1.28558 1.96137,-1.39435 0.71881,-0.12836 1.21519,-0.54934 1.65326,-1.40216 0.53649,-1.04439 0.56427,-1.35925 0.19419,-2.2011 -0.33642,-0.7653 -0.71179,-1.00755 -1.6988,-1.09631 -1.1875,-0.1068 -1.25334,-0.17582 -1.04983,-1.10055 0.11942,-0.54264 0.29129,-1.12821 0.38192,-1.30127 0.0906,-0.17306 0.7582,-0.21171 1.48347,-0.0859 1.00529,0.1744 1.36543,0.0966 1.51538,-0.32733 0.10818,-0.30585 0.57213,-0.55609 1.031,-0.55609 0.65289,0 0.95752,-0.31828 1.40095,-1.46367 0.44778,-1.15662 0.74399,-1.46239 1.41202,-1.45754 0.8342,0.006 0.83043,0.0196 -0.2851,1.02355 -0.95138,0.85622 -1.05361,1.08662 -0.64525,1.45429 0.31957,0.28773 1.62908,0.40668 3.83566,0.34841 3.35044,-0.0885 3.35044,-0.0885 3.45762,-1.0994 0.0699,-0.65925 -0.0771,-1.08765 -0.42268,-1.2315 -0.29143,-0.12133 -0.52987,-0.33943 -0.52987,-0.48466 0,-0.14524 0.46888,-0.18941 1.04195,-0.0982 0.57308,0.0912 1.41307,-0.0496 1.86665,-0.31292 0.63358,-0.36786 0.91715,-0.37853 1.22364,-0.046 0.22206,0.24091 1.34349,0.43281 2.52928,0.43281 1.19479,0 2.13034,0.1611 2.13034,0.36685 0,0.20177 0.23031,0.36685 0.51181,0.36685 0.28149,0 0.81408,0.20479 1.18352,0.4551 0.52365,0.35478 0.81441,0.3584 1.31917,0.0164 0.50301,-0.34081 0.71893,-0.34003 0.96781,0.003 0.1762,0.24317 0.41331,0.86576 0.52691,1.38353 0.12708,0.57923 0.007,1.25029 -0.31184,1.74431 -0.30593,0.47384 -0.47541,1.36599 -0.41353,2.17683 0.0962,1.26015 0.19768,1.38358 1.22592,1.49066 0.61659,0.0642 1.34357,-0.0836 1.61551,-0.32843 0.40157,-0.36156 0.74299,-0.22846 1.8179,0.70867 1.07628,0.93835 1.63013,1.15384 2.96541,1.15384 1.46128,0 1.77232,-0.15137 2.82683,-1.37568 0.65169,-0.75663 1.38507,-1.87094 1.62975,-2.47624 0.24467,-0.60531 0.57927,-1.38721 0.74355,-1.73757 0.16428,-0.35035 0.2987,-0.95967 0.2987,-1.35403 0,-0.39437 0.15217,-0.81906 0.33815,-0.94376 0.18598,-0.1247 0.32298,-0.91858 0.30444,-1.76419 z"
       id="path860"
       sodipodi:nodetypes="cssscssssssssssssssssssssssssssssssccssssscssccsssscssssssssssssscsssscsssssssssssssssssssssssssssssssssssssssssscsssssssssssssccssscssssssssssccsssssssssssssssssssscsscsscscscssscsssscsssssssssssssscssssccssssssscsssssscsssssssssssssssssssssssssssssssssssssssssssssssssssssssssscssssssssscsscscssssscssssssscsssssssssssssssscscccssssscsssccssccccssssscssscccssssssssssssscsssssssscsssccssscssssssccsssssssscsccscsscscsssssssssssssccssssssscsscsssssssssssssssssssccccssssssssssssssssssssssssssssssssssscsscssssccscssssssssssssscssscssssssssssscssssssssssssscssssssssssssssssssssssssssssssssssssssssscssssssssssssssssssscsssssssssssssscscsssssssssscc" /></g></svg>
