<?xml version="1.0" encoding="UTF-8" standalone="no"?>
<!-- Generator: Adobe Illustrator 24.1.0, SVG Export Plug-In . SVG Version: 6.00 Build 0)  -->

<svg
   version="1.1"
   id="Layer_1"
   x="0px"
   y="0px"
   viewBox="0 0 186.2082825 199.3822784"
   enable-background="new 0 0 186.2082825 199.3822784"
   xml:space="preserve"
   sodipodi:docname="FireWire_symbol.svg"
   inkscape:version="1.1 (c4e8f9ed74, 2021-05-24)"
   xmlns:inkscape="http://www.inkscape.org/namespaces/inkscape"
   xmlns:sodipodi="http://sodipodi.sourceforge.net/DTD/sodipodi-0.dtd"
   xmlns="http://www.w3.org/2000/svg"
   xmlns:svg="http://www.w3.org/2000/svg"><defs
   id="defs9"><filter
     style="color-interpolation-filters:sRGB;"
     inkscape:label="Invert"
     id="filter830"
     x="0"
     y="0"
     width="1"
     height="1"><feColorMatrix
       type="hueRotate"
       values="180"
       result="color1"
       id="feColorMatrix826" /><feColorMatrix
       values="-1 0 0 0 1 0 -1 0 0 1 0 0 -1 0 1 -0.21 -0.72 -0.07 2 0 "
       result="color2"
       id="feColorMatrix828" /></filter></defs><sodipodi:namedview
   id="namedview7"
   pagecolor="#ffffff"
   bordercolor="#666666"
   borderopacity="1.0"
   inkscape:pageshadow="2"
   inkscape:pageopacity="0.0"
   inkscape:pagecheckerboard="0"
   showgrid="false"
   inkscape:zoom="3.9020519"
   inkscape:cx="93.027978"
   inkscape:cy="99.819277"
   inkscape:window-width="1911"
   inkscape:window-height="1043"
   inkscape:window-x="1924"
   inkscape:window-y="16"
   inkscape:window-maximized="1"
   inkscape:current-layer="Layer_1" />
<g
   id="g4"
   style="filter:url(#filter830)">
	<path
   d="M11.922287,48.9532585L0,37.0309715l35.7792549-35.766861l11.922287,11.922287L11.922287,48.9532585z    M35.7792549,72.7978287l-11.922287-11.9222832l35.766861-35.766861l11.6620293,11.9222889L35.7792549,72.7978287z    M92.602211,132.1614075c-21.3163528,0-38.3074722-17.2513809-38.3074722-38.3074799S71.2858582,55.5464554,92.602211,55.5464554   c21.0437088,0,38.0472183,17.2513733,38.0472183,38.3074722S113.6459198,132.1614075,92.602211,132.1614075z    M67.2332687,165.8957672v-16.9911194h50.4776306v16.9911194H67.2332687z M67.2332687,199.3822784v-16.7432556h50.4776306   v16.7432556H67.2332687z M113.9061737,93.8539276c0-11.922287-9.6419296-21.3039627-21.3039627-21.3039627   c-11.9346771,0-21.5642166,9.3816757-21.5642166,21.3039627s9.6295395,21.3163528,21.5642166,21.3163528   C104.2642441,115.1702805,113.9061737,105.7762146,113.9061737,93.8539276z M147.1324158,70.5174789l-31.45401-31.2061539   L155.002121,0l31.2061615,31.4540176L147.1324158,70.5174789z"
   id="path2" />
</g>
</svg>
