<?xml version="1.0" encoding="UTF-8" standalone="no"?>
<!-- Created with Inkscape (http://www.inkscape.org/) -->

<svg
   width="412.4967mm"
   height="52.189556mm"
   viewBox="0 0 412.49671 52.189555"
   version="1.1"
   id="svg3262"
   inkscape:version="1.2.2 (b0a8486541, 2022-12-01)"
   sodipodi:docname="TODO.svg"
   xmlns:inkscape="http://www.inkscape.org/namespaces/inkscape"
   xmlns:sodipodi="http://sodipodi.sourceforge.net/DTD/sodipodi-0.dtd"
   xmlns="http://www.w3.org/2000/svg"
   xmlns:svg="http://www.w3.org/2000/svg">
  <sodipodi:namedview
     id="namedview3264"
     pagecolor="#ffffff"
     bordercolor="#666666"
     borderopacity="1.0"
     inkscape:showpageshadow="2"
     inkscape:pageopacity="0.0"
     inkscape:pagecheckerboard="0"
     inkscape:deskcolor="#d1d1d1"
     inkscape:document-units="mm"
     showgrid="false"
     inkscape:zoom="0.54866744"
     inkscape:cx="825.63674"
     inkscape:cy="296.17212"
     inkscape:window-width="1910"
     inkscape:window-height="1042"
     inkscape:window-x="1925"
     inkscape:window-y="17"
     inkscape:window-maximized="1"
     inkscape:current-layer="layer1" />
  <defs
     id="defs3259">
    <rect
       x="72.744606"
       y="328.96838"
       width="644.27002"
       height="326.40744"
       id="rect7080" />
  </defs>
  <g
     inkscape:label="Layer 1"
     inkscape:groupmode="layer"
     id="layer1"
     transform="translate(-59.561592,-97.988428)">
    <rect
       style="fill:#808080;fill-opacity:0.350816;stroke:#d10000;stroke-width:2.084;stroke-dasharray:12.504, 12.504;stroke-dashoffset:1.4588;stroke-opacity:0.99991"
       id="rect9364"
       width="77.136765"
       height="25.874489"
       x="60.603592"
       y="111.14595" />
    <g
       aria-label="TODO"
       transform="matrix(0.26458333,0,0,0.26458333,44.641852,22.922903)"
       id="text7078"
       style="font-size:96px;font-family:'ProFontIIx Nerd Font Mono';-inkscape-font-specification:'ProFontIIx Nerd Font Mono';white-space:pre;fill:#b90909;fill-opacity:1;stroke-width:1.00157;stroke-dasharray:4.0063, 2.00315">
      <path
         d="m 126.07747,355.67145 h -21.33333 v 64 H 94.077474 v -64 H 72.744141 v -10.66666 h 53.333329 z"
         id="path8569"
         style="fill:#b90909;fill-opacity:1" />
      <path
         d="m 197.2242,398.33812 q 0,8.85333 -6.29333,15.14667 -6.18667,6.18666 -15.04,6.18666 H 165.2242 q -8.85333,0 -15.14666,-6.18666 -6.18667,-6.29334 -6.18667,-15.14667 v -32 q 0,-8.85333 6.18667,-15.04 6.29333,-6.29333 15.14666,-6.29333 h 10.66667 q 8.85333,0 15.04,6.29333 6.29333,6.29333 6.29333,15.04 z m -10.66666,0 v -32 q 0,-4.37333 -3.2,-7.46667 -3.09334,-3.2 -7.46667,-3.2 H 165.2242 q -4.37333,0 -7.57333,3.2 -3.09333,3.09334 -3.09333,7.46667 v 32 q 0,4.37333 3.09333,7.57333 3.2,3.09334 7.57333,3.09334 h 10.66667 q 4.37333,0 7.46667,-3.09334 3.2,-3.2 3.2,-7.57333 z"
         id="path8571"
         style="fill:#b90909;fill-opacity:1" />
      <path
         d="m 268.37093,398.33812 q 0,8.85333 -6.29333,15.14667 -6.18667,6.18666 -15.04,6.18666 h -32 v -74.66666 h 32 q 8.85333,0 15.04,6.29333 6.29333,6.29333 6.29333,15.04 z m -10.66667,0 v -32 q 0,-4.37333 -3.2,-7.46667 -3.09333,-3.2 -7.46666,-3.2 h -21.33334 v 53.33334 h 21.33334 q 4.37333,0 7.46666,-3.09334 3.2,-3.2 3.2,-7.57333 z"
         id="path8573"
         style="fill:#b90909;fill-opacity:1" />
      <path
         d="m 339.51766,398.33812 q 0,8.85333 -6.29333,15.14667 -6.18667,6.18666 -15.04,6.18666 h -10.66667 q -8.85333,0 -15.14667,-6.18666 -6.18666,-6.29334 -6.18666,-15.14667 v -32 q 0,-8.85333 6.18666,-15.04 6.29334,-6.29333 15.14667,-6.29333 h 10.66667 q 8.85333,0 15.04,6.29333 6.29333,6.29333 6.29333,15.04 z m -10.66667,0 v -32 q 0,-4.37333 -3.2,-7.46667 -3.09333,-3.2 -7.46666,-3.2 h -10.66667 q -4.37333,0 -7.57333,3.2 -3.09334,3.09334 -3.09334,7.46667 v 32 q 0,4.37333 3.09334,7.57333 3.2,3.09334 7.57333,3.09334 h 10.66667 q 4.37333,0 7.46666,-3.09334 3.2,-3.2 3.2,-7.57333 z"
         id="path8575"
         style="fill:#b90909;fill-opacity:1" />
    </g>
    <rect
       style="fill:#808080;fill-opacity:0.350816;stroke:#d10000;stroke-width:2.084;stroke-dasharray:12.504, 12.504;stroke-dashoffset:1.4588;stroke-opacity:0.99991"
       id="rect9364-2"
       width="77.136765"
       height="25.874489"
       x="393.87952"
       y="111.14596" />
    <g
       aria-label="TODO"
       transform="matrix(0.26458333,0,0,0.26458333,377.91776,22.922904)"
       id="text7078-2"
       style="font-size:96px;font-family:'ProFontIIx Nerd Font Mono';-inkscape-font-specification:'ProFontIIx Nerd Font Mono';white-space:pre;fill:#b90909;fill-opacity:1;stroke-width:1.00157;stroke-dasharray:4.0063, 2.00315">
      <path
         d="m 126.07747,355.67145 h -21.33333 v 64 H 94.077474 v -64 H 72.744141 v -10.66666 h 53.333329 z"
         id="path8569-4"
         style="fill:#b90909;fill-opacity:1" />
      <path
         d="m 197.2242,398.33812 q 0,8.85333 -6.29333,15.14667 -6.18667,6.18666 -15.04,6.18666 H 165.2242 q -8.85333,0 -15.14666,-6.18666 -6.18667,-6.29334 -6.18667,-15.14667 v -32 q 0,-8.85333 6.18667,-15.04 6.29333,-6.29333 15.14666,-6.29333 h 10.66667 q 8.85333,0 15.04,6.29333 6.29333,6.29333 6.29333,15.04 z m -10.66666,0 v -32 q 0,-4.37333 -3.2,-7.46667 -3.09334,-3.2 -7.46667,-3.2 H 165.2242 q -4.37333,0 -7.57333,3.2 -3.09333,3.09334 -3.09333,7.46667 v 32 q 0,4.37333 3.09333,7.57333 3.2,3.09334 7.57333,3.09334 h 10.66667 q 4.37333,0 7.46667,-3.09334 3.2,-3.2 3.2,-7.57333 z"
         id="path8571-5"
         style="fill:#b90909;fill-opacity:1" />
      <path
         d="m 268.37093,398.33812 q 0,8.85333 -6.29333,15.14667 -6.18667,6.18666 -15.04,6.18666 h -32 v -74.66666 h 32 q 8.85333,0 15.04,6.29333 6.29333,6.29333 6.29333,15.04 z m -10.66667,0 v -32 q 0,-4.37333 -3.2,-7.46667 -3.09333,-3.2 -7.46666,-3.2 h -21.33334 v 53.33334 h 21.33334 q 4.37333,0 7.46666,-3.09334 3.2,-3.2 3.2,-7.57333 z"
         id="path8573-1"
         style="fill:#b90909;fill-opacity:1" />
      <path
         d="m 339.51766,398.33812 q 0,8.85333 -6.29333,15.14667 -6.18667,6.18666 -15.04,6.18666 h -10.66667 q -8.85333,0 -15.14667,-6.18666 -6.18666,-6.29334 -6.18666,-15.14667 v -32 q 0,-8.85333 6.18666,-15.04 6.29334,-6.29333 15.14667,-6.29333 h 10.66667 q 8.85333,0 15.04,6.29333 6.29333,6.29333 6.29333,15.04 z m -10.66667,0 v -32 q 0,-4.37333 -3.2,-7.46667 -3.09333,-3.2 -7.46666,-3.2 h -10.66667 q -4.37333,0 -7.57333,3.2 -3.09334,3.09334 -3.09334,7.46667 v 32 q 0,4.37333 3.09334,7.57333 3.2,3.09334 7.57333,3.09334 h 10.66667 q 4.37333,0 7.46666,-3.09334 3.2,-3.2 3.2,-7.57333 z"
         id="path8575-7"
         style="fill:#b90909;fill-opacity:1" />
    </g>
    <text
       xml:space="preserve"
       style="font-style:normal;font-variant:normal;font-weight:normal;font-stretch:normal;font-size:25.4px;line-height:1.25;font-family:'ProFontIIx Nerd Font Mono';-inkscape-font-specification:'ProFontIIx Nerd Font Mono';text-align:center;text-anchor:middle;fill:#000000;fill-opacity:1;stroke:#ffffff;stroke-width:0.684;stroke-dasharray:none;stroke-dashoffset:1.4588;stroke-opacity:1"
       x="267.62988"
       y="118.08598"
       id="text12228"><tspan
         sodipodi:role="line"
         id="tspan12226"
         style="text-align:center;text-anchor:middle;fill:#000000;fill-opacity:1;stroke:#ffffff;stroke-width:0.684;stroke-dasharray:none;stroke-opacity:1"
         x="267.62988"
         y="118.08598">contributions</tspan><tspan
         sodipodi:role="line"
         style="text-align:center;text-anchor:middle;fill:#000000;fill-opacity:1;stroke:#ffffff;stroke-width:0.684;stroke-dasharray:none;stroke-opacity:1"
         x="267.62988"
         y="149.83598"
         id="tspan12230">welcome</tspan></text>
  </g>
</svg>
