<?xml version="1.0" encoding="UTF-8" standalone="no"?>
<!-- Created with Inkscape (http://www.inkscape.org/) -->

<svg
   width="180.45422mm"
   height="62.371452mm"
   viewBox="0 0 180.45422 62.371452"
   version="1.1"
   id="svg1"
   xml:space="preserve"
   sodipodi:docname="rhapsodaic_gravity.svg"
   inkscape:version="1.2.2 (b0a8486541, 2022-12-01)"
   xmlns:inkscape="http://www.inkscape.org/namespaces/inkscape"
   xmlns:sodipodi="http://sodipodi.sourceforge.net/DTD/sodipodi-0.dtd"
   xmlns="http://www.w3.org/2000/svg"
   xmlns:svg="http://www.w3.org/2000/svg"><sodipodi:namedview
   id="namedview1"
   pagecolor="#ffffff"
   bordercolor="#000000"
   borderopacity="0.25"
   inkscape:showpageshadow="2"
   inkscape:pageopacity="0.0"
   inkscape:pagecheckerboard="0"
   inkscape:deskcolor="#d1d1d1"
   inkscape:document-units="mm"
   inkscape:zoom="3.2346314"
   inkscape:cx="158.13239"
   inkscape:cy="148.23946"
   inkscape:window-width="1910"
   inkscape:window-height="1042"
   inkscape:window-x="5"
   inkscape:window-y="17"
   inkscape:window-maximized="0"
   inkscape:current-layer="CS"
   showgrid="false" /><defs
   id="defs1" />    <filter
   id="grayscale">
      <feColorMatrix
   type="saturate"
   values="0"
   id="feColorMatrix4" />
    </filter><g
   inkscape:label="Layer 1"
   inkscape:groupmode="layer"
   id="layer1"
   transform="translate(-5.8472613,-45.668218)"><g
     id="CS"
     transform="translate(-15.627927,-122.03034)"><title
       id="title941">CS</title><path
       style="fill:none;stroke:#5a92ff;stroke-width:1.08239;stroke-dasharray:none;stroke-opacity:1"
       d="m 80.333614,190.11803 c 0.110238,4.81747 2.133375,6.94287 7.654735,7.87983 5.1695,1.26072 8.345311,1.92321 8.395416,7.32442 m 34.368895,-11.63279 c 0.11024,4.81747 2.4102,7.49653 7.93156,8.43349 5.1695,1.26072 8.89897,2.29232 7.93403,7.60125"
       id="Present"
       sodipodi:nodetypes="cccccc" /><path
       style="fill:none;stroke:#b7c200;stroke-width:1;stroke-dasharray:none;stroke-opacity:1"
       d="m 42.573225,192.22539 c -5.591811,0.0943 -10.098298,-0.29617 -13.218748,4.40781 -2.41031,3.37759 -3.051166,4.81468 -2.551096,8.96909"
       id="Agent"
       sodipodi:nodetypes="ccc" /><g
       id="CS-5"
       transform="translate(-76.526368,-3.21985)"><title
         id="title941-7">CS</title><path
         style="fill:none;stroke:#385696;stroke-width:1;stroke-dasharray:none"
         d="m 102.90696,208.72531 c -0.0105,-9.23068 -0.18865,-13.54841 -0.0839,-17.09267 -1.60541,7.55575 -7.380939,3.55401 -2.23854,9.6683"
         id="path1590"
         sodipodi:nodetypes="ccc" /></g><g
       id="C2"
       transform="translate(-108.96032,117.04947)"><title
         id="title933">C2</title><path
         style="fill:none;stroke:#385696;stroke-width:1;stroke-dasharray:none"
         d="m 151.3255,87.900252 c 0.0104,-16.788392 0.18744,-33.223966 0.0834,-36.768226 1.59514,7.55575 7.33372,3.55401 2.22422,9.6683 m 35.66397,28.32298 c 0.0104,-16.788392 0.18744,-33.223965 0.0834,-36.768225 1.59514,7.55575 7.33372,3.55401 2.22422,9.6683"
         id="path1614"
         sodipodi:nodetypes="cccccc" /></g><g
       id="First"
       transform="translate(-256.7606,33.237595)"><path
         style="fill:none;stroke:#000000;stroke-width:1;stroke-linecap:butt;stroke-linejoin:miter;stroke-dasharray:none;stroke-opacity:1"
         d="m 288.37534,156.32286 c 6.65574,-0.44028 6.35414,-3.97682 6.35414,-3.97682"
         id="path9089"
         sodipodi:nodetypes="cc" /></g><g
       id="First-3"
       transform="translate(-242.92411,35.496703)"><path
         style="fill:none;stroke:#000000;stroke-width:1;stroke-linecap:butt;stroke-linejoin:miter;stroke-dasharray:none;stroke-opacity:1"
         d="m 288.37534,156.32286 c 1.67486,-0.11079 3.17356,-0.0649 4.17808,-0.0941 2.98737,-0.087 3.17969,0 3.17969,0"
         id="path9089-6"
         sodipodi:nodetypes="csc" /></g><path
       style="fill:none;stroke:#b7c200;stroke-width:1;stroke-dasharray:none;stroke-opacity:1"
       d="m 73.211429,191.03037 c -5.59181,0.0943 -10.0983,-0.29617 -13.21875,4.40781 -2.41031,3.37759 -3.05116,4.81468 -2.55109,8.96909"
       id="Agent-1"
       sodipodi:nodetypes="ccc" /><g
       id="C3"
       transform="matrix(1,0,0,-1,-98.455644,329.30364)"><title
         id="title937">C3</title><path
         style="fill:none;stroke:#963838;stroke-width:1;stroke-dasharray:none;stroke-opacity:1"
         d="m 155.71245,124.14162 c 0.0373,10.09524 0.16781,27.00251 0.24522,35.94303 -5.27658,-7.05193 -2.04265,-2.90271 -5.15633,-7.85874"
         id="path1604"
         sodipodi:nodetypes="ccc" /></g><g
       id="S2"
       transform="translate(-14.146418,105.84743)"><title
         id="title935">S2</title><path
         style="fill:none;stroke:#964b38;stroke-width:1;stroke-dasharray:none;stroke-opacity:1"
         d="m 86.91343,84.598738 c 0.03746,10.1486 0.06057,28.209912 0.138433,37.197692 -5.304464,-7.0892 -0.300621,0 -5.592286,-7.14375"
         id="path1610"
         sodipodi:nodetypes="ccc" /></g><path
       style="fill:none;stroke:#b7c200;stroke-width:1;stroke-dasharray:none;stroke-opacity:1"
       d="m 103.71408,210.36077 c -0.83717,-4.8193 3.64052,-6.21664 8.2954,-7.34204 4.44627,-1.07497 8.29611,-3.25531 7.47535,-8.56625"
       id="Witness"
       sodipodi:nodetypes="csc" /><g
       id="Action"
       transform="translate(-170.84778,88.918586)"><ellipse
         style="fill:#9f9f9f;fill-opacity:0.841059;stroke:#000000;stroke-width:1;stroke-dasharray:none;stroke-dashoffset:5.51358;stroke-opacity:1"
         id="path7708-9-1"
         cx="261.74841"
         cy="104.8967"
         rx="0.47568154"
         ry="0.51303935" /><ellipse
         style="fill:#9f9f9f;fill-opacity:0.841059;stroke:#000000;stroke-width:1;stroke-dasharray:none;stroke-dashoffset:5.51358;stroke-opacity:1"
         id="path7708-9-1-2"
         cx="258.05353"
         cy="105.00066"
         rx="0.47568154"
         ry="0.51303935" /></g><g
       id="CS-6"
       transform="translate(-61.252568,-8.8097847)"><title
         id="title941-8">CS</title><path
         style="fill:none;stroke:#389641;stroke-width:1;stroke-dasharray:none;stroke-opacity:1"
         d="m 157.64769,214.94862 0.0513,-10.79609 c 0.007,-2.13626 0.68068,-5.16145 -0.68191,-5.9208 -3.00825,-1.6764 -4.0468,0.35731 -4.0971,1.96333"
         id="path1594"
         sodipodi:nodetypes="cccc" /></g><g
       id="S2-9"
       transform="translate(117.03577,125.51308)"><title
         id="title935-3">S2</title><path
         style="fill:none;stroke:#385696;stroke-width:1;stroke-dasharray:none"
         d="m -13.406779,68.917333 c -0.01039,9.23067 -0.187441,31.992047 -0.08345,35.536317 -1.595135,-7.555756 -7.33372,-3.55402 -2.224215,-9.668306 M 13.720241,68.014646 C 13.709851,77.245317 13.5328,100.0067 13.636791,103.55097 12.041656,95.995206 6.3030711,99.996951 11.412576,93.882658"
         id="path641"
         sodipodi:nodetypes="cccccc" /></g><ellipse
       style="fill:#9f9f9f;fill-opacity:0.841059;stroke:#000000;stroke-width:1;stroke-dasharray:none;stroke-dashoffset:5.51358;stroke-opacity:1"
       id="path7708-9-1-0"
       cx="111.82359"
       cy="196.89659"
       rx="0.47568154"
       ry="0.51303935" /><g
       id="S1"
       transform="translate(5.8251928,163.61362)"><title
         id="title931">S1</title><path
         style="fill:none;stroke:#389641;stroke-width:1;stroke-dasharray:none;stroke-opacity:1"
         d="m 113.73143,30.749563 -0.0459,11.140937 c 0.007,2.136253 -0.099,4.178046 -1.45282,4.9374 -2.989,1.6764 -3.63326,-1.499105 -3.68327,-3.105126"
         id="path1552"
         sodipodi:nodetypes="cccc" /></g><path
       d="m 121.04407,214.22812 c 2.68744,-1.59104 2.27585,-4.3575 2.27585,-4.3575 m 48.40386,-5.84636 c 3.64833,0.0562 6.2567,0.17244 6.2567,0.17244"
       style="fill:none;stroke:#333333;stroke-width:1;stroke-linecap:butt;stroke-linejoin:miter;stroke-dasharray:none;stroke-opacity:1"
       id="path1"
       sodipodi:nodetypes="cccc" /><ellipse
       style="fill:#9f9f9f;fill-opacity:0.841059;stroke:#000000;stroke-width:1;stroke-dasharray:none;stroke-dashoffset:5.51358;stroke-opacity:1"
       id="path7708-9-1-2-1"
       cx="137.56296"
       cy="197.79085"
       rx="0.47568154"
       ry="0.51303935" /><ellipse
       style="fill:#9f9f9f;fill-opacity:0.841059;stroke:#000000;stroke-width:1;stroke-dasharray:none;stroke-dashoffset:5.51358;stroke-opacity:1"
       id="path7708-9-1-2-9"
       cx="141.65573"
       cy="197.6517"
       rx="0.47568154"
       ry="0.51303935" /><g
       id="CS-3"
       transform="translate(-29.93971,6.9355258)"><title
         id="title941-3">CS</title><path
         style="fill:none;stroke:#963838;stroke-width:1;stroke-dasharray:none;stroke-opacity:1"
         d="m 176.67167,202.78654 c 0.0378,-10.1486 0.31958,-10.19042 0.39791,-19.1782 -4.9291,6.2326 0.96582,-1.25169 -4.14099,5.18535"
         id="path1592"
         sodipodi:nodetypes="ccc" /></g><path
       style="fill:none;stroke:#b7c200;stroke-width:1;stroke-dasharray:none;stroke-opacity:1"
       d="m 169.76144,194.51342 c 0.21016,8.38611 -6.15836,14.02022 -14.96863,13.9496"
       id="Patient"
       sodipodi:nodetypes="cc" /><g
       id="C3-0"
       transform="matrix(1,0,0,-1,6.00398,332.87302)"><title
         id="title937-5">C3</title><path
         style="fill:none;stroke:#963838;stroke-width:1;stroke-dasharray:none;stroke-opacity:1"
         d="m 148.84294,123.93379 c 0.0373,10.09524 0.0603,26.21093 0.13771,35.15145 -2.46699,-5.39172 -0.38313,-0.25542 -3.85905,-8.00015"
         id="path1604-6"
         sodipodi:nodetypes="ccc" /></g><g
       id="S1-1"
       transform="translate(75.382239,147.19074)"><title
         id="title931-8">S1</title><path
         style="fill:none;stroke:#385696;stroke-width:1;stroke-dasharray:none"
         d="m 94.392431,47.039102 c -0.01039,9.230676 -0.187441,14.022963 -0.08345,17.567225 -1.522346,-3.406782 -6.751408,-0.278506 -1.641903,-6.392796"
         id="path1546"
         sodipodi:nodetypes="ccc" /></g><ellipse
       style="fill:#9f9f9f;fill-opacity:0.841059;stroke:#000000;stroke-width:1;stroke-dasharray:none;stroke-dashoffset:5.51358;stroke-opacity:1"
       id="path7708-9-1-2-1-7"
       cx="160.48123"
       cy="210.83632"
       rx="0.47568154"
       ry="0.51303935" /><ellipse
       style="fill:#9f9f9f;fill-opacity:0.841059;stroke:#000000;stroke-width:1;stroke-dasharray:none;stroke-dashoffset:5.51358;stroke-opacity:1"
       id="path7708-9-1-2-1-3"
       cx="164.01306"
       cy="210.95294"
       rx="0.47568154"
       ry="0.51303935" /><path
       style="fill:none;stroke:#b7c200;stroke-width:1;stroke-dasharray:none;stroke-opacity:1"
       d="m 196.47725,196.59647 c 0.21016,8.38611 -6.26156,15.16029 -15.07183,15.08967"
       id="Patient-6"
       sodipodi:nodetypes="cc" /><g
       id="C3-8"
       transform="matrix(1,0,0,-1,-75.227752,346.77526)"><title
         id="title937-0">C3</title><path
         style="fill:none;stroke:#385696;stroke-width:1;stroke-dasharray:none"
         d="m 256.69733,134.58389 c -0.0104,9.18215 -0.18644,33.04348 -0.083,36.56911 -1.58675,-7.51603 -7.29516,-3.53533 -2.21254,-9.61747"
         id="path1602"
         sodipodi:nodetypes="ccc" /></g><g
       id="C1"
       transform="translate(-10.121483,157.0254)"><title
         id="title929">C1</title><path
         style="fill:none;stroke:#389641;stroke-width:1;stroke-dasharray:none;stroke-opacity:1"
         d="m 206.36916,54.971646 0.0459,-13.108644 c -0.007,-2.136253 0.099,-3.503348 1.45283,-4.262702 2.989,-1.6764 3.63326,3.185848 3.68325,4.791869"
         id="path1582"
         sodipodi:nodetypes="cccc" /></g><ellipse
       style="fill:#9f9f9f;fill-opacity:0.841059;stroke:#000000;stroke-width:1;stroke-dasharray:none;stroke-dashoffset:5.51358;stroke-opacity:1"
       id="path7708-9-1-2-1-3-0"
       cx="187.68504"
       cy="213.00601"
       rx="0.47568154"
       ry="0.51303935" /><ellipse
       style="fill:#9f9f9f;fill-opacity:0.841059;stroke:#000000;stroke-width:1;stroke-dasharray:none;stroke-dashoffset:5.51358;stroke-opacity:1"
       id="path7708-9-1-2-1-3-5"
       cx="191.92697"
       cy="212.99741"
       rx="0.47568154"
       ry="0.51303935" /><g
       id="AnimateThird"
       transform="translate(-218.1619,49.190677)"><path
         style="fill:none;stroke:#000000;stroke-width:1;stroke-linecap:butt;stroke-linejoin:miter;stroke-dasharray:none;stroke-opacity:1"
         d="m 279.90354,138.13566 2.4738,-2.4738 2.25853,2.25852"
         id="path8643"
         sodipodi:nodetypes="ccc" /></g><ellipse
       style="fill:none;fill-opacity:0.841059;stroke:#333333;stroke-width:1;stroke-dasharray:none;stroke-dashoffset:5.51358;stroke-opacity:1"
       id="path7708-9-1-2-1-3-3"
       cx="199.07634"
       cy="211.79195"
       rx="0.47568154"
       ry="0.51303935" /></g></g></svg>
