<svg xmlns="http://www.w3.org/2000/svg" xml:space="preserve" width="658.016" height="681.605" viewBox="0 0 174.1 180.341"><path d="m175.982 211.274-1.783.098c-.98.054-2.854.117-4.164.14l-2.381.041.595.228-1.643-.535.297-.297.298-.297 1.02-.002c.561 0 2.27-.009 3.798-.019 3.594-.022 4.213-.018 5.11.03l.743.04-.15.244-.151.243.925.305c.508.168 1.193.217.925.132l-.488-.155-.089-.45-.088-.451.63-.33c.348-.183.876-.331 1.174-.331h.543l-.178-.18-.18-.178-5.09.056c-2.8.03-5.478.124-5.95.208l-.86.153v-.52l4.563-.199c2.51-.109 5.848-.223 7.416-.253l2.852-.055.31-.31.31-.31h-.631l.1-1.323.1-1.323H181.577l-.168.271-.167.271 1.04-.166 1.04-.167.15.574.15.573-.774-.17-.773-.17v.44l-5.623-.023-5.622-.023-.195.288-.194.287-.004-.34-.004-.34-7.21.166c-3.965.091-11.109.184-15.875.207-4.765.023-8.664.104-8.665.179 0 .174-3.563.111-3.871-.069-.127-.073-.867-.05-1.645.054l-1.416.187-13.413.047-13.413.047-.848.243-.848.243v-.454l-5.49.14-5.49.14-.331.27-.33.27-.336-.278-.336-.278-8.197.14c-4.509.078-10.365.159-13.015.18l-4.817.04-.408.529-.408.529-.331-.397-.33-.397-.795-.104c-1.32-.174-17.95.053-22.026.3l-1.125.069v-.199c0-.109-.166-.198-.368-.198h-.369l-.158.413-.159.413-.862-.167c-.474-.092-2.138-.212-3.699-.267l-2.837-.101-.162.262-.162.262-.57-.181-.571-.181.36.435.362.435h1.024l-.153.248-.153.248.65-.118.65-.118.162.262.162.262 28.959-.125 28.959-.126v.413l-9.724.086c-5.347.047-12.76.119-16.47.159-3.71.04-9.485.098-12.832.128l-6.086.056.662.197.661.197-1.984.184c-1.091.1-2.907.21-4.035.242l-2.05.058v-.401l-.86-.004-.86-.004.396-.251.397-.25-2.315.018-2.315.02v.577l-.317-.318-.318-.317h-1.287l-.877-.543-.878-.542-.561-.908-.561-.908.179-.29.179-.29-2.278.087-2.278.086v-.227l.001-.227-.727.183-.727.182.19-.189.188-.189-1.004-.728-1.005-.727-.345-.834-.346-.834.545-6.275c.613-7.055.619-7.257.215-7.527-.402-.235-.237-.195.136-.198l.426-.004.18-2.315c.098-1.274.348-3.804.555-5.623.546-4.798.542-6.056.873-9.525l.142-.397-.162-.446.037-.529.2-.083.435-4.49.435-4.49-.436-.482-.436-.483.448.172.448.172.03-.226c.017-.125.07-.584.12-1.02.048-.437.152-1.33.231-1.985.546-4.549.822-7.483.816-8.673l-.007-1.381h.173c.095 0 .214-.585.265-1.299l.091-1.298-.198.123-.199.124v-.228c0-.125.111-.34.247-.478l.246-.252.136-1.852c.132-1.803.674-6.832 1.199-11.112.142-1.165.455-4.022.694-6.35.24-2.329.675-6.139.967-8.467.293-2.328.596-4.814.675-5.525l.144-1.29.507-.133.507-.133-.147-.384c-.081-.21-.163-.701-.182-1.09l-.035-.705-.195.926-.195.926-.035-1.092c-.019-.6.04-1.463.13-1.918l.166-.827h.691l.115.596.114.595.036-.835.036-.835-.529.138-.529.138.026-.758.027-.759.188.662.189.661.179-1.058c.098-.582.172-1.237.163-1.455l-.015-.397-.236.53-.235.528.101-2.074c.056-1.14.17-2.143.254-2.227l.153-.153.037 1.169.037 1.169.185-1.323c.101-.728.456-4.054.787-7.392l.603-6.07.366-.365.366-.366.002-.71c.001-.389.054-1.363.117-2.163l.115-1.455-.368 2.116-.369 2.117.133-2.249c.073-1.237.195-2.459.27-2.716l.138-.466.245.151.246.152V79.702l-.31.19-.31.192.178-.462c.098-.254.186-.839.196-1.3l.019-.838.228.53.23.528-.158-1.695-.157-1.695.24.147.24.148.033-2.95.033-2.95-.205.66-.204.662-.008-.926c-.004-.509.084-1.162.197-1.45l.205-.525.19 1.015c.315 1.677.404.955.14-1.14-.29-2.312-.145-2.776.238-.765l.269 1.41-.03-1.201c-.017-.661.044-1.324.136-1.473.093-.149.204-1.114.249-2.144l.08-1.873.199.12.198.12.017-.346.017-.347.256.641.256.64-.235.154-.236.153-.175 1.852a140.884 140.884 0 0 0-.312 4.233c-.075 1.31-.258 3.155-.407 4.101-.149.946-.506 4.22-.793 7.276-.288 3.056-.645 6.807-.795 8.335-.15 1.528-.316 3.281-.368 3.896-.053.616-.18 1.254-.282 1.419l-.185.3.347.215.348.215-.282.35-.282.352-.315 3.104-.315 3.104.155.251.155.25-.238.148-.238.148-.05.995c-.121 2.41-.231 3.687-.372 4.303-.083.363-.216 1.733-.295 3.042a80.094 80.094 0 0 1-.418 4.498c-.151 1.164-.32 2.534-.376 3.043-.056.51-.203 1.78-.327 2.824l-.225 1.898.252-.155.252-.156-.208.507c-.585 1.425-1.036 5.548-1.06 9.7l-.012 2.05h-.397v1.174c0 .646-.116 1.479-.258 1.852l-.258.679h.528l-.388.595-.388.596-.06 1.506-.06 1.507.376.462.375.463-.33-.2-.331-.198-.04.413c-.022.227-.051.561-.066.743a.825.825 0 0 1-.291.525l-.265.194.303.004.303.004-.274.993c-.15.545-.307 1.587-.348 2.315-.17 3.039-.377 5.204-.518 5.433-.132.213-.407 2.114-.763 5.282-.058.51-.192 1.996-.3 3.304l-.195 2.377-.484 1.131-.485 1.132.033.9.034.9-.447.447-.448.447.149 1.296.148 1.296h-.494l.137 1.02.137 1.02-.304.567-.303.568h.415l-.022 1.124a31.586 31.586 0 0 1-.07 1.654l-.048.529-.257-.397c-.324-.503-.345-.115-.025.482l.24.447-.354 1.03-.354 1.03.117 1.548.118 1.548h-.604l.15 1.654.151 1.654-.222-.662-.222-.661-.027 1.008-.026 1.007.21-.129.208-.13-.102.877-.102.876.29.18c.16.098.288.32.286.494l-.004.315-.257-.397-.256-.397-.042.397c-.023.218-.127-.08-.231-.662l-.19-1.058-.037 1.405-.038 1.404.307-.189.306-.19-.17.637c-.094.35-.18.756-.193.902-.012.145-.127.026-.256-.265l-.234-.529.103 1.394.102 1.394-.247-.153-.247-.153v.856l.22-.135.219-.135-.031.929-.031.93-.335.207-.336.207.183 1.379.183 1.379.331-.127.331-.127-.139.532-.139.531-.224-.353-.224-.353-.004.346-.004.347-.274-.17-.275-.17.047 1.852.046 1.852.56-.1.558-.1-.457.345-.456.345.361.495.362.494.477-.387.476-.386-.199.33-.199.331.347.004.346.004-.397.256-.397.257.611.004.611.004-.129.209-.129.209 10.692-.02 10.693-.02.401-.52.401-.52.36.463.36.463h.418c.23 0 .504-.137.607-.305l.19-.305-.347.214-.346.214.188-.306.19-.305h2.085l.03.33c.018.182.02.413.007.512l-.026.181 12.628-.108c10.463-.09 16.626-.212 20.301-.4.291-.015 3.863-.021 7.938-.013 4.074.008 8.48-.037 9.79-.1 1.31-.064 7.5-.193 13.758-.286l11.377-.17.516-.275.517-.276.1.302.102.303h1.574l-.198-.331-.2-.33.382.294.382.295 5.953-.072c3.274-.04 8.156-.101 10.848-.136l4.895-.064.33-.257.331-.258v.613l.561-.3.561-.3-.183.296-.183.296.813-.061.812-.062v-.682H154.292v.59l1.124-.156 1.125-.156.926.207.926.206 1.057-.19 1.057-.189.134.175.133.175 2.91-.027c1.601-.015 3.744-.057 4.763-.093l1.852-.067.382-.303.381-.304-.207.345-.207.344 5.778-.127c3.179-.07 7.565-.135 9.748-.144l3.969-.016-.397-.288-.397-.288.673.106.674.106-.269-.858-.269-.859-.225.14-.226.14.331-.53.331-.531.907-.433.907-.432-.174-.983a35.26 35.26 0 0 1-.3-2.306c-.068-.728-.293-2.812-.5-4.63a253.835 253.835 0 0 1-.691-7.409l-.317-4.101-.25-.318-.249-.318.15-.476.15-.475-.268-1.456c-.148-.8-.273-1.633-.279-1.852-.006-.218-.192-2.004-.415-3.969-.223-1.964-.408-4.258-.412-5.098l-.007-1.526-.22-.136-.22-.136.148-.385.148-.385-.314-1.31-.314-1.31.264-.471.264-.472.172 1.05c.095.579.266 1.29.38 1.58l.207.53-.1.727-.102.728h.583l-.161.507-.16.507.274.17c.152.093.276.349.276.567v.397l-.265-.164-.264-.163.03.743.031.743.121-.463c.067-.255.231-.463.366-.463h.245v-.9l.224.252.223.251.302 3.572c.166 1.965.352 3.87.413 4.233.136.806 2.043 27.937 2.043 27.937l-.499.452c-.274.248-.691.12-.691.12l.193-.33-.548.48-.548.48-1.283.105c-.706.058-2.21.126-3.34.15l-2.057.045-.16.259-.16.258 1.092-.184 1.092-.185.004.751.004.751.286-.397.285-.397-.157.485c-.087.266-.157.64-.157.831v.347l-.662.166-.661.166v.55l-.267-.165-.266-.164-.159.413-.159.414h-.485c-.267 0-.559.119-.649.265l-.163.264h-2.497l-.597.418-.597.418.646.508c.355.28-4.073-.242-4.073-.242zm-135.003.029c-.55-.057-1.383-.056-1.852.002l-.854.106 1.852-.002 1.852-.002zm142.153-1.659v-.265h-1.292l-.163.265-.164.265H183.132zm-135.136-2.048a35.281 35.281 0 0 0-3.307 0l-1.654.094h6.615zm4.101.006c-.4-.06-1.055-.06-1.455 0l-.728.11h2.911zm46.975-.535a38.45 38.45 0 0 0-3.44-.001l-1.797.093h3.44l3.44.001zm19.435-.265a29.41 29.41 0 0 0-3.042 0l-1.522.096h6.086zm17.735-.261a13.276 13.276 0 0 0-2.117-.002l-1.132.102 2.117.002 2.117.002zm18.91-.268a35.281 35.281 0 0 0-3.307 0l-1.654.094h6.615zm4.827-.027c-.167-.167-2.575-.067-2.756.114-.069.07.555.103 1.386.076.83-.027 1.447-.112 1.37-.19zm4.834-.224c-.253-.066-.73-.068-1.059-.005l-.598.115 1.058.005 1.059.005zm3.176-.007c-.397-.06-1.112-.061-1.587-.003l-.865.107 1.588.003 1.587.003zm4.37-.004a17.079 17.079 0 0 0-2.382 0l-1.265.099h2.381l2.382.002zm3.964.007c-.326-.063-.921-.064-1.323-.004l-.732.11 1.323.005 1.323.004zm14.933-24.75-.114-.596V183.053l.114-.595a3.768 3.768 0 0 0 0-1.19zm-1.011-10.168-.03-.482-.138.53-.137.528-.21-.529-.21-.529-.02.879-.018.879.397-.397.397-.397zM30.017 115.188l.15-1.455-.22.661c-.219.656-.362 2.571-.177 2.36.053-.061.164-.766.247-1.566zm.638-1.65-.116-.6-.005 1.06-.005 1.057.12-.46c.067-.252.07-.729.006-1.058zm2.383-23.68-.11-.732-.004 1.323-.004 1.323.114-.592c.063-.325.064-.92.004-1.322zm119.33 121.736c.694-.05 1.697-.228 2.226-.393l.964-.3 3.402.188c1.871.103 3.945.207 4.608.23l1.205.043-3.476.364-3.172.005-3.171.005s-3.282-.091-2.587-.142zm-61.167-.849-.517-.22 3.668-.176c2.017-.097 4.654-.176 5.86-.176h2.19l.164.265.164.264-3.39.002c-1.863.001-4.34.06-5.505.132l-2.117.13zm12.458-.363c.182-.294.829-.26 1.023.054l.162.263-.657-.054-.656-.055zm3.008.033-1.455-.155 3.043-.078c1.673-.042 5.631-.109 8.795-.147l5.753-.07-.14.228-.14.227-5.745.031c-3.16.017-6.4.051-7.2.075-.8.024-2.11-.026-2.91-.111zm22.556-.437a29.41 29.41 0 0 1 3.043 0l1.521.095h-6.085zm7.74.065c.145-.048.596-.161 1.002-.251l.739-.163-.175-.284-.175-.283.56.3c.31.166.562.416.562.556v.255l-1.39-.02c-.763-.012-1.27-.061-1.124-.11zm5.026-.134.164-.265.712.004.712.004-.397.257a1.934 1.934 0 0 1-.876.26l-.478.004zm1.985 0v-.265l1.256.019c.692.01 1.495.12 1.786.246l.53.227-1.786.019-1.786.018zm4.784-.11c.06-.06 3.087-.156 6.725-.213l6.615-.104.926.179.926.178-7.651.035c-4.208.019-7.601-.015-7.54-.075zm17.044-.136-1.059-.181 1.72-.131 1.72-.13.251.211.252.212-.384.004a6.658 6.658 0 0 0-.913.1c-.29.053-1.005.015-1.587-.085zm-40.085-.283v-.265H126.776v.529H125.717zm-53.18-.265-.398-.257.86-.004.86-.004v.53l-.463-.004a1.9 1.9 0 0 1-.86-.26zm15.126-.055c-2.053-.374-1.494-.545 1.054-.322l2.206.192-.529.206c-.653.255-.96.247-2.731-.076zm22.18-.21v-.264h1.058v.529H109.842zm38.78.062c.156-.106.365-.412.463-.679l.18-.485.33.109.33.109.085.574.085.575-.878-.004-.879-.004zm-55.244-.36.867-.25.456.266.456.266-1.323-.016-1.323-.015zm95.115-.552-.59-.285.165-.689c.208-.872.11-.79 1.168-.973l.906-.158-.396.283a1.774 1.774 0 0 1-.86.287l-.463.004v.265c0 .145.089.265.198.265.347.002 1.984 1.08 1.847 1.217-.072.072-.576-.119-1.12-.424-.543-.305-1.044-.5-1.112-.43-.069.068.213.307.626.531.847.459.543.547-.369.107zm-99.616-3.237-.124-.649.354-.135.353-.136.233.453c.287.558.113 1.115-.348 1.115h-.344zm-34.51-.031-.158-.415.3-.3c.164-.165.299-.514.299-.776v-.476h.732l.138.529.139.529-.306.66-.306.659-.34.002-.338.002zm106.274.147-1.455-.176 1.125-.072c.618-.04 1.362-.086 1.653-.102l.53-.03.02.251c.025.327-.142.339-1.873.13zm-111.767-1.207c-.229-.229-.416-.487-.416-.573 0-.087.078-.08.174.016l.174.174.352-.291.352-.292.411.158.412.158-.285.533c-.344.641-.622.67-1.174.117zm113.62.266c0-.34.565-1.173.797-1.173h.25l-.302.661c-.267.586-.746.915-.746.512zm-130.059-.52.514-.389H31.759l.164-.264c.09-.146.398-.265.685-.265h.522l.162.424.163.423-.37.234a1.666 1.666 0 0 1-.766.23l-.396-.004zm135.116-.322.03-.728.126.482.124.483.374-.144.374-.143v.777h-1.058zm-52.947-.067v-.529h1.002l.142.371.142.371-.158.159c-.087.087-.376.158-.643.158h-.485zm-84.071-.206-.596-.095v-.253c0-.139-.297-.366-.661-.504l-.662-.251v-.578l.556.176c.305.097.766.388 1.025.646.258.259.634.528.834.6.536.19.193.37-.496.26zm155.896-.119-.17-.443.172-.278.172-.278.513.275c.282.15.513.396.513.545v.271l-.294-.182-.294-.181-.221.357-.221.357zm-162.463-1.82-.182-.295.365-.23c.2-.128.483-.23.629-.227l.264.004-.477.361-.477.362.345.138.345.138-.315.021c-.174.012-.397-.111-.497-.273zm5.108-.005-.464-.26-.262.163-.263.162v-.648l-.158.158-.158.158-1.297-1.339-1.297-1.338V196.9l.33.117.331.117-.04.452-.04.452.152-.15c.082-.084.171-.746.197-1.474l.046-1.322h-.247c-.136 0 .15-.397.636-.882s.955-.846 1.042-.803c.087.044.395-.141.685-.411l.526-.49 1.432.098c1.221.084 1.783.175 3.218.522.109.026.302.063.429.081l.23.033.176 1.323.175 1.323h.498l-.258-.679c-.142-.373-.257-.879-.256-1.124l.002-.446.496.753.496.753.19-.307.19-.307.506.458.506.458-.07.683c-.064.636-.505 1.346-.835 1.346-.079 0-.075-.18.009-.397l.152-.397h-.85v-.529h-.852l.127.992.127.992-.5.834c-.275.458-.697.909-.936 1l-.436.168-.25-.25-.25-.25.17-.277.17-.276.39.15.388.148v-.524l-.591-.154-.59-.155-.22.22c-.121.12-.231.604-.244 1.074l-.025.854-.29.085c-.159.047-.647.146-1.085.221l-.795.136zm-1.414-1.598-.19-.31.44.169.44.169v-.24c0-.38-.39-.523-.774-.285l-.352.218.181.294c.1.162.242.294.314.294.073 0 .047-.14-.059-.31zm1.602-2.05.15-.241-.333-.116-.332-.117 1.102-.11 1.102-.11-.126.204-.125.203h.808l-.153-.4-.154-.4.493.175.492.174-.264-.278c-.146-.153-.503-.32-.794-.372l-.53-.095-.088-.621-.088-.621-.636.936-.636.935-.532.17c-.545.172-.67.436-.356.75.254.254.825.217 1-.065zm3.906-2.142c-.064-.438-.22-.861-.348-.94l-.23-.143.174.457.176.457-.457-.176-.457-.175.162.262.162.261-.347.022-.346.021.794.364.814.375c.011.007-.032-.347-.097-.785zm-4.409-.168c.357-.385.65-.804.65-.933v-.232l-.86.44c-1.21.62-1.69 1.425-.848 1.425h.41zm153.535 5.007-.969-.102-1.351-1.352-1.352-1.351.012-.817c.006-.45-.013-1.055-.042-1.346-.03-.291-.032-.983-.006-1.537l.047-1.008.24.148.239.148-.138 1.027-.138 1.027.252.45.251.45.063-1.014c.035-.558.074-1.163.088-1.345l.025-.33h.706v-.265c0-.146-.127-.265-.28-.265h-.28l.18-.292.181-.293.183.295.183.296.624-.664.624-.664h.43c.236 0 .56-.13.72-.29l.288-.289.578.31.579.31.367-.142.368-.141.203.32c.196.307.24.441.31.955l.033.24.53-.138.529-.139v.728l.529.33.529.331-.004.726-.004.725-.269-.397-.268-.397.16.69.159.69-.416.415-.416.416v1.097h.47l-.037.463-.036.463-1.456.856-1.455.857-.397-.041-1.366-.144zm1.895-.741c0-.077-.288-.249-.64-.382l-.64-.244-.355-.742-.356-.742-.857-.027-.856-.026-.006.29-.006.292-.505-.658-.505-.657-.186.185-.185.186 1.16 1.162c.637.64 1.338 1.23 1.556 1.312.514.191 2.381.232 2.381.05zm.543-2.375c-.02-.393-.612-.32-.75.091l-.118.356.441-.09.441-.092zm-2.864-1.732c-.51-.596-.702-.496-.467.243l.17.536.363-.14.363-.139zm4.172-.84.002-.19-.443.17-.443.17.154-.401.154-.402-.652.125-.653.125-.524-.563c-.288-.31-.678-.563-.867-.563h-.342l-.003.33c-.001.183-.083.58-.18.884l-.179.552.996.062a114.7 114.7 0 0 1 1.302.087l.306.025-.137.358-.138.358.823-.468c.452-.258.823-.554.824-.658zm-4.765-.272c-.002-.182-.115-.506-.25-.72l-.247-.39-.168.169-.168.168.296.552c.333.624.543.71.537.22zM37.082 199.59l-.397-.256.743-.004.744-.004-.164.264c-.203.329-.418.329-.926 0zm.312-1.104.085-.574.397-.12.397-.12-.31.33-.31.33.14.364.14.365h-.623Zm65.257.176-.18-.182.142-.37.142-.372h.737v.56l-.244-.15-.245-.152-.086.424-.086.424zm-37.92-.66-.165-.266.539.083c.296.045.62.164.722.265l.183.183h-1.116zm19.447-2.777v-.662h.794v1.323h-.794Zm-47.096-1.308c0-.21.119-.455.265-.545.145-.09.264-.394.264-.677 0-.59.102-.62.824-.233l.524.28-.18.58c-.21.672-.583.966-1.234.972l-.463.004zm-1.846-.938c-.208-.129-.449-.19-.536-.136-.087.054-.3-.13-.475-.41l-.316-.506.685-.173.686-.172-.356-.225-.356-.226.448-.004c.246-.002.529.129.629.29l.182.295-.327.201-.327.202.27.167.27.167.135-.332.134-.332.017.397a1.45 1.45 0 0 1-.185.713l-.201.317zm1.173-.78.152-.246-.273-.168-.273-.17.145-.234.145-.235.36.138.358.138-.133.512c-.074.282-.247.512-.384.512h-.249zm14.861-1.551c-.072-.117-.031-.372.09-.568l.22-.357.424.163.424.162v.811h-.514c-.282 0-.572-.095-.644-.211zm129.084-.054-.164-.265.479-.02.479-.021-.333-.134-.332-.134.152-.247.152-.246.247.152c.135.084.246.384.246.666v.514h-.381c-.21 0-.455-.12-.545-.265zM28.88 189.568c0-.163.119-.297.264-.297h.265V188.212H30.504l-.09.596-.091.595-.353-.075c-.193-.041-.518.062-.721.23l-.37.307zm150.286-.69-.327-.394.414-.16.414-.158.266.164.265.164-.149.389c-.19.494-.47.493-.883-.005zm-143.357-.6.09-.462h.779l.09.463.088.463H35.72zm12.017.089.117-.305-.598-.045-.598-.045-.092-.277-.092-.276h-1.08l.336.403.334.404-.17.17-.17.17v-.649l-.305.189-.306.189.19-.306.188-.305h-.592l.164-.265.163-.264h-.284c-.156 0-.49-.338-.743-.751l-.46-.751-.306.103-.306.104-.198-.32-.197-.32.306.19.305.188v-.494c0-.272.187-.725.416-1.008.23-.282.346-.372.26-.198l-.159.315.866-.106c.476-.059 1.47-.163 2.21-.231l1.345-.125.943.212.944.213.358-.226.358-.227-.265-.047c-.145-.026.628-.118 1.72-.206l1.984-.16.742.362.743.361.845-.155.845-.154.298.194.297.194-.213.57-.214.57-.812.179-.811.178v.516l6.945-.039c3.82-.02 8.761-.105 10.98-.187l4.035-.15v-.98l-.563.333-.564.333-.102-.278-.102-.277-2.179.21-2.178.211-.089-.265-.089-.266-.261.162c-.144.089-.846.18-1.56.205l-1.299.043-.146-.38-.145-.38.247-.247.248-.248 4.986-.098 4.987-.1.397.284.397.283-.397-.12c-.218-.067-.933-.029-1.587.084l-1.191.205 1.809-.022 1.808-.022.207.335.207.335.286-.82.286-.819.278-.033c.153-.018.427-.048.609-.066l.33-.033.04-1.455.04-1.455-.204.926-.203.926-.034-1.506-.035-1.506.264-.163.265-.164v-2.38l-.237.146-.238.146.1-.99c.054-.546.213-6.052.352-12.236.14-6.185.328-11.969.419-12.854.091-.885.204-3.087.251-4.895l.086-3.286-.226-.595-.225-.595-.472.004-.471.004.396.256.397.257-.544.004c-.3.002-.776.179-1.059.392l-.513.389-.596.008-.595.008v-.586l.388.149.389.149.156-.253c.086-.14.38-.253.654-.253h.498l.184-.296.183-.297-10.707.196-10.707.196-.573-.182-.573-.182v-.714l.33-.112c.395-.134-4.228.036-8.665.319l-3.175.202 2.183.038 2.183.038v.499l-4.635.004c-2.55.002-5.037.08-5.529.172l-.894.167-.155 1.365c-.13 1.144-.668 11.087-.668 12.345 0 1.6-1.677 21.088-2.15 24.996-.141 1.16-.243 2.351-.226 2.646l.031.536.236-1.415.235-1.416.527-.67.528-.671.03-.825.031-.824.121.463c.067.255.232.463.366.463h.246v-1.36l.378-.378c.499-.5.68-.477.681.085l.001.463.498-.818a6.364 6.364 0 0 1 1.25-1.408l.75-.59.087.258.086.26-1.336 1.832c-.736 1.007-1.337 1.92-1.337 2.03 0 .109-.414.82-.919 1.582-.505.762-1.102 1.823-1.326 2.36l-.408.976h.52l-.153.397-.152.397h-.48c-.679 0-1.315-.278-1.315-.573v-.252l.226.14.226.14-.125-.658c-.07-.361-.21-.71-.313-.773l-.186-.115.228-1.913.228-1.912-.139-.363-.14-.363.196.12.195.121.077-1.628c.042-.896.118-2.66.168-3.92l.09-2.29.22-.355.22-.355.074-1.985c.04-1.091.194-2.555.34-3.254.147-.698.267-2.028.267-2.954v-1.685l-.303-.1-.302-.102.328-.613.328-.613-.133-.697a17.013 17.013 0 0 0-.33-1.359l-.196-.661.214.197.214.197.312-.594c.171-.327.255-.699.185-.827s-.14-1.11-.156-2.183l-.029-1.95h.397v-1.852h-.594l.31-.374.31-.374-.028-1.147c-.015-.631.036-2.1.113-3.264l.141-2.117.536-.363.535-.363.004-.695.004-.695.256.396.257.397.004-.299c.002-.165-.393-.602-.878-.972l-.882-.673v-.834l.287-.004.286-.004-.397-.268-.397-.269.717.166.716.166.144-.62c.079-.342.11-1.128.07-1.746l-.074-1.125h.412v-1.16l-.425.514-.425.514.425-.718c.234-.395.425-.945.425-1.22v-.502l-.63.12-.631.12-.164-.265-.164-.265.161-.421.161-.421h1.298l-.136.22-.137.221h.64l.05-1.94.051-1.94h-.702l-.127-.665-.127-.665.427.07.427.069.084-.595.085-.596h-.851l.539-.579c.297-.318.54-.683.54-.81v-.23l-.257.16-.257.158-.172-.685-.172-.684.164-.164.164-.164v1.146h.471l.18-.96.18-.96-.26-.26-.258-.26.271-.777.271-.779-.163-.162-.162-.163v.648l-.24-.148-.24-.148.138.53.139.529h-.887l.17.276.171.276-.425.65c-.235.357-.55.65-.7.65h-.273l.412-.588.412-.588v-1.205h.246c.136 0 .326-.25.423-.555l.176-.555.636.121.635.121v-1.249l-.198.031c-.11.017-.328.017-.485 0l-.287-.031v-.797l.419.068.419.067.09-.638.09-.638.258.374.258.373-.094-.973-.095-.974.202.125.202.124.125-.606c.068-.333.197-1.46.286-2.504l.161-1.898-.61-.087-.608-.086-.085-.595-.085-.596h.23c.127 0 .39.15.587.331l.356.33-.214-.375-.215-.376.437.168.436.168-.034-.586c-.02-.322.058-1.568.17-2.768l.205-2.183h-.379c-.207 0-.52.143-.695.317l-.318.318v-.652l.463-.143a4.47 4.47 0 0 0 .86-.39 9.553 9.553 0 0 1 1.02-.513l.622-.268-.166-.43-.165-.43.376.311.376.312.755-.164a9.929 9.929 0 0 1 1.416-.19l.661-.025-.09-1.559-.091-1.558.324-.784.325-.783.07-1.646c.039-.905.084-1.943.101-2.307l.03-.661.257.397.257.397.004-.706.004-.705-.314-.105-.313-.104.45-1.126.45-1.126-.155-.251-.155-.252-.241.15c-.133.081-.035-.214.217-.656.251-.442.547-.805.656-.806.333-.003.205-.634-.243-1.192l-.424-.53.16.463.16.463h-.471l-.438-1.318c-.241-.726-.548-1.388-.683-1.471a.577.577 0 0 1-.244-.441v-.29l.514.465.514.465.187.833.187.832.101-.29c.056-.16-.04-.636-.214-1.059-.174-.422-.291-.918-.26-1.102l.054-.334-.476-.175c-.261-.097-.557-.3-.658-.451l-.184-.275.203-.273c.112-.15.216-.542.233-.87l.03-.595h-.519l.078-.463.077-.463-.33.067-.331.066-.026-.463-.027-.463-.212.661-.212.662-.026-.442c-.014-.242-.315-1.016-.668-1.72a22.778 22.778 0 0 1-1.04-2.469l-.398-1.19.051-.973.052-.973-.382.312-.38.31.292-.528.293-.53-.381-.42-.381-.42-1.254.195-1.254.197-.724-.139-.724-.139-.665-.616-.665-.617v-.411c0-.227-.363-.913-.807-1.525l-.806-1.113.079-1.047.078-1.047.317-.104.317-.104-.11 1.01-.11 1.009.15-.53c.082-.29.257-.642.388-.78a.973.973 0 0 0 .24-.576v-.324l-.464-.135-.463-.134.926.035c.51.02 1.06.133 1.224.252l.297.217 1.186-.508 1.186-.509.354-1.282c.195-.705.364-1.461.376-1.68l.022-.396.595.064.594.064.307-.674.307-.674.33.61.33.61.394-.926c1.119-2.63 4.964-5.641 9.035-7.073l1.852-.652 3.175-.121 3.175-.122 1.852.646 1.852.645.132-.167c.073-.092.565-.168 1.094-.168h.96l.516.463c.283.255.654.463.824.463h.31l-.004.596-.004.595-.201-.317-.201-.317-.31.192-.31.192.779.522c.428.287.78.65.78.806 0 .157.275.543.61.858l.611.574.312-.312.312-.312-.459-.526-.46-.525.309.18.308.179.111-.2c.062-.11.077-.055.035.122-.043.177.038.394.18.481l.257.16-.152.246-.153.246.347.004.346.004-.365.231-.364.231.207.335.207.335-.28-.173-.282-.174.14.534c.077.293.243.597.37.675l.229.142-.174-.454-.175-.454.271.167c.149.092.478.828.732 1.634l.461 1.466-.092 2.463-.091 2.463-.974 1.961-.974 1.961.312.402.313.402-.435-.34-.435-.34-.888 1.027c-1.884 2.177-6.022 4.492-8.871 4.964-.412.068-1.069.19-1.46.269l-.713.144.136.354.136.354 1.146.092 1.147.09-.106-.17c-.058-.094.065-.236.273-.316l.378-.145.09.267.088.266 2.055-.791c1.13-.435 2.58-1.1 3.224-1.476l1.169-.685 1.771-1.782 1.772-1.782.883-1.852.884-1.852.294-1.587.295-1.588-.153-1.303-.152-1.302-.272-.272c-.15-.15-.272-.545-.272-.88v-.609h.53v.397c0 .219.089.383.198.366.11-.017 1.915-.017 4.013 0l3.814.031-.201.199-.202.198h-6.432l.054.53c.105 1.027.796 4.028 1.006 4.367l.213.344-.35-.216-.351-.217.217.506c.12.279.382 1.34.583 2.359.2 1.019.54 2.626.754 3.572.214.946.389 1.91.388 2.142v.423l.854.024.854.025.138-.218.138-.218 1.39.286 1.388.286-.004.41-.004.412-.256-.397c-.363-.561-.325-.217.09.827l.355.893-.116 2.778c-.14 3.362-.15 3.889-.102 4.844l.037.743.265-.163.265-.164v.28c0 .154-.106.28-.234.28-.129 0-.302.262-.386.582l-.152.582.286.344.286.345-.264.33-.264.331-.13 3.774-.129 3.775.361-.696c.199-.383.361-.86.361-1.062v-.367h.529l.004 3.77.004 3.77.234-.369.234-.369.423.163.424.162v.754l-.397.152-.397.153-.018-.323-.019-.322-.208.529-.208.529.269.595c.148.328.365.596.483.596h.214l-.17-.445-.171-.444.634.444c.823.576 1.046.56 1.046-.072v-.518l.662-.661c.364-.364.661-.799.661-.966v-.305l.419.16c.23.089.557.173.727.187.17.015.012.11-.352.21l-.661.185.396.12c.219.066 1.35.053 2.514-.03l2.117-.15-1.588-.083-1.587-.084 2.249-.245 2.249-.244 1.978.308c2.535.396 5.421.55 12.24.655l5.488.084.15-.244.15-.244 3.094-.037 3.093-.038-1.058-.19-1.058-.189 1.669-.037 1.67-.038-.14.227-.14.226.681-.13.682-.13.232.366c.128.202.234.635.236.963l.004.595h.474l-.039.672-.038.671-.558-.073-.559-.073-.44.365-.44.365.167-.434.167-.435h-.41c-.225 0-.483.12-.573.265-.09.145-.276.264-.414.264h-.252l.33-.529.331-.529h.334c.391 0 .444-.43.08-.654l-.253-.157.149-.388.149-.388h-.293c-.161 0-.293.108-.293.24v.24l-.57-.15-.571-.15.166.27.167.27-2.176.127c-1.196.07-3.961.1-6.144.069-2.183-.032-7.998-.082-12.923-.11l-8.953-.052-.153.152c-.083.084-.6.152-1.147.152h-.996l-.391.391-.391.392.136 1.016.136 1.017-.425.425c-.234.234-.425.603-.425.82v.393l.325.108.325.109-.505.77-.506.772-.02 8.47-.018 8.468-.213.33-.213.332h.596l-.136.463c-.143.484-.408 4.997-.553 9.394l-.085 2.582.896-1.126c.492-.62.896-1.276.898-1.458 0-.182.121-.33.267-.33h.265v-.676l.82-.72c.452-.397.922-.721 1.046-.721.123 0 .34-.207.482-.46l.258-.462.197.198.197.197-.574.611-.574.611v.874l-.53.283-.529.283v.759l-.427-.164-.428-.164.187.588.187.587-1.142 1.054-1.14 1.054.389.25.39.25-.395.254-.394.254.262.237.262.237 2.646.324 2.646.325 7.54-.137c4.148-.076 10.28-.185 13.627-.244 3.347-.059 7.097-.208 8.334-.333 1.237-.125 2.792-.233 3.457-.24l1.207-.015-.104-.661-.103-.662.3.397.301.397-.14-1.323c-.078-.727-.226-2.394-.33-3.704-.103-1.31-.207-2.5-.231-2.646-.024-.145-.06-.383-.08-.529-.047-.329-.226-6.111-.464-14.977l-.181-6.775.3-.186.301-.186V110.923l.293.181.293.181-.359.224-.359.223.333.537.333.538h-.534v1.354l.199-.123.198-.123-.051 3.348-.052 3.349.202-.662.202-.661.175 5.556c.096 3.056.228 5.914.293 6.35.066.437.191 2.55.28 4.697l.16 3.902-.34.03a7.605 7.605 0 0 1-.869.003l-.529-.028.595.253c.328.14.608.288.623.329.015.04.078 5.373.14 11.848.062 6.476.267 15.816.456 20.755l.345 8.98.31.104.31.103-.005.441-.004.441-.256-.397-.257-.397-.004.586-.004.586-.512.274-.511.274h-2.246l-.68.812-.681.811-.794.11c-.436.061-1.805.115-3.041.12l-2.248.008-.09-.27-.09-.271-.242.15-.242.149-.313-.194-.313-.193.511-.186.512-.186.474.247.474.246.96-.081.961-.081.13-.397.13-.397-.383.316-.383.315-1.05-.243-1.048-.243-2.695-.006-2.694-.006-.167-.527c-.092-.29-.112-.617-.044-.728l.124-.2 3.664.132c2.015.073 4.064.088 4.553.034l.89-.099-.36-.255-.361-.255.595.13.595.13.126-.204.127-.204.692.132.692.133-.355.233-.355.233 1.852-.152a303.34 303.34 0 0 1 2.582-.202l.73-.051-.18-.397c-.27-.595-.554-6.993-.764-17.198l-.188-9.128-.249-.48-.248-.48.237-.314.236-.313.049-6.26.049-6.26-.272-.715-.272-.715-7.073.2c-3.89.11-7.549.23-8.131.268-.582.037-6.364.08-12.848.094l-11.79.026-.434.33-.434.332-.061 2.91c-.034 1.6-.028 6.505.012 10.899l.074 7.988-.267.875-.267.876-.164 4.233c-.22 5.7-.642 11.262-.932 12.27l-.236.827h.492v-1.22l.926-.897c.51-.494.926-1.026.926-1.184 0-.157.238-.49.53-.739.29-.25.536-.603.545-.786l.018-.334 1.59-1.455c.876-.8 2.118-1.978 2.761-2.616.644-.639 1.17-1.07 1.17-.96v.201l.382-.316.38-.316-.16-.42-.161-.419 1.037.176c.57.096 3.834.247 7.254.336l6.217.16 4.81-.28 4.81-.28 1.309-.664 1.309-.663.182-.475c.1-.261.186-.535.191-.608.005-.072.104-.31.22-.529l.211-.397.173-4.498.172-4.497-.303-5.821-.302-5.821-.325-1.648-.325-1.647.308.256c.17.14.368.197.44.125.072-.071.15.357.173.953.023.595.095 1.168.16 1.273.065.105.214 2.208.332 4.673l.214 4.482-.08 6.457-.081 6.456-.42.82a6.373 6.373 0 0 1-1.101 1.454l-.68.635-1.333.449-1.332.448-2.91.107c-4.734.174-13.266.103-16.541-.137l-3.047-.223-.856.72c-.47.396-.856.814-.856.93 0 .115-.49.73-1.09 1.365-2.387 2.528-3.08 3.31-3.723 4.199-.369.51-1.05 1.332-1.514 1.828l-.843.902.344.218.344.219-.33.004-.331.004v.85l-.397-.152-.397-.153v.434l1.984-.128 1.985-.127v.764l.742.711.742.711 3.028.03 3.028.03-1.058.22c-.582.12-2.06.226-3.282.234l-2.224.015-.966-1.016-.967-1.016-1.948.098-1.949.099-.215-.34-.215-.338-.002-1.72c0-.946.114-3.03.255-4.63.14-1.601.335-4.578.431-6.615.096-2.037.268-5.014.382-6.615.114-1.6.295-7.373.403-12.828l.196-9.917.335-.335c.185-.184.552-.343.817-.352l.482-.017-.605-.243-.605-.243.14-1.261c.077-.694.262-5.25.41-10.125l.272-8.864-.113-6.88c-.128-7.848-.091-7.262-.425-6.746l-.256.397-.013 2.646a71.982 71.982 0 0 1-.282 5.424l-.268 2.778-.096 10.848-.095 10.848-.186.465-.185.465-.633.159-.632.159v.272c0 .15.199.418.441.596l.442.323-.324 8.035c-.178 4.42-.391 13.752-.474 20.74l-.15 12.706-.225.596-.226.595h-.744l-1.059 1.058-1.058 1.059-1.023.045c-.563.025-2.453.061-4.199.082l-11.322.13-8.146.095-.681.353c-.375.194-.816.345-.982.334l-.3-.018.53-.23.528-.23-1.256.027-1.257.027v.443H50.822l-.675.442-.675.442-.238-.376-.238-.376-.006.265c-.003.145-.293.397-.644.56l-.637.295zm-.1-2.623-.602-.334 2.586.076 2.586.075-.333-.152-.332-.152.15-.242c.082-.133.395-.242.695-.242h.546l-.33.397-.329.397h.625l-.163.264-.164.265h2.585l.608-.647.608-.648.563-.11.562-.11-.724-.036-.725-.036-.519.444-.518.444.15.244.151.243-.627-.345-.627-.345-.463.07-.463.072v-.621l.86.157.86.157.396-.263.397-.263-2.249.069-2.249.069.047.274.048.274h-.982l.15-.243.15-.243-1.558.155-1.559.154.661-.223.662-.224-1.852.141c-1.019.078-1.901.183-1.96.235-.06.051.107.332.37.624l.481.531 1.216-.009 1.216-.009zm3.582.163c-.398-.06-1.112-.061-1.587-.003l-.865.107 1.587.003 1.588.003zm28.01-.406c-.286.476.038.407.616-.132l.497-.463-.705-.043-.706-.042-.195.307c-.107.169-.197.41-.2.538l-.003.23.447-.363.448-.363zm45.688-1.356.315.177-.316-.342-.316-.34-.818-.065-.818-.065.605.571.604.57.215-.34.215-.343zm-50.287.17a15.155 15.155 0 0 0-2.249 0l-1.124.101h4.498zm46.258-.19.242.15v-.505l-1.124-.117c-.618-.065-2.375-.144-3.903-.175l-2.778-.058.265.263.264.264 3.242.059 3.24.059.022.288.02.288.135-.332.134-.333zm-67.023-.335c-.398-.06-1.112-.061-1.588-.003l-.864.107 1.587.003 1.588.003zm12.65-42.938h.905v-.529h-3.704v.493l.595.113c.328.063.754.07.948.019.194-.053.76-.096 1.257-.096zM47.4 140.39l.002-.33h.476c.262 0 .637-.15.833-.331l.356-.33-.184.326-.184.326 4.312-.13c2.372-.072 4.993-.195 5.824-.273l1.511-.142.784.405.783.405.092-.278.093-.278 1.053-.025c.578-.014 2.362.01 3.962.055l2.91.08-1.057.19-1.059.19.53.055.529.056-.53.228-.529.227 1.588.015 1.587.014-.397-.256-.397-.257.463-.004.464-.004v-.577l5.335.09 5.336.09.11.331c.061.182.243.33.406.33h.295l-.317-.317c-.175-.174-.318-.472-.318-.661v-.344h1.38l-.152-.397-.153-.397h.795l.214.58.215.58.155-.646c.086-.355.191-2.327.235-4.382l.078-3.737-.356-.43-.356-.429.136-.52.136-.521-.37-.307c-.203-.169-.369-.435-.369-.592v-.285l.317.318c.175.174.409.317.52.317h.203l-.02-3.638-.019-3.638-.268-.33-.269-.331.306-.369.306-.368.008-1.682c.005-.926.023-3.022.042-4.659l.033-2.977h.428v-1.323h-.529v-.737l.397-.152.397-.152v-.658c0-.361.142-.968.315-1.348l.315-.692.478.125.479.125.1-.173c.054-.096.17-.888.257-1.761l.159-1.588-.153.347-.153.347-.502-.454-.501-.454v1.109l-.274.169-.274.169.12-.664.121-.664-.812-.283-.813-.283h-2.46l-.286-.286-.285-.285-3.803.132c-2.091.072-3.921.152-4.067.178-.145.025-4.938.03-10.65.01l-10.384-.037v-.23c0-.128.14-.279.312-.336l.312-.104.062-.91c.034-.5.132-1.625.218-2.498.086-.873.226-2.659.312-3.968.087-1.31.21-2.466.273-2.57.064-.103-.264-.937-.73-1.852l-.847-1.664-.196.794c-.179.722-.702 8.026-.822 11.464l-.049 1.41.379.24.379.24-1.244.003a14.54 14.54 0 0 0-2.513.28l-1.27.275-.575.452-.575.452-.434 5.027c-.696 8.07-1.954 19.977-2.534 23.998-.522 3.615-.523 4.654-.006 3.36l.254-.635.016.675.017.675-.33.348-.331.349.578-.349.578-.348.132-.503.131-.503.283.175.282.174v-.56h-.629l.58-.54c.318-.297.578-.654.578-.794s.099-.254.219-.254h.219l-.119.86-.119.86-.396.452c-.418.479-1.643 2.977-1.789 3.649a7.173 7.173 0 0 1-.286.903l-.2.507.35-.217.351-.216-.189.305-.189.305.147.237.146.237 2.117-.038 2.116-.039zm36.863-3.505v-1.72l.107.86a8.42 8.42 0 0 1 0 1.72l-.107.86zm-.005-3.44v-1.455l.11.727c.061.4.061 1.055 0 1.456l-.11.727zm-38.425-1.124-.018-.728h.264c.31 0 .31.203 0 .926l-.227.53zM54 128.06c-.08-.087-1.084-.177-2.23-.2l-2.082-.04-.284-.224a74.13 74.13 0 0 1-1.077-.89l-.794-.666.87.42.87.419 2.703.249 2.701.249 4.895.003 4.895.003 3.498-.27c3.887-.3 4.545-.408 5.91-.98l.941-.396.438-.842.437-.843.3-1.984.3-1.985.117-8.262.117-8.263-.473-.727-.473-.727.703.523.704.523.192 3.042.193 3.042-.178 4.503c-.155 3.91-.285 5.554-.803 10.132l-.1.875-.685 1.036-.685 1.035-.76.393c-1.219.63-1.835.677-11.148.85l-8.864.163zm4.648-8.635-.16-.26.872.166c1.17.223 1.271.355.272.355h-.823zm7.34-.108c.255-.193.463-.482.463-.642v-.29l-2.05-.094-2.05-.093 2.113.016 2.114.016.095.498.095.497-.357.226c-.196.125-.476.225-.621.222l-.265-.004zm-5.575-2.343.048-1.39.098 1.24.099 1.241.581.113.582.113-.728.036-.727.036zm.284-4.3.005-1.058.115.598c.063.33.061.806-.005 1.059l-.12.46zm-12.509-3.253.128-1.245.09 1.027.09 1.027-.218.218-.217.217zm10.855.525c0-.348.845-.844 1.438-.844h.414v.513l-.407-.156-.407-.156-.519.47-.52.47zm4.476 30.81c-.06-.053-.378-.236-.706-.406l-.595-.31v.812h.705c.388 0 .656-.043.596-.096zm15.632-.171 1.984-.043-.702-.212-.702-.212-2.076.09c-1.142.048-3.006.095-4.142.102l-2.066.013.16.258.158.257 2.701-.105c1.485-.058 3.594-.125 4.685-.148zm6.356-40.21c-.493-.305-.648-.15-.427.426l.174.452.32-.32.32-.32zm-1.237-1.26c.093-.983.17-3.394.171-5.358.001-1.965.128-6.668.283-10.452l.28-6.879-.153-.82-.152-.819-.67-.305-.67-.305h-2.356v1.134l1.195 1.398 1.194 1.398-.13 5.377c-.07 2.958-.162 7.997-.202 11.199l-.072 5.82.46-.036.46-.036-.145.235-.145.234h.484zm-19.257.963.181-.293-.595.19-.595.188.208-.338.21-.338-.463.178c-.254.097-.75.177-1.101.177h-.64v.529h2.614zm56.504.054-.365-.23-1.32.09c-1.997.135-1.854.38.22.375l1.83-.004zm-50.039-.177c0-.083-.171-.322-.38-.531l-.381-.381.04.532.04.532h.34c.188 0 .341-.068.341-.152zm6.132-.079-.35-.222-2.691.115c-3.703.157-3.573.338.239.333l3.152-.004zm4.022-1.235.172-1.466-.303-.566c-.166-.311-.393-1.17-.504-1.908l-.202-1.341-.012 1.587c-.006.873-.08 1.915-.165 2.315l-.154.728h.27c.148 0 .27.126.27.28v.28l-.265-.163-.265-.164v.8l-.926.44c-.51.241-.926.485-.926.541 0 .057.638.103 1.419.103h1.418zm-20.803.236 1.389-.167v-.491l-.552.175-.552.175.265-.496.266-.495-.64-.616c-.352-.338-.64-.727-.64-.864v-.248l-.435.078-.435.077-.114-.396-.114-.397.28.397.281.396.004-.573.004-.573-.33-.112-.331-.112-.32.685-.32.685.143-.698.143-.698-1.146-1.081c-.63-.595-1.287-1.084-1.46-1.088l-.315-.007-.174 1.16-.174 1.16.276 1.773.276 1.772.311.375.311.375 1.357-.002a28.206 28.206 0 0 0 2.746-.17zm-3.374-.305c0-.275.574-.847.85-.847h.213l-.33.53c-.334.534-.733.707-.733.317zm2.382-.244c0-.333.756-.993.934-.815.07.07-.112.343-.404.608l-.53.48zm-1.752-1.252-.147-.384.17-.277c.296-.477.538-.304.538.384v.662h-.207c-.114 0-.273-.173-.354-.385zm14.918 1.79c-.253-.066-.73-.068-1.059-.005l-.598.115 1.058.005 1.059.005zm4.691-.08.162-.26-.422.16-.421.162.042-.23c.023-.127.024-.588.003-1.025l-.04-.794-.281.485-.282.484.13.494.128.494-.434.115-.435.116.844.03.845.031zm-11.383-.222.684.311.31-.31c.17-.17.472-.31.67-.31h.36l-.164.264-.164.265h.289c.159 0 .357-.179.44-.397l.153-.397h.737l.008.33.008.331.376-.496.376-.496.405.155.405.156-.13.34-.128.341 2.051-.024c1.129-.014 2.268-.044 2.53-.066l.48-.042-.189-.305-.188-.304.391-.29c.215-.16.462-.566.549-.902l.157-.61-.376.312-.376.312v-.282c0-.154.125-.358.278-.452l.277-.172-.066-.44-.066-.439.432-.794.433-.793-.148 1.483-.147 1.483.579.406.579.405.022.78.022.778h.692l-.136-.22-.136-.22.346-.008.347-.008-.463-.27c-.255-.149-.463-.39-.463-.537v-.267l.293.181.292.181-.151-.496c-.083-.273-.175-1.032-.203-1.687l-.052-1.19-.395-.463c-.218-.255-.552-.463-.743-.463h-.348l.174-.464.173-.463-.38.287c-1.892 1.427-2.485 1.817-2.848 1.87-.231.034-.842.239-1.358.455-.515.217-1.651.6-2.524.85-.873.252-1.7.558-1.84.681-.137.123-.353.223-.478.223h-.227l.164-.264.163-.265H66.98l-.008.463-.008.463-.27-.463-.27-.463H64.07v.255c0 .14.223.375.495.52l.494.265.167-.167.167-.168v.628l-.661-.166-.662-.166v.265c0 .146.179.333.397.417l.397.152-.004.34-.004.338-.257-.396-.256-.397-.004.286c-.002.158.071.362.163.454l.167.167.48-.256.479-.257zm-2.36-.333.179-.287-.295-.295-.294-.294v.863l-.596.114-.595.115.712.036.712.036zm21.212-2.424-.106-.86v3.44l.106-.86a8.42 8.42 0 0 0 0-1.72zm-22.477 1.962.336-.213-.667-.357-.666-.357v-.704h-.794v.262c0 .144.238.411.529.593l.53.33v.334c0 .381.248.419.732.112zm.334-1.036.008-.463.388.514c.417.55.536.26.147-.354l-.234-.37-.42.162-.42.161.028-.189a2.01 2.01 0 0 0-.008-.453l-.035-.265-.236.374-.236.373.304.486c.383.615.703.625.714.024zm16.326-4.092-.097-1.398-.001 2.646-.001 2.646.099-1.248c.054-.687.055-1.877 0-2.646zm2.745 3.135-.3-.361.069-.499.07-.498-.265-.132-.265-.133-.083.588-.084.588.348.394c.192.217.452.4.58.405l.23.01zm-20.873-.342-.867-.428-.184.183-.183.184.39.246c.213.135.686.245 1.05.244l.661-.002zm18.656-3.067-.101-1.124v4.498l.101-1.125c.056-.618.056-1.63 0-2.249zm-25.14.927-.11-.728v2.91l.11-.727c.061-.4.061-1.055 0-1.455zm15.554 1.727 1.322-.29 2.065-1.03 2.064-1.03.154-.404.155-.403.653-.248.652-.248-.168-.438-.168-.437.869-.897c.477-.493.85-.979.826-1.08-.023-.1.044-.338.15-.527l.192-.343.584-.044.584-.044-.11-.286-.109-.286.558-.042.558-.042.203.318.202.319.004-.977.004-.976-.264-.164-.265-.163.031-.712.032-.712.174.793.174.794.192-.485c.105-.267.267-1.13.36-1.919l.168-1.432h-.658l.143.374.144.375-.225.75-.225.75-.023-.604-.022-.604-.403-.154-.403-.155.004-1.49c.002-.82-.01-1.938-.025-2.483l-.029-.993h-.227c-.124 0-.403-.342-.62-.76l-.392-.76.165-.166.166-.166h-.674l.18.728.179.727-.293-.287-.293-.287-.127-1.036-.128-1.035.223.51.223.51.185-.482.184-.48-.17-.559-.172-.558.197.186.196.186.376-.376.376-.375-.177-1.332-.177-1.331h-.507l.179-1.059.179-1.058h-.607l.163-.265.164-.264h-.528l-.178 1.188-.179 1.188-.234-.146-.235-.145v.397c0 .218.119.47.264.56.146.09.265.354.265.586v.423l-.515-.466-.514-.465-.084-.7-.083-.7-.493.996c-.496 1.005-.885 1.413-1.12 1.178-.07-.07.174-.573.543-1.116l.67-.989-.154-.25c-.203-.328-.358-.157-.493.543-.06.31-.179.679-.264.818l-.156.252-.322-.12-.323-.12-.503 1.052-.503 1.053-.489.155-.489.155-.031.313c-.017.172-.013.417.01.544l.043.23-.383-.146-.383-.147-.461.51-.462.51-.82.247c-1.951.587-4.367 1.545-4.234 1.677.159.159-.968.394-2.01.42a7.014 7.014 0 0 0-1.268.168l-.606.152.194.323.194.323-.396-.32-.397-.321-2.63-.009c-1.448-.005-2.96-.033-3.36-.063l-.727-.054v-.455l-.257.159-.257.159-.61-.4-.61-.4-1.58-.133-1.58-.132 1.088.455c.598.25 1.253.588 1.455.75l.367.295.872-.008.873-.008.394.394.394.394-.167.434-.166.433-.488.155c-.268.085-.538.298-.599.473l-.111.319.07-.463.069-.463h-1.04l.18-.291.18-.291-.594.317-.593.317.163-.263.163-.263-.396-.152-.395-.152.008.323c.005.177.183.553.397.836.214.282.385.64.38.794l-.008.28-.39-.515-.389-.515-.306.306-.306.306.674 1.49.674 1.49.113-.342.114-.341.173.45.172.449h-.512V84.465l.277.171.277.172-.066.44-.067.439.382.595.382.595H55.396l-.144.375-.144.375.385.148.385.148-.151.858c-.166.94-.376 1.311-.408.72-.047-.858-.233-1.429-.495-1.516-.153-.052-.287-.292-.297-.534l-.019-.441-.21.529-.212.53.362.21.362.212V89.522l.955 1.057.955 1.057.216-.134.217-.134.161.508c.09.28.34.577.56.661l.397.153-.073-.327c-.04-.18.085-.703.277-1.164l.35-.838.506.434c.278.238.506.572.506.74v.308l-.53.138-.528.139v1.018l.727.375c.4.207.85.531 1 .721l.271.346.055-.663.055-.663-.235-.146-.236-.146.139-.53.138-.53-.293-.354-.294-.354.174-.174.174-.174h-.576l-.252-.86a8.701 8.701 0 0 1-.29-1.72l-.037-.86h.22c.12 0 .717.54 1.326 1.198l1.109 1.198v.37c0 .205-.175.546-.388.759l-.387.387.85.174c.468.095 1.239.24 1.713.322.474.082.928.255 1.008.384l.145.236-.743-.012c-.409-.006-1.218-.18-1.798-.387l-1.055-.376-.237.237-.237.238.21.48c.115.265.206.762.202 1.105l-.007.624 1.05.47 1.05.47 2.817.014 2.818.015zm-2.654-5.002-.181-.826.359-.228c.552-.35.626-.3.967.643.428 1.184.414 1.238-.322 1.238h-.64zm4.692-.694c.095-.564.454-.85 1.07-.856l.463-.004v.775l-.511.274c-.282.15-.644.274-.806.274h-.293zm-6.404-2.167v-.545h.529v.381c0 .21-.119.455-.264.545l-.265.163zm7.464-1.471.084-.53h.78l.088.464.09.463h-.568l-.004-.331-.004-.33-.275.396-.275.397zm6.03-1.39c0-.478.59-1.653.83-1.653h.217l-.31.728c-.17.4-.405.84-.523.979l-.214.251Zm-1.32-1.439c.003-.19.12-.525.261-.743l.257-.397.004.58.004.58-.265.163-.264.163zm-19.878-2.884-.366-.232.794-.032.793-.031-.992-.264-.992-.263v-.5l.992.178c.546.099 1.083.231 1.194.295l.202.115-.238.425c-.281.502-.874.634-1.387.309zM69.163 78.5c-.182-.073-.331-.243-.331-.376v-.242h.381c.21 0 .448-.108.53-.24l.148-.24-.596.15c-.327.083-.671.266-.764.406l-.169.256-.307-.19-.307-.19.31-.373.31-.373h.928l.308-.371c.301-.363 1.35-.755 2.135-.798l.393-.022.093.483.093.483-.486.37-.487.37-.31-.11-.312-.11-.317.382c-.174.21-.51.383-.747.385l-.43.004.397.257.397.256-.265-.017a2.361 2.361 0 0 1-.595-.15zm6.813-.997v-.415h.56l-.15-.242-.148-.24.464.067.464.068v1.008l-.595.085-.595.084zm-3.626-1.71-.313-.502.469-.425c.611-.553.733-.536.907.13.307 1.174-.466 1.752-1.063.796zm1.294-1.682.083-.595.397-.18.397-.18-.53-.022-.529-.023.36-.228.36-.228.5.13.5.131-.004.3c-.002.165-.075.568-.163.895l-.16.596h-1.294zm4.448-.419v-.308H77.3v-.825l-.265.163-.265.164v-.28c0-.155-.119-.28-.264-.28h-.265l-.02.462-.021.463-.141-.353-.141-.353.465-.865.466-.864.44.424.439.424-.105.529-.105.53.25-.353.25-.352.172.857c.094.472.111.918.037.992-.073.074-.134-.005-.134-.175zm.467 18.014-.097-.728-.214.99-.214.99.212.466.212.465.1-.728c.054-.4.055-1.055.001-1.455zm3.498-1.72-.004-1.653-.256.396-.257.397-.004 1.257-.004 1.257h.529zm-20.633.382c0-.264-.189-.71-.419-.993l-.418-.513.18.529c.098.29.218.708.265.926.119.544.111.53.26.53.072 0 .132-.216.132-.48zm20.108-12.07c0-.084-.179-.152-.397-.152h-.397v1.096l.397-.397c.218-.218.397-.465.397-.548zm-29.751.354.177-.287-.23-.23-.23-.231-.363.224-.362.224.181.294c.231.374.598.377.827.006zM47.96 75.69c-.162-.162-.295-.397-.295-.522v-.227l.265.163c.474.293.28-.026-.412-.675l-.676-.635.175.523c.097.288.361.94.588 1.449l.413.926.118-.354.118-.354zm12.939.34.421-.396-.279-.195c-.153-.107-.926-.196-1.717-.198l-1.438-.004-1.737-.433c-2.302-.574-4.085-1.391-5.75-2.636l-1.368-1.023-.82-1.254c-.452-.69-.89-1.465-.973-1.724l-.151-.47.58.859.579.86.28-.174.28-.172-.14.239-.14.24.512.525.511.526-.173-.526-.173-.526.25.35.252.35 1.03-.19c.567-.104 1.11-.31 1.205-.458l.174-.268-.136-.355c-.075-.195-.256-.355-.403-.355h-.267l.13.501.132.501-.431-.07a1.112 1.112 0 0 0-.762.193l-.33.263V68.854l.276.171.276.17.382-.317.383-.317-.17-.275-.17-.276.26.16.26.162.855-.782c.47-.43.948-.781 1.062-.781.114 0 .42-.235.68-.523l.474-.523.211.13.211.131.373-.532.373-.532.153.154.153.153.295-.552c.163-.303.418-.552.567-.552h.27l-.163.265-.164.264h.28c.155 0 .28-.112.28-.25 0-.136.507-.553 1.125-.925l1.125-.676-2.117.18c-1.164.098-2.682.187-3.373.196l-1.257.016-.004.4-.004.398-.229-.36-.228-.361-.144.36-.144.36-.227-.318-.227-.318-.984-.066-.984-.067v-.553l2.25.042 2.25.042-.108-.174-.107-.175 2.003-.057 2.002-.057.274-.274.273-.273-.648-.004-.648-.004.397-.257.396-.256-.33-.004-.331-.004v-.876l.5.452.499.452 1.181.11 1.181.111.607-.645.607-.646.208.128.208.129.415-.593.415-.592.004.39.004.39.194-.29c.107-.16.537-.375.956-.477.42-.103 1.172-.466 1.674-.807l.912-.62-.299-.184-.298-.185-.45.512c-.593.677-1.466 1.124-2.196 1.124h-.592l-.44.398-.44.398v-.398c0-.219.085-.398.188-.398h.187v-1.383l.364-.23.364-.23-.33-.005-.331-.004v-.279c0-.153.356-.66.792-1.124l.793-.846.01-.53.01-.528.409.529.409.53-.087-.53-.087-.53h.397c.218 0 .475-.108.57-.24l.175-.24-.145-.377-.144-.377-.224.353-.224.353-.004-.34-.004-.338.381-.147.381-.146-.281-.618-.282-.619-.364.14-.364.14v-.536l-2.254-.024-2.253-.025-.459.25c-.252.137-.9.32-1.44.406l-.984.157-.182.296-.183.295.372-.216.372-.215-.207.226c-.113.125-.38.252-.595.284l-.39.057v-.241c0-.406-.5-.27-1.057.288l-.53.529v-.543l-.832.43-.832.43.37.235.368.233-.277.004c-.153.003-.413-.13-.577-.295l-.3-.299.06.405c.032.223.2.575.374.784l.315.38h-.762l.118-.19c.065-.106-.067-.344-.291-.53l-.41-.34.047.243c.025.134.032.397.015.586l-.031.342-.331-.043c-.651-.084-1.256.023-1.226.218.078.494-.054.86-.311.86h-.28l.163-.264.164-.265h-.24c-.13 0-.45.234-.708.52l-.47.519.18.472.18.473-.325-.322-.324-.322-.618.837c-.74 1.003-1.677 3.413-1.649 4.24.011.327-.05.892-.138 1.256l-.159.661.158-.33.157-.331H48.195v.594l.397-.33.397-.329-.008.231c-.005.127-.168.442-.364.7l-.356.47-.139-.531-.139-.531-.82.286c-.852.297-1.056.64-.49.828l.327.11-.43.43-.43.43-.162-.815c-.258-1.287-.194-2.372.235-4.021l.4-1.531-.234-.416-.232-.416-.587 1.56c-.323.859-.677 2.122-.786 2.808l-.2 1.247.248 1.663.248 1.664.936 1.79.936 1.789 1.515 1.402 1.514 1.402 2.09 1.07c1.83.938 2.91 1.32 4.998 1.772.291.063 1.18.097 1.974.075l1.445-.04zm-3.303-18.506-.172-.279.163-.265c.09-.145.344-.264.564-.264h.401l-.086.441c-.047.243-.223.487-.392.543l-.306.102zm-2.747-1.497-.358-.404.153-.153.152-.152.404.334c.424.352.542.806.204.79-.109-.006-.359-.193-.555-.415zm5.418 18.015c-.537-.537-.54-.657-.018-.657h.412l-.14.226-.14.225.666.304c.809.368 1.187.39.641.038l-.397-.256.463-.004.463-.004v.529h.397c.219 0 .397-.095.397-.21v-.211l.96-.065c.528-.035 1.391-.257 1.918-.492.527-.235 1.048-.408 1.157-.386.11.023.198-.128.198-.334 0-.206-.089-.425-.198-.486-.11-.06-.036-.07.162-.019l.36.092-.153-.4-.154-.4h.513v.825l.264-.163c.146-.09.265-.375.265-.632v-.47l.595-.285c.328-.157.802-.35 1.054-.431l.459-.146-.157-.407c-.086-.224-.262-.407-.392-.407s-.236-.117-.236-.26v-.258l1.196.052 1.197.052-.154.405-.154.406.346-.344c.19-.19.347-.487.347-.662v-.317h.777l.6-1.059.598-1.058.008-.661.008-.662.257.397.256.397.004-.463c.006-.682 0-.658.393-1.416l.363-.7-.139-.363-.139-.362-.303.17-.303.169.33-.356c.183-.196.332-.512.332-.7v-.345h-.75c-.412 0-.814.065-.892.143-.08.079-1.081.187-2.227.242-1.147.054-2.68.17-3.407.258-.728.087-2.074.203-2.992.258-.917.054-1.74.172-1.83.26l-.161.162h1.081l.35.463.351.463-.37-.33c-.205-.182-.582-.331-.84-.331h-.468l.15.389.15.39-.83-.414-.829-.414-.353.294-.354.293-.43-.165-.43-.165-.005.491-.004.491-.256-.396-.257-.397-.004.695-.004.695-.408.339-.408.338-.306-.306c-.168-.168-.49-.304-.716-.302l-.41.004.396.256c.219.142.338.269.265.283-.073.014-.37.056-.661.092a6.67 6.67 0 0 0-1.059.242l-.529.176-.306.662-.306.662h.568l-.159.159-.159.159-.283-.175-.282-.175.28-.58.28-.578-.424.529c-.232.29-.507.533-.61.538-.102.005-.454.158-.782.34l-.595.33v.776h-.985l.129.672.128.672-.84.318-.842.317.122.466.122.466-.28-.173-.282-.174.21.34c.116.187 1.221.814 2.456 1.392l2.246 1.053 1.023.037c.563.021 1.024.108 1.025.193 0 .085.731.181 1.623.214l1.621.058zm5.44-1.434.32-.512.225.139.224.138-.31.374c-.17.205-.415.373-.544.373h-.234Zm-3.714-8.189-.357-.226.118-.497.117-.498.22.53c.121.29.348.616.504.723l.284.194h-.265c-.145 0-.425-.101-.621-.226zm-11.417 6.304v-.249h-.397c-.41 0-.526.312-.228.61.212.212.625-.027.625-.36zm27.516-2.99c0-.67-.114-.524-.486.625l-.3.926.393-.514c.216-.282.393-.749.393-1.036zm-34.263.89.163-.265-.346-.03c-.76-.064-1.683.088-1.92.317l-.252.242h2.191zm-1.588-1.588-.163-.265h.78l.134.33.134.331.02-.315a.588.588 0 0 0-.256-.486l-.277-.171-.401.153-.401.154.165.267c.09.146.224.266.297.266.072 0 .058-.119-.032-.264zm36.116-1.588v-1.323h-.397l.092 1.323c.118 1.707.305 1.707.305 0zm-37.306.61c-.219-.078-.538-.318-.71-.534l-.312-.392.142-.371.143-.371h.825l-.157-.157-.156-.156-.52.165-.521.165-.126.483-.127.483.244.434.243.435.714-.021.715-.02zm24.574-4.42 1.223-.026.331-.397.331-.397-.15.436-.152.436.262.162.261.162.522-.664.523-.664.13.34.13.341.758-.043.758-.043-.073-.318-.073-.317.602.204c.622.212 1.174.215 2.983.019l1.059-.115-.026-.905-.025-.905-.42-.783c-.23-.43-.6-1.171-.822-1.646l-.403-.864-.408-.156-.407-.157.162-.262.162-.262-.494.095-.494.095v.327c0 .18-.07.298-.157.261-.086-.036-.701.38-1.367.926s-1.334.993-1.484.993c-.15 0-.369.15-.485.334-.116.184-.569.46-1.005.614l-.794.28.066.312.066.312-.198-.048c-.246-.059-1.545.694-3.187 1.847l-1.244.874 1.158-.185a21.209 21.209 0 0 1 2.38-.212zm-.003-4.329c.996-1.03 2.002-2.176 3.309-3.767.418-.51.983-1.05 1.255-1.2l.495-.272-.486-.416-.485-.416-.4.292c-.219.16-.413.384-.43.497-.032.198-1.62 2.214-2.43 3.083-.503.54-1.966 2.427-2.22 2.864l-.192.33h.311c.172 0 .744-.447 1.273-.995zm-1.87-.645c.174-.175.317-.413.317-.53 0-.39-.398-.216-.732.318l-.33.53h.213c.118 0 .357-.143.532-.318zm4.55-.232v-.228l.464.166c.493.177.469.14-.28-.434l-.478-.367.081.375.081.376-.33-.066-.331-.066v.777l.397-.152c.218-.084.397-.255.397-.38zm1.323-1.066v-.237H70.684l-.032-.198a1.97 1.97 0 0 1 .004-.463l.036-.265.232.366.231.366.617-.432.617-.432h-1.472l.146-.237.147-.237-.43-.164-.428-.165-.36.3-.36.298.155.253.156.252-.531.14-.531.138-.128.49c-.07.269-.07.547 0 .618.19.19.872-.116.872-.391zm-2.758-3.877-.16-.16-.29.29-.29.29.198.32.199.322.252-.45.252-.45zm38.038 134.324-.487-.175 1.456-.12 1.455-.12.237.203.236.203-.633.147a4.134 4.134 0 0 1-2.264-.138zm60.764-.163-2.513-.34-13.758.128-13.759.128-.793-.15-.794-.151-.662-.9-.661-.898-.662-.016c-.363-.009-.85-.16-1.081-.338l-.42-.322-.193-12.303c-.106-6.767-.303-13.91-.438-15.875-.65-9.435-.898-13.965-.76-13.88.082.051.317-.139.521-.422l.372-.515h1.237l-.155-.251-.156-.252.47-.243.471-.243 5.728-.03 5.729-.03.15.392.15.393h2.646l-.137-.36-.138-.358 3.387-.175c1.863-.096 6.922-.184 11.243-.196l7.856-.02.275.17.276.17.93-.174.931-.175v-1.782c0-.98-.077-2.69-.17-3.8l-.17-2.016-.161.1-.16.098.021-1.496.022-1.496.44-.085.44-.086-.144.378-.145.377.284 2.619c.156 1.44.358 3.656.449 4.925l.165 2.308-.302.364-.302.365.528.478c.29.262.528.627.528.809v.33l-.498-.13-.498-.13-.38.542c-.4.57-1.799 1.756-1.799 1.524 0-.075.348-.516.772-.98.425-.466.83-1.068.902-1.34l.129-.494h-4.978v-.529l-4.96.055-4.962.055 3.837.143 3.836.144-2.513.194c-4.53.351-8.982.46-19.094.47l-9.966.01-.81.281-.81.283-.246.89-.245.889.217 1.005c.12.552.406 1.855.637 2.895.23 1.04.419 2.418.419 3.064 0 .647.084 1.26.186 1.362.103.102.226.48.274.837l.087.652h-.547l.002.463c0 .255.183.81.404 1.236l.404.773-.058 3.196c-.032 1.757-.038 7.523-.013 12.812l.046 9.617-.26.486c-.31.578-.338 1.054-.062 1.04.11-.006.493-.615.853-1.354l.655-1.344.398-.152c.504-.194 1.514-1.279 2.075-2.229l.433-.732.406-.004.406-.004 1.984-2.225 1.984-2.225.53-.012.529-.012-.794.738c-.437.406-1.016 1.166-1.287 1.69l-.493.953-1.491 1.337c-.82.736-1.908 1.702-2.418 2.147l-.926.809.37.23.369.229-.832.43c-.458.237-.833.539-.833.67 0 .132-.238.316-.529.408-.29.093-.529.28-.529.415v.247l.463.018.463.02-.516.2-.515.203.912.318.913.318-.307.19-.307.19.522.644.522.644 13.11-.04 13.111-.042.35-.471.35-.472.543.33.541.331h3.133l-.141-.54-.141-.54-.298.11-.297.11.07.364.07.364-.392-.503-.393-.503-3.778-.074c-2.078-.04-3.57-.014-3.316.06.255.073.463.243.463.378 0 .308-.07.306-.935-.023l-.706-.269.148-.384.147-.385-.225-.14c-.125-.077-.6-.065-1.058.027l-.83.166.096.291.097.291-.655.34c-.36.187-.714.281-.786.21-.072-.072.052-.201.275-.287l.405-.155-.134-.513c-.135-.516-.601-.722-.601-.266v.245l-1.46-.15-1.458-.15-.504.455-.503.455-.617-.107-.617-.108.661-.294.661-.294-1.587-.012-1.588-.013.397.257.397.256-.615.004-.614.004.094-.463.095-.463 1.777.058 1.777.058v-.535l2.05.193c1.128.106 2.289.171 2.58.144 1.238-.113 6.656-.025 7.11.117l.497.154-.14-.227-.141-.227 2.026.043a52.61 52.61 0 0 0 4.318-.137l2.293-.18-.126.203-.126.204h1.62v.301c0 .166-.176.434-.39.596l-.388.293-.061.975c-.034.536-.127.959-.207.94-.294-.07-1.336.376-1.336.573 0 .258-.157.25-3.175-.157zm3.373-1.58c.182-.25.332-.67.332-.933v-.478h-1.614l-.79.408c-.434.224-.744.492-.689.595.056.103.18.41.278.684l.178.497.987-.16.986-.16zm-38.843-34.581-.326-.3.171.484c.094.267.188.684.207.926l.036.442.119-.626.119-.626zm12.926-10.079c.079-.079-2.31-.143-5.31-.143h-5.452l-.123.198-.122.199 5.431-.055c2.988-.03 5.497-.12 5.576-.199zm6.079-.068c-.398-.06-1.112-.061-1.588-.003l-.864.107 1.587.003 1.588.003zm3.702-.257c-.253-.066-.729-.068-1.058-.005l-.598.115 1.058.005 1.058.005zm-55.764 46.484c.219-.141.606-.258.86-.26l.463-.005v.53l-.86-.004-.86-.004zm1.7.066.2-.198h2.333v.397h-2.733zm9.827-.037-.145-.236.99-.124c1.122-.14 1.42-.02.85.341-.497.315-1.505.326-1.695.019zm3.555-.03.397-.256 1.852.015 1.852.014-.53.228-.529.227-1.72.015-1.72.014zm-49.342-.523-.13-.21.66-.125.657-.126v.197c0 .108-.238.26-.528.335l-.53.139zm2.12.006-.172-.28.425-.162c.582-.224.763.022.3.406l-.38.315zm-24.128-.408v-.418l.42.08.418.081-.052.26c-.029.144-.217.297-.419.339l-.367.077zm49.83.22c-.241-.24-.223-.675.022-.533.11.062.735.025 1.39-.084l1.19-.198-1.272-.033-1.273-.033.147-.238.147-.238 5.345-.03 5.345-.03.156-.251.156-.252 3.297.11c1.814.061 3.553.116 3.865.123l.567.012.142.371.143.371-.32.438-.321.439-.711-.27-.71-.27-.407.405-.405.406v-.613l-1.125.09-1.124.088-.085-.595-.084-.595h-2.874v1.074l-.33.115c-.183.064-2.503.165-5.157.227l-4.826.111.168-.3.168-.301-.356.33c-.402.373-.612.41-.868.155zm4.799-.74c.077-.078-.352-.141-.954-.141h-1.094l.143.373.143.373.81-.233c.446-.128.874-.295.952-.373zm5.608-.173v-.255l-1.984.077-1.985.076v.531l1.984-.087 1.985-.088zm8.202-.26v-.237h-1.984c-2.13 0-2.458.126-1.184.456l.8.208 1.184-.094 1.184-.095zm-47.962.626-1.263-.1.126-.204.127-.205 2.195.083c3.064.116 3.117.126 1.93.371-.582.12-1.237.205-1.455.187l-1.66-.132zm73.515-.368.143-.23h3.232l-.15.15c-.083.083-.875.186-1.76.23l-1.607.08zm8.78-.153c.33-.064.805-.061 1.058.005l.46.12-1.058-.005-1.058-.005zm-106.829-.31v-.32l-.463.077-.463.078v-1.014l.33-.11.329-.11.273.72c.15.396.21.783.134.86-.077.076-.14-.005-.14-.181zm57.392-.38.218-.218 1.027.09 1.027.09-1.245.127-1.244.128zm41.695.107-1.323-.13 1.587-.146 1.588-.145-.044-.265-.044-.264.838.026c1.353.042 1.428.142.357.475l-1.01.313 3.478-.108 3.478-.109.252.252.251.251-4.042-.01c-2.224-.005-4.639-.068-5.366-.14zm37.703-.553-.397-.257.992-.004.992-.004-.015-1.521c-.01-.837-.134-2.117-.278-2.845-.144-.727-.273-1.56-.287-1.852-.052-1.117-.745-8.633-1.12-12.17-.825-7.753-.955-9.398-1.116-14.156l-.167-4.894.18.166c.1.091.229 1.186.287 2.432.058 1.247.168 2.66.245 3.141.136.854.28 2.535.559 6.564.075 1.091.262 2.369.414 2.839.153.47.22.947.15 1.06-.07.114-.025 1.218.1 2.453l.67 6.612c.244 2.401.478 4.842.52 5.424.04.582.21 2.216.377 3.63l.302 2.572-.287.537-.288.537-.718-.004c-.395-.002-.897-.12-1.115-.26zm-46.406-.794-.218-.662-1.096-1.177c-1.13-1.214-.75-1.028.83.407l.9.818-.1.638-.1.637zm60.164-4.234v-.529h1.274l-.139.53-.138.529h-.997zm.745-1.082-.167-.42.209-.338.209-.338.494.288.495.287-.444.008-.444.008-.093.463-.093.463zm-145.563-.977c.077-.298.427-.81.778-1.139l.636-.598v.787l-.778.745-.778.746zm151.697-.225-.661-.38.773.075s.252.514-.112.305zM44.492 172.6l.476-.668 3.4.223 3.398.224 5.027-.18c5.903-.21 6.738-.264 10.563-.667l2.89-.305.37-.37c.204-.205.519-.371.7-.371h.329l.842-.952.843-.951.022-.438c.012-.24.06-.676.107-.967.288-1.788.668-4.892.622-5.075-.03-.119.086-.871.258-1.671.172-.8.3-1.813.284-2.25-.016-.436-.011-3.209.01-6.161.021-2.953-.03-5.48-.115-5.616l-.153-.248.41-.734.41-.734-.04 7.408-.039 7.408-.215 1.323c-.118.728-.277 2.216-.351 3.308-.075 1.091-.18 2.163-.235 2.381l-.292 1.19c-.267 1.095-1.298 3.285-1.553 3.298-.115.006-.562.27-.992.589l-.783.579-1.919.36-1.918.362-8.599.123c-4.73.068-9.866.152-11.416.187l-2.816.063zm-14.69.26c-.268-.432-.2-2.425.11-3.234l.278-.728h.773l.083.86.083.86-.33.661c-.18.364-.33.863-.33 1.11 0 .245-.112.515-.248.599l-.246.152zm120.919-.82c-.668-.166-2.319-.351-7.806-.874l-.661-.063-.074-.383-.075-.382 2.059.186c1.132.102 4.63.272 7.773.377l5.715.191 4.736-.334 4.737-.334.89-.411.892-.411.517-.815.517-.815-.154-3.572c-.229-5.306-1.5-17.678-2.013-19.579-.137-.51-.25-1.071-.251-1.248l-.001-.323.353.136c.194.074.364.279.377.454.014.176.154.975.311 1.775.426 2.163 1.27 10.222 1.739 16.598l.413 5.619-.437.864c-.588 1.163-1.428 2.057-2.219 2.363-1.02.393-6.563.772-11.65.795l-4.63.022-.132.182-.132.182zm-123.775-5.089-.146-.383.382-.488.383-.49-.173.795c-.216.985-.262 1.044-.446.566zm3.956-3.812-.203-.33.528-2.18c.29-1.2.604-2.599.698-3.108.093-.51.228-1.134.3-1.389l.13-.463h1.08l-.183.463c-.101.255-.357 1.416-.57 2.58-.213 1.164-.516 2.376-.675 2.694l-.287.578.142.547.143.546-.24.148-.24.148-.026-.61-.026-.612-.183.66-.184.658zm24.74-.489c-.765-.38-1.336-.746-1.27-.812.134-.134 2.818 1.176 2.818 1.376 0 .199-.07.173-1.549-.564zm51.237.11c.175-.175.318-.532.318-.794v-.476h.264c.327 0 .328.064.007.909l-.258.678h-.648zm42.617-.94-.363-.462.397.305c.218.168.694.36 1.058.427l.662.122-.696.036-.695.036zm9.03.213c0-.129.14-.281.312-.339l.312-.104-.171-.447-.172-.447-.736-.02-.736-.022.342-.137c.188-.075.635-.064.992.026l.65.163v1.256l-.396.153-.397.152zm-101.997-.689-1.269-.674-.358.137-.358.137v-.512h.539c.296 0 .829.19 1.184.422.354.233 1.154.582 1.776.776l1.132.354-.689.017-.688.018zm131.263-.491c-.088-.35-.237-.856-.33-1.124l-.172-.488.402.397c.22.218.478.724.572 1.124l.17.728h-.482zm-38.506-.025c-.004-.145.376-.76.846-1.367.469-.607 1.948-2.528 3.286-4.27l2.433-3.167-.162-.162-.162-.162h.617V152.76h-.22c-.121 0-.687.678-1.257 1.507-.57.83-1.69 2.306-2.491 3.28-.8.976-1.777 2.173-2.169 2.66-.392.488-.717.768-.721.622zm2.542-.496-.14-.364.641-.76c.676-.803 2.166-2.75 4.39-5.735.736-.99 1.398-1.74 1.47-1.669.167.168-.687 1.39-2.588 3.704-.371.453-1.115 1.497-1.653 2.322-.537.824-1.102 1.54-1.254 1.591l-.277.092-.045.592c-.05.662-.332.78-.544.227zm-44.327-1.538-.04-.977.275-.17c.152-.094.564-.607.917-1.14.958-1.452 1.433-2.006 1.586-1.852.076.075-.45.924-1.169 1.886l-1.307 1.748-.111.74-.112.741zm-1.871.146c-.012-.166-.44-.91-.951-1.654l-.93-1.352h.24c.133 0 .622.592 1.087 1.317l.846 1.317-.136.337-.135.336zm.324-2.818c-.288-.322-1.086-1.446-1.774-2.498-.688-1.052-1.372-1.989-1.521-2.08l-.271-.168-.294.294c-.162.162-.405.295-.539.295h-.244l.33-.397.329-.397h.987l.655.992c1.649 2.499 2.684 3.878 2.981 3.972l.323.102.868-1.252a68.632 68.632 0 0 1 1.879-2.55l1.01-1.296.577.082.577.082.084.597.085.596-.548.696c-.615.782-.748.515-.142-.286.214-.282.389-.728.389-.992v-.478h-.759l-.902 1.124a43.224 43.224 0 0 0-1.748 2.377c-.464.69-1.062 1.37-1.327 1.512l-.483.258zm-48.757-.567-.272-.716.163-.65.163-.65.514-.275.513-.275.316.118.316.118-.705.28-.706.282-.106.478c-.059.263-.006.762.117 1.11.314.886.02 1.055-.313.18zm44.903-1.968c-.628-1.063-.579-1.316.09-.465l.551.7-.09.272-.091.272zm-46.213-.534.565-.764.7-.32.7-.32 1.455-.097 1.455-.098-1.444.261-1.444.261-.673.436c-.37.24-.828.654-1.018.92-.19.267-.461.485-.603.485h-.258zm92.945-1.485c-.084-.218-.09-.56-.013-.76l.14-.364.88-.134.882-.134.264.167.265.167-1.038.132-1.038.132-.109.331-.109.331.618.248.617.247-.603.017-.604.017zm4.402.132-.661-.212.529-.008c.29-.004.767.095 1.058.22l.53.227-.398-.008c-.218-.004-.694-.103-1.058-.22zm-1.13-1.25c.47-.057 1.303-.058 1.852-.001l.998.104-1.852.002-1.852.002zm-106.819-4.92v-.482l.398-.4.4-.399-.174-.31-.173-.309.32.296.322.295-.546.895-.546.896zm141.425-3.156c-.06-.182-.169-1.45-.24-2.82l-.131-2.487-.29-.18-.29-.178.173-.449.172-.448-.424-3.5c-.37-3.065-.634-5.294-1.1-9.319a38.466 38.466 0 0 0-.29-1.984c-.093-.51-.2-1.76-.24-2.779-.04-1.018-.166-2.09-.28-2.38l-.208-.53.422.343.421.342.142 1.245c.078.685.21 1.771.293 2.414.585 4.547 1.214 9.981 1.342 11.601.083 1.057.27 2.843.414 3.969.144 1.125.308 3.099.363 4.385.055 1.286.169 2.407.253 2.491.247.247.177.594-.12.594-.15 0-.322-.148-.382-.33zM38.89 139.556l-.103-1.085H39c.116 0 .333.318.48.707l.27.708-.378.377-.377.378zm-5.249-.666c0-.352.073-.829.161-1.059l.16-.418h.354c.194 0 .424.115.511.257l.159.256-.415.802c-.228.44-.53.801-.672.801h-.258zm63.119.434a.598.598 0 0 1-.148-.368v-.22h1.323v.233c0 .278-.962.568-1.175.355zm15.463-.324.283-.529h.343c.19 0 .415.071.502.158l.158.158-.16.418-.16.418-.2-.51-.2-.51-.019.463-.018.463h-.813zm3.836 0 .164-.264 1.638.018 1.638.019-.53.227c-.29.125-1.101.236-1.801.246l-1.272.019zm6.482 0v-.264h2.117v.529h-2.117zm-83.677-1.916c.043-.62.21-1.732.37-2.473l.292-1.347-.318-.594-.318-.594.176-.176.175-.175.335.459c.185.252.399.395.476.318.077-.078.024.43-.118 1.128a38.527 38.527 0 0 0-.431 2.836l-.173 1.566-.272.09-.272.09zm93.532-1.607a7.127 7.127 0 0 0 .307-1.716l.025-.873.434.536.433.536.348-.854c.191-.469.48-.972.642-1.117.846-.76 2.952-3.67 3.208-4.432l.156-.463h1.274l.255-.67.254-.669-.922-.896-.923-.896v-.419c0-.23-.101-.419-.225-.419h-.225l-.185-2.447-.434-5.755c-.136-1.819-.259-4.795-.272-6.614l-.025-3.308.29-1.27.29-1.269.786-.768.786-.768-.26-.16-.261-.162-.275.17c-.234.145-3.006.363-4.95.389l-.596.008v.556l-.463-.047c-.255-.026-.79-.033-1.19-.016l-.728.03v.529h.993l.33.397.329.397h-.281c-.155 0-.355-.119-.445-.265-.09-.145-.342-.264-.56-.264h-.398l.168.33c.093.182-.069.063-.358-.265l-.527-.597-.134.332c-.074.183-.123-.74-.11-2.05l.026-2.38.19 1.72.189 1.72-.114-4.102a221.187 221.187 0 0 0-.36-7.643l-.248-3.542.159-.256.159-.257.227.359.227.359-.032-1.058-.032-1.059-.114.596c-.063.327-.196.595-.295.595h-.18V74.973h-.463l-.463-.002v-.273c0-.15.208-.346.463-.436.255-.09.703-.378.995-.64l.533-.477 1.316-.113 1.317-.113.466.537c.256.296.466.72.466.944v.406l.561-.602.561-.602-.135-1.203-.136-1.203.232.366.232.367.004-.993.004-.992h-.22c-.122 0-.22-.18-.22-.398v-.399l.286.044c.157.023.493-.047.745-.158l.458-.2-.277-.517-.277-.518.128-.316.129-.316.02.479.022.478.305-.189.306-.188-.214.346-.214.346.277-.171.278-.172.166.433.167.434.155-.155.154-.155-.558-.784c-.306-.431-.558-.97-.558-1.198v-.413l-.385.148-.386.148-.172-.686-.172-.685h-.684l.04-2.845.04-2.844-2.171-.01-2.171-.01-.207-.207-.208-.208 2.707.085 2.706.085.135-.352c.074-.194.135-.622.135-.952v-.6l.915-1.726.916-1.726-.166-.166-.166-.166h.288c.159 0 .762-.483 1.34-1.073l1.052-1.073.094.282.094.283 1.512-1.128 1.512-1.128 1.437-.581c.79-.32 2.424-.782 3.631-1.027l2.195-.444 2.005.137 2.005.137 1.979.584c1.088.32 2.752.953 3.698 1.405.946.452 1.884.85 2.085.883.201.033.499.202.662.376l.296.315-.662-.313-.661-.313.731.668.731.668.46-.148.46-.147-.309.225-.308.225.357.488.356.487.323-.2.323-.199-.183.298-.184.297.397.768.397.768-.148.148c-.081.081-.302.088-.492.015l-.344-.132-.175.283-.174.283.61.02.612.021-.333.134-.332.134.148.24.147.238-.456-.175-.457-.175.17.443.17.443h-.302c-.166 0-.537.208-.826.463l-.525.463.468-.728c.556-.863.446-.92-.386-.198-.336.29-.514.529-.396.529.117 0 .013.22-.231.49l-.445.492.404.335.403.335.02-.363.018-.363.217.529.218.53.182-.447.183-.447.348.134.348.134.2-.324.2-.323-.343.212-.344.212.501-.85c.276-.468.717-1.046.98-1.285l.478-.434.433.272.432.273.1.867.098.868-.282-.175-.282-.174v.28c0 .423.524.336.698-.117l.152-.397h.82l-.425.47-.425.468.247.391c.136.215.251.689.256 1.053.004.363.122.84.263 1.058l.255.397-.061-1.323-.06-1.323.198-.066c.109-.037.883-.056 1.72-.044l1.52.023-.793.25-.794.249-.661-.119-.661-.118-.046 2.522-.046 2.521.392-.558.391-.559h2.051l.168-.53.168-.528h.379c.208 0 .617.238.908.529.291.29.641.529.778.529s.322.118.41.262l.163.261-.477-.165-.477-.164.661.663c.364.364.734.622.821.573.088-.05.386.08.662.29l.502.38-.312.008-.313.009.238.827.237.828-.29.561c-.16.309-.471.77-.694 1.025l-.403.463h.235c.13 0-.234.252-.808.56l-1.044.559-1.214-.144c-.667-.08-1.543-.294-1.946-.478l-.734-.334-.349-.666-.348-.665-.345 1.576c-.189.867-.358 1.636-.375 1.708-.068.284-1.043 3.421-1.76 5.669-.416 1.298-.759 2.548-.763 2.778-.004.23-.36 1.245-.791 2.257l-.785 1.84.263 2.989.527 5.994c.145 1.654.276 3.767.29 4.697.029 1.808.248 2.922.57 2.896.627-.05.472.08-.463.389l-1.059.349.64.02.64.02-.168.168-.168.167.653.513.652.514v1.003c0 .551.124 1.644.275 2.428.484 2.505 1.308 12.696 1.311 16.21l.002 2.086-.54.874-.54.874-.85.278c-.466.153-1.622.332-2.568.397s-3 .203-4.564.306l-2.844.187v.718h-.507c-.28 0-.547-.106-.596-.237l-.088-.237-4.233-.17c-2.329-.095-4.68-.273-5.227-.397l-.994-.227-.146.237c-.08.13-.325.237-.544.237h-.397l.168-.27.167-.271-1.093.175-1.094.175-1.021 1.01c-.562.557-1.093 1.236-1.18 1.51l-.157.497-.657.352-.658.351v.312c0 .172-.238.586-.529.922-.29.336-.529.73-.529.875v.265l.53-.479.528-.478-.01.239c-.006.132-.481.566-1.058.965l-1.048.725v.799h-.794l-.004.462-.004.463-.256-.396-.257-.397-.035.397c-.02.218-.02.532 0 .697l.036.3-.378.146-.378.145zm30.726-10.13 1.818-.462.38-.909.38-.909-.15-3.452-.15-3.452-.225-.29c-.123-.158-.287-.549-.365-.867l-.141-.578.367-.14c.202-.078.368-.28.368-.447v-.306l-.435.362-.435.36.218-.659.218-.66-.046-1.82c-.026-1-.169-2.27-.317-2.823-.149-.552-.32-1.995-.381-3.207l-.11-2.203-1.01-.856-1.01-.856-.727-.004-.728-.004v-.794h-.512l.152.397.152.397-.359.034c-.197.018-.765.02-1.261.003l-.903-.031-.33.274-.331.275-.171-.278-.172-.277h-2.166l.61.529.61.53h-.255c-.14 0-.535-.262-.877-.58l-.622-.58-7.035.059c-3.869.031-7.423.127-7.898.212l-.863.154-.526.739c-.691.97-.675 1.28.025.487l.552-.624-.196.529c-.108.291-.267 1.541-.353 2.778l-.157 2.249.175 4.18c.096 2.298.239 4.799.316 5.556.078.757.215 2.15.304 3.096.09.946.347 2.336.574 3.09l.41 1.369.787.326.787.325 2.292.204 2.292.203 7.806-.094 7.805-.093zm-.893-3.412v-.397h.794v.794h-.794zm-23.263-.86.021-.463.144.36.143.361.229-.36.228-.361.004.463.004.463h-.794zm12.495.03c.07-.07-.127-.404-.439-.74a665.02 665.02 0 0 0-1.692-1.815l-1.124-1.202v-.776l.636-.121.636-.122.454.254.454.254.237-.362.238-.361-.146-2.381c-.08-1.31-.203-3.17-.272-4.133l-.126-1.751.387-.321.387-.321.528.167.527.168.165 1.11c.167 1.128.278 3.113.352 6.325l.04 1.773 1.288-.152 1.287-.153.157.253.156.253-.697 1.037c-.384.57-.795 1.076-.915 1.124-.12.049-.217.205-.217.347v.258l.306-.189.305-.189-.2.323-.2.324-.153-.154-.153-.154-.748.716c-.41.394-.936.744-1.167.778-.23.034-.362.004-.291-.067zm1.375-1.684c.291-.436.619-.792.728-.793.109 0 .198-.166.198-.37v-.368l.397-.152c.218-.084.397-.277.397-.428v-.276l-1.025.164-1.025.163-.177-.285c-.097-.157-.286-2.214-.42-4.57l-.246-4.285-.302-.287-.302-.287.19 4.869.188 4.868-1.261-.173-1.262-.173 1.432 1.559c.788.857 1.55 1.571 1.696 1.587.146.016.503-.327.794-.763zm3.749-14.067c-.188-.717-.073-.868.493-.65l.428.163-.086.442c-.047.243-.22.487-.383.541l-.297.099zm-2.294-.617-.329-.397H155.086v.397c0 .218-.104.397-.232.397s-.38-.179-.562-.397zm-16.746 9.859-.115-.599-.005 1.059-.005 1.058.12-.46c.067-.253.07-.73.006-1.058zm-.262-5.163-.11-.727v2.91l.11-.728c.06-.4.06-1.055 0-1.455zm.004-3.434-.104-.998-.002 1.852-.002 1.853.106-.854c.059-.47.06-1.304.002-1.853zm-5.723-5.099h.247l-.14-8.665c-.078-4.766-.2-10.004-.27-11.64l-.13-2.976.53-.53.53-.53V74.178H131.04l-.701.602-.701.603.425 11.634c.234 6.4.446 12.204.47 12.901l.044 1.267.37-.142c.205-.079.483-.143.619-.143zm5.846-.883c1.12-.032 2.11-.13 2.198-.22l.161-.161.879.27.878.27 1.72-.185 1.721-.184-.244-1.085c-.134-.597-.189-1.228-.121-1.403l.121-.318 2.284.13 2.284.13.341-.466.341-.467.506.294.506.293-.48.008-.478.008.164.265c.09.146.358.265.596.265h.433l.742-.711.742-.711v1.174l-.426.163-.425.163.451.253.451.253.292-.292c.16-.161.395-.292.52-.292h.227l-.164.264-.163.265.61-.019c.337-.01.85-.12 1.14-.246l.53-.227-.463-.019-.463-.018v-.48l.53.138c.29.076.528.244.528.372 0 .129.12.234.265.234h.264v-.81c0-.447-.138-1.072-.307-1.39l-.308-.578.47.388.469.387-.176-1.295c-.096-.712-.227-1.38-.29-1.482-.064-.103.061-.334.278-.514l.394-.327.039 1.157c.04 1.162.11 2.519.185 3.58l.04.57.552-.144.551-.144-.343-.213-.344-.212-.104-1.272c-.057-.7-.12-1.957-.141-2.793l-.038-1.52-.19-.002c-.104 0-.318.241-.476.536l-.287.537-.222-.138-.223-.137-.425.898c-.235.493-.426 1.048-.426 1.233 0 .185-.209.574-.463.865l-.463.529.454-.166.455-.165.104.186c.057.103.188.536.29.961l.185.774-.434-.36-.433-.36-.212.342-.21.342-.172-.277-.17-.276.468-.273.468-.273-.603-.008-.604-.008-.158-.412-.158-.412-.363.14-.363.139v-.374c0-.205.12-.446.265-.536l.265-.164v-1.46l.926-.739.926-.738v-1.3l.595.147.595.148-.33-.152c-.336-.154-.471-.901-.164-.901.092 0 .409.268.703.595l.535.595-.172-.48-.172-.48.513.162.513.163.434-.662.433-.661-.169-.532-.169-.532.293-.547.292-.547.293.181.292.18-.17-.275-.17-.275.393-.327c.217-.18.394-.491.394-.692 0-.2.111-.364.247-.364h.247l.084-.728.084-.728.661-.092c.364-.051.75-.23.857-.397.395-.616 1.465-3.8 1.924-5.728.26-1.092.629-2.297.82-2.678.19-.381.389-1.096.44-1.587.053-.492.236-1.154.407-1.47l.313-.577-.177-.46-.176-.459.31.192.31.19v-.809c0-1-.034-1-1.039.005-.934.934-.999 1.09-.35.848l.462-.173-.368.452c-.203.25-.43.391-.506.316-.075-.075-.284.073-.464.33-.18.257-.87.738-1.532 1.069l-1.205.602.144.45.145.451-.245-.34-.245-.339-.44.169-.44.169.171.278.172.278-.3-.186-.3-.185-.6.335c-.331.184-1.018.484-1.528.667l-.926.332-1.979.147-1.98.147-.243.244-.244.244-.423-.222c-.232-.122-1.196-.305-2.142-.407-.946-.101-2.196-.237-2.778-.3-.582-.064-1.684-.296-2.448-.515l-1.389-.398v-.257c0-.142-.126-.257-.28-.257h-.28l.167.33.168.331-.351-.397c-.193-.218-.767-.626-1.276-.905-1.163-.639-2.236-1.425-3.065-2.245l-.644-.637-.174.174-.174.174h.649l-.166.268-.166.27-.292-.18-.291-.18.508.696c.28.383.604.7.722.705l.214.008-.18-.29-.18-.292.527.282.526.281.225-.189c.123-.104.05.042-.164.324l-.388.512.463-.173.463-.174v.257c0 .14-.14.256-.31.256h-.312l.63.67.628.668.317-.122c.175-.067.388-.051.474.034l.156.156-.278.335-.277.334.544-.142.544-.143v.627l.53-.168.529-.168v.512l.992.233.992.233.085.877.085.877-.879-.198c-.483-.108-1.022-.199-1.197-.201l-.32-.004.113-.182.112-.182-.653-.298-.653-.297v1.311h-.759l-.115.728-.116.727.032-1.846.032-1.847-.397-.011-.397-.012.082-.476.083-.477-.316-.38-.316-.381-.35.29-.35.291-.263-.162-.263-.163-.3.562-.301.561-.507-.132-.507-.133.148.24.149.24h-.56l.003-.728.004-.727.257.397.256.397.004-.86.004-.86h.456l-.101.727-.102.728.274-.628.274-.628-.665-.665-.665-.665-.019.367-.018.367-.197-.5-.196-.501-.42 3.41c-.232 1.877-.384 3.74-.338 4.14l.083.727h-.482l.004.463.004.463.285-.397.285-.397-.157.485c-.086.266-.159.624-.161.794l-.004.309-.257-.397-.256-.397.015.926.014.926.227-.53.228-.528.018.992.02.992h-1.093l.083-.595.083-.596-.291.054-.292.053.11-.715.11-.714-.435.529-.436.529.164 1.452.163 1.451-.258-.26-.258-.262-.1-1.323-.101-1.323-.048 3.036-.048 3.035.803-.879.803-.879.586.388.586.387.087.578.086.578 1.104 1.014c1.424 1.307 3.557 2.929 3.853 2.929.126 0 .364.162.529.36l.3.361 1.783.55c.98.303 2.081.6 2.445.662l.661.111-1.058.025-1.058.024-1.059-.381c-.582-.21-1.237-.373-1.455-.364l-.397.018 1.455.684 1.456.685-.417.098-.417.098-1.303-.578c-.716-.317-1.5-.599-1.74-.625l-.437-.049.15.39.15.391-.764-.192-.764-.191.456.503c.25.277.457.673.46.88l.004.376.246-.39.247-.39-.317-.201-.317-.201.565-.004.565-.004.435.664.435.664-.282.526c-.154.29-.403.527-.552.527h-.271l.18.293.182.292.24-.358.239-.36-.169.728-.169.728h.373c.205 0 .515-.143.69-.318l.317-.317v.573l.664.127.664.127-.28-.337-.28-.337.278-.172.277-.171v.591l.217-.133.216-.134V99.068l-.415-.162c-.228-.089-1.28-.183-2.336-.208l-1.922-.047.133.345.132.344-.327-.212-.328-.212-1.82-.028-1.82-.029-.237-.421a4.228 4.228 0 0 0-.579-.766c-.189-.189-.416-.582-.506-.873a34.809 34.809 0 0 0-.565-1.587l-.403-1.059-.012 3.112-.011 3.11 1.389-.15c.764-.082 2.305-.176 3.425-.208zm3.97-3.635c.035-.447.156-.871.27-.941l.206-.128v1.883h-.538zm8.877-.134c-.077-.077.14-.67.485-1.317l.625-1.176-1.25.625-1.25.625-1.505.17-1.505.17-.15-.242-.149-.241 1.126-.186c.619-.102 1.304-.287 1.522-.412l.397-.227-.771-.008-.772-.008.165-.165c.091-.091.915-.264 1.83-.385.916-.121 2.082-.285 2.591-.364l.926-.143-.332.154-.333.155.148.238.147.238-.7 1.194c-.73 1.247-1.01 1.54-1.245 1.305zm-4.852-8.114c.073-.473.2-1.396.284-2.05.083-.655.272-1.37.418-1.588l.267-.397-.132 1.059-.132 1.058.148-.53c.081-.29.269-.647.416-.793l.269-.265-.143.53a25.79 25.79 0 0 0-.347 1.72l-.204 1.19-.177-.926-.177-.926-.035 1.389-.035 1.39h-.553zm-6.459-.992v-.53h1.058v1.06h-1.058zm15.677-5.732-.331-.133v-.75H155.352V81.586l-.2-.021a2.564 2.564 0 0 1-.528-.155zm-14.468-1.055c.244-1.351.378-1.452.378-.284v.954l-.281.174-.281.174zm17.047-2.316v-.403l-.511-.274-.512-.274-.167.53-.168.528h-1.304l-.154-.4-.153-.4.309-.373.31-.373 1.109-.168c1.042-.158 1.815-.415 2.891-.963.688-.35.948-.288 1.261.297l.284.53-.605.244-1.437.58-.832.337.122.318.122.318-.282.174-.283.175zm-18.521-2.242c0-.127.168-.371.373-.542l.374-.31.171.278.172.277-.164.265c-.201.326-.926.351-.926.032zm23.019-.244c0-.116.149-.37.33-.562l.331-.35-.33-.122c-.182-.067-.331-.23-.331-.364v-.242h1.058v.414c0 .562-.489 1.438-.803 1.438-.14 0-.255-.095-.255-.212zm-23.482-.243-.33-.118v-.75H138.9l-.057.39c-.075.51-.222.621-.624.478zm21.894-.207v-.396H161.236l-.329.396c-.181.219-.434.397-.562.397-.127 0-.232-.178-.232-.397zm-13.162 24.673.112-.33.442.364.442.365 1.254-.191c.69-.105 1.612-.185 2.049-.178 2.973.048 5.418-.007 6.171-.14l.88-.155-.273-.273-.274-.273-.428.355-.428.356-.178-.248c-.098-.136-.447-.256-.774-.266-.327-.01-1.16-.055-1.852-.098l-1.257-.078.794-.214.794-.213-2.15.046-2.15.046.13-.338.131-.339.498.158c.831.264.556-.07-.305-.37l-.803-.28.151.244.151.245-.572.572-.573.573-1.576-.036c-.867-.02-1.69.036-1.831.122l-.255.158.31.373.31.374h.949zm15.45-.073.155-.403-.33-4.822c-.181-2.653-.41-5.894-.508-7.204l-.18-2.381-.316.794c-.174.436-.47 1.064-.66 1.395l-.343.602.315 3.632c.173 1.997.398 4.792.5 6.21l.187 2.58h1.025zm-3.29-.65c-.04-.179.054-.48.21-.668l.285-.344-.336-.112-.337-.112-.445.55-.446.549.282.34.281.339.291-.108.291-.108zm-11.565-1.183c.145-.048-.345-.07-1.09-.05l-1.352.038.114.304.115.304.974-.254c.536-.14 1.093-.293 1.239-.342zm-9.129-1.748v-.249h-.396c-.41 0-.526.312-.228.61.211.212.624-.027.624-.36zm-8.808-1.37-.115-.599-.005 1.059-.005 1.058.12-.46c.066-.253.069-.73.005-1.058zm8.277.599.395-.25-.368-.341-.367-.342.188.333.188.333-.612.245-.612.246.396.013c.219.007.575-.1.792-.237zm-.527-.483c0-.274-.573-.847-.847-.847h-.211v1.058H137.36zm21.621-1.57-.11-.732-.004 1.323-.004 1.323.114-.592c.063-.325.064-.92.004-1.323zm-24.606-1.063-.11-.727v2.91l.11-.728c.06-.4.06-1.055 0-1.455zm-1.759-1.044c-.071-3.529-.283-3.49-.283.052v2.866l.168-.167.167-.168zm6.219 1.86-.135-.353h.388c.502 0 .49-.14-.067-.79-.56-.655-.858-.678-.898-.07l-.03.463-.116-.436-.116-.435-.516-.135-.516-.135.145-.38.146-.378-.46-.373-.46-.374.238.395c.131.217.278.932.327 1.588.048.656.13 1.321.184 1.48l.096.286H138.969zm-9.223-2.139-.11-.727v2.91l.11-.728c.06-.4.06-1.055 0-1.455zm5.821.004-.11-.731-.004 1.323-.004 1.323.114-.592c.063-.325.064-.92.004-1.323zm-1.85-1.194-.107-.86v3.44l.107-.86a8.42 8.42 0 0 0 0-1.72zm25.235 1.108-.258-.645-.017.816c-.009.448.073.906.182 1.016l.199.2.076-.371c.041-.204-.04-.661-.182-1.016zm-25.43-11.808.003-.844.265-.164.264-.163v-.63c0-.347-.106-.697-.236-.777l-.237-.147-.19.462c-.105.254-.206 1.194-.226 2.09l-.037 1.629.195-.306c.107-.168.196-.686.198-1.15zm1.513-3.584-.115-.599-.005 1.058-.005 1.059.12-.46c.067-.253.07-.73.006-1.058zm18.73-1.231.795-.173-.265-.165c-.145-.091-1.386-.208-2.756-.26l-2.491-.093-.096.289-.097.288 1.382.05c.76.026 1.438.105 1.507.174.159.158.997.113 2.022-.11zm-4.898-.89c.002-.108-.174-.198-.393-.198-.448 0-.464.047-.228.662l.17.441.223-.353c.123-.194.226-.442.228-.551zm7.466.565c.77-.162 1.563-.425 1.76-.584.196-.158.493-.308.66-.333.168-.025.772-.242 1.344-.48l1.039-.436-.281-.281-.281-.281-.848.438-.848.439-.327-.125c-.18-.07-.763-.941-1.298-1.938-.534-.996-1.149-2.041-1.366-2.322l-.396-.51-.16.16-.159.16.977 2.274.977 2.274-.144.373-.143.372-1.187.178-1.187.178.142.37c.17.442.01.436 1.726.074zm-9.38-.564c-.037-.182-.295-.424-.575-.538l-.508-.206-.211.339-.212.339.588.172c.895.262.99.251.918-.106zm-1.582-.678.105-.314h-.605l.187.33c.103.182-.074.063-.392-.264-.624-.643-.966-.74-1.211-.344l-.156.252.736.399c.807.437 1.176.42 1.336-.06zm10.032-.143.202-.203-.721-1.377-.721-1.378.002-.922.002-.922.461-.661.461-.662.75-.052.748-.053-.263.318-.264.317.771.772c.425.424.772.924.772 1.11 0 .187.208.462.463.61l.463.27-.339.008-.338.008.586.793c.664.898 1.015 1.012 1.021.331l.004-.463.244.387.245.386.611-.516c.337-.284.668-.553.736-.6.069-.045-.05-.2-.264-.344l-.39-.261.53.077.529.077.081-.7.081-.7.515-.135.514-.135-.115.186c-.063.103-.006.36.128.571l.243.384.004-.29c.002-.16.242-.565.533-.9.291-.336.53-.761.53-.945v-.334l.727-.571c.4-.314.579-.495.397-.403l-.33.167v-.799l.462-.295.463-.296-.575.12-.576.12.134-.347.133-.348.467.09.467.09-.122-.638-.122-.638h.653l-.125-.653-.125-.652.205-.075.204-.076-.135-.693-.135-.694-1.232-.026-1.233-.027-.366.23-.367.228v2.16l-.257-.16-.257-.158.157-.984.158-.985-.156-.156-.157-.156-.634.241-.634.241v-.479l-.774.222-.774.222-.152-.152-.152-.152v.499l-1.323-.032-1.323-.032v.204c0 .112.208.258.463.325l.463.12-.595.031-.596.031v-.234c0-.128-.238-.296-.53-.372l-.529-.138.149.24.148.24-.479.036c-.869.066-1.266.025-1.779-.184l-.506-.207.215.376.214.375-.356-.33c-.196-.182-.448-.331-.56-.331h-.203l.152.397.152.397h-.41c-.225 0-.475-.107-.555-.237l-.147-.237.424-.162.423-.163-.158-.63-.158-.632.618-.155.618-.155.748-.733c.412-.403.662-.584.555-.402l-.193.33h.825v-.528h1.322v-.53h-.825l.162-.262.162-.261.597.39.597.392 1.04-.53 1.04-.53.334.127.333.128v-.689h.397c.218 0 .397.1.397.22v.221l.463-.02.463-.021-.33-.134c-.183-.073-.332-.226-.332-.34v-.205l.98.078.978.078-.383-.243-.384-.243.397-.012c.218-.007.623-.184.899-.393l.502-.38-.336-.405c-.185-.223-.448-.406-.584-.406h-.248l.13.212c.072.116.01.383-.136.595l-.267.384.171-1.058.172-1.059-.403.53-.403.529.135-.538.135-.537-.785-.7-.785-.7-.157.157-.157.157v-.617h-.306c-.168 0-.674-.278-1.124-.618-.45-.34-1.206-.75-1.679-.912l-.86-.295v.502h-.825l.153-.247.152-.246-.269-.166-.269-.166v.56l-.595-.018-.596-.02.53-.217.529-.217-.523-.212-.522-.212-2.785.005c-1.532.004-3.275.043-3.875.088l-1.09.081.129.494.129.493h-.268c-.147 0-.335-.179-.419-.397-.195-.51-.553-.504-1.074.017l-.414.413-.24-.148-.24-.149-1.086.616-1.085.617.177.177.177.177-.507.004-.507.004.359.227.359.228-.275.17-.274.169-.177-.286-.177-.286-1.196 1.214-1.197 1.213-.753 1.516-.754 1.515-.008.743-.008.744.331-.187c.182-.103.063.073-.264.391l-.596.579.027.452c.031.537.438 1.871.476 1.562l.027-.214.304.188.305.189-.461.337-.461.337.257.46.257.459.186-.587.186-.586.426.345.425.344-.18-.3-.18-.301.37-.307.37-.308.172.278.171.277h-.251c-.139 0-.329.2-.423.444l-.17.444.415.415.415.415-.075-.632-.074-.63.33-.118.331-.118v.605l-.264-.164-.265-.163v.165c0 .091.124.398.276.681l.276.516-.257-.07c-.142-.039-.415.11-.607.33-.192.22-.32.349-.283.286.037-.063-.135-.337-.382-.61l-.448-.496.514.189.514.188-.522-.594-.523-.594-.112.35c-.062.194-.233.43-.38.526l-.267.174.312.752c.171.413.78 1.228 1.352 1.81.572.582 1.051 1.177 1.064 1.323.013.145.376.677.807 1.18l.783.917.027-.916.027-.916.204.862.205.862.746.586.746.587.62.083.62.083.52.519.518.519h.514c.282 0 .586.117.675.261l.162.262-.477-.15-.477-.149.465.299.464.298.587-.41.586-.411-.522-.005-.522-.004.397-.256c.57-.368.676-.33.721.264l.04.53h-.584l.181.181c.1.1.685.27 1.3.378l1.12.197 2.438-.06 2.437-.058zm-2.166-7.844-.164-.265.15-.24.148-.242.462.089.56.108c.183.038-.558.814-.776.814-.12 0-.29-.119-.38-.264zm-10.914-.18-.331-.129v-.375c0-.463.443-.495.6-.044l.116.33.568-.503c.313-.277.568-.623.568-.769v-.264l-.568.504-.568.504.136-.397.135-.397-.255-.495-.256-.495.318.196.317.196-.3-.56c-.165-.31-.363-.562-.44-.562-.075 0-.07.11.015.246l.152.247-.273.169-.274.168.182.313.182.312-.568-.498-.568-.498.141-.23.142-.229h-.844l.284.53.283.528h-.195c-.107 0-.051.143.123.318.175.175.318.42.318.545v.227l-.267-.165-.266-.164-.158.412-.158.412-.253-.156-.253-.156.404-.306.404-.305-.065-.397a2.277 2.277 0 0 0-.256-.704l-.192-.307.16-.415.159-.416.487.26.486.26.153-.246.152-.247.724.077.723.076.086.434.085.434h.698l.161-.418c.248-.647.195-.733-.236-.375l-.397.329v-.282c0-.155.12-.356.269-.447l.269-.167-.182-.312-.182-.312.564.495.565.495.42-.162.421-.161-.158.256-.158.256.229.469.23.468-.905.926-.903.926.436-.703.437-.703-.332-.205c-.183-.113-.59-.216-.906-.23l-.574-.025.283.453.283.453.233-.144.234-.145-.43.831c-.236.457-.374.921-.305 1.031l.124.201-.576.03c-.317.018-.726-.027-.907-.097zm3.175-3.102-.163-.264-.107.32-.106.319-.308-.185-.308-.185.373.46.374.46.204-.33.204-.33zm.198 1.452c0-.113.238-.42.53-.684.29-.263.528-.397.528-.296v.182l.506-.27.505-.27-.057.385c-.077.53-.226.646-1.182.92l-.83.238zm2.763-1.015c-.112-.254-.214-.582-.226-.727l-.023-.265-.647-.091-.647-.091-.345.472-.346.473v-1.16l.331-.03c.182-.016.718-.058 1.19-.094l.86-.065.031.293c.017.161.012.531-.01.822l-.042.53.485-.609.484-.608.443.17.443.17-.756.637c-.904.76-.963.769-1.225.173zm2.833-2.116-.04-.596h-.732l-.434-.661-.433-.661h.524l-.135-.353-.135-.353h.408c.225 0 .36.049.3.109s.255.456.7.881l.81.774h-.573l-.11.727-.11.728zm-10.447-.772c-.097-.097-.176-.335-.176-.53v-.352h.945v1.058h-.296c-.163 0-.376-.079-.473-.176zm8.887-2.8c-.367-.464-.902-1.521-.77-1.521.061 0 .429.416.817.926l.707.926h-.246c-.135 0-.364-.15-.508-.331zm-10.65-2.276c0-.097.232-.322.516-.5l.517-.322.122.197.122.198-.639.301c-.351.166-.638.222-.638.126zm8.73-.833-.282-.53h.264c.146 0 .392.24.548.53l.283.53h-.264c-.146 0-.392-.239-.548-.53zm12.473-.506-.346-.214.442-.17.442-.17.408.23.408.228-.298.184-.299.185-.004-.347-.004-.346-.201.317-.202.317zm-4.892-1.47-.149-.388.253-.157c.14-.086.253-.1.253-.03s.073.315.16.545l.161.419h-.264c-.146 0-.332-.175-.414-.389zm-12.712 20.542-.501-.099.326-.201.327-.202-.884-.55c-1.068-.663-2.722-2.398-3.85-4.036l-.83-1.206-.572-1.7-.573-1.699.09-2.386.09-2.386.75-1.528c.412-.84 1.06-1.912 1.44-2.381l.69-.853-.833.766-.834.765-.802 1.616-.803 1.615-.247 1.455c-.25 1.48-.559 5.565-.352 4.67l.113-.489.884 2.034.884 2.033.952 1.234.953 1.234 1.777 1.361 1.777 1.362.265-.165.265-.164zm18.89-.09v-.308l.166.166.167.167 1.156-.948c.636-.521 1.157-1.065 1.157-1.209 0-.143.282-.483.628-.754l.627-.494.598-1.472.597-1.472-.151-.151-.151-.152-.386.922c-.212.508-.505.997-.652 1.088l-.267.165.11.595.111.595-.15-.307-.149-.307-.598.571c-.329.315-.554.661-.5.77.055.11-.023.199-.172.199h-.272l.16.416.16.417-.367-.077-.367-.077-1.12.75-1.12.752.144.232c.208.337.641.285.641-.076zm11.438-3.163c.258-.138.468-.35.468-.47v-.22l-1.256.005c-.692.003-1.704-.088-2.25-.202l-.992-.208v.889l.86.383.86.382.921-.154c.507-.085 1.132-.267 1.39-.405zm-4.052-4.465.014-.397-.256.397c-.141.218-.25.635-.242.926l.014.53.228-.53c.125-.291.234-.708.242-.926zm3.573 1.162c.23-.088.418-.255.418-.372v-.211l-.529.138c-.291.076-.53.244-.53.372 0 .277.085.286.64.073zm-.356-.633h.24l-.441-.515-.442-.516-.326.447-.327.446.136.22.136.219.391-.15c.216-.083.5-.15.633-.15zm-5.128-.932.051-.933-.25.155-.249.154v.602c0 .471.19.955.375.954.012 0 .045-.42.073-.932zm-11.01-3.808.42-.022v-.788l-.665.12c-.366.067-.829.284-1.028.483l-.363.363.61-.067c.334-.037.797-.077 1.027-.09zm1.372-.18.158-.159-.145-.377-.145-.378-.363.301-.363.301.145.235c.167.27.484.305.713.077zm2.642-.21.727.071.033-.248.067-.492a.917.917 0 0 1 .231-.44.772.772 0 0 0 .194-.486l-.004-.286-.204.322-.205.322-1.048.092-1.048.092.081.358.081.359-.354-.295-.355-.294-.388.255-.388.254.5.382.5.381.426-.209c.234-.115.754-.177 1.154-.138zm4.819-.442-.154-.249h.262c.145 0 .336-.23.425-.512l.163-.513-.329-.527-.329-.526-.6.698-.599.697.103.54c.056.297.11.545.122.55.01.005.26.028.554.05l.535.04zm-34.1 74.194-.167-.435.153-.153.153-.153.246.39c.313.494.32.785.018.785-.13 0-.311-.195-.403-.434zm.647-.8-.643-.937-.193.49c-.106.27-.2.367-.211.216-.01-.151.23-.746.532-1.323l.551-1.048-.17.926-.17.926.277-.397.276-.397-.004-.793-.004-.794-.388-.514-.389-.513v-1.518l.265.164.264.163v1.613l.412-.158.412-.158-.092 1.434-.092 1.434.21-.13.209-.129-.004.876c-.002.481-.094 1.017-.204 1.19l-.2.315zm-92.379-1.94c-.036-.655-.079-1.455-.095-1.777-.016-.321-.113-.669-.216-.771-.102-.103-.189-.673-.192-1.267l-.006-1.08-.517.661-.518.662-.006-.281c-.003-.155.232-.537.523-.85.292-.311.53-.727.53-.922 0-.195.098-.468.218-.606.12-.139.379-.761.574-1.384l.356-1.133.253.253.252.253-.586 1.212-.587 1.212.14 1.387c.078.763.208 2.06.29 2.883l.15 1.496-.249.621-.249.621zm53.479.777c0-.526.99-2.1 1.318-2.1.486 0 .066.994-.826 1.951l-.493.53zm4.373-3.37c-.073-.074-.467-.125-.874-.113l-.74.021v-1.08l1.464.196c.805.107 4.5.224 8.211.26l6.747.065 3.043-.35c1.673-.193 3.495-.497 4.049-.675l1.005-.323.756-.86.756-.862.184-1.97.185-1.969-.154-5.126c-.085-2.82-.232-6.496-.328-8.17l-.175-3.042-.38-.752c-.496-.98-.317-1.125.42-.34l.587.624.263 4.07.264 4.07.009 6.35c.005 3.493-.001 6.47-.013 6.615-.012.146-.415.693-.895 1.216l-.873.95-1.217.465-1.217.465-1.547.111c-2.376.171-19.378.305-19.53.154zm35.379-1.707c-.317-.654-.349-1.521-.056-1.521.184 0 .576 1.883.424 2.036-.044.044-.21-.188-.368-.515zm40.945-.323c0-.206.106-.44.237-.52l.237-.146.143.373.143.374-.38.146-.38.145zm-41.79-2.786c-.003-.364.104-.836.24-1.05l.246-.39.15.151.151.15-.39.9-.39.9zm1.28-.066c-.016-.036-.063-.479-.105-.983l-.075-.916-.293-.098c-.16-.054-.292-.225-.292-.381v-.284l.484.438c.266.241.653.44.86.442l.376.004-.397.257c-.219.14-.293.258-.166.26l.23.004-.32.385-.319.386.17.276c.095.152.105.276.023.276-.08 0-.16-.03-.176-.066zm-1.096-5.69-.463-.103.008-1.37.008-1.37.24.409.238.408-.079.723-.08.723.426.238c.514.287.342.484-.298.342zm-34.128-.374-.334-.212 1.058-.008c1.17-.009 1.548-.184 1.786-.83l.159-.432-.392-.56-.392-.559h-.395c-.217 0-.757-.187-1.2-.416l-.805-.417.15-.15.15-.15.338.271c.185.15.711.352 1.17.45l.832.177.449.497.45.496-.178.809c-.212.963-.366 1.077-1.58 1.173l-.932.073zm9.948-.015.492-.373-.095-2.284-.096-2.284.21.21.21.209-.078 2.354-.077 2.354-.53.093-.528.093zm1.787-.271.031-.595.118.446.118.447.447.118.446.118-.595.03-.595.031zm6.981.34c.129-.214.317-.809.417-1.323l.184-.935.03.96.03.96-.447.363-.448.363zm-15.138-1.2.004-1.323.11.731c.062.403.06.998-.003 1.323l-.114.592zm.722.64a5.88 5.88 0 0 1 .163-1.235l.16-.595h.366c.436 0 .49.443.07.583l-.294.098-.081.741c-.045.408-.15.81-.235.894l-.153.153zm-8.43-.788c-.077-1.3.128-1.374.276-.1l.11.942-.162.1-.163.1zm16.581.94-.169-.266.14-.726.138-.726 1.358.04 1.359.04-1.19.158-1.189.159-.14.794-.139.793zm-12.719-.41c-.254-.152-.463-.383-.463-.515v-.24l.75.43.749.43.441-.169.441-.169v-.768l-.78-.172c-.907-.199-2.133-1.09-2.124-1.543l.006-.312.457.551.457.55 1.14.325 1.141.325-.082.712-.082.712-.794.065-.794.065zm36.314-.618v-.721l.241.149c.266.164.232.82-.057 1.11l-.184.183zm-24.606-.674c0-.983.157-1.05.33-.142l.128.668-.229.141-.229.142zm60.325-.397v-1.175l-.277-.172-.278-.171.275-.332.275-.331-.164-.164c-.09-.09-.276-1.806-.414-3.812-.137-2.007-.31-4.317-.384-5.133l-.135-1.485-1.054-.592c-1.348-.758-1.114-1.013.4-.435l1.165.445.175 1.643c.162 1.51.4 4.56.828 10.574l.165 2.315h-.577zm15.244.694-.2-.322-.287.178-.288.178.17-.636c.094-.35.172-.845.174-1.1l.004-.463h.586l-.16.416-.16.416.281.525c.155.288.236.66.18.827l-.1.303zm-80.982-.33c.19-.31 1.1-.325 1.287-.023l.14.225-.79.022-.79.023zm2.021-.777c.001-.655-.01-1.354-.023-1.553l-.024-.364-.44.364-.44.363.13-.397.132-.397.408-.08.408-.078.125.343c.068.19.034.94-.076 1.667l-.2 1.323zm28.527.506c0-.097.174-.32.386-.496l.385-.32.265.164.264.163-.142.37-.142.371-.508-.038c-.279-.021-.508-.118-.508-.214zm-32.064-1.233-.082-.992-.331.066-.33.066v-.568l.462.088.463.087.084 1.015.083 1.014 1.306-.09 1.306-.091v.397h-2.88zm8.06-.066.142-1.059h-.35c-.192 0-.41.122-.484.271l-.135.272.068-.338.067-.337 1.566-.036 1.567-.036-1.058.197-1.059.197 1.566.037 1.565.038-.166.166c-.144.144-1.008.256-2.634.34l-.463.023v1.02l.463.12.463.122-.63.03-.63.03zm6.622.132.052-.794.662-.093c.364-.05.736-.212.827-.359l.165-.266.182.295.182.295-.347.115c-.191.063-.58.152-.865.198l-.518.083-.196.66-.196.66zm-1.204-.267-.126-.664.36.3c.403.334.489 1.028.127 1.028h-.234zm-8.505-.02-.161-.42.256-.44.257-.44.008.86c.01.94-.112 1.088-.36.44zm-10.744-.447v-.438l.512-.274c.281-.15.728-.266.992-.257l.48.017-.661.258c-.364.141-.81.454-.992.695l-.331.437zm.842.072.133-.396.902.019c.496.01 1.14.122 1.43.248l.53.229-.35-.431c-.193-.237-.61-.486-.926-.555l-.577-.124.767.042.768.042.281.45.282.451-.187.188-.188.188-1.051-.347-1.051-.347-.449.37-.448.37zm17.017 0-.163-.264.165-.267.164-.266.38.38c.21.209.38.448.38.53 0 .259-.753.167-.926-.113zm16.713-.44c-.097-.098-.176-.594-.176-1.103v-.926l.16.16c.16.16.406 2.045.267 2.045-.04 0-.154-.08-.25-.177zm-.66-3.029-.383-1.028-.15-.397-.02.61-.021.612-.265-.164-.265-.164v-1.1l.463-.339.463-.338.308 1.367c.33 1.46.257 1.985-.13.941zm-95.141-.405a2.617 2.617 0 0 1-.154-.777v-.376h.749l.134-.33.133-.331.021.964.021.964-.375.144-.375.143zm99.774-4.235c-.099-.1-.18-.28-.18-.401v-.22l.463.003c.254.002.641.133.86.29l.396.285-.43-.136-.431-.137-.248.248-.249.249zM45.216 99.99l-.2-1.308.266-.266.267-.267.317.318.318.317h-.606l-.081 1.257-.08 1.257zm-13.986-.941-.157-.397.333-1.852.334-1.852.002.926c0 .509-.079 1.521-.177 2.249l-.178 1.323zm87.149.074c.402-.06.997-.059 1.323.004l.591.115-1.322-.004-1.323-.004zm-72.83-3.258v-.537l.414-.16.415-.158.288.288.289.289-.339.408c-.186.224-.502.408-.703.408h-.364zm135.623-6.661c-.068-.334-.182-1.291-.253-2.128l-.13-1.521h.458l.14 1.124c.075.619.182 1.517.236 1.996l.098.872-.213.131-.213.132zm-94.136-1.64c-.085-.423-.114-1.494-.065-2.381l.09-1.613-.233.927-.233.926.147-1.191c.08-.655.195-4.852.254-9.327l.107-8.136h-.544l.007-.595.007-.595 1.119-1.257 1.118-1.257.925-.004c.986-.004 3.274-.601 3.073-.802-.066-.066.674-.113 1.644-.105 2.551.022 7.496-.298 8.114-.525l.53-.194-.53.445-.53.446.662-.214.662-.214 8.162.024 8.162.024.57.267c1.217.57 3.435 1.381 3.779 1.381h.361v.591l-.463-.148c-.255-.082-1.296-.448-2.315-.814-1.019-.365-2.156-.67-2.527-.676l-.674-.01-.318.317-.317.317v-.6l-12.105.112-12.105.111-1.535.4c-1.836.479-2.717.912-3.69 1.816l-.728.675-.065 6.958c-.036 3.827-.031 8.387.01 10.133l.076 3.175-.224 1.191-.224 1.19zm22.679-.959.128-.206-1.043.14-1.042.14-.744-.227-.743-.227 3.042-.167c3.135-.173 6.689-.605 8.052-.98l.776-.213.48-.647.48-.648.282-1.54.283-1.54-.148-5.471c-.081-3.01-.21-6.525-.287-7.814l-.138-2.342-.26-.484c-.143-.267-.25-.642-.238-.833l.022-.348.38.872.382.872.259-.16.259-.16.045 1.14c.025.627.078 1.616.12 2.198.04.582.054 1.535.03 2.117-.023.582-.02 1.685.007 2.451l.048 1.393.315.592.315.59-.408-.336-.408-.336.1 1.395c.056.767.11 2.432.121 3.7l.02 2.306-.341 1.002c-.188.55-.56 1.325-.828 1.722l-.486.721-1.11.318c-.612.174-1.257.426-1.434.56l-.321.243-1.083-.183-1.082-.183-.713.27c-.392.15-1.276.324-1.964.39l-1.252.12zm-11.58-.187-1.522-.096v-.55l2.295.191c1.262.105 2.601.284 2.976.398l.682.207-1.455-.028c-.8-.015-2.14-.07-2.976-.122zm5.49-.07-.164-.264 1.273.004 1.272.004-.397.257c-.218.14-.717.258-1.109.26l-.712.004zM88.7 85.8c.032-.353.04-.857.017-1.12l-.041-.48-.254.157-.253.157.384-.736c.211-.405.385-.87.386-1.035 0-.164.197-.46.436-.66l.435-.36-.205.659c-.113.363-.309.699-.435.748-.126.048-.23.334-.23.636v.548l.54-.49.541-.488-.19.514c-.105.283-.318.602-.475.709l-.283.194.306.004.306.004-.137.52c-.075.287-.31.665-.521.841l-.386.32Zm4.365-1.06c-.377-.447-.7-1.012-.719-1.256a46.945 46.945 0 0 0-.096-1.045l-.063-.601.229-.142.228-.141v1.883h.574l-.122.33-.12.332.677.727.678.728h-.29c-.16 0-.6-.366-.976-.814zm87.49-.839-.302-.86-.154-2.513c-.085-1.383-.216-2.99-.291-3.572l-.138-1.058.298.478c.163.263.344.918.402 1.455.478 4.464.682 6.93.572 6.93-.047 0-.221-.387-.387-.86zm-90.047-.926a5.245 5.245 0 0 0-.125-.595c-.269-1.02-.228-2.117.079-2.116l.198.001.043 1.454c.024.8-.006 1.455-.066 1.455-.06 0-.118-.09-.13-.199zm-4.57-1.266-.165-1.2.327-.528.327-.528-.365-.227-.365-.227.185-.298.184-.299.249.154.248.153-.03 2.1-.031 2.1h-.4zm93.705-6.804a60.374 60.374 0 0 1-.067-1.521c-.01-.364-.092-.78-.182-.926-.09-.146-.186-1.256-.212-2.468l-.047-2.203-.25-.658-.251-.659v-1.747c0-2.118.255-2.054.387.097.052.854.228 2.302.39 3.218.164.917.24 1.76.17 1.873-.07.113.045 1.268.255 2.567.211 1.298.384 2.57.384 2.824l.001.463h-.529zm-93.613-1.36v-1.25l.204.126.204.126-.045.965c-.025.531-.117 1.037-.204 1.124l-.16.16zm.076-5.585.004-1.323.11.731c.061.403.06.998-.004 1.323l-.114.592zm-50.964-2.425c-.097-.097-.164-.663-.148-1.257l.03-1.08.23 1.173c.233 1.192.205 1.481-.112 1.164zm89.955-.837c-.24-.266-.438-.57-.438-.677v-.194l.263.163c.276.17.887 1.192.713 1.192-.055 0-.297-.218-.538-.484zm-38.352.042-.169-.274.38-.502.38-.502-.01.265c-.006.145-.1.495-.21.776l-.201.512zm-51.78-2.332c0-1.806 1.493-3.078 3.969-3.382l.926-.113.662.197.661.198-.736.026c-.405.015-1.15.2-1.654.41l-.917.383-.004-.317-.004-.317-.195.265c-.107.146-.514.43-.904.63l-.71.366-.297.716c-.163.393-.26.869-.216 1.056l.08.34-.33.122-.33.121zm142.744-1.916-.448-.758-1.372-.319-1.371-.319h-3.557v-.415l2.448.098 2.447.098.265.205c.145.113.596.285 1.001.382l.737.176.263.69c.368.97.121 1.067-.413.162zm-91.282-.895-1.059-.161.552-.038c.303-.02.626-.113.719-.205l.167-.168 2.493.05c1.37.028 2.833.149 3.25.269l.757.217-2.91.099c-1.601.053-3.387.025-3.97-.063zm12.501-.154c-.254-.067-.463-.23-.463-.363v-.242l.577.063.576.063.163-.659.162-.659.15.262c.083.144.23.59.325.99l.174.727-.6-.03a6.424 6.424 0 0 1-1.064-.152zm6.779-1.354c-.111-.829-.16-1.625-.11-1.771.052-.146.08-1.075.065-2.065l-.03-1.8.263-.69.263-.69-.275-.275c-.384-.384-.341-.698.095-.698h.368l.16.419c.247.642.192 1.562-.112 1.865l-.273.274.178.463.177.463.2-.322.2-.323.689.173.69.173v1.049h-.586l.142-.371.143-.371-.159-.16-.159-.158-.484.439c-.267.24-.485.598-.485.794v.356h.745l-.145.551-.144.552-.162-.221c-.089-.121-.31-.25-.492-.287l-.33-.066.057 1.32.057 1.32.22-.394.22-.394h1.033v.56l-.23-.141-.229-.142-.452.5-.452.5.483.124.483.125-.479.03-.479.032.147.236.146.237-.378.145-.378.145zm9.549.992-.519-.576-.017-.829c-.009-.456-.039-2.294-.066-4.086l-.05-3.256-.264.163-.264.164v-.825h.464l.003-3.297.003-3.297.407-.407c.224-.224.535-.408.691-.408h.284v.378c0 .208.158.537.352.73.66.66.743 1.422 1.2 10.93l.203 4.234-.218.089-.218.089.15.242.15.242-.347.003a4.52 4.52 0 0 0-.886.149l-.54.145zm1.355-2.625a153.018 153.018 0 0 1-.304-4.24l-.23-4.1a105.59 105.59 0 0 1-.128-2.844l-.021-.993h-.777l.169-.44.169-.44-.328.202-.328.203.161.418c.088.23.231 2.69.318 5.464l.157 5.044.23.446c.125.245.229.587.229.76v.314l-.397-.329-.397-.33v2.447h.794V59.16l.43-.357.431-.358zm-70.004.465v-.36l1.19-1.17 1.191-1.168v.287c0 .158-.536.846-1.19 1.53l-1.191 1.242zm53.185-1.346-.004-1.273.265.164.264.163-.004.712c-.002.392-.119.891-.26 1.11l-.257.396zm7.69.148.02-.463.144.36.144.361.228-.36.229-.361.004.463.004.463h-.794zm-7.775-2.91c-.062-.11-.125-1.568-.14-3.242-.016-1.673-.096-3.816-.18-4.762l-.151-1.72.408.513.409.514.017 1.47c.01.81.04 2.811.067 4.448l.048 2.977h-.183c-.1 0-.233-.09-.295-.199zm7.093-.331c.09-.146.387-.265.661-.265s.572-.12.662-.265a.603.603 0 0 1 .478-.255l.315.008-.624.52-.625.521H106.636zm-54.637-.485v-.326l.463-.152c.255-.084.94-.36 1.522-.615.582-.254 1.475-.532 1.984-.618l.926-.156-.661.296c-2.107.945-2.92 1.262-3.24 1.262-.197 0-.502.143-.676.317l-.318.318zm53.404-3.021c-.023-.473-.02-1.039.005-1.257.026-.218.046-1.144.045-2.058l-.002-1.662.526.282c.29.155.526.344.526.42 0 .076-.089.084-.198.016l-.199-.122-.006 1.628c-.003.896.035 1.42.086 1.165l.092-.463.576.031.576.03-.488.126-.487.126.13.496.129.496-.304-.057-.303-.057.066.33.066.331h-.635l.317.318c.433.432.4.74-.079.74h-.397zm-7.19-.375-.176-.176V46.44c0-2.487.15-2.375.386.287.177 2.003.151 2.235-.21 1.874zm2.999-5.638-.662-.169.622-.165.622-.166-.163-.264-.163-.264.297-.184.297-.184-.266-.165c-.424-.263-.442-.875-.06-2.083l.353-1.125h.975v-.529H102.02l-.3-.794-.3-.794.308-.006c.17-.003.605-.234.968-.512l.66-.507-.46-.177-.46-.176.172-.278.171-.277-.321.198c-.177.11-.448.515-.602.901l-.28.702-.126-.342c-.07-.188-.054-.635.036-.992l.163-.65h1.634l-.145.38-.146.38.58-.054c.32-.03.777-.17 1.016-.314l.435-.26-.038-1.058-.038-1.059.798-.078.798-.078.027 1.065.028 1.065-.296-.178-.297-.177.353.436.354.436-.17.276-.171.276.743.002.743.002.33.712.332.712V38.292l.574.612.574.61-.182.183-.182.182-.292-.293-.292-.292-.323.123-.322.124-.278-.343c-.154-.188-.337-.58-.409-.872l-.13-.529-.03.596-.031.595h-.53v.529c0 .652.23.674.69.066l.352-.463.008.43.008.43.86.179.86.178-.614.337-.613.336.349.275c.192.152.667.352 1.055.444l.707.169.212-.86c.316-1.284.305-1.597-.082-2.24l-.352-.585v-1.688l-.676-1.428-.675-1.428-.382-.147-.38-.146.146-.237.146-.237h-.448l-.04-.529-.04-.529h1.291v.222c0 .122.327.376.727.564l.728.342-.337.121-.337.122.8.911.8.911v2.917l.636.635.636.636-.306.146-.305.146.342.158.342.158-.313.377-.313.376-.086.965c-.113 1.263-.21 1.328-2.155 1.46l-1.654.112-.557-.593-.557-.594-.366.141-.367.14-.165-.43-.166-.431-.369.306-.368.306.465.343.466.343-.396.132c-.219.072-.778.178-1.243.235l-.846.104.14-.227.14-.227-.749.165c-.412.09-.869.194-1.014.23-.146.037-.563-.01-.926-.103zm4.233-2.95.397-.1.19-.65.19-.65-.22-.144c-.12-.078-.315-.738-.432-1.466l-.213-1.323-.096.404-.097.404-.557.258c-.673.31-.69.752-.036.878.262.05.573.183.69.293l.213.2-.178.713c-.099.391-.239.652-.311.58-.148-.149-.863.498-.863.78v.182l.463-.13c.255-.072.642-.176.86-.23zm1.852-3.115v-.275l-.397.152-.397.153v1.04l.397-.398c.219-.218.397-.52.397-.672zm-1.563-1.32.232.367.004-.595c.005-.707.052-.7-1.154-.195-1.172.49-1.27.74-.136.344l.822-.287zm1.299-1.061a5.93 5.93 0 0 1 .992-.41l.595-.182v.349l-.001.348-.992.061-.991.061zm-3.5-1.987-.131-.686h.72l-.004.33c-.002.183-.105.491-.229.687l-.225.355z" style="fill:#000" transform="translate(-20.341 -31.82)"/></svg>