<svg xmlns="http://www.w3.org/2000/svg" xml:space="preserve" width="1245.95" height="652.773" viewBox="0 0 329.658 172.713"><path d="M268.27 140.202c-.713 1.283-1.53 1.737-4.174 2.319l-.706.155 1.001 2.448a397.99 397.99 0 0 0 1.83 4.394c.948 2.225.968 2.331.444 2.331-.212 0-.336-.08-.276-.177.11-.178-3.028-8.29-3.685-9.524-.193-.364-.794-1.792-1.334-3.175-.541-1.382-1.703-4.24-2.582-6.35-.879-2.11-2.07-5.027-2.645-6.482a7643.2 7643.2 0 0 0-1.572-3.969 79.123 79.123 0 0 1-.806-2.117c-.154-.436-.384-.906-.51-1.045-.125-.138-.224-.436-.22-.661l.008-.41.333.436.332.437 1.006-.75 1.006-.75.38.146.382.147-.169.53-.168.531.334-.206.333-.206-.17.276c-.19.307.293 1.924 3.997 13.38l2.55 7.887.54-.13c.299-.072 1.405-.213 2.46-.314 1.056-.101 1.919-.22 1.919-.266 0-.045-.705-2.143-1.565-4.662a2173.77 2173.77 0 0 1-2.278-6.697c-.392-1.164-.815-2.354-.941-2.646-.126-.29-.539-1.481-.918-2.645-.38-1.165-.787-2.355-.905-2.646-.513-1.267-.802-2.82-.802-4.318 0-2.264-.631-3.6-1.563-3.306l-.421.133.39-.275.389-.276-.498-.19c-.505-.194-7.577.373-7.822.626-.072.076.02.192.206.258.79.282 1.782 3.099 1.429 4.054l-.218.587-.418-.895c-.874-1.87-1.263-2.966-1.263-3.559 0-.337-.102-.676-.226-.753-.125-.077-.49-.86-.81-1.74-.321-.882-.695-1.534-.83-1.45l-.245.151.147-.383c.126-.328-.557-2.162-2.454-6.59-.234-.545-.533-.992-.665-.992s-.17-.114-.083-.254c.086-.14-.215-1.182-.67-2.315a222.465 222.465 0 0 1-1.42-3.642l-.594-1.58-.64-.18-.638-.178.463-.027c.254-.014.463-.091.463-.171 0-.444-.884-1.736-1.599-2.337l-.823-.693h-2.509c-1.38 0-2.45.094-2.38.21.072.114-.249.165-.712.113-.462-.053-3.103.09-5.868.32-2.765.228-7.706.607-10.98.843-3.274.235-5.983.503-6.019.595-.036.093-.693.129-1.459.081-.766-.048-3.356.097-5.755.322s-5.787.491-7.529.592l-3.167.184.521.195.521.196-1.587-.038c-.873-.02-2.875-.008-4.447.027l-2.86.064.182.295.182.294-1.656-.192-1.656-.192.182.294.182.295h-.825c-.453 0-.768-.092-.7-.203.07-.112-.354-.158-.941-.102-.588.056-.946.177-.797.27.15.092-.803.125-2.117.074l-2.39-.094.141.226.14.226-1.725-.09-1.726-.09.156.252.157.253-1.912-.075-1.912-.075 1.323.214 1.323.215-1.786-.038-1.787-.037-.132.265-.131.264-.155-.33-.154-.331-1.235.018-1.235.019.53.227.529.228-.43.018c-.237.01-.832.088-1.323.173l-.893.155.397-.283.397-.283h-1.852l.397.26.396.258-1.253-.166-1.253-.166-.39.323-.39.324-.779-.171c-.428-.094-.84-.073-.914.047-.075.12-.95.256-1.944.3-.994.045-2.383.19-3.087.323l-1.279.243-.44-.224c-.243-.123-1.54-.167-2.885-.098l-2.443.127.168.27.167.272-.729-.183c-.879-.221-3.104.075-2.911.386.075.122-.105.351-.4.51l-.537.286v1.569h1.16l-.433.33-.433.332.785 3.572.87 3.962c.046.215.371.471.722.569l.637.178-.596.027c-.733.032-.747-.27.185 3.997 1.064 4.865 1.1 5.047 1.196 5.95.09.865.158 1.124.658 2.514.183.51.323 1.165.311 1.456-.012.29.093.886.233 1.323.14.436.44 1.865.667 3.175.227 1.31.63 3.274.895 4.365.265 1.092.62 2.64.787 3.44l1.107 5.291c.442 2.11 1.093 5.206 1.447 6.88.354 1.673.642 3.638.641 4.365l-.002 1.323-.538 1.19a7.536 7.536 0 0 1-3.419 3.568c-.655.336-1.8 1.01-2.543 1.498a53.895 53.895 0 0 1-2.25 1.4c-3.827 2.184-11.351 6.612-13.992 8.235l-2.977 1.829-1.521.935v.763c0 .928.258 1.427 2.12 4.096.798 1.145 1.62 2.395 1.826 2.778.308.572 2.78 4.218 3.52 5.194.11.145 1.432 2.11 2.935 4.365a1408.49 1408.49 0 0 0 9.256 13.692l1.855 2.712.555-.004a5.468 5.468 0 0 0 1.141-.16l.586-.158-1.998-2.948c-1.1-1.621-2.24-3.156-2.534-3.41-.295-.255-.458-.464-.362-.464.166 0-5.124-7.917-10.52-15.742a558.474 558.474 0 0 1-4.011-5.897l-1.459-2.191v-1.342l1.056-1.253 1.056-1.252 1.656-.878c.91-.483 2.051-1.174 2.535-1.535l.878-.657 1.106-.141c1.638-.21 5.207-2.36 5.207-3.136 0-.198.268-.523.595-.723.328-.2 1.667-1.024 2.977-1.83l2.381-1.468 1.19-.185c.655-.102 1.689-.471 2.297-.821.608-.35 1.322-.635 1.587-.634l.482.002.63.924c.802 1.177 1.233 1.168 1.63-.035l.317-.96-.166-1.21c-.092-.667-.59-3.108-1.108-5.426l-.94-4.214.17-1.008.17-1.009.707-.108.707-.108-.855-.04-.855-.04-.164-.727c-.445-1.98-.676-2.703-.904-2.844-.572-.354-1.119-2.08-1.676-5.292-.311-1.795-.555-2.958-1.157-5.51l-.675-2.864.358-.668.357-.668-.47-.344c-.258-.189-.349-.385-.201-.436l.268-.093-.874-3.969a631.224 631.224 0 0 1-1.214-5.61l-.34-1.64.21-.476c.115-.262.219-.583.232-.715.012-.131.723-.277 1.578-.323l1.556-.084.627-.41c.345-.227.629-.32.631-.207.002.113.112.034.244-.174l.24-.379 3.526-.345c3.654-.357 4.183-.32 4.84.338l.392.392 1.58-.327 1.58-.326-.161-.26-.161-.26.41.158c.225.086.672-.027.993-.251l.583-.409 3.085-.24c1.697-.131 3.562-.215 4.144-.185.582.03 1.318-.087 1.636-.258.318-.172.89-.312 1.27-.312s1.073-.203 1.539-.452c.466-.248.926-.457 1.023-.463.097-.006.266-.1.375-.21.109-.109.744-.178 1.411-.153l1.213.044-1.059.101c-.582.056-1.192.277-1.356.491l-.298.39 1.128 3.553c.62 1.955 1.044 3.59.94 3.632-.294.123-2.771 4.953-2.618 5.106.075.075.983-.024 2.018-.22 2.033-.384 2.311-.327 2.36.487.035.56 1.402 5.27 1.913 6.59l.3.772-.227.154c-.124.085-.627.868-1.118 1.742-.49.873-1.13 1.913-1.419 2.311-.706.971-.525 1.066 1.516.792.958-.128 1.834-.164 1.947-.08.113.083.829 2.051 1.59 4.372l1.384 4.221-.265.164c-.338.21-2.923 4.292-2.796 4.419.052.052.83-.024 1.727-.168 1.91-.308 2.331-.202 2.35.587.007.319.647 2.246 1.422 4.284l1.409 3.704-.53.571c-.896.968-1.19 1.38-1.19 1.667 0 .151-.09.276-.199.276-.25 0-1.757 2.365-1.604 2.518.062.062 1.056.007 2.21-.122 2.364-.265 2.503-.23 2.503.639 0 .986 2.616 7.877 3.257 8.579l.58.635-.632-.157-.631-.156-.484.58c-.267.32-.489.675-.494.79-.01.227-.046.274-1.599 2.04-1.247 1.416-1.28 1.577-.328 1.618l.728.03-1.19.205c-.655.112-1.479.247-1.83.3l-.64.095-.479-1.852-1.501-5.82-1.024-3.97-1.23-.08-1.231-.08-.167-.667-.168-.666.275-.276c.152-.15.822-.336 1.49-.412.667-.075 1.213-.213 1.213-.306 0-.9-2.712-10.055-3.573-12.065-.345-.803-1.233-4.582-2.27-9.657l-.568-2.778-.614-.661-.615-.662.21-.397.211-.397-1.12-4.365a1227.027 1227.027 0 0 1-3.823-15.205c-.604-2.47-1.222-4.639-1.373-4.821l-.276-.332-2.95.142c-1.623.077-3.219.195-3.546.262l-.595.12v.663c0 .365.375 2.16.833 3.99l.833 3.327-.27.172c-.147.095-.598.827-1 1.628-.403.8-.954 1.739-1.226 2.086-.698.893-.612 1.163.234.729.4-.205 1.294-.429 1.985-.496l1.257-.123v.482c0 .265.422 2.042.939 3.95l.94 3.467-1.61 2.66c-.885 1.464-1.56 2.712-1.498 2.773.062.062.879.009 1.816-.116 2.03-.273 2.323-.203 2.323.552 0 .316.408 2.165.907 4.109l.907 3.534-.86 1.227a43.657 43.657 0 0 0-1.604 2.502l-.745 1.275 1.954-.038c1.075-.02 2.103-.029 2.285-.018l.33.02v.657c0 .643 2.513 7.17 2.948 7.66l.22.248-.382.423c-.59.653-3.257 4.966-3.454 5.588l-.176.553-.57-.16c-.313-.088-1.105-.216-1.76-.285l-1.19-.125.66.235.662.234-.727.026-.728.027v-.794l.728-.004c.4-.002.876-.099 1.059-.215l.332-.21-1.306-5.408c-.718-2.974-1.662-7.114-2.096-9.2-.435-2.086-.832-3.835-.883-3.886-.051-.05-.984.02-2.072.158-1.089.138-3.217.36-4.73.492l-2.75.24-.493.493-.493.493.546 3.034c.3 1.668.91 4.57 1.356 6.449l.812 3.415.668.62.668.619h-.435c-.24 0-.436.18-.436.4 0 .22-.105.607-.232.86-.128.253-.432.924-.676 1.491l-.444 1.031 2.065-.168c1.136-.093 3.137-.222 4.446-.287l2.382-.118-2.646.332-2.646.331.794.146c.436.08-.397.092-1.852.027l-2.646-.119.35.247.348.247-1.407.169c-.774.093-1.592.17-1.817.17l-.409.003-1.96-2.646-1.96-2.646h-.524c-.548 0-5.779 3.008-6.279 3.61l-.288.347 1.187 1.66c.653.912 2.035 2.724 3.071 4.024 1.037 1.301 1.783 2.432 1.658 2.514-.125.082-.38.982-.568 2-.187 1.02-.44 2.12-.561 2.448-.295.796-.027.75.944-.164.444-.417 2.047-1.548 3.564-2.513l2.758-1.755h1.384l.916-.768.916-.768-.623-.668c-.742-.794-.673-.94.933-2.005.68-.45 1.126-.82.992-.824-.43-.01 2.913-1.57 3.378-1.576.247-.003.515-.114.597-.246.081-.132 1.002-.249 2.046-.258l1.898-.018.333.276.334.277.528-.283c.291-.155.924-.297 1.406-.314l.878-.031-.794-.202-.794-.202 1.323-.035c.728-.02 1.565-.1 1.86-.18l.539-.144.042.56c.039.514 1.629 2.714 6.31 8.732 2.766 3.557 4.71 6.103 5.127 6.713.211.31 1.38 1.902 2.595 3.54l2.211 2.976.448.021.447.021-.324.131-.324.131.553.748.553.749-.248.744-.248.744-7.786 5.253c-4.282 2.889-8.119 5.452-8.525 5.697-1.118.674-4.889 3.165-12.397 8.192-3.731 2.499-7.095 4.684-7.474 4.857l-.69.314-.644-.294c-.355-.162-.772-.53-.926-.818l-.28-.524.434-.434.434-.434-.421-.422-.422-.421-.416.346c-.23.19-.45.299-.49.242-.041-.058-.886-1.327-1.878-2.82-2.115-3.184-1.87-2.976-3.268-2.788l-1.108.148.789.996c.434.548.789 1.11.789 1.248 0 .138.245.474.545.745.3.271.865 1.063 1.256 1.76.392.697.791 1.268.888 1.268.096 0 .612.781 1.146 1.735.533.955 1.322 2.136 1.751 2.625.43.49.672.958.537 1.04-.255.158-1.251-1.027-2.48-2.948-.397-.62-.837-1.129-.979-1.129-.587 0-3.082.608-3.34.814-.153.122-.558.149-.9.06l-.624-.164.217.352.217.35-.408-.156c-.224-.086-.533-.03-.687.123l-.279.279.478.692c.262.381.97 1.496 1.573 2.479l1.097 1.786h-.786l.16.418.161.418.473-.124.473-.123-.157.41-.158.41.31-.19c.17-.106.31-.08.31.055 0 .359 2.48 1.372 3.357 1.372 1.158 0 2.349-.417 4.133-1.447 2.27-1.312 2.561-1.496 3.667-2.33l.974-.735.178.29c.098.158.137.314.086.346a207.9 207.9 0 0 0-3.542 2.282c-.587.39-1.743 1.018-2.567 1.396l-1.5.686-1.329.07c-.73.04-1.41-.011-1.511-.111-.1-.1-.52-.183-.932-.183h-.75l-.004-.33-.004-.331-.194.264c-.277.377-.869.454-.79.103.036-.162-.404-.564-.979-.892-1.029-.589-2.395-1.67-3.27-2.59-.246-.259-.705-.74-1.02-1.068-.315-.33-.656-1.042-.758-1.584-.101-.542-.427-1.293-.723-1.67l-.539-.685-.324.77c-.434 1.033-2.378 2.661-3.62 3.034l-1.006.3-1.038-.342c-.57-.188-1.304-.273-1.63-.188-.77.202-1.468-.189-2.703-1.515l-1.008-1.081-.139.33c-.076.182-.272.331-.434.331h-.296l.297-.297c.38-.38.202-.861-.893-2.415-.487-.692-.885-1.35-.885-1.463 0-.112-.358-.596-.794-1.074-.437-.478-.794-.98-.794-1.117s-.119-.248-.264-.248c-.146 0-.265-.174-.265-.386 0-.213-.208-.806-.463-1.318l-.463-.932-.31.111c-.357.128-1.107-.906-1.226-1.688-.103-.671-.944-1.608-1.444-1.608h-.385l.162-.645c.09-.355.05-.715-.087-.8-.326-.2-1.076-1.712-1.076-2.168 0-.196-.186-.356-.414-.356h-.415l.168.53.168.528h-.283c-.155 0-.282-.164-.282-.364 0-.2-.171-.507-.381-.68-.21-.175-.316-.486-.237-.692l.144-.376-.425-.163-.424-.162v-.593c0-.325-.238-.807-.529-1.07-.291-.264-.53-.729-.53-1.034l-.001-.554-1.321-1.455c-.726-.8-1.321-1.604-1.322-1.786 0-.182-.12-.331-.266-.331-.145 0-.266.149-.268.33l-.004.332-.234-.37-.234-.369-.412.798-.413.798.149.915.148.915-.677 1.337-.677 1.336-.654.164-.654.165-.719 1.52c-.395.837-1.666 3.486-2.823 5.887a429.955 429.955 0 0 0-2.765 5.821c-1.23 2.71-1.998 4.36-2.893 6.217-.49 1.018-.892 2-.892 2.183 0 .182-.111.331-.247.331s-.329.268-.428.596c-.1.327-.336.774-.525.992-.189.218-.425.84-.526 1.38-.1.54-.348 1.12-.551 1.289-.203.168-.37.466-.37.66 0 .195-.25.588-.557.874l-.557.519.206.35c.113.194-.035.14-.33-.117l-.537-.47-.478.184-.479.183.206-.332.205-.332-1.022.076-1.022.076.06-.302c.034-.166-.204-.385-.528-.487-.325-.102-.852-.466-1.173-.81-.32-.343-.82-.624-1.11-.624-.671 0-2.315-.963-2.51-1.471-.082-.213-.016-.714.146-1.112.162-.399.443-1.082.624-1.518.181-.437.484-1.27.673-1.853.19-.582.679-1.79 1.089-2.683.41-.894.745-1.87.745-2.167 0-.298.111-.611.247-.695.262-.162 1.374-2.463 2.052-4.244a52.435 52.435 0 0 1 1.969-4.418c.272-.538.494-1.1.494-1.25 0-.148.32-.958.713-1.799l.713-1.529.102.472c.056.26-.125.856-.403 1.327-.278.47-.584 1.25-.68 1.733-.097.483-.415 1.214-.707 1.624-.292.41-.532.913-.532 1.115 0 .546-1.468 4.644-1.812 5.059-.397.478-1.139 2.608-.968 2.778.074.075.135-.004.135-.173 0-.17.126-.309.28-.309.154 0 .206.12.117.265l-.164.264.479.004.478.004-.334.213-.335.212.422.845c.404.81 1.102.93.798.137-.081-.211-.043-.319.086-.24.244.151.554-.433.554-1.045 0-.196-.208-.4-.463-.453l-.463-.097.59-.325.589-.325-.155.403c-.317.826.35.367.782-.54l.45-.94-.335-.32c-.183-.175-.661-.527-1.061-.784-.4-.256-.728-.582-.728-.725 0-.143.503.104 1.118.55l1.117.809.33-.45c.18-.248.264-.555.185-.682-.245-.397.172-1.755.587-1.914l.395-.152-.162.262c-.089.144-.098.262-.02.262.077 0 .334-.374.57-.83l.43-.831-.265-.58-.264-.581.234-1.253c.128-.689.302-1.364.386-1.5.263-.424.916-.269.911.217l-.004.463-.223-.353-.224-.353-.17.44c-.24.63-.208 1.665.058 1.83.124.076.188-.184.142-.58-.047-.396-.02-.51.058-.253.079.256.248.401.376.322.128-.08.158-.339.067-.576l-.166-.432.35.217.351.216-.2-.323-.2-.323.457-.333.456-.334.033-1.038c.034-1.034.402-1.7.941-1.7.156 0 .27-.088.252-.198-.075-.478.06-.85.455-1.245l.423-.423-.323-.39c-.178-.214-.474-.389-.657-.389-.184 0-.399-.248-.478-.552l-.145-.552-.481.093c-.265.052-.498.27-.518.486-.02.216-.05.486-.066.6-.017.115-.278.076-.581-.087l-.551-.294-.397.483-.397.484.155-.487c.086-.268.227-.774.315-1.123.087-.35.248-.58.356-.513.109.067.344-.38.524-.994.532-1.816 2.708-6.873 3.327-7.73.96-1.333 1.54-2.854 1.54-4.046v-1.135l.233.341.233.342-.126-1.433-.126-1.433-.51-.684c-.614-.822-2.868-2.22-4.687-2.906-1.419-.536-3.386-1.402-6.35-2.797a91.906 91.906 0 0 0-3.969-1.724c-2.323-.935-3.394-1.386-5.093-2.146-.618-.277-1.63-.728-2.249-1.003-7.471-3.32-8.4-3.996-8.4-6.12v-.508l-.364.14-.363.14.105-.612.105-.61-1.634-.732c-.898-.402-1.562-.803-1.475-.89.138-.139 1.788.511 3.159 1.244.253.135.49.245.53.245.082 0 .157-2.658.166-5.975l.007-2.403h.717l-.11.75-.11.75h.525l-.264 1.237-.263 1.237.492.36c.27.198.732.326 1.024.284l.53-.076.09-.778c.048-.428.01-1.302-.087-1.942l-.174-1.164-.668.168-.667.167.115-.342c.063-.188.402-.345.753-.347l.639-.005v-2.046c0-1.125.071-2.045.158-2.045.087 0 .183-.864.212-1.919.03-1.055.12-2.187.202-2.515l.148-.597-.417-.635-.416-.635.387-.149c.213-.082.387-.383.387-.67 0-.287.12-.596.265-.686.442-.273.296-.661-.25-.661-.282 0-.586-.118-.674-.262l-.162-.261.41.157.411.158.04-.888c.062-1.367.085-1.498.294-1.708.108-.107.195-.399.195-.649v-.454l-.529-.138c-.29-.077-.527-.299-.525-.494l.004-.356.25.395.25.395.335-.336.336-.336-.288-.456c-.323-.513-1.324-.605-1.222-.113.037.176-.023.305-.132.288-.806-.128-1.262.81-.595 1.222.4.247.317.661-.133.661h-.396v1.883l.264-.163.265-.164v.424c0 .233-.123.567-.274.743-.15.176-.418.53-.595.788l-.322.468.061-1.558a20.514 20.514 0 0 0-.166-3.114l-.227-1.556-.059 1.455-.059 1.455-.197-.661c-.108-.364-.16-.88-.116-1.149l.08-.487-.452.157-.452.157.512-.396.513-.397-.053-2.11c-.03-1.16-.157-2.383-.285-2.718a2.877 2.877 0 0 1-.121-1.264c.06-.361.18-1.133.266-1.715.086-.582.265-1.193.397-1.359.132-.165.226-1.88.209-3.813l-.032-3.512-.236.373c-.313.495-.312.097 0-.49.136-.253.344-.697.464-.988l.218-.53.072 4.3.073 4.3 3.367.002c1.852.002 3.807.076 4.344.165l.978.162.31 1.224c.17.674.365 1.838.434 2.588l.125 1.363-.34.621-.34.621-.21 7.144c-.116 3.93-.265 9.525-.331 12.435-.067 2.91-.127 5.366-.134 5.456-.057.682-4.94 1.309-7.255.93l-1.288-.21.105 1.861c.058 1.023.015 1.717-.097 1.542l-.202-.318-.004.952-.004.953.749 1.032c.412.567 1.037 1.168 1.389 1.334 3.55 1.676 5.294 2.46 6.13 2.758.546.194.992.448.992.565 0 .116.172.211.383.211.357 0 4.94 1.946 8.878 3.768.945.438 2.185.961 2.755 1.164.57.202 1.175.483 1.346.624.17.142.776.425 1.345.63 3.836 1.376 6.226 2.902 7.038 4.494l.544 1.066-.13 1.602-.129 1.601-.96 2.318c-.53 1.275-.963 2.525-.964 2.778 0 .253-.477 1.448-1.058 2.655-1.28 2.658-1.278 2.439-.02 3.158l1.034.59-.157.6-.157.601.464-.463c.255-.255.574-.463.71-.463.586 0 .022 1.363-3.595 8.691-2.107 4.271-3.766 7.873-3.685 8.004.081.131.035.238-.103.238-.267 0-2.765 4.949-3.384 6.704a11.866 11.866 0 0 1-.896 1.897c-.69 1.116-.72 1.043.73 1.788a72.61 72.61 0 0 1 2.498 1.36l1.241.715 3.027-6.166c1.664-3.39 3.767-7.713 4.674-9.605 3.242-6.767 6.637-13.767 6.914-14.258.155-.275.503-1.014.773-1.643l.49-1.144-4.138-2.171c-2.276-1.194-4.294-2.171-4.484-2.171-.402 0-.46-.34-.096-.564.232-.144 1.169.315 7.156 3.501 1.236.658 2.1 1.02 1.92.803-.18-.216-.265-.455-.19-.53.075-.075-.045-.287-.266-.47-.222-.185-.404-.518-.404-.741 0-.223-.297-.796-.661-1.273-.77-1.01-.794-1.202-.274-2.208l.388-.75.665-.166c.366-.092.929-.523 1.25-.957.321-.435.683-.79.804-.79.308 0-.07 1.376-.497 1.802-.193.194-.352.453-.352.577 0 .123-.365.305-.811.403-.447.098-.879.351-.96.563l-.148.386.563.599c.31.33.567.77.572.978.005.21.174.678.376 1.042l.368.661H116.105l-.016.977-.015.977.412-.23.413-.231.474.43.475.429-.171-.515-.171-.514 1.292 1.323c.711.728 2.352 2.99 3.646 5.027a1065.96 1065.96 0 0 0 3.722 5.821 790.296 790.296 0 0 1 2.757 4.3c1.34 2.106 1.843 2.687 1.49 1.72-.094-.255.127-.107.49.33.364.437.666.896.67 1.021.006.126-.224-.053-.51-.396-.63-.756-.704-.463-.112.44l.426.65.276-.17.277-.172-.2.325-.201.324 1.482 2.205c.816 1.213 1.483 2.366 1.483 2.563 0 .197.214.493.476.656l.476.297.443-.323.443-.324-.533-.572c-.293-.314-.438-.575-.323-.58.114-.004.03-.153-.189-.331-.218-.178-.428-.477-.466-.664-.109-.529-1.428-2.435-1.685-2.435-.127 0-.2-.1-.164-.222.053-.177-3.712-6.128-3.877-6.128-.244 0-.033 1.097.257 1.337.209.173.38.442.38.598 0 .313-1.21-1.23-1.622-2.068l-.26-.529.371.459c.34.418.716.383.716-.068 0-.1-.323-.526-.718-.948-.395-.421-.722-.944-.727-1.163-.005-.218-.167-.364-.36-.324l-.35.073.194-.315.195-.315-.77-.647c-.424-.355-.61-.56-.414-.453l.357.193-.3-.561c-.165-.309-.363-.561-.439-.561-.076 0-.08.095-.008.21.072.117.017.385-.121.596l-.252.384.138-.843.138-.844-.306-.19-.307-.189.214.347.214.346-.31-.191c-.17-.106-.243-.3-.161-.432.206-.333-1.59-2.942-1.859-2.699-.12.109-.146.071-.058-.084.205-.36-.71-1.773-.977-1.507-.11.11-.176.082-.147-.064.113-.559-.02-.95-.27-.795l-.262.161.174-.454.174-.454-.375.219c-.207.12-.29.122-.185.006.208-.23-.574-1.726-.901-1.726-.11 0-.131-.178-.047-.396l.152-.397h-.293c-.16 0-.293.119-.293.264 0 .456-.955.289-1.445-.254-.259-.285-.545-.51-.637-.498a3.358 3.358 0 0 1-.526-.01l-.359-.031.144-.375c.08-.207-.01-.435-.2-.507-.188-.073-.408-.38-.487-.684l-.145-.552.24.148c.132.082.22-.067.198-.33a6.194 6.194 0 0 1 0-.923l.042-.445.596-.087.595-.088-.926-.892-.926-.893.463.16c.254.087.463.044.463-.097a.252.252 0 0 0-.247-.256c-.136 0-.322-.238-.415-.53-.092-.29-.335-.529-.54-.529h-.372l.163-.86c.206-1.078.318-1.208.627-.72l.247.39.004-.33c.002-.183.198-.332.436-.332.237 0 .656-.259.93-.575l.5-.576.868-.02.868-.02-.873-.824c-.48-.454-.873-.97-.873-1.15 0-.37-1.054-1.79-1.067-1.434-.031.91-.54-.977-.658-2.446l-.147-1.818.749-1.056c.411-.581.981-1.176 1.266-1.323.625-.322 1.57-1.091 2.444-1.987.354-.364.817-.625 1.028-.58.445.094 4.196-1.868 5-2.616.301-.28.633-.508.739-.508.226 0 1.636-.962 2.486-1.695l.595-.514v.64l.53-.283.528-.283v.274c0 .431 1.24.32 1.714-.155.57-.57.375-.707-.523-.365-.614.233-1.273.178-.904-.076.82-.565 2.641-1.704 4.344-2.719 1.164-.693 2.206-1.41 2.316-1.593.11-.184.544-.409.963-.5l.763-.168 1.21-1.335c.666-.733 1.283-1.56 1.37-1.837l.16-.503h-.282c-.156 0-.286.208-.29.463l-.009.463-.267-.46-.268-.46.258-.481c.304-.569.24-1.397-.217-2.777-.182-.552-.265-1.177-.183-1.39.177-.462.042-.48-.679-.094-.299.16-1.487.442-2.64.626l-2.095.336-.874-.3c-.48-.166-1.24-.667-1.686-1.113l-.811-.812-.42-1.414c-.231-.778-.42-1.676-.42-1.996 0-.32-.183-.733-.407-.919l-.407-.337.17-1.136.17-1.136-.517-.742c-.285-.408-.598-1.155-.695-1.662l-.177-.92-.723-.584-.722-.585.577.039c.318.02.523.126.456.234-.067.108.12.326.415.484.295.158.537.241.537.185 0-.35-.613-1.769-.764-1.769-.1 0-.203-.593-.227-1.319-.025-.725-.153-1.529-.285-1.786-.132-.256-.187-.615-.122-.797.066-.182-.015-.331-.18-.331h-.298l.168-.898.169-.898-.345-.624c-.19-.342-.32-.712-.29-.821.032-.11-.055-.199-.19-.199h-.249l.125-.86.125-.86-.362-.66c-.199-.365-.5-.633-.67-.596l-.31.066v-.64c0-.352-.08-.849-.178-1.104l-.178-.465.444.17.444.171-.429-.654c-.235-.359-.552-.653-.703-.653-.151 0-.078-.218.163-.484.24-.266.438-.795.438-1.175 0-.824.159-.943 1.492-1.112a24.526 24.526 0 0 0 1.712-.28l.691-.15.278-.61.277-.609 1.252-.171c.688-.094 1.665-.172 2.17-.172h.92l-.19-.595c-.105-.327-.246-1.31-.313-2.183-.068-.873-.298-1.858-.513-2.19-.214-.331-.32-.715-.236-.852.085-.137-.033-.611-.262-1.053l-.415-.805.059-.99c.033-.543.176-1.068.318-1.165l.258-.176-.462-.705c-.254-.388-.396-.877-.316-1.087l.147-.382-.523.28-.524.28v-.241c0-.133.188-.397.418-.588l.417-.346-.174-1.497-.174-1.497.791-.665.791-.666 1.365-.181 1.365-.181.78-.887c1.362-1.552 2.208-1.765 10.007-2.522 2.988-.29 3.244-.375 2.606-.87-.232-.18-.54-.772-.685-1.314l-.263-.986.498-.632c.273-.348.434-.696.357-.773-.078-.078-.148-.54-.158-1.028-.009-.488-.196-1.093-.415-1.344l-.399-.457.154-.949.154-.948-.515-.918c-.284-.504-.515-1.243-.515-1.64 0-.399-.232-1.156-.515-1.683-.282-.528-.449-1.025-.37-1.104.08-.08-.156-.781-.524-1.559-.368-.778-.747-1.726-.843-2.107-.096-.381-.41-.947-.698-1.256l-.525-.563.084-.583.083-.584.713.77.712.77.179 1.058c.098.582.462 1.566.809 2.187.346.621.63 1.419.63 1.773 0 .355.17.785.376.957.207.172.454.811.549 1.421.094.61.354 1.51.577 2l.404.89-.161.807-.161.806.421.466.422.466.048 1.674.049 1.674-.402.352-.402.352.466-.147.466-.147-.164.655-.164.654h.851v1.654l.827-.165c.455-.091.918-.166 1.03-.166.394 0 .512-.82.192-1.333l-.324-.519h-1.26l.326-.394c.18-.216.445-.32.59-.232.144.09.08-.12-.141-.466-.222-.345-.438-.985-.48-1.421-.043-.437-.228-.98-.413-1.205-.184-.226-.32-.821-.301-1.323.018-.502-.067-1.21-.19-1.573-.122-.364-.192-.87-.155-1.125.037-.255-.05-.463-.192-.463-.143 0-.34-.358-.435-.796-.097-.438-.285-.728-.418-.646l-.244.151v-2.11l-.358-.359c-.472-.471-2.098-4.9-1.911-5.202.08-.13-.094-.54-.387-.913-.637-.809-1.403-2.562-1.118-2.555.111.003.607.492 1.101 1.087l.9 1.083.074 1.046c.04.575.177 1.187.303 1.36.126.173.45.969.722 1.77.272.8.653 1.69.849 1.976.195.287.354.736.354.996s.116.68.258.933c.867 1.544 1.24 2.712 1.544 4.826.115.8.352 1.715.527 2.033.174.318.317.772.317 1.01 0 .239.174.607.386.82.212.212.327.538.255.725-.072.187.112.559.408.827l.539.487v.753c0 .414.119.753.264.753.359 0 .35-.07-.32-2.694l-.588-2.297.443-.49.443-.49-.382-2.77c-1.013-7.348-2.259-13.199-3.879-18.219l-1.143-3.544-.958-.028-.957-.028.128.333c.07.183-.075.642-.322 1.019l-.45.686-.713-.105-.713-.104-.026.408c-.014.225-.188.806-.387 1.292l-.362.882.727.627c.4.344.728.843.728 1.109 0 .265.185.747.412 1.07l.412.589h-1.089v-.369c0-.203-.178-.437-.396-.52l-.397-.153v-.637c0-.351-.179-.786-.397-.967-.218-.181-.397-.535-.397-.785 0-.251-.255-.683-.567-.96l-.566-.504.141 1.297.142 1.296.414.232c.228.128.496.675.595 1.217.1.542.342 1.22.54 1.507.41.594.46.933.14.933-.122 0-.38-.297-.574-.661-.195-.364-.543-.664-.773-.666l-.418-.004.34-.216.342-.217-.268-.705c-.148-.388-.383-.706-.522-.706-.14 0-.329-.238-.421-.529l-.168-.53h-1.251l-.084.596-.085.595-.865.28c-.476.154-1.048.541-1.272.86l-.406.58h-.634c-.348 0-.728.168-.845.372-.235.415-2.35 1.857-3.91 2.669-.558.29-1.067.728-1.131.974l-.117.447-.386-.149-.386-.148-1.152.828c-.634.456-1.274.828-1.423.828-.148 0-.523.357-.834.794-.605.849-1.059 1.029-1.059.42 0-.491-.376-.41-2.072.451-.776.394-1.581.716-1.79.716-.208 0-.585.118-.838.263-.869.497-2.842 1.132-3.691 1.189-.468.03-1.027.203-1.243.381-.215.18-.666.298-1.001.265-.335-.034-.907.061-1.27.21-.365.15-1.198.36-1.853.467-.655.108-1.31.285-1.455.394-.146.109-.603.279-1.016.378l-.75.18.353.451.355.453-.416-.324c-.229-.178-.764-.31-1.19-.293-.427.017-1.163-.06-1.636-.173l-.86-.203v.62l-1.14-.059c-.627-.032-1.274.024-1.438.125-.164.102-1.17.198-2.234.214-1.064.016-2.052.098-2.195.181-.144.084-.65.119-1.125.078-.475-.041-.863.032-.863.163v.238l-1.39-.097c-.763-.054-1.705-.201-2.091-.328l-.703-.23-1.084.244-1.084.244-.509-.318-.508-.318-.711.324-.71.324-.302-.246c-.32-.262-2.761-.523-6.627-.708l-2.356-.113-.422-.365c-.231-.201-.6-.372-.818-.381-.218-.009-1.17-.036-2.117-.06l-1.72-.046-.396-.347c-.84-.734-2.909-.478-2.912.36l-.002.435-.49-.742c-.692-1.05-1.304-1.406-2.792-1.625-.715-.106-1.549-.353-1.852-.55a4.031 4.031 0 0 0-1.247-.484c-.383-.068-1.259-.424-1.947-.79-.687-.366-1.417-.601-1.62-.523-.205.078-.657-.045-1.007-.274l-.635-.416-.265.32c-.329.399-2.262 5.206-2.718 6.759l-.337 1.145.38.269.378.268-.448-.143-.447-.143-.686 2.117c-.377 1.164-.987 3.369-1.355 4.899l-.67 2.781.328.397.33.397-.06 2.335-.06 2.335 8.016.105 8.017.106 1.058.558c1.425.753 2.092 1.547 2.623 3.124l.445 1.323.15 2.646.15 2.646-.248.926-.249.926-.179-3.099c-.313-5.402-.842-6.846-2.913-7.953l-1.102-.59-10.583-.132c-5.821-.073-10.722-.222-10.892-.332l-.308-.2-.088.265-.09.266-41.884.01-41.884.01-1.361.258-1.361.258-.583.547-.582.547-.004.84c-.004.95-.25 2.23-1.226 6.394-.375 1.601-.731 3.414-.792 4.03-.06.615-.178 1.229-.262 1.365-.084.136-.334 1.24-.555 2.453a85.922 85.922 0 0 1-.927 4.323c-.648 2.619-1.308 5.825-1.416 6.88-.044.436-.288 1.686-.542 2.777-1.242 5.34-1.481 6.416-1.999 8.996-.306 1.528-.686 3.255-.843 3.837-.158.582-.686 2.963-1.174 5.291a329.16 329.16 0 0 1-1.022 4.763 289.3 289.3 0 0 0-.7 2.982c-.534 2.317-1.027 3.376-1.027 2.209 0-.292.119-.603.265-.693.145-.09.264-.544.264-1.01 0-.465.126-1.262.28-1.77.54-1.792.583-1.993.67-3.173l.087-1.19-.22.857c-.121.472-.355 1.02-.519 1.218-.164.198-.294.645-.288.994.019 1.194-.324 3.544-.622 4.257l-.297.712-.315-.262-.316-.262-.389.556-.39.556-2.346-.059-2.346-.059-1.13-.477-1.13-.477-.16-.8c-.088-.441-.248-.802-.355-.802-.107 0-.144-.327-.082-.727.063-.4.114-.934.113-1.186 0-.252.11-.527.247-.61l.248-.154v.876l-.001.875 2.778-.083c1.529-.046 2.779-.14 2.779-.21 0-.07.173-.984.385-2.033.344-1.7 1.024-5.965 2.816-17.65.301-1.965.657-3.685.79-3.823l.242-.252v.392c0 .8-2.13 15.098-3.072 20.616-.236 1.383-.445 2.688-.464 2.9-.053.575.855.654 1.44.125.593-.537.664-.21.112.52-.372.492-.316.953.116.953.357 0 .876-2.373.984-4.498.055-1.091.139-2.58.186-3.307l.085-1.323-.364.794-.364.794.184-1.323c.101-.728.206-1.68.233-2.117.126-2.04 1.033-7.038 1.386-7.635.073-.125.248-.065.388.132l.255.36-.186-.662a14.472 14.472 0 0 1-.312-1.621l-.127-.96.516-.363c.284-.2.595-.615.692-.921l.176-.558-.4-.332c-.22-.183-.334-.438-.255-.567.08-.129-.047-.234-.283-.234-.235 0-.364-.104-.285-.23.078-.128.748-.21 1.488-.183l1.345.049.274-.512c.15-.281.171-.448.046-.37l-.229.14-.082-2.45-.083-2.452.417-.997c.23-.549.417-1.035.417-1.08 0-.174-8.669.077-8.962.258-.17.105-.228.32-.13.477l.178.288-.285-.176-.284-.176-.266.863c-.146.474-.418 1.934-.604 3.243l-.338 2.382-.19-.92c-.104-.506-.145-.991-.09-1.08.054-.087.152-.822.219-1.633.066-.812.36-2.018.654-2.682l.534-1.206.615-.144c.338-.078 2.743-.112 5.346-.074l4.731.068.221-.53c.231-.555 1.519-6.587 2.232-10.453.446-2.419.743-3.764 1.855-8.41l.714-2.985.57-.85.568-.851 1.444-.481 1.445-.481 42.128-.028 42.129-.027.134-.682c.074-.376.213-1.139.31-1.696l.174-1.013.598-.272.598-.273.16-.963c.087-.53.16-1.396.162-1.924.001-.528.183-1.39.403-1.918l.4-.958-.334-.004-.334-.004.284-.195c.156-.107.471-.909.7-1.782.228-.873.616-2.242.862-3.042.246-.8.474-1.634.507-1.852.033-.219.202-.657.375-.975a3.03 3.03 0 0 0 .315-1.218c0-.352.535-1.787 1.19-3.188.655-1.402 1.19-2.71 1.19-2.91 0-.199.358-.854.795-1.457.436-.603.793-1.15.793-1.217 0-.425 1.788-2.646 2.542-3.159.5-.34 1.552-1.444 2.337-2.455 1.533-1.973 2.289-2.471 3.745-2.471h.927l.62.67c.342.368.7 1.089.796 1.601l.175.931.448.141c.54.17 2.31.84 3.227 1.224.364.152.84.308 1.058.346.948.166 3.136.64 4.234.915 1.241.312 2.066.453 3.826.653.577.066 1.232.2 1.455.3.466.206 1.813.353 3.233.353.535 0 1.033.096 1.106.214.073.118 1.059.188 2.19.156 1.132-.033 2.17.01 2.309.096.752.465 12.861.415 13.997-.057.256-.107.726-.127 1.044-.044.318.083.703.048.856-.078.153-.126 1.052-.27 1.998-.32.946-.05 1.786-.178 1.866-.285.13-.174 1.066-.34 3.215-.569.393-.042.893-.224 1.11-.404.218-.181.67-.3 1.005-.265.335.036.907-.059 1.27-.21 1.121-.464 2.53-.87 3.015-.87.255 0 .642-.18.86-.397.218-.219.672-.397 1.007-.397.336 0 .759-.179.94-.397.18-.218.659-.397 1.062-.397h.733l.152-.397c.084-.218.406-.397.715-.397.309 0 .864-.238 1.234-.529.37-.291.823-.53 1.007-.53.183 0 .676-.389 1.094-.865.418-.476 1.314-1.264 1.992-1.75l1.231-.885-.141-.368-.141-.368 1.44-.637c.792-.35 1.995-.72 2.675-.822l1.234-.185.333-.694c.183-.382.563-.739.845-.793.281-.055.736-.383 1.01-.731.273-.348.644-.632.824-.632.18 0 .592-.358.915-.794.323-.437.762-.794.976-.794.214 0 .389-.158.389-.35 0-.194.275-.61.612-.927l.613-.575h.856c5.209 0 9.512 9.731 12.064 27.28.368 2.532.67 4.743.67 4.915.001.172.22.383.488.467l.486.155.878 2.84c.484 1.562.907 2.877.942 2.922.055.073 4.404-.22 9.246-.62 7.131-.59 21.14-1.631 26.59-1.976 2.256-.143 4.697-.317 5.425-.387 1.251-.12 2.14-.197 6.217-.533.946-.077 3.387-.254 5.424-.393 4.631-.314 17.586-1.3 19.183-1.46.654-.065 2.347-.199 3.76-.297l2.57-.179 1.185.332 1.186.332.658.962c.75 1.095.711 1.006 2.644 6.002.79 2.045 1.677 4.248 1.97 4.895.292.648 1.276 3.082 2.186 5.41.91 2.33 1.744 4.337 1.853 4.463l.198.228 3.264-.346c1.795-.19 3.68-.32 4.188-.29l.923.056.507.507c.734.734 1.21 2.308 1.214 4.018l.004 1.491.625 2.08c.343 1.145 2.01 6.119 3.704 11.054 3.27 9.525 3.195 9.247 2.712 10.115zm-74.173 24.373-1.263-3.9-.87-.002c-.817-.003-1.063.118-2.05 1.008l-.388.35.178.84a8.77 8.77 0 0 1 .17 1.575c-.003.404.058.669.138.59.179-.18 1.207 4.044 1.656 6.802l.332 2.04.723-.984c1.865-2.535 2.594-3.657 2.615-4.023.012-.218-.546-2.151-1.24-4.296zm-7.633 16.833a4391.84 4391.84 0 0 1-8.564-11.016l-4.045-5.225h-.86c-.472 0-1.143.217-1.49.482-.347.264-1.554 1.05-2.682 1.747l-2.05 1.265v.53c0 .292 1.168 2.036 2.596 3.875 1.428 1.84 4.133 5.37 6.01 7.844 1.878 2.473 4.211 5.542 5.184 6.818l1.77 2.32-.224.722c-.398 1.28-.97 4.577-.78 4.501.1-.04 2.515-1.615 5.365-3.5l5.182-3.425-.447-.574-4.965-6.364zm3.857-30.345c-.728-1.942-1.323-3.67-1.323-3.841 0-.436-.16-.402-1.76.381l-1.415.693v.397c0 .219.406 1.961.902 3.872.497 1.91 1.055 4.277 1.24 5.26.45 2.39.49 2.376 2.52-.816 1.395-2.192 1.407-1.753-.164-5.946zm-3.71-13.28a348.954 348.954 0 0 0-1.19-3.767c-.017-.034-.495.174-1.061.463-.567.289-1.236.525-1.488.525-.89 0-.88.112.458 4.63.344 1.165.904 3.186 1.244 4.493l.618 2.375 1.378-2.24c.758-1.23 1.338-2.36 1.289-2.507-.05-.148-.611-1.935-1.248-3.973zm-3.315-12.346c-.516-1.796-1-3.473-1.076-3.728l-.137-.463h-.556c-.305 0-.479.076-.386.17.093.092-.314.407-.905.7-1.439.712-1.478.922-.701 3.724.369 1.33.942 3.465 1.274 4.746l.603 2.328.372-.372c.281-.281 2.389-3.559 2.442-3.797.005-.023-.413-1.512-.93-3.308zm-3.533 62.375a6734.16 6734.16 0 0 1-5.314-7.014 905.22 905.22 0 0 0-5.748-7.517c-1.244-1.599-2.34-3.201-2.436-3.56l-.175-.654-1.426 1.312-1.427 1.312.776 1.037c.426.57.874 1.157.994 1.302 2.12 2.57 13.607 18.259 13.532 18.48-.058.168.366.825.94 1.46l1.045 1.155.139-.36c.076-.2.3-1.255.497-2.346.198-1.091.375-2.033.394-2.093.02-.06-.786-1.192-1.79-2.514zm-.426-75.76c-.522-1.637-1.07-2.977-1.216-2.977-.147 0-.182.138-.078.306l.189.305-.311-.192-.311-.192-.779.655c-.428.36-.9.696-1.049.747l-.27.09.494 1.632c.271.897.817 3.022 1.213 4.722l.719 3.093.238-.238c.425-.425 2.297-4.42 2.203-4.702-.05-.15-.52-1.612-1.042-3.25zm-.202 82.188c-.615-.671-1.95-2.32-2.97-3.665a1515.179 1515.179 0 0 0-5.688-7.419 2365.28 2365.28 0 0 1-6.074-7.91l-2.238-2.935h-.56c-.476 0-4.637 2.464-5.823 3.448-.695.577-.424 1.1 2.734 5.266 1.716 2.265 5.1 6.737 7.52 9.939 2.42 3.201 4.647 6.083 4.95 6.405.637.677.683.87.206.87h-.342l-.06.892c-.033.49-.227 1.532-.43 2.315-.203.783-.343 1.45-.311 1.48.031.033 1.43-.92 3.108-2.115 1.678-1.196 3.964-2.77 5.08-3.497 2.364-1.542 2.348-1.487.898-3.074zm-3.008-41.072c-.633-1.578-1.152-3.037-1.152-3.24 0-.205-.127-.372-.282-.372-.43 0-2.894 1.101-2.887 1.29.023.612 2.686 10.49 2.883 10.694.272.282.572-.119 1.843-2.459l1.077-1.984-.164-.53c-.09-.29-.684-1.82-1.318-3.399zm-3.515-12.821c-.426-1.702-.813-3.412-.86-3.8l-.085-.708-1.376.585c-1.86.79-1.805.633-1.185 3.4.59 2.637 1.635 7.944 1.636 8.316.002.378 2.592-4.044 2.628-4.486.01-.118-.332-1.606-.758-3.307zm-3.007-13.978-.872-3.404-.782.167c-.43.093-.662.183-.517.202.146.018-.246.34-.87.714l-1.136.68.139.442c.076.243.617 2.516 1.202 5.05.585 2.536 1.104 4.65 1.152 4.698.05.05.433-.537.854-1.301.42-.765.969-1.748 1.218-2.185.615-1.075.607-1.18-.388-5.063zm-4.99 63.846c-3.079-4.1-6.511-8.644-7.627-10.1-1.117-1.454-2.148-2.86-2.293-3.123l-.263-.477-.643.535c-.353.294-.5.539-.327.543a.603.603 0 0 0 .478-.255c.09-.146.29-.265.445-.265h.282l-.321.387c-.177.212-.578.467-.892.565-.315.099-.832.382-1.15.63l-.579.452 1.255 1.563c2.048 2.552 10.323 13.636 12.999 17.412 2.716 3.833 2.945 4.127 3.22 4.127.152 0 .208-.18.124-.397-.084-.219-.057-.397.06-.397.216 0 .727-2.017.793-3.13l.036-.617zm2.59-51.973c-.972-3.62-1.963-7.67-2.688-10.995l-.451-2.069-.67-.254-.671-.255-3.73.42c-2.053.23-3.998.474-4.323.541l-.591.122-.147.591c-.293 1.18 2.005 11.226 2.843 12.432.279.4.405.727.28.727-.124 0-.244.247-.267.548-.023.302-.239 1.143-.48 1.87-.242.726-.37 1.389-.287 1.472.133.133 7.564-.468 11.095-.897l1.271-.154-.14-.365c-.077-.2-.547-1.88-1.045-3.734zm.364 64.836-.527.138-.751-.967c-.413-.531-1.792-2.485-3.063-4.34-1.272-1.856-2.693-3.778-3.159-4.272l-.847-.898-.92.058-.922.057.054.276c.03.151-1.021.911-2.335 1.69-1.315.777-2.508 1.635-2.653 1.905l-.263.492.457.71c1.957 3.038 5.752 8.25 6.01 8.254.175.002.024.153-.336.335l-.653.33-.099 1.187c-.054.653-.266 1.588-.471 2.08-.205.49-.372.984-.372 1.098 0 .114 1.399-.714 3.108-1.84 2.702-1.777 5.361-3.464 7.4-4.693l.587-.354-.142-.37c-.078-.203-.014-.448.141-.544.463-.286.321-.48-.244-.332zm-.774-88.705c-.424-1.773-.82-3.273-.88-3.333-.18-.18-2.158.86-2.632 1.384l-.44.488.382 1.587c.21.873.668 2.997 1.018 4.72.35 1.723.684 3.18.742 3.238.139.139 2.573-4.164 2.578-4.557.002-.167-.344-1.754-.768-3.527zm-4.658 3.301c-.688-2.62-1.31-5.034-1.382-5.366-.073-.332-.372-.731-.665-.888l-.532-.285-2.28.18c-3.495.278-4.37.406-4.646.683l-.255.255.757 3.107c.417 1.71.92 3.435 1.12 3.836l.361.727h-.807v.47c0 .258-.524 1.389-1.165 2.513-.64 1.124-1.084 2.044-.985 2.044.1 0 1.844-.228 3.877-.508 2.033-.28 4.69-.59 5.905-.691l2.208-.183-.13-.566c-.072-.31-.693-2.708-1.38-5.328zm-2.1 40.085c-.232-.8-.526-1.932-.652-2.514-1.006-4.637-1.385-6.855-1.427-8.343l-.049-1.728-.75.108-.75.108.159.562c.087.309.464 1.812.839 3.34.374 1.528.803 2.927.954 3.109l.274.33h-.297c-.397 0-.377.67.034 1.112.455.49.525.842.617 3.122a33.46 33.46 0 0 0 .453 3.969l.371 1.984.196-.794a20.82 20.82 0 0 1 .422-1.455c.243-.709.243-.712-.395-2.91zm-3.312 31.22c-.863-1.131-3.803-5.63-5.12-7.836l-.967-1.618-.995.198c-.547.11-2.244.903-3.772 1.763l-2.778 1.565-.08.543-.08.543 2.786 4.207c1.532 2.314 2.67 4.247 2.527 4.295-.142.049-.263.347-.268.662-.005.315-.233 1.52-.507 2.677l-.499 2.103.993-1.075.993-1.076 3.188-1.88 3.188-1.88 1.155-.176c.636-.097 1.307-.296 1.492-.442l.337-.266-.443-.69a30.522 30.522 0 0 0-1.15-1.617zm-2.154 13.079c-1.473-2.173-2.781-4.223-2.908-4.556l-.231-.606-.532.284c-.292.157-.531.4-.531.54s-.105.225-.233.189c-.128-.036-.598.2-1.044.527l-.811.592 2.79 4.17c1.533 2.293 2.97 4.52 3.192 4.946.221.427.719 1.114 1.105 1.527l.702.752.3-1.13c.166-.623.418-1.548.562-2.057.144-.51.274-.994.289-1.077.015-.083-1.178-1.929-2.65-4.101zm1.25-63.383c-.66-1.604-2.506-9.75-2.623-11.584l-.075-1.166-.56-.085-.56-.085.067.59c.126 1.129.796 3.501 1.037 3.67.31.217 1.015 3.902.81 4.234-.085.137-.008.426.17.641.18.216.253.464.165.552-.088.089-.031.403.127.699.159.296.34 1.122.402 1.837.063.715.21 1.558.326 1.875.117.316.19.843.162 1.17-.063.757.171.532.57-.547.17-.463.32-.857.33-.875.011-.019-.145-.436-.347-.926zm-3.228-22.663c-.377-1.56-.731-2.987-.787-3.172l-.103-.337-.6.337c-.332.185-.662.408-.734.495-.073.087-.413.307-.756.487l-.624.33.157.702c.927 4.144 2.006 8.587 2.112 8.693.175.174 1.968-3.62 1.998-4.227.013-.26-.286-1.748-.663-3.308zm-.835 36.045-.463.177.33-.334c.182-.183.331-.476.331-.652v-.32l-.595.128-.596.127.735-.482.734-.482-.088-.397c-.05-.219-.236-.366-.415-.328l-.327.07.276-.516c.347-.647.352-.893.015-.684l-.262.162.158-.411.157-.41h-.621l.168-.53.168-.529h-.283c-.155 0-.282.139-.282.309 0 .17-.077.232-.17.138-.094-.093-.017-.354.17-.579l.34-.41-.391.15-.39.15v-.824l.551.134c.303.073.402.065.22-.019l-.33-.151v-.889c0-.488-.103-.952-.23-1.03-.125-.078-.171-.442-.1-.81l.127-.667h-.296a.289.289 0 0 1-.295-.28v-.28l.33.187c.183.102.064-.074-.264-.392-.327-.318-.595-.7-.595-.848v-.27l.306.19.306.188-.174-.636a20.654 20.654 0 0 1-.34-1.63c-.091-.545-.253-.991-.36-.991-.107 0-.137-.298-.068-.662.202-1.052-.298-.767-.858.49l-.512 1.15-.473-.123-.473-.123v.574l-.41-.157a.536.536 0 0 1-.321-.587.775.775 0 0 0-.268-.703l-.357-.273.546-.042.545-.04.008.578.008.58.278-.478.277-.477-.296-.357-.297-.357.342-.126.342-.125-.574-1.09c-.315-.601-.503-1.092-.417-1.092.362 0 1.123.913 1.123 1.348 0 .608.295.78 1.012.593l.576-.15v-.572c0-.315-.161-.807-.358-1.094-.196-.287-.376-1.107-.4-1.822-.024-.715-.171-1.454-.327-1.642-.156-.188-.196-.485-.088-.659l.196-.317-.305.189-.306.189v-.413c0-.227-.105-.412-.234-.412-.294 0-.537-1.011-.73-3.043-.082-.873-.262-1.725-.398-1.893l-.247-.305.268-.092.27-.091-.15-.569-.15-.568-.375.055c-.207.03-.524.205-.704.388l-.328.332.463.342c.255.188.463.485.463.66 0 .174.09.262.198.195.11-.067.199.583.199 1.445v1.566l-.321-.44c-.177-.241-.363-.562-.413-.713l-.091-.274-.35.216-.348.216.43.241c.238.133.431.473.431.757v.516h.759l-.023.794c-.027.96-.471 1.075-.471.122v-.672l-.368.341-.367.341.301.213.302.212-.53-.083-.529-.083-.091-.658c-.05-.363-.18-.778-.288-.924-.225-.302-.194-1.485.05-1.878.089-.145.053-.437-.08-.648l-.244-.384-.004.33c-.002.182-.143.331-.313.331s-.23-.078-.134-.174c.096-.096.039-.337-.126-.535-.165-.2-.224-.438-.13-.532.093-.093.17-.031.17.139s.178.308.397.308c.218 0 .397-.104.397-.232 0-.127-.179-.38-.397-.561-.219-.181-.397-.449-.397-.594v-.265l.397.33.397.329v-.353c0-.194.238.114.529.685.29.57.529 1.25.529 1.511 0 .26.119.473.264.473.437 0 .302-.788-.325-1.903l-.59-1.05.486-.272.486-.272-.74-.485c-.406-.267-.827-.43-.935-.364-.272.168-.448-.173-.633-1.224-.087-.493-.21-.948-.274-1.012-.064-.064.005-.262.153-.44l.27-.324-.396-.152c-.547-.21-.58-.048-.449 2.207l.115 1.984.2-.661.198-.662.027.684c.014.376-.056.766-.157.866-.1.101-.222.448-.27.772-.047.324-.33.923-.629 1.331-.299.409-.6 1.183-.67 1.72l-.127.977.559-.926c.307-.51.478-.688.379-.397-.234.69-.235.89-.004 1.918l.193.86h-.609l.082.625c.045.344-.068.805-.25 1.025l-.332.4.173.453.174.452.197-.318.197-.319.322.975c.177.537.262 1.202.19 1.478l-.131.503.502.159c.276.088.502.277.502.422 0 .144-.119.189-.263.1-.144-.09-.461-.051-.704.084l-.441.247.607.325.607.325-.309.192-.31.19.17.443c.094.243.273.441.4.441.126 0 .16.343.077.762l-.152.762.32.197.319.198-.179-.563-.178-.562h.864l-.083.728-.084.727-.595.085c-.328.046-.596.215-.596.375s.08.21.177.113c.098-.097.395.02.662.262l.484.438.04 1.216.04 1.216.166-1.191.167-1.19.218.89.219.892-.333.621c-.182.342-.433.559-.557.482-.43-.266-.22.23.282.666.278.242.558.792.622 1.222l.115.783.04-.876.04-.875.264.163c.146.09.265.737.265 1.439 0 .7.187 1.722.415 2.269.228.546.474 1.543.547 2.215.072.671.242 1.566.378 1.988.136.422.247 1.155.247 1.629v.862l.532-.14c.293-.076.898-.6 1.345-1.165l.813-1.027h-.655c-.36 0-.717-.161-.793-.358l-.137-.359.722-.634c.398-.348.932-.594 1.187-.544l.465.09-.15.387-.148.387.262-.162c.144-.089.261-.035.261.119s-.119.28-.264.28c-.146 0-.265.292-.265.65 0 .357-.277.926-.615 1.264-.338.338-.568.755-.51.927l.103.312-.949.396c-.522.218-.977.382-1.01.364-.21-.114-1.241.653-1.127.838.077.124-.398.41-1.055.634l-1.196.407-.855-.372-.856-.372.926-.02.926-.018.635-.529.635-.529-.502-.366-.502-.367-.35.29-.35.29.135.514.134.513-.91-.147-.909-.148V157c0 .354-.681 1.023-1.042 1.023h-.285l.323.517c.415.665.071 1.012-.592.597-.987-.616-2.586.171-4.255 2.096-.616.71-.62.785-.036.58l.463-.164-.33.357-.331.356-.325-.324-.324-.324.324-.52c.526-.84.381-.858-.601-.074-.51.407-.926.834-.926.949 0 .377-.907 1.143-1.882 1.59-.526.242-1.121.64-1.323.885l-.367.445.618-.33c.34-.18.696-.25.791-.155.198.197-.583.708-1.493.975l-.612.18.328-.395.328-.395-.736.185-.736.184-.248-.366-.248-.367.071.53c.04.29-.015.666-.12.835l-.193.306.596-.143.595-.142-.468.493-.468.493-.458-.296c-.252-.163-.441-.489-.421-.723.045-.525-.397-.565-.593-.054-.08.205-.433.446-.786.534l-.642.162v.524c0 .288-.126.524-.28.524-.154 0-.207-.12-.117-.265.266-.43-.08-.307-1.181.422l-1.037.687-.321-.198-.32-.199.177.287c.258.419-.322.686-.738.34l-.355-.294-.155.404-.154.403h.785c.432 0 .785.116.785.257 0 .14.209.19.463.11l.463-.146-.653.575-.654.574-.242-.543-.243-.543-.691.092c-1.263.169-1.9.521-3.097 1.713l-.635.632.112 1.147.112 1.147-.311-.06-.312-.06.09.53c.05.29.199.568.331.617.132.048.24.29.24.536 0 .395.847 1.36 1.194 1.36.071 0 .13-.285.13-.633 0-.348.178-.702.396-.786l.397-.152v.777h.706c.388 0 .63.075.538.167-.092.092-.055.377.083.634l.25.466-1.053-.053-1.053-.054v.676l.397-.153.397-.152v.369c0 .203.235.387.523.408.288.022.496-.087.463-.241-.14-.65.505-.412.937.346l.467.821.59-.203c.326-.112 1.046-.209 1.602-.215l1.01-.01.242.383c.134.21.245.71.247 1.11l.004.728h.744l-.143.546-.142.546.553.387c.304.213.494.543.42.733l-.132.346H128c.477 0 .515-.277.135-.988l-.274-.511h.253c.139 0 .331.357.427.793.194.883.551 1.04.757.331l.135-.463-.022.661c-.023.68.168 1.363.612 2.192l.254.473-.265.454-.264.453-.008-.359-.008-.359-.38.146c-.21.08-.43.004-.49-.17-.059-.174-.089-.137-.066.08.022.22.183.368.356.332.384-.081.384-.08.025.952l-.29.833-.259-.16c-.251-.155.29.954.594 1.219.28.243 2.28 3.297 2.72 4.152l.434.845-.28.735-.279.734.387.283c.213.156.428.567.479.913.05.347.257.685.459.752l.368.121-.185-.299c-.102-.164-.085-.299.038-.299s.44.366.703.812c.548.929.903.875.411-.061l-.324-.618.515.456c.284.252.8.966 1.146 1.588l.631 1.13-.46-.375-.462-.375.318.698.319.699-.635.557c-.349.306-.494.487-.323.401l.31-.156.122.467.122.466.03-.544.031-.545.802.056c1.025.07 1.469.45 2.266 1.942.354.664 1.06 1.743 1.567 2.398.507.655 1 1.356 1.096 1.557.096.202.637 1.036 1.202 1.853s1.35 1.961 1.743 2.543c.394.582.895 1.2 1.113 1.372l.398.312.223-.219.224-.219-1.547-2.163a165.64 165.64 0 0 1-2.803-4.062c-1.747-2.64-1.828-2.76-2.646-3.913-.4-.564-.73-1.115-.734-1.226-.003-.11-.42-.66-.926-1.222-.506-.562-.92-1.158-.92-1.325 0-.168-.327-.658-.727-1.09-.4-.43-.686-.824-.636-.873.051-.05-.425-.867-1.058-1.818a96.832 96.832 0 0 1-1.415-2.17c-1.1-1.837-1.532-2.398-1.804-2.346l-.313.06.078-.529.077-.53-.293.398-.293.397.171-.609.172-.608-.419-.639c-.573-.875-.525-1.101.11-.526.292.264.53.684.53.935 0 .25.193.617.43.813.435.361 5.033 7.217 5.66 8.439.186.364.41.72.498.794.088.072.503.638.923 1.256.42.619.804 1.125.855 1.125.162 0-1.004-2.114-1.25-2.266-.13-.08-.237-.327-.237-.548 0-.221-.357-.759-.794-1.196l-.794-.793v-1.24l-1.038-1.08c-.57-.594-1.173-1.49-1.339-1.993l-.301-.913-.526-.167-.526-.167.08-.57.079-.57-.377-.004-.377-.003-.066-.868-.067-.868-.82-.934c-.45-.513-.75-1.045-.665-1.182.294-.476.663-.243 1.116.707l.455.955.172-.625.171-.624.198.87c.212.932.972 1.624 1.84 1.674l.536.03-.463.122c-.692.18-.548 1.013.4 2.317.112.153.643.963 1.182 1.8.538.836 1.162 1.535 1.385 1.552l.407.03-.463.121c-.566.148-.616.612-.067.612.219 0 .397.114.397.253 0 .3 1.141 2.085 1.714 2.68.221.23.417.766.434 1.19l.03.772.122-.467c.067-.256.234-.397.37-.312.137.085.168.285.07.445l-.18.291.393-.15.395-.152.485.901c.267.496.402.985.3 1.087-.102.102-.253-.076-.337-.395-.207-.792-.581-.5-.423.33.07.365.232.6.36.52.129-.079.34.13.47.466.13.336.365.908.52 1.272l.283.662-.162-1.165-.162-1.165.305.188.305.188v3.144h.265c.145 0 .282-.327.304-.727l.04-.728.107.705c.103.666.871 1.307.871.726 0-.15.118-.199.262-.11l.262.162-.515.553-.516.554.294.557c.16.306.416.637.567.735l.274.179-.363.437-.363.437.255.178c.14.098.642.677 1.116 1.286l.862 1.107.49-.037.492-.037-.398-.607c-.498-.76-.582-.763-.44-.012l.114.595-.237-.529c-.13-.29-.182-.623-.115-.739.067-.115-.195-.625-.582-1.132-.387-.507-.643-1.068-.57-1.245l.134-.323.181.595c.2.66.52.77.762.265.086-.182.106-.058.044.275l-.114.607.507.317c.28.174.508.452.508.618 0 .165.178.449.397.63l.397.33v-.447c0-.246-.126-.707-.28-1.025l-.279-.578.412.514c.226.282.411.67.411.86 0 .414.69.463.936.066.095-.154.43-.26.743-.236.982.078 1.018.007.427-.822-.317-.445-.638-.747-.714-.671-.293.292-1.128-.42-1.148-.977-.012-.322-.081-.437-.154-.255-.188.465-.884.413-.884-.066v-.397h-1.058l.021-.463.02-.463.134.33c.074.182.362.331.64.331h.508l.004.463.004.463.256-.397c.438-.676.296-1.27-.529-2.208-.436-.497-.793-1.082-.793-1.3 0-.218-.199-.559-.441-.759-.242-.2-.838-.983-1.324-1.741-.486-.758-1.16-1.654-1.497-1.992-.338-.337-.565-.76-.506-.937l.108-.323-.618-.004-.617-.004.3-.194.3-.195-1.358-2.025c-3.626-5.404-4.755-7.006-5.23-7.42-.285-.246-.502-.52-.483-.61.07-.33-3.167-5.094-3.565-5.247-.229-.088-.415-.408-.415-.712v-.554l-.306.19-.305.188.207-.335.207-.335-.235-.169c-.368-.264-1.685-2.373-1.685-2.698v-.29l-.794.173-.793.175v-.264c0-.145.148-.323.33-.397l.331-.133-.476-.021-.476-.021.259-.462.258-.463-.552-.927c-.304-.51-1.017-1.541-1.584-2.293l-1.032-1.368.082-1.261.081-1.261 2.514-1.547c1.382-.85 2.752-1.664 3.043-1.807.29-.143.846-.467 1.233-.72.616-.401 1.373-.864 4.444-2.716a92.55 92.55 0 0 0 1.731-1.086c.582-.373 1.832-1.073 2.778-1.555s1.96-1.09 2.253-1.35c.293-.26.965-.654 1.495-.875.529-.222 1.126-.555 1.327-.74.2-.187.719-.544 1.15-.795.433-.251.752-.593.71-.76l-.077-.304.431.166.432.165.773-.55c.425-.303.705-.66.622-.795-.083-.134.041-.244.277-.244.235 0 .359-.112.274-.249-.084-.136.151-.53.523-.876.55-.51.907-1.207 1.164-2.277.013-.052-.185-.015-.44.082zm-4.961-21.021c-.476 0-.49.184-.1 1.303l.298.853-.334.311-.333.31.147-.61.148-.61-.383.317c-.21.175-.324.376-.253.447.071.071.015.343-.125.605l-.254.475.684.813c.376.447.569.813.428.813-.14 0-.403-.178-.582-.394-.18-.217-.433-.329-.562-.25-.129.08-.236-.248-.239-.73-.004-.76-.506-2.111-.523-1.404-.003.145-.281.392-.618.548l-.612.283.283-.622c.304-.665 1.239-1.048 1.765-.723l.32.198-.188-.305a.712.712 0 0 0-.542-.305c-.194 0-.422-.18-.505-.397-.194-.506-.043-.5.766.03.911.597.816.07-.141-.782-.437-.39-.794-.885-.794-1.103 0-.569.248-.49.995.317l.66.712-.184-.58c-.229-.72-.039-.734.645-.05l.53.53zm-22.567 43.391c-.252 0-.754.268-1.116.596-1.306 1.18-2.103.81-2.11-.977l-.004-1.043-.419.514-.418.513.154-.463c.244-.735.341-1.141.22-.926-.06.11-.294.199-.518.199h-.407l.282-.34c.304-.366.288-.918-.042-1.446l-.206-.33h.563c.31 0 .734.169.941.376l.377.378-.14.482-.139.483.29-.53c.354-.646 1.579-1.584 1.579-1.208 0 .149-.308.472-.684.718l-.684.448.116.609c.064.335.015.545-.11.468-.239-.147-.32.382-.23 1.48.08.956.247 1.008.85.264.295-.364.583-.632.639-.595.056.036.37.057.698.047l.595-.018-.529-.228-.53-.227.568-.019c.312-.01.635.16.72.378l.151.397zm25.921-4.182c-2.833-3.706-4.086-5.417-4.376-5.977l-.334-.643-1.405 1.238-1.404 1.238.905 1.187c.498.652 2.09 2.803 3.538 4.78 1.448 1.977 2.751 3.644 2.897 3.704l.264.11.302-1.587c.166-.873.315-1.922.33-2.33l.03-.744zm-2.075 6.326c-.533-.67-1.103-1.337-1.267-1.482-.163-.146-.888-1.14-1.61-2.209-1.877-2.78-2.053-3.025-2.569-3.596-.445-.492-.57-.823-.488-1.293.02-.12-.078-.146-.22-.058-.142.087-.387-.082-.545-.377l-.287-.537h-.588c-.324 0-1.897.76-3.497 1.69l-2.908 1.688-.077.502-.077.503 2.502 3.579c1.377 1.968 2.691 3.735 2.922 3.926.509.423.553.92.065.733l-.353-.136-.279 2.026c-.153 1.114-.361 2.264-.462 2.555l-.183.529.881-.969c.485-.533 2.013-1.59 3.395-2.349 1.382-.76 2.748-1.544 3.035-1.743.288-.2.902-.363 1.367-.363h.845l.679-.595c.845-.741.867-.582-.281-2.024zm-2.784 12.372c-1.191-1.8-2.422-3.72-2.736-4.268l-.57-.997-.94.733c-.517.402-1.147.855-1.4 1.006l-.46.274 2.362 3.695c1.3 2.032 2.89 4.558 3.536 5.613.645 1.055 1.244 1.918 1.33 1.918.131 0 .898-3.34 1.012-4.403.018-.165-.943-1.773-2.134-3.571zm.208-69.523c-.194-.35-.288-.886-.21-1.19l.143-.556-.443.363c-.477.392-.62.053-.168-.4l.275-.274-.175-1.096c-.097-.603-.26-1.045-.362-.982-.103.064-.163-.147-.134-.467.028-.321-.102-.963-.29-1.428l-.342-.844.31-.131.311-.132-.467-.38-.468-.38.164-.427c.09-.235-.033-1.316-.275-2.402a84.754 84.754 0 0 1-.567-2.715c-.2-1.168-.394-1.683-.588-1.566-.1.06-.208-.557-.242-1.369-.034-.812-.187-1.855-.34-2.318-.152-.462-.288-1.393-.302-2.068l-.024-1.226-.959.572c-.527.315-1.078.68-1.223.81l-.265.238.53-.166.529-.166-.642.383c-.352.21-.67.581-.706.824-.091.623-1.76 2.78-2.158 2.79-.503.012-.402-.22.397-.912l.727-.63-.324-.33-.325-.33.291-.35c.37-.446.014-.434-.819.027-.356.198-.78.308-.943.246-.162-.062-.522.14-.8.447l-.507.56.02.97c.01.535.17 1.329.355 1.765l.337.794.12-.397c.243-.8.707-1.587.936-1.587h.237l-.174 1.158-.174 1.159.412.76.411.76.03-.662.028-.662.228.53.227.529.019-.596c.039-1.244.476-.519.798 1.323a45 45 0 0 0 .734 3.374c.455 1.661.715 3.162.847 4.896.023.29 1.058.794 2.204 1.07.4.097.729.312.731.478l.004.303.237-.374.236-.374.452.452.452.452-.014.993c-.015 1.141.288 1.779.72 1.512.165-.101.236-.287.158-.413-.077-.125-.02-.302.128-.394l.269-.166v.492c0 .27.124.616.276.768l.275.275-.416.346-.416.346-.38-.503-.38-.502-.009.471c-.005.26.2.545.455.636.255.09.671.343.926.562l.463.397-.009-1.165c-.005-.641-.168-1.452-.362-1.801zm-4.011 22.596c-.204-1.164-.917-5.093-1.584-8.731-1.611-8.79-1.798-11.05-.81-9.822.161.201.62.441 1.021.534l.728.17v-.27c0-.148.17-.27.38-.27s.391-.208.404-.463c.013-.254.06-.857.106-1.34.107-1.126-.257-3.452-.66-4.208l-.311-.588-3.201.115c-1.76.064-3.737.188-4.391.276l-1.191.161-.397.84-.397.842-.661.058c-.364.032-1.108.076-1.654.097l-.992.04.02.563c.012.31.082.416.155.234.16-.394.619-.443.619-.066 0 .145-.238.502-.53.793-.63.631-.672 1.14-.132 1.588.449.372.534 1.058.133 1.058a.265.265 0 0 1-.265-.264c0-.146-.108-.265-.24-.265s-.18.228-.107.507l.132.506.769-.267c.422-.148.702-.376.62-.507-.08-.131-.029-.239.115-.239.145 0 .338.238.43.53.093.29.28.528.415.528.136 0 .247.12.247.265 0 .146-.298.265-.663.265h-.664l.32.512c.176.281.415.453.531.38.116-.071.212.264.213.746l.001.875.654.794.654.794.273-.397c.15-.219.208-.675.128-1.015l-.145-.617.275.17c.414.256.33-.108-.131-.57l-.406-.406.34-.42.34-.419-.349.21-.348.21.049-.358c.027-.196.035-.621.018-.944l-.032-.587-.397.152-.397.152-.031-.359a3.87 3.87 0 0 1 .012-.69c.039-.302-.52-.466-1.171-.343l-.265.05.291-.296c.16-.164.548-.317.86-.34l.569-.043.009-.803c.01-.909.787-1.995 1.428-1.995h.425l-.171-.727-.172-.728.32.298c.476.446.794 2.116.8 4.22.007 1.758.266 3.736 1.196 9.108.213 1.237.87 5.092 1.457 8.566.587 3.474 1.13 6.418 1.207 6.542.128.208.74.177 3.762-.189l1.134-.137-.162-.975c-.09-.536-.33-1.927-.533-3.091zm-1.858 68.791c-.73-1.274-.798-1.427-.871-1.962-.018-.134-.569-.871-1.224-1.638-.655-.767-1.19-1.501-1.19-1.63 0-.13-.402-.733-.894-1.34-1.38-1.704-3.869-5.483-3.869-5.876 0-.193-.466-.865-1.036-1.493-.57-.628-1.484-1.797-2.033-2.597-.548-.8-1.451-2.11-2.006-2.91-.555-.8-1.01-1.664-1.01-1.919v-.463h.554c1.525 0 2.388-1.365 1.79-2.831-.929-2.275-1.34-2.977-2.424-4.14l-1.197-1.283-.883.19c-.486.105-.923.296-.971.424-.049.127-.252.232-.452.232s-.682.327-1.07.728c-.388.4-.614.561-.501.358l.205-.368-.832.49-.831.492-.153.813c-.083.448-.114.988-.067 1.2l.085.388-.463-.078c-.634-.106-.596.023.431 1.467.987 1.387 2.016 3.319 2.016 3.784 0 .406 2.746 4.763 7.388 11.725 4.814 7.22 5.463 8.214 7.241 11.085l1.436 2.318 2.031-1.483 2.03-1.483.455.166.454.165-.691-.604c-.38-.332-1.032-1.199-1.448-1.926zm-3.205-34.541c-.975-1.363-2.143-3.093-2.597-3.846l-.824-1.369-1.005.895c-.552.491-1.11.894-1.24.894-.13 0-.235.12-.235.268 0 .247 2.174 3.697 2.778 4.41.145.17 1.157 1.685 2.249 3.365l1.984 3.055.297-1.514c.163-.833.312-2.002.33-2.598l.035-1.083zm-1.416-39.296c-.88-5.229-1.659-9.983-1.73-10.565-.07-.582-.2-1.237-.29-1.455-.09-.218-.14-.635-.113-.926l.05-.529h-1.26l.129.53c.07.29.225.654.344.807.187.242.478 1.889 1.565 8.85 1.9 12.165 2.234 13.877 2.66 13.614.355-.22.387.023-1.355-10.326zM92.69 214.1c0-.3.107-.479.24-.397.131.081.103-.141-.064-.495-.167-.353-.33-.615-.364-.582-.189.19-.854 2.018-.734 2.018.08 0 .252-.268.384-.595l.24-.596.016.773c.01.425.212.989.45 1.253l.435.48-1.096-.094c-1.251-.106-1.376.073-.445.638l.65.395-.249.394-.25.395-.003-.435c-.003-.24-.213-.514-.467-.611l-.463-.176.33.333c.182.183.331.502.331.71v.376l-.355-.295c-.195-.162-.452-.206-.571-.098l-.217.196.19-.53.19-.529-.29.288-.29.288.276.77.276.771-.362-.464-.362-.464-.449 1.258c-.247.692-.562 1.466-.7 1.72l-.25.464h.29c.161 0 .353-.231.426-.513.074-.282.48-.633.902-.78l.767-.267v-.515c0-.283.177-.583.394-.666.216-.083.38-.066.365.038-.114.768.14.505.71-.737.37-.8.763-1.626.875-1.834l.205-.38-.48-.48c-.265-.265-.482-.726-.482-1.026zm-9.904-86.55-.135-1.238.252-.086.252-.085-.212-.794-.213-.794-4.082-.08-4.083-.081.071 3.255c.039 1.791.125 3.405.19 3.587l.12.33.868-.001.868-.002.475-.834.474-.833.296.295.296.296-.033 2.326c.013 1.491-.128 2.97-.349 4.442.521-.644 2.357-1.649-.1.74l.157 1.982s3.65-1.683 4.4-2.265l.589-.457.072-3.44c.075-3.54.058-4.147-.173-6.264zm-.39 12.398c-.278.073-.14 1.367-.14 1.367l-.075 2.335c-.042 1.284-2.944-2.972-3.479-2.99l-.972-.032-.056.958c-.03.528-.168 2.388-.305 4.134-.138 1.746-.259 4.081-.27 5.188l-.02 2.014 2.132.051c1.172.028 2.291.113 2.487.188.588.225.626-.082.782-6.366.083-3.33.212-6.114.285-6.188.074-.074.135-.282.135-.462v-.328zM59.103 73.91c-.428.49-.674.955-.548 1.033.126.078-.298.776-.943 1.553-.644.776-1.172 1.614-1.172 1.862s-.339.986-.754 1.64c-.415.655-.842 1.66-.95 2.235-.108.574-.295 1.105-.415 1.18-.12.074-.456 1.026-.747 2.117-.29 1.09-.793 2.815-1.117 3.834-.324 1.018-.584 2.298-.578 2.843.006.546-.088.93-.208.856-.246-.151-.65.891-.43 1.11.076.077.03.425-.103.774l-.24.634h.621l-.317.318c-.382.382-.423 1.27-.058 1.27.143 0 .327-.327.409-.728.082-.4.344-1.501.582-2.447.238-.946.454-1.898.48-2.117.027-.218.122-.575.212-.793.09-.219.831-2.42 1.647-4.89 1.3-3.938 3.342-8.884 4.863-11.78.712-1.357.642-1.508-.234-.504zM-48.07 138.18c-.574.306-.726 1.058-.214 1.058h.315l-.416.33-.416.331-.16 1.455c-.087.8-.273 2.23-.413 3.175-.14.946-.322 2.196-.404 2.778l-.148 1.059.367-.794c.202-.437.627-2.103.944-3.704.316-1.6.675-3.268.798-3.704a7.95 7.95 0 0 0 .25-1.53l.026-.738zm312.54 18.749c-.547.137-1.946.316-3.11.397l-2.116.149.529-.237c.29-.13.386-.244.21-.255l-.317-.018.613-.662.613-.662 1.623-.17 1.623-.17v-.326c0-.18.17-.468.379-.64l.378-.315.283.529c.156.29.283.89.283 1.33v.8zm-.741 14.07-.41.339.344.243.343.243-.73-.16c-.403-.087-1.691-.079-2.863.019l-2.131.177.348.247.349.247-1.037-.145c-.57-.08-5.69.327-11.377.904s-10.737 1.049-11.222 1.049h-.882l.11-.33.11-.33 7.916-.83c4.353-.457 9.344-.969 11.09-1.137 1.747-.168 3.636-.373 4.2-.455l1.024-.15.131-.5.131-.5h1.27c.7 0 1.46-.073 1.69-.161l.418-.16v-2.06l.33.065c.352.07 1.218 1.892 1.243 2.614.008.236-.17.583-.395.77zm-4.75-14.468c-.218.084-.554.092-.745.019-.538-.207-7.337.322-7.607.59l-.238.24 1.75 3.43c.962 1.887 2.025 3.8 2.361 4.253l.612.822-.302.303c-.166.166-.509.302-.76.302-.253 0-.531.226-.619.503-.088.277-.896 1.224-1.795 2.104l-1.636 1.6.653.27.653.269-1.455-.058-1.455-.058-.182-2.513-.181-2.514-1.1-2.635c-.604-1.45-1.386-3.204-1.738-3.898l-.64-1.263-.665-.167c-.366-.092-1.448-.083-2.403.019l-1.738.186.093-.487.093-.486 1.655-.159c.91-.087 1.711-.215 1.78-.284.07-.07.019-1.261-.113-2.649l-.238-2.523-.532-1.161c-2.228-4.867-2.703-5.77-3.221-6.134l-.588-.411-.504-2.468c-.568-2.775-2.925-9.108-3.639-9.772l-.466-.435-.315-2.612-.316-2.613-1.226-3.384-1.226-3.384-.723-.514-.722-.515-.19-2.054-.19-2.055-1.178-3.308a592.078 592.078 0 0 1-1.289-3.638c-.06-.182-.381-.34-.713-.351-1.372-.048-3.871.069-5.234.244l-1.455.187.072.644c.04.355.561 1.999 1.158 3.654l1.084 3.009-1.494 2.2c-.822 1.21-1.687 2.36-1.923 2.555l-.43.356-.292-.504a6.806 6.806 0 0 0-.81-1.045l-.518-.541-.462-2.657c-.254-1.462-.746-3.431-1.093-4.377-1.053-2.873-1.208-3.432-.986-3.57.117-.072.28.136.362.463l.148.593 1.468-.09 1.468-.091-.174-.281-.174-.281.297.183c.163.101.78-.05 1.37-.335l1.073-.518 3.524-.187 3.524-.187.349.374.349.373 1.346-.171c.741-.094 1.857-.43 2.48-.747 1.262-.642 1.575-.582 1.587.3.012.855 2.314 6.768 2.886 7.413l.48.54-.635-.333-.634-.333-.202.361c-.112.2-.928 1.3-1.814 2.447-.886 1.146-1.61 2.122-1.61 2.169 0 .178 2.836-.214 4.1-.566.728-.203 3.348-.498 5.821-.656 2.474-.158 4.707-.348 4.961-.422.255-.074.463-.025.463.108v.241l-4.431.329c-5.057.375-5.094.382-5.094.955 0 .682 2.346 6.529 2.958 7.371l.558.769-.587-.154-.587-.153-.51.51c-.28.28-.435.509-.346.509.09 0-.237.47-.727 1.044a56.756 56.756 0 0 0-1.543 1.897l-.652.852.916-.212a15.11 15.11 0 0 1 1.976-.284c.582-.04 1.415-.156 1.852-.26.436-.102 3.413-.353 6.614-.558 3.202-.204 6.089-.43 6.416-.504l.596-.133V127.613l.347.133c.296.113.976 1.532.976 2.036 0 .09-.585.16-1.299.155-.714-.006-2.59.118-4.167.275-1.578.157-4.149.358-5.713.447l-2.844.163v.487c0 .604 2.594 6.85 3.082 7.42.508.594.443.836-.172.641-.29-.092-.53-.062-.53.068s-.798 1.17-1.775 2.31l-1.776 2.073.683-.171c.944-.237 6.27-.49 5.78-.274-.219.096-.477.297-.574.446-.253.388 3.347 7.456 4.07 7.992l.604.447-.812-.146-.812-.145-.455.77c-.25.423-.876 1.22-1.391 1.77s-1.255 1.338-1.644 1.751l-.706.752 1.455-.168c3.096-.358 13.229-.826 13.229-.611 0 .08-.179.214-.397.297zm-6.498 6.784c-.2-.364-.371-.721-.382-.794-.01-.073-.567-1.222-1.235-2.554-.67-1.332-1.27-2.582-1.336-2.778l-.12-.357-.374.296c-.206.163-1.029.505-1.829.76-.8.256-1.574.587-1.72.736l-.264.27.303-.17.303-.169.157.41.157.408-.259-.16-.258-.16.157.412c.087.225.271.41.41.41.138 0 .184.11.101.243-.083.134.037.431.266.66.229.229.342.536.251.683-.09.146-.031.266.131.266.163 0 .223.12.133.265-.09.145-.03.264.132.264.163 0 .222.12.132.265-.09.146-.024.265.145.265h.309l-.15.389c-.082.214.033.571.256.794.222.222.332.404.244.404-.089 0-.012.268.17.595.4.72.407.752.448 1.934l.034.942.236-.146.236-.146-.23.99c-.314 1.352-.312 1.36.287 1.315.29-.022.529-.144.529-.27 0-.262 3.194-4.239 3.519-4.38.116-.051.045-.349-.158-.662a23.545 23.545 0 0 1-.73-1.23zm-5.805-15.589c-.873-1.774-1.588-3.398-1.588-3.608 0-.449-.111-.47-.73-.133-.253.137-1.135.448-1.96.69l-1.5.442.373 1.228c.204.675.373 1.264.375 1.309.002.045.12.009.264-.08l.262-.162-.174.454-.175.454.35-.216.351-.217-.176.286c-.217.35.343 1.648.71 1.648.147 0 .192.075.1.166-.09.091.009.582.221 1.09.213.51.386 1.387.386 1.951v1.026l.315-.066c.174-.036.364.157.423.428l.107.495-.316-.196-.317-.195.3.56c.166.31.4.562.52.562.298 0 3.466-4.015 3.466-4.392 0-.164-.714-1.75-1.587-3.524zm-4.943-12.854c-.828-2.037-1.534-3.745-1.57-3.795-.128-.182-1.69.271-1.576.457.065.104-.418.348-1.072.54l-1.189.352.173.43c.697 1.73 1.951 5.942 1.83 6.139-.083.133-.011.243.16.243h.311l-.125.653c-.069.36-.029.594.088.522.117-.072.29.318.382.868.093.55.225 1.206.294 1.458l.126.458.535-.499c.568-.529 3.102-3.765 3.124-3.99.007-.072-.664-1.799-1.491-3.836zm-4.11-11.774a89.78 89.78 0 0 1-1.207-3.243l-.425-1.258-.545.165c-.3.091-.723.315-.94.497-.22.183-.844.476-1.39.651-1.204.387-1.21.052.061 3.72.58 1.672 1.058 3.516 1.063 4.098l.009 1.059.24-.379.239-.378.183.976c.316 1.686.38 1.647 2.783-1.672l1.052-1.454-.17-.399c-.094-.219-.523-1.291-.952-2.383zm-5.288-14.552c-.298-.8-.628-1.551-.735-1.669-.145-.159-3.046 1.068-3.658 1.546-.044.035.343 1.295.86 2.801.517 1.506.94 3.06.94 3.454 0 .394.112.785.248.869l.247.152-.156.963-.156.962.305-.189.306-.189v.302c0 .607.548.082 2.077-1.99l1.562-2.117-.65-1.72c-.357-.946-.892-2.375-1.19-3.175zm-12.733 2.687c-.63-1.787-1.224-3.238-1.322-3.226-.96.122-1.735.375-1.637.534.066.108-.342.404-.908.66l-1.028.463.639 1.696c.35.933.638 1.984.638 2.336 0 .352.108.706.24.788.132.081.173.405.09.718l-.149.57.294-.181.294-.182.293 1.133c.49 1.897.553 2.058.8 2.058.213 0 2.852-3.635 2.886-3.978.008-.078-.5-1.603-1.13-3.39zm28.463 70.203a25.97 25.97 0 0 1-2.315.29c-.728.056-2.157.22-3.175.366a70.354 70.354 0 0 1-3.837.414c-1.091.082-2.163.201-2.381.265-.218.064-1.052.179-1.852.254-.8.076-3.514.375-6.03.665-2.515.29-4.965.527-5.444.527h-.87l.05.727.05.728-.116-.63-.117-.629-1.47.173c-.809.095-1.603.255-1.765.355-.162.1-.615.149-1.006.108-.391-.041-.987.079-1.323.267-.729.407-1.87.49-2.097.154l-.162-.24-.96.265-.96.266-.139-.224c-.192-.31.766-.577 2.36-.657.74-.037 2.358-.25 3.595-.472 2.403-.431 4.163-.634 7.54-.869 1.165-.08 2.415-.205 2.779-.276.777-.152 6.413-.795 10.186-1.162a148.9 148.9 0 0 0 4.498-.509c4.036-.547 7.618-.66 4.961-.156zm-7.81-13.684-.732-.132-.4.843c-.505 1.064-3.684 4.377-4.2 4.377-.213 0-.457.114-.543.253-.218.352-.933.035-.933-.414v-.368H229.995l-.243-.64c-.134-.351-.458-.686-.721-.744-.263-.057.593-.263 1.903-.458 1.31-.194 2.458-.425 2.552-.513.094-.087.004-1.23-.199-2.54l-.369-2.381-1.222-2.837c-.672-1.56-1.157-3.003-1.079-3.208.16-.415.905-.6 4.098-1.014 2.268-.294 2.911-.16 2.097.435l-.47.344.51 1.288c1.069 2.689 2.998 6.601 3.556 7.21l.58.632zm-1.422-1.344c-.094-.094-.438-.798-.764-1.566-.326-.767-1.02-2.394-1.542-3.615-.521-1.222-.87-2.353-.773-2.514l.176-.293-.382.292c-.21.161-.659.361-.998.444l-.616.151.13-.336.128-.336-.637.122c-.35.067-.637.247-.637.4 0 .152-.074.204-.164.113-.203-.203-.731.313-.973.95l-.18.476.261-.161c.27-.167.36.172.27 1.023l-.051.492.304-.188.303-.188-.07.357c-.083.416.596 2.342.825 2.342.159 0 .264.635.316 1.91l.03.72.267-.166.267-.165-.17.848-.17.848.228-.14c.125-.077.367.571.539 1.442.256 1.305.813 2.224.813 1.342 0-.132.356-.638.79-1.124 2.753-3.085 2.804-3.156 2.48-3.48zm-3.916-13.147c-.234 0-.538.297-.677.661-.138.364-.383.662-.544.662-.161 0-.248.137-.192.305.056.168-.142.563-.44.879a68.84 68.84 0 0 0-1.536 1.722l-.993 1.149-.912-1.036-.911-1.035.127-.435c.07-.239-.007-1.545-.172-2.901l-.3-2.467-1.032-2.39c-.567-1.315-1.031-2.535-1.031-2.71-.001-.423 2.437-1.136 3.883-1.136h1.143v.366c0 .2.86 2.076 1.911 4.167 1.051 2.091 1.954 3.891 2.007 4 .052.11-.097.199-.33.199zm-2.49-4.323c-.894-1.868-1.626-3.505-1.626-3.638s-.364-.241-.81-.241c-.445 0-.746.1-.67.225.077.123-.339.383-.923.576-1.42.468-1.413.406-.374 2.869l.911 2.16.182 1.772.181 1.773.204-.52.203-.521.019.74c.01.408.207 1.107.438 1.553.231.446.361 1.036.29 1.31l-.13.499.305-.183c.343-.205.58-.508 2.326-2.978.674-.954 1.198-1.794 1.163-1.867l-1.688-3.529zm-2.628-8.333c-.115.048-.897 1.07-1.738 2.27-1.771 2.528-1.642 2.473-2.728 1.165l-.837-1.01-.461-2.359c-.494-2.526-2.814-9.199-3.403-9.788-.346-.346-.944-3.097-.944-4.34 0-.337-.429-1.857-.954-3.377l-.954-2.763.232-.233c.199-.198 2.86-.72 4.413-.863l.487-.045 1.432 4.09 1.432 4.09-.398.222c-.219.123-.398.33-.398.462s-.65 1.108-1.444 2.17c-1.655 2.212-1.693 2.14.993 1.853 1.121-.12 2.132-.152 2.248-.07.196.138 3.23 7.906 3.23 8.27 0 .092-.094.207-.208.256zm-2.132-4.86-1.232-3.36-.485.072c-.266.04-.564.189-.661.33-.097.143-.678.405-1.29.584-.612.179-1.172.42-1.244.536-.174.282.122 1.384.337 1.252.093-.057.185.152.207.466.041.62.78 2.94 1.167 3.668.133.25.172.666.088.926l-.153.474.259-.363.258-.362.316 1.024c.173.563.385 1.202.47 1.42.084.219.13.5.103.623-.028.125.024.462.115.75l.167.526.443-.486c.244-.268.946-1.2 1.56-2.07l1.117-1.585-.155-.532c-.085-.293-.709-2.045-1.387-3.893zm-4.097-12.647-1.141-3.307-.596.087c-.327.048-1.02.375-1.54.728-.518.352-1.098.64-1.287.64h-.344l.664 1.899c.364 1.044.73 2.47.813 3.168.083.698.233 1.219.335 1.156.225-.14 1.066 2.456 1.066 3.29v.604l.762-.759c.926-.923 2.403-3.255 2.406-3.802 0-.218-.511-1.885-1.138-3.704zm1.474 44.3-.686.51.176-.458.175-.459-.261.162c-.144.089-.262.409-.262.711s-.268.809-.595 1.126c-.327.317-1.012 1.082-1.521 1.699-.968 1.173-1.798 1.683-2.91 1.792-.365.035-1.138.138-1.72.228l-1.059.164-.47-.796-.469-.796.999-.278c.549-.152 1.326-.278 1.726-.278.4-.001.728-.077.728-.169 0-.092-.191-1.369-.425-2.838l-.425-2.671-1.187-3.446c-.653-1.895-1.378-3.594-1.61-3.776l-.423-.331H211.444l.109-.33.11-.332 1.632-.221c.897-.122 1.632-.317 1.632-.434 0-1.881-2.847-10.918-3.836-12.177-.171-.218-.587-1.647-.923-3.175-.542-2.461-2.156-7.439-3.261-10.054-.215-.51-.59-1.938-.832-3.175-.506-2.585-2.432-8.672-2.93-9.26-.184-.219-.578-1.588-.874-3.043-.557-2.739-2.456-8.736-2.91-9.19l-.258-.258-3.36.34-3.36.34-.133.349c-.073.19.387 1.955 1.023 3.92l1.156 3.573h-.276c-.152 0-.421.327-.597.727-.177.4-.791 1.5-1.366 2.442-.574.942-1.021 1.734-.994 1.759.08.072 3.448-.614 3.887-.793l.397-.161 1.235 4.164 1.234 4.165-.456.53a6.279 6.279 0 0 0-.767 1.19c-.171.364-.729 1.286-1.24 2.05-.915 1.371-.873 1.66.161 1.106.622-.333 3.13-.762 3.538-.606.155.06.304.379.331.709.028.33.578 2.142 1.224 4.028.645 1.885 1.091 3.487.99 3.56-.164.119-1.035 1.37-2.904 4.17l-.622.932 1.883-.186c1.036-.102 2.12-.11 2.409-.02l.525.167v.476c0 .366 1.869 5.147 3.088 7.9l.152.342-.286-.077c-.37-.1-3.676 4.448-3.42 4.704.076.077 1.105.038 2.286-.086l2.146-.226.245.245a.585.585 0 0 1 .12.573c-.167.432 2.4 7.388 3.076 8.337l.527.74-.395.152c-.218.083-.396.026-.396-.127s-.148-.226-.33-.163c-.182.064-.295.317-.25.562l.08.446-1.055 1.114c-1.562 1.65-2.084 2.396-1.949 2.787l.121.35-.885-.086-.885-.085-.28-2.116-.279-2.117-1.263-3.758-1.262-3.758-.516-.164c-.283-.09-.446-.274-.363-.409.084-.135-.064-.253-.327-.262l-.479-.017.614-.246.614-.246-.139-.465c-.076-.255-.313-1.477-.528-2.714-.357-2.067-1.75-6.497-2.743-8.73-.227-.51-.391-1.065-.366-1.233.026-.168-.243-1.3-.596-2.514-1.405-4.822-2.568-8.603-2.919-9.483-.202-.51-.637-2.176-.966-3.704-.329-1.528-1.064-4.267-1.633-6.086a227.055 227.055 0 0 1-1.905-6.482 179.897 179.897 0 0 0-1.803-6.085c-.513-1.601-1.01-3.166-1.103-3.478l-.17-.568.34.028c.855.069 3.107-.458 4.308-1.009l1.323-.606 3.536-.094 3.537-.094.498.922c.274.507.498.804.498.66v-.263l1.135.09 1.135.09 1.286-.683 1.286-.684 1.085.04 1.085.04-.794.116c-.436.063-.945.24-1.13.394l-.337.279.163.558c.09.306.633 1.88 1.208 3.497l1.045 2.94-.844 1.558a42.85 42.85 0 0 1-1.59 2.683c-.41.618-.72 1.124-.689 1.124.032 0 .891-.185 1.91-.412 1.018-.227 2.026-.436 2.238-.463l.387-.05.087.529c.047.29.627 2.105 1.288 4.032l1.201 3.504-.418.418c-.23.23-.418.547-.418.705 0 .157-.271.655-.602 1.105-.332.45-.925 1.319-1.318 1.93l-.716 1.112 1.384-.145c.761-.08 1.742-.234 2.178-.342 1.05-.261 1.455-.095 1.459.601.002.315.487 1.883 1.08 3.484 1.38 3.729 1.557 4.319 1.333 4.417-.1.044-.94 1.201-1.866 2.57l-1.682 2.49.5-.207c.963-.399 2.724-.707 3.567-.623l.851.084.083.55c.091.61 2.95 6.976 3.31 7.374.34.374.277.675-.14.675a.573.573 0 0 0-.498.337c-.071.186-.801 1.274-1.623 2.419-.82 1.144-1.442 2.132-1.38 2.194.063.062.76-.006 1.548-.152.79-.146 2.498-.324 3.797-.396l2.361-.13-1.19.205-1.191.206 1.19.073 1.191.072-1.416.206c-.78.114-1.53.32-1.668.458l-.251.25 1.734 3.794c.954 2.086 1.963 4.038 2.241 4.338l.506.546zm-2.9-5.202-1.512-3.38h-.717l.416-.415c.229-.229.414-.556.412-.728l-.004-.311-.198.31c-.109.172-.856.558-1.66.858l-1.46.547-.04.526c-.022.29.077.599.22.687l.261.161-.343.425-.344.424.323-.194.323-.194.165.657c.09.362.087.783-.008.937-.095.154-.042.28.119.28.16 0 .272.148.249.33-.094.725.032 1.28.26 1.14l.24-.148-.14.53-.138.529h.296c.162 0 .295.228.295.507s.115.547.256.595c.141.049.313.667.382 1.373.068.707.31 1.49.538 1.741.227.252.323.553.214.67-.11.117-.029.16.18.095.475-.149 2.928-3.652 2.928-4.182 0-.215-.68-1.912-1.512-3.77zm-4.043-13.873c-.873-1.969-1.588-3.687-1.588-3.819 0-.131-.446-.237-.992-.235l-.992.004.374.237.374.237-1.101.33c-1.105.33-1.343.595-.824.916a.43.43 0 0 1 .177.477c-.055.167.18 1.02.525 1.894l.626 1.59-.152.617-.152.617.261-.162.262-.161.176 1c.096.549.34 1.262.542 1.585.202.322.371.858.376 1.19.005.333.163.81.353 1.059l.344.453.713-.982 1.48-2.042c.423-.582.777-1.096.787-1.142.01-.047-.696-1.695-1.57-3.663zm-4.362-13.195-1.186-3.43-.825-.086-.825-.085.15.244c.084.135-.333.39-.924.567l-1.076.322.21.974c.117.535.218 1.36.225 1.833.008.473.1.86.204.86.105 0 .114.198.021.44l-.169.44.292-.18.292-.18.643 2.188c.353 1.203.786 2.705.962 3.337.365 1.315.279 1.358 1.926-.973 1.533-2.169 1.532-2.074.08-6.271zm-3.84-12.294c-.582-1.73-1.059-3.342-1.059-3.585v-.44l-.418.16c-.23.088-.714.16-1.074.16-.36 0-.592.103-.515.227.077.125-.279.453-.791.728l-.932.5.184.53c.102.29.188.91.193 1.375l.008.847.258-.16.259-.16-.19.308-.19.307.438.438.438.439-.156.816-.157.817.23-.356.229-.356.182.753c.1.414.421 1.563.712 2.554l.53 1.802.465-.611c.51-.669 2.414-3.715 2.414-3.86 0-.05-.476-1.505-1.058-3.233zm-.96 42.667-.159-.593-.275.17-.275.17.204-.33.204-.33-.298-.57c-.165-.314-.698-1.754-1.186-3.199l-.887-2.628-.814-.062-.814-.062-.658.573-.658.574.083 1.19c.046.655.354 2.02.683 3.032.33 1.013.611 2.162.625 2.554.014.392.127.65.252.573l.227-.14-.178.563-.179.562h.622l-.153.397c-.084.218-.035.397.108.397h.26l-.11 1.59-.108 1.59 1.322-1.92a143.24 143.24 0 0 1 1.81-2.583c.566-.766.56-.742.352-1.518zm-3.067-55.158c-.615-1.862-1.217-3.384-1.339-3.384-.122 0-.156.105-.077.234.08.13-.002.23-.182.223-.939-.034-1.534.098-1.403.31.081.132-.28.492-.804.8l-.951.562.16.415c.087.228.23.702.318 1.052.088.35.236.637.33.637.093 0 .197.387.23.858.033.472.18.898.326.946.35.117 1.66 4.283 1.517 4.827l-.111.424h.317c.25 0 2.703-3.896 2.77-4.399.008-.067-.487-1.644-1.101-3.505zm-1.895 39.028c-.637-1.572-1.301-3.304-1.475-3.85-.175-.545-.364-.992-.421-.992-.305 0-3.03 1.32-3.03 1.468 0 .154 1.366 4.941 1.75 6.133l.152.47-.315-.398-.314-.397.191.53c.105.29.25.797.32 1.124.072.327.232.595.357.595.125 0 .16.387.079.86l-.148.86.283-.397.283-.397.004.706c.002.389.078.899.168 1.134l.164.427.828-1.115c.84-1.13 2.203-3.379 2.255-3.719.015-.102-.493-1.471-1.13-3.042zm-4.377-15.304-.85-2.656-.906.105c-.498.059-.852.193-.787.298.066.106-.304.394-.82.641l-.94.448.12.323c.067.178.703 2.555 1.415 5.284.71 2.728 1.368 4.96 1.46 4.96.148.001 1.813-2.663 2.553-4.084l.267-.513-.33-1.074c-.183-.591-.714-2.27-1.182-3.732zm-3.52-11.281-1.12-3.653-.531.168c-.292.093-.991.473-1.554.846l-1.023.677.193 1.07c.106.59.199 1.462.206 1.94l.013.866.24-.338.24-.338-.165.75-.164.75.254-.157.254-.157.312.946c.172.52.252 1.176.178 1.458-.073.281-.032.449.093.372.312-.193.608 1.54.393 2.299l-.174.618.277-.397.278-.396.004.515.004.516.308-.307c.297-.298 2.567-4.046 2.59-4.28.008-.063-.491-1.759-1.107-3.768zm-3.555-12.095c-.534-1.689-1.082-3.145-1.219-3.236-.268-.178-1.839.327-1.639.527.067.067-.229.334-.656.594l-.778.473.221.74c.122.408.349 1.065.504 1.46l.283.718-.254.157a.604.604 0 0 0-.25.473l.003.315.225-.354.224-.355.679 2.074c.373 1.141.717 2.372.764 2.736.144 1.123.727.74 1.811-1.19 1.249-2.223 1.237-1.474.082-5.132zm15.862 62.909-1.115.034-.267.498c-.424.792-.931.883-9.674 1.745-.873.086-2.457.29-3.519.451l-1.931.295-.295-.294-.294-.295.766-.29.766-.292 1.989.136 1.989.137-.794-.201-.794-.2 1.456-.178c.8-.098 2.322-.256 3.382-.351l1.927-.173.628-.494c.346-.272.998-.494 1.45-.494.452 0 1.03-.13 1.284-.29l.462-.288 1.85.255 1.849.255zm-11.476 21.243c-.909.631-2.972 2.069-4.585 3.194s-3.23 2.195-3.594 2.378c-.364.182-.78.467-.926.632-.145.165-1.277.967-2.513 1.782a121.665 121.665 0 0 0-3.308 2.25c-1.182.857-2.249 1.45-2.249 1.25 0-.18 3.183-2.51 7.094-5.193 3.4-2.332 3.722-2.549 5.63-3.783.642-.415 2.218-1.467 3.503-2.338 1.285-.871 2.395-1.525 2.468-1.452.072.072-.612.648-1.52 1.28zm-97.881-14.33c-.103.363-1.022 2.566-2.044 4.894-4.13 9.412-4.77 10.949-4.625 11.094.083.083.012.151-.158.151s-.308.161-.308.358c0 .196-.274.881-.609 1.521-.93 1.78-1.783 3.976-1.636 4.213.072.117.009.254-.14.304-.204.068-2.907 5.59-2.907 5.938 0 .035.208.117.463.184l.463.12-.533.032-.532.03-1 2.255c-.551 1.24-.918 2.39-.816 2.555l.185.3-.306-.19-.305-.188v.56l1.389.027 1.389.026-1.047.245c-.576.135-1.201.187-1.39.114-.187-.072-.341-.009-.341.141s-.122.197-.271.104c-.15-.092-.246-.069-.215.05.031.12-.218.814-.554 1.542-.336.728-.888 1.918-1.226 2.646-.337.727-.914 2.002-1.282 2.832l-.667 1.51-.698.456-.697.457-.833-.343a9.436 9.436 0 0 0-1.558-.474c-.399-.073-.665-.229-.592-.348.074-.119-.136-.3-.465-.402-.796-.246-2.363-.947-5.944-2.655-1.63-.777-3.266-1.49-3.638-1.583-.371-.093-.675-.278-.675-.412 0-.133-.327-.361-.727-.507-.4-.146-1.264-.545-1.919-.888-.655-.342-1.667-.773-2.249-.957-.582-.184-1.342-.556-1.689-.826-.347-.27-.775-.49-.95-.49-.176 0-1.142-.407-2.148-.903-2.049-1.012-6.7-3.195-7.913-3.715a539.66 539.66 0 0 1-1.587-.684c-.437-.19-1.032-.319-1.323-.287l-.53.056.398-.272.397-.273-.397-.009c-.219-.005-1.23-.423-2.25-.93-1.018-.506-2-.921-2.182-.921-.182 0-.33-.11-.33-.245s-.971-.641-2.157-1.125l-2.157-.88-.325-.772-.326-.773.22-.765c.12-.42.76-1.704 1.423-2.853 1.175-2.036 1.476-2.84.94-2.51-.146.09-.265.038-.265-.116s.227-.28.504-.28h.503l.269-.771c.148-.425.219-.841.158-.926-.061-.086-.03-.094.07-.019s.437-.395.75-1.044c.313-.65.692-1.336.842-1.526.317-.4 1.296-2.176 3.249-5.9.763-1.456 1.99-3.707 2.725-5.004.735-1.296 1.337-2.517 1.337-2.712 0-.195.096-.354.212-.354.117 0 .138-.209.046-.463-.09-.255-.07-.376.049-.27.24.218.906-.543.92-1.047l.008-.325-5.49.011c-3.02.006-5.75.074-6.067.15l-.577.14-.003.439c0 .241-.179 2.403-.395 4.804-.216 2.401-.431 5.14-.478 6.086l-.084 1.72-.648.522-.648.522-8.038.09-8.038.091-.686-.449-.685-.449-6.24.047-6.24.047-.92.543-.92.543-6.977-.02-6.977-.02-.39.391c-.215.215-.32.39-.233.39.388 0-.736 1.633-1.257 1.827-.32.12-6.536.296-13.812.393-7.276.096-14.387.247-15.801.336l-2.572.161-.67-.438-.669-.439.004-.721c.002-.397.245-1.853.54-3.235.505-2.368.69-3.352 1.287-6.88.136-.8.36-1.894.5-2.43l.252-.977-.387-.148c-.213-.082-1.623-.149-3.133-.149h-2.746l-.54-.579c-.73-.784-.746-.612.69-7.16l.16-.727h-.596l.53-.989c.29-.543.529-1.265.529-1.604 0-.34.106-.818.235-1.063.21-.396.485-1.849.638-3.356.029-.29.124-.588.21-.661.088-.073.542-2.097 1.011-4.498.47-2.401.957-4.723 1.085-5.16.405-1.386 1.59-6.723 1.541-6.937-.058-.256.176-1.476 1.028-5.357.366-1.67.69-3.157.719-3.308.03-.15.192-.927.363-1.728.564-2.653 1.372-6.947 1.372-7.295 0-.188-.327-.392-.728-.453l-.727-.11.839-.04.839-.04.144-.727c.08-.4.218-1.204.308-1.786.25-1.622.674-2.864 1.146-3.36.235-.248.582-.635.77-.86l.34-.41 1.776.045 1.775.044-1.455.154c-.8.085-1.658.275-1.905.422l-.45.268-.836 3.78-.836 3.78.467.516.467.516h-.41c-.54 0-.73.558-.73 2.139v1.3l.992.007c2.589.015 9.21.343 9.327.461.072.074-2.104.067-4.836-.016l-4.968-.15-.648.577-.648.577-.855 3.803-.855 3.803.584.473c.75.606.738.778-.04.636l-.626-.113-.166 1.388c-.092.763-.168 1.719-.17 2.124l-.002.737.558-.298.558-.299.289.29.289.288H-43.293l-.37.728c-.462.905-2.29 7.128-2.29 7.793v.488l.596.226c.575.218 5.998.556 9.91.617 1.047.016 1.844.128 1.77.249-.18.289-4.68.265-8.952-.048-1.884-.137-3.47-.205-3.524-.15-.1.1-.83 3.022-.848 3.393-.005.109.236.198.535.198h.545l-.176.286-.177.285.889-.138c.488-.075 4.103-.159 8.032-.185l7.143-.047.789.313.788.313.094-.281c.051-.155.381-.281.733-.281.881 0 .85-.061-.971-1.854l-1.611-1.586h-.77c-.425 0-.771-.119-.771-.264 0-.36 1.145-.335 1.972.042l.674.307v1.005l.29-.18.29-.18 1.423 1.406c1.55 1.531 1.67 1.545 1.815.215.095-.875.515-3.11 1.339-7.113.224-1.092.523-2.188.664-2.437.14-.25.189-.626.108-.837l-.148-.384.483-.112.482-.112-1.058-.2c-1.962-.37-4.114-1.017-4.282-1.289l-.166-.269.627.164c.345.09 1.488.036 2.54-.12l1.914-.285.145-.698c.08-.383.267-1.59.416-2.682.148-1.091.512-3.326.807-4.965.556-3.08.529-3.488-.23-3.521-.247-.01-.908-.223-1.47-.472l-1.023-.451.36-.299c.2-.164 1.017-.346 1.817-.405l1.455-.108.334-2.496c.183-1.373.575-3.806.87-5.407l.537-2.91-.34-.212c-.189-.116-.818-.511-1.4-.878l-1.059-.667.57.12c.94.196 3.36-.354 3.945-.898l.546-.508H-9.24l1.442.638 1.441.637.85-.174.849-.175.326-.661c.18-.364.592-.78.917-.923.325-.143.59-.407.59-.586s.246-.456.546-.617l.546-.291 4.19.084 4.19.084.538.487c.296.269.979.53 1.518.58l.98.09.38-.38c.208-.209.678-.455 1.044-.547.366-.091.94-.442 1.277-.778l.612-.612 3.826.092 3.826.092 1.03.517 1.03.517 1.436.043c.79.024 1.578.162 1.75.305l.316.262.332-.4.332-.4h7.958l1.208.707 1.208.708 1.156-.06 1.157-.06.631.414.631.414.333-.533.333-.532H49.319l.756.558.755.559 2.078-.096 2.078-.095.623-.623.623-.622 2.155.15c1.186.083 3.005.155 4.043.16l1.887.009.13.5.131.498 1.465-.021 1.465-.022.42.349.42.348v5.72l.59.188.592.188-.562.207-.561.208-.157 5.113c-.086 2.812-.228 8.565-.316 12.785-.087 4.22-.249 10.888-.36 14.817l-.2 7.144.258.334.258.335.853-.088c.47-.048 1.184-.347 1.588-.665.841-.662 1.139-.694 2.546-.272l1.02.305.406.62.407.621-.866.002-.866.002-.281.594c-.155.326-1.085 2.114-2.067 3.972l-1.785 3.38.175.552.176.553 2.685 1.28c1.476.705 3.16 1.356 3.743 1.447l1.058.165 1.285-2.418c.706-1.33 1.35-2.352 1.43-2.272.207.207-2.12 4.688-2.516 4.842l-.331.129v.845c0 .464.11.958.246 1.096.135.138.417.906.626 1.706l.38 1.456.208-.794c.175-.661 1.393-3.356 2.215-4.895.116-.218.33-.635.477-.926 1.826-3.638 2.803-5.043 3.295-4.738.47.29.2-.361-.349-.843l-.575-.504.201.396c.11.219-.045.1-.345-.264l-.547-.662-.005.347c-.004.19-.127.271-.275.18-.148-.092-.19-.296-.092-.453l.178-.288-.27.167c-.332.205-1.045-.6-1.013-1.143.013-.219-.13-.516-.318-.662l-.343-.264h.645c.354 0 .593.05.532.112-.062.061.692.46 1.676.884.983.425 2.263.992 2.846 1.26.932.431 4.02 1.783 7.12 3.119.57.245 2.112.93 3.427 1.524l2.39 1.078.168.642c.093.352.085.939-.017 1.303zm-3.066-1.605c-.673-.5-1.312-.884-1.42-.855-.109.03-.183-.208-.167-.529l.031-.583-.49.084-.489.083.2-.324.2-.324-.57.15c-.314.082-.512.054-.44-.063.072-.117-.053-.283-.278-.37l-.41-.156.162.261c.232.374.212.368-2.378-.78l-2.351-1.041-.49.262c-.545.292-4.175 7.405-4.175 8.181 0 .896 1.767 1.89 7.063 3.97l.581.229.168 1.004c.093.553.37 1.64.618 2.416l.448 1.412 1.301-3c.716-1.649 1.929-4.308 2.695-5.909 1.682-3.51 1.66-3.026.19-4.118zm-9.361 12.07c-.655-.282-2.063-.906-3.128-1.388-1.066-.481-2.224-.875-2.575-.875h-.637l-.77 1.653-1.989 4.272c-1.35 2.897-1.433 3.331-.757 3.923.586.513 4.148 2.216 5.963 2.852l1.38.483.626 1.941c.344 1.068.682 2.12.75 2.338l.123.397.603-1.587c.582-1.533 2.833-6.689 4.207-9.633l.667-1.43-1.636-1.217c-.9-.669-2.172-1.447-2.827-1.729zm2.994-.145c.119-.001.476.137.794.306l.578.308-.32-.387c-.175-.213-.403-.917-.506-1.565-.103-.647-.376-1.322-.607-1.5-.23-.177-.3-.327-.155-.333.146-.006-1.034-.541-2.622-1.19-3.112-1.27-4.242-2.114-4.489-3.349l-.157-.785 1.977-3.87c1.087-2.13 1.902-3.94 1.812-4.022-.091-.083-.216-.008-.278.165-.063.174-.272.255-.465.18l-.352-.134-.417.836-.418.837.414-.159.414-.158-.675.802-.675.802.166.433.166.433-.301-.187-.302-.186-.157.623c-.086.343-.122.735-.08.87.04.137-.259.81-.666 1.497-.408.687-.665 1.372-.572 1.523.094.151-.016.346-.244.433-.227.088-.413.305-.413.482 0 .178-.367.876-.814 1.552-.878 1.325-.853 1.787.086 1.613.328-.061.446-.04.263.047-.58.275-.06.65.653.472l.684-.172-.213.345-.213.345.571-.15.571-.149-.148.24c-.082.132.01.24.205.24.195 0 1.042.357 1.884.794 1.418.736 2.355 1.077 1.542.562l-.353-.224.419-.16.419-.162v.346c0 .19.268.484.595.652.887.454 1.608.933 1.912 1.27.15.164.628.504 1.065.755l.794.456-.794-.688c-.437-.378-.697-.689-.578-.69zm-7.856 16.597-.247.152.179-.289.178-.288-3.52-1.737c-1.935-.955-3.773-1.737-4.083-1.737h-.566l-2.469 4.92-2.47 4.92-.08-.656-.081-.656.543-.89c.646-1.06.681-1.323.148-1.119-.219.084-.397.31-.397.502 0 .193-.183.533-.406.756-.224.224-.4.472-.393.551.007.08-.177.436-.41.792-.233.356-.34.782-.239.947l.185.3-.956.901c-.526.496-.956.946-.956.999 0 .16 3.348 1.756 3.684 1.756.172 0 .75.298 1.286.662.536.364 1.16.661 1.388.661.229 0 .528.105.667.232.255.236 2.359 1.439 3.558 2.034.364.181 1.019.403 1.455.493l.794.164.371-.866c.205-.476.749-1.64 1.21-2.586.461-.946.859-1.81.883-1.92.025-.11.545-1.18 1.156-2.38.611-1.2 1.425-2.836 1.808-3.635l.697-1.452-1.335-.842c-.735-.463-1.447-.773-1.582-.69zm.232-5.464c-2.265-.85-4.462-1.907-5.358-2.579l-.86-.645.013-1.111.013-1.111 1.935-3.969 1.935-3.969-.38-.222c-.21-.123-.444-.159-.523-.081-.307.308-1.908 4.234-1.798 4.411.064.105-.116.459-.401.787-.285.329-.593.999-.685 1.49-.093.49-.279.892-.415.892-.135 0-.227.148-.203.33.023.182.02.688-.007 1.125l-.05.793-.206-.526-.205-.526-.56 1.265c-.308.696-.806 1.612-1.107 2.034l-.547.769.47.243c.26.134.922.325 1.472.424.55.1.939.279.864.399-.074.12.33.292.897.383.567.09 1.07.254 1.12.364.088.199 1.425.877 3.66 1.856 2.468 1.081 3.313 1.459 3.497 1.563.104.059-.134-.793-.53-1.893l-.718-2zm-7.763-15.8c-.34-.091-.896-.419-1.235-.727-.339-.308-1.987-1.137-3.662-1.84l-3.047-1.28-.458.256c-.498.278-12.278 23.376-12.278 24.073v.424l-.388-.513-.389-.514-.008.463c-.005.255-.247.701-.538.992-.29.291-.529.708-.529.926 0 .219-.134.397-.297.397h-.297l.33.397c.18.218.552.397.826.397.273 0 .496.126.496.28 0 .154.111.212.247.128.23-.142 2.335.884 3.163 1.542.201.16.499.294.661.298.483.012 3.423 1.518 4.064 2.082.327.288.676.441.776.342.1-.1.498.123.886.494l.706.676.834-1.865c.459-1.026.834-2.043.834-2.26 0-.217.108-.394.239-.394s.353-.329.493-.73c.248-.71 4.733-10.007 8.836-18.316l2.027-4.105-.836-.728c-.46-.4-1.116-.802-1.456-.894zm1.915-4.118-.141-.715-1.165-.174c-.64-.096-1.301-.34-1.47-.543-.167-.202-.431-.368-.586-.368-.154 0-1.077-.412-2.05-.916-.973-.503-1.863-.83-1.978-.727-.115.103-.12.034-.011-.154l.197-.343-.33-.397c-.448-.54-.352-2.197.161-2.764.23-.254.45-.75.487-1.103.037-.353.328-.902.646-1.22.318-.318.578-.693.578-.834v-.257l-.44.17-.44.168.191-.31.191-.309h-.644c-.354 0-1.032-.077-1.506-.172l-.862-.173-.428-.752c-.633-1.114-.73-.965-.93 1.426-.1 1.2-.302 2.301-.448 2.448l-.266.266-4.022.066c-2.212.037-4.676.07-5.477.074l-1.455.008.465.271c.256.15.583.198.728.109.144-.09.262-.002.262.194v.355h1.455c1.717 0 1.949-.34.331-.486-.618-.056.423-.108 2.315-.115l3.44-.013-1.455.218c-.8.12-1.726.172-2.056.116l-.601-.102.153.248c.085.136.583.248 1.108.248.525 0 .876.079.779.175-.174.175-.752.217-4.228.307l-1.801.047.144.233c.079.128.383.295.677.372l.534.14-.179-.307c-.097-.168.088-.073.412.212l.59.517.465-.29.465-.291.442.247.441.247-.146-.381c-.172-.449.306-.831.549-.439.091.148.044.27-.106.27s-.209.162-.132.362l.139.363-.426.163c-.234.09-.369.071-.3-.042.07-.112-.093-.204-.363-.204-.735 0-.384.336.731.699.544.177 1.048.4 1.121.496.073.096.728.577 1.455 1.07l1.323.896 2.18.067c1.198.037 2.388.191 2.645.342l.467.276-.86-.16-.859-.162-.448.364-.448.364.198-.33.2-.332h-2.035l-.009.463c-.005.255-.098.734-.208 1.064l-.2.601.68-.631.681-.63 1.228-.17c.675-.092 1.61-.168 2.078-.168h.85l.754.7.754.698.1-.302c.056-.166.218-.302.36-.302s.176.132.077.293l-.181.293.567-.18.567-.18.855.671c.47.37 1.063.854 1.318 1.078.255.224.463.287.463.142 0-.376.54-.325 1.419.133l.757.395-.171-.992a86.323 86.323 0 0 0-.312-1.705zM65.642 121.34c-.616-.388-1.279-.866-1.474-1.061l-.356-.356-2.296-.002c-1.263 0-2.899-.075-3.636-.163l-1.339-.161-.421.421-.422.422-.211 2.586c-.117 1.422-.216 3.181-.221 3.909l-.01 1.323-.368.385-.37.385.184-2.899c.1-1.594.24-3.494.309-4.221l.126-1.323-.514.763-.514.762-.169 3.339c-.092 1.836-.221 3.814-.285 4.396l-.117 1.059.381-.794.382-.794.012.453c.006.25-.225 1.053-.514 1.786l-.525 1.333h12.132l.15.243c.083.134-.037.432-.267.662l-.419.418h-9.158l-.274.33c-.256.31-.596 3.806-.99 10.208l-.169 2.732.486.368.486.368 4.284.008c2.356.005 4.344.105 4.417.224.073.119-2.006.2-4.621.182l-4.755-.033-.429-.429-.428-.428.445-6.374c.246-3.505.514-6.55.596-6.765l.15-.392-.358.004a1.6 1.6 0 0 0-.705.224l-.345.219-.252 5.134c-.139 2.824-.366 6.207-.505 7.516a91.523 91.523 0 0 0-.329 3.837l-.076 1.455h6.308c3.469 0 6.431-.076 6.583-.17l.276-.169.227-4.593c.125-2.526.296-7.332.379-10.678.127-5.11.258-8.19.605-14.219l.042-.724zm-.535 32.898c-1.063-.175-12.016-.102-12.181.08-.066.074-.38 3.11-.7 6.748-.319 3.638-.723 7.954-.898 9.59l-.317 2.977h13.368l.004-.33.004-.331.26.397.259.397-.027-2.446-.026-2.445-.781.555-.78.556-4.61-.148c-4.975-.16-5.54-.3-5.757-1.422-.193-1.007.934-13.455 1.247-13.768.212-.212.202.027-.23 5.237-.211 2.541-.416 5.496-.456 6.565l-.073 1.945.507.37.506.37h2.423c1.333 0 3.304.067 4.381.147l1.958.147.593-.478.592-.477.427-3.704c.235-2.037.578-4.835.762-6.218.185-1.382.351-2.887.37-3.343l.035-.83zm-3.714 26.019c-.696-.442-1.342-.803-1.434-.803-.093 0-.357-.167-.586-.371-.23-.205-1.888-.984-3.686-1.733l-3.268-1.361-.568.373c-.313.205-1.072 1.372-1.686 2.592-.614 1.221-1.67 3.232-2.347 4.47a374.422 374.422 0 0 0-3.082 5.82c-1.019 1.964-1.94 3.69-2.048 3.836-.198.267-2.344 4.238-3.217 5.954l-.47.926-.011-.584c-.006-.321.324-1.155.733-1.852.409-.698.832-1.507.941-1.798l.198-.529-.254.265c-.255.264-4.01 7.223-4.01 7.43 0 .06.149.11.33.11.182 0 .986.353 1.786.784.8.43 1.56.787 1.686.793l.231.01-.23-.342c-.128-.19-.053-.16.165.066.36.37 1.749 1.137 2.146 1.184.088.01 1.541.73 3.228 1.597 1.687.869 3.12 1.524 3.186 1.456.066-.068 1.195-2.267 2.51-4.886 1.315-2.62 3.395-6.727 4.621-9.128 2.882-5.64 3.913-7.68 4.951-9.79.465-.946.994-1.876 1.175-2.068.181-.19.317-.633.303-.983l-.027-.636zm-4.406 5.944c-7.794 15.214-8.795 17.106-8.965 16.937-.123-.124 1.112-2.609 7.948-15.993 4.129-8.084 3.92-7.709 3.887-7.007-.013.279-1.305 3.007-2.87 6.063zm-5.683-64.92c-.788-.445-1.51-.932-1.603-1.083l-.17-.275h-7.886l-.257.992c-.363 1.398-.842 6.583-.654 7.074.086.224.025.566-.136.76-.16.193-.571 1.208-.913 2.257l-.621 1.906.312-.12c.172-.066.47-.023.661.096l.35.215-.433 3.653-.433 3.653.378.577.378.577-.492-.129c-.734-.192-.786-.796-.375-4.338.378-3.251.34-4.01-.146-2.853-.231.55-1.079 8.435-1.02 9.493.011.218-.066.783-.172 1.256l-.193.86.616.004c.339.002.887.076 1.217.165l.601.16-.297.359c-.258.31-1.285 6.533-1.297 7.859l-.005.476.974.407.974.407 2.846-.084c1.565-.046 2.916-.014 3.002.072.281.281-4.185.487-5.887.271l-1.662-.21-.42-.42-.419-.42.438-3.266c.241-1.796.477-3.534.524-3.861.048-.328-.002-.595-.11-.595-.486 0-.736.866-1.029 3.571-.173 1.601-.423 3.744-.556 4.763a60.635 60.635 0 0 0-.318 3.017l-.076 1.166 5.424.051c2.983.029 5.712.07 6.064.091.844.051.995-.139.606-.762-.578-.926-.322-.936.44-.017l.747.9.157-1.033c.086-.567.36-3.28.607-6.03l.45-4.996-.633-.487c-.348-.268-.871-.492-1.162-.497-.291-.005-.707-.123-.924-.26l-.395-.25.262-.26c.145-.145.769-.292 1.387-.328l1.125-.066.02-.676c.01-.372.059-.914.107-1.205.048-.29.233-2.529.41-4.973l.323-4.445-.46-.336-.459-.336.481-.481.482-.481.213-4.131c.118-2.272.262-4.25.321-4.396.06-.146.117-.7.128-1.232l.021-.966zm-1.279 39.933a34.149 34.149 0 0 0-1.968-.656l-1.372-.418h-7.34l-.468.342-.469.342-.434 3.89-.433 3.89.465.464.465.464 3.826-.003c2.104 0 3.826.08 3.826.18 0 .32-2.75.54-5.544.444l-2.706-.092-.526-.65-.526-.65.15-1.07c.083-.588.325-2.255.538-3.705.214-1.45.342-2.682.285-2.738-.337-.338-.647.447-.79 2.003-.378 4.082-.984 9.766-1.108 10.382l-.132.662 6.436-.062c3.54-.034 6.53-.063 6.645-.066.115-.003.082-.154-.072-.335-1.056-1.242-2.176-2.878-2.054-3 .08-.08.485.288.9.817 1.377 1.761 1.92 2.36 2.033 2.237.06-.066.19-1.49.288-3.163.098-1.674.272-3.876.387-4.895a48.91 48.91 0 0 0 .252-3.115l.042-1.262zM36.5 119.942l-1.95-1.077h-7.411l-.27.33c-.15.182-.47 1.9-.713 3.82l-.443 3.487.293.547.293.547h-.407c-.223 0-.423.149-.443.33-.021.183-.132-.145-.246-.727l-.209-1.058.077 1.587.076 1.588-.36 1.025c-.197.564-.36 1.19-.36 1.39v.363h1.06v.595c0 .328-.195 2.059-.435 3.848l-.435 3.251.297.651.296.65h-.296c-.162 0-.446.206-.63.458l-.334.457.127-1.317c.07-.724.299-2.615.508-4.201.346-2.626.342-4.05-.009-2.505-.297 1.313-.946 8.265-.811 8.69.078.246-.039.958-.26 1.583-.22.625-.4 1.172-.4 1.217 0 .045.327.12.728.165l.727.084-.051.53c-.086.879-.877 6.298-1.033 7.07l-.145.72.669.668.668.67-.45-.009c-.249-.005-.674-.176-.945-.382l-.494-.374.575-3.88c.534-3.606.548-4.683.048-3.875-.111.18-.468 2.618-.792 5.416-.324 2.799-.646 5.461-.715 5.917l-.125.83.401.154c.222.084 1.07.03 1.885-.12s1.65-.21 1.855-.131c.508.195 9.079.267 9.268.078.083-.083.25-1.022.372-2.086.12-1.064.413-3.588.649-5.608.513-4.391.557-4.234-1.37-4.805-1.632-.484-1.623-.507.362-.997l1.274-.315.183-1.72.601-5.654.42-3.936-.47-.344c-.258-.189-.807-.411-1.22-.494l-.75-.15.11-.334c.06-.183.532-.368 1.048-.413l.94-.08.157-1.243c.086-.683.293-2.85.46-4.814.167-1.965.349-3.622.405-3.682.055-.06.1-.38.1-.71v-.598zm-2.084 40.427c-.619-.177-1.291-.45-1.495-.606l-.371-.285-4.437-.088-4.438-.088-.391.617c-.375.592-1.237 5.69-1.237 7.314 0 .429.17.922.38 1.095l.38.316 3.278-.009c1.802-.005 3.461-.08 3.686-.166l.41-.157.145.379.145.379-1.206.165c-1.526.21-5.198.21-6.462 0l-.963-.159-.343-.698-.342-.697-.2 1.852c-.11 1.018-.27 2.229-.355 2.689l-.156.837 1.132.24c.909.192 8.127.258 10.71.098.938-.058.904-.376-.196-1.83l-1.04-1.373h.384c.211 0 .502.221.647.492.144.27.651.93 1.126 1.466l.863.975.188-.474c.103-.26.203-1.13.222-1.93.019-.8.252-3.062.517-5.027.265-1.964.496-3.894.513-4.288l.03-.717zm-1.408 14.374c-.665-.178-1.325-.252-1.467-.165-.141.088-.426.02-.632-.152l-.375-.31-4.102.09-4.103.089-.395.397-.396.397-.405 3.44c-.506 4.3-.507 5.023-.012 5.518.578.578.487.72-.274.43l-.671-.254-.1.328c-.056.18-.17.91-.256 1.624-.085.712-.288 1.455-.45 1.65-.16.195-.223.537-.137.76l.156.407 2.85-.143c1.568-.08 4.577-.153 6.687-.164 2.11-.01 3.628-.077 3.373-.147-.59-.162-.594-.51-.007-.735l.456-.175.297.405.296.405.33-5.087c.182-2.798.38-5.137.438-5.198.06-.06.108-.78.108-1.598v-1.489zm-10.824-55.785-2.11-1.1-3.534.076c-1.943.041-3.647.19-3.787.329-.374.374-1.338 6.925-1.147 7.794l.164.745h-.286c-.157 0-.285.186-.285.413v.412l-.293-.18-.293-.182.156.496c.085.273-.017 1.147-.227 1.942l-.383 1.445.272.168.272.168-.642 3.679-.642 3.678.222.595.222.595h-.724l-.425 1.885c-.234 1.037-.426 2.049-.426 2.249v.364h.514c.788 0 .793.144.132 4.101-.764 4.575-.76 4.24-.067 4.885l.58.54h-.397c-.218 0-.615-.16-.883-.356l-.486-.356.448-2.886c.247-1.587.503-3.361.57-3.943l.12-1.059-.25.53c-.214.456-.948 5.614-1.491 10.49l-.167 1.495.556.177c.619.196.695.426.278.843-.327.326-.841 2.497-1.33 5.603l-.346 2.205.279.441.278.441 1.294.206c.712.113 2.366.14 3.676.059l2.38-.147.398.26c.218.142 1.31 1.177 2.424 2.3l2.028 2.04.14-1.168c.562-4.684 1.202-11.449 1.098-11.616-.069-.112-.693-.358-1.386-.547l-1.262-.344.662-.119.661-.118-.529-.213-.529-.213 1.35-.018 1.352-.019.445-3.902c.245-2.147.58-4.82.743-5.94l.298-2.037-.34-.41c-.188-.226-.624-.41-.97-.41-.76 0-.82-.409-.116-.786l.513-.275.152.246c.083.135-.058.3-.315.367l-.466.121.562.03.563.032.31-2.58c.17-1.419.492-3.896.716-5.504.224-1.609.368-3.27.319-3.694l-.089-.77-.642-.15c-.353-.082-.696-.311-.762-.51l-.12-.36.3.185c.164.102.298.059.298-.096 0-.154.29-.28.644-.28h.643l.138-.463c.076-.254.266-1.832.424-3.506.157-1.673.389-3.697.514-4.497.125-.8.21-1.753.19-2.116l-.04-.66zm-4.172 55.074c-.328-.078-1.19-.271-1.918-.43l-1.323-.288-4.101.044-4.101.044-.44.513-.439.512-.297 1.918c-.164 1.055-.465 2.81-.67 3.9l-.373 1.98.423.467c.232.257.575.467.763.467.187 0 .418.126.514.281l.174.282-.924-.174-.924-.173-.335 1.878c-.185 1.032-.247 1.966-.138 2.074.11.109 2.659.158 5.665.11 3.007-.048 5.952-.078 6.544-.067l1.077.02-.03-1.52c-.033-1.722.075-2.245.417-2.033l.237.147.002-1.405c0-.773.118-2.12.262-2.992l.26-1.588-.273-.092-.273-.092.247-.304c.33-.407.501-1.155.538-2.351l.031-.987zm-2.599-4.277-1.042-1.101-4.11-.09-4.11-.09-.224-.365-.226-.364-.175 1.423a42.78 42.78 0 0 1-.324 2.19l-.148.767.464-.178.464-.178-.308.37-.307.371.6.161c.867.233 4.438.206 4.438-.033 0-.234 4.112-.169 4.5.071.145.09.262.036.262-.118v-.28h2.42l-.566-.728c-.311-.4-1.035-1.223-1.608-1.828Zm-7.79-49.849-2.255-1.041h-7.122l-.388.595c-.464.71-1.583 6.947-1.354 7.544.088.23.058.486-.067.57-.125.085-.412 1.107-.637 2.271l-.41 2.117.242.304.242.305-.562 3.267c-.309 1.797-.508 3.764-.442 4.37l.12 1.103-.315-.12-.315-.121-.388 2.229-.39 2.23.39.244.388.245-.75 3.986c-.825 4.392-.8 4.687.453 5.264l.864.397-1.058-.16c-.583-.089-1.185-.324-1.34-.523l-.28-.362-.327 2.263c-.364 2.52-.355 2.551.746 2.551h.784l-.411.301-.412.301-.863 3.16c-.474 1.74-.944 3.602-1.043 4.141l-.181.98.672.44.671.44 3.433.14 3.432.139.47-.369.47-.368-.372.472-.37.473.681.718c.376.395 1.294 1.368 2.041 2.163l1.358 1.445.208-.336c.115-.185.357-1.55.54-3.033.181-1.483.616-4.184.965-6.003.35-1.82.635-3.328.636-3.352 0-.025-.892-.31-1.983-.634-1.98-.588-2.518-.975-1.39-.998 1.47-.03 2.051-.126 2.051-.341 0-.436.755-.232.857.231.056.255.261-.608.457-1.918 1.307-8.774 1.515-10.354 1.402-10.65l-.127-.33-.964-.004c-.53-.002-1.128-.108-1.328-.235-.634-.401-.045-.82 1.154-.82h1.156l.093.464c.05.254.242-.847.426-2.448.183-1.6.515-4.184.739-5.741.223-1.557.368-3.147.321-3.532l-.085-.701-1.012-.346c-1.685-.577-1.636-1.19.097-1.19h1.037l.133-.594c.074-.328.378-2.5.677-4.829.3-2.328.59-4.352.645-4.498.056-.145.11-.48.122-.745l.02-.48zm-5.843 55.138c-.568-.171-1.225-.32-1.46-.332l-.429-.02-.15.992c-.788 5.166-1.414 8.004-1.768 8.004-.173 0 .094-1.61.9-5.424.215-1.019.465-2.235.556-2.702l.166-.85-.695-.175c-.382-.096-2.444-.07-4.583.057l-3.888.23.066.33c.036.183-.07.302-.236.266l-.302-.067-.7 4.188-.701 4.188.356.508.356.51h-.754l-.164.991c-.09.546-.166 1.499-.167 2.117l-.003 1.124h.777l-.144-.463-.144-.463.303.473.303.472 2.032-.18c1.118-.1 2.095-.276 2.171-.392.077-.116.652-.096 1.278.045.627.141 1.815.233 2.64.204.825-.03 1.773.038 2.108.148l.608.2.371-.308.372-.308.558.177.558.177-.118-1.412c-.065-.777-.243-1.8-.395-2.272l-.276-.86h.756l.027.595.026.596.238-1.01.238-1.01-.256-.478-.255-.477.277-.894c.152-.492.302-1.753.334-2.802.031-1.05.138-1.989.236-2.088.099-.098.14-.43.094-.736l-.085-.557zm-.68-1.955c-.301-.501-.713-1.006-.913-1.122-.201-.117-.365-.356-.365-.532 0-.176-.243-.472-.54-.657-.296-.185-.476-.439-.4-.563l.14-.226-2.817-.02c-3.132-.022-5.084-.241-5.567-.626l-.32-.254-.19.75a8.578 8.578 0 0 0-.21 1.585c-.01.459-.108.78-.217.712-.237-.145-.246.102-.031.902l.16.595.828.004.83.004-.398.257-.396.256.61.004c.336.002.556-.085.489-.194-.068-.11 1.758-.198 4.058-.198s4.059.076 3.909.17c-.258.16.252.304 2.244.633l.86.143-.607-.357c-.334-.196-.854-.766-1.156-1.267zm-8.142-50.984-2.366-1.124h-6.872l-.416.416c-.229.229-.416.471-.416.54 0 .067-.31 1.505-.69 3.196l-.689 3.073.141.87.142.87-.25.083c-.137.046-.371.857-.52 1.802-.149.945-.338 1.941-.421 2.214l-.15.496.262-.162.263-.162-.355 1.518c-.195.835-.583 2.709-.862 4.164l-.507 2.646.261.502.26.502-.426.239-.427.238v.664c0 .365-.135 1.198-.3 1.85l-.298 1.188.4.319.4.319-1.025 4.1-1.025 4.102.674.595.674.595h-1.593l-.167.993a17.816 17.816 0 0 1-.435 1.87c-.339 1.107-.273 1.164 1.57 1.342l1.521.147-1.164.14-1.164.139-.482.661-.483.662-.832 3.792-.832 3.791.31.31.31.309h8.08l-.34.34-.34.34-2.987.15-2.986.15-1.09-.256-1.088-.255-.282 2.01-.282 2.01.313.198c.172.11.431.2.577.2.145 0 .106-.101-.088-.224l-.353-.224.402-.154c.22-.085.443-.031.493.12l.091.273 4.358-.018c7.195-.028 7.705-.094 6.342-.824-.291-.156-.53-.457-.53-.67 0-.214-.152-.388-.34-.388-.186 0-.559-.372-.828-.828l-.489-.827.366.117c.201.064.483.376.626.693.143.316.38.548.529.515.148-.033.73.39 1.295.94.564.549 1.07.954 1.124.9.054-.054.45-2.47.877-5.369.429-2.898.858-5.76.955-6.36l.176-1.09-1.286-.192c-.706-.106-1.523-.324-1.814-.484-.29-.16-1.839-.374-3.44-.475l-2.91-.184 3.307.005c1.82.003 3.769-.01 4.332-.028l1.025-.033-.335-.404c-.542-.653-.084-.759.583-.135l.613.573.06-.348 1.016-5.904c.526-3.056 1.009-6.211 1.073-7.012.152-1.906.568-4.968 1.185-8.73.275-1.674.5-3.29.501-3.592l.002-.549-.993-.245-.992-.245v-.794l1.043-.132 1.043-.132.84-4.895c.463-2.692.857-5.193.876-5.557l.035-.663zm-6.014 56.14c-.243.093-.51.064-.595-.065-.084-.129-.645-.298-1.245-.376l-1.092-.143-.286.963c-.157.53-.601 2.213-.986 3.74-.647 2.564-1.403 4.56-1.429 3.768-.005-.184.239-1.196.543-2.25.797-2.755 1.335-4.989 1.387-5.75l.044-.662-4.247-.073-4.248-.072-.535.602-.535.601-1.01 4.22-1.011 4.221.303.101c.167.056.301.3.299.542l-.004.441-.225-.354-.224-.354-.169 1.28a81.881 81.881 0 0 1-.321 2.206l-.154.926h14.088l.111-.529c.197-.94.72-5.753.901-8.284l.177-2.463.29-.183c.299-.188.531-.875.584-1.732l.031-.491zm-14.837-15.065c-1.128-.239-2.23-.494-2.448-.566-.435-.144-8.168-.13-12.916.024l-2.993.097-.507.459-.507.458-1.196 3.762c-1.41 4.434-1.395 4.302-.468 4.56.908.255 10.507.224 13.632-.043l2.322-.198.51-.968.512-.968.012.713.012.712-.558.391-.558.39.492.665c.27.366.76.79 1.087.942.327.152.595.405.595.56 0 .157.357.41.794.562.436.152.793.447.793.656 0 .208.209.456.463.55.255.094.551.298.658.454l.194.284.004-.71c.003-.39.11-.987.238-1.325.128-.337.277-1.506.33-2.597.054-1.09.171-2.042.261-2.115.136-.11 1.164-4.998 1.262-6l.03-.313zm-1.323 15.115a42.29 42.29 0 0 0-1.927-.307l-1.199-.164-.04.537c-.022.295-.417 1.822-.877 3.394-.851 2.91-.903 3.102-1.172 4.38-.084.4-.255.728-.38.728-.262 0 .492-3.387 1.464-6.577l.674-2.211-.26-.26-.26-.26-4.253.09-4.254.09-.384.396c-.433.447-2.561 8.304-2.516 9.287.043.928-.235 3.608-.442 4.26l-.178.561 3.645-.174c2.005-.097 5.32-.175 7.366-.175h3.721l-.588-.412c-.323-.227-.588-.574-.588-.772a.576.576 0 0 0-.33-.494l-.331-.134.397-.278.397-.278.232.507c.252.553.958.943.958.53 0-.141-.119-.257-.264-.257-.146 0-.265-.483-.265-1.074v-1.074l.28.173.28.174-.176.834-.175.835.296-.282c.257-.244.76-3.62.904-6.068.025-.437.116-.913.202-1.058.086-.146.135-.711.109-1.257-.026-.546.045-.992.157-.992.177 0 .297-.458.465-1.765.021-.17-.288-.374-.688-.453zm-1.257-2.761-.662-.302v-1.034l-.58-.184c-.32-.101-.778-.428-1.02-.726l-.438-.542-7.89.02-7.892.019-.416-.42-.417-.42-.09.777c-.05.428-.011 1.508.084 2.402l.174 1.626.837.167c1.102.22 4.653-.109 4.864-.451l.166-.268-.287.177c-.158.098-.346.083-.417-.033-.072-.116.277-.207.775-.203.92.008 1.173.235.575.516-.182.086.026.092.463.015a29.38 29.38 0 0 1 1.984-.25c.655-.06 1.857-.184 2.671-.278l1.48-.17 1.122.302 1.121.302.678-.444.678-.444.24.428.239.428h2.62v-.354c0-.195-.298-.49-.662-.656zM75.709 144.21l-.18.452-.019-.744-.019-.743-.264.164c-.146.09-.265.047-.265-.095 0-.142.15-.318.331-.391.182-.074.077-.143-.234-.155l-.565-.02.134 1.785c.074.982.23 1.89.346 2.017l.212.23-.298.654-.298.654.565.439.565.438-.152.764-.152.763-.512-.631-.513-.631.159.727.158.728h-.817l.072-4.167.073-4.168h.574c.852 0 .975-.272.47-1.043-.25-.381-.394-.752-.322-.825.582-.581 1.397 2.678.95 3.798zm-9.743 84.59c-.145.089-.264.022-.264-.15v-.313l-.448.364c-.246.2-.366.227-.267.062.224-.374-.25-.763-1.203-.99-.4-.096-.728-.291-.728-.434 0-.143-.16-.26-.356-.26-.196 0-.571-.238-.835-.529-.574-.634-.926-.679-.926-.116 0 .226-.119.338-.264.248-.146-.09-.265-.391-.265-.67 0-.28-.297-.703-.661-.941-.923-.605-.829-.945.129-.467.434.217.923.312 1.086.211l.296-.183-.35-.217c-.194-.12-.267-.302-.163-.406.104-.104.403.004.663.24.261.236 1.031.675 1.71.976 1.272.562 1.71.962 1.398 1.274-.098.099-.295-.028-.437-.282-.141-.253-.52-.461-.84-.462-.32-.001-.913-.175-1.318-.386-.405-.211-.665-.268-.577-.127.207.335 2.139 1.32 2.29 1.169.065-.065.52.297 1.011.805.492.507 1.05.922 1.24.922.406 0 .458.427.08.661zm-37.231-19.25-.119.331h-1.808v-.803l.728.165.727.166-.559-.415c-.307-.228-1.184-.66-1.947-.962l-1.39-.547-.367.304c-.202.168-.363.44-.358.603.004.165.167.09.361-.167l.354-.466 1.16.534 1.159.533-1.067-.158-1.066-.159-.368.686c-.201.378-.474.686-.604.686h-.238l.175-.551.175-.552-.571.305-.571.306.314.379.314.378h-.401c-.22 0-.48-.207-.578-.46l-.177-.461.575-.466.575-.465-.36-.019-.36-.018.529-.228.529-.227-.448-.019c-.246-.01-.532-.156-.636-.324l-.19-.306.902.169.901.169-.463-.355c-.255-.196-.463-.478-.463-.628 0-.15-.387-.327-.86-.394-.473-.066-1.068-.211-1.323-.322l-.463-.2v.85h1.164l-.29.29c-.367.367-1.136.13-1.904-.586l-.595-.554.541-.379.541-.38 1.396.567c.768.311 1.813.783 2.322 1.047 1.584.824 3.003 1.515 4.024 1.962 1.084.473 1.253.653 1.078 1.142zm-15.978-5.946-.513.469.292.545c.16.3.23.608.156.683-.163.162-1.646-1.311-1.828-1.815l-.126-.351-.56.33c-.73.431-.922.418-.742-.052l.147-.384-.401.154c-.22.085-.689 0-1.04-.188l-.64-.342-.582.26-.582.26-1.34-.216-1.34-.216-.669.808c-.675.817-1.233.816-.795-.002l.237-.444-1.311-.02-1.312-.02-.348.497c-.38.542-.748.41-.519-.187l.143-.37-.492-.018-.491-.017.641-.256c.353-.14 1.484-.264 2.514-.274 3.491-.035 4.12-.083 4.12-.316 0-.128-.743-.203-1.653-.166-.91.036-2.19.025-2.844-.026-.655-.051.238-.158 1.984-.238 1.747-.08 3.394-.099 3.66-.042l.486.102-.353.224-.353.224.397.038c.579.056 1.52.167 3.252.384l1.533.192.266.498c.147.274.393.42.547.326l.28-.173-.352-.217-.351-.217.227-.213.227-.213.121.342.122.342.371-.308c.566-.47.4.087-.186.622zm-68.51-23.091c-.115.655-.147 1.414-.07 1.686l.138.497-.293-.181-.293-.181.004.61.004.611.257-.396.256-.397v.397c0 .218-.115.575-.256.793l-.257.397-.02-.397-.021-.397-.208.53c-.115.29-.286.945-.38 1.455l-.172.926.26-.397c.143-.218.262-.665.264-.992.003-.328.103-.596.223-.596.397 0-.003 1.712-.494 2.117l-.482.397-.43 2.117a299.578 299.578 0 0 1-.944 4.429c-.283 1.271-.514 2.731-.514 3.244 0 .907.885 3.169 1.353 3.458.129.08.234.39.234.69v.547l-.394-.327c-.216-.18-.644-.733-.951-1.23l-.558-.902-.238-1.897-.238-1.897.221-.147c.122-.081.372-1.1.557-2.264.184-1.164.441-2.318.572-2.564.13-.245.475-1.657.767-3.137.292-1.479.584-2.776.65-2.883.065-.106.305-1.095.533-2.198.228-1.103.582-2.462.786-3.02l.373-1.015-.015.662c-.008.363-.109 1.197-.224 1.852z" style="fill:#000" transform="translate(61.142 -56.158)"/></svg>