<svg xmlns="http://www.w3.org/2000/svg" xml:space="preserve" width="743.588" height="256.309" viewBox="0 0 196.741 67.815"><path d="M15.814 272.36c-.556-.696-.612-1.82-.716-14.52-.059-7.185-.192-21.653-.296-32.152l-.189-19.09.689-.688.688-.688H31.68c8.629-.001 44.204-.07 79.056-.154l63.368-.154-.397.282-.397.282.315.004a.616.616 0 0 0 .479-.26c.09-.146.394-.265.677-.265h.513v.529l.596-.018.595-.019-.53-.227-.528-.228.86-.018.86-.019v.529h1.354l-.148-.238-.147-.238.909.025.909.026-.131.213-.132.212.611-.004.611-.004-.397-.256-.397-.257.845-.004.844-.004.163.265c.09.146.395.265.677.265h.514v-.586l.397.16.837.338.44.178-.216-.35-.217-.351.364.224.363.225 6.755.076c3.715.042 7.35.13 8.078.194l1.323.118-.926-.21-.926-.211 2.315-.035 2.315-.035v.529H205.752l-.164-.264-.163-.265h4.976l.438.484.438.484-.004 16.119c-.002 8.865-.122 23.61-.267 32.769l-.262 16.65-.436.481-.436.482H16.079Zm25.736-2.117c.08-.327.113-3.036.072-6.02l-.075-5.423-1.125-.081-1.124-.082V235.65l-.993.008-.992.008-.421.587-.422.587-.168 16.829-.168 16.829.17.17c.095.094 1.28.17 2.636.17h2.464zm5.79.177c.087-.23.16-2.92.16-5.978v-5.56l-.53-.138-.529-.138v-22.902l-1.124-.119-1.125-.119-.463.233-.463.233-.002 9.582c0 5.27-.077 10.385-.17 11.368l-.169 1.786h-.648l-.164.992c-.22 1.338-.215 10.78.007 11.002.097.097 1.275.176 2.617.176h2.442zm5.85-.177c.08-.327.111-8.275.071-17.66l-.073-17.066-.794-.031c-.436-.017-1.061.07-1.389.192l-.595.222v9.758c0 5.366-.076 10.489-.17 11.383l-.17 1.627h-1.958l-.18 5.649-.181 5.65.167.435.167.436h4.96zm5.82-5.485v-5.948l-.53-.026c-.291-.014-.857-.046-1.257-.071l-.727-.045V235.7l-1.324-.092-1.323-.091v35.34l2.58-.075 2.58-.076zm5.891.095.071-5.853-.796-.159-.796-.16-.069-11.45-.069-11.45-1.222-.08-1.223-.078-.163.608c-.09.335-.164 5.507-.166 11.494l-.004 10.886-.397.152-.396.153v11.57l.185.185.186.186 2.394-.075 2.394-.076zm5.821-.04.071-5.894-.402-.154-.402-.154v-22.962h-2.324l-.203.463-.203.463-.09 10.848c-.05 5.966-.147 10.997-.215 11.178l-.123.331h-1.34v11.554l.186.185.186.186 2.394-.076 2.394-.075zm5.818-11.635.068-17.53h-1.193c-.656 0-1.219.03-1.251.067-.033.036-.122 5.245-.199 11.575l-.14 11.51-1.256.08-1.257.081V270.486l.186.185.185.186 2.395-.076 2.394-.075zm5.885 11.723v-5.938l-1.125-.082-1.124-.081-.07-11.576-.068-11.575H77.133v34.837l.176.176c.097.097 1.288.176 2.646.176h2.47zm5.76-.05.07-5.854-.534-.14-.534-.14V235.65h-2.844l-.165.827c-.091.454-.166 5.645-.166 11.534v10.707l-.529.139-.53.138v11.492l.186.185.186.186 2.394-.076 2.394-.075zm5.817-11.673.068-17.53h-2.588l-.16.596c-.087.328-.16 5.5-.162 11.493l-.004 10.898-1.19.179-1.191.178v11.494l.185.185.186.186 2.394-.075 2.394-.076zm5.885 11.707v-5.953h-2.315l-.165-.827c-.091-.454-.166-5.693-.166-11.641v-10.815h-2.645v34.837l.176.176c.097.097 1.288.176 2.646.176h2.47zm5.76-.198.071-6.02h-1.597v-23.019H101.824l-.307.675-.307.674v21.614l-.397.152-.397.153v11.57l.186.185.186.186 2.394-.076 2.394-.075zm5.882.227v-5.925l-.397-.152-.397-.153V235.65h-2.32l-.159.595c-.088.328-.161 5.014-.163 10.414-.002 5.4-.08 10.371-.172 11.047l-.168 1.227h-1.516v5.777c0 6.738-.28 6.13 2.822 6.13h2.47zm5.756-11.736.068-17.53H115.298l-.294.355-.294.355-.07 11.22-.068 11.222-1.257.08-1.257.081V270.486l.186.185.185.186 2.394-.076 2.394-.075zm5.886 11.723v-5.938l-1.125-.082-1.124-.081-.07-11.576-.068-11.575H117.879v34.837l.176.176c.097.097 1.288.176 2.646.176h2.47zm5.76-.05.07-5.854-.534-.14-.534-.14V235.65h-2.659l-.258.679-.258.678v21.711l-.53.139-.528.138v11.492l.185.185.186.186 2.394-.076 2.394-.075zm5.817-11.673.068-17.53h-2.28l-.317.318-.317.318V258.606l-.596.16a5.685 5.685 0 0 1-1.19.163l-.595.004v11.553l.185.186.186.185 2.394-.075 2.394-.076zm5.885 11.707v-5.953H138.252l-.017-2.976a274.855 274.855 0 0 0-.102-5.755c-.048-1.528-.1-5.427-.116-8.665l-.03-5.887h-2.646v34.837l.177.176c.097.097 1.287.176 2.646.176h2.469zm5.953 2.25c0-1.965-.06-4.644-.132-5.954l-.132-2.381-.331-.033a55.663 55.663 0 0 0-.725-.066l-.394-.033-.069-11.444-.069-11.443-1.016-.084-1.017-.083-.364.48-.364.48-.008 11.019-.008 11.018-.397.152-.397.152v4.336c0 2.384.077 5.07.17 5.97l.172 1.636 2.54-.076 2.542-.075zm5.83 3.426.17-.278-.191-5.808-.192-5.807h-.716l-.07-11.444-.068-11.443-.878-.084-.877-.084-.38.315-.379.315v21.666l-.274.511-.274.512h-1.304l.004 5.358c.002 2.947.075 5.626.163 5.953l.16.595h4.934zm5.68-17.317v-17.595h-1.191c-.655 0-1.217.03-1.25.066-.032.036-.122 5.245-.198 11.575l-.14 11.51-1.256.08-1.257.081v5.762c0 6.722-.28 6.115 2.822 6.115h2.47zm5.82 11.509v-6.085H161.8v-10.683c0-5.875-.075-11.055-.166-11.51l-.165-.826H158.946l-.16.418c-.089.23-.161 8.069-.161 17.419v17l.176.176c.097.097 1.288.176 2.646.176h2.47zm5.821 0v-6.085h-.794l-.004-10.914c-.002-6.003-.075-11.182-.163-11.51l-.16-.595h-2.848l-.002 10.12c0 5.566-.076 10.736-.166 11.488l-.165 1.367-.495.13-.495.129v5.801c0 6.766-.28 6.154 2.823 6.154h2.47zm5.79 5.725.3-.36-.069-17.3-.068-17.301-1.32.085c-.726.048-1.381.147-1.455.22-.075.074-.172 5.238-.217 11.476l-.081 11.34-1.11.081-1.108.081-.072 5.497-.071 5.498.279.522.28.521h4.414zm5.984-5.725V258.8l-1.257-.08-1.256-.081v-11.077c0-6.092-.073-11.264-.161-11.495l-.16-.418h-2.258l-.151.992c-.196 1.285.027 33.626.234 33.962l.158.255 2.425-.076 2.426-.076zm5.892-.066.071-6.02h-1.598l-.001-9.326c-.001-5.13-.078-10.309-.172-11.51l-.17-2.182h-2.567v23.019h-.794v11.818l.186.185.185.186 2.394-.075 2.395-.076zm5.82 0 .072-6.02h-.804l-.026-10.781-.026-10.782-.183-.661-.183-.662-1.246-.08-1.246-.081v23.048h-1.588v11.818l.186.185.186.186 2.394-.075 2.394-.076zm5.824-11.046c.04-9.387.015-17.305-.056-17.598l-.128-.532-1.199.095-1.198.096-.07 11.416-.068 11.417-1.257.08-1.257.082v11.789l.186.185.186.186 2.394-.076 2.394-.075zm5.876.463c-.002-9.205-.067-16.973-.146-17.265l-.142-.529-.7-.33-.701-.331h-3.599l-.023 1.521c-.075 5.033.087 33.294.192 33.463l.127.206h4.996zm-90.484-25.599v-2.381h-4.498v4.454l.331.133c.182.074 1.194.143 2.25.155l1.917.02zm29.367-.077.002-2.325-2.183.076-2.183.077-.076 2.165-.077 2.164.738.103c.406.056 1.422.094 2.257.084l1.519-.018zm11.852.011.077-2.315h-4.519v2.205c0 2.677-.118 2.552 2.35 2.482l2.016-.057zm28.306-11.31-.33-.528.973-.973.973-.973.413.343c.594.493.519.805-.433 1.787l-.845.872h1.956V213.424h-4.498V217.657h2.12z" style="fill:none;stroke:#fff;stroke-width:.101;stroke-dasharray:none;stroke-opacity:1" transform="translate(-14.613 -204.876)"/><path d="m16.247 272.293-.693-.377-.163-3.383c-.148-3.076-.567-44.942-.567-56.697v-4.894l.19-.463.19-.463h16.42v-.53h2.942l-.163.265-.164.265h4.529v-.53h2.911v.53l68.46-.08c37.654-.045 75.784-.016 84.734.065l16.272.147v11.377c0 16.806-.383 52.815-.57 53.578-.09.364-.414.867-.722 1.119l-.56.457-96.177-.005-96.176-.005zm25.37-7.606.072-6.02h-2.07l-.16-.418c-.09-.23-.161-5.475-.161-11.655v-11.237l-1.39.08-1.389.08-.162 6.482c-.089 3.565-.178 11.433-.198 17.484l-.036 11.003.185.185.185.185 2.527-.075 2.527-.075zm5.822 0 .07-6.02h-.373c-.657 0-.695-.641-.695-11.906 0-6.088-.072-11.257-.16-11.487l-.16-.419h-2.092l.163.265.164.264h-1.014l-.17 1.627c-.094.894-.17 6.133-.17 11.641v10.016H41.943v11.818l.186.185.185.185 2.527-.075 2.526-.075zm5.81-11.906.06-17.926-1.25.019-1.252.018.53.228.528.227-.69.019-.691.018-.167 1.39c-.092.763-.168 5.995-.17 11.626l-.001 10.237-1.125.082-1.124.081-.072 5.682c-.04 3.125-.012 5.838.062 6.029l.133.347 2.584-.076 2.584-.076zm5.892 11.972v-6.085h-2.315l-.17-.854c-.094-.47-.164-5.857-.155-11.972l.016-11.12-1.069-.028-1.07-.028v.337a.51.51 0 0 1-.33.447l-.33.11-.072 17.302c-.04 9.515-.014 17.453.057 17.639l.13.337h5.308zm5.913 4.3c.214-2.259.218-9 .006-9.79l-.16-.595h-1.525v-23.311l-1.39.08-1.388.08-.133 11.487-.132 11.488-.33.11-.331.11V270.839h5.215zm5.803 1.267c.074-.284.118-2.968.097-5.962l-.039-5.445-.397-.245-.396-.245-.077-11.444-.077-11.445-.32-.203-.32-.203.33-.004c.182-.002.331-.123.331-.269v-.264H67.608v.529l.728.035.727.034-.926.164-.926.164-.069 11.575-.069 11.576h-1.582v12.17h5.23zm5.894-1.797.194-2.315-.172-8.07a973.38 973.38 0 0 1-.186-15.808l-.012-7.74h-2.352v.53l.727.031.728.031-.782.168-.782.168-.184.66-.184.661-.026 10.915-.027 10.914h-2.38v12.17h5.243zm5.738-3.254c.08-3.064.083-5.802.009-6.086l-.135-.515H80.308V235.68l-.253-.156-.253-.157.15-.388.148-.388h-2.438v.396c0 .219-.119.397-.264.397h-.265v35.454h5.213zm5.757-.516v-6.085h-.794V235.95l-.352-.352-.352-.352.11-.328.109-.328H84.54v.264c0 .146.15.272.331.281l.33.017-.594.24-.596.239-.003 10.526c-.001 5.789-.076 10.972-.167 11.517l-.164.993h-.724v12.17h5.292zm5.855 3.241c.019-1.564.076-9.214.128-17l.093-14.155-.295-1.124-.294-1.124h-2.017l-.151.245-.152.246.599.115.6.115-.728.036-.728.036v10.414c0 5.728-.076 10.967-.168 11.642l-.169 1.228h-2.044v12.17h5.291zm5.791 1.588c.014-3.537.019-9.796.008-10.32l-.013-.594H97.506V235.68l-.253-.156-.253-.157.155-.405.156-.405-1.16.083-1.159.083.067.33c.036.183-.053.331-.199.331h-.264v35.455h5.291zm5.948-4.829V258.8l-.86-.083-.86-.083v-23.277l-1.389.08-1.389.08-.068 11.575-.07 11.576h-.788v11.818l.186.185.185.185 2.527-.075 2.526-.075zm5.893.133.071-5.82-.458-.336-.459-.335-.108-11.506-.108-11.505H108.46l-.318.318-.317.317v22.649h-1.588v12.189l2.712-.075 2.712-.076zm5.775 5.281.169-.671-.158-4.29c-.087-2.36-.16-10.04-.164-17.07l-.005-12.78-1.247.08-1.247.08-.213.927-.213.926.039 9.657c.02 5.311.023 10.104.005 10.65l-.034.992H112.059v5.909c0 6.886-.281 6.261 2.817 6.261h2.464zm5.663-5.414v-6.085h-2.112l-.068-11.576-.07-11.575-1.515-.08-1.516-.079-.072 11.06c-.039 6.082-.038 14.065.003 17.74l.075 6.68h5.274zm5.82 0v-6.085h-.748l-.188-2-.187-1.999.191-7.615.192-7.616-.191-2.04-.191-2.038-1.49.078-1.489.079-.15 11.509c-.082 6.33-.172 11.54-.198 11.575-.027.037-.227.067-.445.067h-.397v12.17h5.291zm5.938 5.605c.18-.567.152-33.834-.029-34.51l-.123-.464h-2.875l-.003 10.65c-.002 5.857-.077 11.096-.167 11.641l-.164.993h-2.048v12.17h5.256zm5.836-5.605V258.8l-1.254-.08-1.254-.081-.069-11.55-.068-11.549-.662-.184-.661-.183.463-.027.463-.026v-.56l-1.125.082-1.124.08-.072 18.068-.07 18.067 2.716-.075 2.717-.076zm5.821 0V258.8l-.727-.084-.728-.083-.033-2.364c-.018-1.3-.063-2.483-.1-2.628-.036-.146-.08-4.32-.099-9.275l-.033-9.01-1.389.08-1.389.08-.069 11.576-.069 11.576h-.788v11.818l.186.185.185.185 2.527-.075 2.526-.075zm5.892.06.071-5.893-.402-.155-.401-.154v-9.987c0-5.493-.078-10.725-.172-11.626l-.171-1.639-1.35.079-1.35.079-.07 11.575-.068 11.576h-1.581v11.818l.184.185.186.185 2.526-.075 2.527-.075zm5.75 5.761c.09-.146.078-8.128-.026-17.74l-.19-17.475-1.215.079-1.215.079-.142 11.509c-.078 6.33-.168 11.539-.199 11.575-.03.037-.592.066-1.246.066h-1.191v5.91c0 6.885-.28 6.261 2.807 6.261h2.453zm5.82-5.821V258.8l-1.121-.081-1.122-.081-.069-11.56-.069-11.561-1.322-.147-1.323-.147 1.058-.14 1.058-.139-1.096-.044-1.096-.045-.16.419c-.089.23-.161 8.247-.161 17.815v17.397l.185.185.185.185 2.527-.075 2.527-.075zm5.893-.066.07-6.02h-1.062l-.069-11.575-.069-11.575h-3.175l-.069 11.468-.069 11.47-.526.137-.526.137v11.757l.185.185.185.185 2.527-.075 2.526-.075zm5.817-11.655.068-17.674-1.523.08-1.523.079-.132 11.509-.133 11.51-1.124.08-1.125.082v11.788l.186.185.185.185 2.527-.075 2.526-.075zm5.885 11.721v-6.085h-2.645v-23.284h-2.911v35.101l.177.177c.097.097 1.347.177 2.778.177h2.601zm6.065 5.622.27-.463.007.463.008.464H193.228l.161-.419c.088-.23.18-.855.202-1.39l.042-.97.157 1.323.157 1.323 2.509.077 2.509.077.335-.458.335-.458v.913l2.712-.075 2.712-.076-.099-17.462c-.054-9.605-.15-17.552-.214-17.661l-.115-.199h-5.26l-.063 8.93-.062 8.93-.074-8.944-.073-8.943-1.386.08-1.385.08-.03 10.715c-.016 5.894-.046 11.103-.066 11.576l-.036.86h-2.646l-.059 4.167-.059 4.167-.08-4.09-.081-4.09-.324-.2-.323-.2-.133-11.452-.132-11.453-1.389-.08-1.389-.08-.004 11.06c-.002 6.083-.074 11.321-.16 11.64l-.155.581-.833.081a9.875 9.875 0 0 1-1.69-.014l-.857-.095-.069-11.547-.069-11.546-1.389-.08-1.389-.08-.057.741c-.03.408-.06 5.587-.066 11.51l-.01 10.77-.5.366-.498.366.123 5.551.123 5.551.193.313.194.313H187.437zm-73.136-41.87v-2.249H109.81l-.08 1.96c-.043 1.078-.015 2.124.062 2.325l.14.366 2.32-.076 2.32-.077zm29.5 0v-2.381H139.31v4.762h4.763zm11.73.23c.09-1.183.102-2.254.023-2.38l-.142-.231h-4.731v4.762h4.684zm-23.426-5.877.078-2.076-.317-.382-.317-.382-2.142.077-2.142.076-.078 2.093c-.043 1.151-.015 2.257.062 2.458l.14.364 2.32-.076 2.319-.077zm74.138-3.613v-1.059h-2.646v2.117h2.646zm-7.21.175.331-.206v.549l.663-.302c.8-.365.66-.564-.448-.641l-.829-.058-.386.386c-.212.213-.457.315-.545.227-.088-.087-.001-.257.192-.376l.351-.217h-2.967l-.03.43-.031.43-.121-.463c-.138-.53-.61-.631-.615-.133l-.004.331-.266-.397-.266-.397-.354.463c-.196.255-.482.463-.637.463-.156 0-.337-.208-.404-.463l-.12-.463-.031.56-.031.56 3.109-.038 3.109-.04zm-12.766-3.88v-2.248H182.305l-.077 2.326-.076 2.326 2.193-.077 2.193-.077zm-78.779-2.58.11-.33h-2.69l-.021.33-.02.332-.134-.331-.134-.33h-3.924v.809l3.351-.074 3.352-.074z" style="fill:none;stroke:#fff;stroke-width:.101;stroke-dasharray:none;stroke-opacity:1" transform="translate(-14.613 -204.876)"/><path d="m16.247 272.293-.693-.377-.163-3.383c-.148-3.076-.567-44.942-.567-56.697v-4.894l.19-.463.19-.463h16.42v-.53h2.942l-.163.265-.164.265h4.529v-.53h2.911v.53l68.46-.08c37.654-.045 75.784-.016 84.734.065l16.272.147v11.377c0 16.806-.383 52.815-.57 53.578-.09.364-.414.867-.722 1.119l-.56.457-96.177-.005-96.176-.005zm25.37-7.606.072-6.02h-2.07l-.16-.418c-.09-.23-.161-5.475-.161-11.655v-11.237l-1.39.08-1.389.08-.162 6.482c-.089 3.565-.178 11.433-.198 17.484l-.036 11.003.185.185.185.185 2.527-.075 2.527-.075zm5.822 0 .07-6.02h-.373c-.657 0-.695-.641-.695-11.906 0-6.088-.072-11.257-.16-11.487l-.16-.419h-2.092l.163.265.164.264h-1.014l-.17 1.627c-.094.894-.17 6.133-.17 11.641v10.016H41.943v11.818l.186.185.185.185 2.527-.075 2.526-.075zm5.81-11.906.06-17.926-1.25.019-1.252.018.53.228.528.227-.69.019-.691.018-.167 1.39c-.092.763-.168 5.995-.17 11.626l-.001 10.237-1.125.082-1.124.081-.072 5.682c-.04 3.125-.012 5.838.062 6.029l.133.347 2.584-.076 2.584-.076zm5.892 11.972v-6.085h-2.315l-.17-.854c-.094-.47-.164-5.857-.155-11.972l.016-11.12-1.069-.028-1.07-.028v.337a.51.51 0 0 1-.33.447l-.33.11-.072 17.302c-.04 9.515-.014 17.453.057 17.639l.13.337h5.308zm5.913 4.3c.214-2.259.218-9 .006-9.79l-.16-.595h-1.525v-23.311l-1.39.08-1.388.08-.133 11.487-.132 11.488-.33.11-.331.11V270.839h5.215zm5.803 1.267c.074-.284.118-2.968.097-5.962l-.039-5.445-.397-.245-.396-.245-.077-11.444-.077-11.445-.32-.203-.32-.203.33-.004c.182-.002.331-.123.331-.269v-.264H67.608v.529l.728.035.727.034-.926.164-.926.164-.069 11.575-.069 11.576h-1.582v12.17h5.23zm5.894-1.797.194-2.315-.172-8.07a973.38 973.38 0 0 1-.186-15.808l-.012-7.74h-2.352v.53l.727.031.728.031-.782.168-.782.168-.184.66-.184.661-.026 10.915-.027 10.914h-2.38v12.17h5.243zm5.738-3.254c.08-3.064.083-5.802.009-6.086l-.135-.515H80.308V235.68l-.253-.156-.253-.157.15-.388.148-.388h-2.438v.396c0 .219-.119.397-.264.397h-.265v35.454h5.213zm5.757-.516v-6.085h-.794V235.95l-.352-.352-.352-.352.11-.328.109-.328H84.54v.264c0 .146.15.272.331.281l.33.017-.594.24-.596.239-.003 10.526c-.001 5.789-.076 10.972-.167 11.517l-.164.993h-.724v12.17h5.292zm5.855 3.241c.019-1.564.076-9.214.128-17l.093-14.155-.295-1.124-.294-1.124h-2.017l-.151.245-.152.246.599.115.6.115-.728.036-.728.036v10.414c0 5.728-.076 10.967-.168 11.642l-.169 1.228h-2.044v12.17h5.291zm5.791 1.588c.014-3.537.019-9.796.008-10.32l-.013-.594H97.506V235.68l-.253-.156-.253-.157.155-.405.156-.405-1.16.083-1.159.083.067.33c.036.183-.053.331-.199.331h-.264v35.455h5.291zm5.948-4.829V258.8l-.86-.083-.86-.083v-23.277l-1.389.08-1.389.08-.068 11.575-.07 11.576h-.788v11.818l.186.185.185.185 2.527-.075 2.526-.075zm5.893.133.071-5.82-.458-.336-.459-.335-.108-11.506-.108-11.505H108.46l-.318.318-.317.317v22.649h-1.588v12.189l2.712-.075 2.712-.076zm5.775 5.281.169-.671-.158-4.29c-.087-2.36-.16-10.04-.164-17.07l-.005-12.78-1.247.08-1.247.08-.213.927-.213.926.039 9.657c.02 5.311.023 10.104.005 10.65l-.034.992H112.059v5.909c0 6.886-.281 6.261 2.817 6.261h2.464zm5.663-5.414v-6.085h-2.112l-.068-11.576-.07-11.575-1.515-.08-1.516-.079-.072 11.06c-.039 6.082-.038 14.065.003 17.74l.075 6.68h5.274zm5.82 0v-6.085h-.748l-.188-2-.187-1.999.191-7.615.192-7.616-.191-2.04-.191-2.038-1.49.078-1.489.079-.15 11.509c-.082 6.33-.172 11.54-.198 11.575-.027.037-.227.067-.445.067h-.397v12.17h5.291zm5.938 5.605c.18-.567.152-33.834-.029-34.51l-.123-.464h-2.875l-.003 10.65c-.002 5.857-.077 11.096-.167 11.641l-.164.993h-2.048v12.17h5.256zm5.836-5.605V258.8l-1.254-.08-1.254-.081-.069-11.55-.068-11.549-.662-.184-.661-.183.463-.027.463-.026v-.56l-1.125.082-1.124.08-.072 18.068-.07 18.067 2.716-.075 2.717-.076zm5.821 0V258.8l-.727-.084-.728-.083-.033-2.364c-.018-1.3-.063-2.483-.1-2.628-.036-.146-.08-4.32-.099-9.275l-.033-9.01-1.389.08-1.389.08-.069 11.576-.069 11.576h-.788v11.818l.186.185.185.185 2.527-.075 2.526-.075zm5.892.06.071-5.893-.402-.155-.401-.154v-9.987c0-5.493-.078-10.725-.172-11.626l-.171-1.639-1.35.079-1.35.079-.07 11.575-.068 11.576h-1.581v11.818l.184.185.186.185 2.526-.075 2.527-.075zm5.75 5.761c.09-.146.078-8.128-.026-17.74l-.19-17.475-1.215.079-1.215.079-.142 11.509c-.078 6.33-.168 11.539-.199 11.575-.03.037-.592.066-1.246.066h-1.191v5.91c0 6.885-.28 6.261 2.807 6.261h2.453zm5.82-5.821V258.8l-1.121-.081-1.122-.081-.069-11.56-.069-11.561-1.322-.147-1.323-.147 1.058-.14 1.058-.139-1.096-.044-1.096-.045-.16.419c-.089.23-.161 8.247-.161 17.815v17.397l.185.185.185.185 2.527-.075 2.527-.075zm5.893-.066.07-6.02h-1.062l-.069-11.575-.069-11.575h-3.175l-.069 11.468-.069 11.47-.526.137-.526.137v11.757l.185.185.185.185 2.527-.075 2.526-.075zm5.817-11.655.068-17.674-1.523.08-1.523.079-.132 11.509-.133 11.51-1.124.08-1.125.082v11.788l.186.185.185.185 2.527-.075 2.526-.075zm5.885 11.721v-6.085h-2.645v-23.284h-2.911v35.101l.177.177c.097.097 1.347.177 2.778.177h2.601zm6.065 5.622.27-.463.007.463.008.464H193.228l.161-.419c.088-.23.18-.855.202-1.39l.042-.97.157 1.323.157 1.323 2.509.077 2.509.077.335-.458.335-.458v.913l2.712-.075 2.712-.076-.099-17.462c-.054-9.605-.15-17.552-.214-17.661l-.115-.199h-5.26l-.063 8.93-.062 8.93-.074-8.944-.073-8.943-1.386.08-1.385.08-.03 10.715c-.016 5.894-.046 11.103-.066 11.576l-.036.86h-2.646l-.059 4.167-.059 4.167-.08-4.09-.081-4.09-.324-.2-.323-.2-.133-11.452-.132-11.453-1.389-.08-1.389-.08-.004 11.06c-.002 6.083-.074 11.321-.16 11.64l-.155.581-.833.081a9.875 9.875 0 0 1-1.69-.014l-.857-.095-.069-11.547-.069-11.546-1.389-.08-1.389-.08-.057.741c-.03.408-.06 5.587-.066 11.51l-.01 10.77-.5.366-.498.366.123 5.551.123 5.551.193.313.194.313H187.437zm-37.836-39.643c.084-.085.154-1.101.154-2.259v-2.104l-.397-.256-.397-.257-2.117.068-2.116.068v4.757l.793.16c.904.184 3.847.055 4.08-.177zm-35.3-2.227v-2.249H109.81l-.08 1.96c-.043 1.078-.015 2.124.062 2.325l.14.366 2.32-.076 2.32-.077zm23.624-.066-.077-2.447H133.357l-.078 2.093c-.043 1.151-.017 2.253.058 2.447l.136.354H138.272zm5.877.066v-2.381H139.31v4.762H144.072zm11.729.23c.09-1.183.102-2.254.023-2.38l-.142-.231h-4.731v4.762h4.684zm-18.368-3.572.837-.167-.076-2.413-.075-2.412h-4.763l-.076 2.43-.076 2.43.87.107c1.531.19 2.502.196 3.36.025zm12.428-.21.212-.131c-.032-1.374.333-2.77-.162-4.072l-.27-.712H145.141l-.15.601c-.084.33-.116 1.427-.072 2.437l.08 1.835.661.2.662.199 1.664-.113c.915-.063 1.76-.172 1.876-.244zm-35.091-1.277c.077-.764.062-1.865-.033-2.447l-.174-1.058-2.222-.078-2.223-.077-.217.342-.217.342-.004 2.006c-.005 2.471-.13 2.36 2.649 2.36h2.3zm29.245-1.058-.076-2.447-2.447-.076-2.447-.076v5.046h5.046zm62.498-3.373v-1.059h-2.646v2.117h2.646zm-7.21.175.331-.207v.55l.663-.302c.8-.365.66-.564-.448-.641l-.829-.058-.386.386c-.212.213-.457.315-.545.227-.088-.087-.001-.257.192-.376l.351-.217h-2.967l-.03.43-.031.43-.121-.463c-.138-.53-.61-.631-.615-.133l-.004.331-.266-.397-.266-.397-.354.463c-.196.255-.482.463-.637.463-.156 0-.337-.208-.404-.463l-.12-.463-.031.56-.031.56 3.109-.038 3.109-.04zm-12.766-3.88v-2.248H182.305l-.077 2.326-.076 2.326 2.193-.077 2.193-.077zm-78.779-2.58.11-.33h-2.69l-.021.33-.02.332-.134-.331-.134-.33h-3.924v.809l3.351-.074 3.352-.074z" style="fill:none;stroke:#fff;stroke-width:.101;stroke-dasharray:none;stroke-opacity:1" transform="translate(-14.613 -204.876)"/><path d="m36.07 272.367-.873-.191-9.398.008c-5.168.004-9.59-.066-9.826-.157l-.428-.164-.168-7.458c-.205-9.138-.603-55.534-.48-55.81l.09-.198h196.341l-.189 18.058c-.104 9.931-.264 24.15-.356 31.595l-.168 13.538-.2.2c-.11.111-1.658.301-3.44.423l-3.239.222-83.397.063-83.397.062zm34.655-1.523c.041-.003.183-.273.314-.6l.24-.596.016.595.017.595H76.547l.16-.418c.214-.556.204-32.658-.01-34.44l-.167-1.39-1.087.003-1.088.002-.33.712-.332.712v22.648h-2.38v.794l-.596-.595-.595-.595-.084-11.84-.083-11.84-1.107.001-1.108.002-.33.713-.331.712v22.59l-.954.112c-.524.061-1.288.062-1.696.002l-.742-.11-.152-.568c-.084-.313-.155-5.718-.157-12.012l-.003-11.443H60.993v.375c0 .206-.132.419-.295.473l-.295.098-.141 11.566-.14 11.565-.292.023c-.67.054-2.946-.077-3.045-.175-.06-.06-.088-5.466-.064-12.016l.043-11.91h-2.258l-.33.53c-.182.291-.449.53-.593.53h-.262v-1.06H50.94v.284c0 .156-.18.462-.398.68l-.396.398v22.665l-1.285.092c-.707.05-1.467.055-1.69.012l-.404-.08-.163-.813c-.09-.448-.163-5.8-.163-11.893v-11.08h-2.38v.265c0 .146-.167.265-.37.265-.652 0-.69.658-.69 12.041v11.205l-.595.085c-.327.046-1.092.043-1.7-.007l-1.106-.092-.178-1.055-.178-1.056.192-9.982.193-9.982-.183-.58-.184-.578h-2.798l-.169 1.786c-.093.983-.17 8.964-.17 17.737l-.002 15.95 2.712-.075 2.712-.076.156-1.323.157-1.323.042 1.399.041 1.398 2.712-.075 2.712-.076.116-1.19.115-1.191.15 1.19.149 1.191h5.291l.126-4.365.126-4.366.139 4.366.138 4.365 2.712.076 2.712.075.009-.472.008-.473.352.463.351.463H64.952l.13-.595c.07-.327.176-.893.233-1.257l.104-.661.036 1.235.036 1.234.331.15c.248.113 2.903.06 4.903-.1zm11.48-.03.541-.29.29.29.288.29h4.64l.395-.729.395-.727.01.595.01.595h5.236l.16-.418c.089-.23.161-8.207.161-17.727v-17.309h-.265c-.145 0-.234-.149-.198-.33l.066-.331-1.242-.08-1.242-.08-.14.874c-.216 1.357-.4 8.645-.41 16.285l-.009 6.946h-2.116l-.06 5.358-.06 5.357-.079-5.251-.077-5.252-.524-.137-.523-.137v-22.587l-.331-.712-.33-.712-1.125-.002-1.125-.002v.397c0 .218-.119.397-.264.397h-.265l-.002 9.855c0 5.42-.077 10.65-.168 11.62l-.167 1.765-.427.103c-.234.057-.992.054-1.683-.005l-1.257-.108-.004-11.417c-.002-6.279-.075-11.684-.163-12.012l-.16-.595h-2.319v.397c0 .218-.119.397-.264.397h-.265v35.41l.33.133c.183.074 1.202.143 2.267.155l1.936.02zm17.505-.042.452-.331-.071-5.82-.072-5.821-1.256-.08-1.257-.081-.004-11.429c-.002-6.286-.075-11.697-.163-12.024l-.16-.595h-2.258l-.159.595c-.087.327-.16 8.474-.163 18.105l-.003 17.509.463.12c.254.067 1.303.136 2.33.152l1.868.031zm11.572.057.511-.274V258.96l-.39-.22-.392-.218-.084-11.37c-.045-6.253-.148-11.608-.228-11.899l-.144-.53-1.267-.081-1.268-.082.156.404.155.404-.253.157-.253.156v22.988h-1.588v12.126l.331.134c.182.073 1.202.143 2.266.154l1.936.021zm11.899-.135.34-.41.2.324.2.323 2.204.1 2.205.098.376-.255.376-.255.186-1.147.186-1.147.033 1.266.034 1.266 2.711-.075 2.712-.076.069-17.31.068-17.31-.331-.747-.332-.748h-2.489l-.048 8.4c-.027 4.62-.024 8.996.006 9.724.03.727-.027 2.364-.126 3.638l-.18 2.315h-2.06l-.055 4.828-.054 4.829-.16-4.762c-.178-5.312-.122-4.895-.658-4.895h-.397v-23.036l-.397-.152c-.218-.084-.397-.318-.397-.52v-.37H124.965l.153.398.152.396h-.512v4.852c0 2.669-.079 7.908-.175 11.642l-.175 6.79h-.709l-.008.463-.008.463-.27-.463-.27-.463h-2.089v-22.649l-.331-.712-.33-.712-1.095-.002-1.093-.002-.16.595c-.087.328-.16 4.99-.163 10.363-.002 5.372-.067 9.704-.144 9.627-.078-.078-.202-4.354-.277-9.503-.075-5.15-.196-9.75-.268-10.222l-.132-.86h-2.325l-.051.463c-.028.254-.098 5.672-.154 12.038l-.103 11.576h-2.37v12.171h5.26l.165-.267.165-.267.399.4.399.398h4.395zm17.245.114.482-.258-.072-5.875-.07-5.875-1.257-.08-1.257-.081v-22.62l-.331-.712-.33-.712-1.125-.002-1.125-.002V270.8l.463.114c.255.063 1.29.123 2.302.133l1.838.019zm11.518.128.595-.16v-12.108h-.793v-23.036l-.397-.152c-.219-.084-.397-.318-.397-.52v-.37H148.9l-.165.827c-.091.455-.165 5.872-.165 12.039v11.212h-1.588v12.126l.33.134c.475.191 3.925.198 4.631.008zm53.247-7.472c0-3.875-.08-11.778-.175-17.562l-.175-10.518-1.214-.004c-.668-.002-1.37-.103-1.56-.224l-.348-.22-1.174.269-1.174.269-.059 3.725-.058 3.726-.081-3.77-.082-3.77h-.39c-.214 0-.389-.107-.389-.237v-.237l-1.048-.1-1.048-.1-.015 11.357c-.01 6.246-.083 11.626-.166 11.954l-.15.598-1.325.09c-.73.05-1.463.005-1.631-.099l-.305-.188-.09-11.52-.09-11.519h-.747v-.824l-1.07.082-1.071.081.017 11.12c.01 6.115-.06 11.507-.155 11.983l-.173.865-1.618-.077-1.618-.078-.07-11.576-.068-11.575h-.788v-.794h-2.4l.036 10.914c.02 6.003.024 11.292.01 11.755l-.027.84-.397.398-.397.397.004 5.376c.002 2.958.075 5.645.163 5.972l.16.596h5.124l.317-.318.318-.317v.635H193.259l.27-.463.27-.463.007.463.008.463h5.266l.27-.463.27-.463.007.453.008.453 2.447.076 2.448.076.33-.23.331-.232zm-99.28 1.223.072-6.02h-1.532l-.165-.826c-.091-.455-.167-5.604-.17-11.443-.001-5.84-.074-10.885-.162-11.212l-.16-.595h-2.258l-.16.595c-.087.327-.16 5.689-.162 11.914l-.004 11.32-.397.152-.397.152v12.133l2.712-.075 2.712-.076zm40.746 0 .071-6.02h-1.558l-.085-11.553-.086-11.554-.331-.11c-.182-.06-.33-.278-.33-.485v-.374H141.976l-.013 11.84-.013 11.84-.394.294-.395.293v11.628l.186.185.185.185 2.527-.075 2.526-.075zm11.73 4.829.158-1.191.04 1.266.04 1.266 2.712-.075 2.712-.076.07-6.02.072-6.018H161.8v-23.284h-.794l.066-.33.066-.331-1.09-.08-1.09-.08-.163.61c-.09.334-.19 5.609-.225 11.72l-.061 11.113-.14-11.188-.141-11.189-.354-.218c-.194-.12-.34-.324-.326-.453l.028-.235-1.02-.08-1.02-.079-.11 1.27c-.06.699-.067 5.37-.017 10.38.05 5.01.011 9.862-.087 10.782l-.18 1.672h-2.339v12.189l2.713-.075 2.712-.076zm11.554-4.83.07-6.018h-1.068v-23.284h-.793v-.793h-2.32l-.16.595c-.087.327-.162 5.477-.166 11.443-.004 5.966-.08 11.116-.167 11.443l-.16.596h-.731v11.818l.185.185.185.185 2.527-.075 2.526-.075zm5.817-11.64.068-17.662h-.798v-.793h-2.36l-.015 11.417c-.009 6.28-.086 11.696-.171 12.038l-.156.622h-2.06v11.818l.186.185.185.185 2.527-.075 2.526-.075zm5.885 11.707v-6.085h-2.309l-.168-1.228c-.093-.675-.168-5.914-.168-11.642v-10.414h-.265c-.145 0-.265-.178-.265-.397v-.396h-2.38V270.486l.176.176c.097.097 1.347.176 2.778.176h2.601zM114.65 228.66l.077-2.359-.342-.217c-.397-.252-3.672-.3-4.289-.064l-.418.16v4.459l.595.224c.328.123 1.429.208 2.448.19l1.852-.034zm34.997 2.217.512-.274v-4.15l-.371-.308-.371-.308-2.209.077-2.208.078-.078 2.208-.077 2.209.308.37.308.372h3.674zm-23.168-2.504v-2.381h-4.763l-.076 2.457-.076 2.458 2.457-.077 2.458-.076zm11.718.066-.077-2.447H133.357l-.078 2.093c-.043 1.151-.017 2.252.058 2.447l.136.354H138.272zm5.82 0-.076-2.447h-4.762l-.078 2.093c-.043 1.151-.017 2.252.058 2.447l.135.354h4.8zm11.908.24.078-2.076-.317-.382-.317-.382-2.142.076-2.142.077-.076 2.457-.076 2.458 2.457-.077 2.458-.076zm-18.49-3.516.837-.167-.076-2.413-.075-2.412h-4.763l-.076 2.43-.076 2.43.87.107c1.531.19 2.502.196 3.36.025zm12.212-.107.07-5.04-2.358.078-2.36.077-.076 2.359-.077 2.359.341.216c.188.12 1.153.219 2.145.221l1.804.004zm-34.838-.409c.206-.537.202-3.237-.006-4.013l-.16-.596h-4.644l-.16.419c-.218.567-.205 4.212.015 4.432.097.097 1.216.177 2.486.177h2.308zm11.67-2.095v-2.381h-4.763l-.076 2.457-.076 2.458 2.457-.077 2.458-.076zm5.82 0v-2.381H127.537l-.076 2.457-.076 2.458 2.457-.077 2.458-.076zm11.82 1.27c.055-.685.037-1.787-.04-2.448l-.138-1.203-2.447-.076-2.447-.076v5.046H144.019zm16.503.065.65-.65V222.115l-.8-.8-.801-.8-.721.17c-.397.094-.93.417-1.184.718l-.463.547V223.238l.65.649.649.65h1.371zm-2.515-.194c-.647-.694-.68-1.22-.128-2.008l.412-.588h1.792l.412.588c.554.791.518 1.422-.117 2.058l-.53.529h-1.302zm48.408-4.58v-1.191h-2.646V220.303h2.646zm-7.21.309.331-.208v.236c0 .13.179.236.397.236.218 0 .397-.123.397-.274v-.273l.317.317c.175.175.621.316.993.314l.674-.004-.397-.257-.397-.256.331-.004c.182-.002.33-.112.33-.244v-.24h-6.614l-.03.439-.031.438-.121-.463c-.139-.531-.601-.628-.632-.133l-.021.331-.134-.33c-.195-.484-.798-.404-1.006.132l-.18.463-.377-.514-.378-.513v1.134l3.109-.06 3.109-.059zm-12.633-3.881v-2.382h-4.44l-.115 2.05c-.063 1.129-.064 2.2 0 2.382l.113.33h4.442zm-78.938-2.26c.244-.635.102-.666-3.322-.726l-3.219-.057-.248.397-.248.397.72.167c.396.092 1.944.18 3.44.198l2.72.031zm-92.73-6.538.085-.595 12.568-.132 12.568-.133-.662-.162-.661-.163 1.455-.005 1.455-.005-.794.202-.793.202 85.366.032 85.366.031.16.419c.088.23.16.527.16.661v.243H14.92Z" style="fill:none;stroke:#fff;stroke-width:.101;stroke-dasharray:none;stroke-opacity:1" transform="translate(-14.613 -204.876)"/><path d="m36.07 272.367-.873-.191-9.398.008c-5.168.004-9.59-.066-9.826-.157l-.428-.164-.168-7.458c-.205-9.138-.603-55.534-.48-55.81l.09-.198h196.341l-.189 18.058c-.104 9.931-.264 24.15-.356 31.595l-.168 13.538-.2.2c-.11.111-1.658.301-3.44.423l-3.239.222-83.397.063-83.397.062zm34.655-1.523c.041-.003.183-.273.314-.6l.24-.596.016.595.017.595H76.547l.16-.418c.214-.556.204-32.658-.01-34.44l-.167-1.39-1.087.003-1.088.002-.33.712-.332.712v22.648h-2.38v.794l-.596-.595-.595-.595-.084-11.84-.083-11.84-1.107.001-1.108.002-.33.713-.331.712v22.59l-.954.112c-.524.061-1.288.062-1.696.002l-.742-.11-.152-.568c-.084-.313-.155-5.718-.157-12.012l-.003-11.443H60.993v.375c0 .206-.132.419-.295.473l-.295.098-.141 11.566-.14 11.565-.292.023c-.67.054-2.946-.077-3.045-.175-.06-.06-.088-5.466-.064-12.016l.043-11.91h-2.258l-.33.53c-.182.291-.449.53-.593.53h-.262v-1.06H50.94v.284c0 .156-.18.462-.398.68l-.396.398v22.665l-1.285.092c-.707.05-1.467.055-1.69.012l-.404-.08-.163-.813c-.09-.448-.163-5.8-.163-11.893v-11.08h-2.38v.265c0 .146-.167.265-.37.265-.652 0-.69.658-.69 12.041v11.205l-.595.085c-.327.046-1.092.043-1.7-.007l-1.106-.092-.178-1.055-.178-1.056.192-9.982.193-9.982-.183-.58-.184-.578h-2.798l-.169 1.786c-.093.983-.17 8.964-.17 17.737l-.002 15.95 2.712-.075 2.712-.076.156-1.323.157-1.323.042 1.399.041 1.398 2.712-.075 2.712-.076.116-1.19.115-1.191.15 1.19.149 1.191h5.291l.126-4.365.126-4.366.139 4.366.138 4.365 2.712.076 2.712.075.009-.472.008-.473.352.463.351.463H64.952l.13-.595c.07-.327.176-.893.233-1.257l.104-.661.036 1.235.036 1.234.331.15c.248.113 2.903.06 4.903-.1zm11.48-.03.541-.29.29.29.288.29h4.64l.395-.729.395-.727.01.595.01.595h5.236l.16-.418c.089-.23.161-8.207.161-17.727v-17.309h-.265c-.145 0-.234-.149-.198-.33l.066-.331-1.242-.08-1.242-.08-.14.874c-.216 1.357-.4 8.645-.41 16.285l-.009 6.946h-2.116l-.06 5.358-.06 5.357-.079-5.251-.077-5.252-.524-.137-.523-.137v-22.587l-.331-.712-.33-.712-1.125-.002-1.125-.002v.397c0 .218-.119.397-.264.397h-.265l-.002 9.855c0 5.42-.077 10.65-.168 11.62l-.167 1.765-.427.103c-.234.057-.992.054-1.683-.005l-1.257-.108-.004-11.417c-.002-6.279-.075-11.684-.163-12.012l-.16-.595h-2.319v.397c0 .218-.119.397-.264.397h-.265v35.41l.33.133c.183.074 1.202.143 2.267.155l1.936.02zm17.505-.042.452-.331-.071-5.82-.072-5.821-1.256-.08-1.257-.081-.004-11.429c-.002-6.286-.075-11.697-.163-12.024l-.16-.595h-2.258l-.159.595c-.087.327-.16 8.474-.163 18.105l-.003 17.509.463.12c.254.067 1.303.136 2.33.152l1.868.031zm11.572.057.511-.274V258.96l-.39-.22-.392-.218-.084-11.37c-.045-6.253-.148-11.608-.228-11.899l-.144-.53-1.267-.081-1.268-.082.156.404.155.404-.253.157-.253.156v22.988h-1.588v12.126l.331.134c.182.073 1.202.143 2.266.154l1.936.021zm11.899-.135.34-.41.2.324.2.323 2.204.1 2.205.098.376-.255.376-.255.186-1.147.186-1.147.033 1.266.034 1.266 2.711-.075 2.712-.076.069-17.31.068-17.31-.331-.747-.332-.748h-2.489l-.048 8.4c-.027 4.62-.024 8.996.006 9.724.03.727-.027 2.364-.126 3.638l-.18 2.315h-2.06l-.055 4.828-.054 4.829-.16-4.762c-.178-5.312-.122-4.895-.658-4.895h-.397v-23.036l-.397-.152c-.218-.084-.397-.318-.397-.52v-.37H124.965l.153.398.152.396h-.512v4.852c0 2.669-.079 7.908-.175 11.642l-.175 6.79h-.709l-.008.463-.008.463-.27-.463-.27-.463h-2.089v-22.649l-.331-.712-.33-.712-1.095-.002-1.093-.002-.16.595c-.087.328-.16 4.99-.163 10.363-.002 5.372-.067 9.704-.144 9.627-.078-.078-.202-4.354-.277-9.503-.075-5.15-.196-9.75-.268-10.222l-.132-.86h-2.325l-.051.463c-.028.254-.098 5.672-.154 12.038l-.103 11.576h-2.37v12.171h5.26l.165-.267.165-.267.399.4.399.398h4.395zm17.245.114.482-.258-.072-5.875-.07-5.875-1.257-.08-1.257-.081v-22.62l-.331-.712-.33-.712-1.125-.002-1.125-.002V270.8l.463.114c.255.063 1.29.123 2.302.133l1.838.019zm11.518.128.595-.16v-12.108h-.793v-23.036l-.397-.152c-.219-.084-.397-.318-.397-.52v-.37H148.9l-.165.827c-.091.455-.165 5.872-.165 12.039v11.212h-1.588v12.126l.33.134c.475.191 3.925.198 4.631.008zm53.247-7.472c0-3.875-.08-11.778-.175-17.562l-.175-10.518-1.214-.004c-.668-.002-1.37-.103-1.56-.224l-.348-.22-1.174.269-1.174.269-.059 3.725-.058 3.726-.081-3.77-.082-3.77h-.39c-.214 0-.389-.107-.389-.237v-.237l-1.048-.1-1.048-.1-.015 11.357c-.01 6.246-.083 11.626-.166 11.954l-.15.598-1.325.09c-.73.05-1.463.005-1.631-.099l-.305-.188-.09-11.52-.09-11.519h-.747v-.824l-1.07.082-1.071.081.017 11.12c.01 6.115-.06 11.507-.155 11.983l-.173.865-1.618-.077-1.618-.078-.07-11.576-.068-11.575h-.788v-.794h-2.4l.036 10.914c.02 6.003.024 11.292.01 11.755l-.027.84-.397.398-.397.397.004 5.376c.002 2.958.075 5.645.163 5.972l.16.596h5.124l.317-.318.318-.317v.635H193.259l.27-.463.27-.463.007.463.008.463h5.266l.27-.463.27-.463.007.453.008.453 2.447.076 2.448.076.33-.23.331-.232zm-99.28 1.223.072-6.02h-1.532l-.165-.826c-.091-.455-.167-5.604-.17-11.443-.001-5.84-.074-10.885-.162-11.212l-.16-.595h-2.258l-.16.595c-.087.327-.16 5.689-.162 11.914l-.004 11.32-.397.152-.397.152v12.133l2.712-.075 2.712-.076zm40.746 0 .071-6.02h-1.558l-.085-11.553-.086-11.554-.331-.11c-.182-.06-.33-.278-.33-.485v-.374H141.976l-.013 11.84-.013 11.84-.394.294-.395.293v11.628l.186.185.185.185 2.527-.075 2.526-.075zm11.73 4.829.158-1.191.04 1.266.04 1.266 2.712-.075 2.712-.076.07-6.02.072-6.018H161.8v-23.284h-.794l.066-.33.066-.331-1.09-.08-1.09-.08-.163.61c-.09.334-.19 5.609-.225 11.72l-.061 11.113-.14-11.188-.141-11.189-.354-.218c-.194-.12-.34-.324-.326-.453l.028-.235-1.02-.08-1.02-.079-.11 1.27c-.06.699-.067 5.37-.017 10.38.05 5.01.011 9.862-.087 10.782l-.18 1.672h-2.339v12.189l2.713-.075 2.712-.076zm11.554-4.83.07-6.018h-1.068v-23.284h-.793v-.793h-2.32l-.16.595c-.087.327-.162 5.477-.166 11.443-.004 5.966-.08 11.116-.167 11.443l-.16.596h-.731v11.818l.185.185.185.185 2.527-.075 2.526-.075zm5.817-11.64.068-17.662h-.798v-.793h-2.36l-.015 11.417c-.009 6.28-.086 11.696-.171 12.038l-.156.622h-2.06v11.818l.186.185.185.185 2.527-.075 2.526-.075zm5.885 11.707v-6.085h-2.309l-.168-1.228c-.093-.675-.168-5.914-.168-11.642v-10.414h-.265c-.145 0-.265-.178-.265-.397v-.396h-2.38V270.486l.176.176c.097.097 1.347.176 2.778.176h2.601zM114.65 228.66l.077-2.359-.342-.217c-.397-.252-3.672-.3-4.289-.064l-.418.16v4.459l.595.224c.328.123 1.429.208 2.448.19l1.852-.034zm34.997 2.217.512-.274v-4.15l-.371-.308-.371-.308-2.209.077-2.208.078-.078 2.208-.077 2.209.308.37.308.372h3.674zm-29.022-.817c.09-.455.165-1.385.165-2.067v-1.239l-.336-.46-.336-.46-2.111.08-2.112.078-.076 2.447-.076 2.447H120.46zm5.854-1.687v-2.381h-4.763l-.076 2.457-.076 2.458 2.457-.077 2.458-.076zm5.82 0v-2.381H127.537l-.078 2.093c-.043 1.151-.015 2.257.062 2.458l.14.364 2.32-.076 2.319-.077zm5.898.066-.077-2.447H133.357l-.078 2.093c-.043 1.151-.017 2.252.058 2.447l.136.354H138.272zm5.82 0-.076-2.447h-4.762l-.078 2.093c-.043 1.151-.017 2.252.058 2.447l.135.354h4.8zm11.908.24.078-2.076-.317-.382-.317-.382-2.142.076-2.142.077-.076 2.457-.076 2.458 2.457-.077 2.458-.076zm-18.49-3.516.837-.167-.076-2.413-.075-2.412h-4.763l-.076 2.43-.076 2.43.87.107c1.531.19 2.502.196 3.36.025zm12.212-.107.512-.274-.004-2.04-.004-2.042-.217-.342-.216-.341-2.36.077-2.358.077-.077 2.359-.077 2.359.341.216c.188.12 1.153.219 2.145.221l1.804.004zm-34.838-.409c.206-.537.202-3.237-.006-4.013l-.16-.596h-4.644l-.16.419c-.218.567-.205 4.212.015 4.432.097.097 1.216.177 2.486.177h2.308zm5.927-1.628.077-1.914-.29-.544-.292-.543-2.168.076-2.167.077-.077 2.457-.076 2.458 2.458-.077 2.457-.076zm5.743-.467v-2.381h-4.763l-.076 2.457-.076 2.458 2.457-.077 2.458-.076zm5.82 0v-2.381H127.537l-.076 2.457-.076 2.458 2.457-.077 2.458-.076zm11.82 1.27c.055-.685.037-1.787-.04-2.448l-.138-1.203-2.447-.076-2.447-.076v5.046H144.019zm16.503.065.65-.65V222.115l-.8-.8-.801-.8-.721.17c-.397.094-.93.417-1.184.718l-.463.547V223.238l.65.649.649.65h1.371zm-2.515-.194c-.647-.694-.68-1.22-.128-2.008l.412-.588h1.792l.412.588c.554.791.518 1.422-.117 2.058l-.53.529h-1.302zm48.408-4.58v-1.191h-2.646V220.303h2.646zm-7.21.309.331-.208v.236c0 .13.179.236.397.236.218 0 .397-.123.397-.274v-.273l.317.317c.175.175.621.316.993.314l.674-.004-.397-.257-.397-.256.331-.004c.182-.002.33-.112.33-.244v-.24h-6.614l-.03.439-.031.438-.121-.463c-.139-.531-.601-.628-.632-.133l-.021.331-.134-.33c-.195-.484-.798-.404-1.006.132l-.18.463-.377-.514-.378-.513v1.134l3.109-.06 3.109-.059zm-12.633-3.881v-2.382h-4.44l-.115 2.05c-.063 1.129-.064 2.2 0 2.382l.113.33h4.442zm-78.938-2.26c.244-.635.102-.666-3.322-.726l-3.219-.057-.248.397-.248.397.72.167c.396.092 1.944.18 3.44.198l2.72.031zm-92.73-6.538.085-.595 12.568-.132 12.568-.133-.662-.162-.661-.163 1.455-.005 1.455-.005-.794.202-.793.202 85.366.032 85.366.031.16.419c.088.23.16.527.16.661v.243H14.92Z" style="fill:none;stroke:#fff;stroke-opacity:1;stroke-width:.101;stroke-dasharray:none" transform="translate(-14.613 -204.876)"/><path d="m35.726 272.161-.164-.264h-8.81c-4.847 0-9.35-.074-10.009-.164l-1.196-.164-.162-11.676c-.088-6.422-.235-20.576-.325-31.454l-.164-19.778h196.458l-.17 8.533c-.093 4.693-.234 18.177-.312 29.964-.079 11.787-.205 22.045-.282 22.794l-.138 1.363-.845.148a50.01 50.01 0 0 1-2.503.326c-.913.098-1.724.28-1.802.407l-.142.23H35.89Zm5.534-1.219.419-.16.02-.435.022-.435.15.397c.084.219.283.485.443.592.351.234 4.177.268 4.767.041l.419-.16.02-.435.021-.435.152.397c.083.219.282.485.442.592.351.234 4.177.268 4.767.041l.419-.16.044-1.229.045-1.228.107 1.055c.06.58.232 1.205.385 1.389l.277.334h4.672l.231-.414.231-.413.344.413.343.414H64.203l.54-.289.54-.29.29.29.289.289h4.551l.317-.317.318-.318.317.318.318.317h4.55l.318-.317.317-.318.318.318.317.317h4.551l.318-.317.317-.318.318.318.317.317h4.592l.323-.39.324-.389.39.39.389.389h3.965l.54-.289.54-.29.29.29.289.289h4.551l.317-.317.318-.318v-11.8h-2.646l-.031-11.708c-.018-6.44-.012-11.857.011-12.039l.043-.33H94.86v.38c0 .21-.127.46-.282.557l-.283.174-.145-.556-.145-.555h-2.521l-.297 1.175-.296 1.176v21.672l-1.256.109c-.692.059-1.466.057-1.72-.004l-.463-.113v-23.221h-.265c-.145 0-.235-.15-.198-.331l.066-.33-1.257-.082-1.257-.08v.39c0 .213-.148.438-.33.499l-.331.11-.086 11.538-.086 11.538-.415.082c-.228.045-.993.04-1.7-.01l-1.285-.092-.004-11.418c-.002-6.28-.075-11.685-.163-12.013l-.16-.595h-2.128l-.352.463-.351.463-.067 9.26-.066 9.26-.152-9.657c-.084-5.311-.176-9.687-.206-9.723-.03-.036-.561-.065-1.18-.064l-1.124.002-.33.712-.332.712v22.598l-1.285.091c-.706.05-1.48.054-1.72.006l-.434-.085v-11.192c0-6.156-.075-11.565-.165-12.02l-.166-.826h-2.315v.397c0 .218-.119.396-.265.396h-.264l-.004 11.311-.004 11.311-.226.357-.226.356-1.387-.01c-.763-.007-1.463-.087-1.556-.18-.093-.093-.203-5.517-.246-12.054l-.076-11.884h-2.36v.375c0 .206-.15.424-.331.484l-.331.11-.077 11.554-.077 11.554H56.76V234.59h-2.398l-.152.397c-.084.218-.318.396-.521.396h-.369v-.793h-2.38v.368c0 .203-.18.437-.398.521l-.397.152v22.74l-.229.142c-.353.218-2.926.262-3.134.053-.102-.102-.235-2.021-.295-4.266l-.11-4.081.229-.472.229-.473.147 3.043.147 3.043.053-3.11.053-3.108h-.529v-13.195l-.258-.679-.258-.678h-1.923l-.628.595-.628.595-.005 11.444-.004 11.443h-3.144l-.212-.33-.212-.332.075-11.244.075-11.245-.21-.306-.21-.306-1.365.27-1.366.27-.152.565c-.083.31-.153 8.255-.155 17.653l-.004 17.087.177.177c.22.22 4.393.234 4.961.016zm64.2-.113.513-.274v-11.887h-1.588v-22.032l-.306-1.023-.307-1.022h-2.255l-.192.86-.193.86-.027 11.09-.028 11.09-.33.11-.33.11v12.083l.33.134c.182.073 1.202.143 2.266.154l1.936.021zm6.157-.116.39-.39.15.39.149.39h4.673l.318-.317.317-.318.318.318.317.317h4.551l.318-.317.317-.318.318.318.317.317h4.592l.323-.39.323-.389.39.39.39.389h4.354l.317-.317.318-.318.054-3.453.055-3.453.144 3.705.144 3.704 2.115.078c1.164.043 2.384.011 2.712-.071l.597-.15v-12.16h-2.646v-23.284h-.513l.152-.397.153-.397H135.34l-.046 1.522-.046 1.521-.101-1.124-.102-1.125h-.249c-.137 0-.25-.178-.25-.397v-.397h-2.572l-.166 1.39c-.092.764-.168 6.169-.17 12.011l-.002 10.623-1.256.108c-.691.06-1.465.058-1.72-.004l-.463-.112v-22.974l-.38-.145-.38-.146.143-.375.144-.375H125.106l-.306 1.023-.306 1.022v21.97l-.463.112c-.255.062-1.029.064-1.72.004l-1.257-.108v-23.23h-.264c-.146 0-.265-.178-.265-.397v-.397h-2.32l-.16.596c-.087.327-.18 1.845-.208 3.373l-.05 2.778-.183-3.042c-.102-1.674-.2-3.192-.22-3.374l-.034-.33h-2.58l-.165.826c-.091.455-.165 5.86-.165 12.013v11.186l-1.285.092c-.707.05-1.481.053-1.72.006l-.435-.085v-11.193c0-6.155-.074-11.564-.165-12.019l-.166-.827h-2.518l-.16.596c-.087.327-.16 5.744-.162 12.038l-.004 11.443h-1.588v12.083l.176.177c.097.097 1.22.176 2.495.176h2.318zm34.683.23.418-.161.044-1.36.043-1.362.155 1.456.155 1.455 2.51.077 2.509.077.303-.416.304-.415.156.404.155.405h4.741l.395-.394.394-.395.11.328.109.329 2.373.09 2.372.09.298-.358c.164-.197.346-.833.405-1.413l.108-1.055.044 1.228.045 1.229.418.16c.543.209 4.176.209 4.72 0l.418-.16.008-.435.008-.435.27.463.27.463H175.822l.044-1.256.045-1.257.107 1.055c.06.58.232 1.205.385 1.389l.277.334h4.715l.23-.595.229-.596.194.483.195.482 2.872-.066c1.58-.037 2.952.014 3.05.113.1.098 1.217.179 2.485.179h2.305l.34-.41.34-.409.212.343.212.344h4.7l.407-.338.406-.337.155.403.155.404h2.236c1.23 0 2.424-.072 2.654-.16l.418-.161V257.25c-.001-7.442-.08-15.407-.174-17.699l-.173-4.167h-1.738l-.164-.264-.163-.265h-1.026c-.564 0-1.33.116-1.704.258l-.679.258-.02.47-.021.47-.148-.398c-.081-.218-.364-.605-.63-.86l-.481-.463H196.063l.08 10.914c.045 6.003.008 11.42-.082 12.04l-.163 1.124h-3.114l-.089-3.638c-.049-2.001-.118-7.183-.153-11.515l-.065-7.877-.449-.524-.448-.524h-2.283l.152 11.133.152 11.132-.328.906-.328.907H186.21l-.164-.993c-.09-.545-.165-5.725-.166-11.509l-.003-10.517-.53-.53-.529-.529h-2.1l-.075 11.917-.074 11.916-.305.188c-.168.104-.906.148-1.64.098l-1.336-.09-.08-11.53-.078-11.529-.331-.11c-.182-.06-.33-.279-.33-.485v-.375h-2.382l-.06 5.094-.06 5.093-.078-4.617-.08-4.616-.511-.477-.512-.477H172.647v22.72l-.263.692-.263.692-1.523-.08-1.523-.079-.069-11.575-.068-11.576h-.789v-.794h-1.19c-.655 0-1.215.03-1.244.067-.029.036-.118 5.384-.198 11.884l-.146 11.819-.196.196c-.217.216-2.783.182-3.146-.042l-.23-.142v-22.988h-.264c-.146 0-.265-.178-.265-.397v-.396h-2.646l-.06 9.723-.062 9.723-.144-9.128-.144-9.128-.226-.608-.226-.609-1.222.08-1.223.079-.026.397c-.014.218-.044 5.594-.066 11.946l-.04 11.55-1.285.092c-.707.05-1.48.053-1.72.006l-.435-.085v-22.61l-.33-.712-.331-.712-1.269-.002-1.268-.002.043.33c.024.182.029 5.6.012 12.039l-.032 11.708H146.983l-.031.463-.03.463-.122-.463-.12-.463h-1.549v-22.516l-.404-.78-.404-.781h-2.352l-.074 11.95-.074 11.95-.33.11-.331.11v12.083l.33.134c.478.193 4.313.204 4.808.014zM29.794 258.865l.02-.33.144.36.143.36.229-.36.228-.36.004.33.004.33H32.42v-.793h-3.175l-.005.33-.004.331-.194-.293-.194-.294-1.786-.046-1.786-.046v.812h4.498zm.23-5.46c-.103-1.365-.143-3.854-.09-5.531.098-3.014-.027-3.553-.43-1.855l-.206.874-.027-1.14-.028-1.14-.21.13c-.117.072-.378.027-.582-.098l-.37-.229-.485.26c-.267.143-.463.403-.436.577.028.174-.037.516-.145.76-.107.245-.155.72-.108 1.059l.088.614.992.083.992.082.026-.347c.086-1.13.426 1.377.473 3.49.03 1.382.11 2.781.175 3.109.536 2.675.614 2.529.371-.697zm50.961-7.616.09-9.732-.247.39-.247.391-.004 9.503c-.003 5.227.068 9.43.157 9.342.09-.09.202-4.541.251-9.894zm58.294 5.52a208.872 208.872 0 0 0-.22-7.724l-.187-3.572-.046 7.887-.045 7.887.264-.163.265-.164zm-82.056-10.056c-.044-2.573-.079-.393-.079 4.846s.036 7.344.079 4.68c.043-2.666.043-6.952 0-9.526zm6.917 10.85c-.015-1.702-.115-4.165-.222-5.475l-.195-2.381-.042 5.638-.042 5.638.265-.164.264-.163zm24.085-6.335c-.012-5.348-.062-9.604-.111-9.459-.05.146-.147 4.521-.215 9.724l-.125 9.459h.472zm16.816 1.72c-.105-4.402-.236-8.053-.291-8.114-.055-.06-.1 3.541-.1 8.004v8.114h.582zm8.803-7.029c-.043-2.719-.079-.42-.078 5.11 0 5.53.035 7.755.078 4.944.043-2.81.042-7.335 0-10.054zm7.937.282c-.043-2.728-.078-.496-.078 4.961 0 5.457.035 7.69.078 4.961a381.58 381.58 0 0 0 0-9.922zm30.799 2.844-.226-4.63-.04 6.642c-.021 3.653.05 7.404.16 8.334l.198 1.693.067-3.704c.036-2.038-.035-5.788-.16-8.335zm2.274-2.844c-.043-2.728-.078-.496-.078 4.961 0 5.457.035 7.69.078 4.961a381.58 381.58 0 0 0 0-9.922zm15.377 11.51a290.43 290.43 0 0 0-.217-7.475l-.181-4.233-.048 7.474-.048 7.475h.529zm25.633-9.922c-.043-2.438-.079-.444-.079 4.431s.036 6.87.08 4.432c.043-2.437.043-6.426 0-8.863zm-64.558.413c-.044-2.374-.08-.506-.08 4.15 0 4.657.036 6.6.08 4.317.044-2.283.044-6.093 0-8.467zm55.668 5.474-.221-6.35-.038 6.085c-.02 3.347.046 6.383.147 6.747l.184.661.074-.397c.041-.218-.025-3.254-.146-6.746zM132.43 231.98v-.228l-.662.127-.661.126v-.798l.661-.166.662-.166V225.86H127.446l-.087 1.98c-.048 1.09-.023 2.251.056 2.58l.143.6.584.084.585.085v.757h-3.44v-.594l-.371.308-.371.308-.092-.25c-.05-.139-.45-.291-.886-.34l-.793-.088.066.328.066.328h-3.644l-.758-.396-.758-.395 1.225-.002 1.224-.002.308-.371.308-.371-.077-2.209-.077-2.208H115.63l-.078 2.208-.077 2.209.308.37.308.372h1.506l-.152.397-.152.397h-3.648v-.444l-.963-.036c-1.58-.06-1.365-.314.264-.314h1.506l.258-.679c.142-.373.258-1.362.258-2.198v-1.519l-.336-.459-.335-.46-2.244.079-2.244.078v5.021l.72.135.72.135-.23.369-.23.369-.557-.146-.556-.146.148.24.148.24h22.459zm-5.953-3.476v-2.513l-2.359-.078-2.359-.077-.217.342-.216.342-.004 2.059-.004 2.059.571.211c.314.116 1.475.202 2.58.19l2.008-.021zm11.607 2.436c.139-.223.278-3.14.208-4.364l-.041-.738-2.448.077-2.447.076-.077 2.358-.077 2.36.341.216.342.217 2.035.004 2.035.004zm5.994-.469c.142-.373.258-1.43.258-2.349v-1.67l-.371-.308-.371-.308-2.209.077-2.208.078-.078 2.226c-.042 1.225-.016 2.386.058 2.58l.135.353h4.528zm5.947-1.967v-2.513H144.999l-.078 2.226c-.043 1.225-.015 2.39.062 2.59l.139.363 2.452-.076 2.452-.076zm5.828 2.048c.083-.33.115-1.49.072-2.58l-.08-1.981-2.358-.078-2.36-.077-.216.342-.217.342-.004 1.997-.004 1.998.318.317.317.318h4.382zm4.821-.81.596-.536v-1.201l-.62-.72-.62-.721h-1.664l-.533.482-.532.482v.73c0 .403.077.934.172 1.18l.172.448.806.339.806.339.411-.143c.226-.08.679-.385 1.006-.68zm-2.582-.243-.552-.593.16-.664c.087-.365.36-.818.607-1.006l.449-.342.635.078.636.077.516.695.516.694-.331.628c-.414.785-.754 1.016-1.499 1.022l-.585.004zm-52.517-1.392v-1.323h-2.646l-.084 1.02c-.046.561-.017 1.193.064 1.404l.147.384 1.26-.081 1.259-.08zm-2.514-.015v-1.206l1.125.082 1.124.081.082 1.124.081 1.125h-2.412zm10.924-2.934 1.001-.166-.075-2.411-.076-2.411H109.81V224.909l.662.184c.875.244 2.28.27 3.515.066zm6.217.002.605-.162-.075-2.414-.076-2.414-2.411-.076-2.411-.076-.166 1.002c-.395 2.39-.18 3.81.622 4.116.543.207 3.17.223 3.913.024zm6.087-.056.342-.217-.077-2.358-.077-2.36-2.36-.076-2.358-.078-.217.342-.216.342-.004 1.997-.004 1.998.317.318.318.317 1.997-.004 1.998-.004zm4.894.072 1.266-.164-.076-2.421-.075-2.421-2.448-.076-2.447-.077v5.003l.33.112c.571.194 2.133.213 3.45.043zm6.77-.085.363-.23v-1.817c0-.999-.015-2.088-.033-2.421l-.032-.606-2.448.077-2.447.076-.076 2.426-.076 2.426.473.123c.26.067 1.247.135 2.193.15l1.72.026zm6.066-.08.317-.317v-1.91c0-1.05-.072-2.098-.16-2.328l-.161-.419h-4.97v2.47c0 2.98-.141 2.822 2.504 2.822h2.152zm6.006-2.328v-2.513H144.999l-.078 2.226c-.043 1.225-.015 2.39.062 2.59l.139.363 2.452-.076 2.452-.076zm10.632 1.277.613-.575v-.594c0-1.898-2.033-2.862-3.32-1.575l-.65.65v1.444l.576.613.575.612h1.594zm-2.096.027c-.253-.148-.581-.494-.729-.771l-.27-.503.312-.683.311-.683.597-.15c.329-.082.85-.069 1.16.03l.564.178.242.637.242.637-.175.465c-.372.992-1.362 1.362-2.254.843zm48.085-4.876v-1.058l-1.39-.08-1.389-.08v2.436l1.39-.08 1.389-.08zm-6.218.313v-.286l.317.317c.175.175.621.316.993.314l.674-.004-.353-.224-.353-.224.412-.158.413-.158.212.38.212.378.315-.505.316-.505-.455-.025c-.503-.027-1.38-.035-3.365-.03-2.005.005-2.045.005-3.108.03l-.993.024-.004.314-.004.314-.194-.277c-.107-.153-.488-.296-.848-.32l-.653-.04-.227.318-.226.319-.135-.33c-.21-.52-.619-.388-.619.2v.53l3.837-.033 3.836-.033zm-44.45-.114v-.199l-16.338.067c-8.986.036-20.386.097-25.334.136-4.948.038 2.404.097 16.338.132l25.334.062zm30.827-2.514c.092-.618.13-1.66.082-2.315l-.085-1.19-2.226-.078-2.227-.078-.217.342c-.26.41-.3 4.015-.049 4.267.097.097 1.162.176 2.365.176h2.19zm1.717-.727v-.53h.529V216.6H190.11v-.594l.379.315.38.315.876-.084.878-.085v-1.323l-.878-.084-.877-.084-.356.296-.356.295-.171-.277-.172-.278h-2.35v1.588H188.523zm15.293.211.317-.317v.635h1.058l.017-.596.017-.595.24.595.239.596h.81v-1.588h-2.38v.635l-.318-.317-.318-.318h-1.763l-.152.397a1.284 1.284 0 0 0 0 .794l.152.397h1.763zm-96.038-3.328.086-.603-3.526.074-3.525.074-.085.603-.086.603 3.525-.074 3.525-.074zm-92.822-6.342v-.33l15.941-.02c71.34-.08 145.865-.101 161.396-.043l18.72.07v.654H14.955Z" style="fill:none;stroke:#fff;stroke-width:.101;stroke-dasharray:none;stroke-opacity:1" transform="translate(-14.613 -204.876)"/><path d="M35.799 272.095a1.614 1.614 0 0 1-.518-.86l-.092-.529-9.717.045-9.717.045-.107-.177c-.059-.098-.18-8.214-.268-18.037-.09-9.822-.234-23.663-.322-30.758l-.16-12.898h196.391l-.167 9.062c-.091 4.984-.243 18.68-.337 30.437l-.17 21.375-.344.213-.345.213-1.982-.025-1.982-.024-.156.661c-.086.364-.338.87-.559 1.125l-.402.463H36.224Zm169.366-17.627c-.014-8.968-.103-16.96-.198-17.76l-.173-1.456-.793-.087c-.437-.047-.907-.196-1.045-.33l-.252-.244h-2.275v.529h-1.058l-.021.33-.021.331-.134-.33a.587.587 0 0 0-.508-.331c-.206 0-.375-.12-.375-.265v-.264h-2.249l.075 11.301.074 11.303-.305.736-.305.737h-2.846l-.002-7.607c-.001-4.184-.07-9.333-.153-11.443l-.15-3.837-.29-.595-.288-.595h-2.59l.047.463c.026.254.008 2.308-.039 4.564l-.086 4.1-.153-4.1-.154-4.101-.055 9.988-.056 9.988h.496l.106-.86.107-.86.042 1.272c.024.7-.09 1.8-.253 2.447l-.296 1.176H186.224l-.174-4.408c-.095-2.425-.173-7.637-.173-11.583v-7.175l-.533-.456-.532-.455h-2.11v22.72l-.258.678-.258.679h-2.924l-.009-11.444-.009-11.443-.51-.61-.509-.612-1.135.082-1.136.082.06.661.06.662-.17-.397c-.092-.218-.357-.542-.588-.72l-.42-.322-1.124-.008-1.125-.008v22.516l-.404.78-.403.781h-2.56l-.169-1.227c-.092-.675-.168-5.888-.168-11.583v-10.355l-.549-.47-.549-.47-1.105.08-1.104.08-.133 11.642-.132 11.642-.214.33-.214.331h-2.81l-.164-.992c-.09-.545-.17-5.754-.175-11.575l-.012-10.584-.351-.463-.352-.463h-2.455l-.05 1.919-.05 1.918-.095-1.522-.096-1.52h-.251c-.138 0-.252-.18-.252-.398v-.397h-2.669l.043.331c.024.182.03 5.6.012 12.039l-.031 11.707h-3.44v-23.283h-.265c-.145 0-.264-.178-.264-.397v-.397h-2.646l-.004 11.444c-.002 6.293-.074 11.704-.16 12.023l-.155.58-.7.082a8.45 8.45 0 0 1-1.561-.014l-.86-.096v-22.59l-.33-.712-.331-.713-1.247-.002-1.246-.002-.077 11.917-.076 11.916-.305.188c-.167.104-.97.148-1.786.098l-1.481-.09-.004-11.42c-.002-6.28-.075-11.686-.163-12.013l-.16-.596h-2.584v1.042l-.397-.152c-.218-.084-.397-.318-.397-.52v-.37h-2.58l-.165.827c-.09.455-.165 5.872-.165 12.039v11.212h-3.44v-23.284h-.264c-.146 0-.265-.178-.265-.397v-.397l-1.257.002-1.256.002-.331.713-.33.712v22.648h-3.44v-23.283h-.265c-.145 0-.265-.178-.265-.397v-.397h-2.32l-.137.53c-.077.29-.269.529-.428.529h-.29V234.59h-2.584l-.16.596c-.087.327-.16 5.733-.162 12.013l-.004 11.417-1.285.092c-.707.05-1.481.053-1.72.006l-.435-.085-.004-11.424c-.002-6.283-.075-11.692-.163-12.02l-.16-.595H108.15l-.16.596c-.087.327-.16 5.737-.163 12.021l-.004 11.427-.86.083a10.09 10.09 0 0 1-1.72-.012l-.86-.096V235.95l-.257-.68-.258-.678h-2.351l-.286 1.336-.287 1.336V258.624l-.26.088c-.145.049-.918.048-1.72-.002l-1.46-.09V234.59H94.942l-.29.595-.29.595-.179-.595-.177-.595-1.226.002-1.226.002-.33.712-.332.712v22.595l-1.124.093c-.619.051-1.392.055-1.72.008l-.595-.085-.004-11.424c-.002-6.284-.075-11.693-.163-12.02l-.16-.596h-2.584v.284c0 .156-.178.462-.396.68l-.397.397v22.716h-3.44l-.004-11.443c-.002-6.294-.075-11.711-.163-12.039l-.16-.595H77.43l-.252 1.125-.252 1.124-.06-.794c-.032-.436-.04-.942-.016-1.124l.043-.33h-2.669v.396c0 .218-.12.397-.265.397h-.265v23.232l-1.285.092c-.706.05-1.48.053-1.72.006l-.434-.086-.004-11.423c-.002-6.284-.075-11.692-.163-12.02l-.16-.595H67.8l-.352.463-.351.463-.009 9.95c-.004 5.471-.085 10.68-.178 11.575l-.17 1.626h-3.1v-1.323h1.588l.02-.33.022-.331.133.33c.073.182.302.331.508.331h.375l-.063-10.914-.063-10.914-.072 10.253-.073 10.252h-1.978l.05-10.252c.028-5.64-.012-10.103-.088-9.92l-.14.332-.241-.15c-.133-.082-.242-.44-.242-.795v-.646l-1.257.002-1.257.002-.33.712-.331.712v22.649H57.08l-.16-.419c-.089-.23-.142-.914-.118-1.52l.042-1.104.107.86.106.86h2.649l-.084-.595-.085-.596-1.124-.08-1.125-.082.03-4.946c.015-2.72.104-7.342.198-10.27l.17-5.325-.328.126-.328.126-.073 9.829-.072 9.829-.063-10.385-.063-10.385h-2.589l-.178.463-.179.463-.26-.463-.26-.463h-2.09l-.53.529-.528.53-.003 10.516c-.002 5.785-.078 10.97-.17 11.522l-.165 1.004-1.485-.078-1.485-.078-.045-1.059-.046-1.058.131.463c.177.623.475.583.968-.132l.41-.596-.126.53-.127.529.74.024.741.024.03-10.806.03-10.806h-.457v20.405l-.94-.082-.94-.082-.038-10.187-.038-10.186-.157 3.836-.158 3.837-.059-3.704c-.032-2.038-.13-3.972-.218-4.3l-.16-.595-1.093.006-1.094.006-.592.457-.593.457-.069 11.51-.068 11.509-1.43.081-1.43.082-.22-.346c-.12-.19-.22-.644-.22-1.008v-.661l.195.264.194.265H42.34l.019-10.636.018-10.635-.217.134-.217.134v19.773l-1.19-.034-1.19-.034.058-6.098.058-6.098.148 5.953.147 5.953.008-10.054.008-10.054-.163 2.514-.164 2.513-.05-2.426c-.028-1.334-.123-2.614-.211-2.844l-.161-.418h-.779c-.428 0-1.122.177-1.542.394l-.763.395-.085 17.266-.084 17.267.209.463.209.463h5.025l.163-.426.164-.426.238.426.238.426h5.018l.163-.426.163-.426.239.426.238.426h5.05l.151-.576.15-.576.214.576.213.576h4.938l.317-.318.318-.317.317.317.318.318h4.551l.317-.318.318-.317.317.317.318.318H70.739l.121-.331.121-.33.351.33.35.33h4.551l.318-.317.317-.317.318.317.317.318h4.878l.12-.331.122-.33.35.33.351.33H88.201l.122-.33.12-.33.351.33.351.33h4.551l.317-.317.318-.317.317.317.318.318h4.971l.15-.576.15-.576.214.576.213.576h4.55l.495-.266.496-.265.164.265.164.266h4.965l.177-.288.178-.288.288.288.287.288h4.551l.318-.318.317-.317.318.317.317.318H123.126l.122-.331.12-.33.351.33.351.33h4.551l.317-.317.318-.317.317.317.318.318h4.592l.332-.4.331-.4.3.41.3.411 2.51-.077 2.51-.077.123-3.307.124-3.307.14 3.307.141 3.307 2.51.077 2.509.077.304-.415.303-.416.156.405.155.405h5.012l.178-.288.178-.288.288.288.287.288h4.89l.178-.288.178-.288.287.288.288.288h4.971l.15-.576.151-.576.213.576.213.576h5.06l.15-.39.15-.39.39.39.39.39h2.076c1.142 0 2.265-.073 2.495-.161l.419-.16.02-.435.021-.435.151.397c.26.68.664.785 3.016.79l2.283.004.343-.414.344-.414.231.414.231.414h4.507l.496-.266.495-.265.164.265.164.266h4.667l.343-.414.343-.414.232.414.231.414h4.672l.331-.4.332-.4.296.392.296.393 2.249.073 2.249.074.33-.231.331-.23zm-175.388 4.398.004-.33.194.277.195.277 1.124.074 1.125.073v-.834l-.596-.03a30.409 30.409 0 0 0-1.515-.019l-.92.012-.104.313-.105.313-.166-.268c-.174-.28-1.08-.396-2.746-.349l-.992.028v.794h4.498zm53.28-1.412c.066.158.13-.1.14-.572l.021-.86H80.97l.079-10.054.078-10.055h-.553v21.612l1.183-.18 1.183-.179zm7.305-.638v-.794h-2.249l.075-10.208.076-10.208-.274.17-.274.169v21.4h.794l.03-.463.032-.463.117.446.118.447.58.113c.318.062.668.128.777.148.109.02.198-.32.198-.757zm33.823-.17-.093-.492-1.056-.079-1.056-.079-.1-10.022-.1-10.022.894-.11.893-.108-.973-.043-.973-.042-.085 2.447c-.047 1.346-.052 6.221-.012 10.833l.073 8.386 1.118.081c1.29.094 1.6-.065 1.47-.75zm17.242.17v-.794h-2.117l-.033-6.284c-.018-3.456-.117-8.01-.218-10.12l-.185-3.837-.047 10.782-.046 10.782h1.852l.018-.463.018-.463.287.595c.38.79.47.751.47-.198zm-70.349.066.031-.463.121.463.121.463H73.164v-21.696h-.397V256.02l-.989.001h-.989l-.072-10.12-.073-10.12-.063 10.782-.063 10.782h.265c.146 0 .278-.209.295-.463zm29.338-.199v-.661H97.98l.16-.419c.088-.23.16-4.754.16-10.054v-9.636H100.153v9.834c0 5.409.055 9.778.123 9.71.097-.096.208-13.822.152-18.816l-.01-.992H98.33l-.142.23c-.199.321-.417 21.114-.224 21.307.087.087.674.159 1.305.159h1.146zm5.578.33.02-.33.134.33.133.332H107.296v-1.323h-1.125l-1.124-.002V235.7l-.199.122-.198.123v21.4h1.323zm6.06 0 .004.332h1.852v-1.323h-2.117l-.004-8.93-.004-8.93-.212-.335-.213-.335.086 9.728.089 9.992.002.265.257-.397.256-.397zm19.319-10.355v-10.713l-.199-.122-.198-.12v20.317h-.926l-.926.002.07-3.639c.04-2-.031-6.615-.157-10.253l-.228-6.614-.041 10.866-.041 10.867 1.323.06 1.323.061zm23.548-.148v-10.861h-.397l.077 10.186.076 10.187h-2.006l.07-5.887c.04-3.238-.033-7.792-.159-10.12l-.229-4.234-.039 10.735-.04 10.734 1.324.06 1.323.06zm9.013 10.2.018-.556.287.595c.158.328.388.596.512.596h.224v-1.46l-1.23.099-1.231.097.172-.448c.095-.246.172-4.844.172-10.216v-9.768l.86-.04.86-.04-.76-.113-.76-.113-.252.252-.252.252-.126 10.732-.125 10.731.807-.023.806-.023zm8.223.317.218-.344.004-10.352.004-10.353-.38-.315-.38-.315-.876.108-.878.108.993.042.992.043v9.768c0 5.372.072 9.956.16 10.186l.161.419h-2.041l.072-3.638c.039-2.001-.032-6.377-.158-9.724l-.23-6.085-.04 10.333-.04 10.333 1.1.065 1.1.065zm9.23-.344.01-.529.336.604.335.603.185-.184c.101-.102.184-.433.185-.736v-.552h-2.142l-.004-8.334c-.002-4.584-.093-9.168-.202-10.186l-.199-1.852-.045 10.903-.045 10.903.788-.056.789-.055zm5.83.066.019-.595.287.595.287.596h1.18l.153-.584c.195-.746.164-.769-1.056-.787l-1.02-.015-.088-8.78-.09-8.779-.212-.913-.213-.912.037 10.384.037 10.384h.331l.33.002zm8.714-.132v-.728h-2.08l-.13-10.01c-.071-5.507-.198-10.08-.282-10.165-.085-.084-.154 4.748-.154 10.739v10.892h2.646zm-174.16-2.91-.218-2.315.129-3.282.129-3.282-.23.239c-.127.132-.291.537-.366.9-.074.364-.072-.082.004-.992l.139-1.653h-2.376l-.155.618c-.085.34-.233 1.452-.327 2.472l-.173 1.854 1.027-.031c.564-.018 1.175-.125 1.357-.24l.33-.206V250.47l-.884-.11c-1.127-.14-1.387.036-1.617 1.097l-.187.86h2.653l.13.463c.072.254.213.998.313 1.653.167 1.089.317 1.588.479 1.588.034 0-.037-1.042-.157-2.315zm8.271-.404-.22-2.58.283-.751.283-.751-.222-.502-.223-.502.035-1.985.036-1.984-.37 1.058-.37 1.058.153-1.52.154-1.522H27.41l-.24.463c-.131.254-.321 1.326-.422 2.381l-.182 1.918h2.677v2.084l-1.204-.098-1.204-.098.08 1.24.08 1.238 1.13-.023 1.13-.024.111.553c.061.304.189 1.028.283 1.609.171 1.055.364 1.569.528 1.405.047-.047-.013-1.247-.135-2.667zm60.322-6.28c.022-4.728.03-9.221.019-9.985l-.02-1.39-.993.043-.992.042.883.109.883.108-.05 9.705c-.052 10.395-.054 10.248.117 10.077.062-.062.131-3.982.153-8.71zm23.527-8.86-.151-2.646.01 10.186.012 10.186.14-7.54c.077-4.147.072-8.731-.01-10.187zm10.274 8.334-.025-7.012-.167 1.588c-.092.873-.178 4.564-.191 8.202l-.024 6.614.216-1.19.216-1.19zM59.59 240.94l-.016-5.424-.18 4.365c-.099 2.401-.175 6.926-.17 10.054l.011 5.689.186-4.63c.102-2.547.178-7.071.17-10.054zm23.602 4.118c.035-5.244.01-9.477-.056-9.406-.066.07-.191 4.593-.28 10.05l-.16 9.922.217-.516.217-.516zm24.104.468c0-5.482-.045-9.917-.099-9.856-.054.06-.182 4.545-.285 9.966l-.188 9.856h.572zm34.064-5.067c-.043-2.719-.078-.42-.078 5.11s.035 7.755.078 4.944c.043-2.81.043-7.335 0-10.054zm4.536 5.177-.03-9.856-.207 1.058c-.114.583-.17 1.654-.126 2.382.045.727.092 4.686.104 8.797.013 4.111.083 7.475.155 7.475.073 0 .12-4.435.104-9.856zm2.079-5.177c-.043-2.719-.078-.42-.078 5.11s.035 7.755.078 4.944c.043-2.81.043-7.335 0-10.054zm16.992 2.597-.14-7.54-.012 10.054-.012 10.054.152-2.514c.084-1.382.089-5.906.012-10.054zm17.404-2.597c-.043-2.719-.078-.42-.078 5.11s.035 7.755.078 4.944c.043-2.81.043-7.335 0-10.054zm13.493 0c-.043-2.719-.078-.42-.078 5.11s.036 7.755.078 4.944c.043-2.81.043-7.335 0-10.054zM48.69 234.021c1.164.004 3.394.068 4.955.142l2.838.133.154-.25.154-.25h3.907l.163.265.164.265h2.054l.163-.265.164-.264h4.202v.529H69.989v-.529h4.234v.529h2.35l.164-.265.164-.266.495.266c.273.146.98.265 1.572.265h1.075v-.529h4.202l.164.264.164.265h2.319l.163-.265.163-.264H91.39l.164.264.163.265h.928c.51 0 1.151-.12 1.424-.265l.495-.266.164.266.164.265h2.306l.088-.25.089-.25 1.93-.055 1.931-.055.305.305.305.305h1.967l.088-.262.088-.262 1.644-.172 1.644-.171.662.433.662.434H110.365l.328-.328.329-.329 1.51-.134c2.731-.244-33.237-.31-55.64-.102l-21.96.203 1.19.197 1.191.196 2.935-.152 2.935-.153.505.305.504.305 1.191-.16c.655-.088 2.143-.157 3.307-.152zm68.578.016.29-.29.54.29c.297.159.875.286 1.285.283l.745-.006.594-.457.593-.457h-7.103l.42.463.418.463H116.98zm17.325 0 .54-.29.29.29.289.289h1.946l.317-.382.317-.382-3.483-.08c-3.74-.088-4.117-.028-2.98.476.938.415 2.075.448 2.764.079zm23.284 0 .54-.29.289.29.29.289H160.94l.33-.397.329-.397-3.803.04c-2.091.022-3.475.089-3.075.15.4.06.728.221.728.357v.247h.943c.519 0 1.187-.13 1.484-.29zm17.467-.003.546-.292.192.31.191.31 1.032-.084 1.031-.085v-.529l-3.572-.034c-1.964-.019-3.274.021-2.91.089.364.067.774.231.913.364.347.335 1.916.305 2.578-.05zm29.45-.232 1.323-.208-6.35.008-6.35.008 1.501.16c.826.09 1.571.232 1.657.318.204.204 6.507-.016 8.22-.286zm-72.229-1.861.175-.282-.648.162-.648.163-.16-.417-.16-.416h1.245l.16-.596c.234-.875.193-3.98-.058-4.376l-.217-.34-2.491.076-2.491.076-.08 1.982c-.043 1.09-.01 2.25.072 2.58l.15.598h1.225v.817l-1.589-.078-1.588-.078-.103-.31-.102-.31.61-.087.61-.086.165-1.191c.177-1.278.123-3.638-.089-3.85-.07-.07-1.172-.135-2.448-.145l-2.32-.017-.244.244-.244.244.077 2.358.077 2.357.595.084.596.085v.757h-3.705v-.53l-.595-.043c-.327-.023.06-.113.86-.198l1.455-.155.076-2.59.076-2.59-2.59.077-2.589.075v5.028l.86.082.86.083v.76h-3.704v-.264c0-.146-.209-.281-.463-.302-.255-.02.013-.11.595-.199l1.058-.16v-5.028H109.81v5.028l.595.084.596.085v.756h-.53c-.29 0-.529-.102-.529-.228v-.228l-.595.062c-.776.081-.785.087-.605.38l.154.249 11.748.022 11.748.022zm5.827-1.389c.082-.329.115-1.49.071-2.58l-.079-1.98-2.58-.076-2.58-.076-.038 1.002c-.058 1.506.06 3.866.206 4.101l.129.208h4.72zm5.82 0c.083-.329.115-1.49.072-2.58l-.08-1.98h-5.026l-.078 2.226c-.042 1.225-.016 2.386.058 2.58l.135.353h4.769zm5.814-2.04v-2.506l-1.19-.216-1.192-.215-1.389.16-1.389.162v2.45c0 1.348.084 2.535.186 2.637l.186.185 2.394-.075 2.394-.076zm5.82-.007v-2.513H150.82l-.077 2.227c-.043 1.224-.015 2.39.062 2.59l.139.362 2.452-.076 2.452-.076zm-103.518 2.143.463-.026v-1.323h-3.44v1.5l1.258-.063c.69-.034 1.465-.074 1.72-.088zm5.98.004.356-.226-.095-.498-.095-.497-1.783-.078-1.783-.079v1.319l1.257.099c.691.054 1.376.118 1.521.142.146.024.425-.058.622-.182zm5.397-.012.463-.019v-1.347l-1.761.079-1.762.078-.074.514c-.041.282-.011.617.067.743l.141.229 1.232-.13c.677-.07 1.44-.137 1.694-.147zm6.12-.373c.076-.292.078-.63.004-.75l-.136-.218h-3.408v1.561l1.7-.03 1.7-.032zm11.185.255c.023-.018.083-.27.133-.562l.091-.53-1.786-.077-1.786-.079v1.592l1.654-.156c.91-.085 1.672-.17 1.694-.188zm-5.464-.574v-.674l-1.786.079-1.786.078-.085.595-.084.595h3.74zm11.225.232.169-.44-.235-.235-.234-.235-1.56.08-1.56.08-.085.596-.084.595h3.42zm5.708-.22v-.661h-3.44v1.323h3.44zm7.144 0v-.661h-3.44v1.323h3.44zm60.408.354c.814-.434 1.221-1.037 1.231-1.825l.008-.678-.536-.576c-.295-.317-.832-.65-1.193-.74l-.656-.165-.671.44c-.37.242-.785.738-.924 1.102l-.251.663.396.765c.64 1.24 1.524 1.585 2.596 1.014zm-1.565-.424c-.16-.107-.44-.477-.622-.823l-.332-.628.518-.695c.285-.382.72-.734.966-.782l.448-.088.649.424.648.425v1.494l-.483.437c-.509.46-1.3.564-1.792.236zm-52.81-1.848.08-1.39H102.798v1.28c0 1.583.09 1.674 1.577 1.577l1.2-.078zm-2.417 1.08c-.097-.097-.177-.573-.177-1.058v-.882h2.117v2.117h-.882c-.485 0-.961-.08-1.058-.177zm-58.9-1.553c.138-.084.25-.236.25-.337v-.182l-6.085-.007-6.086-.007v.187c0 .334 1.002.517 2.501.456.806-.032 1.53.005 1.61.085.188.188 7.486.006 7.81-.195zm-6.364-2.9v-.927h-5.292v1.852h5.292zm6.085-.09v-1.016l-.992.062c-.546.034-1.677.074-2.514.09l-1.521.027v1.852H44.06zm70.852-1.961.076-2.58h-5.311v2.47c0 1.358.083 2.553.185 2.655l.186.185 2.394-.075 2.394-.076zm5.82-.01.077-2.59-2.59.076-2.59.076-.077 2.227c-.042 1.225-.015 2.39.062 2.59l.14.362 2.451-.076 2.452-.076zm5.76 2.381c.157-.408.213-1.674.159-3.572l-.04-1.398-2.58.075-2.58.076-.078 2.227c-.043 1.225-.016 2.386.058 2.58l.135.352h4.796zm5.882-2.371.076-2.58h-5.046v2.47c0 1.357.084 2.552.186 2.655l.186.186 2.261-.076 2.262-.076zm6.01.066v-2.514l-2.542-.075-2.542-.076-.17 1.437c-.15 1.281-.062 2.554.245 3.553l.105.34 2.452-.076 2.452-.076zm5.82 0v-2.514l-1.19-.184c-.655-.101-1.803-.119-2.552-.04l-1.361.146-.16.8c-.241 1.204-.193 2.995.102 3.769l.262.688 2.45-.076 2.45-.076zm5.897-.066.076-2.58h-5.311v2.47c0 1.357.084 2.552.186 2.654l.186.186 2.394-.075 2.394-.076zm5.744 2.45.161-.262-.41.158-.41.158v-.41c0-.225.108-.477.241-.56l.242-.149.134.333c.074.182.143-.479.155-1.47l.02-1.801-.21.13c-.117.073-.367-.116-.556-.418l-.343-.55.593.155.593.155-.26-.26-.261-.261-2.357.077-2.357.077-.078 2.36-.077 2.358.342.217.342.216 2.167.004 2.167.004zm5.065-1.27c.189-.25.347-.786.352-1.193l.008-.74-.65-.649-.649-.649H158.526l-.612.575-.613.576v.726c0 .399.078.927.172 1.173l.172.448.809.34.809.34.651-.247c.358-.136.806-.451.995-.7zm-2.491.061-.588-.412v-1.475l.484-.438c.898-.813 2.188-.4 2.548.815l.176.59-.666.666c-.773.774-1.144.822-1.954.254zm-52.763-1.77-.08-1.39h-2.646l-.08 1.39-.08 1.388h2.966zm-2.433.705c-.089-.23-.16-.706-.16-1.058v-.64h2.116v2.117h-1.796zm103.424-3.682v-1.058l-1.253-.081-1.252-.08-.574.534-.573.534-.291-.18c-.16-.1-1.764-.187-3.564-.194l-3.274-.012-.13.342-.132.343-.357-.471-.358-.471-.008.363-.008.363-.375-.311-.376-.312-.27.478-.27.477-.373-.503-.371-.503-.197.317c-.107.175-.128.494-.045.71l.15.391 4.878-.044 4.878-.044-.132-.426-.131-.427.395.482.395.481.28-.481.28-.482.008.551c.012.818.25.936 1.717.85l1.333-.078zm-50.668.198v-.198l-16.338.066c-8.986.037-20.386.098-25.334.136-4.948.038 2.404.098 16.338.132l25.334.063zm-23.691-1.795.713-.935.575.849c.316.466.75.906.964.976l.39.128-.72-.855-.72-.856V215.235l.773-.774.773-.773h1.669l.807.806.806.807-.14 1.046-.14 1.045.239-.148.24-.148v-2.137l-.822-.768-.822-.768h-2.113l-.768.822c-.422.452-.767.952-.767 1.112 0 .16-.481-.21-1.068-.822l-1.069-1.112h-1.979l-.59.413c-.324.227-.77.763-.991 1.19l-.402.779h.271c.15 0 .271-.168.271-.374 0-.205.367-.681.814-1.058l.815-.685h1.517l.685.595.685.596.15.94.15.94-.712.846-.711.845h.257c.14 0 .577-.42.97-.935zm54.515-1.975v-2.249h-4.763l-.078 1.96c-.043 1.077-.016 2.124.062 2.325l.14.366 2.32-.077 2.319-.076zm-81.227.661v-1.322l-1.39-.08-1.388-.08v2.965l1.389-.08 1.389-.08zm-2.514 0v-1.19h2.117V217.392h-2.117zm9.414-.009-.163-.652h.595l-.159-.415-.158-.414.527.168.528.167v-.289c0-.159-.297-.402-.66-.54l-.659-.25-.465.165c-.965.342-1.897 1.511-1.07 1.341l.323-.066-.018.662-.018.661.78.058.781.057zm6.088.01-.166-.662h.523l-.145-.378-.145-.377.616.159.616.159-.354-.433c-.195-.238-.576-.503-.847-.589l-.492-.156-.807.418c-.444.229-.807.54-.807.69v.274l.237-.147.237-.146.151.395c.084.218.088.564.008.77l-.143.373.482.125c.266.068.645.138.842.155l.36.03zm5.865 0-.127-.662.427-.02.426-.022-.33-.133c-.183-.074-.332-.232-.332-.352v-.217l.53.138c.724.19.664-.087-.134-.61l-.663-.434-.773.32c-.426.176-.84.494-.922.706l-.148.387.261-.162.262-.161v.244c0 .373 1.06 1.639 1.373 1.639h.276zm5.971.487.174-.174-.328-.398-.329-.399.316-.106.316-.106-.162-.423-.162-.422.574.15.574.15v-.245c0-.135-.293-.379-.65-.542l-.65-.296-.786.326c-.433.18-.853.5-.935.712l-.148.387.242-.15.243-.15.183.579c.33 1.038 1.065 1.57 1.528 1.107zm23.86-.355-.169-.53h.671l-.318-.317c-.174-.175-.317-.42-.317-.545v-.227l.264.164.265.163v-.289c0-.372-1.072-.772-1.588-.593-.522.181-1.322.876-1.322 1.148v.215l.394-.151.395-.152.187.491c.287.75.695 1.13 1.224 1.142l.481.01zm34.263-.309v-.573l.198.198c.11.11.198.338.198.507v.309l.596.085.595.084v-.631l.38.315.38.315.876-.084.878-.084v-1.262l-.562-.208-.563-.208-.651.338-.651.338-.421-.308-.422-.308-.945.11-.945.11v1.53H188.523zm6.482.044c.207-.652.616-.7.566-.066l-.037.463 1.257.08 1.257.081.017-.61.018-.61.287.596.288.595h1.236l-.045-.727c-.057-.91-.406-1.39-1.012-1.39h-.468l-.152.396-.152.395-.67-.305-.67-.306-.63.287-.628.286-.315-.31-.315-.31-.344.466-.344.466-.32-.384-.318-.384-.371.142-.371.142.397.768.397.768h1.274zm6.218.212v-.318l.317.318.318.317h1.64l.318-.317.317-.318v.635h1.058l.036-.595.036-.595.117.61.117.612.572-.082.572-.082.069-.397c.037-.218-.038-.561-.167-.762l-.235-.365-.953-.076-.954-.076-.14.227-.14.227-.792-.276-.793-.277-.657.43-.656.431v-1.07H200.164v2.116H201.223zm-93.398-3.262v-.669l-3.506.074-3.506.074-.084.595-.085.595h7.18z" style="fill:none;stroke:#fff;stroke-opacity:1;stroke-width:.101;stroke-dasharray:none" transform="translate(-14.613 -204.876)"/><path d="M35.607 271.657a2.871 2.871 0 0 1-.278-1.141v-.622l-9.26.104c-5.093.057-9.56.029-9.928-.063l-.667-.168.018-14.678.018-14.678h.504s-.385-30.426-.795-30.426c-.145 0-.263-.178-.263-.397v-.397h196.311l-.119 1.125c-.19 1.806-.474 17.32-.557 30.493-.043 6.694-.154 14.671-.248 17.727-.093 3.056-.177 5.884-.185 6.284-.008.4-.114.728-.234.728h-.218l.152.397.153.396-.36.02-.359.018.53.227.529.227-.33.019c-.183.01-.332.145-.332.299v.28l.271-.167.271-.168-.172 1.078-.173 1.078h.299c.164 0 .298.127.298.283v.284l-2.382-.085-2.382-.085.001.578c0 .802-.46 1.935-.787 1.935h-.27v-.513c0-.283.118-.587.264-.677l.264-.164v-17.425c0-9.584-.072-17.614-.16-17.844l-.16-.418h-1.796v-.529h-2.646v.233c0 .129-.304.292-.676.363l-.677.13-.363-.363-.363-.363h-2.443l.15.992.148.992-.26-.595-.262-.596h-2.15l-.12.331c-.067.182-.152 5.183-.19 11.113l-.07 10.782h2.218l.181.293.182.295-.364.23c-.45.286-1.84.303-2.272.028l-.32-.203-.077-11.387-.077-11.388-.444-.444-.445-.443h-2.419l-.044 1.389-.045 1.389-.104-1.006-.105-1.006-1.24.08-1.24.08-.069 11.031-.069 11.032 1.24.08 1.238.082.098.297.098.297-.56.146c-.307.08-.967.08-1.466 0l-.907-.148-.03-8.63c-.017-4.747-.058-8.75-.092-8.896-.034-.145-.08-1.485-.102-2.976l-.04-2.712h-.397c-.218 0-.397-.12-.397-.265v-.264H182.702l-.062 11.575-.062 11.576-.136-11.113-.137-11.112-1.127-.082-1.127-.081-.131.346c-.072.19-.16 5.227-.196 11.194l-.065 10.848H182.04v.786l-.49.095c-.268.051-.893.018-1.388-.075l-.9-.169-.008-11.431-.008-11.431-.351-.463-.352-.463h-2.675l-.155.33-.154.331-.154-.33-.155-.331H172.648l-.05 2.844-.05 2.844-.148-2.381-.148-2.381-1.108-.08-1.107-.081-.283.528-.283.528.068 10.665.067 10.665 1.015-.096 1.015-.096.29.29c.413.412.232.499-1.262.603l-1.323.093-.132-11.565-.132-11.564-.53-.4-.529-.4-1.257-.007-1.256-.008-.031 1.521c-.017.837-.081 1.283-.143.992l-.239-1.124-.127-.596h-1.185c-.652 0-1.212.03-1.244.067-.033.036-.125 4.888-.205 10.781l-.146 10.716-.06-10.609-.06-10.609-.494-.57-.494-.57h-2.452v.398c0 .514-.5.514-.698 0l-.152-.397h-2.589l-.004 11.443c-.002 6.294-.075 11.711-.163 12.038l-.16.596h-2.848v-1.098l1.389.074 1.389.074v-22.201l-1.126-.082-1.125-.081-.223.61-.223.611.112 10.092.111 10.093-.284.175-.285.176-.008-10.797-.008-10.797-.352-.463-.351-.463h-2.455l-.027 1.124-.026 1.125-.184-.662-.184-.661h-2.622l-.07 11.112-.068 11.113 1.392-.034 1.392-.035.14-6.448.139-6.448.059 6.119c.032 3.365-.016 6.49-.107 6.945l-.165.827h-3.109l-.008-11.576-.008-11.575-.351-.463-.352-.463-.632-.012-.633-.012 1.059-.38 1.058-.382 1.654-.004 1.653-.004v.529h2.615l.164-.265.163-.264H155.156l.149.24.148.241 2.906.005 2.905.005.152-.246.152-.246h3.832l.293.293.293.294 1.281-.176a61.266 61.266 0 0 1 3.332-.313l2.05-.138v.517h5.822l.148-.239.147-.238h3.938v.58l1.389-.168a87.35 87.35 0 0 1 3.307-.311l1.918-.142v.622l1.39-.168a98.166 98.166 0 0 1 3.187-.313l1.798-.144.318.263.319.262 4.004-.073c2.202-.04 4.144-.16 4.314-.266l.31-.191.626.156.625.157-.117 6.02c-.064 3.31-.148 11.11-.187 17.33l-.07 11.311h.417l.046-7.739c.026-4.256.056-12.204.066-17.66l.02-9.923-85.593-.062-85.593-.062-.302.195-.302.194.204 12.303.205 12.303-.035-12.108-.034-12.107.45-.143c.248-.079 1.17-.013 2.048.146l1.596.29.556-.297.555-.298 1.763.165c.97.09 2.448.158 3.284.15 4.22-.037 5.592-.019 8.269.112l2.91.142.56-.288.558-.288 1.558.147c.857.081 2.134.225 2.839.319l1.28.17.294-.292.293-.294h3.567l.146.237c.08.13-.031.74-.249 1.356l-.395 1.12V258.696l-1.519-.08-1.518-.079-.094-.489-.093-.489 1.414.092 1.413.092-.014-10.848c-.008-5.966-.038-11.011-.066-11.212l-.052-.364-1.357.13-1.357.13-.13-.493-.128-.494h-2.497l-.311.596-.312.595-.064 11.377-.064 11.377-1.497.079-1.498.078-.181-.825c-.1-.454-.11-.896-.024-.983.087-.086.158.041.158.284v.44h2.941l-.213-.33-.213-.33v-10.716l-.002-10.716H57.157l-.143 4.101-.143 4.101-.055-4.564-.056-4.564h-2.455l-.352.463-.351.463-.008-.463-.009-.463h-2.72l-.351.463-.352.463-.009 7.012c-.005 3.856-.087 9.065-.182 11.575l-.173 4.564h-2.785l-.179-.812c-.098-.447-.108-.884-.02-.97.086-.087.157.04.157.283v.44h2.651l-.069-11.045-.069-11.047-1.01-.083-1.011-.083-.368.305-.367.305-.172-.685-.172-.685h-2.318l-.532.456-.532.456v10.355c0 5.695-.076 10.908-.168 11.583l-.169 1.227H40.11l-.274-.511c-.15-.282-.272-.669-.27-.86l.004-.348.195.277.194.278 1.19.045 1.191.044v-22.076l-1.047-.085-1.048-.085-.341.466-.342.467v-.696c0-.985-2.6-1.128-3.189-.176l-.176.285-.13 17.37-.13 17.37.202.666c.112.367.213.517.226.336l.022-.331H41.31l.287-.288.288-.287.178.287.177.288h4.89l.288-.288.288-.287.177.287.178.288h4.97l.238-.426.238-.426.164.426.163.426h5.308v-.635l.318.317.317.318h5.186v-.594l.342.284.342.284h22.445l.318-.265.319-.264.165.268.166.268h10.664l.323-.268.323-.268.172.277.171.278h4.89l.318-.318.317-.317v.635h5.186l.318-.318.317-.317v.613l8.388-.001 8.388-.001.343-.285.344-.285v.576h11.096l.233-.417.233-.417.164.426.163.426h5.013l.171-.277.172-.278.323.269.324.268h5.26l5.26-.002.323-.267.322-.267.171.277.172.278H163.89l.238-.426.239-.426.163.426.164.426H169.632l.287-.288.288-.287.177.287.178.288h4.89l.288-.288.288-.287.177.287.178.288h5.229l.172-.278.171-.277.322.267.321.267 5.333.003 5.333.003.166-.27.167-.27.323.269.323.268 4.979-.002c4.492 0 5.496.074 5.154.385-.061.055-37.913.185-84.116.29-46.203.105-84.088.242-84.19.304-.102.063-.31-.12-.463-.405zm-3.652-12.447.463-.013v-.369c0-.462-.34-.58-1.918-.663l-1.257-.067v.634l-.33-.254-.331-.254-1.584.023-1.584.024-.085.444-.086.444.744.086c.611.071 2.519.06 5.968-.035zm-2.182-2.942v-.23l.354.136.354.136-.204-1.506c-.296-2.182-.367-4.035-.162-4.24l.178-.178-.164-3.201-.164-3.202-.238-.463-.238-.463h-2.306l-.192.463c-.106.255-.253 2.253-.327 4.44l-.134 3.978.296 2.195c.364 2.708.272 2.577 1.733 2.461l1.214-.096zm-8.45-.445.016-.727.254.633c.462 1.156.52.406.223-2.853l-.294-3.224.321-.387.321-.387h-.499l.11-2.183.11-2.183-.283-.727-.283-.728H18.96l-.14.463c-.077.255-.25 1.178-.386 2.05l-.246 1.588.2 4.234c.11 2.328.288 4.441.396 4.696l.197.463h2.325zm7.193-16.186 1.257-.02v-.689l-1.455.16-1.455.16-.199-.19c-.11-.106-1.21-.218-2.448-.25l-2.249-.057-.475.202-.475.201-1.19-.134-1.19-.134.099.3.099.3 2.889.264 2.89.264 1.322-.179a26.319 26.319 0 0 1 2.58-.198zm-4.879-2.467.082-.992H18.66v2.137l2.448-.077 2.447-.076zm6.892-.03-.038-1.094-.19 1.058c-.2 1.124-.352 1.014-.272-.198l.048-.728H24.746v.882c0 .485.083.966.186 1.068l.186.186 2.724-.04 2.724-.04zm-4.196-2.849v-.494H22.1V234.876l2.116-.046 2.117-.045zm106.238-2.36.178-.286-.195-.18-.195-.182-.119.33c-.065.183-.286.332-.493.332h-.374v-.794h1.323V225.916l-.419-.16c-.23-.089-1.331-.16-2.447-.157l-2.03.004-.34.216-.342.217.077 2.491.077 2.492.595.084.595.085v.757h-2.854l-.146-.381-.146-.38.713-.083.714-.082.075-2.408.076-2.407-.38-.315-.38-.316-2.342.077-2.341.077-.076 2.712-.075 2.712H122.641v.794H118.994l-.147-.383-.147-.382 1.111-.08 1.11-.082.077-2.34.077-2.342-.315-.38-.316-.38-2.407.075-2.407.076-.076 2.712-.075 2.712h1.871v.793h-3.705v-.264c0-.146-.208-.283-.463-.304-.254-.022.073-.112.728-.199l1.19-.159.077-2.433.076-2.432-.473-.244-.473-.244-1.984-.04-1.985-.04-.35.231-.351.231-.147 1.097-.147 1.096h-3.106v.576l1.588-.09 1.588-.089.003.662c.002.363.075.929.163 1.256l.16.596h1.26v.793h-.38c-.21 0-.456-.119-.545-.264-.09-.146-.455-.265-.81-.265h-.646v.774l11.888.015 11.888.014zm17.64-2.06c.057-.678.052-1.868-.01-2.644l-.112-1.41-.561-.227-.56-.226.564-.017.564-.017.142-.728c.175-.892.025-4.18-.207-4.555l-.17-.273h-4.712l-.274.512-.273.511v1.848c0 1.016.072 2.036.16 2.267l.16.418.568.004.567.004-.662.335-.661.334v5.012l1.323.132c.727.073 1.937.092 2.687.043l1.364-.089zm-11.752-1.432-.075-2.712-2.341-.077-2.341-.077-.371.308-.37.308v2.304c0 2.826-.188 2.658 2.963 2.658h2.61zm5.878.092v-2.62l-.992-.263-.992-.263 1.001-.028 1.002-.027-.076-2.712-.075-2.712-2.341-.077-2.342-.076-.37.307-.371.308v4.747l.542.142.542.142-.542.505-.542.505v1.953c0 1.073.072 2.14.16 2.37l.161.419H144.337zm11.642.005v-2.615l-.595-.16c-.777-.207-3.74-.212-4.278-.005l-.419.16V231.151h5.292zm-103.055 1.557v-.661l-1.919-.078-1.918-.078v1.634l1.918-.078 1.919-.077zm5.688 0v-.794h-3.704v1.588h3.704zm5.689 0v-.661l-1.918-.078-1.919-.078v1.634l1.919-.078 1.918-.077zm5.688 0v-.794h-3.72l-.153.397a1.285 1.285 0 0 0 0 .794l.153.397h3.72zm5.557 0v-.794H71.84v1.588h3.705zm5.82-.012v-.805l-1.918.078-1.918.077-.084.728-.084.728h4.004zm5.557.012v-.794h-3.705v1.588h3.705zm5.772-.066.084-.728h-4.004v.618c0 .34.084.701.187.804l.187.187 1.731-.077 1.731-.077zm7.06.066v-.661l-1.918-.078-1.919-.078v1.634l1.919-.078 1.918-.077zm67.072-.794v-1.587h-3.175v3.175h3.175zm4.365 0v-1.455l-1.52-.08-1.522-.079v3.228l1.521-.08 1.521-.079zm4.366 0v-1.587h-3.165l.026 1.389c.035 1.803.018 1.786 1.7 1.786h1.44zm4.445-.066.08-1.521h-3.202v3.201l1.521-.08 1.522-.079zm4.286.066v-1.587h-3.175v1.41c0 1.739.026 1.765 1.764 1.765h1.411zm3.969 1.059.53-.53v-1.058l-.53-.53-.53-.528h-1.284l-.416.416-.416.415v1.376l.438.484.438.484h1.24zm-27.637-.385.65-.65V227.688l-.65-.65-.65-.65h-1.636l-.649.7-.649.701v1.439l.698.697.697.697h1.54zm-2.202-.292-.588-.412v-1.545l.692-.453.692-.454.697.39.697.389.081.826.081.826-.603.423c-.751.526-1.01.528-1.749.01zm-52.764-1.639-.08-1.52-1.18-.085-1.181-.084-.28.381-.278.381.098 1.225.097 1.224h2.883zm-5.41.075c.214-.559-3.799-1.027-4.594-.536l-.239.148.15.388.148.388h4.385zm-55.944-.523c.61-.377.233-.544-1.233-.548-.837-.002-2.862-.079-4.5-.17l-2.98-.164-.164.265-.163.265-1.429-.118-1.428-.119.094.287.094.287 1.567.153c2.036.198 9.768.093 10.142-.138zm6.44-.852-.33-.133v-4.226l.594.084.596.085.078 1.961.079 1.961-.343.233-.343.234.661-.078.661-.078-.082-1.984c-.045-1.092-.14-2.183-.21-2.425l-.126-.441.275-.17c.152-.094.276-.29.276-.435v-.265l-.265.164-.264.163v-.824l-.331-.032a2.51 2.51 0 0 0-.571.014c-.133.025-.966.062-1.852.082l-1.612.037.728.099.727.1v.493h-1.323v.591l.662-.126.661-.127v.456h-1.323v.794h1.588v-.265c0-.145.119-.264.264-.264h.265v4.497l.595-.02.596-.021zm7.324-4.77c-.026-2.72-.14-5.266-.253-5.659l-.204-.713.426-.427.427-.426h-.607l.023-.798c.012-.438-.056-.875-.15-.97l-.173-.172v.825l-.419.16c-.23.089-.587.161-.793.161h-.376l-.008-.595-.008-.596-.395.522-.395.522-.92-.079-.92-.08v.571h1.588V215.805l1.125.031c.618.018 1.213.018 1.322 0l.199-.031v10.848h-1.576l-.078-4.829-.079-4.828-.06 4.96-.06 4.962h2.412zm5.556.305c-.027-2.552.018-4.708.1-4.79.083-.083-.055-.371-.306-.641l-.457-.49-1.908.16-1.909.16v.452h1.323v1.058h.794v8.732h2.412zm-1.836 3.516c-.001-.473-.078-2.36-.17-4.194l-.168-3.335.766.027.765.028.073 4.167.073 4.167H61.787zm7.451-1.82-.092-2.813.288-.178.288-.178-.68-.68-.68-.68-.296.297c-.164.164-.571.297-.906.297h-.608v-.529h-1.884l.164.265c.09.145.454.264.81.264h.645v1.588h2.646V226.653h-1.588l-.035-1.654-.035-1.653-.185 1.323c-.102.727-.13 1.537-.063 1.8l.123.476 1.09-.08 1.09-.08zM75 225.395c-.024-.836.038-1.717.137-1.957l.18-.435-.51-.358-.51-.359-1.89.088-1.889.088v.486h1.588V224.008l.595.03c.328.016.715.058.86.092.146.033.414.08.595.101l.331.04V226.919h.557zm5.573-1.638v-3.16l.259-.16.259-.16-.323-.516-.323-.517-.796.002c-.438 0-1.421.077-2.185.169l-1.39.167v.455H77.6l.145.551.144.551.746-.05c.411-.027.926-.036 1.144-.02l.397.03v5.42l-.728.084-.727.084v-3.506l-.22.135c-.26.161-.408 2.963-.175 3.339l.161.261h2.086zm5.831 1.374c-.009-.983-.021-4.048-.028-6.813l-.01-5.027-.264-.264-.263-.264.079 4.497.079 4.497-1.178.027-1.177.026-.102.305-.101.304H81.896v.529H83.439l.099.296.099.297 1.113-.016 1.114-.015v3.407h.557zm5.858-.256.27-.325-.362-.362c-.2-.199-.539-.43-.754-.515l-.392-.154.463-.021.463-.021v-10.583h-.529v10.092l-.357.356c-.196.196-.702.396-1.124.444l-.768.088-.085.595-.085.595h-1.55v.53h2.116v1.058h.53v-1.323H91.173l.124.397c.068.218.207.605.31.86l.185.463.1-.925c.056-.509.222-1.071.37-1.25zm5.178 1.86-.463-.122v-6.519l.397-.152c.218-.084.575-.084.793 0l.397.152v6.514l-.33.133-.331.134.606.02.607.022-.037-3.688c-.02-2.028.04-3.811.133-3.963l.17-.276-.286-.535-.286-.534h-2.627V219.509H94.596v.6l1.058-.143 1.058-.142v7.094l.596-.031.595-.03zm-59.516-2.133.081-1.125h-5.322v1.014c0 .558.084 1.098.186 1.2l.185.186 2.394-.076 2.394-.075zm6.268.066v-1.059h-5.291l-.086.75c-.047.413-.02.923.061 1.134l.148.385 2.584-.076 2.584-.076zm123.429.479 3.571.008.213.286.213.285-.084-.529-.084-.53H163.79l-.084.53-.084.53.213-.294.213-.294zm-52.543-2.225c-.012-1.251-.098-2.472-.19-2.712l-.168-.437h-4.76l-.274.512-.274.511v1.848c0 1.017.074 2.04.164 2.275l.164.428 2.68-.075 2.68-.075zm5.92-.102.078-2.376-.458-.336-.459-.335h-1.912c-1.052 0-2.1.072-2.33.16l-.42.161v2.441c0 1.343.084 2.525.186 2.627l.185.185 2.527-.075 2.527-.075zm5.821.035.077-2.34-.308-.372-.307-.37h-2.063c-1.134 0-2.25.072-2.481.16l-.419.161v2.441c0 1.343.084 2.525.186 2.627l.185.185 2.527-.075 2.526-.075zm5.877-.03v-2.504l-.512-.274-.512-.274h-1.588c-.873 0-1.893.116-2.266.258l-.679.258v2.344c0 2.869-.189 2.696 2.955 2.696h2.602zm5.82-.114v-2.617l-.418-.16c-.23-.089-1.338-.161-2.46-.161h-2.043l-.317.317-.318.318v2.284c0 2.802-.185 2.637 2.955 2.637h2.601zm17.671.036.076-2.45-.688-.262c-.759-.289-3.356-.346-4.292-.096l-.596.16V225.35l2.712-.076 2.712-.075zm4.386 1.504.698-.548v-1.912l-.576-.612-.575-.612h-.726c-1.351 0-2.357.962-2.357 2.256v.43l.774.773.773.774h1.292zm-2.154-.392-.588-.412v-1.528l.588-.411c.774-.543 1.349-.52 1.884.072l.438.483v1.384l-.588.412c-.323.226-.713.412-.867.412-.153 0-.544-.186-.867-.412zm-52.764-1.785.08-1.535-1.535.08-1.535.08-.082 1.155c-.046.635-.018 1.326.063 1.535l.146.38 1.392-.08 1.392-.08zm-15.648-3.765c-.057-2.843-.179-5.244-.271-5.336l-.168-.168v10.672h.542zm-14.99-.785v-4.63h-.53v9.26h.529zm131.71 1.653.08-1.256H203.934l-.274.33-.275.331-4.675-.03-4.675-.029-.138.36c-.19.495-.61.455-.61-.058v-.42l-.332.111-.33.11v1.279l2.778.002c1.528.001 3.332-.065 4.009-.148l1.23-.15.605.224.603.224.415-.184c.227-.1.553-.162.724-.135l.31.049.122-.47.122-.47.031.683c.043.963.234 1.07 1.74.983l1.334-.078zM44.47 216.797l.013-3.374-.087 3.303-.086 3.302-5.945.08-5.946.078 6.02-.008 6.019-.008zm111.774 2.174a.26.26 0 0 0-.264-.256c-.146 0-.265.13-.265.288v.288l-25.069-.049c-13.788-.027-25.188-.008-25.334.041-.145.05 11.047.15 24.871.224l25.135.135.463-.208c.255-.114.463-.323.463-.463zm-39.611-1.117c-.3-.326-.628-.87-.731-1.209l-.187-.614.3-.724.3-.724.757-.447c1.372-.81 2.666-.33 3.324 1.235l.345.82-.413.8c-.227.439-.603.943-.835 1.12l-.423.323.467.008.467.008.525-.86c1.42-2.33-.683-4.988-3.245-4.102l-.728.252-.529.742-.528.742v1.862l.694.826c.382.454.76.76.839.68.08-.08-.1-.411-.4-.738zm-5.85-.016c-.793-.843-.73-1.104.073-.301l.65.65h.69c.844 0 1.601-.381 1.803-.906l.15-.39-.384.146c-.21.081-.383.254-.383.384s-.134.236-.297.236h-.297l.327-.394.328-.395-.117-.796-.117-.796h.351c.886 0 .086-.931-1.153-1.342l-.745-.246.926.132.926.132.596.677.595.676v1.518l-.685.814-.685.814h.828l.41-.625.41-.626.035-.944.036-.944-.44-.67c-.48-.733-1.213-1.202-2.144-1.37l-.602-.11-.897.604-.896.604-.35.727-.35.727.165.748c.179.816 1.038 1.879 1.517 1.879h.3zm11.763.064-.697-.548v-2.296l.814-.685.814-.685h1.274l.824.737.824.737v2.08l-.754.603-.754.603.445.001.445.001.548-.768.547-.769v-1.656l-.451-.689-.451-.688-.838-.35c-1.34-.627-.815-.575-2.044-.014l-.87.364-.481.734-.481.734.14 1.043.14 1.042.46.509c.253.28.636.508.851.508h.392zm6.159.21c-.59-.454-1.036-1.365-1.036-2.122v-.643l.549-.697c.301-.383.653-.697.782-.697.128 0-.072.304-.444.677l-.676.676.386.448c.213.246.454.723.536 1.058l.149.61-.42-.345-.418-.346.13.397c.072.218.44.571.819.785l.688.388.746-.263.745-.262-.027-1.184-.028-1.184.282-.182.281-.182-.493-.546c-.271-.3-.407-.545-.301-.545.274 0 .812.575 1.177 1.257l.313.584-.167.733-.166.733-.7.594-.7.594.404.001.404.001.736-.838.736-.839.51.839.51.838h.848l-.685-.814-.685-.814v-1.517l.634-.737.633-.736h2.229l.633.736.634.737v1.5l-.55.624c-.302.343-.491.504-.42.357.07-.146.037-.767-.075-1.379l-.204-1.113.294-.124.293-.125-.624-.547c-.969-.846-2.948-.229-2.948.92v.37l.397-.153.397-.152v1.58l.404.334c.221.184.348.39.282.456-.067.067-.389-.128-.715-.432-.327-.304-.662-.484-.745-.4-.084.083.142.39.5.68l.653.53.865-.102.865-.1.075.225.075.227.421-.162c.48-.184.98-1.03 1.153-1.95l.118-.627-.404-.78-.405-.782-.872-.515-2.019-.236c-.4.166-.998.59-1.329.941-.682.726-1.178.818-1.393.26-.185-.485-1.253-1.19-2.024-1.339l-.593-.114-.878.367-.878.367-.414.801c-.551 1.066-.521 1.84.112 2.878l.524.86.467-.008.467-.008zm11.466-.256c-.306-.328-.631-.898-.723-1.268l-.166-.671.268-.705.268-.705.792-.41c.435-.224 1.045-.409 1.354-.409h.563l.773.774.774.773v1.57l-.499.615-.498.616.067-1.12.068-1.122-.28-.172-.278-.173.491-.172.492-.173-.575-.575-.576-.576h-1.264l-.547.463c-.301.255-.582.636-.625.848l-.077.385.371.012.372.012.025.837.025.838-.33-.275-.331-.274v.84l.463.237c.255.13 1.027.31 1.717.4l1.254.164.384-.59c.212-.324.447-.938.523-1.363l.138-.773-.4-.842-.399-.843-.583-.308a5.15 5.15 0 0 0-1.21-.426l-.626-.117-.747.386c-.41.212-.932.651-1.16.975l-.412.59v.885c0 1.267.68 2.42 1.435 2.433.134.002-.005-.264-.311-.592zm7.938.206.463-.09v.24c0 .131.18.239.4.239h.401l.54-.86.538-.86-.123-1.013-.124-1.012-.451-.499c-.249-.274-.861-.634-1.361-.799l-.91-.3-.785.325-.785.325-.522.734-.523.733v1.832l.542.688.54.688.849-.14c.466-.077 1.056-.181 1.31-.231zm-2.441-.53-.323-.389-.028-.966-.027-.967.851-.761.851-.76h1.274l.814.684.814.685v.758c0 1.683-.909 2.716-1.014 1.153l-.064-.953.332-.4.332-.4-.756-.651-.756-.65-.69.172c-.846.21-1.617.874-1.617 1.39v.385l.42-.161.418-.16-.116.33c-.064.182-.018.599.103.926l.22.596h-.236c-.13 0-.289-.15-.354-.331l-.118-.33-.206.191-.206.192.334.403c.184.222.276.404.203.404-.073 0-.278-.175-.455-.39zm7.876.658.608-.004.65-.65.649-.649v-1.636l-.65-.649-.65-.65h-1.37l-.65.65c-.357.357-.65.781-.65.943v.293l.49-.083c.532-.09.57-.024.57 1.008v.694l-.398-.33c-.535-.444-.505-.029.041.575.241.266.365.484.275.484-.09 0-.405-.26-.702-.58l-.54-.578v-1.97l.814-.685.814-.685h1.242l.814.685.814.685V217.153l-.7.649-.7.648h.835l.547-.768.547-.768v-1.944l-.76-.76c-.417-.418-1.055-.834-1.417-.925l-.658-.165-.946.396-.946.395-.442.855-.443.856.15.918.148.918.464.512.464.513.54-.145a5.46 5.46 0 0 1 1.146-.149zm-34.324-.278c.282-.15.512-.403.512-.561v-.288l-.44.363-.44.363.333-.625.333-.625-.121-.631-.12-.632h.36c.197 0 .36-.112.36-.25 0-.388-1.113-1.073-1.743-1.073h-.567l-.697.548-.698.549v.812l.411-.158.41-.157-.147.239c-.082.132-.025.565.127.962l.275.723-.406-.336c-.541-.45-.518-.041.033.567l.438.484h.638c.35 0 .868-.123 1.15-.274zm6.105-.246.625-.52-.353-.01-.353-.008.116-.331c.064-.182.013-.612-.115-.956l-.231-.626.402.154.401.154v-.256c0-.14-.238-.494-.529-.785l-.529-.53h-1.347l-.664.664-.663.664.165.267.164.266.247-.152.246-.152v.523c0 .288.082.741.182 1.008l.182.484-.447-.363-.446-.363v.282c0 .417 1.09 1.106 1.75 1.106h.572zm61.193.36.418-.16v-4.727l-2.447.076-2.448.077-.078 2.093c-.043 1.151-.017 2.252.058 2.447l.136.354h1.971c1.084 0 2.16-.072 2.39-.16zm-80.862-1.89-.08-1.522-1.143-.082-1.144-.082-.378.313-.377.313v1.114c0 1.415.063 1.467 1.777 1.467h1.424zm82.868.46v-.266l.522.326.523.326.293-.293.293-.292.764.288.765.289.773-.572.774-.572.14.538.141.537.608-.087.608-.087.334-.661.333-.662.004.578.004.577.463.128c.255.071.815.109 1.245.084l.782-.044.184-.661.184-.662.026.454.026.454.463.236c.255.13.91.25 1.456.266l.992.03v-.545l.288.178c.159.098 1.052.216 1.985.262l1.696.083.026-.709.026-.709.184.662.184.661H206.647l.086-.61.087-.61-.31-.373-.31-.373-2.025.03-2.026.031-.463.234-.463.234v-.812h-1.058v.635l-.318-.317c-.174-.175-.595-.318-.934-.318h-.617l-.155.404-.155.403-.301-.25-.302-.25-1.52.014-1.52.013v.525l-.33-.271-.33-.27-1.588.1c-1.823.114-1.735.113-3.307.037l-1.191-.058-.082.992-.082.992h1.09zm-80.698-3.15c0-.134.072-.432.16-.662l.16-.419h-7.464v.243c0 .134-.072.432-.16.662l-.161.418h7.465zm-37.399 44.626c-.082-.327-.165-5.893-.185-12.37l-.036-11.773h3.885l-.116.53c-.063.29-.156 5.856-.206 12.368l-.09 11.84h-3.102zm2.738-11.443-.132-11.113H70.651l-.07 11.033-.068 11.032 1.392.08 1.392.08-.133-11.112zm-2.176-.794.072-9.922H72.635v19.844h-1.72zm9.637 12.37.09-.464H83.154l.125-10.715.125-10.716-.234-.463-.234-.463h-.763c-.42 0-.95.072-1.18.16l-.42.161v7.425c0 4.083-.051 7.372-.115 7.308-.063-.063-.14-3.804-.169-8.312l-.054-8.197 1.823-.068 1.823-.068.365.237.365.237-.431.864-.431.864V258.668h-3.214zm6.808-11.1-.018-11.589-.214-.529-.213-.529.264-.33.265-.331h3.574l.29.348.29.35-.387.551-.387.552-.069 11.469-.069 11.468-1.654.079-1.653.079zm3.157-.15.095-10.785-.326-.393-.326-.393h-.74c-.407 0-.928.072-1.158.16l-.419.161v22.036H90.494zm-2.344-1.12v-9.922h1.852v3.53c0 1.94-.079 6.405-.175 9.921l-.175 6.393h-1.502Zm9.43 12.44c-.114-.3-.252-19.271-.175-24.148l.005-.33h3.673l.163.264.164.265h2.319l.163-.265.164-.264H108.09v.246c0 .135.267.298.595.36l.595.115-.565.036-.564.036-.2.596-.2.595-.087 10.451c-.048 5.748-.09 10.898-.096 11.443l-.008.992h-3.175l-.004-11.443c-.002-6.294-.075-11.71-.163-12.038l-.16-.596h-2.527l-.226.463-.227.463-.132 11.51-.133 11.51-1.488.078-1.489.078zm9.556-11.646-.069-11.113H104.782l-.069 11.113-.069 11.112h2.657zm-2.053-.794v-9.922h1.934l-.172 3.77c-.095 2.074-.173 6.54-.174 9.923v6.151h-1.588zm-4.63.728v-11.047l-1.048-.085-1.048-.085-.341.466-.341.467v21.33h2.778zm-2.25-.728v-9.922H100.153v19.844H98.3zm12.861 12.414c-.088-.23-.162-5.38-.164-11.443-.002-6.064-.074-11.286-.16-11.606l-.155-.581-.436-.116-.436-.116.463-.03c.255-.017.463-.15.463-.296v-.264h3.912l.124.33c.068.182.03.57-.085.86l-.21.53-.018 11.575-.019 11.576H111.32zm2.97-11.545.072-11.038-.712-.18-.713-.178-.69.243-.69.243-.07 10.709c-.038 5.89-.023 10.828.034 10.974l.102.264 1.297.001h1.298zm-2.337-.869v-9.922H113.646v19.844H111.793zm9.525 12.44v-.391l.672-.169c.369-.092 1.024-.097 1.455-.011l.784.156v-22.158l-1.201-.095-1.201-.096-.254.254c-.14.14-.27.617-.288 1.061l-.033.807-.204-1.323c-.112-.727-.286-1.526-.387-1.775l-.184-.452.63-.158c.347-.087 1.34-.122 2.207-.077l1.576.081.084.728.084.727h-.565v23.284h-3.175zm6.88-11.126V235.63l-.442-.675-.443-.674.376-.244.376-.244 1.985.068 1.984.068-.112.53c-.062.29-.186 5.827-.277 12.302-.09 6.476-.189 11.804-.218 11.84-.03.037-.769.067-1.642.067h-1.587zm3.175-.454V235.65l-.463-.034c-.255-.019-.8-.054-1.21-.079l-.747-.045-.218.41-.217.41.11 10.583c.061 5.82.108 10.643.105 10.715-.003.073.59.133 1.317.133h1.323zm-2.117-.441c0-5.227-.072-9.692-.16-9.922l-.161-.419h1.908v19.844H129.256zm9.206 12.347c-.03-.036-.128-5.364-.218-11.84-.09-6.475-.215-12.012-.277-12.303l-.112-.529 1.961-.079 1.961-.078.176.285.177.285-.221 1.514-.22 1.513.063 10.318.064 10.32-.21.33-.21.33h-1.44c-.792 0-1.464-.03-1.494-.066zm2.965-11.878v-11.018l-.33-.116c-.183-.065-.748-.107-1.258-.095l-.926.022-.132 1.72c-.073.946-.1 5.947-.06 11.113l.073 9.392h2.633zm-2.177-.447c-.04-5.214-.034-9.679.013-9.922l.086-.44h1.536l.072 9.921.073 9.922H139.323zm23.41 12.205-.596-.115v-.822l1.448.12 1.448.12.082-3.46.082-3.462.058 3.629.057 3.629-.511.274c-.517.276-.983.296-2.068.087zm-41.576-7.332c-.016-3.626.032-6.53.107-6.455.076.075.185 2.566.242 5.534l.105 5.397-.212 1.058-.211 1.058zm-80.961-4.057c.09-4.766.179-9.29.198-10.054l.035-1.39H42.015l-.102 10.054-.102 10.054-.926.001h-.926zm7.124-.53c.014-5.056.088-9.51.165-9.895l.14-.701.767-.113.768-.113v20.017h-1.864Zm10.146 8.777c.089-.23.16-4.695.16-9.922v-9.504h1.588v19.844h-1.908zm6.716-9.504.072-9.922H66.03l-.07 9.92-.072 9.921-.926.002-.926.002zm16.933 0 .072-9.922h1.924l-.174 5.6a391.76 391.76 0 0 0-.175 9.921v4.323h-1.72zm40.935 0-.003-9.922h1.726v19.844h-.86l-.86-.001zm24.04-.001-.039-9.92h1.799v19.843h-.86l-.86-.002zm6.787 1.628c0-4.563-.077-9.028-.17-9.922l-.17-1.627h1.915l.072 9.922.073 9.922h-1.72zm10.054-1.736v-10.031l.86.043.86.043.002 9.988.002 9.988h-1.724zm7.408 3.988c0-3.324-.078-7.848-.173-10.054l-.174-4.011h1.923l.072 10.054.072 10.054h-1.72zm10.076-4.011-.05-10.054h1.54l.19 6.548c.103 3.602.161 8.126.129 10.054l-.06 3.506h-1.7zm6.642-.002-.082-10.053H188.775l.072 10.055.072 10.054-.926-.002-.926-.002zm6.863 0-.1-10.053H195.403l.004 3.638c.002 2.001.08 6.525.173 10.054l.168 6.416h-1.8z" style="fill:none;stroke:#fff;stroke-width:.101;stroke-dasharray:none;stroke-opacity:1" transform="translate(-14.613 -204.876)"/></svg>