<svg xmlns="http://www.w3.org/2000/svg" xml:space="preserve" width="1631.601" height="781.812" viewBox="0 0 431.695 206.854"><path d="M230.264 65.094c.068-.173.176-.414.24-.534l.115-.219.205-.278c.23-.31.435-.538.732-.809l.2-.182.29-.194c.493-.33 1.277-.73 1.626-.829l.146-.042.26-.007.26-.008.352.045.352.044 18.813 4.21 18.812 4.209.163.106c.09.059.225.158.3.22l.138.112.16.2c.089.11.202.27.252.356l.24.413c.627 1.085.845 2.02.75 3.223l-.026.334-.131.446-.131.446-.139.29c-.076.159-.192.383-.258.498l-.119.21-.233.283a6.495 6.495 0 0 1-1.59 1.377l-.3.187-.227.08a3.463 3.463 0 0 1-.44.119l-.21.038-19.368-4.333-19.368-4.332-.176-.083-.177-.082-.19-.15-.189-.15-.176-.207-.177-.208-.295-.508c-.58-.995-.783-1.643-.796-2.54l-.003-.234.043-.375c.023-.207.066-.477.095-.6l.052-.226zm14.28 1.872c.303.069.777.181 1.052.25.276.067.517.125.536.127.019.003.088.016.153.031l.166.036.353.072.307.062.055-.01.056-.012.092.049.093.048.444.09.444.091.047-.014.047-.014-.312-.083a13.858 13.858 0 0 0-.657-.155c-.19-.04-1.037-.223-1.88-.409l-1.533-.338-.006.027-.006.026zm6.317 1.433.178.015.864.187c.475.103 1.093.241 1.373.307l.51.12.005-.026.006-.027-.721-.169a147.8 147.8 0 0 0-1.724-.388l-1.004-.22-.036.013-.037.013.204.08.205.08zm4.416.98.03.039 1.433.326 1.434.326.026.04.026.041-.146-.027-.27-.053c-.068-.015-.135-.02-.149-.01l-.024.015.037.01c.058.016.179.058.337.115l.144.053.064-.018.064-.018.011-.05.011-.049.045-.007.045-.006.315.088.316.089-.051.015-.05.015-.126-.046-.126-.046-.089.024c-.05.013-.092.034-.094.046l-.005.023.086.037c.048.02.508.131 1.024.246l.938.21.119-.008.118-.008-.09-.056a.668.668 0 0 0-.161-.073l-.072-.016-.01-.03-.01-.03.074.015c.083.017.328.012.359-.007l.02-.013-.143-.082-.143-.083-.36-.075c-.198-.042-1.381-.3-2.63-.574l-2.27-.497-.039.014c-.049.018-.054.048-.018.095zm7.188 1.583.887.203.033-.012.034-.011.12.051.12.051.106.01.105.009-.009-.027-.009-.026-1.121-.25-1.122-.25-.022.014c-.04.026-.006.035.878.238zm.182.673a66.589 66.589 0 0 1 2.29.411l.051.016.013-.025.012-.025-.3-.06-.86-.173c-.633-.128-1.989-.35-2.055-.336l-.044.009.157.044c.087.025.418.087.736.139zm4.628.667.06.045.316.046.317.047.486.12.485.12.074-.044.074-.043.034.052.033.053.05.01c.026.007.069.009.094.005l.045-.007.01-.046.011-.046.116-.008.116-.009.095.04.096.038.044-.035.045-.034-.022-.035a.472.472 0 0 0-.144-.09l-.123-.056-.292-.066a7.704 7.704 0 0 0-.716-.127l-.02-.001.012.077.01.077-.02.03-.02.03-.125-.008-.125-.009-.032-.041a.12.12 0 0 1-.023-.085l.009-.043-.074-.076-.073-.076-.308-.055-.308-.054-.052.014-.052.014-.017.078-.018.078-.06.022c-.08.028-.08.043-.008.098zm2.907.42.028.027.36.073.36.072.056-.016.056-.015-.034-.054-.035-.054-.353-.076a2.983 2.983 0 0 0-.401-.07l-.048.008-.009.039a.079.079 0 0 0 .02.066zm.673.35.025.038.519.117.518.116.088.042c.049.024.113.057.143.075l.056.033-.006-.04c-.003-.023-.046-.073-.094-.113l-.087-.071-.588-.142-.588-.142-.005.024c-.003.013.006.041.02.062zm.97.032.64.155.13.104.13.105-.043-.056a1.592 1.592 0 0 0-.197-.175l-.153-.12-.262-.08a9.77 9.77 0 0 0-.542-.143l-.28-.063-.036.023-.036.023.005.036.005.036zm-.17.988a.61.61 0 0 0 .161.12l.093.044.06-.023a.609.609 0 0 1 .195-.013l.133.01.01-.109a.37.37 0 0 0-.015-.154l-.023-.046-.228-.05-.228-.051-.106.065c-.059.036-.11.08-.114.098l-.007.033z" style="fill:#9b9b9b;stroke-width:.102752" transform="matrix(.80067 0 0 .73267 85.679 68.111)"/><path d="M230.432 65.03a.854.854 0 0 0 .077-.18l.02-.08.15-.244c.083-.134.18-.29.217-.347.105-.163.4-.496.615-.692a8.82 8.82 0 0 0 .274-.259l.078-.08.463-.287c.552-.342.929-.542 1.144-.608.086-.027.207-.072.269-.1l.111-.052.062.013a.71.71 0 0 0 .178 0l.117-.014.485.065.484.065 1.235.27c2.43.53 3.68.802 3.786.822.059.011.295.075.526.141l.418.121 1.092.228c.6.126 1.18.25 1.289.277.109.027.722.17 1.363.318l1.166.27.18.063.182.063.158.009.157.009.33.116.33.116.074-.018.075-.019.684.139.684.138.037-.012.036-.013.333.079c.183.043.405.095.492.114l.16.036-.046.017a.295.295 0 0 1-.131-.002l-.086-.019-.117.02-.117.019-.037.043-.037.042.041.035c.023.02.108.076.188.126l.147.091.222.065a2.9 2.9 0 0 1 .344.122c.066.032.129.052.139.046.01-.006.076.026.146.072l.129.084.806.177c.86.189.92.203 1.348.306.153.037.35.081.438.099.088.017.274.063.414.103l.254.071.023.045c.03.058.066.065.185.036l.097-.024.787.168 1.013.217c.124.027.374.088.555.137l.328.089.075-.04.074-.041.052.053.051.053.22.06c.12.034.369.096.552.138l.332.077.071-.01.071-.01.34.098c.187.054.424.112.528.129.103.017.241.045.306.062.167.044.388.093 1.155.253l.371.078.05-.027.048-.028.07.03.069.03.026-.038.026-.04.05.012.05.01-.008.039-.008.038-.06.005-.06.005.022.033.02.032h.173l.008-.037.008-.037.126.03.125.03-.07.01-.07.012.02.028c.01.015.044.042.074.06l.056.03.082-.052a.677.677 0 0 1 .142-.069l.06-.017.056.07.057.07.103.006.102.006.073.06.072.062.181.039.18.04-.048-.063-.048-.063.045-.007a.807.807 0 0 1 .186.025l.14.031.03.076.028.076.418.093.419.094.153-.006.154-.005.037.063.037.064.072.007.073.008.007-.061.007-.061.093.02.094.021.064.074.064.074 1.87.416 1.87.415.056-.005.056-.005.378.111.377.111h.218l.025.033.026.033.303.06c.166.032.415.088.553.124.137.036.43.097.65.137l.4.071.247.085.248.085.112.085.113.084.023.104c.013.057.027.136.03.176l.008.073.028-.203.028-.202-.023-.193-.022-.192.024-.11.025-.11.095.041c.053.023.172.104.265.18l.17.14.16.245c.088.135.18.302.206.371a.96.96 0 0 0 .112.212l.065.086.014.094c.007.052.024.14.037.194l.023.1.088.09.087.092.007.054.007.055.113.1.113.1.061.207c.07.237.073.252.123.528.034.188.05.36.087.883l.014.198-.033.299-.034.299-.103.464-.104.465-.068.151-.156.352c-.048.11-.104.22-.124.242a.298.298 0 0 0-.051.11l-.015.067-.19.283a7.98 7.98 0 0 1-.377.51l-.185.225-.249.167-.248.168-.116.127a2.494 2.494 0 0 1-.57.452l-.21.132-.208.079a3.198 3.198 0 0 1-.396.118l-.189.04-7.98-1.775c-4.39-.977-13.1-2.918-19.355-4.314l-11.374-2.539-.186-.084-.185-.083-.2-.157-.2-.157-.148-.17-.149-.172-.2-.331c-.432-.71-.569-.999-.726-1.533a.967.967 0 0 1-.017-.438l.025-.117-.019-.143-.044-.344-.025-.2.03-.398.028-.398.092-.453.09-.453zm2.728-.262.077.012.118-.046.12-.045h.13c.18.001.643.067.97.138l.271.058.06.046.06.045.053-.027.053-.027 1.159.25c1.284.277 1.266.273 4.913 1.087a2000.663 2000.663 0 0 0 3.105.693l.331.075.025.026c.031.033.028.21-.007.381l-.027.134.013.114a.672.672 0 0 0 .032.154l.019.04.043-.023.043-.022.02-.092.02-.091-.027-.179-.028-.178.015-.108.015-.108.186.042.185.041-.033.118-.032.118.013.08.013.08.033.007c.019.004.052-.008.075-.025l.042-.033.047.01c.025.006.07.04.1.078l.055.067.09-.013.091-.013.062.058.061.06.086-.039.085-.038.056.058.056.057.132.014.133.013.026.05c.033.064.086.078.118.03l.024-.036.072.016.072.016.05.072.048.072.054-.05.053-.048.046.01a.231.231 0 0 1 .094.063l.049.053h.254l.045.07.045.071.05-.049.052-.049.046.01a.252.252 0 0 1 .103.08l.056.068.104-.024.105-.024.054.08.054.08.045-.04.044-.038.062.014.062.014.057.085.057.086.085-.054c.047-.03.101-.05.122-.046l.036.008.038.078c.045.094.066.101.16.05l.073-.04.078.077.078.076.073-.043c.09-.053.098-.05.18.04l.066.074.089-.053.089-.054.032.057a.423.423 0 0 1 .042.127l.01.07-.043.09c-.06.125-.066.162-.036.23l.027.06.041-.025.041-.026.049-.19.048-.192.049-.073.048-.072.052.1c.029.055.067.132.084.172l.032.071.037-.033.038-.033.023-.162c.013-.09.022-.24.021-.335l-.002-.173.144.014.144.013.095.056c.098.058.125.098.112.16l-.008.036-.058-.06-.058-.06-.06-.004-.06-.005-.038.103a1.205 1.205 0 0 1-.07.154l-.031.052.038.08a.253.253 0 0 1 .03.117.174.174 0 0 0 .016.091l.024.055.094-.03.095-.029.031-.216.032-.216.043.06.044.06.13.02.131.021.02-.093a.717.717 0 0 0 .016-.136l-.003-.042.102.014.102.014.01.087.01.088.028-.01c.015-.005.033-.038.041-.074l.015-.065.152.037.152.036-.079.01-.079.01-.01.048-.011.048.056.029c.043.021 1.804.421 2.724.618.066.015.31.07.543.125l.424.099.029.062.028.062.622.145.622.145.266-.01.267-.008.331.076.331.076.112.059.113.059.133.026.133.026.124.07a.97.97 0 0 0 .198.087l.074.017.076.062a.805.805 0 0 1 .114.115l.039.053.35.089.349.089.284.027c.307.03.426.054.697.144l.175.059.009-.04.009-.04-.036-.024-.035-.023.097-.067.098-.066.033.044.034.043.031-.031.03-.032.791.181c.684.157 1.474.347 1.63.394l.05.014-.042.033-.042.032-.075-.017a.422.422 0 0 1-.136-.062l-.061-.046-.074.02-.074.02-.127-.02c-.07-.013-.29-.05-.488-.086l-.36-.063-.088.022-.087.022-.082-.02-.082-.019-.058-.051-.059-.052-.188-.026-.189-.025-.106.072a.562.562 0 0 0-.133.117l-.026.046.044.07.044.069.061-.004a2.9 2.9 0 0 1 .301.025l.24.028.06.04a.446.446 0 0 0 .124.053l.063.014.04-.047.04-.046.232.052.231.052.034.033.034.034-.031.018c-.041.022-.305.021-.408-.002a.341.341 0 0 0-.136-.002.816.816 0 0 1-.184.012l-.127-.005-.069-.056-.069-.055-.048-.002-.049-.001-.014.066-.015.066.133.03a.761.761 0 0 1 .183.061l.051.033.126-.015.126-.015.17.055.168.055.087-.013.086-.013.268.048c.147.027.58.11.961.187.382.075.79.156.908.178.416.078 1.616.345 1.636.365l.02.019.162-.01.162-.01.113.042.114.042.058-.034c.08-.045.08-.067-.003-.135l-.07-.06-.105.004a2.43 2.43 0 0 1-.298-.02l-.193-.024-.01-.03-.011-.031.047-.024.046-.024.354.07c.194.04.39.07.433.069l.08-.002.032.05.032.052-.111.036-.111.036.004.032.004.032.066.015.067.015.034.045.035.045.101-.013.1-.013.024-.035.023-.035-.022-.043-.022-.044-.048-.01-.049-.011-.012-.036-.013-.036.033-.003a.88.88 0 0 0 .139-.046l.106-.042.222.042c.122.023.32.072.441.11l.22.066.03.046.028.046-.017.188-.017.188-.105.476-.106.477-.085.057-.085.057.116.044.117.045.03-.01.03-.01.976.224 1.4.32.424.096.125.075.124.076.038.066c.021.037.055.135.075.218l.036.15.059.066.058.066.095-.025.096-.025.033.022.032.021-.004.105c-.005.127.018.18.084.194l.05.012.064-.272.203-.861.139-.59.057-.04.057-.041.01-.132.01-.13-.029-.077-.028-.076.044-.248.043-.247.066.014.066.015.083.088c.092.097.119.11.155.074l.024-.024-.048-.081a.84.84 0 0 0-.158-.173l-.11-.09-.028-.136a.666.666 0 0 1-.017-.178 9.05 9.05 0 0 0 .002-.827l-.009-.144.026-.117.026-.117-.034-.1-.034-.1-.09-.064-.089-.064-1.192-.277c-.655-.152-2.35-.534-3.766-.85-1.415-.314-3.624-.807-4.908-1.094-1.285-.288-3.433-.767-4.775-1.064l-2.44-.542-.033.02c-.018.012-.057.016-.087.008l-.054-.014.066-.015c.082-.02.09-.047.028-.1l-.048-.042-.104.034-.103.033-1.48-.33-1.478-.332-.231-.019-.23-.02-.106.029-.106.028.067.044.067.044-.012.053-.012.052-.046.014-.047.014-.004.262-.004.261.038.12c.02.066.072.18.114.254l.076.135-.009.04-.009.038.068.1a.538.538 0 0 0 .112.126c.023.014.04.034.039.044l-.004.018-.593-.122a43.511 43.511 0 0 1-.738-.156l-.449-.105-.303-.071-.044-.038-.044-.039-.084.015-.085.015-.066-.045-.067-.046-.245-.026c-.255-.027-.308-.037-1.24-.246l-.929-.207a18.08 18.08 0 0 1-.476-.11 73.449 73.449 0 0 0-1.25-.267c-1.34-.279-1.036-.21-1.923-.431-.874-.217-.695-.178-1.766-.391l-.933-.188-2.624-.598-2.558-.582-.066-.045-.067-.046.013-.06.095-.502.083-.441-.035-.043-.035-.043-.1-.022-.101-.022-.03.059-.03.058.008.152c.004.084.011.191.017.238.005.047.008.19.006.315l-.003.23-.02.011a.236.236 0 0 1-.096.005l-.39-.036c-.173-.016-.42-.04-.548-.055l-.234-.026-.168.036c-.092.02-.223.063-.291.096l-.124.06v.045l-.001.045zm19.296 3.694c.086.01.317.047.514.083l.357.066.036.05.036.05.104-.004.105-.005.023.022c.03.03.02.063-.031.095l-.043.027-.555-.127-.555-.127-.082-.038-.081-.038.008-.035.008-.035zm9.336 2.055.135-.043.624.13.625.13.121-.033.121-.032.062.04.062.041.197.017.197.016.802.167c.44.091 1.054.209 1.362.26.309.053.675.117.815.144.14.026.28.044.311.04l.058-.007.04.047.042.047-.025.176-.024.175-.055.035-.055.035-.193-.043-.193-.043-.143-.064-.143-.063-.046.024-.046.023-.086-.055-.087-.054-.133.002-.133.003-1.166-.268-1.166-.267-.047-.041-.048-.042-.133-.022a.831.831 0 0 0-.206-.01l-.072.012-.447-.12a8.96 8.96 0 0 1-.471-.136.332.332 0 0 0-.127-.003l-.102.012-.177-.061-.177-.061-.003-.032-.003-.032zm.636 1.2c.026-.008.26.033 1.579.276l.834.155.04.026.04.026.053-.015.054-.015.224.08.224.082.102-.008.103-.008.06.047.06.048v.045l-.001.044-.065.003a.659.659 0 0 1-.139-.014l-.074-.016-.073-.06-.072-.06-.072.019-.071.02-.164-.039-.27-.063-.104-.026-.04.02-.04.021-.008-.048-.007-.049-.073.003c-.04.002-.283-.04-.54-.091l-.466-.095-.158-.008-.157-.007-.317-.07a2.59 2.59 0 0 0-.36-.062l-.045.006-.049-.041-.048-.042.008-.038c.005-.02.02-.04.032-.045zm-28.839-2.015c.012.003.09-.01.174-.028.083-.019.222-.04.308-.047.188-.016.163-.01.478-.133l.256-.1.206-.134.205-.133-.002-.072-.002-.072-.044-.023-.044-.022-.075.034-.074.035-.083-.018a.557.557 0 0 1-.165-.074c-.102-.07-.132-.066-.229.033l-.078.08-.073.01-.072.011-.08-.048-.082-.049-.114.005-.114.005-.034.04a.692.692 0 0 0-.075.143.672.672 0 0 1-.086.153l-.045.051-.039.174-.039.174zm1.106.931.06.03.094-.006c.052-.004.14-.005.196-.002l.102.005.042.066.042.066.064.015.063.014.074-.037c.087-.044.09-.037-.084-.171l-.136-.105-.09.024-.09.023-.084-.036-.084-.036-.106.019-.107.019-.009.04-.009.041zm1.76.358a.21.21 0 0 1 .093.042l.04.035.35.093c.192.052.378.1.414.106l.065.012.056.058.057.058.205.025c.114.013.261.038.329.055l.122.03.044-.034.045-.034-.042-.048a.222.222 0 0 0-.1-.061l-.058-.013-.006-.134c-.01-.223-.248-.408-.415-.322a.804.804 0 0 1-.216.016l-.177-.003-.02.13-.02.13-.097-.043c-.13-.058-.607-.197-.67-.196h-.05v.046l-.001.045zm2.573-1.014c.183-.005.503.202.5.325l-.001.083.041.01.041.008.024-.035.023-.036-.01-.1-.01-.101-.033-.008-.034-.007-.02-.072-.02-.07.028-.03.028-.028-.081.003a.806.806 0 0 1-.156-.013l-.075-.016-.027-.065-.027-.066-.036-.008-.035-.008-.105.077-.105.077.021.04.021.042zm.67.708.026.199-.075.194a3.47 3.47 0 0 0-.114.353l-.038.159.082.066.083.066.264.066.264.065.139.001c.077 0 .216-.015.31-.035l.172-.036.096-.061c.12-.077.226-.2.444-.516a2.8 2.8 0 0 1 .233-.305.568.568 0 0 0 .098-.12.64.64 0 0 1 .088-.116c.03-.03.07-.085.09-.122l.038-.068-.013-.037-.013-.036-.21-.045a8.096 8.096 0 0 1-.561-.153l-.352-.11-.02-.029c-.01-.016-.057-.038-.103-.048a.655.655 0 0 1-.155-.06 1.64 1.64 0 0 0-.257-.097l-.186-.056-.031.193-.032.193-.048.115-.049.114-.094.02c-.114.026-.107.005-.076.246zm.131 1.34c.012.01.155.055.32.099l.297.078.227-.036.227-.036.043-.069.043-.069.143-.063c.08-.035.18-.088.224-.118l.08-.054-.014-.02-.013-.022-.204.067a8.07 8.07 0 0 1-.622.188l-.15.036-.147-.004a1.976 1.976 0 0 1-.302-.04l-.156-.034-.009.038c-.005.02 0 .047.012.059zm1.707.237c.108.021.383.08.609.129.226.049.434.087.461.085l.05-.005-.015-.055c-.01-.03-.013-.068-.01-.084l.007-.028.08.018.079.017-.008.035a.107.107 0 0 1-.043.057l-.035.022.052.056.051.057.227.05.226.05.035-.013.035-.012.337.09.338.091.07-.008a.253.253 0 0 0 .113-.046l.045-.037-.013.059-.012.06.057.025c.031.014.95.233 2.043.487 2.437.566 2.082.488 3.328.735l1.05.208.048-.042.048-.042.024-.106.023-.106-.048-.12-.049-.119-.045.04a.212.212 0 0 0-.058.094.217.217 0 0 1-.047.088l-.034.035-.048-.048-.049-.047h-.079a.232.232 0 0 0-.12.03c-.021.018-.056.028-.076.024l-.036-.009.011-.05.011-.052-.059-.073-.06-.072-.128-.011-.128-.01-.053-.055-.054-.055-.045.016a.203.203 0 0 1-.094.006l-.049-.01-.055-.068-.055-.067-.084.022a.355.355 0 0 1-.126.013l-.042-.01-.015-.072-.015-.073-.034-.008a.067.067 0 0 0-.057.015.213.213 0 0 1-.077.039l-.056.015-.066-.086-.066-.087-.051.033a.28.28 0 0 1-.121.034l-.07.002-.048-.071-.048-.071-.078.016-.077.016-.092-.055-.092-.054-.085.012-.084.012-.068-.047-.068-.048-.084.015-.084.015-.045-.04a.349.349 0 0 1-.07-.086l-.024-.048-.087.023-.087.023-.028-.026a.741.741 0 0 1-.076-.092l-.047-.067-.06.034-.058.033-.05-.011-.048-.011-.049-.071-.048-.071-.059.033-.058.033-.068-.015-.068-.015-.024-.048-.025-.048-.116-.009-.116-.008-.041-.07-.041-.071-.07.029-.071.03-.06-.014-.058-.013-.027-.065-.027-.065-.07.03-.07.029-.06-.014-.06-.013-.03-.077-.029-.077-.065.044-.064.045-.067-.033-.066-.032-.03-.065-.031-.065-.072.03a.253.253 0 0 1-.125.018l-.052-.012-.049-.072-.049-.072-.086.028c-.116.037-.145.027-.213-.074l-.058-.087-.053.027-.053.027-.163-.032a6.557 6.557 0 0 0-.432-.063l-.27-.03-.03-.038c-.041-.054-.063-.141-.07-.288l-.006-.127-.025.1-.025.099-.076.016-.076.016-.069-.063a.355.355 0 0 0-.127-.076l-.058-.013-.112.057a1.947 1.947 0 0 1-.273.104c-.181.053-.484.19-.81.367-.12.065-.28.142-.353.172l-.133.054v.028l.002.028zm.615-1.096c.11-.051.304-.122.432-.158.513-.14.573-.177.458-.273l-.073-.06-.232-.068-.232-.068-.047.024a.498.498 0 0 0-.119.137c-.04.063-.12.179-.18.257-.25.335-.25.324-.007.21zm9.135-1.545.042.06-.025.114-.026.113.025.024.024.024.02-.013c.011-.007.031-.058.045-.114l.024-.1.047-.038.048-.036.072.034.073.033.046-.023c.025-.013.05-.04.054-.06l.008-.035-.047-.04-.047-.04-.064.018-.065.018-.04-.082-.04-.083-.054-.012a.141.141 0 0 0-.092.013l-.04.025-.015.07-.016.07zm.556.051.031.055-.05.093-.049.093.005.056.005.056.037.008.036.008.028-.049.028-.048-.005-.102-.005-.103.043-.043.043-.044.058.013.058.013.032.051c.037.058.037.064 0 .249l-.027.133.04.01.04.008.033-.149.033-.148.046-.036c.061-.047.103-.035.148.044l.036.064.159.017.158.017-.02.104c-.01.057-.02.14-.02.185v.08l.027.017.028.017.029-.057.029-.058v-.111l-.001-.111.07-.048c.038-.026.085-.044.104-.04l.035.008.03.08.03.08-.028.106-.028.106.016.058.017.059.052-.034.052-.033-.005-.113-.005-.114.066-.054.067-.054.047.01.047.011.037.066.038.067-.03.137-.03.137.04.01.04.008.024-.07.024-.07-.018-.063-.017-.063.057-.04.057-.041.042.01a.223.223 0 0 1 .091.073l.049.063-.017.077-.017.077.024.057.025.057.037-.013.036-.012v-.16l.066-.07.066-.07.032.007a.26.26 0 0 1 .07.033l.038.025-.031.14-.031.14.032.042.033.042.047-.024.047-.025.011-.05a.237.237 0 0 0-.01-.11l-.021-.06.04-.04.039-.04.087.01.087.011.03.039.03.038-.045.127-.044.128.047.01.047.01.015-.146.015-.147.046-.023.047-.024.037.024.037.025.011.075.011.075.036-.004.035-.003.025-.104a.711.711 0 0 1 .057-.157l.033-.054-.023-.089a.329.329 0 0 0-.05-.113l-.025-.025-.077.062-.076.061-.07-.09c-.085-.112-.101-.116-.175-.045l-.058.057-.045-.01-.046-.01-.047-.08c-.026-.045-.06-.084-.076-.087l-.03-.006-.058.076c-.032.041-.073.076-.09.078l-.034.002-.051-.123-.052-.124-.025.002c-.014.001-.048.04-.075.087l-.05.085-.062-.005-.062-.005-.025-.135-.026-.135h-.046l-.046-.002-.053.1-.053.099-.047-.002-.046-.001-.03-.12-.032-.12-.04-.009-.04-.009-.034.078-.035.079-.044.006-.043.007-.063-.12-.062-.12-.034.011a.073.073 0 0 0-.043.048c-.004.02-.032.052-.062.072l-.055.034-.052-.102-.051-.103-.047.007-.048.007-.011.05-.012.052-.045.007c-.08.012-.095-.002-.12-.108l-.023-.104-.042-.001-.043-.001-.031.076-.032.076-.058-.004-.058-.005-.038-.107c-.02-.06-.047-.11-.06-.113l-.022-.005-.029.07a.89.89 0 0 0-.043.174l-.014.104zm1.955 5.274.013.034.338.107c.186.06.388.12.45.133l.111.025.156-.013.156-.012.041-.062c.022-.035.064-.14.092-.236l.051-.174-.011-.033-.012-.033-.131-.03a7.221 7.221 0 0 0-.368-.066l-.238-.037-.057-.058a1.87 1.87 0 0 1-.14-.175l-.081-.116-.036.07a2 2 0 0 1-.143.214c-.142.19-.222.383-.191.462zm6.138-1.003c.032-.003.213.03.401.072l.342.077.05.055.05.055.173.037.174.038.06-.027c.073-.034.137-.022.171.032l.026.04.573.14c.848.208 1.04.25 1.758.387l.654.125.286.095c.157.052.315.101.351.109l.599.127.532.112.147.082.148.08.091-.01.092-.013.762.188c.922.227 1 .242 1.186.236l.146-.005.816.197.816.197.045-.04.045-.039.232.012.232.01.058-.032.057-.032.007-.07.007-.07-.083-.004a33.948 33.948 0 0 1-1.262-.271l-2.573-.58-1.392-.314-.18-.007-.179-.008-.17-.05a225.738 225.738 0 0 0-4.897-1.085l-.265-.061-.059.045-.058.045-.015.065-.014.066zm1.229 1.808.12.008.102-.055c.056-.03.171-.073.256-.095l.155-.039.032-.065.033-.065-.032-.032a.205.205 0 0 0-.084-.043l-.053-.012-.255.117c-.14.065-.312.142-.382.172l-.128.055.058.023a.8.8 0 0 0 .178.03zm9.63 2.947c.051.009.143.018.204.021l.11.006.026-.026a.607.607 0 0 0 .06-.179l.035-.153.05-.05.051-.05.097-.301c.054-.165.104-.328.112-.363l.014-.063-.025.016a.741.741 0 0 0-.091.172c-.114.263-.161.356-.21.412l-.047.055-.074-.035-.073-.034-.043.064a.593.593 0 0 0-.064.164l-.022.1-.098.058-.098.06-.004.055-.004.056zm.538-1.991c.013.049.02.107.015.13-.005.023.014.087.042.142l.052.1.036.008.037.009.041-.063.041-.062.05-.222c.027-.122.046-.242.042-.267l-.007-.045-.062-.014c-.034-.008-.066-.027-.072-.042l-.01-.028.031-.01c.032-.012.065-.112.038-.118a.789.789 0 0 0-.153.081l-.137.085-.004.114a.849.849 0 0 0 .02.202z" style="fill:#fff;fill-opacity:1;stroke-width:.102752" transform="matrix(.80067 0 0 .73267 85.679 68.111)"/><path d="M231.126 64.85c.025-.056.056-.146.07-.2l.023-.098.072-.075a.368.368 0 0 0 .083-.12c.013-.058.223-.332.307-.401.036-.03.127-.13.203-.222l.137-.168.302-.222c.167-.121.334-.233.371-.247.07-.027.406-.254.695-.469l.158-.117.203-.082.204-.083.197-.011c.202-.012.314.002.413.054l.057.03.022.083c.012.046.016.11.009.144l-.013.06.05.12.049.122-.068.346-.068.347-.075.065-.074.064.01.089.01.088-.031.142-.032.142-.095-.021-.094-.021-.065.016a.914.914 0 0 0-.178.086l-.115.069-.153.008a2.86 2.86 0 0 1-.256.002l-.101-.006-.001-.08a.374.374 0 0 0-.02-.12l-.02-.038-.069-.016c-.096-.02-.133-.002-.206.1l-.062.089-.026.117-.027.117.033.042c.018.023.029.057.025.075-.004.018.01.07.032.115l.04.082.091.02.092.021.095-.042.094-.041.202.051.202.052.08-.013.082-.014.052.041c.028.023.072.053.096.067l.044.026.024.114.023.115.07.102.07.103-.049.14-.049.14.045.049.045.048-.005.15c-.003.082 0 .242.006.356l.011.206-.035.027-.036.028-.143.565-.142.564-.058.082a.563.563 0 0 0-.076.167l-.02.086-.047.025-.047.024-.025.112-.025.113-.068.056a.26.26 0 0 0-.075.084l-.006.028-.113-.042-.113-.042-.108.095-.107.095-.017.074a.413.413 0 0 1-.041.111l-.026.039-.034-.008c-.018-.004-.052.007-.075.025l-.042.033-.073-.017-.073-.016-.04.03-.038.03-.004.092a.34.34 0 0 0 .015.128l.019.037-.066.072-.065.072-.09-.003-.09-.003-.093-.04-.092-.039-.109-.177-.109-.178-.039-.162c-.042-.177-.076-.254-.2-.456a.462.462 0 0 1-.072-.149c.016-.03-.217-.377-.32-.475-.024-.025-.035-.043-.022-.04l.023.004-.03-.083a.375.375 0 0 0-.062-.113c-.017-.016-.028-.041-.025-.056a.659.659 0 0 0-.023-.148l-.029-.122.02-.087.02-.088-.04-.062a.558.558 0 0 0-.078-.096l-.04-.036.046-.316c.05-.345.05-.368-.022-.384-.068-.015-.089-.069-.107-.273l-.016-.178.056-.298.055-.298zm2.496 5.036.07-.073.116-.046a.407.407 0 0 1 .16-.036c.026.006.055.001.066-.01.01-.01.061-.017.113-.014l.093.006.154-.066c.085-.036.268-.091.407-.122l.254-.057.09-.087a.41.41 0 0 1 .13-.093c.046-.007.317-.238.326-.279a.232.232 0 0 0-.007-.079 1.786 1.786 0 0 1-.023-.213.513.513 0 0 0-.033-.183l-.023-.023-.195-.01a3.264 3.264 0 0 1-.398-.052l-.203-.04-.134-.108-.133-.107-.002-.071-.002-.071.038-.09.039-.09-.041-.091-.04-.092.168-.608.17-.609.06-.478c.034-.264.074-.533.088-.598l.027-.12.125-.085.125-.086.112.025.111.025.044.043.045.043.06-.034.062-.035.104.041.103.041.096-.023c.11-.028.199-.013.32.055l.087.048.432.121.433.121.064-.037.064-.036.249.07.248.07.043.059.043.058.201.058.201.058.044-.028.043-.027.165.005.165.006.157.068.156.068.054-.014a.844.844 0 0 1 .206 0l.15.015.05.081.048.082.135.03.136.03.166-.02.166-.02.149.052.148.051.092-.024.093-.024.242.054.243.054.055.068.056.068.152.034.152.034.055.067c.03.037.083.086.118.109l.062.041.025.097c.014.054.04.11.057.127l.032.03-.015.064-.014.065.048.011.05.011.06-.042.06-.043.043.01a.127.127 0 0 1 .068.049l.025.039-.014.062a.387.387 0 0 1-.07.13l-.057.068.032.05.033.051.066.015a.304.304 0 0 0 .123-.001l.058-.016.02-.092.02-.092.05.01.049.012.06-.043.06-.042.03.04c.082.105.083.3.002.382l-.042.042.007.045.007.045.114.044.113.044.096-.026.096-.025v-.074c0-.041 0-.103-.003-.138l-.004-.063.05-.007.048-.007.137.067.136.066.094-.056.093-.057.091.038.174.071.083.035.113-.095.113-.095-.057-.064-.056-.064.014-.062.014-.063.03-.01c.017-.006.035-.035.042-.064l.012-.052.08-.051.079-.05.065.014.066.015.04.082.039.082-.033.149-.034.149.023.158c.012.087.03.17.04.186l.017.028-.055.187-.055.186.027.104.028.103.066.015.066.015.093-.155.092-.154.11-.044.111-.044.144.032.144.032.042-.032c.06-.046.09-.033.158.069l.06.088.1-.028.1-.028.06.062.06.062.037-.023c.053-.034.127-.012.205.061l.067.063.09-.03.088-.028.072.06.072.06.081-.039a.257.257 0 0 1 .117-.03l.035.007.024.089c.027.104.046.113.127.056l.06-.042.053.012.053.011.04.055.038.056.066-.016a.673.673 0 0 1 .13-.015h.063l.02.058.021.058.045.01c.025.006.056 0 .068-.013l.022-.023.064.015.064.014.016.06.017.059.035.008c.02.004.055-.007.078-.025.058-.044.106-.029.183.06l.065.075.074-.044c.041-.024.092-.04.112-.036l.037.008.044.087.045.086.05-.041a.377.377 0 0 0 .065-.067l.015-.025.065.033.065.032.002.07.002.071.053.012.053.012.04-.062.04-.06.047-.008.046-.007.05.084.048.083.04-.006a.106.106 0 0 0 .064-.04l.023-.035.072.016.071.016.039.054.038.054.085-.015.086-.015.085.054.085.054.084-.035.124-.052.04-.018.05.073c.068.099.29.04.318-.085l.007-.031.123-.047.122-.047.062.047.061.046-.029.076-.03.077.074.068.074.07-.012.134-.012.135.026.06.027.06.037-.024.038-.024.011-.063c.006-.035.02-.111.029-.17l.017-.108.052.012.052.011-.003.118-.003.117.046.04.045.039-.018.08-.017.079.036.024.037.024.05-.025A.283.283 0 0 0 251.4 70l.037-.057.111.033.111.034.013.061a.239.239 0 0 0 .055.105l.044.043.078-.054.078-.054.053.012c.029.006.057.025.063.04l.01.03-.078.068-.079.068.019.052.018.052.078.025.079.026.053-.033.052-.034.04-.1.04-.1.038.008a.28.28 0 0 1 .098.075l.06.066.141.045.141.044.073-.05.072-.05.08.018.08.018.029.069.028.069.06-.046a.276.276 0 0 1 .125-.051l.063-.005.058.071.058.071.065-.024a.512.512 0 0 1 .15-.024h.087l.007.045.007.045.146.015.146.015.05.043.05.043.106-.019.105-.019.089.02.088.02.095-.077.095-.076.067.015.067.015.125-.077.125-.076.122.027.12.027.02-.045.02-.044-.04-.009a.457.457 0 0 1-.123-.073l-.082-.064-.014-.069c-.008-.038-.028-.072-.043-.075l-.029-.006.042-.151.042-.151.277.07.277.071.02.033.021.032-.06.026-.06.027-.16-.035-.162-.036-.042.015-.042.016.007.05.007.049.09-.001c.05 0 .12.004.157.01l.067.012.006.092.006.092.028.006a.348.348 0 0 0 .12-.029l.09-.035.087.02.086.018.014-.063.015-.064.112-.037c.118-.04.208-.048.466-.044a.678.678 0 0 0 .199-.02l.043-.02.14.012.14.013.092.119.09.118.064.014c.035.008.117.014.182.014.065 0 .21.007.32.016l.201.015.038.078.038.079.076.016.076.017.024-.025.025-.025.078.035a.353.353 0 0 1 .122.094l.044.06.195.093.195.092.034.082c.018.045.036.111.039.146l.005.064.098.08.099.081.264.073.263.073.053-.033.053-.034.194.043.194.043.044-.016.044-.015-.03-.107-.03-.106-.043-.025-.042-.024-.063.017-.062.017-.031-.04c-.017-.022-.027-.057-.023-.077l.008-.037.074-.011.074-.01.151.033.152.034.065-.027.065-.027.024.047.024.047-.07.13-.07.131-.078.019-.079.019-.008.037-.008.038.07.033c.147.07.17.086.224.164l.055.08.57.115.57.115.222.005.221.004.152.034c.083.018.215.033.293.034l.142.001.077.055.077.054.198.048c.109.027.246.068.304.092l.105.043.068-.02.069-.018.377.063.378.062.023.03c.035.043.143.067.49.108l.312.037.304.071c.168.04.322.078.343.085.022.007.143.026.27.043l.23.03.273.086.273.085.05-.012.05-.013.29.051.383.067.094.016.085.058c.117.082.117.073.032.47l-.077.357-.038.044-.039.045-.105.005-.106.004-.44-.081a51.071 51.071 0 0 0-.844-.148 48.038 48.038 0 0 1-1.362-.264l-.959-.197-.338-.047a33.35 33.35 0 0 0-.58-.076l-.242-.028-.942-.222-.94-.22-.101.011-.1.012-.032.104a.342.342 0 0 1-.066.13l-.034.026-.086-.01-.086-.011-.008.068-.008.067.053.074.054.074.038-.006.039-.006.03.079.03.078.101.006c.152.008.286-.006.291-.03.003-.013.044-.027.091-.033l.086-.01.101.076.102.077.164.037.164.037.034-.037.033-.038.054.046.053.046.164.004.165.004.073.034.073.034.04-.014a.78.78 0 0 1 .16-.018l.12-.004.01.07a.387.387 0 0 1 .003.106c-.013.06.02.072.217.088l.187.015.043-.022.043-.022.06.045.06.045h.116l.118.001.454.106.454.106.044.063.045.063-.01.046-.01.045-.21-.029a50.51 50.51 0 0 1-.72-.112l-.51-.082-.408-.109-.408-.108-.879-.154-.878-.153-.056-.057-.055-.057-.156-.025-.155-.025-.024-.095-.023-.095-.021.013c-.012.007-.026.036-.032.064l-.012.051-.114.063-.114.063-.096.117a.826.826 0 0 1-.42.289l-.119.03-.216.144-.216.143-.053-.012-.054-.012-.022-.042-.021-.042.101-.087.102-.086.023-.099.023-.098-.07-.058-.069-.058-.08-.018-.079-.017-.023.024-.024.024.032.056.032.057-.019.085-.019.085-.063.089-.063.09.002.07c.001.038.02.101.043.14l.04.069-.033.057a.927.927 0 0 1-.117.141l-.083.084-.057.005-.058.005-.023-.022c-.013-.013-.018-.044-.012-.07l.01-.05-.031-.04a.389.389 0 0 0-.138-.08l-.106-.039-.006-.038-.006-.039.138-.172.139-.172.021-.097.022-.097.104-.036.104-.036.075-.077.074-.076-.007-.045c-.008-.054-.076-.099-.137-.09l-.044.007-.065.096-.064.096-.106.018-.105.02-.076-.074-.076-.074-.087-.02-.088-.02-.062.036-.061.035-.2-.057c-.305-.087-.453-.114-.606-.112a1.458 1.458 0 0 1-.193-.007 9.922 9.922 0 0 0-.312-.04l-.257-.032-.021.022c-.012.012-.024.06-.027.105l-.006.084.063.044.063.044.275.08.274.081.316.02c.174.01.347.012.383.005a.558.558 0 0 1 .179.011l.112.025.127-.027c.152-.032.15-.032.14.015l-.008.038-.12.012-.119.012-.037.038-.037.037.037.064.036.063-.052.086-.05.086.032.128c.037.145.058.174.143.193.16.037.295.202.267.328l-.018.083-.049.025a1.652 1.652 0 0 0-.204.174 4.156 4.156 0 0 1-.357.293l-.2.144-.032.065-.032.064.031.032.032.031.225.052c.124.029.306.083.405.12.099.039.226.084.284.1a.736.736 0 0 1 .174.08l.07.047.041-.021.043-.022.151.043.152.043.045-.016.045-.016.225.055c.123.03.267.073.32.094l.096.038-.005.022-.005.022.176.054c.25.076.393.135.404.166l.009.027-.049-.009a48.587 48.587 0 0 1-.601-.136l-.553-.127-.043-.042-.043-.042-.068.025-.069.026-1.813-.394-1.813-.394.03-.134.03-.134.045-.06c.046-.06.057-.064.16-.047l.053.01.026-.076a.38.38 0 0 1 .077-.125l.051-.05-.007-.046c-.008-.055-.076-.1-.138-.09l-.044.006-.012-.032c-.014-.04.037-.278.072-.339l.027-.045.083-.03.183-.067a.718.718 0 0 1 .19-.039c.05-.001.155-.012.235-.023.08-.012.214-.014.298-.006l.153.016.136-.026a.675.675 0 0 1 .207-.01l.07.016.064-.07.063-.07.05-.004c.029-.003.11-.02.18-.037l.128-.03.066-.055.067-.053-.044-.028-.044-.028-.067.009a.731.731 0 0 1-.196-.02l-.13-.029-.112.045-.113.044-.1-.022-.1-.022-.158.062-.159.062-.144-.032-.144-.032-.09-.064-.089-.064-.156-.017c-.168-.019-.277-.006-.546.064l-.172.045-.184-.072a.763.763 0 0 1-.203-.103l-.02-.032.015-.17c.01-.093.024-.26.035-.37l.019-.199-.024-.046-.024-.047-.034.021-.033.022-.074.292-.074.292-.078.104a.506.506 0 0 1-.106.114c-.015.005-.045.051-.067.103-.022.052-.08.143-.127.202l-.087.107-.072.16-.073.16-.053.042-.054.04-.195-.026-.196-.028-.106-.112-.107-.112-.1.008-.099.008-.049-.072-.049-.072-.033.033a.18.18 0 0 0-.037.049.261.261 0 0 1-.069.059l-.065.044-.177-.04-.177-.041-.072-.065-.071-.065.02-.034a3.31 3.31 0 0 0 .097-.337l.076-.303-.017-.045-.017-.045-.026.017-.026.016-.06.242a3.346 3.346 0 0 1-.102.344l-.042.102-.05.024-.05.024-.084-.034-.085-.035-.039.02-.039.02-.119-.067-.12-.067-.099-.007-.1-.006-.065-.043-.065-.044.06-.074.06-.074.036-.247c.042-.286.145-.745.19-.847l.031-.07.06-.016.059-.017.125.103.125.103.052-.016.051-.015-.074-.087a2.157 2.157 0 0 0-.228-.21 2.854 2.854 0 0 1-.492-.545l-.074-.107-.076-.002-.077-.002-.065.053-.065.053-.053.12-.053.119-.016.155a.636.636 0 0 0-.003.177l.013.02.032-.011.033-.011.016-.074c.016-.072.17-.35.24-.43l.034-.041.045.01c.056.014.125.093.117.132-.003.015.065.129.153.252l.16.225-.057.008-.058.008-.03.064c-.015.036-.042.095-.06.132a.408.408 0 0 1-.096.122l-.066.053-.02.09-.02.09.036.025.037.024-.034.15-.034.15-.028.028-.03.029-.08-.05-.082-.051-.09.01-.088.012-.185-.043a12.2 12.2 0 0 1-.291-.07.567.567 0 0 0-.168-.02l-.062.008-.005-.06-.005-.058-.076-.034-.076-.034-.006-.04-.006-.042.04-.052a1.44 1.44 0 0 0 .11-.221l.072-.17-.017-.062-.018-.062-.062-.014-.063-.014-.048.077-.048.077-.034.154-.034.153-.041.062-.041.063-.102-.023-.101-.023-.036.023-.036.023-.105-.043-.104-.042.009-.04a1.63 1.63 0 0 1 .122-.223l.113-.184.005-.17.005-.171.062-.14c.035-.076.106-.242.158-.368l.095-.23.034-.208a.897.897 0 0 0 .02-.23l-.014-.023-.065.041-.066.042-.084.203-.084.204-.073.383-.074.383-.08.047-.08.046-.055.247-.055.246-.06.05-.06.05-.04-.045-.04-.045.099-.186.099-.185.025-.114.026-.115-.026-.067-.025-.067.071-.096.071-.095.1-.3c.054-.165.114-.371.133-.458l.035-.158-.016-.045-.017-.045-.064.04-.065.042-.076.192-.075.192-.076.418-.077.417-.093.056-.093.057-.042.21-.043.21-.048.029c-.045.027-.113.03-.19.005l-.035-.011.05-.031.048-.031.1-.173.1-.172.017-.17c.025-.237.03-.26.105-.416.127-.268.163-.37.217-.606l.054-.239-.015-.042-.015-.042-.046.007-.047.007-.036.055c-.02.03-.082.19-.138.354l-.102.298-.007.11-.018.24-.012.131-.092.062c-.05.033-.106.058-.124.054l-.031-.007-.015-.087c-.02-.11-.029-.111-.172-.023l-.117.072-.038.22-.04.241-.002.02.081.019.081.018-.021.021-.021.022-.135-.046a.507.507 0 0 1-.154-.073l-.02-.027.09-.123.088-.123.044-.125.044-.125-.01-.092-.012-.091.09-.221.156-.374.067-.154.02-.176a.899.899 0 0 0 .006-.217l-.014-.041-.042.006-.042.006-.058.108-.058.108-.09.337-.092.338.002.144.002.144-.044.067-.044.066-.052-.011-.052-.012-.03.052-.03.052-.033-.096-.032-.096.096-.234c.052-.129.116-.273.141-.321.052-.101.2-.641.192-.7l-.006-.039-.05-.01-.05-.012-.062.061-.063.062-.132.59-.132.59-.06.002-.059.002-.03.056a1.804 1.804 0 0 0-.077.272l-.049.216-.04.006-.04.006-.04-.045-.04-.046.068-.092a1.17 1.17 0 0 0 .121-.225l.052-.133.002-.138.002-.138.07-.147.132-.273.062-.125.04-.261.041-.262-.026-.04-.026-.041-.062.04-.063.041-.094.272-.094.271-.042.27a3.813 3.813 0 0 0-.042.343v.074l-.06-.004-.06-.004-.055.088-.054.089-.02.197-.02.198-.037.029-.037.028-.035-.023a.148.148 0 0 1-.05-.073l-.013-.05.089-.146.088-.146.031-.216c.049-.337.05-.342.128-.487.04-.075.098-.21.129-.3l.056-.161.022-.19.023-.19-.033-.007c-.018-.004-.056.01-.085.03l-.051.038-.088.238-.088.238-.025.21a7.763 7.763 0 0 1-.049.34l-.023.13-.113.087-.114.088-.031.225-.032.226-.028-.006a.252.252 0 0 1-.066-.032l-.038-.025.01-.048c.006-.027.046-.117.089-.2l.077-.153.01-.088.012-.088-.055-.003a.786.786 0 0 1-.1-.014.118.118 0 0 0-.085.022c-.022.017-.05.028-.063.025l-.023-.005.017-.078.018-.078-.025-.024-.025-.024-.051.047-.052.047-.048-.01-.049-.011-.041.032-.041.032-.034.18c-.018.1-.038.197-.045.214l-.01.033-.054-.012-.053-.012.012-.056c.007-.03.046-.117.088-.191l.074-.137.003-.094.003-.095-.022-.004c-.012-.003-.04.01-.064.028l-.043.033-.044-.026-.044-.026-.04.046-.04.047-.042.189-.043.19-.057-.022-.058-.022.018-.066c.01-.036.048-.134.084-.218l.065-.153v-.079l.002-.079-.027.018a.185.185 0 0 0-.048.069l-.021.05-.08-.017-.078-.018-.058.168-.058.169.009.094c.012.125-.013.134-.093.036l-.066-.08.026-.05c.093-.175.14-.289.159-.379l.02-.102-.022-.035-.022-.036-.037.083-.036.083-.06-.03-.06-.03-.04.063-.042.063-.032.142-.032.143-.03.01-.03.011-.05-.028-.049-.029.011-.049a.708.708 0 0 1 .095-.165l.083-.116.013-.122c.007-.068.015-.167.017-.22l.004-.098.095-.158.096-.158.087-.33.087-.33-.018-.043-.018-.044-.049.025-.049.025-.049.09-.049.091-.091.332-.092.332-.004.172-.004.172-.049.07-.048.069-.021-.021-.021-.02-.044.022-.044.022-.065.206-.065.207-.105.004-.104.005-.061.043-.061.043-.107-.03-.107-.029-.06.017-.061.017-.218-.04-.218-.042-.046-.064c-.048-.067-.068-.149-.072-.294a1.081 1.081 0 0 0-.01-.127l-.008-.044.1-.075.1-.075-.025-.015-.024-.015-.108.055c-.267.138-.321.156-.841.285l-.41.1-.348.18-.35.18-.007-.053a.13.13 0 0 0-.047-.08l-.041-.027.042-.104.042-.103.092-.103.092-.103.008-.075.008-.076-.06-.014c-.032-.008-.058-.023-.056-.034a.694.694 0 0 1 .143-.266c.034-.03.106-.117.162-.192l.102-.136-.026-.035-.027-.035-.33-.07c-.182-.04-.4-.096-.486-.125a197.613 197.613 0 0 1-.932-.319c-.185-.063-.502-.16-.705-.214l-.368-.098-.05.024a1.14 1.14 0 0 0-.181.157l-.13.131-.023.103-.023.103.035.07.036.072.16.056c.155.054.204.085.17.105-.013.01-.1.003-.64-.046a.9.9 0 0 0-.229.002l-.064.018-.152-.034-.153-.034-.14.03-.141.029-.008.037c-.005.02 0 .064.009.097l.017.061-.052.033a.561.561 0 0 1-.174.05l-.122.016-.017.071c-.025.102-.033.104-.353.058a6.663 6.663 0 0 0-.795-.07l-.175-.006-.067-.047-.067-.047-.17-.031-.172-.03-.06.022a.262.262 0 0 1-.127.008l-.068-.015-.034-.063-.033-.064-.05-.01a.239.239 0 0 0-.124.023l-.075.036-.096-.004a3.18 3.18 0 0 1-.324-.044l-.226-.04-.074-.053-.073-.052-.117.027a.555.555 0 0 1-.186.012.442.442 0 0 0-.162.008l-.093.023-.05-.03-.052-.029-.01-.071a.456.456 0 0 1 .006-.143l.016-.071zm1.157.054c.014.003.035-.005.047-.017l.022-.023.078.026a.228.228 0 0 1 .101.064l.024.038.135.03.134.03.069-.028.068-.028.008-.038.008-.037-.051-.044-.05-.044-.219-.03-.218-.03-.034.028a.2.2 0 0 1-.085.035c-.052.008-.08.058-.037.068zm7.018 1.491.019.018.15-.076c.081-.041.312-.137.513-.211.2-.075.446-.17.546-.213l.183-.078.011-.05.011-.049-.123-.104-.123-.103-.266-.075-.267-.074-.045.046c-.19.193-.652.927-.609.969zm2.028-.59c.04.01.115-.048.232-.178l.11-.122.081-.164.082-.165.046-.192.046-.193-.023-.036-.023-.036-.035.023-.035.022-.072.203-.072.203-.113.198a2.05 2.05 0 0 1-.166.255.322.322 0 0 0-.068.117l-.014.06zm1.054-.1c.02.057.03.05.117-.093l.071-.118.096-.35.095-.348-.028-.028-.029-.027-.053.033-.052.034-.048.135a5.502 5.502 0 0 0-.117.427l-.068.29zm.597.329.022.075.043-.102c.024-.056.073-.15.11-.209l.068-.107.076-.341.076-.342-.036-.008c-.02-.005-.058.008-.083.027l-.046.036-.085.234-.086.235-.04.214-.041.214zm.31.114.01.077.02-.013c.04-.025.178-.36.279-.675l.102-.319-.01-.075c-.004-.042-.022-.084-.038-.093l-.029-.018-.044.052a1.437 1.437 0 0 0-.13.272l-.083.221-.044.247-.045.247zm.34.062c.036.058.047.044.17-.219l.11-.237.06-.258.061-.259-.02-.033-.022-.033-.047.007-.047.007-.032.053c-.054.09-.15.405-.206.674l-.053.258zm.307.01-.016.15.04.008.04.009.043-.102.14-.33.094-.23.025-.195.025-.195-.027-.036-.028-.036-.047.036-.046.036-.081.222c-.093.252-.14.447-.162.662zm.312.212.019.03.044-.034.044-.034.112-.273.112-.273.033-.16c.039-.186.038-.29-.003-.314l-.028-.017-.06.058-.06.059-.067.2-.067.2-.05.265-.049.263zm1.587.392v.083l.038.009.038.008.044-.087.093-.203.05-.114.076-.335.077-.335-.035-.023-.035-.023-.03.026c-.046.04-.137.211-.173.33a4.366 4.366 0 0 0-.143.664zm1.03 1.15c.013.025.04.049.06.053l.036.009.007-.034a.48.48 0 0 1 .083-.12l.075-.088.018-.081.018-.081-.023-.088-.024-.089-.036.011a.794.794 0 0 0-.11.053l-.075.042-.027.184-.026.184zm.28-.83c.029.164.073.12.22-.223l.086-.197.044-.233.044-.234-.043-.019-.043-.018-.057.055-.057.056-.089.297a75.73 75.73 0 0 0-.106.356.437.437 0 0 0 0 .16zm.38.065.054.02.045-.068c.025-.037.086-.184.135-.326l.09-.259.01-.124.012-.124.05-.043c.14-.12.072-.175-.082-.066l-.111.08-.06.111-.06.112-.069.333-.069.333zm.233.305.013.039.027-.018c.014-.01.092-.166.172-.347l.146-.33.068-.06c.08-.069.086-.09.078-.236l-.006-.107-.06-.005-.06-.005-.089.11c-.049.062-.112.167-.14.234l-.052.123-.056.281-.055.282zm1.032-1.345.003.2.048.122c.026.068.067.15.092.185.024.035.041.074.038.087-.035.16.439.71.746.868l.151.078.092.01c.05.005.166.024.256.042l.165.034.097-.05.096-.051.011-.047.01-.048-.03-.04-.032-.041-.154.01-.154.01-.155-.035a2.39 2.39 0 0 1-.304-.095l-.15-.06-.122-.093-.124-.094-.146-.214-.147-.214.062-.06c.079-.076.1-.07.18.05.076.113.067.108.143.082l.059-.021.086.068.087.067.096-.012.096-.012.056.04.055.04.214.038.355.06.14.02.084-.04c.1-.048.126-.044.179.03l.04.058.082-.061.081-.06.03.022a.705.705 0 0 1 .067.066l.039.044.06-.022a.233.233 0 0 1 .106-.01l.045.01.107-.066.106-.065.046-.207.046-.207-.024-.006-.024-.005-.038.082a.985.985 0 0 1-.098.158l-.06.076-.019-.019-.019-.018.02-.09.02-.09-.02-.02c-.01-.01-.019-.057-.018-.105l.002-.086-.036.004-.036.003-.04.109-.04.108-.046.029a.201.201 0 0 1-.084.029h-.037l-.006-.154a.664.664 0 0 0-.024-.183l-.018-.028-.033.011-.033.012-.037.165-.036.165-.056.05-.056.052-.038-.053-.038-.053.018-.164c.01-.09.015-.182.011-.205l-.006-.041-.037-.009-.037-.008-.01.033c-.006.018-.03.115-.056.217l-.045.185-.029.028-.028.029-.046-.01a.13.13 0 0 1-.071-.05l-.025-.039.04-.178.04-.179-.033-.051-.033-.051-.028.01-.027.009-.05.22-.049.221-.045.023-.045.024-.048-.042-.048-.041.024-.112c.013-.062.024-.161.023-.221v-.109l-.032-.049-.032-.05-.048.026-.05.025-.048.215-.048.216-.03.029-.028.03-.041-.028-.04-.027v-.06c0-.032.005-.143.01-.247l.01-.188-.036-.024-.036-.023-.033.031-.032.032-.027.133a3.47 3.47 0 0 1-.037.168l-.01.034-.071-.024-.07-.025.01-.15.012-.15-.03-.048-.03-.047-.02.013a.443.443 0 0 0-.062.131l-.04.118-.051-.011a.268.268 0 0 1-.097-.05l-.045-.04.02-.09a.49.49 0 0 0 .013-.135l-.007-.045-.037-.008-.036-.009-.031.063-.032.063-.026-.006a.271.271 0 0 1-.083-.075l-.056-.07-.03.03c-.039.04-.04.047-.036.274zm2.678 2.023a1.943 1.943 0 0 0-.006.286l.012.076.065-.051.065-.052.05-.224.05-.224-.016-.058-.016-.057-.051-.012-.051-.011-.037.04c-.047.051-.044.037-.065.287zm3.06 1.76-.03.125.022.1.023.1.068.029.067.03.136-.044a1.67 1.67 0 0 0 .291-.139l.157-.095.002-.051.002-.051-.06-.023-.058-.022-.046.024-.045.023-.012.05-.01.051-.044.006-.043.007-.063-.031-.062-.032-.04-.19-.04-.189-.027-.01a2.365 2.365 0 0 1-.06-.021.113.113 0 0 0-.057-.006l-.025.006-.008.114c-.004.062-.021.17-.038.238zm2.684-2.203a.84.84 0 0 0 .356.27l.105.043.026-.047a.984.984 0 0 0 .058-.16l.033-.114-.044-.05-.043-.05-.216-.029c-.323-.044-.379-.016-.275.137zM235.343 64l.022-.031.307.087.307.087.153-.016.152-.015.13-.075.131-.076.124.007a.826.826 0 0 0 .212-.016l.09-.024.265.056c.147.03.43.082.63.115l.362.06.025.028c.015.016.024.06.02.097l-.004.069-.08-.026-.081-.026-.035.028a.35.35 0 0 0-.068.097l-.034.07-.091-.021-.092-.02-.024-.09-.023-.088-.047-.01a.204.204 0 0 1-.09-.062l-.043-.05-.071-.017c-.104-.024-.113.003-.043.134l.062.117.154.129.154.128.056-.008a.5.5 0 0 1 .14.008l.085.017.07.063.069.064.06-.035.061-.034.06.013a.288.288 0 0 0 .118-.003l.058-.016.076.074c.042.04.094.078.115.083l.039.008.074-.055.074-.055.08.04c.121.058.172.062.362.026l.175-.033.053-.132.053-.132.174.057c.096.031.3.096.451.142.152.047.288.097.303.111l.026.026.053-.03.054-.03.112.007.112.006.024.047.024.046-.097.113a2.33 2.33 0 0 1-.137.15l-.04.036.061.121a.4.4 0 0 1 .053.159.331.331 0 0 0 .039.14c.025.055.042.12.037.142l-.009.041.057.058c.031.032.055.066.053.076l-.004.018-.615-.148a73.182 73.182 0 0 0-1.272-.292 7.8 7.8 0 0 0-.246-.052c-.059-.01-.344-.079-.635-.152l-.527-.132-.199-.013-.198-.014-.107-.058-.107-.057-.291-.064c-.16-.036-.345-.076-.411-.089-.066-.013-.34-.073-.61-.134l-.488-.11-.052-.054-.053-.054.01-.042a.247.247 0 0 1 .077-.097.248.248 0 0 0 .077-.1l.01-.042-.054-.04-.054-.04.013-.08a.347.347 0 0 1 .034-.111zm-1.336 7.007c.06-.157.123-.164.205-.022l.056.099.064.005.064.005.047-.097.047-.096.359.091.36.092.145.096.146.095.143.028.143.027.055-.019.054-.02.035.045c.018.024.03.06.026.08l-.008.036.064.054.064.054-1.055-.232a40.474 40.474 0 0 1-1.05-.238.81.81 0 0 0 .035-.083zm4.11-.408.089-.038.157-.005c.086-.003.201.004.256.017l.1.022.045.074c.054.091.052.098-.034.173l-.07.06.007.095.006.096-.034.039-.033.038-.105-.034-.105-.034-.022-.044-.023-.044.05-.07.05-.072-.011-.03-.01-.03-.134-.014-.133-.014-.062-.03-.062-.032-.006-.042-.006-.043zm6.332-5.313.027-.009.024.047.024.047.063.014.063.014.008-.034a.23.23 0 0 0-.02-.102l-.028-.068-.059-.014-.058-.013.16-.088c.163-.091.192-.098.239-.05l.027.026-.103.167-.104.167.015.07c.02.096-.008.106-.093.035l-.071-.06-.085-.001-.085-.002.015-.068c.008-.038.027-.072.042-.078zm-.16.854.033-.05.078-.02.078-.023.03-.138.032-.138.06-.003c.082-.003.102.022.084.103l-.015.067.04.18.04.18-.024.179-.024.178-.092.041-.093.042-.043-.019-.043-.019-.013-.065-.013-.065-.06-.014-.06-.013.006-.027a.027.027 0 0 1 .032-.02c.015.003.03-.01.034-.028l.007-.033-.07-.063-.069-.063.016-.06a.392.392 0 0 1 .048-.11zm.625-1.465.081-.012.296.076.295.075.023.037.024.037-.043.049-.042.05-.075-.018-.076-.016-.038.03-.039.029.007.047.007.047.086.019c.048.01.119.037.158.06l.178.096.106.056-.005.025-.005.024-.037-.024-.037-.025-.086.015-.086.016-.056-.058a.264.264 0 0 0-.092-.066l-.036-.008-.103.075-.103.074-.052-.011-.053-.012-.007-.045a.335.335 0 0 1 .005-.1l.012-.052-.071-.047-.072-.047-.002-.049-.002-.048-.087-.029-.087-.028.017-.115.017-.114zm-.059 1.71.036-.004.077-.3.076-.302.036-.028.037-.028.08.026.08.026.014.157.014.156-.025.19-.024.189.019.04.019.039.043-.022.043-.022.016-.075.017-.075-.024-.024-.024-.023.055-.024.055-.025.058-.122.058-.122.001.084c0 .046.003.116.005.155l.005.07.075.026.076.026.06-.051.062-.051.029.069.029.069.066.015a.308.308 0 0 0 .126-.002l.06-.017.031.041.032.041-.05.146-.05.145.037.075.038.075.038-.013.039-.014.009-.113c.005-.062.01-.153.01-.202l.002-.09.055.012.055.012.028-.05c.038-.064.06-.057.115.038l.047.078.047-.005a.209.209 0 0 0 .089-.04l.042-.033.04-.183.041-.182.023.023.023.022-.028.11-.028.11.009.114a1.05 1.05 0 0 1-.014.234l-.023.12.04.01.04.008.008-.054c.005-.03.01-.085.013-.122l.005-.069.066.015.067.015.034-.09.034-.09.013.035a.653.653 0 0 1 0 .168l-.012.132.026.072.025.072.032-.032a.282.282 0 0 0 .05-.111l.017-.08.065-.023.065-.022.028-.196.028-.195.031-.032.031-.032.005.042c.003.023-.007.121-.021.218-.032.209-.046.456-.028.483l.013.02.032-.01c.018-.007.036-.03.04-.05a.453.453 0 0 1 .081-.122l.072-.084.03-.2.028-.2.06.013.058.013-.049.205a3.297 3.297 0 0 0-.062.347l-.015.142.032.041.033.041.033-.032.033-.033.007-.096.007-.095.087-.063.088-.063.04.084c.052.106.054.106.194.03l.116-.064.025.058a.192.192 0 0 1 .018.094l-.008.034.028.007a.23.23 0 0 0 .085-.01l.056-.015.038-.089.038-.089.035.008.034.008.035.08.035.081.417.1.417.101.051.07.052.07-.011.05c-.045.2-.15.247-.231.105l-.065-.113-.035.028a.375.375 0 0 0-.073.11c-.02.044-.05.085-.064.09l-.026.01-.074-.129-.075-.128-.022.008a.4.4 0 0 0-.079.121l-.057.113-.038-.008-.039-.009-.017-.06-.016-.059-.034-.007-.034-.008-.077.067-.076.066-.036-.008-.036-.008-.016-.094a.495.495 0 0 0-.042-.137.128.128 0 0 1-.018-.08c.005-.021-.002-.04-.015-.043l-.023-.005-.04.118-.042.119-.035.022-.035.023-.038-.053a.456.456 0 0 0-.102-.096l-.064-.042-.057.04-.057.04-.11-.04-.11-.041-.044.051-.045.052-.128-.048-.128-.048-.061.035-.061.035-.06-.1c-.07-.122-.078-.124-.163-.055-.083.068-.106.064-.185-.04l-.063-.082-.042.006c-.023.004-.045.017-.048.03l-.005.024-.051-.012c-.028-.006-.056-.025-.062-.041l-.01-.03-.062-.014-.062-.014-.045.035-.044.035-.118-.04-.117-.041-.05.014-.052.014-.185-.06-.186-.06-.063-.081-.062-.082.032-.144.032-.143-.027-.006-.026-.006-.032.143-.032.142-.045.023-.045.024-.114-.044-.114-.044-.023.023-.023.024-.086-.034-.086-.035-.024.026-.025.025-.063-.014a.366.366 0 0 1-.1-.04l-.04-.025.032-.14.032-.142zm-.008.851a.169.169 0 0 1 .087-.03l.06-.005.008.051a2.82 2.82 0 0 1-.058.39c-.036.187-.062.351-.057.365.005.014-.005.04-.022.056l-.03.031-.04-.026-.04-.027.046-.178.045-.178-.006-.119c-.004-.065-.016-.128-.029-.14l-.022-.022.016-.071a.244.244 0 0 1 .043-.097zm4.311-.833.05.012.049-.047.049-.047.07.06.07.058.269.06.268.06.082-.039c.045-.022.086-.054.09-.071.02-.095.155-.112.277-.035.093.06.097.089.012.096l-.06.005-.022-.035c-.013-.02-.05-.042-.084-.05l-.06-.013-.006.023c-.011.05.033.23.062.25l.031.02-.131-.027-.132-.027-.072.043-.072.042-.024-.024a.074.074 0 0 1-.016-.062l.009-.038-.108-.024-.108-.024-.062.017-.063.018-.18-.034-.18-.035-.032-.058c-.04-.075-.036-.087.025-.073zm1.565.316.193-.046.038.042a.65.65 0 0 0 .1.085l.063.042-.04.166-.04.166-.05.033-.051.032-.017.153-.017.153-.024.025-.025.025-.048-.042-.048-.041-.103-.023-.104-.023-.071.048c-.04.027-.076.066-.083.086l-.01.038-.006-.071-.005-.07.05-.052.049-.05.035-.157.035-.157-.019-.104a.542.542 0 0 1-.007-.158l.012-.054zm9.79 10.268.073.013.066-.046.066-.045.246.053.247.054.089.07c.048.04.086.08.084.09l-.004.02-.368-.067-.368-.067-.102-.044-.101-.044zm5.123-2.4.078.018.01.03.01.03.067.015.065.015.077-.029.077-.029.183.076.223.089.038.013-.014.066-.015.066-.16-.028a10.207 10.207 0 0 1-.413-.086l-.252-.058-.034-.066c-.02-.035-.03-.081-.026-.102l.008-.037zm1.706-1.938c.014-.004.102 0 .196.011l.171.02.14.076.14.077.076.002.075.001.023.045.022.044-.027.047-.027.046-.074.016c-.09.02-.17.003-.184-.036l-.01-.03-.14-.03a2.63 2.63 0 0 1-.273-.078l-.135-.048.008-.035a.284.284 0 0 0 .002-.078l-.006-.043zm5.494-1.664c.096.022.141.065.296.274l.123.166.031.105c.017.057.053.166.08.24a.614.614 0 0 1 .045.178.692.692 0 0 0 .022.158.543.543 0 0 1 .016.173l-.012.057.035.074c.02.04.041.138.049.217l.013.142-.04.309-.039.31-.414 1.845-.414 1.846-.063.144-.064.145.015.07.015.072-.033.021-.033.021.03.078.03.078-.036.075a.24.24 0 0 1-.079.098l-.044.023-.038.093c-.05.123-.197.353-.251.393a.36.36 0 0 0-.081.121l-.038.088-.142.15-.142.151-.158.083a.975.975 0 0 1-.175.08.245.245 0 0 0-.085.036l-.069.04-.05-.011-.052-.011.034-.07a2.78 2.78 0 0 0 .086-.205l.051-.137.042-.015.042-.014-.02-.074-.02-.073.055-.051.056-.051-.019-.036-.018-.036.167-.56.167-.559.344-1.622c.19-.893.366-1.746.391-1.898l.046-.275.033.007a.399.399 0 0 1 .11.084l.079.075.046-.023c.091-.047.048-.19-.103-.341l-.082-.083-.01-.124-.01-.124.043-.297a27.597 27.597 0 0 0 .162-1.544l.004-.104z" style="fill:#b3b3b3;stroke-width:.102752" transform="matrix(.80067 0 0 .73267 85.679 68.111)"/><path d="M391.53 84.214c-16.051-1.266-33.155-4.593-42.452-17.497-8.067-16.802-24.121-27.515-39.723-35.796-10.75-6.697-25.943-13.689-37.213-21.832C257.4-.33 238.686-1.052 224.449-11.54c-11.491-6.834-20.46-14.007-32.807-21.027-6.657-3.996-40.387-15.831-17.546-8.76 29.76 9.103 50.521 35.816 81.562 42.004 17.71 6.042 32.868 18.066 49.305 26.88 17.864 8.3 36.563 21.75 45.217 37.916 6.986 8.166 16.127 13.53 23.422 14.37 11.671 2.336 31.997 10.247 17.927 4.372zm-1.779 11.534c3.734 1.674-22.676-5.252 0 0zm-9.482 54.776c-4.044-8.411-2.222-18.343-.431-3.235zM372.1 117.69c-8.816-13.11-6.047-14.608 0 0zm-10.363-12.17c-1.697-4.146-9.775-17.748-1.277-4.949l1.116 2.578zm-34.423-43.937c-14.146-12.376-32.101-20.698-45.528-34.676-11.394-6.91-4.208-7.633-17.523-14.682-14.195-4.36-22.129 16.347-21.325 21.057-4.054-10.986 20.452-26.041-2.156-28.118-16.938-2.292-36.727-23.358-40.305-22.854-6.004-14.872-23.287 22.453-17.074 5.921 8.279-8.622-12.198 10.806-2-1.535-7.827 6.863-5.37 5.818-4.972-2.532 3.143 11.056.906-8.597 2.962-3.5 7.064-4.457-13.74-3.549 1.332-4.58 8.017-.797-3.92 9.136.942 9.19 2.502-1.537 10.905 1.252 8.117-10.902-10.39 2.59-27.769-8.78-33.001-11.993-3.482-2.435-22.325-5.312-2.865-3.276 7.888 6.294 24.524 15.336 36.328 12.92 2.352 9.684-1.184 6.697 6.622 5.79 15.387 10.063 29.22 24.756 48.536 27.128 7.092 13.39 26.19 1.127 33.696 18.27 13.665 15.96 33.862 23.97 48.214 38.372zm-1.726 17.964c-6.506 6.925-22.283 9.597-5.575 3.784.137.883 6.202-6.324 5.575-3.784zm-2.917.231c-8.862 4.938-10.251 6.04-2.26-1.941-7.34 6.842 5.509-.801 2.26 1.941zm-27.525-11.036c-3.867-12.837-33.954-24.652-34.47-26.474 12.567 6.458 28.887 12.26 34.47 26.474zm-8.877 23.254c-26.21 3.838-52.236-5.145-77.644-10.569-15.227-5.24-25.947-9.05-11.603-6.171 18.606 10.146 41.556 11.717 62.468 16.095 8.367 1.583 20.989 1.637 26.78.645zm-17.837 61.46c-18.235 7.629-10.665 3.107 0 0zm-4.035-28.671c-21.43 2.984-44.297 5.886-65.318-.27-8.44-3.462-18.81-9.475-4.553-2.882 18.56 9.187 40.298 4.915 60.196 4.12 2.25.52 8.84-2.41 9.675-.968zm-1.013-14.33c-24.477-6.836-50.68-9.808-75.911-7.965-20.558-.032 14.341-3.02 21.016-1.14 17.758 3.013 40.42 1.637 54.895 9.105zm-1.765 33.308c-20.72-1.318-41.575.157-61.788 5.016-9.405 4.91-35.04-2.067-11.597 1.887 22.148-6.677 45.74-8.593 68.86-8.007l2.902.436zm1.543-69.376c-6.789.726-24.257-8.026-8.091-1.823 23.48 3.768-23.786-9.03-1.635-3.673 3.414 1.018 8.23 1.72 9.726 5.496zM250.79 41.57c-4.98 6.882-15.259-8.774-6.338.812.903-3.097 11.588-.43 6.338-.812zm-8.023-21.785c1.88 13.456-12.834 18.661-17.62 5.705-2.197-10.573-36.231-29.84-12.889-16.28 9.496 8.897 26.079 38.934 30.202 10.057Zm-13.332 22.656c-5.968 9.79-12.201 2.775-18.88 17.533 4.1-6.917 12.9-17.139.224-7.92-15.429 6.848-34.637 8.576-48.876 7.905-19.46 1.592-38.414-5.534-57.86-5.786-18.65-3.593-37.792-2.549-56.807-4.818 11.374.007 42.083 1.437 60.675 4.242 20.802 1.165 41.196 7.706 62.018 5.119 17.65.807 34.286-4.902 49.922-11.918 13.557-9.433-12.82-23.035-23.38-27.215-19.898-9.223 13.387 3.93 19.241 8.907 10.798 2.245 8.004 13.682 12.484 14.625zm-28.21-52.016c-4.166 2.445-2.397-6.877 0 0zm-9.29 82.285c-13.394-2.993-37.78 18.907-15.212 26.18-5.38 2.573-12.066-12.224-11.785.869-18.07-1.844-35.42-13.322-54.86-13.388-8.013 1.237-36.715-4.935-23.57-9.01-5.708 5.91 7.623 6.601.891-2.738 2.88 2.48.774-4.907 6.739 2.771-8.718-3.76-2.286 11.811 7.535 6.78 19.262 1.842 38.829 7.423 56.387 12.51-.397 1.64 7.374 6.55 7.506-5.435-1.262-9.197 1.78 3.601 1.009-7.37.31.995 7.406-22.9-8.474-16.577-8.246 7.376-36.573 1.885-36.927.2 16.03 8.307 35.063-6.803 48.59 3.223-7.268 22.946 13.012-4.896 22.171 1.985zm-6.648-57.679c-16.162-9.215-33.231-17.6-45.706-31.949-9.858-4.286-11.426-25.932-6.827-26.698-7.73 21.935 19.052 36.282 33.765 47.413 6.119 5.032 13.927 4.722 18.768 11.234zm-3.388 129.795c-10.534 4.233-6.748-4.012 0 0zM180.08-7.223c-7.098 6.213-14.39-8.164-4.678.883-1.363.766 7.077-1.185 4.678-.884zm-5.227 130.037c-11.503 18.057-3.904-13.947-18.919-3.716-6.638 2.872-27.202 4.752-42.102 2.398-11.278-.995-38.343-1.49-23.633 1.818-7.032-6.187-21.378 3.107-15.816 1.32 5.18-5.428 4.35 4.07 9.98 4.694-15.75-1.18 6.479 4.114-6.053 8.616-8.166 10.889-35.627.705-52.683 5.535-12.665 7.943-14.463-19.498-14.242-.742-10.573 8.902 3.313-5.001-4.479-2.691 2.348 5.972-18.36-1.846-23.402 4.288 8.478-6.936 27.12-.858 18.296-7.474-5.682 3.147 11.085-4.72-.562-3.87 6.344-5.038 2.926-2.062 7.003 1.022 2.807-15.353-16.13-.18-22.923-.134.736-4.088-13.116-2.16-1.615.364 2.221 2.027-7.914 2.713 3.005 6.523-9.516-.09-6.603-1.955-7.762-7.7-14.597-.16 15.957-.652 21.74-5.797 9.76-12.99 10.88 15.329 12.092-3.243 6.284-5.213 23.37 2.24 7.092-1.545-11.481 1.73-4.856 6.95-6.547 15.056-.775 8.273 12.94.178 2.119 2.18 5.496-2.892 0-7.507 6.378-6.886-3.723 3.878 12.225 2.658 2.215 6.238-3.012-3.624 3.585 2.01 1.959 1.253-4.038 2.172-6.308-5.908-4.617 1.677 7.8-2.852 31.402 1.337 30.672-2.007 5.089 5.913 11.269-3.668 6.515-5.22 3.22-2.662 8.34 1.941 3.427 2.498 8.577 8.774 5.521-15.22 2.49-8.158 3.229 11.753-4.305-8.512-8.05 4.324-12.985 2.38 1.203-3.943 6.5-7.15-4.08-2.869 4.806-8.324-3.903-7.133-6.684 3.394-31.805 6.747-29.067 5.397 13.485 1.637 36.551-17.081 39.793 3.054 3.698-15.395 28.755-5.291 42.26-7.115 18.94 5.151 34.904-3.488 52.756-3.005 7.85 5.246-1.316 15.36 9.882 4.724l.201.607zM79.04 135.04c.754-3.567-8.024-2.944-1.581.9-1.985-2.87.846.122 1.58-.9zm-3.29 2.446c-8.432-2.397-4.229 6.67 0 0zm-2.506-4.388c-7.077-.279-5.835 11.157-1.79.71-.146-.813 2.898.494 1.79-.71zm-5.228-6.339c-4.094-16.79-2.904 2.827.522 1.504zm-5.337 15.533c1.765-3.605-7.558-.19 1.61 1.214zm110.322 5.941c-7.604-10.669-11.157 7.93-22.453-2.196-20.882-5.692-44.162-5.656-65.216-2.595-18.458 1.215 13.155-5.236 19.866-2.44 14.238-.845 32.909.201 44.13 2.991-17.45-6.559 11.652 1.404 4.115 1.954 4.62-1.352 7.561-7.859 7.437.847-3.571-6.422-4.034 6.917 4.656-1.772-.777-7.538-2.68 2.186-3.286-10.647 3.347-15.456-1.43 12.114 10.751 13.858zm-5.574-74.79c-10.028-5.82 2.81-6.795 0 0zM165.92-40.153c-7.581-5.196-40.246-11.83-15.56-7.828 2.066.826 20.195 8.772 15.56 7.828zm-.214 24.31c-6.486-1.673-13.856-13.436-2.56-2.78zm-2.447 140.382c-7.617.624-3.538 6.527-6.377-.182-.68-2.863 5.201 4.596 4.574-3.444-4.318 3.03 2.467-5.887 1.803 3.626zm-.374-48.984c-5.947-.836-10.794 8.198-6.4.153 4.59 2.988-2.877-6.447 6.4-.153zm-1.852 56.224c-9.199 1.851.454-8.664 0 0zm-.235-36.057c-7.61-2.589-7.155-8.227 0 0zm-1.208 38.543c-2.554.057-2.192 9.478-4.074.714-5.328-1.42-.745-4.535 4.074-.714zm-1.802-64.767c-10.952 3.9 2.794-5.245 0 0zm-5.245 40.484c-18.281 4.988-38.925-1.399-58.543.843-13.299.118-25.779.493-39.96 1.382-8.596 1.39-47.902 4.2-23.399 1.533 25.92-3.555 51.974-3.542 78.018-4.342 10.784 4.092 32.439-1.784 36.825.367 1.608 2.867 6.123 2.06 7.06.217zm-.57-5.52c-7.83-4.635-8.398-1.145-8.332.126-12.936-9.976-32.207-6.24-47.523-11.251-7.635-.79-21.469-3.641-5.277-1.817 17.308 3.087 35.17 4.621 52.146 9.337 2.131 1.94 8.19.98 8.986 3.604zm-1.612 48.296c-11.512-.6-24.18-3.139-35.392-1.12-38.97 2.21-78.89-5.238-117.932 1.144-8.82.565-26.659 2.13-8.577-.008 20.6-2.516 41.2-4.451 61.972-3.197 24.968.674 49.877 2.7 74.96-.017 4.916-.384 16.3 2.692 9.738-2.273 4.052 3.339 12.892 4.106 15.23 5.471zm-.133-21.836c-5.501.272-.683 6.939-3.7 3.834-16.042-.07 4.864-3.24 3.7-3.834zM147.375-29.55c-1.976.235-10.785-9.74-3.792-8.875-7.12 2.785 4.008 5.213 3.792 8.875zm-32.239 97.325c-7.943-.225-22.063-5.377-15.91-1.677-4.833 1.337-8.7-1.606-11.585 6.015-1.721 5.327-9.168-.126-7.424 6.485 5.245 8.264-22.455-2.36-31.96-1.235C26.332 84.78 33.98 44.161 53.056 60.35c8.12 1.688 29.554-3.062 27.235.216-13.091 1.643-29.245-1.946-40.31-.073-.412-9.562-9.405 18.256 1.832 15.35 1.315-.676-9.325-9.637.154-7.558 8.235-.003-5.675 10.571 8.874 7.94 13.712-1.703 24.205 8.142 23.717 2.774 3.827-8.737 4.406-9.414 6.147-5.989-.7-4.535-1.087-16.625.761-5.7 3.033-6.526 1.787-1.699 10.772-5.49 7.405 2.684 15.529 3.136 22.898 5.956zm-20.535-4.85c-8.198-2.704-14.285 8.488-7.675 5.266.304-3.974 6.498-1.405 7.675-5.266zM79.03 73.533c-5.002 7.203 1.142 10.495 0 0zm2.05 17.107c-22.177-7.256-46.085-5.308-69.308-6.445-13.1-2.781 16.632 1.23 22.947-.423 15.746 1.055 32.073-.004 46.362 6.868zM78.396 68.9c-5.268 8.052-5.779-5.825 0 0zm-.708 4.167c-6.227 5.644-17.604-3.896-4.19.991-11.424-6.176 1.894-1.945 4.19-.99zm-18.533 53.29c-10.39 4.343-7.388-2.486 0 0zm-1.09-2.592c-8.72 4.834-.043-6.347 0 0zM52.599 137.8c.488 1.246-11.269-1.851-3.098-.974zM48.62 62.975c-.195-1.336-7.556.65-6.129-2.767 1.74 2.45 2.779-1.811 4.87 1.947l.376.59zm-2.18 1.968c-5.401 5.879-12.313-7.575 0 0zM37.212 48.49c-8.766-.862-39.672 1.368-15.02-.564 4.061.459 13.838-1.64 15.02.564zm-1.628 18.79c1.85 18.598-20.681 2.659-23.66 4.81 13.536-1.87 20.19 9.63 18.664-.39-5.8-.18 1.773-1.757 1.683-6.36 3.334-3.361-1.042-5.676-.345-3.345-1.307-6.864-2.435.873-6.904-1.596-9.378 3.224-15.387 2.127-1.687.019 8.535-7.273 11.846-1.328 12.25 6.861zm-5.939 62.189c-7.635 4.252-5.232-5.673 0 0zm-4.86 2.808c-6.119-1.7-8.251-8.62-7.772-8.251 10.237-2.062 4.017 5.553 6.243 7.185.385.55 1.45.287 1.528 1.066zm-6.318-16.608c-7.034-.423-34.162 3.874-12.667.19 3.855-.164 10.54-1.514 12.667-.19zm-.403 14.857c-.057 8.252-7.144-.78-1.237-1.08zM7.387 63.103c-10.02 6.478 2.407-8.175-10.512.121 2.4-4.801 10.754-2.944 10.512-.12zm-32.08 90.49c-15.242.333-9.22-38.463-10.69-10.238-.028 4.112 11.734 11.158 10.69 10.237zm.033-31.825c-5.12 2.33-14.876 13.97-4.935 2.216-1.896 2.705 7.484-5.553 4.935-2.216z" style="fill:#fff" transform="translate(35.383 49.207)"/></svg>