<?xml version="1.0" encoding="UTF-8" standalone="no"?>
<svg
   width="433.62"
   height="289.08"
   viewBox="0,0,433.62,289.08"
   version="1.1"
   id="svg234"
   sodipodi:docname="Binomial_distribution_pmf.svg"
   inkscape:version="1.1 (c4e8f9ed74, 2021-05-24)"
   xmlns:inkscape="http://www.inkscape.org/namespaces/inkscape"
   xmlns:sodipodi="http://sodipodi.sourceforge.net/DTD/sodipodi-0.dtd"
   xmlns="http://www.w3.org/2000/svg"
   xmlns:svg="http://www.w3.org/2000/svg">
  <defs
     id="defs238" />
  <sodipodi:namedview
     id="namedview236"
     pagecolor="#ffffff"
     bordercolor="#666666"
     borderopacity="1.0"
     inkscape:pageshadow="2"
     inkscape:pageopacity="0.0"
     inkscape:pagecheckerboard="0"
     showgrid="false"
     inkscape:zoom="5.3825933"
     inkscape:cx="17.277917"
     inkscape:cy="-11.239935"
     inkscape:window-width="1911"
     inkscape:window-height="1043"
     inkscape:window-x="4"
     inkscape:window-y="16"
     inkscape:window-maximized="1"
     inkscape:current-layer="svg234" />
  <desc
     id="desc2">R SVG Plot!</desc>
  <circle
     cx="39.95"
     cy="248.71"
     r="1.88"
     style="stroke-width:1;stroke:#FF0000;fill:#FF0000;stroke-opacity:1.000000;fill-opacity:1.000000"
     id="circle6" />
  <circle
     cx="49.29"
     cy="248.71"
     r="1.88"
     style="stroke-width:1;stroke:#FF0000;fill:#FF0000;stroke-opacity:1.000000;fill-opacity:1.000000"
     id="circle8" />
  <circle
     cx="58.64"
     cy="248.71"
     r="1.88"
     style="stroke-width:1;stroke:#FF0000;fill:#FF0000;stroke-opacity:1.000000;fill-opacity:1.000000"
     id="circle10" />
  <circle
     cx="67.98"
     cy="248.71"
     r="1.88"
     style="stroke-width:1;stroke:#FF0000;fill:#FF0000;stroke-opacity:1.000000;fill-opacity:1.000000"
     id="circle12" />
  <circle
     cx="77.32"
     cy="248.71"
     r="1.88"
     style="stroke-width:1;stroke:#FF0000;fill:#FF0000;stroke-opacity:1.000000;fill-opacity:1.000000"
     id="circle14" />
  <circle
     cx="86.66"
     cy="248.71"
     r="1.88"
     style="stroke-width:1;stroke:#FF0000;fill:#FF0000;stroke-opacity:1.000000;fill-opacity:1.000000"
     id="circle16" />
  <circle
     cx="96.01"
     cy="248.70"
     r="1.88"
     style="stroke-width:1;stroke:#FF0000;fill:#FF0000;stroke-opacity:1.000000;fill-opacity:1.000000"
     id="circle18" />
  <circle
     cx="105.35"
     cy="248.69"
     r="1.88"
     style="stroke-width:1;stroke:#FF0000;fill:#FF0000;stroke-opacity:1.000000;fill-opacity:1.000000"
     id="circle20" />
  <circle
     cx="114.69"
     cy="248.64"
     r="1.88"
     style="stroke-width:1;stroke:#FF0000;fill:#FF0000;stroke-opacity:1.000000;fill-opacity:1.000000"
     id="circle22" />
  <circle
     cx="124.04"
     cy="248.47"
     r="1.88"
     style="stroke-width:1;stroke:#FF0000;fill:#FF0000;stroke-opacity:1.000000;fill-opacity:1.000000"
     id="circle24" />
  <circle
     cx="133.38"
     cy="247.98"
     r="1.88"
     style="stroke-width:1;stroke:#FF0000;fill:#FF0000;stroke-opacity:1.000000;fill-opacity:1.000000"
     id="circle26" />
  <circle
     cx="142.72"
     cy="246.74"
     r="1.88"
     style="stroke-width:1;stroke:#FF0000;fill:#FF0000;stroke-opacity:1.000000;fill-opacity:1.000000"
     id="circle28" />
  <circle
     cx="152.07"
     cy="243.94"
     r="1.88"
     style="stroke-width:1;stroke:#FF0000;fill:#FF0000;stroke-opacity:1.000000;fill-opacity:1.000000"
     id="circle30" />
  <circle
     cx="161.41"
     cy="238.45"
     r="1.88"
     style="stroke-width:1;stroke:#FF0000;fill:#FF0000;stroke-opacity:1.000000;fill-opacity:1.000000"
     id="circle32" />
  <circle
     cx="170.75"
     cy="228.92"
     r="1.88"
     style="stroke-width:1;stroke:#FF0000;fill:#FF0000;stroke-opacity:1.000000;fill-opacity:1.000000"
     id="circle34" />
  <circle
     cx="180.09"
     cy="214.41"
     r="1.88"
     style="stroke-width:1;stroke:#FF0000;fill:#FF0000;stroke-opacity:1.000000;fill-opacity:1.000000"
     id="circle36" />
  <circle
     cx="189.44"
     cy="195.13"
     r="1.88"
     style="stroke-width:1;stroke:#FF0000;fill:#FF0000;stroke-opacity:1.000000;fill-opacity:1.000000"
     id="circle38" />
  <circle
     cx="198.78"
     cy="173.06"
     r="1.88"
     style="stroke-width:1;stroke:#FF0000;fill:#FF0000;stroke-opacity:1.000000;fill-opacity:1.000000"
     id="circle40" />
  <circle
     cx="208.12"
     cy="152.05"
     r="1.88"
     style="stroke-width:1;stroke:#FF0000;fill:#FF0000;stroke-opacity:1.000000;fill-opacity:1.000000"
     id="circle42" />
  <circle
     cx="217.47"
     cy="136.79"
     r="1.88"
     style="stroke-width:1;stroke:#FF0000;fill:#FF0000;stroke-opacity:1.000000;fill-opacity:1.000000"
     id="circle44" />
  <circle
     cx="226.81"
     cy="131.19"
     r="1.88"
     style="stroke-width:1;stroke:#FF0000;fill:#FF0000;stroke-opacity:1.000000;fill-opacity:1.000000"
     id="circle46" />
  <circle
     cx="236.15"
     cy="136.79"
     r="1.88"
     style="stroke-width:1;stroke:#FF0000;fill:#FF0000;stroke-opacity:1.000000;fill-opacity:1.000000"
     id="circle48" />
  <circle
     cx="245.50"
     cy="152.05"
     r="1.88"
     style="stroke-width:1;stroke:#FF0000;fill:#FF0000;stroke-opacity:1.000000;fill-opacity:1.000000"
     id="circle50" />
  <circle
     cx="254.84"
     cy="173.06"
     r="1.88"
     style="stroke-width:1;stroke:#FF0000;fill:#FF0000;stroke-opacity:1.000000;fill-opacity:1.000000"
     id="circle52" />
  <circle
     cx="264.18"
     cy="195.13"
     r="1.88"
     style="stroke-width:1;stroke:#FF0000;fill:#FF0000;stroke-opacity:1.000000;fill-opacity:1.000000"
     id="circle54" />
  <circle
     cx="273.53"
     cy="214.41"
     r="1.88"
     style="stroke-width:1;stroke:#FF0000;fill:#FF0000;stroke-opacity:1.000000;fill-opacity:1.000000"
     id="circle56" />
  <circle
     cx="282.87"
     cy="228.92"
     r="1.88"
     style="stroke-width:1;stroke:#FF0000;fill:#FF0000;stroke-opacity:1.000000;fill-opacity:1.000000"
     id="circle58" />
  <circle
     cx="292.21"
     cy="238.45"
     r="1.88"
     style="stroke-width:1;stroke:#FF0000;fill:#FF0000;stroke-opacity:1.000000;fill-opacity:1.000000"
     id="circle60" />
  <circle
     cx="301.55"
     cy="243.94"
     r="1.88"
     style="stroke-width:1;stroke:#FF0000;fill:#FF0000;stroke-opacity:1.000000;fill-opacity:1.000000"
     id="circle62" />
  <circle
     cx="310.90"
     cy="246.74"
     r="1.88"
     style="stroke-width:1;stroke:#FF0000;fill:#FF0000;stroke-opacity:1.000000;fill-opacity:1.000000"
     id="circle64" />
  <circle
     cx="320.24"
     cy="247.98"
     r="1.88"
     style="stroke-width:1;stroke:#FF0000;fill:#FF0000;stroke-opacity:1.000000;fill-opacity:1.000000"
     id="circle66" />
  <circle
     cx="329.58"
     cy="248.47"
     r="1.88"
     style="stroke-width:1;stroke:#FF0000;fill:#FF0000;stroke-opacity:1.000000;fill-opacity:1.000000"
     id="circle68" />
  <circle
     cx="338.93"
     cy="248.64"
     r="1.88"
     style="stroke-width:1;stroke:#FF0000;fill:#FF0000;stroke-opacity:1.000000;fill-opacity:1.000000"
     id="circle70" />
  <circle
     cx="348.27"
     cy="248.69"
     r="1.88"
     style="stroke-width:1;stroke:#FF0000;fill:#FF0000;stroke-opacity:1.000000;fill-opacity:1.000000"
     id="circle72" />
  <circle
     cx="357.61"
     cy="248.70"
     r="1.88"
     style="stroke-width:1;stroke:#FF0000;fill:#FF0000;stroke-opacity:1.000000;fill-opacity:1.000000"
     id="circle74" />
  <circle
     cx="366.96"
     cy="248.71"
     r="1.88"
     style="stroke-width:1;stroke:#FF0000;fill:#FF0000;stroke-opacity:1.000000;fill-opacity:1.000000"
     id="circle76" />
  <circle
     cx="376.30"
     cy="248.71"
     r="1.88"
     style="stroke-width:1;stroke:#FF0000;fill:#FF0000;stroke-opacity:1.000000;fill-opacity:1.000000"
     id="circle78" />
  <circle
     cx="385.64"
     cy="248.71"
     r="1.88"
     style="stroke-width:1;stroke:#FF0000;fill:#FF0000;stroke-opacity:1.000000;fill-opacity:1.000000"
     id="circle80" />
  <circle
     cx="394.98"
     cy="248.71"
     r="1.88"
     style="stroke-width:1;stroke:#FF0000;fill:#FF0000;stroke-opacity:1.000000;fill-opacity:1.000000"
     id="circle82" />
  <circle
     cx="404.33"
     cy="248.71"
     r="1.88"
     style="stroke-width:1;stroke:#FF0000;fill:#FF0000;stroke-opacity:1.000000;fill-opacity:1.000000"
     id="circle84" />
  <circle
     cx="413.67"
     cy="248.71"
     r="1.88"
     style="stroke-width:1;stroke:#FF0000;fill:#FF0000;stroke-opacity:1.000000;fill-opacity:1.000000"
     id="circle86" />
  <line
     x1="39.95"
     y1="258.08"
     x2="413.67"
     y2="258.08"
     style="stroke-width:1;stroke:#000000;fill:#000000;stroke-opacity:1.000000;fill-opacity:0.000000"
     id="line88" />
  <line
     x1="39.95"
     y1="258.08"
     x2="39.95"
     y2="263.08"
     style="stroke-width:1;stroke:#ffffff;fill:#000000;stroke-opacity:1;fill-opacity:0"
     id="line90" />
  <line
     x1="133.38"
     y1="258.08"
     x2="133.38"
     y2="263.08"
     style="stroke-width:1;stroke:#ffffff;fill:#000000;stroke-opacity:1;fill-opacity:0"
     id="line92" />
  <line
     x1="226.81"
     y1="258.08"
     x2="226.81"
     y2="263.08"
     style="stroke-width:1;stroke:#ffffff;fill:#000000;stroke-opacity:1;fill-opacity:0"
     id="line94" />
  <line
     x1="320.24"
     y1="258.08"
     x2="320.24"
     y2="263.08"
     style="stroke-width:1;stroke:#ffffff;fill:#000000;stroke-opacity:1;fill-opacity:0"
     id="line96" />
  <line
     x1="413.67"
     y1="258.08"
     x2="413.67"
     y2="263.08"
     style="stroke-width:1;stroke:#ffffff;fill:#ffffff;stroke-opacity:1;fill-opacity:0"
     id="line98" />
  <text
     transform="translate(36.95,278.08) "
     style="font-size:12;fill:#ffffff"
     id="text100">0</text>
  <text
     transform="translate(126.78,278.08) "
     style="font-size:12;fill:#ffffff"
     id="text102">10</text>
  <text
     transform="translate(220.21,278.08) "
     style="font-size:12;fill:#ffffff"
     id="text104">20</text>
  <text
     transform="translate(313.64,278.08) "
     style="font-size:12;fill:#ffffff"
     id="text106">30</text>
  <text
     transform="translate(407.07,278.08) "
     style="font-size:12;fill:#ffffff"
     id="text108">40</text>
  <line
     x1="25.00"
     y1="248.71"
     x2="25.00"
     y2="14.37"
     style="stroke-width:1;stroke:#000000;fill:#000000;stroke-opacity:1.000000;fill-opacity:0.000000"
     id="line110" />
  <line
     x1="25.00"
     y1="248.71"
     x2="20.00"
     y2="248.71"
     style="stroke-width:1;stroke:#ffffff;fill:#000000;stroke-opacity:1;fill-opacity:0"
     id="line112" />
  <line
     x1="25.00"
     y1="201.84"
     x2="20.00"
     y2="201.84"
     style="stroke-width:1;stroke:#ffffff;fill:#000000;stroke-opacity:1;fill-opacity:0"
     id="line114" />
  <line
     x1="25.00"
     y1="154.97"
     x2="20.00"
     y2="154.97"
     style="stroke-width:1;stroke:#ffffff;fill:#000000;stroke-opacity:1;fill-opacity:0"
     id="line116" />
  <line
     x1="25.00"
     y1="108.11"
     x2="20.00"
     y2="108.11"
     style="stroke-width:1;stroke:#ffffff;fill:#000000;stroke-opacity:1;fill-opacity:0"
     id="line118" />
  <line
     x1="25.00"
     y1="61.24"
     x2="20.00"
     y2="61.24"
     style="stroke-width:1;stroke:#ffffff;fill:#000000;stroke-opacity:1;fill-opacity:0"
     id="line120" />
  <line
     x1="25.00"
     y1="14.37"
     x2="20.00"
     y2="14.37"
     style="stroke-width:1;stroke:#ffffff;fill:#000000;stroke-opacity:1;fill-opacity:0"
     id="line122" />
  <text
     transform="translate(15.00,260.44)  rotate(-90)"
     style="font-size:12;fill:#ffffff"
     id="text124">0.00</text>
  <text
     transform="translate(15.00,213.57)  rotate(-90)"
     style="font-size:12;fill:#ffffff"
     id="text126">0.05</text>
  <text
     transform="translate(15.00,166.71)  rotate(-90)"
     style="font-size:12;fill:#ffffff"
     id="text128">0.10</text>
  <text
     transform="translate(15.00,119.84)  rotate(-90)"
     style="font-size:12;fill:#ffffff"
     id="text130">0.15</text>
  <text
     transform="translate(15.00,72.97)  rotate(-90)"
     style="font-size:12;fill:#ffffff"
     id="text132">0.20</text>
  <text
     transform="translate(15.00,26.11)  rotate(-90)"
     style="font-size:12;fill:#ffffff"
     id="text134">0.25</text>
  <polyline
     points="25.00 , 258.08 428.62 , 258.08 428.62 , 5.00 25.00 , 5.00 25.00 , 258.08 "
     style="stroke-width:1;stroke:#ffffff;fill:none;stroke-opacity:1;fill-opacity:0"
     id="polyline136" />
  <polygon
     points="38.07 , 250.58 41.82 , 250.58 41.82 , 246.83 38.07 , 246.83 "
     style="stroke-width:1;stroke:#FFFFFF;fill:#00FF00;stroke-opacity:0.000000;fill-opacity:1.000000"
     id="polygon138" />
  <polygon
     points="47.42 , 250.58 51.17 , 250.58 51.17 , 246.83 47.42 , 246.83 "
     style="stroke-width:1;stroke:#FFFFFF;fill:#00FF00;stroke-opacity:0.000000;fill-opacity:1.000000"
     id="polygon140" />
  <polygon
     points="56.76 , 250.58 60.51 , 250.58 60.51 , 246.83 56.76 , 246.83 "
     style="stroke-width:1;stroke:#FFFFFF;fill:#00FF00;stroke-opacity:0.000000;fill-opacity:1.000000"
     id="polygon142" />
  <polygon
     points="66.10 , 250.58 69.85 , 250.58 69.85 , 246.83 66.10 , 246.83 "
     style="stroke-width:1;stroke:#FFFFFF;fill:#00FF00;stroke-opacity:0.000000;fill-opacity:1.000000"
     id="polygon144" />
  <polygon
     points="75.45 , 250.58 79.20 , 250.58 79.20 , 246.83 75.45 , 246.83 "
     style="stroke-width:1;stroke:#FFFFFF;fill:#00FF00;stroke-opacity:0.000000;fill-opacity:1.000000"
     id="polygon146" />
  <polygon
     points="84.79 , 250.55 88.54 , 250.55 88.54 , 246.80 84.79 , 246.80 "
     style="stroke-width:1;stroke:#FFFFFF;fill:#00FF00;stroke-opacity:0.000000;fill-opacity:1.000000"
     id="polygon148" />
  <polygon
     points="94.13 , 250.38 97.88 , 250.38 97.88 , 246.63 94.13 , 246.63 "
     style="stroke-width:1;stroke:#FFFFFF;fill:#00FF00;stroke-opacity:0.000000;fill-opacity:1.000000"
     id="polygon150" />
  <polygon
     points="103.48 , 249.63 107.23 , 249.63 107.23 , 245.88 103.48 , 245.88 "
     style="stroke-width:1;stroke:#FFFFFF;fill:#00FF00;stroke-opacity:0.000000;fill-opacity:1.000000"
     id="polygon152" />
  <polygon
     points="112.82 , 246.96 116.57 , 246.96 116.57 , 243.21 112.82 , 243.21 "
     style="stroke-width:1;stroke:#FFFFFF;fill:#00FF00;stroke-opacity:0.000000;fill-opacity:1.000000"
     id="polygon154" />
  <polygon
     points="122.16 , 239.33 125.91 , 239.33 125.91 , 235.58 122.16 , 235.58 "
     style="stroke-width:1;stroke:#FFFFFF;fill:#00FF00;stroke-opacity:0.000000;fill-opacity:1.000000"
     id="polygon156" />
  <polygon
     points="131.50 , 221.70 135.25 , 221.70 135.25 , 217.95 131.50 , 217.95 "
     style="stroke-width:1;stroke:#FFFFFF;fill:#00FF00;stroke-opacity:0.000000;fill-opacity:1.000000"
     id="polygon158" />
  <polygon
     points="140.85 , 189.31 144.60 , 189.31 144.60 , 185.56 140.85 , 185.56 "
     style="stroke-width:1;stroke:#FFFFFF;fill:#00FF00;stroke-opacity:0.000000;fill-opacity:1.000000"
     id="polygon160" />
  <polygon
     points="150.19 , 143.35 153.94 , 143.35 153.94 , 139.60 150.19 , 139.60 "
     style="stroke-width:1;stroke:#FFFFFF;fill:#00FF00;stroke-opacity:0.000000;fill-opacity:1.000000"
     id="polygon162" />
  <polygon
     points="159.53 , 96.61 163.28 , 96.61 163.28 , 92.86 159.53 , 92.86 "
     style="stroke-width:1;stroke:#FFFFFF;fill:#00FF00;stroke-opacity:0.000000;fill-opacity:1.000000"
     id="polygon164" />
  <polygon
     points="168.88 , 70.95 172.63 , 70.95 172.63 , 67.20 168.88 , 67.20 "
     style="stroke-width:1;stroke:#FFFFFF;fill:#00FF00;stroke-opacity:0.000000;fill-opacity:1.000000"
     id="polygon166" />
  <polygon
     points="178.22 , 82.93 181.97 , 82.93 181.97 , 79.18 178.22 , 79.18 "
     style="stroke-width:1;stroke:#FFFFFF;fill:#00FF00;stroke-opacity:0.000000;fill-opacity:1.000000"
     id="polygon168" />
  <polygon
     points="187.56 , 128.33 191.31 , 128.33 191.31 , 124.58 187.56 , 124.58 "
     style="stroke-width:1;stroke:#FFFFFF;fill:#00FF00;stroke-opacity:0.000000;fill-opacity:1.000000"
     id="polygon170" />
  <polygon
     points="196.91 , 183.47 200.66 , 183.47 200.66 , 179.72 196.91 , 179.72 "
     style="stroke-width:1;stroke:#FFFFFF;fill:#00FF00;stroke-opacity:0.000000;fill-opacity:1.000000"
     id="polygon172" />
  <polygon
     points="206.25 , 224.48 210.00 , 224.48 210.00 , 220.73 206.25 , 220.73 "
     style="stroke-width:1;stroke:#FFFFFF;fill:#00FF00;stroke-opacity:0.000000;fill-opacity:1.000000"
     id="polygon174" />
  <polygon
     points="215.59 , 244.17 219.34 , 244.17 219.34 , 240.42 215.59 , 240.42 "
     style="stroke-width:1;stroke:#FFFFFF;fill:#00FF00;stroke-opacity:0.000000;fill-opacity:1.000000"
     id="polygon176" />
  <polygon
     points="224.94 , 249.83 228.69 , 249.83 228.69 , 246.08 224.94 , 246.08 "
     style="stroke-width:1;stroke:#FFFFFF;fill:#00FF00;stroke-opacity:0.000000;fill-opacity:1.000000"
     id="polygon178" />
  <polygon
     points="38.07 , 248.71 39.95 , 246.83 41.82 , 248.71 39.95 , 250.58 "
     style="stroke-width:1;stroke:#FFFFFF;fill:#0000FF;stroke-opacity:0.000000;fill-opacity:1.000000"
     id="polygon180" />
  <polygon
     points="47.42 , 248.69 49.29 , 246.81 51.17 , 248.69 49.29 , 250.56 "
     style="stroke-width:1;stroke:#FFFFFF;fill:#0000FF;stroke-opacity:0.000000;fill-opacity:1.000000"
     id="polygon182" />
  <polygon
     points="56.76 , 248.54 58.64 , 246.66 60.51 , 248.54 58.64 , 250.41 "
     style="stroke-width:1;stroke:#FFFFFF;fill:#0000FF;stroke-opacity:0.000000;fill-opacity:1.000000"
     id="polygon184" />
  <polygon
     points="66.10 , 247.69 67.98 , 245.81 69.85 , 247.69 67.98 , 249.56 "
     style="stroke-width:1;stroke:#FFFFFF;fill:#0000FF;stroke-opacity:0.000000;fill-opacity:1.000000"
     id="polygon186" />
  <polygon
     points="75.45 , 244.38 77.32 , 242.50 79.20 , 244.38 77.32 , 246.25 "
     style="stroke-width:1;stroke:#FFFFFF;fill:#0000FF;stroke-opacity:0.000000;fill-opacity:1.000000"
     id="polygon188" />
  <polygon
     points="84.79 , 234.85 86.66 , 232.97 88.54 , 234.85 86.66 , 236.72 "
     style="stroke-width:1;stroke:#FFFFFF;fill:#0000FF;stroke-opacity:0.000000;fill-opacity:1.000000"
     id="polygon190" />
  <polygon
     points="94.13 , 214.06 96.01 , 212.18 97.88 , 214.06 96.01 , 215.93 "
     style="stroke-width:1;stroke:#FFFFFF;fill:#0000FF;stroke-opacity:0.000000;fill-opacity:1.000000"
     id="polygon192" />
  <polygon
     points="103.48 , 179.41 105.35 , 177.54 107.23 , 179.41 105.35 , 181.29 "
     style="stroke-width:1;stroke:#FFFFFF;fill:#0000FF;stroke-opacity:0.000000;fill-opacity:1.000000"
     id="polygon194" />
  <polygon
     points="112.82 , 136.10 114.69 , 134.23 116.57 , 136.10 114.69 , 137.98 "
     style="stroke-width:1;stroke:#FFFFFF;fill:#0000FF;stroke-opacity:0.000000;fill-opacity:1.000000"
     id="polygon196" />
  <polygon
     points="122.16 , 98.57 124.04 , 96.69 125.91 , 98.57 124.04 , 100.44 "
     style="stroke-width:1;stroke:#FFFFFF;fill:#0000FF;stroke-opacity:0.000000;fill-opacity:1.000000"
     id="polygon198" />
  <polygon
     points="131.50 , 83.55 133.38 , 81.68 135.25 , 83.55 133.38 , 85.43 "
     style="stroke-width:1;stroke:#FFFFFF;fill:#0000FF;stroke-opacity:0.000000;fill-opacity:1.000000"
     id="polygon200" />
  <polygon
     points="140.85 , 98.57 142.72 , 96.69 144.60 , 98.57 142.72 , 100.44 "
     style="stroke-width:1;stroke:#FFFFFF;fill:#0000FF;stroke-opacity:0.000000;fill-opacity:1.000000"
     id="polygon202" />
  <polygon
     points="150.19 , 136.10 152.07 , 134.23 153.94 , 136.10 152.07 , 137.98 "
     style="stroke-width:1;stroke:#FFFFFF;fill:#0000FF;stroke-opacity:0.000000;fill-opacity:1.000000"
     id="polygon204" />
  <polygon
     points="159.53 , 179.41 161.41 , 177.54 163.28 , 179.41 161.41 , 181.29 "
     style="stroke-width:1;stroke:#FFFFFF;fill:#0000FF;stroke-opacity:0.000000;fill-opacity:1.000000"
     id="polygon206" />
  <polygon
     points="168.88 , 214.06 170.75 , 212.18 172.63 , 214.06 170.75 , 215.93 "
     style="stroke-width:1;stroke:#FFFFFF;fill:#0000FF;stroke-opacity:0.000000;fill-opacity:1.000000"
     id="polygon208" />
  <polygon
     points="178.22 , 234.85 180.09 , 232.97 181.97 , 234.85 180.09 , 236.72 "
     style="stroke-width:1;stroke:#FFFFFF;fill:#0000FF;stroke-opacity:0.000000;fill-opacity:1.000000"
     id="polygon210" />
  <polygon
     points="187.56 , 244.38 189.44 , 242.50 191.31 , 244.38 189.44 , 246.25 "
     style="stroke-width:1;stroke:#FFFFFF;fill:#0000FF;stroke-opacity:0.000000;fill-opacity:1.000000"
     id="polygon212" />
  <polygon
     points="196.91 , 247.69 198.78 , 245.81 200.66 , 247.69 198.78 , 249.56 "
     style="stroke-width:1;stroke:#FFFFFF;fill:#0000FF;stroke-opacity:0.000000;fill-opacity:1.000000"
     id="polygon214" />
  <polygon
     points="206.25 , 248.54 208.12 , 246.66 210.00 , 248.54 208.12 , 250.41 "
     style="stroke-width:1;stroke:#FFFFFF;fill:#0000FF;stroke-opacity:0.000000;fill-opacity:1.000000"
     id="polygon216" />
  <polygon
     points="215.59 , 248.69 217.47 , 246.81 219.34 , 248.69 217.47 , 250.56 "
     style="stroke-width:1;stroke:#FFFFFF;fill:#0000FF;stroke-opacity:0.000000;fill-opacity:1.000000"
     id="polygon218" />
  <polygon
     points="224.94 , 248.71 226.81 , 246.83 228.69 , 248.71 226.81 , 250.58 "
     style="stroke-width:1;stroke:#FFFFFF;fill:#0000FF;stroke-opacity:0.000000;fill-opacity:1.000000"
     id="polygon220" />
  <polygon
     points="309.83 , 26.87 311.70 , 25.00 313.58 , 26.87 311.70 , 28.75 "
     style="stroke-width:1;stroke:#FFFFFF;fill:#0000FF;stroke-opacity:0.000000;fill-opacity:1.000000"
     id="polygon222" />
  <polygon
     points="309.83 , 43.75 313.58 , 43.75 313.58 , 40.00 309.83 , 40.00 "
     style="stroke-width:1;stroke:#FFFFFF;fill:#00FF00;stroke-opacity:0.000000;fill-opacity:1.000000"
     id="polygon224" />
  <circle
     cx="311.70"
     cy="56.87"
     r="1.88"
     style="stroke-width:1;stroke:#FF0000;fill:#FF0000;stroke-opacity:1.000000;fill-opacity:1.000000"
     id="circle226" />
  <text
     transform="translate(320.70,31.87) "
     style="font-size:12;fill:#ffffff"
     id="text228">p=0.5 and n=20</text>
  <text
     transform="translate(320.70,46.87) "
     style="font-size:12;fill:#ffffff"
     id="text230">p=0.7 and n=20</text>
  <text
     transform="translate(320.70,61.87) "
     style="font-size:12;fill:#ffffff"
     id="text232">p=0.5 and n=40</text>
</svg>
