<?xml version="1.0" encoding="UTF-8" standalone="no"?>
<!-- Created with Inkscape (http://www.inkscape.org/) -->

<svg
   width="270.93332mm"
   height="270.93332mm"
   viewBox="0 0 270.93332 270.93332"
   version="1.1"
   id="svg5"
   xml:space="preserve"
   inkscape:version="1.2.1 (9c6d41e410, 2022-07-14, custom)"
   sodipodi:docname="copyleftnewlogo.svg"
   xmlns:inkscape="http://www.inkscape.org/namespaces/inkscape"
   xmlns:sodipodi="http://sodipodi.sourceforge.net/DTD/sodipodi-0.dtd"
   xmlns:xlink="http://www.w3.org/1999/xlink"
   xmlns="http://www.w3.org/2000/svg"
   xmlns:svg="http://www.w3.org/2000/svg"><sodipodi:namedview
     id="namedview7"
     pagecolor="#ffffff"
     bordercolor="#666666"
     borderopacity="1.0"
     inkscape:showpageshadow="2"
     inkscape:pageopacity="0.0"
     inkscape:pagecheckerboard="0"
     inkscape:deskcolor="#d1d1d1"
     inkscape:document-units="mm"
     showgrid="false"
     inkscape:zoom="0.77593294"
     inkscape:cx="255.17669"
     inkscape:cy="579.94702"
     inkscape:window-width="1911"
     inkscape:window-height="1043"
     inkscape:window-x="4"
     inkscape:window-y="16"
     inkscape:window-maximized="1"
     inkscape:current-layer="layer1" /><defs
     id="defs2"><linearGradient
       inkscape:collect="always"
       id="linearGradient3264"><stop
         style="stop-color:#b7b7b7;stop-opacity:1;"
         offset="0.07434188"
         id="stop3260" /><stop
         style="stop-color:#e7e7e7;stop-opacity:1;"
         offset="0.96187294"
         id="stop3262" /></linearGradient><linearGradient
       inkscape:collect="always"
       xlink:href="#linearGradient3264"
       id="linearGradient3270"
       x1="0.49403381"
       y1="135.58868"
       x2="270.91574"
       y2="135.58868"
       gradientUnits="userSpaceOnUse" /></defs><g
     inkscape:label="Layer 1"
     inkscape:groupmode="layer"
     id="layer1"
     transform="translate(-0.2271632,-0.29609689)"><circle
       style="fill:url(#linearGradient3270);stroke-width:0.1;fill-opacity:1"
       id="path3177"
       cx="135.70488"
       cy="135.58868"
       r="135.21085" /><path
       style="fill:#000000;stroke-width:0.264583"
       d="m 121.47214,231.21119 c -4.0267,-8.41372 -7.83053,-12.4363 -18.45436,-19.51567 -6.631616,-4.41908 -11.264375,-8.14379 -17.4643,-14.04118 -10.543643,-10.02916 -16.180702,-13.24764 -23.317948,-13.31339 -3.280061,-0.0302 -3.403539,0.0218 -4.897107,2.06306 -0.593867,0.81165 -0.755015,0.91771 -0.755015,0.49695 0,-1.29806 -1.450067,-6.02224 -3.643637,-11.87062 -2.970583,-7.92002 -3.595648,-10.51951 -2.978865,-12.38838 0.715553,-2.16814 -6.058775,-8.92628 -15.07333,-15.03731 -2.058395,-1.3954 -3.336575,-2.43582 -3.384838,-2.75521 -0.123566,-0.81771 2.009513,-4.85335 2.565283,-4.85335 1.493618,0 10.884379,6.7595 17.206243,12.3851 2.245055,1.99779 2.96582,2.26096 3.562331,1.30067 0.383548,-0.61745 -0.209902,-1.70769 -5.505294,-10.1139 -10.268693,-16.3011 -10.45338,-26.39317 -0.761769,-41.62652 l 1.065297,-1.67444 0.133614,5.11403 c 0.141843,5.42893 0.724249,8.97385 3.252732,19.79839 0.492884,2.11006 1.26174,5.5553 1.708573,7.6561 0.960239,4.51462 2.361287,10.14373 2.571972,10.33364 0.528736,0.47659 -0.474263,-8.87558 -1.91517,-17.85744 -3.259709,-20.31933 -2.871862,-41.220712 0.968729,-52.205646 2.561548,-7.32659 6.647693,-10.814443 15.419747,-13.162001 2.901669,-0.776536 2.783311,-0.984618 1.223798,2.151504 -4.039819,8.123925 -7.408796,22.011478 -8.756602,36.096348 -0.781417,8.166015 -0.410659,38.310235 0.48218,39.203075 0.123028,0.12303 0.366847,-2.7835 0.541816,-6.45896 2.577843,-54.151014 17.123573,-77.941481 51.64219,-84.464082 23.42796,-4.426926 53.51381,4.479796 72.20244,21.375057 3.60469,3.258788 7.09681,7.388511 5.25432,6.213679 -6.82223,-4.350089 -15.32856,-7.767701 -22.25129,-8.939961 -2.86525,-0.485188 -7.31589,-0.724752 -7.31589,-0.39379 0,0.0754 0.60266,1.338051 1.33926,2.80588 1.71072,3.409021 1.74562,3.403028 -2.71875,0.466772 -19.97118,-13.135215 -38.29693,-11.997533 -33.70161,2.092232 0.71549,2.193756 0.82582,4.024911 0.25382,4.212524 -0.16453,0.05397 -0.38251,-0.234484 -0.48439,-0.641006 -1.3217,-5.273746 -8.01255,-9.331121 -13.00693,-7.887493 -6.57752,1.901227 -10.55119,6.162656 -10.55119,11.315271 0,1.564192 -0.0199,2.844114 -0.0443,2.84427 -0.0244,1.56e-4 -0.95072,-0.535614 -2.05858,-1.190601 -1.10786,-0.654984 -2.71662,-1.545415 -3.57502,-1.978737 l -1.560731,-0.787852 -1.605534,1.206902 C 82.769468,87.945574 70.373318,122.00284 70.344108,150.65061 c -0.0024,2.28909 -0.0105,2.3181 -0.611512,2.16726 -3.931531,-0.98675 -13.641094,3.19265 -17.914506,7.71115 l -1.38454,1.46395 0.113657,2.16543 c 0.106013,2.01985 1.462505,6.007 2.040477,5.9976 0.0876,-0.001 0.919231,-1.20203 1.848072,-2.66801 2.438863,-3.84923 7.011156,-7.46908 10.482029,-8.29854 4.855451,-1.16035 10.442903,0.0222 10.23875,2.16693 -0.200581,2.10722 0.989364,5.68181 2.481884,7.45556 1.76172,2.09369 3.574979,2.29111 7.983011,0.86917 1.346067,-0.43422 2.447396,-0.74668 2.447396,-0.69436 0,0.0523 -0.361358,0.66481 -0.803013,1.36109 -3.099496,4.88638 -2.147978,11.35612 2.530072,17.20296 6.850946,8.56263 21.168165,17.95077 22.117665,14.50309 0.67638,-2.456 -2.12434,-9.75757 -6.70323,-17.47551 -0.94968,-1.60073 -1.99474,-3.43992 -2.32235,-4.0871 l -0.59566,-1.17668 0.78236,-0.6754 c 1.48428,-1.28135 6.74304,-5.34071 6.81042,-5.25712 8.64145,10.72073 10.71959,13.65482 12.98986,18.34005 6.0274,12.43899 6.50565,29.3165 1.14878,40.54082 -1.02198,2.14136 -1.02375,2.14063 -2.55159,-1.05176 z m 82.92981,-0.41768 c -0.47694,-2.38469 0.66548,-8.08372 2.6967,-13.45275 3.76899,-9.96234 4.29291,-13.07447 3.18812,-18.9379 -0.41249,-2.18922 -0.37549,-2.19207 -1.82839,0.14051 l -1.18648,1.90485 -0.16476,3.17758 c -0.60827,11.73149 -6.89253,21.91414 -15.1374,24.52781 l -2.6234,0.83163 -0.91753,-0.49413 c -1.84787,-0.99514 -2.15671,-3.59585 -0.78328,-6.59583 1.24551,-2.72053 2.68123,-3.90009 6.94017,-5.70187 6.40725,-2.71064 8.74269,-5.33027 11.49644,-12.89543 0.98652,-2.71021 1.02902,-3.879 0.17218,-4.73584 -0.0997,-0.0997 -0.18495,-0.8461 -0.18938,-1.65859 -0.01,-1.79997 -0.51329,-1.26607 -0.59947,0.63569 -0.0298,0.65713 -0.17245,1.14906 -0.31853,1.09828 -0.44266,-0.15389 -0.14843,-1.9395 0.65109,-3.95133 0.94091,-2.36763 2.47922,-12.10465 1.90949,-12.08646 -0.0986,0.003 -0.35792,0.38394 -0.5762,0.84621 -1.52645,3.23264 -1.25101,-3.44513 0.52624,-12.75818 1.37231,-7.1911 1.85512,-10.64985 1.84668,-13.22917 -0.009,-2.81966 -0.0179,-2.84327 -2.81455,-7.67292 -3.45632,-5.96884 -4.38751,-9.21264 -4.44323,-15.47812 -0.0674,-7.57908 -1.60328,-10.53602 -8.2,-15.78715 -1.15756,-0.92144 -2.63645,-2.37569 -3.28642,-3.23166 -0.86755,-1.14251 -1.53906,-1.71658 -2.52555,-2.1591 l -1.34379,-0.60279 1.03706,-0.44289 c 7.2893,-3.11297 11.7052,-2.16259 18.07992,3.89111 2.68934,2.55391 4.572,4.04872 7.82278,6.21117 6.92947,4.60956 7.36859,5.13767 16.02245,19.26975 4.82635,7.8816 8.01312,12.34644 20.35476,28.51817 1.53717,2.01422 1.7934,3.09485 0.73383,3.09485 -1.1116,0 -1.39878,-0.24033 -4.53704,-3.79668 -9.24308,-10.4745 -16.38435,-17.36065 -19.24219,-18.55473 -1.15362,-0.48201 -1.21754,-0.40509 -1.86397,2.24307 -1.18022,4.83487 -1.16392,5.81441 0.21345,12.83229 1.37905,7.02644 1.38009,8.67927 0.005,7.53783 -0.31883,-0.26461 -0.39349,-0.25051 -0.39349,0.0743 0,0.68418 2.99805,16.58275 3.34809,17.75484 0.29888,1.00078 -0.48954,0.0885 -2.11008,-2.44159 -1.45682,-2.27447 -1.64405,-2.47274 -1.71904,-1.82039 -0.10433,0.90759 -0.56951,0.6864 -0.59873,-0.28469 -0.0202,-0.67212 -0.0477,-0.65563 -0.4911,0.2946 l -0.46969,1.00658 -0.33826,-0.81663 c -0.58099,-1.40264 -0.56094,-0.75684 0.12538,4.03817 0.64451,4.50289 0.86956,9.68826 0.50056,11.53326 -0.17503,0.87514 -1.42213,1.26778 -1.42213,0.44775 0,-0.2085 -0.2929,-0.95264 -0.65089,-1.65365 l -0.65088,-1.27456 -0.17594,0.85989 c -0.10135,0.49535 -0.33908,0.8599 -0.56077,0.8599 -0.28887,0 -0.34701,-0.2144 -0.23319,-0.8599 0.15604,-0.8849 -1.20694,1.55628 -1.50475,2.69508 -0.23521,0.89946 -1.8306,0.33399 -2.11103,-0.74822 -0.21425,-0.8268 -0.25176,-0.85106 -0.60169,-0.38906 -0.34457,0.45493 -0.37385,0.42278 -0.38162,-0.41897 l -0.008,-0.9117 -0.82237,1.29674 c -0.4523,0.71321 -0.9311,1.54019 -1.06399,1.83774 -0.25336,0.56728 -0.26011,0.63137 0.17286,-1.64182 0.13397,-0.70335 0.1237,-0.69926 -0.30796,0.12254 -0.4217,0.80282 -0.41837,0.99426 0.0599,3.43958 1.54596,7.90516 0.28979,13.54306 -4.56953,20.50869 -3.31477,4.75158 -3.87007,5.28251 -4.13573,3.95422 z m -51.13357,-2.60157 c 0.0908,-0.23662 0.57137,-1.81209 1.06793,-3.50105 0.49657,-1.68897 1.38652,-4.44006 1.97767,-6.11355 1.70493,-4.82646 -1.02385,-4.53071 -9.89596,1.07254 -2.1384,1.35052 -2.08756,1.39826 -1.58987,-1.49287 1.78955,-10.39552 7.86752,-20.62292 15.76055,-26.52027 2.00237,-1.49609 1.17658,-1.90342 8.28141,4.08483 6.20451,5.22943 13.57194,6.16526 18.56354,2.35798 1.15567,-0.88147 1.29793,-0.77827 0.91051,0.6605 -0.89664,3.32987 -3.09139,6.09358 -6.69758,8.43383 l -1.79404,1.16426 0.84513,0.87195 c 1.63123,1.683 -1.47528,5.91548 -7.53042,10.25984 -4.51382,3.23852 -20.48016,10.23683 -19.89887,8.72201 z M 133.03005,177.56502 C 115.04696,176.19769 99.920153,164.04278 97.749302,149.21573 l -0.180292,-1.23141 1.375418,-1.14984 c 4.400442,-3.67877 4.411972,-3.70983 1.295232,-3.48859 -1.750736,0.12427 -2.381252,0.0862 -2.381252,-0.14368 0,-0.84698 0.957366,-2.31202 3.520072,-5.38674 3.45935,-4.15049 3.24056,-3.71285 3.60561,-7.21209 2.53738,-24.32197 9.91018,-36.046292 24.96055,-39.692568 5.33886,-1.293453 5.46547,-0.795972 0.60807,2.389306 -8.72611,5.722213 -11.906,13.067852 -9.77366,22.577372 l 0.49498,2.20744 1.19063,-0.15363 c 2.83797,-0.36621 7.53087,-0.68614 7.97886,-0.54396 0.66549,0.21122 0.74586,6.70248 0.0911,7.35725 -0.55787,0.55787 -2.77674,0.79564 -7.60562,0.815 -2.29123,0.009 -4.16646,0.0579 -4.16719,0.10816 -7.9e-4,0.0503 0.22061,0.40748 0.49185,0.79375 1.07651,1.53305 3.02377,5.19176 9.17492,17.23876 5.5158,10.80267 8.53383,16.53301 9.82966,18.66363 0.37252,0.61249 0.35827,0.62653 2.29154,-2.25947 2.63268,-3.9301 17.52689,-32.99388 17.28385,-33.7268 -0.0512,-0.15426 -1.95339,-0.40391 -4.39116,-0.57629 -7.92851,-0.56067 -7.42989,-0.23081 -7.42989,-4.91508 v -3.46163 l 4.74729,0.15615 4.74729,0.15614 0.3371,-1.50426 c 2.02025,-9.01517 -1.86479,-17.161625 -11.07148,-23.21557 -4.51655,-2.969897 -3.50849,-3.551128 3.2052,-1.848061 13.80261,3.501321 19.91481,13.930651 21.69162,37.012741 0.44834,5.82427 0.22724,5.32583 4.33327,9.76887 4.43958,4.80396 4.61497,5.51369 1.29838,5.25418 -2.87572,-0.22502 -2.87705,-0.22353 -1.03134,1.15437 0.82956,0.61931 1.97124,1.60948 2.53705,2.20039 l 1.02877,1.07436 -0.44719,1.78025 c -4.78431,19.04643 -21.8297,29.8638 -44.35848,28.15084 z M 75.556104,158.08598 c 0.524795,-9.76523 3.431325,-21.70866 5.751602,-23.63432 0.827751,-0.68697 0.719246,-0.004 -0.468966,2.94988 -1.991593,4.95183 -3.124745,9.63021 -4.407929,18.19875 -0.662461,4.42363 -1.035884,5.48479 -0.874707,2.48569 z"
       id="path3034" /></g></svg>
